M48
;DRILL file {KiCad (5.0.2)-1} date 31/01/2019 01:27:17
;FORMAT={3:3/ absolute / metric / suppress leading zeros}
FMAT,2
METRIC,TZ
T1C0.400
T2C0.762
T3C0.800
T4C0.900
T5C1.000
T6C1.100
%
G90
G05
T1
X105410Y-132080
X105410Y-144780
X109220Y-111760
X109220Y-121920
X109855Y-93980
X110490Y-97790
X114300Y-92075
X114300Y-97790
X116840Y-93980
X118745Y-105410
X119380Y-91440
X120650Y-63500
X120650Y-76200
X121920Y-97790
X125730Y-93980
X125730Y-121920
X125730Y-144780
X133350Y-99695
X134620Y-63500
X134620Y-76200
X135255Y-94615
X135890Y-90805
X135890Y-121920
X140970Y-57150
X142240Y-57150
X144780Y-73660
X147320Y-80010
X148590Y-54610
X148590Y-63500
X148590Y-93980
X148590Y-105410
X148590Y-111760
X148590Y-132080
X148590Y-144780
X152400Y-80010
X152400Y-85090
X154940Y-57120
X157480Y-80010
X157480Y-81280
X165384Y-117894
X166370Y-63500
X166370Y-76200
X166370Y-93980
X166370Y-105410
X166370Y-132080
X166370Y-144780
X180340Y-63500
X180340Y-76200
X180340Y-93980
X180340Y-105410
X180340Y-118110
X180340Y-132080
X180340Y-144780
X194310Y-93980
X194310Y-105410
X194310Y-118110
X194310Y-132080
X194310Y-144780
T2
X143510Y-129540
X146050Y-129540
X148590Y-129540
X151130Y-129540
X153670Y-129540
X156210Y-129540
X119380Y-54610
X121920Y-54610
X124460Y-54610
X127000Y-54610
X129540Y-54610
X132080Y-54610
X167640Y-54610
X170180Y-54610
X172720Y-54610
X175260Y-54610
X177800Y-54610
X180340Y-54610
X143510Y-68580
X146050Y-68580
X148590Y-68580
X151130Y-68580
X153670Y-68580
X156210Y-68580
X185420Y-125730
X187960Y-125730
X190500Y-125730
X162560Y-111760
X162560Y-119380
X193040Y-111760
X193040Y-119380
X135890Y-109220
X135890Y-112395
X139700Y-117475
X139700Y-120015
X139700Y-123825
X139700Y-126365
X153035Y-117475
X153035Y-120015
X153035Y-123825
X153035Y-126365
X118110Y-80645
X120650Y-80645
X123190Y-80645
X109220Y-125730
X111760Y-125730
X114300Y-125730
X163830Y-86360
X166370Y-86360
X168910Y-86360
X171450Y-86360
X173990Y-86360
X176530Y-86360
X179070Y-86360
X181610Y-86360
X176530Y-81280
X179070Y-81280
T3
X134620Y-130810
X134620Y-140970
X130810Y-116840
X130810Y-127000
X118110Y-97155
X128270Y-97155
X109220Y-86360
X109220Y-101600
X111760Y-86360
X111760Y-101600
X114300Y-86360
X114300Y-101600
X116840Y-86360
X116840Y-101600
X119380Y-86360
X119380Y-101600
X121920Y-86360
X121920Y-101600
X124460Y-86360
X124460Y-101600
X127000Y-86360
X127000Y-101600
X129540Y-86360
X129540Y-101600
X132080Y-86360
X132080Y-101600
X134620Y-86360
X134620Y-101600
X137160Y-86360
X137160Y-101600
X139700Y-86360
X139700Y-101600
X142240Y-86360
X142240Y-101600
X144780Y-86360
X144780Y-101600
X106680Y-106680
X106680Y-116840
X120650Y-116840
X120650Y-127000
X120650Y-93980
X130810Y-93980
X105410Y-90805
X115570Y-90805
X125730Y-116840
X125730Y-127000
X123190Y-90805
X133350Y-90805
X165100Y-130810
X165100Y-140970
T4
X124460Y-133350
X125730Y-133350
X127000Y-133350
X128270Y-133350
T5
X127000Y-107315
X127000Y-112315
T6
X111070Y-109070
X111070Y-115570
X115570Y-109070
X115570Y-115570
T0
M30
