G04 #@! TF.GenerationSoftware,KiCad,Pcbnew,(5.0.2)-1*
G04 #@! TF.CreationDate,2019-01-31T21:33:12+01:00*
G04 #@! TF.ProjectId,bigmax,6269676d-6178-42e6-9b69-6361645f7063,v1*
G04 #@! TF.SameCoordinates,Original*
G04 #@! TF.FileFunction,Legend,Top*
G04 #@! TF.FilePolarity,Positive*
%FSLAX46Y46*%
G04 Gerber Fmt 4.6, Leading zero omitted, Abs format (unit mm)*
G04 Created by KiCad (PCBNEW (5.0.2)-1) date 31/01/2019 21:33:12*
%MOMM*%
%LPD*%
G01*
G04 APERTURE LIST*
%ADD10C,0.150000*%
%ADD11C,0.120000*%
G04 APERTURE END LIST*
D10*
X178435000Y-83820000D02*
X179705000Y-83820000D01*
X175895000Y-83820000D02*
X177165000Y-83820000D01*
X176530000Y-83185000D02*
X176530000Y-84455000D01*
X182880000Y-76835000D02*
X165100000Y-76835000D01*
X165100000Y-76835000D02*
X165100000Y-61595000D01*
X172720000Y-60325000D02*
X172720000Y-61595000D01*
X165100000Y-60960000D02*
G75*
G02X172720000Y-60960000I3810000J0D01*
G01*
X182880000Y-61595000D02*
X182880000Y-76835000D01*
X165100000Y-60325000D02*
X165100000Y-61595000D01*
X172720000Y-78105000D02*
G75*
G02X165100000Y-78105000I-3810000J0D01*
G01*
X165100000Y-76835000D02*
X165100000Y-78105000D01*
X172720000Y-76835000D02*
X172720000Y-78105000D01*
X165100000Y-61595000D02*
X182880000Y-61595000D01*
X134620000Y-78105000D02*
X134620000Y-76835000D01*
X134620000Y-61595000D02*
X134620000Y-60325000D01*
X127000000Y-61595000D02*
X127000000Y-60325000D01*
X127000000Y-78105000D02*
X127000000Y-76835000D01*
X134620000Y-78105000D02*
G75*
G02X127000000Y-78105000I-3810000J0D01*
G01*
X127000000Y-60325000D02*
G75*
G02X134620000Y-60325000I3810000J0D01*
G01*
X116840000Y-76835000D02*
X116840000Y-61595000D01*
X134620000Y-76835000D02*
X116840000Y-76835000D01*
X134620000Y-61595000D02*
X134620000Y-76835000D01*
X116840000Y-61595000D02*
X134620000Y-61595000D01*
G04 #@! TO.C,U6*
X196215000Y-123825000D02*
X196215000Y-107315000D01*
X196215000Y-123825000D02*
X159385000Y-123825000D01*
X159385000Y-123825000D02*
X159385000Y-107315000D01*
X159385000Y-107315000D02*
X196215000Y-107315000D01*
G04 #@! TO.C,U10*
X175260000Y-80010000D02*
X180340000Y-80010000D01*
X180340000Y-80010000D02*
X180340000Y-82550000D01*
X180340000Y-82550000D02*
X175260000Y-82550000D01*
X175260000Y-82550000D02*
X175260000Y-80010000D01*
G04 #@! TO.C,U9*
X133985000Y-107315000D02*
X158115000Y-107315000D01*
X133985000Y-107315000D02*
X133985000Y-128270000D01*
X133985000Y-128270000D02*
X158115000Y-128270000D01*
X158115000Y-107315000D02*
X158115000Y-128270000D01*
X138430000Y-116205000D02*
X140970000Y-116205000D01*
X140970000Y-116205000D02*
X140970000Y-121285000D01*
X140970000Y-121285000D02*
X138430000Y-121285000D01*
X138430000Y-121285000D02*
X138430000Y-116205000D01*
X138430000Y-122555000D02*
X140970000Y-122555000D01*
X140970000Y-122555000D02*
X140970000Y-127635000D01*
X140970000Y-127635000D02*
X138430000Y-127635000D01*
X138430000Y-127635000D02*
X138430000Y-122555000D01*
X151765000Y-116205000D02*
X154305000Y-116205000D01*
X154305000Y-116205000D02*
X154305000Y-121285000D01*
X154305000Y-121285000D02*
X151765000Y-121285000D01*
X151765000Y-121285000D02*
X151765000Y-116205000D01*
X151765000Y-122555000D02*
X154305000Y-122555000D01*
X154305000Y-122555000D02*
X154305000Y-127635000D01*
X154305000Y-127635000D02*
X151765000Y-127635000D01*
X151765000Y-127635000D02*
X151765000Y-122555000D01*
X136525000Y-114935000D02*
G75*
G03X136525000Y-114935000I-1270000J0D01*
G01*
G04 #@! TO.C,U4*
X166370000Y-55880000D02*
X166370000Y-53340000D01*
X181610000Y-55880000D02*
X166370000Y-55880000D01*
X181610000Y-53340000D02*
X181610000Y-55880000D01*
X166370000Y-53340000D02*
X181610000Y-53340000D01*
G04 #@! TO.C,U8*
X142240000Y-69850000D02*
X142240000Y-67310000D01*
X157480000Y-69850000D02*
X142240000Y-69850000D01*
X157480000Y-67310000D02*
X157480000Y-69850000D01*
X147955000Y-54610000D02*
X147955000Y-55880000D01*
X151765000Y-54610000D02*
X147955000Y-54610000D01*
X151765000Y-55880000D02*
X151765000Y-54610000D01*
X137160000Y-57150000D02*
X142240000Y-57150000D01*
X137160000Y-55880000D02*
X137160000Y-57150000D01*
X162560000Y-55880000D02*
X137160000Y-55880000D01*
X162560000Y-57150000D02*
X162560000Y-55880000D01*
X157480000Y-57150000D02*
X162560000Y-57150000D01*
X142240000Y-57150000D02*
X142240000Y-59690000D01*
X157480000Y-57150000D02*
X142240000Y-57150000D01*
X157480000Y-59690000D02*
X157480000Y-57150000D01*
X152400000Y-67310000D02*
X152400000Y-59690000D01*
X149860000Y-67310000D02*
X149860000Y-59690000D01*
X147320000Y-67310000D02*
X147320000Y-59690000D01*
X144780000Y-67310000D02*
X144780000Y-59690000D01*
X142240000Y-59690000D02*
X142240000Y-67310000D01*
X157480000Y-59690000D02*
X142240000Y-59690000D01*
X157480000Y-67310000D02*
X157480000Y-59690000D01*
X154940000Y-67310000D02*
X154940000Y-59690000D01*
X157480000Y-67310000D02*
X142240000Y-67310000D01*
D11*
G04 #@! TO.C,D1*
X123805000Y-134430000D02*
X123805000Y-134895000D01*
X123805000Y-131805000D02*
X123805000Y-132270000D01*
X128619479Y-134430429D02*
G75*
G02X124110316Y-134430000I-2254479J1080429D01*
G01*
X128619479Y-132269571D02*
G75*
G03X124110316Y-132270000I-2254479J-1080429D01*
G01*
X129152815Y-134430827D02*
G75*
G02X123805000Y-134894830I-2787815J1080827D01*
G01*
X129152815Y-132269173D02*
G75*
G03X123805000Y-131805170I-2787815J-1080827D01*
G01*
G04 #@! TO.C,R1*
X132120000Y-118710000D02*
X129500000Y-118710000D01*
X129500000Y-118710000D02*
X129500000Y-125130000D01*
X129500000Y-125130000D02*
X132120000Y-125130000D01*
X132120000Y-125130000D02*
X132120000Y-118710000D01*
X130810000Y-117820000D02*
X130810000Y-118710000D01*
X130810000Y-126020000D02*
X130810000Y-125130000D01*
G04 #@! TO.C,R2*
X125730000Y-126020000D02*
X125730000Y-125130000D01*
X125730000Y-117820000D02*
X125730000Y-118710000D01*
X127040000Y-125130000D02*
X127040000Y-118710000D01*
X124420000Y-125130000D02*
X127040000Y-125130000D01*
X124420000Y-118710000D02*
X124420000Y-125130000D01*
X127040000Y-118710000D02*
X124420000Y-118710000D01*
G04 #@! TO.C,R3*
X105370000Y-114970000D02*
X107990000Y-114970000D01*
X107990000Y-114970000D02*
X107990000Y-108550000D01*
X107990000Y-108550000D02*
X105370000Y-108550000D01*
X105370000Y-108550000D02*
X105370000Y-114970000D01*
X106680000Y-115860000D02*
X106680000Y-114970000D01*
X106680000Y-107660000D02*
X106680000Y-108550000D01*
G04 #@! TO.C,R4*
X120650000Y-126020000D02*
X120650000Y-125130000D01*
X120650000Y-117820000D02*
X120650000Y-118710000D01*
X121960000Y-125130000D02*
X121960000Y-118710000D01*
X119340000Y-125130000D02*
X121960000Y-125130000D01*
X119340000Y-118710000D02*
X119340000Y-125130000D01*
X121960000Y-118710000D02*
X119340000Y-118710000D01*
G04 #@! TO.C,SW1*
X112570000Y-115820000D02*
X114070000Y-115820000D01*
X116570000Y-114570000D02*
X116570000Y-110070000D01*
X114070000Y-108820000D02*
X112570000Y-108820000D01*
X110070000Y-110070000D02*
X110070000Y-114570000D01*
D10*
G04 #@! TO.C,U1*
X115570000Y-137160000D02*
X115570000Y-149860000D01*
X107950000Y-149860000D02*
X107950000Y-137160000D01*
X115570000Y-134620000D02*
X115570000Y-127000000D01*
X115570000Y-127000000D02*
X107950000Y-127000000D01*
X107950000Y-127000000D02*
X107950000Y-134620000D01*
X113030000Y-134620000D02*
X113030000Y-127000000D01*
X110490000Y-134620000D02*
X110490000Y-127000000D01*
X107950000Y-134620000D02*
X115570000Y-134620000D01*
X115570000Y-134620000D02*
X115570000Y-137160000D01*
X107950000Y-137160000D02*
X107950000Y-134620000D01*
X115570000Y-149860000D02*
X107950000Y-149860000D01*
X107950000Y-137160000D02*
X115570000Y-137160000D01*
X113030000Y-147320000D02*
G75*
G03X113030000Y-147320000I-1270000J0D01*
G01*
X115570000Y-127000000D02*
X115570000Y-124460000D01*
X115570000Y-124460000D02*
X107950000Y-124460000D01*
X107950000Y-124460000D02*
X107950000Y-127000000D01*
G04 #@! TO.C,U2*
X184150000Y-124460000D02*
X184150000Y-127000000D01*
X191770000Y-124460000D02*
X184150000Y-124460000D01*
X191770000Y-127000000D02*
X191770000Y-124460000D01*
X189230000Y-147320000D02*
G75*
G03X189230000Y-147320000I-1270000J0D01*
G01*
X184150000Y-137160000D02*
X191770000Y-137160000D01*
X191770000Y-149860000D02*
X184150000Y-149860000D01*
X184150000Y-137160000D02*
X184150000Y-134620000D01*
X191770000Y-134620000D02*
X191770000Y-137160000D01*
X184150000Y-134620000D02*
X191770000Y-134620000D01*
X186690000Y-134620000D02*
X186690000Y-127000000D01*
X189230000Y-134620000D02*
X189230000Y-127000000D01*
X184150000Y-127000000D02*
X184150000Y-134620000D01*
X191770000Y-127000000D02*
X184150000Y-127000000D01*
X191770000Y-134620000D02*
X191770000Y-127000000D01*
X184150000Y-149860000D02*
X184150000Y-137160000D01*
X191770000Y-137160000D02*
X191770000Y-149860000D01*
G04 #@! TO.C,U3*
X118110000Y-53340000D02*
X133350000Y-53340000D01*
X133350000Y-53340000D02*
X133350000Y-55880000D01*
X133350000Y-55880000D02*
X118110000Y-55880000D01*
X118110000Y-55880000D02*
X118110000Y-53340000D01*
G04 #@! TO.C,U5*
X186690000Y-85090000D02*
X156210000Y-85090000D01*
X153670000Y-87630000D02*
X153670000Y-104140000D01*
X189230000Y-87630000D02*
X189230000Y-89535000D01*
X186690000Y-106680000D02*
X156210000Y-106680000D01*
X157480000Y-104140000D02*
G75*
G03X157480000Y-104140000I-1270000J0D01*
G01*
X157480000Y-87630000D02*
G75*
G03X157480000Y-87630000I-1270000J0D01*
G01*
X153670000Y-87630000D02*
G75*
G02X156210000Y-85090000I2540000J0D01*
G01*
X156210000Y-106680000D02*
G75*
G02X153670000Y-104140000I0J2540000D01*
G01*
X186690000Y-85090000D02*
G75*
G02X189230000Y-87630000I0J-2540000D01*
G01*
X189230000Y-104140000D02*
G75*
G02X186690000Y-106680000I-2540000J0D01*
G01*
X196850000Y-89535000D02*
X196850000Y-102235000D01*
X196850000Y-102235000D02*
X182880000Y-102235000D01*
X182880000Y-102235000D02*
X182880000Y-89535000D01*
X182880000Y-89535000D02*
X196850000Y-89535000D01*
X189230000Y-102235000D02*
X189230000Y-104140000D01*
X158750000Y-92075000D02*
X158750000Y-99695000D01*
X158750000Y-99695000D02*
X153670000Y-99695000D01*
X158750000Y-92075000D02*
X153670000Y-92075000D01*
X162560000Y-85090000D02*
X162560000Y-87630000D01*
X162560000Y-87630000D02*
X182880000Y-87630000D01*
X182880000Y-87630000D02*
X182880000Y-85090000D01*
G04 #@! TO.C,U7*
X142240000Y-130810000D02*
X157480000Y-130810000D01*
X144780000Y-130810000D02*
X144780000Y-138430000D01*
X142240000Y-130810000D02*
X142240000Y-138430000D01*
X142240000Y-138430000D02*
X157480000Y-138430000D01*
X157480000Y-138430000D02*
X157480000Y-130810000D01*
X154940000Y-130810000D02*
X154940000Y-138430000D01*
X152400000Y-130810000D02*
X152400000Y-138430000D01*
X149860000Y-130810000D02*
X149860000Y-138430000D01*
X147320000Y-130810000D02*
X147320000Y-138430000D01*
X142240000Y-138430000D02*
X142240000Y-140970000D01*
X142240000Y-140970000D02*
X157480000Y-140970000D01*
X157480000Y-140970000D02*
X157480000Y-138430000D01*
X142240000Y-140970000D02*
X137160000Y-140970000D01*
X137160000Y-140970000D02*
X137160000Y-142240000D01*
X137160000Y-142240000D02*
X162560000Y-142240000D01*
X162560000Y-142240000D02*
X162560000Y-140970000D01*
X162560000Y-140970000D02*
X157480000Y-140970000D01*
X147955000Y-142240000D02*
X147955000Y-143510000D01*
X147955000Y-143510000D02*
X151765000Y-143510000D01*
X151765000Y-143510000D02*
X151765000Y-142240000D01*
X142240000Y-130810000D02*
X142240000Y-128270000D01*
X142240000Y-128270000D02*
X157480000Y-128270000D01*
X157480000Y-128270000D02*
X157480000Y-130810000D01*
D11*
G04 #@! TO.C,R5*
X166410000Y-132680000D02*
X163790000Y-132680000D01*
X163790000Y-132680000D02*
X163790000Y-139100000D01*
X163790000Y-139100000D02*
X166410000Y-139100000D01*
X166410000Y-139100000D02*
X166410000Y-132680000D01*
X165100000Y-131790000D02*
X165100000Y-132680000D01*
X165100000Y-139990000D02*
X165100000Y-139100000D01*
G04 #@! TO.C,R6*
X134620000Y-139990000D02*
X134620000Y-139100000D01*
X134620000Y-131790000D02*
X134620000Y-132680000D01*
X135930000Y-139100000D02*
X135930000Y-132680000D01*
X133310000Y-139100000D02*
X135930000Y-139100000D01*
X133310000Y-132680000D02*
X133310000Y-139100000D01*
X135930000Y-132680000D02*
X133310000Y-132680000D01*
G04 #@! TO.C,A1*
X148720000Y-103000000D02*
X148720000Y-84960000D01*
X105280000Y-103000000D02*
X148720000Y-103000000D01*
X105280000Y-84960000D02*
X105280000Y-103000000D01*
X107950000Y-87630000D02*
X107950000Y-84960000D01*
X143510000Y-87630000D02*
X107950000Y-87630000D01*
X143510000Y-87630000D02*
X143510000Y-84960000D01*
X107950000Y-100330000D02*
X107950000Y-103000000D01*
X146050000Y-100330000D02*
X107950000Y-100330000D01*
X146050000Y-100330000D02*
X146050000Y-103000000D01*
X148720000Y-84960000D02*
X146050000Y-84960000D01*
X143510000Y-84960000D02*
X105280000Y-84960000D01*
X146050000Y-87630000D02*
X146050000Y-84960000D01*
X143510000Y-87630000D02*
X146050000Y-87630000D01*
G04 #@! TO.C,C1*
X128383264Y-114713437D02*
G75*
G03X128380000Y-104915643I-1383264J4898437D01*
G01*
X125616736Y-114713437D02*
G75*
G02X125620000Y-104915643I1383264J4898437D01*
G01*
X125616736Y-114713437D02*
G75*
G03X128380000Y-114714357I1383264J4898437D01*
G01*
X132050000Y-109815000D02*
X121950000Y-109815000D01*
X132050000Y-109855000D02*
X121950000Y-109855000D01*
X132050000Y-109895000D02*
X121950000Y-109895000D01*
X132049000Y-109935000D02*
X121951000Y-109935000D01*
X132048000Y-109975000D02*
X121952000Y-109975000D01*
X132047000Y-110015000D02*
X121953000Y-110015000D01*
X132045000Y-110055000D02*
X121955000Y-110055000D01*
X132043000Y-110095000D02*
X121957000Y-110095000D01*
X132040000Y-110135000D02*
X121960000Y-110135000D01*
X132038000Y-110175000D02*
X121962000Y-110175000D01*
X132035000Y-110215000D02*
X121965000Y-110215000D01*
X132031000Y-110255000D02*
X121969000Y-110255000D01*
X132028000Y-110295000D02*
X121972000Y-110295000D01*
X132024000Y-110335000D02*
X121976000Y-110335000D01*
X132020000Y-110375000D02*
X121980000Y-110375000D01*
X132015000Y-110415000D02*
X121985000Y-110415000D01*
X132010000Y-110455000D02*
X121990000Y-110455000D01*
X132005000Y-110495000D02*
X121995000Y-110495000D01*
X131999000Y-110536000D02*
X122001000Y-110536000D01*
X131993000Y-110576000D02*
X122007000Y-110576000D01*
X131987000Y-110616000D02*
X122013000Y-110616000D01*
X131981000Y-110656000D02*
X122019000Y-110656000D01*
X131974000Y-110696000D02*
X122026000Y-110696000D01*
X131967000Y-110736000D02*
X122033000Y-110736000D01*
X131959000Y-110776000D02*
X122041000Y-110776000D01*
X131951000Y-110816000D02*
X122049000Y-110816000D01*
X131943000Y-110856000D02*
X122057000Y-110856000D01*
X131935000Y-110896000D02*
X122065000Y-110896000D01*
X131926000Y-110936000D02*
X122074000Y-110936000D01*
X131917000Y-110976000D02*
X122083000Y-110976000D01*
X131907000Y-111016000D02*
X122093000Y-111016000D01*
X131897000Y-111056000D02*
X122103000Y-111056000D01*
X131887000Y-111096000D02*
X122113000Y-111096000D01*
X131876000Y-111136000D02*
X128181000Y-111136000D01*
X125819000Y-111136000D02*
X122124000Y-111136000D01*
X131865000Y-111176000D02*
X128181000Y-111176000D01*
X125819000Y-111176000D02*
X122135000Y-111176000D01*
X131854000Y-111216000D02*
X128181000Y-111216000D01*
X125819000Y-111216000D02*
X122146000Y-111216000D01*
X131843000Y-111256000D02*
X128181000Y-111256000D01*
X125819000Y-111256000D02*
X122157000Y-111256000D01*
X131831000Y-111296000D02*
X128181000Y-111296000D01*
X125819000Y-111296000D02*
X122169000Y-111296000D01*
X131818000Y-111336000D02*
X128181000Y-111336000D01*
X125819000Y-111336000D02*
X122182000Y-111336000D01*
X131806000Y-111376000D02*
X128181000Y-111376000D01*
X125819000Y-111376000D02*
X122194000Y-111376000D01*
X131792000Y-111416000D02*
X128181000Y-111416000D01*
X125819000Y-111416000D02*
X122208000Y-111416000D01*
X131779000Y-111456000D02*
X128181000Y-111456000D01*
X125819000Y-111456000D02*
X122221000Y-111456000D01*
X131765000Y-111496000D02*
X128181000Y-111496000D01*
X125819000Y-111496000D02*
X122235000Y-111496000D01*
X131751000Y-111536000D02*
X128181000Y-111536000D01*
X125819000Y-111536000D02*
X122249000Y-111536000D01*
X131737000Y-111576000D02*
X128181000Y-111576000D01*
X125819000Y-111576000D02*
X122263000Y-111576000D01*
X131722000Y-111616000D02*
X128181000Y-111616000D01*
X125819000Y-111616000D02*
X122278000Y-111616000D01*
X131706000Y-111656000D02*
X128181000Y-111656000D01*
X125819000Y-111656000D02*
X122294000Y-111656000D01*
X131691000Y-111696000D02*
X128181000Y-111696000D01*
X125819000Y-111696000D02*
X122309000Y-111696000D01*
X131674000Y-111736000D02*
X128181000Y-111736000D01*
X125819000Y-111736000D02*
X122326000Y-111736000D01*
X131658000Y-111776000D02*
X128181000Y-111776000D01*
X125819000Y-111776000D02*
X122342000Y-111776000D01*
X131641000Y-111816000D02*
X128181000Y-111816000D01*
X125819000Y-111816000D02*
X122359000Y-111816000D01*
X131624000Y-111856000D02*
X128181000Y-111856000D01*
X125819000Y-111856000D02*
X122376000Y-111856000D01*
X131606000Y-111896000D02*
X128181000Y-111896000D01*
X125819000Y-111896000D02*
X122394000Y-111896000D01*
X131588000Y-111936000D02*
X128181000Y-111936000D01*
X125819000Y-111936000D02*
X122412000Y-111936000D01*
X131569000Y-111976000D02*
X128181000Y-111976000D01*
X125819000Y-111976000D02*
X122431000Y-111976000D01*
X131550000Y-112016000D02*
X128181000Y-112016000D01*
X125819000Y-112016000D02*
X122450000Y-112016000D01*
X131531000Y-112056000D02*
X128181000Y-112056000D01*
X125819000Y-112056000D02*
X122469000Y-112056000D01*
X131511000Y-112096000D02*
X128181000Y-112096000D01*
X125819000Y-112096000D02*
X122489000Y-112096000D01*
X131491000Y-112136000D02*
X128181000Y-112136000D01*
X125819000Y-112136000D02*
X122509000Y-112136000D01*
X131470000Y-112176000D02*
X128181000Y-112176000D01*
X125819000Y-112176000D02*
X122530000Y-112176000D01*
X131449000Y-112216000D02*
X128181000Y-112216000D01*
X125819000Y-112216000D02*
X122551000Y-112216000D01*
X131428000Y-112256000D02*
X128181000Y-112256000D01*
X125819000Y-112256000D02*
X122572000Y-112256000D01*
X131405000Y-112296000D02*
X128181000Y-112296000D01*
X125819000Y-112296000D02*
X122595000Y-112296000D01*
X131383000Y-112336000D02*
X128181000Y-112336000D01*
X125819000Y-112336000D02*
X122617000Y-112336000D01*
X131360000Y-112376000D02*
X128181000Y-112376000D01*
X125819000Y-112376000D02*
X122640000Y-112376000D01*
X131336000Y-112416000D02*
X128181000Y-112416000D01*
X125819000Y-112416000D02*
X122664000Y-112416000D01*
X131312000Y-112456000D02*
X128181000Y-112456000D01*
X125819000Y-112456000D02*
X122688000Y-112456000D01*
X131288000Y-112496000D02*
X128181000Y-112496000D01*
X125819000Y-112496000D02*
X122712000Y-112496000D01*
X131263000Y-112536000D02*
X128181000Y-112536000D01*
X125819000Y-112536000D02*
X122737000Y-112536000D01*
X131237000Y-112576000D02*
X128181000Y-112576000D01*
X125819000Y-112576000D02*
X122763000Y-112576000D01*
X131211000Y-112616000D02*
X128181000Y-112616000D01*
X125819000Y-112616000D02*
X122789000Y-112616000D01*
X131185000Y-112656000D02*
X128181000Y-112656000D01*
X125819000Y-112656000D02*
X122815000Y-112656000D01*
X131157000Y-112696000D02*
X128181000Y-112696000D01*
X125819000Y-112696000D02*
X122843000Y-112696000D01*
X131130000Y-112736000D02*
X128181000Y-112736000D01*
X125819000Y-112736000D02*
X122870000Y-112736000D01*
X131101000Y-112776000D02*
X128181000Y-112776000D01*
X125819000Y-112776000D02*
X122899000Y-112776000D01*
X131072000Y-112816000D02*
X128181000Y-112816000D01*
X125819000Y-112816000D02*
X122928000Y-112816000D01*
X131043000Y-112856000D02*
X128181000Y-112856000D01*
X125819000Y-112856000D02*
X122957000Y-112856000D01*
X131013000Y-112896000D02*
X128181000Y-112896000D01*
X125819000Y-112896000D02*
X122987000Y-112896000D01*
X130982000Y-112936000D02*
X128181000Y-112936000D01*
X125819000Y-112936000D02*
X123018000Y-112936000D01*
X130951000Y-112976000D02*
X128181000Y-112976000D01*
X125819000Y-112976000D02*
X123049000Y-112976000D01*
X130919000Y-113016000D02*
X128181000Y-113016000D01*
X125819000Y-113016000D02*
X123081000Y-113016000D01*
X130886000Y-113056000D02*
X128181000Y-113056000D01*
X125819000Y-113056000D02*
X123114000Y-113056000D01*
X130853000Y-113096000D02*
X128181000Y-113096000D01*
X125819000Y-113096000D02*
X123147000Y-113096000D01*
X130819000Y-113136000D02*
X128181000Y-113136000D01*
X125819000Y-113136000D02*
X123181000Y-113136000D01*
X130784000Y-113176000D02*
X128181000Y-113176000D01*
X125819000Y-113176000D02*
X123216000Y-113176000D01*
X130748000Y-113216000D02*
X128181000Y-113216000D01*
X125819000Y-113216000D02*
X123252000Y-113216000D01*
X130712000Y-113256000D02*
X128181000Y-113256000D01*
X125819000Y-113256000D02*
X123288000Y-113256000D01*
X130675000Y-113296000D02*
X128181000Y-113296000D01*
X125819000Y-113296000D02*
X123325000Y-113296000D01*
X130637000Y-113336000D02*
X128181000Y-113336000D01*
X125819000Y-113336000D02*
X123363000Y-113336000D01*
X130598000Y-113376000D02*
X128181000Y-113376000D01*
X125819000Y-113376000D02*
X123402000Y-113376000D01*
X130559000Y-113416000D02*
X128181000Y-113416000D01*
X125819000Y-113416000D02*
X123441000Y-113416000D01*
X130518000Y-113456000D02*
X128181000Y-113456000D01*
X125819000Y-113456000D02*
X123482000Y-113456000D01*
X130477000Y-113496000D02*
X123523000Y-113496000D01*
X130435000Y-113536000D02*
X123565000Y-113536000D01*
X130391000Y-113576000D02*
X123609000Y-113576000D01*
X130347000Y-113616000D02*
X123653000Y-113616000D01*
X130302000Y-113656000D02*
X123698000Y-113656000D01*
X130255000Y-113696000D02*
X123745000Y-113696000D01*
X130207000Y-113736000D02*
X123793000Y-113736000D01*
X130158000Y-113776000D02*
X123842000Y-113776000D01*
X130108000Y-113816000D02*
X123892000Y-113816000D01*
X130057000Y-113856000D02*
X123943000Y-113856000D01*
X130004000Y-113896000D02*
X123996000Y-113896000D01*
X129949000Y-113936000D02*
X124051000Y-113936000D01*
X129894000Y-113976000D02*
X124106000Y-113976000D01*
X129836000Y-114016000D02*
X124164000Y-114016000D01*
X129777000Y-114056000D02*
X124223000Y-114056000D01*
X129715000Y-114096000D02*
X124285000Y-114096000D01*
X129652000Y-114136000D02*
X124348000Y-114136000D01*
X129587000Y-114176000D02*
X124413000Y-114176000D01*
X129519000Y-114216000D02*
X124481000Y-114216000D01*
X129449000Y-114256000D02*
X124551000Y-114256000D01*
X129377000Y-114296000D02*
X124623000Y-114296000D01*
X129301000Y-114336000D02*
X124699000Y-114336000D01*
X129222000Y-114376000D02*
X124778000Y-114376000D01*
X129140000Y-114416000D02*
X124860000Y-114416000D01*
X129053000Y-114456000D02*
X124947000Y-114456000D01*
X128962000Y-114496000D02*
X125038000Y-114496000D01*
X128866000Y-114536000D02*
X125134000Y-114536000D01*
X128763000Y-114576000D02*
X125237000Y-114576000D01*
X128654000Y-114616000D02*
X125346000Y-114616000D01*
X128536000Y-114656000D02*
X125464000Y-114656000D01*
X128407000Y-114696000D02*
X125593000Y-114696000D01*
X128265000Y-114736000D02*
X125735000Y-114736000D01*
X128104000Y-114776000D02*
X125896000Y-114776000D01*
X127913000Y-114816000D02*
X126087000Y-114816000D01*
X127672000Y-114856000D02*
X126328000Y-114856000D01*
X127279000Y-114896000D02*
X126721000Y-114896000D01*
X127000000Y-104615000D02*
X127000000Y-106115000D01*
X127750000Y-105365000D02*
X126250000Y-105365000D01*
G04 #@! TO.C,R7*
X132370000Y-90805000D02*
X131480000Y-90805000D01*
X124170000Y-90805000D02*
X125060000Y-90805000D01*
X131480000Y-89495000D02*
X125060000Y-89495000D01*
X131480000Y-92115000D02*
X131480000Y-89495000D01*
X125060000Y-92115000D02*
X131480000Y-92115000D01*
X125060000Y-89495000D02*
X125060000Y-92115000D01*
G04 #@! TO.C,R8*
X122520000Y-92670000D02*
X122520000Y-95290000D01*
X122520000Y-95290000D02*
X128940000Y-95290000D01*
X128940000Y-95290000D02*
X128940000Y-92670000D01*
X128940000Y-92670000D02*
X122520000Y-92670000D01*
X121630000Y-93980000D02*
X122520000Y-93980000D01*
X129830000Y-93980000D02*
X128940000Y-93980000D01*
G04 #@! TO.C,R9*
X127290000Y-97155000D02*
X126400000Y-97155000D01*
X119090000Y-97155000D02*
X119980000Y-97155000D01*
X126400000Y-95845000D02*
X119980000Y-95845000D01*
X126400000Y-98465000D02*
X126400000Y-95845000D01*
X119980000Y-98465000D02*
X126400000Y-98465000D01*
X119980000Y-95845000D02*
X119980000Y-98465000D01*
G04 #@! TO.C,R10*
X106390000Y-90805000D02*
X107280000Y-90805000D01*
X114590000Y-90805000D02*
X113700000Y-90805000D01*
X107280000Y-92115000D02*
X113700000Y-92115000D01*
X107280000Y-89495000D02*
X107280000Y-92115000D01*
X113700000Y-89495000D02*
X107280000Y-89495000D01*
X113700000Y-92115000D02*
X113700000Y-89495000D01*
D10*
G04 #@! TO.C,U11*
X116840000Y-78740000D02*
X116840000Y-81280000D01*
X116840000Y-81280000D02*
X124460000Y-81280000D01*
X124460000Y-81280000D02*
X124460000Y-78740000D01*
X124460000Y-78740000D02*
X116840000Y-78740000D01*
G04 #@! TO.C,U6*
X175768095Y-115022380D02*
X175768095Y-115831904D01*
X175815714Y-115927142D01*
X175863333Y-115974761D01*
X175958571Y-116022380D01*
X176149047Y-116022380D01*
X176244285Y-115974761D01*
X176291904Y-115927142D01*
X176339523Y-115831904D01*
X176339523Y-115022380D01*
X177244285Y-115022380D02*
X177053809Y-115022380D01*
X176958571Y-115070000D01*
X176910952Y-115117619D01*
X176815714Y-115260476D01*
X176768095Y-115450952D01*
X176768095Y-115831904D01*
X176815714Y-115927142D01*
X176863333Y-115974761D01*
X176958571Y-116022380D01*
X177149047Y-116022380D01*
X177244285Y-115974761D01*
X177291904Y-115927142D01*
X177339523Y-115831904D01*
X177339523Y-115593809D01*
X177291904Y-115498571D01*
X177244285Y-115450952D01*
X177149047Y-115403333D01*
X176958571Y-115403333D01*
X176863333Y-115450952D01*
X176815714Y-115498571D01*
X176768095Y-115593809D01*
X188150714Y-111212380D02*
X188484047Y-112212380D01*
X188817380Y-111212380D01*
X189150714Y-112212380D02*
X189150714Y-111212380D01*
X189626904Y-112212380D02*
X189626904Y-111212380D01*
X190198333Y-112212380D01*
X190198333Y-111212380D01*
X190674523Y-111831428D02*
X191436428Y-111831428D01*
X191055476Y-112212380D02*
X191055476Y-111450476D01*
X188150714Y-118832380D02*
X188484047Y-119832380D01*
X188817380Y-118832380D01*
X189150714Y-119832380D02*
X189150714Y-118832380D01*
X189626904Y-119832380D02*
X189626904Y-118832380D01*
X190198333Y-119832380D01*
X190198333Y-118832380D01*
X190674523Y-119451428D02*
X191436428Y-119451428D01*
X163989047Y-111212380D02*
X164322380Y-112212380D01*
X164655714Y-111212380D01*
X165179523Y-111212380D02*
X165370000Y-111212380D01*
X165465238Y-111260000D01*
X165560476Y-111355238D01*
X165608095Y-111545714D01*
X165608095Y-111879047D01*
X165560476Y-112069523D01*
X165465238Y-112164761D01*
X165370000Y-112212380D01*
X165179523Y-112212380D01*
X165084285Y-112164761D01*
X164989047Y-112069523D01*
X164941428Y-111879047D01*
X164941428Y-111545714D01*
X164989047Y-111355238D01*
X165084285Y-111260000D01*
X165179523Y-111212380D01*
X166036666Y-111212380D02*
X166036666Y-112021904D01*
X166084285Y-112117142D01*
X166131904Y-112164761D01*
X166227142Y-112212380D01*
X166417619Y-112212380D01*
X166512857Y-112164761D01*
X166560476Y-112117142D01*
X166608095Y-112021904D01*
X166608095Y-111212380D01*
X166941428Y-111212380D02*
X167512857Y-111212380D01*
X167227142Y-112212380D02*
X167227142Y-111212380D01*
X167846190Y-111831428D02*
X168608095Y-111831428D01*
X168227142Y-112212380D02*
X168227142Y-111450476D01*
X163989047Y-118832380D02*
X164322380Y-119832380D01*
X164655714Y-118832380D01*
X165179523Y-118832380D02*
X165370000Y-118832380D01*
X165465238Y-118880000D01*
X165560476Y-118975238D01*
X165608095Y-119165714D01*
X165608095Y-119499047D01*
X165560476Y-119689523D01*
X165465238Y-119784761D01*
X165370000Y-119832380D01*
X165179523Y-119832380D01*
X165084285Y-119784761D01*
X164989047Y-119689523D01*
X164941428Y-119499047D01*
X164941428Y-119165714D01*
X164989047Y-118975238D01*
X165084285Y-118880000D01*
X165179523Y-118832380D01*
X166036666Y-118832380D02*
X166036666Y-119641904D01*
X166084285Y-119737142D01*
X166131904Y-119784761D01*
X166227142Y-119832380D01*
X166417619Y-119832380D01*
X166512857Y-119784761D01*
X166560476Y-119737142D01*
X166608095Y-119641904D01*
X166608095Y-118832380D01*
X166941428Y-118832380D02*
X167512857Y-118832380D01*
X167227142Y-119832380D02*
X167227142Y-118832380D01*
X167846190Y-119451428D02*
X168608095Y-119451428D01*
G04 #@! TO.C,U10*
X181006904Y-80732380D02*
X181006904Y-81541904D01*
X181054523Y-81637142D01*
X181102142Y-81684761D01*
X181197380Y-81732380D01*
X181387857Y-81732380D01*
X181483095Y-81684761D01*
X181530714Y-81637142D01*
X181578333Y-81541904D01*
X181578333Y-80732380D01*
X182578333Y-81732380D02*
X182006904Y-81732380D01*
X182292619Y-81732380D02*
X182292619Y-80732380D01*
X182197380Y-80875238D01*
X182102142Y-80970476D01*
X182006904Y-81018095D01*
X183197380Y-80732380D02*
X183292619Y-80732380D01*
X183387857Y-80780000D01*
X183435476Y-80827619D01*
X183483095Y-80922857D01*
X183530714Y-81113333D01*
X183530714Y-81351428D01*
X183483095Y-81541904D01*
X183435476Y-81637142D01*
X183387857Y-81684761D01*
X183292619Y-81732380D01*
X183197380Y-81732380D01*
X183102142Y-81684761D01*
X183054523Y-81637142D01*
X183006904Y-81541904D01*
X182959285Y-81351428D01*
X182959285Y-81113333D01*
X183006904Y-80922857D01*
X183054523Y-80827619D01*
X183102142Y-80780000D01*
X183197380Y-80732380D01*
G04 #@! TO.C,U9*
X145288095Y-120102380D02*
X145288095Y-120911904D01*
X145335714Y-121007142D01*
X145383333Y-121054761D01*
X145478571Y-121102380D01*
X145669047Y-121102380D01*
X145764285Y-121054761D01*
X145811904Y-121007142D01*
X145859523Y-120911904D01*
X145859523Y-120102380D01*
X146383333Y-121102380D02*
X146573809Y-121102380D01*
X146669047Y-121054761D01*
X146716666Y-121007142D01*
X146811904Y-120864285D01*
X146859523Y-120673809D01*
X146859523Y-120292857D01*
X146811904Y-120197619D01*
X146764285Y-120150000D01*
X146669047Y-120102380D01*
X146478571Y-120102380D01*
X146383333Y-120150000D01*
X146335714Y-120197619D01*
X146288095Y-120292857D01*
X146288095Y-120530952D01*
X146335714Y-120626190D01*
X146383333Y-120673809D01*
X146478571Y-120721428D01*
X146669047Y-120721428D01*
X146764285Y-120673809D01*
X146811904Y-120626190D01*
X146859523Y-120530952D01*
X156027380Y-127856904D02*
X155027380Y-127856904D01*
X155741666Y-127523571D01*
X155027380Y-127190238D01*
X156027380Y-127190238D01*
X155027380Y-126523571D02*
X155027380Y-126333095D01*
X155075000Y-126237857D01*
X155170238Y-126142619D01*
X155360714Y-126095000D01*
X155694047Y-126095000D01*
X155884523Y-126142619D01*
X155979761Y-126237857D01*
X156027380Y-126333095D01*
X156027380Y-126523571D01*
X155979761Y-126618809D01*
X155884523Y-126714047D01*
X155694047Y-126761666D01*
X155360714Y-126761666D01*
X155170238Y-126714047D01*
X155075000Y-126618809D01*
X155027380Y-126523571D01*
X155027380Y-125809285D02*
X155027380Y-125237857D01*
X156027380Y-125523571D02*
X155027380Y-125523571D01*
X155027380Y-124714047D02*
X155027380Y-124523571D01*
X155075000Y-124428333D01*
X155170238Y-124333095D01*
X155360714Y-124285476D01*
X155694047Y-124285476D01*
X155884523Y-124333095D01*
X155979761Y-124428333D01*
X156027380Y-124523571D01*
X156027380Y-124714047D01*
X155979761Y-124809285D01*
X155884523Y-124904523D01*
X155694047Y-124952142D01*
X155360714Y-124952142D01*
X155170238Y-124904523D01*
X155075000Y-124809285D01*
X155027380Y-124714047D01*
X156027380Y-123285476D02*
X155551190Y-123618809D01*
X156027380Y-123856904D02*
X155027380Y-123856904D01*
X155027380Y-123475952D01*
X155075000Y-123380714D01*
X155122619Y-123333095D01*
X155217857Y-123285476D01*
X155360714Y-123285476D01*
X155455952Y-123333095D01*
X155503571Y-123380714D01*
X155551190Y-123475952D01*
X155551190Y-123856904D01*
X155503571Y-122523571D02*
X155551190Y-122380714D01*
X155598809Y-122333095D01*
X155694047Y-122285476D01*
X155836904Y-122285476D01*
X155932142Y-122333095D01*
X155979761Y-122380714D01*
X156027380Y-122475952D01*
X156027380Y-122856904D01*
X155027380Y-122856904D01*
X155027380Y-122523571D01*
X155075000Y-122428333D01*
X155122619Y-122380714D01*
X155217857Y-122333095D01*
X155313095Y-122333095D01*
X155408333Y-122380714D01*
X155455952Y-122428333D01*
X155503571Y-122523571D01*
X155503571Y-122856904D01*
X156027380Y-121435476D02*
X155027380Y-121435476D01*
X155741666Y-121102142D01*
X155027380Y-120768809D01*
X156027380Y-120768809D01*
X155027380Y-120102142D02*
X155027380Y-119911666D01*
X155075000Y-119816428D01*
X155170238Y-119721190D01*
X155360714Y-119673571D01*
X155694047Y-119673571D01*
X155884523Y-119721190D01*
X155979761Y-119816428D01*
X156027380Y-119911666D01*
X156027380Y-120102142D01*
X155979761Y-120197380D01*
X155884523Y-120292619D01*
X155694047Y-120340238D01*
X155360714Y-120340238D01*
X155170238Y-120292619D01*
X155075000Y-120197380D01*
X155027380Y-120102142D01*
X155027380Y-119387857D02*
X155027380Y-118816428D01*
X156027380Y-119102142D02*
X155027380Y-119102142D01*
X155027380Y-118292619D02*
X155027380Y-118102142D01*
X155075000Y-118006904D01*
X155170238Y-117911666D01*
X155360714Y-117864047D01*
X155694047Y-117864047D01*
X155884523Y-117911666D01*
X155979761Y-118006904D01*
X156027380Y-118102142D01*
X156027380Y-118292619D01*
X155979761Y-118387857D01*
X155884523Y-118483095D01*
X155694047Y-118530714D01*
X155360714Y-118530714D01*
X155170238Y-118483095D01*
X155075000Y-118387857D01*
X155027380Y-118292619D01*
X156027380Y-116864047D02*
X155551190Y-117197380D01*
X156027380Y-117435476D02*
X155027380Y-117435476D01*
X155027380Y-117054523D01*
X155075000Y-116959285D01*
X155122619Y-116911666D01*
X155217857Y-116864047D01*
X155360714Y-116864047D01*
X155455952Y-116911666D01*
X155503571Y-116959285D01*
X155551190Y-117054523D01*
X155551190Y-117435476D01*
X155741666Y-116483095D02*
X155741666Y-116006904D01*
X156027380Y-116578333D02*
X155027380Y-116245000D01*
X156027380Y-115911666D01*
X135144047Y-117927380D02*
X135144047Y-116927380D01*
X135620238Y-117927380D02*
X135620238Y-116927380D01*
X136191666Y-117927380D01*
X136191666Y-116927380D01*
X136525000Y-116927380D02*
X137096428Y-116927380D01*
X136810714Y-117927380D02*
X136810714Y-116927380D01*
X137953571Y-117927380D02*
X137382142Y-117927380D01*
X137667857Y-117927380D02*
X137667857Y-116927380D01*
X137572619Y-117070238D01*
X137477380Y-117165476D01*
X137382142Y-117213095D01*
X135144047Y-120467380D02*
X135144047Y-119467380D01*
X135620238Y-120467380D02*
X135620238Y-119467380D01*
X136191666Y-120467380D01*
X136191666Y-119467380D01*
X136525000Y-119467380D02*
X137096428Y-119467380D01*
X136810714Y-120467380D02*
X136810714Y-119467380D01*
X137382142Y-119562619D02*
X137429761Y-119515000D01*
X137525000Y-119467380D01*
X137763095Y-119467380D01*
X137858333Y-119515000D01*
X137905952Y-119562619D01*
X137953571Y-119657857D01*
X137953571Y-119753095D01*
X137905952Y-119895952D01*
X137334523Y-120467380D01*
X137953571Y-120467380D01*
X135144047Y-124277380D02*
X135144047Y-123277380D01*
X135620238Y-124277380D02*
X135620238Y-123277380D01*
X136191666Y-124277380D01*
X136191666Y-123277380D01*
X136525000Y-123277380D02*
X137096428Y-123277380D01*
X136810714Y-124277380D02*
X136810714Y-123277380D01*
X137334523Y-123277380D02*
X137953571Y-123277380D01*
X137620238Y-123658333D01*
X137763095Y-123658333D01*
X137858333Y-123705952D01*
X137905952Y-123753571D01*
X137953571Y-123848809D01*
X137953571Y-124086904D01*
X137905952Y-124182142D01*
X137858333Y-124229761D01*
X137763095Y-124277380D01*
X137477380Y-124277380D01*
X137382142Y-124229761D01*
X137334523Y-124182142D01*
X135144047Y-126817380D02*
X135144047Y-125817380D01*
X135620238Y-126817380D02*
X135620238Y-125817380D01*
X136191666Y-126817380D01*
X136191666Y-125817380D01*
X136525000Y-125817380D02*
X137096428Y-125817380D01*
X136810714Y-126817380D02*
X136810714Y-125817380D01*
X137858333Y-126150714D02*
X137858333Y-126817380D01*
X137620238Y-125769761D02*
X137382142Y-126484047D01*
X138001190Y-126484047D01*
X137414047Y-109291428D02*
X138175952Y-109291428D01*
X137795000Y-109672380D02*
X137795000Y-108910476D01*
X137414047Y-112466428D02*
X138175952Y-112466428D01*
G04 #@! TO.C,U4*
X182118095Y-54062380D02*
X182118095Y-54871904D01*
X182165714Y-54967142D01*
X182213333Y-55014761D01*
X182308571Y-55062380D01*
X182499047Y-55062380D01*
X182594285Y-55014761D01*
X182641904Y-54967142D01*
X182689523Y-54871904D01*
X182689523Y-54062380D01*
X183594285Y-54395714D02*
X183594285Y-55062380D01*
X183356190Y-54014761D02*
X183118095Y-54729047D01*
X183737142Y-54729047D01*
G04 #@! TO.C,U8*
X149098095Y-57872380D02*
X149098095Y-58681904D01*
X149145714Y-58777142D01*
X149193333Y-58824761D01*
X149288571Y-58872380D01*
X149479047Y-58872380D01*
X149574285Y-58824761D01*
X149621904Y-58777142D01*
X149669523Y-58681904D01*
X149669523Y-57872380D01*
X150288571Y-58300952D02*
X150193333Y-58253333D01*
X150145714Y-58205714D01*
X150098095Y-58110476D01*
X150098095Y-58062857D01*
X150145714Y-57967619D01*
X150193333Y-57920000D01*
X150288571Y-57872380D01*
X150479047Y-57872380D01*
X150574285Y-57920000D01*
X150621904Y-57967619D01*
X150669523Y-58062857D01*
X150669523Y-58110476D01*
X150621904Y-58205714D01*
X150574285Y-58253333D01*
X150479047Y-58300952D01*
X150288571Y-58300952D01*
X150193333Y-58348571D01*
X150145714Y-58396190D01*
X150098095Y-58491428D01*
X150098095Y-58681904D01*
X150145714Y-58777142D01*
X150193333Y-58824761D01*
X150288571Y-58872380D01*
X150479047Y-58872380D01*
X150574285Y-58824761D01*
X150621904Y-58777142D01*
X150669523Y-58681904D01*
X150669523Y-58491428D01*
X150621904Y-58396190D01*
X150574285Y-58348571D01*
X150479047Y-58300952D01*
X142962380Y-67008095D02*
X143962380Y-66341428D01*
X142962380Y-66341428D02*
X143962380Y-67008095D01*
X143914761Y-66008095D02*
X143962380Y-65865238D01*
X143962380Y-65627142D01*
X143914761Y-65531904D01*
X143867142Y-65484285D01*
X143771904Y-65436666D01*
X143676666Y-65436666D01*
X143581428Y-65484285D01*
X143533809Y-65531904D01*
X143486190Y-65627142D01*
X143438571Y-65817619D01*
X143390952Y-65912857D01*
X143343333Y-65960476D01*
X143248095Y-66008095D01*
X143152857Y-66008095D01*
X143057619Y-65960476D01*
X143010000Y-65912857D01*
X142962380Y-65817619D01*
X142962380Y-65579523D01*
X143010000Y-65436666D01*
X143962380Y-65008095D02*
X142962380Y-65008095D01*
X143438571Y-65008095D02*
X143438571Y-64436666D01*
X143962380Y-64436666D02*
X142962380Y-64436666D01*
X142962380Y-63960476D02*
X143771904Y-63960476D01*
X143867142Y-63912857D01*
X143914761Y-63865238D01*
X143962380Y-63770000D01*
X143962380Y-63579523D01*
X143914761Y-63484285D01*
X143867142Y-63436666D01*
X143771904Y-63389047D01*
X142962380Y-63389047D01*
X142962380Y-63055714D02*
X142962380Y-62484285D01*
X143962380Y-62770000D02*
X142962380Y-62770000D01*
X145550000Y-66246190D02*
X145502380Y-66341428D01*
X145502380Y-66484285D01*
X145550000Y-66627142D01*
X145645238Y-66722380D01*
X145740476Y-66770000D01*
X145930952Y-66817619D01*
X146073809Y-66817619D01*
X146264285Y-66770000D01*
X146359523Y-66722380D01*
X146454761Y-66627142D01*
X146502380Y-66484285D01*
X146502380Y-66389047D01*
X146454761Y-66246190D01*
X146407142Y-66198571D01*
X146073809Y-66198571D01*
X146073809Y-66389047D01*
X146502380Y-65770000D02*
X145502380Y-65770000D01*
X145502380Y-65389047D01*
X145550000Y-65293809D01*
X145597619Y-65246190D01*
X145692857Y-65198571D01*
X145835714Y-65198571D01*
X145930952Y-65246190D01*
X145978571Y-65293809D01*
X146026190Y-65389047D01*
X146026190Y-65770000D01*
X146502380Y-64770000D02*
X145502380Y-64770000D01*
X145502380Y-64103333D02*
X145502380Y-63912857D01*
X145550000Y-63817619D01*
X145645238Y-63722380D01*
X145835714Y-63674761D01*
X146169047Y-63674761D01*
X146359523Y-63722380D01*
X146454761Y-63817619D01*
X146502380Y-63912857D01*
X146502380Y-64103333D01*
X146454761Y-64198571D01*
X146359523Y-64293809D01*
X146169047Y-64341428D01*
X145835714Y-64341428D01*
X145645238Y-64293809D01*
X145550000Y-64198571D01*
X145502380Y-64103333D01*
X146502380Y-62722380D02*
X146502380Y-63293809D01*
X146502380Y-63008095D02*
X145502380Y-63008095D01*
X145645238Y-63103333D01*
X145740476Y-63198571D01*
X145788095Y-63293809D01*
X148994761Y-65984285D02*
X149042380Y-65841428D01*
X149042380Y-65603333D01*
X148994761Y-65508095D01*
X148947142Y-65460476D01*
X148851904Y-65412857D01*
X148756666Y-65412857D01*
X148661428Y-65460476D01*
X148613809Y-65508095D01*
X148566190Y-65603333D01*
X148518571Y-65793809D01*
X148470952Y-65889047D01*
X148423333Y-65936666D01*
X148328095Y-65984285D01*
X148232857Y-65984285D01*
X148137619Y-65936666D01*
X148090000Y-65889047D01*
X148042380Y-65793809D01*
X148042380Y-65555714D01*
X148090000Y-65412857D01*
X149042380Y-64984285D02*
X148042380Y-64984285D01*
X148042380Y-64746190D01*
X148090000Y-64603333D01*
X148185238Y-64508095D01*
X148280476Y-64460476D01*
X148470952Y-64412857D01*
X148613809Y-64412857D01*
X148804285Y-64460476D01*
X148899523Y-64508095D01*
X148994761Y-64603333D01*
X149042380Y-64746190D01*
X149042380Y-64984285D01*
X148756666Y-64031904D02*
X148756666Y-63555714D01*
X149042380Y-64127142D02*
X148042380Y-63793809D01*
X149042380Y-63460476D01*
X151534761Y-65960476D02*
X151582380Y-65817619D01*
X151582380Y-65579523D01*
X151534761Y-65484285D01*
X151487142Y-65436666D01*
X151391904Y-65389047D01*
X151296666Y-65389047D01*
X151201428Y-65436666D01*
X151153809Y-65484285D01*
X151106190Y-65579523D01*
X151058571Y-65770000D01*
X151010952Y-65865238D01*
X150963333Y-65912857D01*
X150868095Y-65960476D01*
X150772857Y-65960476D01*
X150677619Y-65912857D01*
X150630000Y-65865238D01*
X150582380Y-65770000D01*
X150582380Y-65531904D01*
X150630000Y-65389047D01*
X151487142Y-64389047D02*
X151534761Y-64436666D01*
X151582380Y-64579523D01*
X151582380Y-64674761D01*
X151534761Y-64817619D01*
X151439523Y-64912857D01*
X151344285Y-64960476D01*
X151153809Y-65008095D01*
X151010952Y-65008095D01*
X150820476Y-64960476D01*
X150725238Y-64912857D01*
X150630000Y-64817619D01*
X150582380Y-64674761D01*
X150582380Y-64579523D01*
X150630000Y-64436666D01*
X150677619Y-64389047D01*
X151582380Y-63484285D02*
X151582380Y-63960476D01*
X150582380Y-63960476D01*
X153170000Y-65531904D02*
X153122380Y-65627142D01*
X153122380Y-65770000D01*
X153170000Y-65912857D01*
X153265238Y-66008095D01*
X153360476Y-66055714D01*
X153550952Y-66103333D01*
X153693809Y-66103333D01*
X153884285Y-66055714D01*
X153979523Y-66008095D01*
X154074761Y-65912857D01*
X154122380Y-65770000D01*
X154122380Y-65674761D01*
X154074761Y-65531904D01*
X154027142Y-65484285D01*
X153693809Y-65484285D01*
X153693809Y-65674761D01*
X154122380Y-65055714D02*
X153122380Y-65055714D01*
X154122380Y-64484285D01*
X153122380Y-64484285D01*
X154122380Y-64008095D02*
X153122380Y-64008095D01*
X153122380Y-63770000D01*
X153170000Y-63627142D01*
X153265238Y-63531904D01*
X153360476Y-63484285D01*
X153550952Y-63436666D01*
X153693809Y-63436666D01*
X153884285Y-63484285D01*
X153979523Y-63531904D01*
X154074761Y-63627142D01*
X154122380Y-63770000D01*
X154122380Y-64008095D01*
X155662380Y-65865238D02*
X156662380Y-65531904D01*
X155662380Y-65198571D01*
X156662380Y-64865238D02*
X155662380Y-64865238D01*
X156662380Y-64389047D02*
X155662380Y-64389047D01*
X156662380Y-63817619D01*
X155662380Y-63817619D01*
G04 #@! TO.C,D1*
X122372380Y-134088095D02*
X121372380Y-134088095D01*
X121372380Y-133850000D01*
X121420000Y-133707142D01*
X121515238Y-133611904D01*
X121610476Y-133564285D01*
X121800952Y-133516666D01*
X121943809Y-133516666D01*
X122134285Y-133564285D01*
X122229523Y-133611904D01*
X122324761Y-133707142D01*
X122372380Y-133850000D01*
X122372380Y-134088095D01*
X122372380Y-132564285D02*
X122372380Y-133135714D01*
X122372380Y-132850000D02*
X121372380Y-132850000D01*
X121515238Y-132945238D01*
X121610476Y-133040476D01*
X121658095Y-133135714D01*
G04 #@! TO.C,R1*
X130643333Y-122372380D02*
X130310000Y-121896190D01*
X130071904Y-122372380D02*
X130071904Y-121372380D01*
X130452857Y-121372380D01*
X130548095Y-121420000D01*
X130595714Y-121467619D01*
X130643333Y-121562857D01*
X130643333Y-121705714D01*
X130595714Y-121800952D01*
X130548095Y-121848571D01*
X130452857Y-121896190D01*
X130071904Y-121896190D01*
X131595714Y-122372380D02*
X131024285Y-122372380D01*
X131310000Y-122372380D02*
X131310000Y-121372380D01*
X131214761Y-121515238D01*
X131119523Y-121610476D01*
X131024285Y-121658095D01*
G04 #@! TO.C,R2*
X125563333Y-122372380D02*
X125230000Y-121896190D01*
X124991904Y-122372380D02*
X124991904Y-121372380D01*
X125372857Y-121372380D01*
X125468095Y-121420000D01*
X125515714Y-121467619D01*
X125563333Y-121562857D01*
X125563333Y-121705714D01*
X125515714Y-121800952D01*
X125468095Y-121848571D01*
X125372857Y-121896190D01*
X124991904Y-121896190D01*
X125944285Y-121467619D02*
X125991904Y-121420000D01*
X126087142Y-121372380D01*
X126325238Y-121372380D01*
X126420476Y-121420000D01*
X126468095Y-121467619D01*
X126515714Y-121562857D01*
X126515714Y-121658095D01*
X126468095Y-121800952D01*
X125896666Y-122372380D01*
X126515714Y-122372380D01*
G04 #@! TO.C,R3*
X106513333Y-112212380D02*
X106180000Y-111736190D01*
X105941904Y-112212380D02*
X105941904Y-111212380D01*
X106322857Y-111212380D01*
X106418095Y-111260000D01*
X106465714Y-111307619D01*
X106513333Y-111402857D01*
X106513333Y-111545714D01*
X106465714Y-111640952D01*
X106418095Y-111688571D01*
X106322857Y-111736190D01*
X105941904Y-111736190D01*
X106846666Y-111212380D02*
X107465714Y-111212380D01*
X107132380Y-111593333D01*
X107275238Y-111593333D01*
X107370476Y-111640952D01*
X107418095Y-111688571D01*
X107465714Y-111783809D01*
X107465714Y-112021904D01*
X107418095Y-112117142D01*
X107370476Y-112164761D01*
X107275238Y-112212380D01*
X106989523Y-112212380D01*
X106894285Y-112164761D01*
X106846666Y-112117142D01*
G04 #@! TO.C,R4*
X120483333Y-122372380D02*
X120150000Y-121896190D01*
X119911904Y-122372380D02*
X119911904Y-121372380D01*
X120292857Y-121372380D01*
X120388095Y-121420000D01*
X120435714Y-121467619D01*
X120483333Y-121562857D01*
X120483333Y-121705714D01*
X120435714Y-121800952D01*
X120388095Y-121848571D01*
X120292857Y-121896190D01*
X119911904Y-121896190D01*
X121340476Y-121705714D02*
X121340476Y-122372380D01*
X121102380Y-121324761D02*
X120864285Y-122039047D01*
X121483333Y-122039047D01*
G04 #@! TO.C,SW1*
X111696666Y-112799761D02*
X111839523Y-112847380D01*
X112077619Y-112847380D01*
X112172857Y-112799761D01*
X112220476Y-112752142D01*
X112268095Y-112656904D01*
X112268095Y-112561666D01*
X112220476Y-112466428D01*
X112172857Y-112418809D01*
X112077619Y-112371190D01*
X111887142Y-112323571D01*
X111791904Y-112275952D01*
X111744285Y-112228333D01*
X111696666Y-112133095D01*
X111696666Y-112037857D01*
X111744285Y-111942619D01*
X111791904Y-111895000D01*
X111887142Y-111847380D01*
X112125238Y-111847380D01*
X112268095Y-111895000D01*
X112601428Y-111847380D02*
X112839523Y-112847380D01*
X113030000Y-112133095D01*
X113220476Y-112847380D01*
X113458571Y-111847380D01*
X114363333Y-112847380D02*
X113791904Y-112847380D01*
X114077619Y-112847380D02*
X114077619Y-111847380D01*
X113982380Y-111990238D01*
X113887142Y-112085476D01*
X113791904Y-112133095D01*
G04 #@! TO.C,U1*
X110998095Y-135342380D02*
X110998095Y-136151904D01*
X111045714Y-136247142D01*
X111093333Y-136294761D01*
X111188571Y-136342380D01*
X111379047Y-136342380D01*
X111474285Y-136294761D01*
X111521904Y-136247142D01*
X111569523Y-136151904D01*
X111569523Y-135342380D01*
X112569523Y-136342380D02*
X111998095Y-136342380D01*
X112283809Y-136342380D02*
X112283809Y-135342380D01*
X112188571Y-135485238D01*
X112093333Y-135580476D01*
X111998095Y-135628095D01*
X113800000Y-130301904D02*
X113752380Y-130397142D01*
X113752380Y-130540000D01*
X113800000Y-130682857D01*
X113895238Y-130778095D01*
X113990476Y-130825714D01*
X114180952Y-130873333D01*
X114323809Y-130873333D01*
X114514285Y-130825714D01*
X114609523Y-130778095D01*
X114704761Y-130682857D01*
X114752380Y-130540000D01*
X114752380Y-130444761D01*
X114704761Y-130301904D01*
X114657142Y-130254285D01*
X114323809Y-130254285D01*
X114323809Y-130444761D01*
X114752380Y-129825714D02*
X113752380Y-129825714D01*
X114752380Y-129254285D01*
X113752380Y-129254285D01*
X114752380Y-128778095D02*
X113752380Y-128778095D01*
X113752380Y-128540000D01*
X113800000Y-128397142D01*
X113895238Y-128301904D01*
X113990476Y-128254285D01*
X114180952Y-128206666D01*
X114323809Y-128206666D01*
X114514285Y-128254285D01*
X114609523Y-128301904D01*
X114704761Y-128397142D01*
X114752380Y-128540000D01*
X114752380Y-128778095D01*
X111212380Y-130635238D02*
X112212380Y-130301904D01*
X111212380Y-129968571D01*
X112212380Y-129635238D02*
X111212380Y-129635238D01*
X112212380Y-129159047D02*
X111212380Y-129159047D01*
X112212380Y-128587619D01*
X111212380Y-128587619D01*
X108672380Y-130540000D02*
X108672380Y-130349523D01*
X108720000Y-130254285D01*
X108815238Y-130159047D01*
X109005714Y-130111428D01*
X109339047Y-130111428D01*
X109529523Y-130159047D01*
X109624761Y-130254285D01*
X109672380Y-130349523D01*
X109672380Y-130540000D01*
X109624761Y-130635238D01*
X109529523Y-130730476D01*
X109339047Y-130778095D01*
X109005714Y-130778095D01*
X108815238Y-130730476D01*
X108720000Y-130635238D01*
X108672380Y-130540000D01*
X108672380Y-129682857D02*
X109481904Y-129682857D01*
X109577142Y-129635238D01*
X109624761Y-129587619D01*
X109672380Y-129492380D01*
X109672380Y-129301904D01*
X109624761Y-129206666D01*
X109577142Y-129159047D01*
X109481904Y-129111428D01*
X108672380Y-129111428D01*
X108672380Y-128778095D02*
X108672380Y-128206666D01*
X109672380Y-128492380D02*
X108672380Y-128492380D01*
G04 #@! TO.C,U2*
X187198095Y-135342380D02*
X187198095Y-136151904D01*
X187245714Y-136247142D01*
X187293333Y-136294761D01*
X187388571Y-136342380D01*
X187579047Y-136342380D01*
X187674285Y-136294761D01*
X187721904Y-136247142D01*
X187769523Y-136151904D01*
X187769523Y-135342380D01*
X188198095Y-135437619D02*
X188245714Y-135390000D01*
X188340952Y-135342380D01*
X188579047Y-135342380D01*
X188674285Y-135390000D01*
X188721904Y-135437619D01*
X188769523Y-135532857D01*
X188769523Y-135628095D01*
X188721904Y-135770952D01*
X188150476Y-136342380D01*
X188769523Y-136342380D01*
X184872380Y-130540000D02*
X184872380Y-130349523D01*
X184920000Y-130254285D01*
X185015238Y-130159047D01*
X185205714Y-130111428D01*
X185539047Y-130111428D01*
X185729523Y-130159047D01*
X185824761Y-130254285D01*
X185872380Y-130349523D01*
X185872380Y-130540000D01*
X185824761Y-130635238D01*
X185729523Y-130730476D01*
X185539047Y-130778095D01*
X185205714Y-130778095D01*
X185015238Y-130730476D01*
X184920000Y-130635238D01*
X184872380Y-130540000D01*
X184872380Y-129682857D02*
X185681904Y-129682857D01*
X185777142Y-129635238D01*
X185824761Y-129587619D01*
X185872380Y-129492380D01*
X185872380Y-129301904D01*
X185824761Y-129206666D01*
X185777142Y-129159047D01*
X185681904Y-129111428D01*
X184872380Y-129111428D01*
X184872380Y-128778095D02*
X184872380Y-128206666D01*
X185872380Y-128492380D02*
X184872380Y-128492380D01*
X187412380Y-130635238D02*
X188412380Y-130301904D01*
X187412380Y-129968571D01*
X188412380Y-129635238D02*
X187412380Y-129635238D01*
X188412380Y-129159047D02*
X187412380Y-129159047D01*
X188412380Y-128587619D01*
X187412380Y-128587619D01*
X190000000Y-130301904D02*
X189952380Y-130397142D01*
X189952380Y-130540000D01*
X190000000Y-130682857D01*
X190095238Y-130778095D01*
X190190476Y-130825714D01*
X190380952Y-130873333D01*
X190523809Y-130873333D01*
X190714285Y-130825714D01*
X190809523Y-130778095D01*
X190904761Y-130682857D01*
X190952380Y-130540000D01*
X190952380Y-130444761D01*
X190904761Y-130301904D01*
X190857142Y-130254285D01*
X190523809Y-130254285D01*
X190523809Y-130444761D01*
X190952380Y-129825714D02*
X189952380Y-129825714D01*
X190952380Y-129254285D01*
X189952380Y-129254285D01*
X190952380Y-128778095D02*
X189952380Y-128778095D01*
X189952380Y-128540000D01*
X190000000Y-128397142D01*
X190095238Y-128301904D01*
X190190476Y-128254285D01*
X190380952Y-128206666D01*
X190523809Y-128206666D01*
X190714285Y-128254285D01*
X190809523Y-128301904D01*
X190904761Y-128397142D01*
X190952380Y-128540000D01*
X190952380Y-128778095D01*
G04 #@! TO.C,U3*
X116078095Y-54062380D02*
X116078095Y-54871904D01*
X116125714Y-54967142D01*
X116173333Y-55014761D01*
X116268571Y-55062380D01*
X116459047Y-55062380D01*
X116554285Y-55014761D01*
X116601904Y-54967142D01*
X116649523Y-54871904D01*
X116649523Y-54062380D01*
X117030476Y-54062380D02*
X117649523Y-54062380D01*
X117316190Y-54443333D01*
X117459047Y-54443333D01*
X117554285Y-54490952D01*
X117601904Y-54538571D01*
X117649523Y-54633809D01*
X117649523Y-54871904D01*
X117601904Y-54967142D01*
X117554285Y-55014761D01*
X117459047Y-55062380D01*
X117173333Y-55062380D01*
X117078095Y-55014761D01*
X117030476Y-54967142D01*
G04 #@! TO.C,U5*
X170911615Y-96018100D02*
X170911615Y-96827624D01*
X170959234Y-96922862D01*
X171006853Y-96970481D01*
X171102091Y-97018100D01*
X171292567Y-97018100D01*
X171387805Y-96970481D01*
X171435424Y-96922862D01*
X171483043Y-96827624D01*
X171483043Y-96018100D01*
X172435424Y-96018100D02*
X171959234Y-96018100D01*
X171911615Y-96494291D01*
X171959234Y-96446672D01*
X172054472Y-96399053D01*
X172292567Y-96399053D01*
X172387805Y-96446672D01*
X172435424Y-96494291D01*
X172483043Y-96589529D01*
X172483043Y-96827624D01*
X172435424Y-96922862D01*
X172387805Y-96970481D01*
X172292567Y-97018100D01*
X172054472Y-97018100D01*
X171959234Y-96970481D01*
X171911615Y-96922862D01*
X163272220Y-90527664D02*
X164081744Y-90527664D01*
X164176982Y-90480045D01*
X164224601Y-90432426D01*
X164272220Y-90337188D01*
X164272220Y-90146712D01*
X164224601Y-90051474D01*
X164176982Y-90003855D01*
X164081744Y-89956236D01*
X163272220Y-89956236D01*
X164224601Y-89527664D02*
X164272220Y-89384807D01*
X164272220Y-89146712D01*
X164224601Y-89051474D01*
X164176982Y-89003855D01*
X164081744Y-88956236D01*
X163986506Y-88956236D01*
X163891268Y-89003855D01*
X163843649Y-89051474D01*
X163796030Y-89146712D01*
X163748411Y-89337188D01*
X163700792Y-89432426D01*
X163653173Y-89480045D01*
X163557935Y-89527664D01*
X163462697Y-89527664D01*
X163367459Y-89480045D01*
X163319840Y-89432426D01*
X163272220Y-89337188D01*
X163272220Y-89099093D01*
X163319840Y-88956236D01*
X163748411Y-88194331D02*
X163796030Y-88051474D01*
X163843649Y-88003855D01*
X163938887Y-87956236D01*
X164081744Y-87956236D01*
X164176982Y-88003855D01*
X164224601Y-88051474D01*
X164272220Y-88146712D01*
X164272220Y-88527664D01*
X163272220Y-88527664D01*
X163272220Y-88194331D01*
X163319840Y-88099093D01*
X163367459Y-88051474D01*
X163462697Y-88003855D01*
X163557935Y-88003855D01*
X163653173Y-88051474D01*
X163700792Y-88099093D01*
X163748411Y-88194331D01*
X163748411Y-88527664D01*
X165870000Y-90027664D02*
X165822380Y-90122902D01*
X165822380Y-90265760D01*
X165870000Y-90408617D01*
X165965238Y-90503855D01*
X166060476Y-90551474D01*
X166250952Y-90599093D01*
X166393809Y-90599093D01*
X166584285Y-90551474D01*
X166679523Y-90503855D01*
X166774761Y-90408617D01*
X166822380Y-90265760D01*
X166822380Y-90170521D01*
X166774761Y-90027664D01*
X166727142Y-89980045D01*
X166393809Y-89980045D01*
X166393809Y-90170521D01*
X166822380Y-89551474D02*
X165822380Y-89551474D01*
X166822380Y-88980045D01*
X165822380Y-88980045D01*
X166822380Y-88503855D02*
X165822380Y-88503855D01*
X165822380Y-88265760D01*
X165870000Y-88122902D01*
X165965238Y-88027664D01*
X166060476Y-87980045D01*
X166250952Y-87932426D01*
X166393809Y-87932426D01*
X166584285Y-87980045D01*
X166679523Y-88027664D01*
X166774761Y-88122902D01*
X166822380Y-88265760D01*
X166822380Y-88503855D01*
X168772531Y-89978146D02*
X168820150Y-89835289D01*
X168867769Y-89787670D01*
X168963007Y-89740051D01*
X169105864Y-89740051D01*
X169201102Y-89787670D01*
X169248721Y-89835289D01*
X169296340Y-89930527D01*
X169296340Y-90311480D01*
X168296340Y-90311480D01*
X168296340Y-89978146D01*
X168343960Y-89882908D01*
X168391579Y-89835289D01*
X168486817Y-89787670D01*
X168582055Y-89787670D01*
X168677293Y-89835289D01*
X168724912Y-89882908D01*
X168772531Y-89978146D01*
X168772531Y-90311480D01*
X169296340Y-88882908D02*
X168772531Y-88882908D01*
X168677293Y-88930527D01*
X168629674Y-89025765D01*
X168629674Y-89216241D01*
X168677293Y-89311480D01*
X169248721Y-88882908D02*
X169296340Y-88978146D01*
X169296340Y-89216241D01*
X169248721Y-89311480D01*
X169153483Y-89359099D01*
X169058245Y-89359099D01*
X168963007Y-89311480D01*
X168915388Y-89216241D01*
X168915388Y-88978146D01*
X168867769Y-88882908D01*
X168629674Y-88549575D02*
X168629674Y-88168622D01*
X168296340Y-88406718D02*
X169153483Y-88406718D01*
X169248721Y-88359099D01*
X169296340Y-88263860D01*
X169296340Y-88168622D01*
X171358251Y-89973375D02*
X171358251Y-89640041D01*
X171882060Y-89497184D02*
X171882060Y-89973375D01*
X170882060Y-89973375D01*
X170882060Y-89497184D01*
X171882060Y-89068613D02*
X170882060Y-89068613D01*
X171882060Y-88497184D01*
X170882060Y-88497184D01*
X173479840Y-89961624D02*
X173432220Y-90056862D01*
X173432220Y-90199720D01*
X173479840Y-90342577D01*
X173575078Y-90437815D01*
X173670316Y-90485434D01*
X173860792Y-90533053D01*
X174003649Y-90533053D01*
X174194125Y-90485434D01*
X174289363Y-90437815D01*
X174384601Y-90342577D01*
X174432220Y-90199720D01*
X174432220Y-90104481D01*
X174384601Y-89961624D01*
X174336982Y-89914005D01*
X174003649Y-89914005D01*
X174003649Y-90104481D01*
X174432220Y-89485434D02*
X173432220Y-89485434D01*
X174432220Y-88914005D01*
X173432220Y-88914005D01*
X174432220Y-88437815D02*
X173432220Y-88437815D01*
X173432220Y-88199720D01*
X173479840Y-88056862D01*
X173575078Y-87961624D01*
X173670316Y-87914005D01*
X173860792Y-87866386D01*
X174003649Y-87866386D01*
X174194125Y-87914005D01*
X174289363Y-87961624D01*
X174384601Y-88056862D01*
X174432220Y-88199720D01*
X174432220Y-88437815D01*
X176982380Y-89349556D02*
X176982380Y-89825746D01*
X175982380Y-89825746D01*
X176458571Y-88682889D02*
X176506190Y-88540032D01*
X176553809Y-88492413D01*
X176649047Y-88444794D01*
X176791904Y-88444794D01*
X176887142Y-88492413D01*
X176934761Y-88540032D01*
X176982380Y-88635270D01*
X176982380Y-89016222D01*
X175982380Y-89016222D01*
X175982380Y-88682889D01*
X176030000Y-88587651D01*
X176077619Y-88540032D01*
X176172857Y-88492413D01*
X176268095Y-88492413D01*
X176363333Y-88540032D01*
X176410952Y-88587651D01*
X176458571Y-88682889D01*
X176458571Y-89016222D01*
X181087780Y-89420676D02*
X181087780Y-89896866D01*
X181563971Y-89944485D01*
X181516352Y-89896866D01*
X181468733Y-89801628D01*
X181468733Y-89563533D01*
X181516352Y-89468295D01*
X181563971Y-89420676D01*
X181659209Y-89373057D01*
X181897304Y-89373057D01*
X181992542Y-89420676D01*
X182040161Y-89468295D01*
X182087780Y-89563533D01*
X182087780Y-89801628D01*
X182040161Y-89896866D01*
X181992542Y-89944485D01*
X181087780Y-89087342D02*
X182087780Y-88754009D01*
X181087780Y-88420676D01*
X178600480Y-90139424D02*
X178552860Y-90234662D01*
X178552860Y-90377520D01*
X178600480Y-90520377D01*
X178695718Y-90615615D01*
X178790956Y-90663234D01*
X178981432Y-90710853D01*
X179124289Y-90710853D01*
X179314765Y-90663234D01*
X179410003Y-90615615D01*
X179505241Y-90520377D01*
X179552860Y-90377520D01*
X179552860Y-90282281D01*
X179505241Y-90139424D01*
X179457622Y-90091805D01*
X179124289Y-90091805D01*
X179124289Y-90282281D01*
X179552860Y-89663234D02*
X178552860Y-89663234D01*
X179552860Y-89091805D01*
X178552860Y-89091805D01*
X179552860Y-88615615D02*
X178552860Y-88615615D01*
X178552860Y-88377520D01*
X178600480Y-88234662D01*
X178695718Y-88139424D01*
X178790956Y-88091805D01*
X178981432Y-88044186D01*
X179124289Y-88044186D01*
X179314765Y-88091805D01*
X179410003Y-88139424D01*
X179505241Y-88234662D01*
X179552860Y-88377520D01*
X179552860Y-88615615D01*
G04 #@! TO.C,U7*
X149098095Y-139152380D02*
X149098095Y-139961904D01*
X149145714Y-140057142D01*
X149193333Y-140104761D01*
X149288571Y-140152380D01*
X149479047Y-140152380D01*
X149574285Y-140104761D01*
X149621904Y-140057142D01*
X149669523Y-139961904D01*
X149669523Y-139152380D01*
X150050476Y-139152380D02*
X150717142Y-139152380D01*
X150288571Y-140152380D01*
X142962380Y-134445238D02*
X143962380Y-134111904D01*
X142962380Y-133778571D01*
X143962380Y-133445238D02*
X142962380Y-133445238D01*
X143962380Y-132969047D02*
X142962380Y-132969047D01*
X143962380Y-132397619D01*
X142962380Y-132397619D01*
X145550000Y-134111904D02*
X145502380Y-134207142D01*
X145502380Y-134350000D01*
X145550000Y-134492857D01*
X145645238Y-134588095D01*
X145740476Y-134635714D01*
X145930952Y-134683333D01*
X146073809Y-134683333D01*
X146264285Y-134635714D01*
X146359523Y-134588095D01*
X146454761Y-134492857D01*
X146502380Y-134350000D01*
X146502380Y-134254761D01*
X146454761Y-134111904D01*
X146407142Y-134064285D01*
X146073809Y-134064285D01*
X146073809Y-134254761D01*
X146502380Y-133635714D02*
X145502380Y-133635714D01*
X146502380Y-133064285D01*
X145502380Y-133064285D01*
X146502380Y-132588095D02*
X145502380Y-132588095D01*
X145502380Y-132350000D01*
X145550000Y-132207142D01*
X145645238Y-132111904D01*
X145740476Y-132064285D01*
X145930952Y-132016666D01*
X146073809Y-132016666D01*
X146264285Y-132064285D01*
X146359523Y-132111904D01*
X146454761Y-132207142D01*
X146502380Y-132350000D01*
X146502380Y-132588095D01*
X148994761Y-134540476D02*
X149042380Y-134397619D01*
X149042380Y-134159523D01*
X148994761Y-134064285D01*
X148947142Y-134016666D01*
X148851904Y-133969047D01*
X148756666Y-133969047D01*
X148661428Y-134016666D01*
X148613809Y-134064285D01*
X148566190Y-134159523D01*
X148518571Y-134350000D01*
X148470952Y-134445238D01*
X148423333Y-134492857D01*
X148328095Y-134540476D01*
X148232857Y-134540476D01*
X148137619Y-134492857D01*
X148090000Y-134445238D01*
X148042380Y-134350000D01*
X148042380Y-134111904D01*
X148090000Y-133969047D01*
X148947142Y-132969047D02*
X148994761Y-133016666D01*
X149042380Y-133159523D01*
X149042380Y-133254761D01*
X148994761Y-133397619D01*
X148899523Y-133492857D01*
X148804285Y-133540476D01*
X148613809Y-133588095D01*
X148470952Y-133588095D01*
X148280476Y-133540476D01*
X148185238Y-133492857D01*
X148090000Y-133397619D01*
X148042380Y-133254761D01*
X148042380Y-133159523D01*
X148090000Y-133016666D01*
X148137619Y-132969047D01*
X149042380Y-132064285D02*
X149042380Y-132540476D01*
X148042380Y-132540476D01*
X151534761Y-134564285D02*
X151582380Y-134421428D01*
X151582380Y-134183333D01*
X151534761Y-134088095D01*
X151487142Y-134040476D01*
X151391904Y-133992857D01*
X151296666Y-133992857D01*
X151201428Y-134040476D01*
X151153809Y-134088095D01*
X151106190Y-134183333D01*
X151058571Y-134373809D01*
X151010952Y-134469047D01*
X150963333Y-134516666D01*
X150868095Y-134564285D01*
X150772857Y-134564285D01*
X150677619Y-134516666D01*
X150630000Y-134469047D01*
X150582380Y-134373809D01*
X150582380Y-134135714D01*
X150630000Y-133992857D01*
X151582380Y-133564285D02*
X150582380Y-133564285D01*
X150582380Y-133326190D01*
X150630000Y-133183333D01*
X150725238Y-133088095D01*
X150820476Y-133040476D01*
X151010952Y-132992857D01*
X151153809Y-132992857D01*
X151344285Y-133040476D01*
X151439523Y-133088095D01*
X151534761Y-133183333D01*
X151582380Y-133326190D01*
X151582380Y-133564285D01*
X151296666Y-132611904D02*
X151296666Y-132135714D01*
X151582380Y-132707142D02*
X150582380Y-132373809D01*
X151582380Y-132040476D01*
X153170000Y-134826190D02*
X153122380Y-134921428D01*
X153122380Y-135064285D01*
X153170000Y-135207142D01*
X153265238Y-135302380D01*
X153360476Y-135350000D01*
X153550952Y-135397619D01*
X153693809Y-135397619D01*
X153884285Y-135350000D01*
X153979523Y-135302380D01*
X154074761Y-135207142D01*
X154122380Y-135064285D01*
X154122380Y-134969047D01*
X154074761Y-134826190D01*
X154027142Y-134778571D01*
X153693809Y-134778571D01*
X153693809Y-134969047D01*
X154122380Y-134350000D02*
X153122380Y-134350000D01*
X153122380Y-133969047D01*
X153170000Y-133873809D01*
X153217619Y-133826190D01*
X153312857Y-133778571D01*
X153455714Y-133778571D01*
X153550952Y-133826190D01*
X153598571Y-133873809D01*
X153646190Y-133969047D01*
X153646190Y-134350000D01*
X154122380Y-133350000D02*
X153122380Y-133350000D01*
X153122380Y-132683333D02*
X153122380Y-132492857D01*
X153170000Y-132397619D01*
X153265238Y-132302380D01*
X153455714Y-132254761D01*
X153789047Y-132254761D01*
X153979523Y-132302380D01*
X154074761Y-132397619D01*
X154122380Y-132492857D01*
X154122380Y-132683333D01*
X154074761Y-132778571D01*
X153979523Y-132873809D01*
X153789047Y-132921428D01*
X153455714Y-132921428D01*
X153265238Y-132873809D01*
X153170000Y-132778571D01*
X153122380Y-132683333D01*
X154122380Y-131302380D02*
X154122380Y-131873809D01*
X154122380Y-131588095D02*
X153122380Y-131588095D01*
X153265238Y-131683333D01*
X153360476Y-131778571D01*
X153408095Y-131873809D01*
X155662380Y-135588095D02*
X156662380Y-134921428D01*
X155662380Y-134921428D02*
X156662380Y-135588095D01*
X156614761Y-134588095D02*
X156662380Y-134445238D01*
X156662380Y-134207142D01*
X156614761Y-134111904D01*
X156567142Y-134064285D01*
X156471904Y-134016666D01*
X156376666Y-134016666D01*
X156281428Y-134064285D01*
X156233809Y-134111904D01*
X156186190Y-134207142D01*
X156138571Y-134397619D01*
X156090952Y-134492857D01*
X156043333Y-134540476D01*
X155948095Y-134588095D01*
X155852857Y-134588095D01*
X155757619Y-134540476D01*
X155710000Y-134492857D01*
X155662380Y-134397619D01*
X155662380Y-134159523D01*
X155710000Y-134016666D01*
X156662380Y-133588095D02*
X155662380Y-133588095D01*
X156138571Y-133588095D02*
X156138571Y-133016666D01*
X156662380Y-133016666D02*
X155662380Y-133016666D01*
X155662380Y-132540476D02*
X156471904Y-132540476D01*
X156567142Y-132492857D01*
X156614761Y-132445238D01*
X156662380Y-132350000D01*
X156662380Y-132159523D01*
X156614761Y-132064285D01*
X156567142Y-132016666D01*
X156471904Y-131969047D01*
X155662380Y-131969047D01*
X155662380Y-131635714D02*
X155662380Y-131064285D01*
X156662380Y-131350000D02*
X155662380Y-131350000D01*
G04 #@! TO.C,R5*
X164933333Y-136342380D02*
X164600000Y-135866190D01*
X164361904Y-136342380D02*
X164361904Y-135342380D01*
X164742857Y-135342380D01*
X164838095Y-135390000D01*
X164885714Y-135437619D01*
X164933333Y-135532857D01*
X164933333Y-135675714D01*
X164885714Y-135770952D01*
X164838095Y-135818571D01*
X164742857Y-135866190D01*
X164361904Y-135866190D01*
X165838095Y-135342380D02*
X165361904Y-135342380D01*
X165314285Y-135818571D01*
X165361904Y-135770952D01*
X165457142Y-135723333D01*
X165695238Y-135723333D01*
X165790476Y-135770952D01*
X165838095Y-135818571D01*
X165885714Y-135913809D01*
X165885714Y-136151904D01*
X165838095Y-136247142D01*
X165790476Y-136294761D01*
X165695238Y-136342380D01*
X165457142Y-136342380D01*
X165361904Y-136294761D01*
X165314285Y-136247142D01*
G04 #@! TO.C,R6*
X134453333Y-136342380D02*
X134120000Y-135866190D01*
X133881904Y-136342380D02*
X133881904Y-135342380D01*
X134262857Y-135342380D01*
X134358095Y-135390000D01*
X134405714Y-135437619D01*
X134453333Y-135532857D01*
X134453333Y-135675714D01*
X134405714Y-135770952D01*
X134358095Y-135818571D01*
X134262857Y-135866190D01*
X133881904Y-135866190D01*
X135310476Y-135342380D02*
X135120000Y-135342380D01*
X135024761Y-135390000D01*
X134977142Y-135437619D01*
X134881904Y-135580476D01*
X134834285Y-135770952D01*
X134834285Y-136151904D01*
X134881904Y-136247142D01*
X134929523Y-136294761D01*
X135024761Y-136342380D01*
X135215238Y-136342380D01*
X135310476Y-136294761D01*
X135358095Y-136247142D01*
X135405714Y-136151904D01*
X135405714Y-135913809D01*
X135358095Y-135818571D01*
X135310476Y-135770952D01*
X135215238Y-135723333D01*
X135024761Y-135723333D01*
X134929523Y-135770952D01*
X134881904Y-135818571D01*
X134834285Y-135913809D01*
G04 #@! TO.C,A1*
X140255714Y-92876666D02*
X140731904Y-92876666D01*
X140160476Y-93162380D02*
X140493809Y-92162380D01*
X140827142Y-93162380D01*
X141684285Y-93162380D02*
X141112857Y-93162380D01*
X141398571Y-93162380D02*
X141398571Y-92162380D01*
X141303333Y-92305238D01*
X141208095Y-92400476D01*
X141112857Y-92448095D01*
G04 #@! TO.C,C1*
X123658333Y-108307142D02*
X123610714Y-108354761D01*
X123467857Y-108402380D01*
X123372619Y-108402380D01*
X123229761Y-108354761D01*
X123134523Y-108259523D01*
X123086904Y-108164285D01*
X123039285Y-107973809D01*
X123039285Y-107830952D01*
X123086904Y-107640476D01*
X123134523Y-107545238D01*
X123229761Y-107450000D01*
X123372619Y-107402380D01*
X123467857Y-107402380D01*
X123610714Y-107450000D01*
X123658333Y-107497619D01*
X124610714Y-108402380D02*
X124039285Y-108402380D01*
X124325000Y-108402380D02*
X124325000Y-107402380D01*
X124229761Y-107545238D01*
X124134523Y-107640476D01*
X124039285Y-107688095D01*
G04 #@! TO.C,R7*
X126198333Y-91257380D02*
X125865000Y-90781190D01*
X125626904Y-91257380D02*
X125626904Y-90257380D01*
X126007857Y-90257380D01*
X126103095Y-90305000D01*
X126150714Y-90352619D01*
X126198333Y-90447857D01*
X126198333Y-90590714D01*
X126150714Y-90685952D01*
X126103095Y-90733571D01*
X126007857Y-90781190D01*
X125626904Y-90781190D01*
X126531666Y-90257380D02*
X127198333Y-90257380D01*
X126769761Y-91257380D01*
G04 #@! TO.C,R8*
X123658333Y-94432380D02*
X123325000Y-93956190D01*
X123086904Y-94432380D02*
X123086904Y-93432380D01*
X123467857Y-93432380D01*
X123563095Y-93480000D01*
X123610714Y-93527619D01*
X123658333Y-93622857D01*
X123658333Y-93765714D01*
X123610714Y-93860952D01*
X123563095Y-93908571D01*
X123467857Y-93956190D01*
X123086904Y-93956190D01*
X124229761Y-93860952D02*
X124134523Y-93813333D01*
X124086904Y-93765714D01*
X124039285Y-93670476D01*
X124039285Y-93622857D01*
X124086904Y-93527619D01*
X124134523Y-93480000D01*
X124229761Y-93432380D01*
X124420238Y-93432380D01*
X124515476Y-93480000D01*
X124563095Y-93527619D01*
X124610714Y-93622857D01*
X124610714Y-93670476D01*
X124563095Y-93765714D01*
X124515476Y-93813333D01*
X124420238Y-93860952D01*
X124229761Y-93860952D01*
X124134523Y-93908571D01*
X124086904Y-93956190D01*
X124039285Y-94051428D01*
X124039285Y-94241904D01*
X124086904Y-94337142D01*
X124134523Y-94384761D01*
X124229761Y-94432380D01*
X124420238Y-94432380D01*
X124515476Y-94384761D01*
X124563095Y-94337142D01*
X124610714Y-94241904D01*
X124610714Y-94051428D01*
X124563095Y-93956190D01*
X124515476Y-93908571D01*
X124420238Y-93860952D01*
G04 #@! TO.C,R9*
X121118333Y-97607380D02*
X120785000Y-97131190D01*
X120546904Y-97607380D02*
X120546904Y-96607380D01*
X120927857Y-96607380D01*
X121023095Y-96655000D01*
X121070714Y-96702619D01*
X121118333Y-96797857D01*
X121118333Y-96940714D01*
X121070714Y-97035952D01*
X121023095Y-97083571D01*
X120927857Y-97131190D01*
X120546904Y-97131190D01*
X121594523Y-97607380D02*
X121785000Y-97607380D01*
X121880238Y-97559761D01*
X121927857Y-97512142D01*
X122023095Y-97369285D01*
X122070714Y-97178809D01*
X122070714Y-96797857D01*
X122023095Y-96702619D01*
X121975476Y-96655000D01*
X121880238Y-96607380D01*
X121689761Y-96607380D01*
X121594523Y-96655000D01*
X121546904Y-96702619D01*
X121499285Y-96797857D01*
X121499285Y-97035952D01*
X121546904Y-97131190D01*
X121594523Y-97178809D01*
X121689761Y-97226428D01*
X121880238Y-97226428D01*
X121975476Y-97178809D01*
X122023095Y-97131190D01*
X122070714Y-97035952D01*
G04 #@! TO.C,R10*
X108577142Y-91257380D02*
X108243809Y-90781190D01*
X108005714Y-91257380D02*
X108005714Y-90257380D01*
X108386666Y-90257380D01*
X108481904Y-90305000D01*
X108529523Y-90352619D01*
X108577142Y-90447857D01*
X108577142Y-90590714D01*
X108529523Y-90685952D01*
X108481904Y-90733571D01*
X108386666Y-90781190D01*
X108005714Y-90781190D01*
X109529523Y-91257380D02*
X108958095Y-91257380D01*
X109243809Y-91257380D02*
X109243809Y-90257380D01*
X109148571Y-90400238D01*
X109053333Y-90495476D01*
X108958095Y-90543095D01*
X110148571Y-90257380D02*
X110243809Y-90257380D01*
X110339047Y-90305000D01*
X110386666Y-90352619D01*
X110434285Y-90447857D01*
X110481904Y-90638333D01*
X110481904Y-90876428D01*
X110434285Y-91066904D01*
X110386666Y-91162142D01*
X110339047Y-91209761D01*
X110243809Y-91257380D01*
X110148571Y-91257380D01*
X110053333Y-91209761D01*
X110005714Y-91162142D01*
X109958095Y-91066904D01*
X109910476Y-90876428D01*
X109910476Y-90638333D01*
X109958095Y-90447857D01*
X110005714Y-90352619D01*
X110053333Y-90305000D01*
X110148571Y-90257380D01*
G04 #@! TO.C,U11*
X116871904Y-82002380D02*
X116871904Y-82811904D01*
X116919523Y-82907142D01*
X116967142Y-82954761D01*
X117062380Y-83002380D01*
X117252857Y-83002380D01*
X117348095Y-82954761D01*
X117395714Y-82907142D01*
X117443333Y-82811904D01*
X117443333Y-82002380D01*
X118443333Y-83002380D02*
X117871904Y-83002380D01*
X118157619Y-83002380D02*
X118157619Y-82002380D01*
X118062380Y-82145238D01*
X117967142Y-82240476D01*
X117871904Y-82288095D01*
X119395714Y-83002380D02*
X118824285Y-83002380D01*
X119110000Y-83002380D02*
X119110000Y-82002380D01*
X119014761Y-82145238D01*
X118919523Y-82240476D01*
X118824285Y-82288095D01*
G04 #@! TD*
M02*
