G04 #@! TF.GenerationSoftware,KiCad,Pcbnew,(5.0.2)-1*
G04 #@! TF.CreationDate,2019-01-31T21:33:12+01:00*
G04 #@! TF.ProjectId,bigmax,6269676d-6178-42e6-9b69-6361645f7063,v1*
G04 #@! TF.SameCoordinates,Original*
G04 #@! TF.FileFunction,Profile,NP*
%FSLAX46Y46*%
G04 Gerber Fmt 4.6, Leading zero omitted, Abs format (unit mm)*
G04 Created by KiCad (PCBNEW (5.0.2)-1) date 31/01/2019 21:33:12*
%MOMM*%
%LPD*%
G01*
G04 APERTURE LIST*
%ADD10C,0.150000*%
G04 APERTURE END LIST*
D10*
X170180000Y-60325000D02*
G75*
G03X170180000Y-60325000I-1270000J0D01*
G01*
X170180000Y-78105000D02*
G75*
G03X170180000Y-78105000I-1270000J0D01*
G01*
X132080000Y-78105000D02*
G75*
G03X132080000Y-78105000I-1270000J0D01*
G01*
X132080000Y-60325000D02*
G75*
G03X132080000Y-60325000I-1270000J0D01*
G01*
X107950000Y-149860000D02*
X102870000Y-149860000D01*
X191770000Y-149860000D02*
X196850000Y-149860000D01*
X184150000Y-137160000D02*
X184150000Y-149860000D01*
X191770000Y-137160000D02*
X184150000Y-137160000D01*
X191770000Y-149860000D02*
X191770000Y-137160000D01*
X115570000Y-137160000D02*
X115570000Y-149860000D01*
X107950000Y-137160000D02*
X115570000Y-137160000D01*
X107950000Y-149860000D02*
X107950000Y-137160000D01*
X196850000Y-129540000D02*
X196850000Y-149860000D01*
X199390000Y-129540000D02*
X196850000Y-129540000D01*
X196850000Y-110490000D02*
X199390000Y-110490000D01*
X196850000Y-85090000D02*
X196850000Y-110490000D01*
X102870000Y-129540000D02*
X102870000Y-149860000D01*
X100330000Y-129540000D02*
X102870000Y-129540000D01*
X102870000Y-110490000D02*
X100330000Y-110490000D01*
X102870000Y-85090000D02*
X102870000Y-110490000D01*
X165100000Y-50800000D02*
X185420000Y-50800000D01*
X165100000Y-53340000D02*
X165100000Y-50800000D01*
X134620000Y-53340000D02*
X165100000Y-53340000D01*
X134620000Y-50800000D02*
X134620000Y-53340000D01*
X114300000Y-85090000D02*
X114300000Y-50800000D01*
X102870000Y-85090000D02*
X114300000Y-85090000D01*
X100330000Y-129540000D02*
X100330000Y-110490000D01*
X184150000Y-149860000D02*
X115570000Y-149860000D01*
X199390000Y-110490000D02*
X199390000Y-129540000D01*
X185420000Y-85090000D02*
X196850000Y-85090000D01*
X185420000Y-50800000D02*
X185420000Y-85090000D01*
X114300000Y-50800000D02*
X134620000Y-50800000D01*
M02*
