G04 #@! TF.GenerationSoftware,KiCad,Pcbnew,(5.0.2)-1*
G04 #@! TF.CreationDate,2019-01-31T21:33:12+01:00*
G04 #@! TF.ProjectId,bigmax,6269676d-6178-42e6-9b69-6361645f7063,v1*
G04 #@! TF.SameCoordinates,Original*
G04 #@! TF.FileFunction,Legend,Bot*
G04 #@! TF.FilePolarity,Positive*
%FSLAX46Y46*%
G04 Gerber Fmt 4.6, Leading zero omitted, Abs format (unit mm)*
G04 Created by KiCad (PCBNEW (5.0.2)-1) date 31/01/2019 21:33:12*
%MOMM*%
%LPD*%
G01*
G04 APERTURE LIST*
%ADD10C,0.150000*%
%ADD11C,0.300000*%
G04 APERTURE END LIST*
D10*
G36*
X154940000Y-74930000D02*
X154940000Y-72390000D01*
X153670000Y-73660000D01*
X152400000Y-72390000D01*
X151130000Y-73660000D01*
X149860000Y-72390000D01*
X149860000Y-74930000D01*
X151130000Y-73660000D01*
X152400000Y-74930000D01*
X154940000Y-74930000D01*
G37*
X154940000Y-74930000D02*
X154940000Y-72390000D01*
X153670000Y-73660000D01*
X152400000Y-72390000D01*
X151130000Y-73660000D01*
X149860000Y-72390000D01*
X149860000Y-74930000D01*
X151130000Y-73660000D01*
X152400000Y-74930000D01*
X154940000Y-74930000D01*
D11*
X145032857Y-72428571D02*
X145032857Y-70928571D01*
X145032857Y-71500000D02*
X144890000Y-71428571D01*
X144604285Y-71428571D01*
X144461428Y-71500000D01*
X144390000Y-71571428D01*
X144318571Y-71714285D01*
X144318571Y-72142857D01*
X144390000Y-72285714D01*
X144461428Y-72357142D01*
X144604285Y-72428571D01*
X144890000Y-72428571D01*
X145032857Y-72357142D01*
X143675714Y-72428571D02*
X143675714Y-71428571D01*
X143675714Y-70928571D02*
X143747142Y-71000000D01*
X143675714Y-71071428D01*
X143604285Y-71000000D01*
X143675714Y-70928571D01*
X143675714Y-71071428D01*
X142318571Y-71428571D02*
X142318571Y-72642857D01*
X142390000Y-72785714D01*
X142461428Y-72857142D01*
X142604285Y-72928571D01*
X142818571Y-72928571D01*
X142961428Y-72857142D01*
X142318571Y-72357142D02*
X142461428Y-72428571D01*
X142747142Y-72428571D01*
X142890000Y-72357142D01*
X142961428Y-72285714D01*
X143032857Y-72142857D01*
X143032857Y-71714285D01*
X142961428Y-71571428D01*
X142890000Y-71500000D01*
X142747142Y-71428571D01*
X142461428Y-71428571D01*
X142318571Y-71500000D01*
X141604285Y-72428571D02*
X141604285Y-71428571D01*
X141604285Y-71571428D02*
X141532857Y-71500000D01*
X141390000Y-71428571D01*
X141175714Y-71428571D01*
X141032857Y-71500000D01*
X140961428Y-71642857D01*
X140961428Y-72428571D01*
X140961428Y-71642857D02*
X140890000Y-71500000D01*
X140747142Y-71428571D01*
X140532857Y-71428571D01*
X140390000Y-71500000D01*
X140318571Y-71642857D01*
X140318571Y-72428571D01*
X138961428Y-72428571D02*
X138961428Y-71642857D01*
X139032857Y-71500000D01*
X139175714Y-71428571D01*
X139461428Y-71428571D01*
X139604285Y-71500000D01*
X138961428Y-72357142D02*
X139104285Y-72428571D01*
X139461428Y-72428571D01*
X139604285Y-72357142D01*
X139675714Y-72214285D01*
X139675714Y-72071428D01*
X139604285Y-71928571D01*
X139461428Y-71857142D01*
X139104285Y-71857142D01*
X138961428Y-71785714D01*
X138390000Y-72428571D02*
X137604285Y-71428571D01*
X138390000Y-71428571D02*
X137604285Y-72428571D01*
X135890000Y-71857142D02*
X134747142Y-71857142D01*
X133032857Y-71428571D02*
X132675714Y-72428571D01*
X132318571Y-71428571D01*
X130961428Y-72428571D02*
X131818571Y-72428571D01*
X131390000Y-72428571D02*
X131390000Y-70928571D01*
X131532857Y-71142857D01*
X131675714Y-71285714D01*
X131818571Y-71357142D01*
X130318571Y-72285714D02*
X130247142Y-72357142D01*
X130318571Y-72428571D01*
X130390000Y-72357142D01*
X130318571Y-72285714D01*
X130318571Y-72428571D01*
X129318571Y-70928571D02*
X129175714Y-70928571D01*
X129032857Y-71000000D01*
X128961428Y-71071428D01*
X128890000Y-71214285D01*
X128818571Y-71500000D01*
X128818571Y-71857142D01*
X128890000Y-72142857D01*
X128961428Y-72285714D01*
X129032857Y-72357142D01*
X129175714Y-72428571D01*
X129318571Y-72428571D01*
X129461428Y-72357142D01*
X129532857Y-72285714D01*
X129604285Y-72142857D01*
X129675714Y-71857142D01*
X129675714Y-71500000D01*
X129604285Y-71214285D01*
X129532857Y-71071428D01*
X129461428Y-71000000D01*
X129318571Y-70928571D01*
X128175714Y-72285714D02*
X128104285Y-72357142D01*
X128175714Y-72428571D01*
X128247142Y-72357142D01*
X128175714Y-72285714D01*
X128175714Y-72428571D01*
X127175714Y-70928571D02*
X127032857Y-70928571D01*
X126890000Y-71000000D01*
X126818571Y-71071428D01*
X126747142Y-71214285D01*
X126675714Y-71500000D01*
X126675714Y-71857142D01*
X126747142Y-72142857D01*
X126818571Y-72285714D01*
X126890000Y-72357142D01*
X127032857Y-72428571D01*
X127175714Y-72428571D01*
X127318571Y-72357142D01*
X127390000Y-72285714D01*
X127461428Y-72142857D01*
X127532857Y-71857142D01*
X127532857Y-71500000D01*
X127461428Y-71214285D01*
X127390000Y-71071428D01*
X127318571Y-71000000D01*
X127175714Y-70928571D01*
X142711428Y-73978571D02*
X142711428Y-75264285D01*
X142782857Y-75407142D01*
X142925714Y-75478571D01*
X142997142Y-75478571D01*
X142711428Y-73478571D02*
X142782857Y-73550000D01*
X142711428Y-73621428D01*
X142640000Y-73550000D01*
X142711428Y-73478571D01*
X142711428Y-73621428D01*
X141354285Y-74978571D02*
X141354285Y-74192857D01*
X141425714Y-74050000D01*
X141568571Y-73978571D01*
X141854285Y-73978571D01*
X141997142Y-74050000D01*
X141354285Y-74907142D02*
X141497142Y-74978571D01*
X141854285Y-74978571D01*
X141997142Y-74907142D01*
X142068571Y-74764285D01*
X142068571Y-74621428D01*
X141997142Y-74478571D01*
X141854285Y-74407142D01*
X141497142Y-74407142D01*
X141354285Y-74335714D01*
X140640000Y-73978571D02*
X140640000Y-74978571D01*
X140640000Y-74121428D02*
X140568571Y-74050000D01*
X140425714Y-73978571D01*
X140211428Y-73978571D01*
X140068571Y-74050000D01*
X139997142Y-74192857D01*
X139997142Y-74978571D01*
X139425714Y-73978571D02*
X139068571Y-74978571D01*
X138711428Y-73978571D01*
X138140000Y-74978571D02*
X138140000Y-73978571D01*
X138140000Y-73478571D02*
X138211428Y-73550000D01*
X138140000Y-73621428D01*
X138068571Y-73550000D01*
X138140000Y-73478571D01*
X138140000Y-73621428D01*
X136854285Y-74907142D02*
X136997142Y-74978571D01*
X137282857Y-74978571D01*
X137425714Y-74907142D01*
X137497142Y-74764285D01*
X137497142Y-74192857D01*
X137425714Y-74050000D01*
X137282857Y-73978571D01*
X136997142Y-73978571D01*
X136854285Y-74050000D01*
X136782857Y-74192857D01*
X136782857Y-74335714D01*
X137497142Y-74478571D01*
X136140000Y-74978571D02*
X136140000Y-73978571D01*
X136140000Y-74264285D02*
X136068571Y-74121428D01*
X135997142Y-74050000D01*
X135854285Y-73978571D01*
X135711428Y-73978571D01*
X134140000Y-73621428D02*
X134068571Y-73550000D01*
X133925714Y-73478571D01*
X133568571Y-73478571D01*
X133425714Y-73550000D01*
X133354285Y-73621428D01*
X133282857Y-73764285D01*
X133282857Y-73907142D01*
X133354285Y-74121428D01*
X134211428Y-74978571D01*
X133282857Y-74978571D01*
X132354285Y-73478571D02*
X132211428Y-73478571D01*
X132068571Y-73550000D01*
X131997142Y-73621428D01*
X131925714Y-73764285D01*
X131854285Y-74050000D01*
X131854285Y-74407142D01*
X131925714Y-74692857D01*
X131997142Y-74835714D01*
X132068571Y-74907142D01*
X132211428Y-74978571D01*
X132354285Y-74978571D01*
X132497142Y-74907142D01*
X132568571Y-74835714D01*
X132640000Y-74692857D01*
X132711428Y-74407142D01*
X132711428Y-74050000D01*
X132640000Y-73764285D01*
X132568571Y-73621428D01*
X132497142Y-73550000D01*
X132354285Y-73478571D01*
X130425714Y-74978571D02*
X131282857Y-74978571D01*
X130854285Y-74978571D02*
X130854285Y-73478571D01*
X130997142Y-73692857D01*
X131140000Y-73835714D01*
X131282857Y-73907142D01*
X129711428Y-74978571D02*
X129425714Y-74978571D01*
X129282857Y-74907142D01*
X129211428Y-74835714D01*
X129068571Y-74621428D01*
X128997142Y-74335714D01*
X128997142Y-73764285D01*
X129068571Y-73621428D01*
X129140000Y-73550000D01*
X129282857Y-73478571D01*
X129568571Y-73478571D01*
X129711428Y-73550000D01*
X129782857Y-73621428D01*
X129854285Y-73764285D01*
X129854285Y-74121428D01*
X129782857Y-74264285D01*
X129711428Y-74335714D01*
X129568571Y-74407142D01*
X129282857Y-74407142D01*
X129140000Y-74335714D01*
X129068571Y-74264285D01*
X128997142Y-74121428D01*
M02*
