G04 #@! TF.GenerationSoftware,KiCad,Pcbnew,(5.0.2)-1*
G04 #@! TF.CreationDate,2019-01-31T01:26:36+01:00*
G04 #@! TF.ProjectId,bigmax,6269676d-6178-42e6-9b69-6361645f7063,v1*
G04 #@! TF.SameCoordinates,Original*
G04 #@! TF.FileFunction,Copper,L1,Top*
G04 #@! TF.FilePolarity,Positive*
%FSLAX46Y46*%
G04 Gerber Fmt 4.6, Leading zero omitted, Abs format (unit mm)*
G04 Created by KiCad (PCBNEW (5.0.2)-1) date 31/01/2019 01:26:36*
%MOMM*%
%LPD*%
G01*
G04 APERTURE LIST*
G04 #@! TA.AperFunction,ComponentPad*
%ADD10C,1.524000*%
G04 #@! TD*
G04 #@! TA.AperFunction,ComponentPad*
%ADD11R,1.524000X1.524000*%
G04 #@! TD*
G04 #@! TA.AperFunction,ComponentPad*
%ADD12O,1.070000X1.800000*%
G04 #@! TD*
G04 #@! TA.AperFunction,ComponentPad*
%ADD13R,1.070000X1.800000*%
G04 #@! TD*
G04 #@! TA.AperFunction,ComponentPad*
%ADD14C,1.600000*%
G04 #@! TD*
G04 #@! TA.AperFunction,ComponentPad*
%ADD15O,1.600000X1.600000*%
G04 #@! TD*
G04 #@! TA.AperFunction,ComponentPad*
%ADD16C,2.000000*%
G04 #@! TD*
G04 #@! TA.AperFunction,ComponentPad*
%ADD17R,1.600000X1.600000*%
G04 #@! TD*
G04 #@! TA.AperFunction,ComponentPad*
%ADD18R,2.000000X2.000000*%
G04 #@! TD*
G04 #@! TA.AperFunction,ViaPad*
%ADD19C,0.800000*%
G04 #@! TD*
G04 #@! TA.AperFunction,Conductor*
%ADD20C,0.250000*%
G04 #@! TD*
G04 #@! TA.AperFunction,Conductor*
%ADD21C,0.500000*%
G04 #@! TD*
G04 #@! TA.AperFunction,Conductor*
%ADD22C,0.254000*%
G04 #@! TD*
G04 APERTURE END LIST*
D10*
G04 #@! TO.P,U6,1*
G04 #@! TO.N,+BATT*
X193040000Y-111760000D03*
G04 #@! TO.P,U6,3*
G04 #@! TO.N,+6V*
X162560000Y-111760000D03*
G04 #@! TO.P,U6,2*
G04 #@! TO.N,GND*
X193040000Y-119380000D03*
G04 #@! TO.P,U6,4*
X162560000Y-119380000D03*
G04 #@! TD*
D11*
G04 #@! TO.P,U10,1*
G04 #@! TO.N,+BATT*
X176530000Y-81280000D03*
D10*
G04 #@! TO.P,U10,2*
G04 #@! TO.N,GND*
X179070000Y-81280000D03*
G04 #@! TD*
D11*
G04 #@! TO.P,U9,1*
G04 #@! TO.N,+6V*
X135890000Y-109220000D03*
D10*
G04 #@! TO.P,U9,2*
G04 #@! TO.N,GND*
X135890000Y-112395000D03*
G04 #@! TO.P,U9,3*
G04 #@! TO.N,/in1*
X139700000Y-117475000D03*
G04 #@! TO.P,U9,4*
G04 #@! TO.N,/in2*
X139700000Y-120015000D03*
G04 #@! TO.P,U9,5*
G04 #@! TO.N,/in3*
X139700000Y-123825000D03*
G04 #@! TO.P,U9,6*
G04 #@! TO.N,/in4*
X139700000Y-126365000D03*
G04 #@! TO.P,U9,7*
G04 #@! TO.N,/M1*
X153035000Y-117475000D03*
G04 #@! TO.P,U9,8*
G04 #@! TO.N,/M2*
X153035000Y-120015000D03*
G04 #@! TO.P,U9,9*
G04 #@! TO.N,/M3*
X153035000Y-123825000D03*
G04 #@! TO.P,U9,10*
G04 #@! TO.N,/M4*
X153035000Y-126365000D03*
G04 #@! TD*
G04 #@! TO.P,U4,6*
G04 #@! TO.N,/c2_b*
X180340000Y-54610000D03*
G04 #@! TO.P,U4,5*
G04 #@! TO.N,/c1_b*
X177800000Y-54610000D03*
G04 #@! TO.P,U4,4*
G04 #@! TO.N,/M4*
X175260000Y-54610000D03*
G04 #@! TO.P,U4,3*
G04 #@! TO.N,/M3*
X172720000Y-54610000D03*
G04 #@! TO.P,U4,2*
G04 #@! TO.N,GND*
X170180000Y-54610000D03*
D11*
G04 #@! TO.P,U4,1*
G04 #@! TO.N,VCC*
X167640000Y-54610000D03*
G04 #@! TD*
D10*
G04 #@! TO.P,U8,6*
G04 #@! TO.N,/XSHUT_b*
X143510000Y-68580000D03*
G04 #@! TO.P,U8,5*
G04 #@! TO.N,Net-(U8-Pad5)*
X146050000Y-68580000D03*
G04 #@! TO.P,U8,4*
G04 #@! TO.N,/scl*
X148590000Y-68580000D03*
G04 #@! TO.P,U8,3*
G04 #@! TO.N,/sda*
X151130000Y-68580000D03*
G04 #@! TO.P,U8,2*
G04 #@! TO.N,GND*
X153670000Y-68580000D03*
D11*
G04 #@! TO.P,U8,1*
G04 #@! TO.N,VCC*
X156210000Y-68580000D03*
G04 #@! TD*
D12*
G04 #@! TO.P,D1,4*
G04 #@! TO.N,Net-(D1-Pad4)*
X128270000Y-133350000D03*
G04 #@! TO.P,D1,3*
G04 #@! TO.N,Net-(D1-Pad3)*
X127000000Y-133350000D03*
G04 #@! TO.P,D1,2*
G04 #@! TO.N,Net-(D1-Pad2)*
X125730000Y-133350000D03*
D13*
G04 #@! TO.P,D1,1*
G04 #@! TO.N,GND*
X124460000Y-133350000D03*
G04 #@! TD*
D14*
G04 #@! TO.P,R1,1*
G04 #@! TO.N,Net-(A1-Pad22)*
X130810000Y-116840000D03*
D15*
G04 #@! TO.P,R1,2*
G04 #@! TO.N,Net-(D1-Pad4)*
X130810000Y-127000000D03*
G04 #@! TD*
G04 #@! TO.P,R2,2*
G04 #@! TO.N,Net-(D1-Pad3)*
X125730000Y-127000000D03*
D14*
G04 #@! TO.P,R2,1*
G04 #@! TO.N,Net-(A1-Pad21)*
X125730000Y-116840000D03*
G04 #@! TD*
G04 #@! TO.P,R3,1*
G04 #@! TO.N,GND*
X106680000Y-116840000D03*
D15*
G04 #@! TO.P,R3,2*
G04 #@! TO.N,Net-(A1-Pad19)*
X106680000Y-106680000D03*
G04 #@! TD*
G04 #@! TO.P,R4,2*
G04 #@! TO.N,Net-(D1-Pad2)*
X120650000Y-127000000D03*
D14*
G04 #@! TO.P,R4,1*
G04 #@! TO.N,Net-(A1-Pad20)*
X120650000Y-116840000D03*
G04 #@! TD*
D16*
G04 #@! TO.P,SW1,1*
G04 #@! TO.N,VCC*
X115570000Y-115570000D03*
G04 #@! TO.P,SW1,2*
G04 #@! TO.N,Net-(A1-Pad19)*
X111070000Y-115570000D03*
G04 #@! TO.P,SW1,1*
G04 #@! TO.N,VCC*
X115570000Y-109070000D03*
G04 #@! TO.P,SW1,2*
G04 #@! TO.N,Net-(A1-Pad19)*
X111070000Y-109070000D03*
G04 #@! TD*
D10*
G04 #@! TO.P,U1,2*
G04 #@! TO.N,VCC*
X111760000Y-125730000D03*
G04 #@! TO.P,U1,3*
G04 #@! TO.N,/out_a*
X109220000Y-125730000D03*
D11*
G04 #@! TO.P,U1,1*
G04 #@! TO.N,GND*
X114300000Y-125730000D03*
G04 #@! TD*
G04 #@! TO.P,U2,1*
G04 #@! TO.N,GND*
X190500000Y-125730000D03*
D10*
G04 #@! TO.P,U2,3*
G04 #@! TO.N,/out_b*
X185420000Y-125730000D03*
G04 #@! TO.P,U2,2*
G04 #@! TO.N,VCC*
X187960000Y-125730000D03*
G04 #@! TD*
D11*
G04 #@! TO.P,U3,1*
G04 #@! TO.N,VCC*
X119380000Y-54610000D03*
D10*
G04 #@! TO.P,U3,2*
G04 #@! TO.N,GND*
X121920000Y-54610000D03*
G04 #@! TO.P,U3,3*
G04 #@! TO.N,/M1*
X124460000Y-54610000D03*
G04 #@! TO.P,U3,4*
G04 #@! TO.N,/M2*
X127000000Y-54610000D03*
G04 #@! TO.P,U3,5*
G04 #@! TO.N,/c1_a*
X129540000Y-54610000D03*
G04 #@! TO.P,U3,6*
G04 #@! TO.N,/c2_a*
X132080000Y-54610000D03*
G04 #@! TD*
D11*
G04 #@! TO.P,U5,1*
G04 #@! TO.N,Net-(U5-Pad1)*
X163830000Y-86360000D03*
D10*
G04 #@! TO.P,U5,2*
G04 #@! TO.N,GND*
X166370000Y-86360000D03*
G04 #@! TO.P,U5,3*
G04 #@! TO.N,+BATT*
X168910000Y-86360000D03*
G04 #@! TO.P,U5,4*
G04 #@! TO.N,Net-(U5-Pad4)*
X171450000Y-86360000D03*
G04 #@! TO.P,U5,5*
G04 #@! TO.N,GND*
X173990000Y-86360000D03*
G04 #@! TO.P,U5,6*
G04 #@! TO.N,Net-(U5-Pad6)*
X176530000Y-86360000D03*
G04 #@! TO.P,U5,7*
G04 #@! TO.N,GND*
X179070000Y-86360000D03*
G04 #@! TO.P,U5,8*
G04 #@! TO.N,VCC*
X181610000Y-86360000D03*
G04 #@! TD*
D11*
G04 #@! TO.P,U7,1*
G04 #@! TO.N,VCC*
X143510000Y-129540000D03*
D10*
G04 #@! TO.P,U7,2*
G04 #@! TO.N,GND*
X146050000Y-129540000D03*
G04 #@! TO.P,U7,3*
G04 #@! TO.N,/sda*
X148590000Y-129540000D03*
G04 #@! TO.P,U7,4*
G04 #@! TO.N,/scl*
X151130000Y-129540000D03*
G04 #@! TO.P,U7,5*
G04 #@! TO.N,Net-(U7-Pad5)*
X153670000Y-129540000D03*
G04 #@! TO.P,U7,6*
G04 #@! TO.N,/XSHUT_a*
X156210000Y-129540000D03*
G04 #@! TD*
D14*
G04 #@! TO.P,R5,1*
G04 #@! TO.N,/scl*
X165100000Y-130810000D03*
D15*
G04 #@! TO.P,R5,2*
G04 #@! TO.N,VCC*
X165100000Y-140970000D03*
G04 #@! TD*
G04 #@! TO.P,R6,2*
G04 #@! TO.N,VCC*
X134620000Y-140970000D03*
D14*
G04 #@! TO.P,R6,1*
G04 #@! TO.N,/sda*
X134620000Y-130810000D03*
G04 #@! TD*
D15*
G04 #@! TO.P,A1,16*
G04 #@! TO.N,/XSHUT_b*
X109220000Y-101600000D03*
G04 #@! TO.P,A1,15*
G04 #@! TO.N,/XSHUT_a*
X109220000Y-86360000D03*
G04 #@! TO.P,A1,30*
G04 #@! TO.N,Net-(A1-Pad30)*
X144780000Y-101600000D03*
G04 #@! TO.P,A1,14*
G04 #@! TO.N,/in4*
X111760000Y-86360000D03*
G04 #@! TO.P,A1,29*
G04 #@! TO.N,GND*
X142240000Y-101600000D03*
G04 #@! TO.P,A1,13*
G04 #@! TO.N,/in3*
X114300000Y-86360000D03*
G04 #@! TO.P,A1,28*
G04 #@! TO.N,Net-(A1-Pad28)*
X139700000Y-101600000D03*
G04 #@! TO.P,A1,12*
G04 #@! TO.N,/in2*
X116840000Y-86360000D03*
G04 #@! TO.P,A1,27*
G04 #@! TO.N,VCC*
X137160000Y-101600000D03*
G04 #@! TO.P,A1,11*
G04 #@! TO.N,/c2_b*
X119380000Y-86360000D03*
G04 #@! TO.P,A1,26*
G04 #@! TO.N,/out_b*
X134620000Y-101600000D03*
G04 #@! TO.P,A1,10*
G04 #@! TO.N,/c2_a*
X121920000Y-86360000D03*
G04 #@! TO.P,A1,25*
G04 #@! TO.N,/out_a*
X132080000Y-101600000D03*
G04 #@! TO.P,A1,9*
G04 #@! TO.N,/in1*
X124460000Y-86360000D03*
G04 #@! TO.P,A1,24*
G04 #@! TO.N,/scl*
X129540000Y-101600000D03*
G04 #@! TO.P,A1,8*
G04 #@! TO.N,Net-(A1-Pad8)*
X127000000Y-86360000D03*
G04 #@! TO.P,A1,23*
G04 #@! TO.N,/sda*
X127000000Y-101600000D03*
G04 #@! TO.P,A1,7*
G04 #@! TO.N,Net-(A1-Pad7)*
X129540000Y-86360000D03*
G04 #@! TO.P,A1,22*
G04 #@! TO.N,Net-(A1-Pad22)*
X124460000Y-101600000D03*
G04 #@! TO.P,A1,6*
G04 #@! TO.N,/c1_b*
X132080000Y-86360000D03*
G04 #@! TO.P,A1,21*
G04 #@! TO.N,Net-(A1-Pad21)*
X121920000Y-101600000D03*
G04 #@! TO.P,A1,5*
G04 #@! TO.N,/c1_a*
X134620000Y-86360000D03*
G04 #@! TO.P,A1,20*
G04 #@! TO.N,Net-(A1-Pad20)*
X119380000Y-101600000D03*
G04 #@! TO.P,A1,4*
G04 #@! TO.N,GND*
X137160000Y-86360000D03*
G04 #@! TO.P,A1,19*
G04 #@! TO.N,Net-(A1-Pad19)*
X116840000Y-101600000D03*
G04 #@! TO.P,A1,3*
G04 #@! TO.N,Net-(A1-Pad3)*
X139700000Y-86360000D03*
G04 #@! TO.P,A1,18*
G04 #@! TO.N,Net-(A1-Pad18)*
X114300000Y-101600000D03*
G04 #@! TO.P,A1,2*
G04 #@! TO.N,Net-(A1-Pad2)*
X142240000Y-86360000D03*
G04 #@! TO.P,A1,17*
G04 #@! TO.N,Net-(A1-Pad17)*
X111760000Y-101600000D03*
D17*
G04 #@! TO.P,A1,1*
G04 #@! TO.N,Net-(A1-Pad1)*
X144780000Y-86360000D03*
G04 #@! TD*
D18*
G04 #@! TO.P,C1,1*
G04 #@! TO.N,+6V*
X127000000Y-107315000D03*
D16*
G04 #@! TO.P,C1,2*
G04 #@! TO.N,GND*
X127000000Y-112315000D03*
G04 #@! TD*
D15*
G04 #@! TO.P,R7,2*
G04 #@! TO.N,VCC*
X133350000Y-90805000D03*
D14*
G04 #@! TO.P,R7,1*
G04 #@! TO.N,/in1*
X123190000Y-90805000D03*
G04 #@! TD*
G04 #@! TO.P,R8,1*
G04 #@! TO.N,/in2*
X120650000Y-93980000D03*
D15*
G04 #@! TO.P,R8,2*
G04 #@! TO.N,VCC*
X130810000Y-93980000D03*
G04 #@! TD*
G04 #@! TO.P,R9,2*
G04 #@! TO.N,VCC*
X128270000Y-97155000D03*
D14*
G04 #@! TO.P,R9,1*
G04 #@! TO.N,/in3*
X118110000Y-97155000D03*
G04 #@! TD*
D15*
G04 #@! TO.P,R10,2*
G04 #@! TO.N,VCC*
X105410000Y-90805000D03*
D14*
G04 #@! TO.P,R10,1*
G04 #@! TO.N,/in4*
X115570000Y-90805000D03*
G04 #@! TD*
D11*
G04 #@! TO.P,U11,1*
G04 #@! TO.N,VCC*
X118110000Y-80645000D03*
D10*
G04 #@! TO.P,U11,2*
G04 #@! TO.N,GND*
X120650000Y-80645000D03*
G04 #@! TO.P,U11,3*
G04 #@! TO.N,Net-(A1-Pad7)*
X123190000Y-80645000D03*
G04 #@! TD*
D19*
G04 #@! TO.N,/XSHUT_b*
X110490000Y-97790000D03*
G04 #@! TO.N,/c2_b*
X157480000Y-81280000D03*
X152400000Y-85090006D03*
G04 #@! TO.N,/c2_a*
X142240000Y-57150000D03*
G04 #@! TO.N,/c1_b*
X157480000Y-80010000D03*
X152400000Y-80010000D03*
G04 #@! TO.N,/c1_a*
X140970000Y-57150000D03*
G04 #@! TO.N,GND*
X109220000Y-121920000D03*
X125730000Y-93980000D03*
X121920000Y-97790000D03*
X119380000Y-91440000D03*
X116840000Y-93980000D03*
X114300000Y-97790000D03*
X144780000Y-73660000D03*
X120650000Y-63500000D03*
X134620000Y-63500000D03*
X120650000Y-76200000D03*
X134620000Y-76200000D03*
X166370000Y-63500000D03*
X166370000Y-76200000D03*
X180340000Y-76200000D03*
X180340000Y-63500000D03*
X148590000Y-93980000D03*
X148590000Y-111760000D03*
X194310000Y-93980000D03*
X194310000Y-105410000D03*
X166370000Y-105410000D03*
X105410000Y-144780000D03*
X166370000Y-144780000D03*
X180340000Y-144780000D03*
X180340000Y-132080000D03*
X194310000Y-144780000D03*
X180340000Y-118110000D03*
X148590000Y-63500000D03*
X135890000Y-90805000D03*
X147320000Y-80010000D03*
X125730000Y-121920000D03*
X166370000Y-132080000D03*
X180340000Y-105410000D03*
X180340000Y-93980000D03*
X135890000Y-121920000D03*
X166370000Y-93980000D03*
X194310000Y-132080000D03*
X194310000Y-118110000D03*
X148590000Y-132080000D03*
X105410000Y-132080000D03*
X109220000Y-111760000D03*
X148590000Y-105410000D03*
X148590000Y-54610000D03*
X165383963Y-117893939D03*
X154940000Y-57119979D03*
X148590000Y-144780000D03*
X125730000Y-144780000D03*
X118745000Y-105410000D03*
X109855000Y-93980000D03*
X133350000Y-99695000D03*
X135255000Y-94615000D03*
X114300000Y-92075000D03*
G04 #@! TD*
D20*
G04 #@! TO.N,/XSHUT_b*
X110889999Y-97390001D02*
X110490000Y-97790000D01*
X118929989Y-89350011D02*
X110889999Y-97390001D01*
X144780000Y-67310000D02*
X154008762Y-67310000D01*
X143510000Y-68580000D02*
X144780000Y-67310000D01*
X154008762Y-67310000D02*
X154940000Y-68241238D01*
X154940000Y-83820000D02*
X149409989Y-89350011D01*
X154940000Y-68241238D02*
X154940000Y-83820000D01*
X149409989Y-89350011D02*
X118929989Y-89350011D01*
D21*
G04 #@! TO.N,VCC*
X181610000Y-119380000D02*
X187960000Y-125730000D01*
X181610000Y-86360000D02*
X181610000Y-119380000D01*
X111760000Y-119380000D02*
X115570000Y-115570000D01*
X111760000Y-125730000D02*
X111760000Y-119380000D01*
X115570000Y-115570000D02*
X115570000Y-109070000D01*
X156210000Y-68580000D02*
X156210000Y-57150000D01*
X156210000Y-57150000D02*
X156210000Y-55880000D01*
X156210000Y-83820000D02*
X156210000Y-82550000D01*
X156210000Y-82550000D02*
X156210000Y-68580000D01*
D20*
X166370000Y-54610000D02*
X167640000Y-54610000D01*
D21*
X165100000Y-140970000D02*
X165100000Y-138430000D01*
X149860000Y-90170000D02*
X156210000Y-83820000D01*
X142240000Y-90170000D02*
X149860000Y-90170000D01*
X137160000Y-101600000D02*
X137160000Y-95250000D01*
X137160000Y-95250000D02*
X142240000Y-90170000D01*
X179070000Y-88900000D02*
X181610000Y-86360000D01*
X156210000Y-83820000D02*
X161290000Y-88900000D01*
X161290000Y-88900000D02*
X179070000Y-88900000D01*
X120650000Y-55880000D02*
X119380000Y-54610000D01*
X160020000Y-55880000D02*
X120650000Y-55880000D01*
X166370000Y-54610000D02*
X161290000Y-54610000D01*
X161290000Y-54610000D02*
X160020000Y-55880000D01*
X187960000Y-129540000D02*
X179070000Y-138430000D01*
X187960000Y-125730000D02*
X187960000Y-129540000D01*
X179070000Y-138430000D02*
X165100000Y-138430000D01*
X165100000Y-138430000D02*
X134620000Y-138430000D01*
X134620000Y-140970000D02*
X134620000Y-138430000D01*
X121920000Y-138430000D02*
X111760000Y-128270000D01*
X134620000Y-138430000D02*
X121920000Y-138430000D01*
X111760000Y-128270000D02*
X111760000Y-125730000D01*
X143510000Y-129540000D02*
X143510000Y-138430000D01*
X133350000Y-90805000D02*
X132080000Y-90805000D01*
X132080000Y-92710000D02*
X130810000Y-93980000D01*
X128270000Y-96520000D02*
X128270000Y-97155000D01*
X130810000Y-93980000D02*
X128270000Y-96520000D01*
X129401370Y-97155000D02*
X128270000Y-97155000D01*
X133846370Y-97155000D02*
X129401370Y-97155000D01*
X137160000Y-100468630D02*
X133846370Y-97155000D01*
D20*
X137160000Y-101600000D02*
X137160000Y-100468630D01*
D21*
X132080000Y-90805000D02*
X132080000Y-92710000D01*
X106209999Y-90005001D02*
X105410000Y-90805000D01*
X107950000Y-88265000D02*
X106209999Y-90005001D01*
X116840000Y-88265000D02*
X107950000Y-88265000D01*
X118110000Y-86995000D02*
X116840000Y-88265000D01*
X118110000Y-80645000D02*
X118110000Y-86995000D01*
D20*
G04 #@! TO.N,/c2_b*
X152000001Y-85490005D02*
X152400000Y-85090006D01*
X148590006Y-88900000D02*
X152000001Y-85490005D01*
X121920000Y-88900000D02*
X148590006Y-88900000D01*
X119380000Y-86360000D02*
X121920000Y-88900000D01*
X178619991Y-56330009D02*
X180340000Y-54610000D01*
X162109991Y-56330009D02*
X178619991Y-56330009D01*
X158750000Y-59690000D02*
X162109991Y-56330009D01*
X157480000Y-81280000D02*
X158750000Y-80010000D01*
X158750000Y-80010000D02*
X158750000Y-59690000D01*
G04 #@! TO.N,/out_b*
X182880000Y-128270000D02*
X185420000Y-125730000D01*
X151130000Y-128270000D02*
X182880000Y-128270000D01*
X149494002Y-126634002D02*
X151130000Y-128270000D01*
X149494002Y-119014002D02*
X149494002Y-126634002D01*
X134620000Y-101600000D02*
X134620000Y-104140000D01*
X134620000Y-104140000D02*
X149494002Y-119014002D01*
G04 #@! TO.N,/c2_a*
X142240000Y-80010000D02*
X142240000Y-57715685D01*
X124460000Y-83820000D02*
X138430000Y-83820000D01*
X121920000Y-86360000D02*
X124460000Y-83820000D01*
X138430000Y-83820000D02*
X142240000Y-80010000D01*
X142240000Y-57715685D02*
X142240000Y-57150000D01*
G04 #@! TO.N,/out_a*
X109220000Y-125730000D02*
X104140000Y-120650000D01*
X104140000Y-120650000D02*
X104140000Y-101600000D01*
X104140000Y-101600000D02*
X106680000Y-99060000D01*
X106680000Y-99060000D02*
X129540000Y-99060000D01*
X129540000Y-99060000D02*
X132080000Y-101600000D01*
G04 #@! TO.N,/scl*
X152400000Y-130810000D02*
X151130000Y-129540000D01*
X165100000Y-130810000D02*
X152400000Y-130810000D01*
X149040010Y-127450010D02*
X150368001Y-128778001D01*
X129540000Y-102870000D02*
X130810000Y-104140000D01*
X130810000Y-104140000D02*
X133983590Y-104140000D01*
X133983590Y-104140000D02*
X135439989Y-105596400D01*
X150368001Y-128778001D02*
X151130000Y-129540000D01*
X135439989Y-105596400D02*
X149040010Y-119196421D01*
X129540000Y-101600000D02*
X129540000Y-102870000D01*
X149040010Y-119196421D02*
X149040010Y-127450010D01*
G04 #@! TO.N,/sda*
X148590000Y-119382821D02*
X133797190Y-104590011D01*
X148590000Y-129540000D02*
X148590000Y-119382821D01*
X147828001Y-128778001D02*
X148590000Y-129540000D01*
X147320000Y-128270000D02*
X147828001Y-128778001D01*
X134620000Y-130810000D02*
X137160000Y-128270000D01*
X137160000Y-128270000D02*
X147320000Y-128270000D01*
X133797190Y-104590011D02*
X129990011Y-104590011D01*
X129990011Y-104590011D02*
X127799999Y-102399999D01*
X127799999Y-102399999D02*
X127000000Y-101600000D01*
G04 #@! TO.N,Net-(A1-Pad22)*
X130810000Y-116840000D02*
X129540000Y-115570000D01*
X129540000Y-115570000D02*
X122556410Y-115570000D01*
X122556410Y-115570000D02*
X121550020Y-114563610D01*
X121550020Y-114563610D02*
X121550020Y-102870000D01*
X123190000Y-102870000D02*
X124460000Y-101600000D01*
X121550020Y-102870000D02*
X123190000Y-102870000D01*
G04 #@! TO.N,/c1_b*
X176530002Y-55879998D02*
X177800000Y-54610000D01*
X161923591Y-55879998D02*
X176530002Y-55879998D01*
X157480000Y-80010000D02*
X157480000Y-60323589D01*
X157480000Y-60323589D02*
X161923591Y-55879998D01*
X148139989Y-84270011D02*
X152000001Y-80409999D01*
X134169989Y-84270011D02*
X148139989Y-84270011D01*
X132080000Y-86360000D02*
X134169989Y-84270011D01*
X152000001Y-80409999D02*
X152400000Y-80010000D01*
G04 #@! TO.N,Net-(A1-Pad21)*
X121100010Y-114750010D02*
X121100010Y-102419990D01*
X125730000Y-116840000D02*
X123190000Y-116840000D01*
X123190000Y-116840000D02*
X121100010Y-114750010D01*
X121920000Y-101600000D02*
X121100010Y-102419990D01*
G04 #@! TO.N,/c1_a*
X122370010Y-83369990D02*
X138243600Y-83369990D01*
X120794999Y-86900001D02*
X120794999Y-84945001D01*
X134620000Y-86360000D02*
X133350000Y-87630000D01*
X121524998Y-87630000D02*
X120794999Y-86900001D01*
X133350000Y-87630000D02*
X121524998Y-87630000D01*
X138243600Y-83369990D02*
X140970000Y-80643590D01*
X120794999Y-84945001D02*
X122370010Y-83369990D01*
X140970000Y-80643590D02*
X140970000Y-57715685D01*
X140970000Y-57715685D02*
X140970000Y-57150000D01*
G04 #@! TO.N,Net-(A1-Pad20)*
X120650000Y-102870000D02*
X119380000Y-101600000D01*
X120650000Y-116840000D02*
X120650000Y-102870000D01*
G04 #@! TO.N,Net-(A1-Pad19)*
X111070000Y-115570000D02*
X111070000Y-109070000D01*
X111070000Y-109070000D02*
X116840000Y-103300000D01*
X116840000Y-103300000D02*
X116840000Y-101600000D01*
X107292000Y-109070000D02*
X111070000Y-109070000D01*
X106680000Y-106680000D02*
X106680000Y-108458000D01*
X106680000Y-108458000D02*
X107292000Y-109070000D01*
G04 #@! TO.N,Net-(D1-Pad4)*
X128270000Y-133350000D02*
X128270000Y-129540000D01*
X128270000Y-129540000D02*
X130810000Y-127000000D01*
G04 #@! TO.N,Net-(D1-Pad3)*
X127000000Y-133350000D02*
X127000000Y-128270000D01*
X127000000Y-128270000D02*
X125730000Y-127000000D01*
G04 #@! TO.N,Net-(D1-Pad2)*
X123190000Y-127000000D02*
X125730000Y-129540000D01*
X120650000Y-127000000D02*
X123190000Y-127000000D01*
X125730000Y-129540000D02*
X125730000Y-133350000D01*
G04 #@! TD*
D22*
G04 #@! TO.N,GND*
G36*
X184710001Y-85020069D02*
X184696091Y-85090000D01*
X184751195Y-85367028D01*
X184908119Y-85601881D01*
X185142972Y-85758805D01*
X185350074Y-85800000D01*
X185350075Y-85800000D01*
X185420000Y-85813909D01*
X185489926Y-85800000D01*
X196140000Y-85800000D01*
X196140001Y-110420069D01*
X196126091Y-110490000D01*
X196181195Y-110767028D01*
X196338119Y-111001881D01*
X196572972Y-111158805D01*
X196780074Y-111200000D01*
X196780075Y-111200000D01*
X196850000Y-111213909D01*
X196919926Y-111200000D01*
X198680000Y-111200000D01*
X198680001Y-128830000D01*
X196919925Y-128830000D01*
X196850000Y-128816091D01*
X196780074Y-128830000D01*
X196572972Y-128871195D01*
X196338119Y-129028119D01*
X196181195Y-129262972D01*
X196126091Y-129540000D01*
X196140000Y-129609925D01*
X196140001Y-149150000D01*
X192480000Y-149150000D01*
X192480000Y-137229926D01*
X192493909Y-137160000D01*
X192438805Y-136882972D01*
X192281881Y-136648119D01*
X192047028Y-136491195D01*
X191839926Y-136450000D01*
X191770000Y-136436091D01*
X191700075Y-136450000D01*
X184219925Y-136450000D01*
X184150000Y-136436091D01*
X184080074Y-136450000D01*
X183872972Y-136491195D01*
X183638119Y-136648119D01*
X183481195Y-136882972D01*
X183426091Y-137160000D01*
X183440000Y-137229926D01*
X183440001Y-149150000D01*
X116280000Y-149150000D01*
X116280000Y-137229926D01*
X116293909Y-137160000D01*
X116238805Y-136882972D01*
X116081881Y-136648119D01*
X115847028Y-136491195D01*
X115639926Y-136450000D01*
X115639925Y-136450000D01*
X115570000Y-136436091D01*
X115500074Y-136450000D01*
X108019926Y-136450000D01*
X107950000Y-136436091D01*
X107880075Y-136450000D01*
X107880074Y-136450000D01*
X107672972Y-136491195D01*
X107438119Y-136648119D01*
X107281195Y-136882972D01*
X107226091Y-137160000D01*
X107240001Y-137229931D01*
X107240000Y-149150000D01*
X103580000Y-149150000D01*
X103580000Y-129609925D01*
X103593909Y-129540000D01*
X103538805Y-129262972D01*
X103381881Y-129028119D01*
X103147028Y-128871195D01*
X102939926Y-128830000D01*
X102939925Y-128830000D01*
X102870000Y-128816091D01*
X102800074Y-128830000D01*
X101040000Y-128830000D01*
X101040000Y-111200000D01*
X102800075Y-111200000D01*
X102870000Y-111213909D01*
X103077661Y-111172603D01*
X103147028Y-111158805D01*
X103380001Y-111003138D01*
X103380000Y-120575153D01*
X103365112Y-120650000D01*
X103380000Y-120724847D01*
X103380000Y-120724851D01*
X103424096Y-120946536D01*
X103592071Y-121197929D01*
X103655530Y-121240331D01*
X107835980Y-125420782D01*
X107823000Y-125452119D01*
X107823000Y-126007881D01*
X108035680Y-126521337D01*
X108428663Y-126914320D01*
X108942119Y-127127000D01*
X109497881Y-127127000D01*
X110011337Y-126914320D01*
X110404320Y-126521337D01*
X110490000Y-126314487D01*
X110575680Y-126521337D01*
X110875001Y-126820658D01*
X110875000Y-128182839D01*
X110857663Y-128270000D01*
X110875000Y-128357161D01*
X110875000Y-128357164D01*
X110926348Y-128615309D01*
X111121951Y-128908049D01*
X111195847Y-128957425D01*
X121232577Y-138994156D01*
X121281951Y-139068049D01*
X121355844Y-139117423D01*
X121355845Y-139117424D01*
X121574690Y-139263652D01*
X121832835Y-139315000D01*
X121832839Y-139315000D01*
X121920000Y-139332337D01*
X122007161Y-139315000D01*
X133735001Y-139315000D01*
X133735000Y-139835479D01*
X133585423Y-139935423D01*
X133268260Y-140410091D01*
X133156887Y-140970000D01*
X133268260Y-141529909D01*
X133585423Y-142004577D01*
X134060091Y-142321740D01*
X134478667Y-142405000D01*
X134761333Y-142405000D01*
X135179909Y-142321740D01*
X135654577Y-142004577D01*
X135971740Y-141529909D01*
X136083113Y-140970000D01*
X135971740Y-140410091D01*
X135654577Y-139935423D01*
X135505000Y-139835479D01*
X135505000Y-139315000D01*
X143422836Y-139315000D01*
X143510000Y-139332338D01*
X143597165Y-139315000D01*
X164215001Y-139315000D01*
X164215000Y-139835479D01*
X164065423Y-139935423D01*
X163748260Y-140410091D01*
X163636887Y-140970000D01*
X163748260Y-141529909D01*
X164065423Y-142004577D01*
X164540091Y-142321740D01*
X164958667Y-142405000D01*
X165241333Y-142405000D01*
X165659909Y-142321740D01*
X166134577Y-142004577D01*
X166451740Y-141529909D01*
X166563113Y-140970000D01*
X166451740Y-140410091D01*
X166134577Y-139935423D01*
X165985000Y-139835479D01*
X165985000Y-139315000D01*
X178982839Y-139315000D01*
X179070000Y-139332337D01*
X179157161Y-139315000D01*
X179157165Y-139315000D01*
X179415310Y-139263652D01*
X179708049Y-139068049D01*
X179757425Y-138994153D01*
X188524156Y-130227423D01*
X188598049Y-130178049D01*
X188658267Y-130087928D01*
X188793652Y-129885310D01*
X188845000Y-129627165D01*
X188845000Y-129627161D01*
X188862337Y-129540000D01*
X188845000Y-129452839D01*
X188845000Y-126820657D01*
X189103000Y-126562657D01*
X189103000Y-126618310D01*
X189199673Y-126851699D01*
X189378302Y-127030327D01*
X189611691Y-127127000D01*
X190214250Y-127127000D01*
X190373000Y-126968250D01*
X190373000Y-125857000D01*
X190627000Y-125857000D01*
X190627000Y-126968250D01*
X190785750Y-127127000D01*
X191388309Y-127127000D01*
X191621698Y-127030327D01*
X191800327Y-126851699D01*
X191897000Y-126618310D01*
X191897000Y-126015750D01*
X191738250Y-125857000D01*
X190627000Y-125857000D01*
X190373000Y-125857000D01*
X190353000Y-125857000D01*
X190353000Y-125603000D01*
X190373000Y-125603000D01*
X190373000Y-124491750D01*
X190627000Y-124491750D01*
X190627000Y-125603000D01*
X191738250Y-125603000D01*
X191897000Y-125444250D01*
X191897000Y-124841690D01*
X191800327Y-124608301D01*
X191621698Y-124429673D01*
X191388309Y-124333000D01*
X190785750Y-124333000D01*
X190627000Y-124491750D01*
X190373000Y-124491750D01*
X190214250Y-124333000D01*
X189611691Y-124333000D01*
X189378302Y-124429673D01*
X189199673Y-124608301D01*
X189103000Y-124841690D01*
X189103000Y-124897343D01*
X188751337Y-124545680D01*
X188237881Y-124333000D01*
X187814579Y-124333000D01*
X183841792Y-120360213D01*
X192239392Y-120360213D01*
X192308857Y-120602397D01*
X192832302Y-120789144D01*
X193387368Y-120761362D01*
X193771143Y-120602397D01*
X193840608Y-120360213D01*
X193040000Y-119559605D01*
X192239392Y-120360213D01*
X183841792Y-120360213D01*
X182653881Y-119172302D01*
X191630856Y-119172302D01*
X191658638Y-119727368D01*
X191817603Y-120111143D01*
X192059787Y-120180608D01*
X192860395Y-119380000D01*
X193219605Y-119380000D01*
X194020213Y-120180608D01*
X194262397Y-120111143D01*
X194449144Y-119587698D01*
X194421362Y-119032632D01*
X194262397Y-118648857D01*
X194020213Y-118579392D01*
X193219605Y-119380000D01*
X192860395Y-119380000D01*
X192059787Y-118579392D01*
X191817603Y-118648857D01*
X191630856Y-119172302D01*
X182653881Y-119172302D01*
X182495000Y-119013422D01*
X182495000Y-118399787D01*
X192239392Y-118399787D01*
X193040000Y-119200395D01*
X193840608Y-118399787D01*
X193771143Y-118157603D01*
X193247698Y-117970856D01*
X192692632Y-117998638D01*
X192308857Y-118157603D01*
X192239392Y-118399787D01*
X182495000Y-118399787D01*
X182495000Y-111482119D01*
X191643000Y-111482119D01*
X191643000Y-112037881D01*
X191855680Y-112551337D01*
X192248663Y-112944320D01*
X192762119Y-113157000D01*
X193317881Y-113157000D01*
X193831337Y-112944320D01*
X194224320Y-112551337D01*
X194437000Y-112037881D01*
X194437000Y-111482119D01*
X194224320Y-110968663D01*
X193831337Y-110575680D01*
X193317881Y-110363000D01*
X192762119Y-110363000D01*
X192248663Y-110575680D01*
X191855680Y-110968663D01*
X191643000Y-111482119D01*
X182495000Y-111482119D01*
X182495000Y-87450657D01*
X182794320Y-87151337D01*
X183007000Y-86637881D01*
X183007000Y-86082119D01*
X182794320Y-85568663D01*
X182401337Y-85175680D01*
X181887881Y-84963000D01*
X181332119Y-84963000D01*
X180818663Y-85175680D01*
X180425680Y-85568663D01*
X180346572Y-85759647D01*
X180292397Y-85628857D01*
X180050213Y-85559392D01*
X179249605Y-86360000D01*
X179263748Y-86374143D01*
X179084143Y-86553748D01*
X179070000Y-86539605D01*
X178269392Y-87340213D01*
X178338857Y-87582397D01*
X178862302Y-87769144D01*
X178953860Y-87764561D01*
X178703422Y-88015000D01*
X161656579Y-88015000D01*
X159239579Y-85598000D01*
X162420560Y-85598000D01*
X162420560Y-87122000D01*
X162469843Y-87369765D01*
X162610191Y-87579809D01*
X162820235Y-87720157D01*
X163068000Y-87769440D01*
X164592000Y-87769440D01*
X164839765Y-87720157D01*
X165049809Y-87579809D01*
X165190157Y-87369765D01*
X165196035Y-87340213D01*
X165569392Y-87340213D01*
X165638857Y-87582397D01*
X166162302Y-87769144D01*
X166717368Y-87741362D01*
X167101143Y-87582397D01*
X167170608Y-87340213D01*
X166370000Y-86539605D01*
X165569392Y-87340213D01*
X165196035Y-87340213D01*
X165239440Y-87122000D01*
X165239440Y-87117484D01*
X165389787Y-87160608D01*
X166190395Y-86360000D01*
X166549605Y-86360000D01*
X167350213Y-87160608D01*
X167592397Y-87091143D01*
X167642535Y-86950607D01*
X167725680Y-87151337D01*
X168118663Y-87544320D01*
X168632119Y-87757000D01*
X169187881Y-87757000D01*
X169701337Y-87544320D01*
X170094320Y-87151337D01*
X170180000Y-86944487D01*
X170265680Y-87151337D01*
X170658663Y-87544320D01*
X171172119Y-87757000D01*
X171727881Y-87757000D01*
X172241337Y-87544320D01*
X172445444Y-87340213D01*
X173189392Y-87340213D01*
X173258857Y-87582397D01*
X173782302Y-87769144D01*
X174337368Y-87741362D01*
X174721143Y-87582397D01*
X174790608Y-87340213D01*
X173990000Y-86539605D01*
X173189392Y-87340213D01*
X172445444Y-87340213D01*
X172634320Y-87151337D01*
X172713428Y-86960353D01*
X172767603Y-87091143D01*
X173009787Y-87160608D01*
X173810395Y-86360000D01*
X174169605Y-86360000D01*
X174970213Y-87160608D01*
X175212397Y-87091143D01*
X175262535Y-86950607D01*
X175345680Y-87151337D01*
X175738663Y-87544320D01*
X176252119Y-87757000D01*
X176807881Y-87757000D01*
X177321337Y-87544320D01*
X177714320Y-87151337D01*
X177793428Y-86960353D01*
X177847603Y-87091143D01*
X178089787Y-87160608D01*
X178890395Y-86360000D01*
X178089787Y-85559392D01*
X177847603Y-85628857D01*
X177797465Y-85769393D01*
X177714320Y-85568663D01*
X177525444Y-85379787D01*
X178269392Y-85379787D01*
X179070000Y-86180395D01*
X179870608Y-85379787D01*
X179801143Y-85137603D01*
X179277698Y-84950856D01*
X178722632Y-84978638D01*
X178338857Y-85137603D01*
X178269392Y-85379787D01*
X177525444Y-85379787D01*
X177321337Y-85175680D01*
X176807881Y-84963000D01*
X176252119Y-84963000D01*
X175738663Y-85175680D01*
X175345680Y-85568663D01*
X175266572Y-85759647D01*
X175212397Y-85628857D01*
X174970213Y-85559392D01*
X174169605Y-86360000D01*
X173810395Y-86360000D01*
X173009787Y-85559392D01*
X172767603Y-85628857D01*
X172717465Y-85769393D01*
X172634320Y-85568663D01*
X172445444Y-85379787D01*
X173189392Y-85379787D01*
X173990000Y-86180395D01*
X174790608Y-85379787D01*
X174721143Y-85137603D01*
X174197698Y-84950856D01*
X173642632Y-84978638D01*
X173258857Y-85137603D01*
X173189392Y-85379787D01*
X172445444Y-85379787D01*
X172241337Y-85175680D01*
X171727881Y-84963000D01*
X171172119Y-84963000D01*
X170658663Y-85175680D01*
X170265680Y-85568663D01*
X170180000Y-85775513D01*
X170094320Y-85568663D01*
X169701337Y-85175680D01*
X169187881Y-84963000D01*
X168632119Y-84963000D01*
X168118663Y-85175680D01*
X167725680Y-85568663D01*
X167646572Y-85759647D01*
X167592397Y-85628857D01*
X167350213Y-85559392D01*
X166549605Y-86360000D01*
X166190395Y-86360000D01*
X165389787Y-85559392D01*
X165239440Y-85602516D01*
X165239440Y-85598000D01*
X165196036Y-85379787D01*
X165569392Y-85379787D01*
X166370000Y-86180395D01*
X167170608Y-85379787D01*
X167101143Y-85137603D01*
X166577698Y-84950856D01*
X166022632Y-84978638D01*
X165638857Y-85137603D01*
X165569392Y-85379787D01*
X165196036Y-85379787D01*
X165190157Y-85350235D01*
X165049809Y-85140191D01*
X164839765Y-84999843D01*
X164592000Y-84950560D01*
X163068000Y-84950560D01*
X162820235Y-84999843D01*
X162610191Y-85140191D01*
X162469843Y-85350235D01*
X162420560Y-85598000D01*
X159239579Y-85598000D01*
X157095000Y-83453422D01*
X157095000Y-82240804D01*
X157274126Y-82315000D01*
X157685874Y-82315000D01*
X158066280Y-82157431D01*
X158357431Y-81866280D01*
X158515000Y-81485874D01*
X158515000Y-81319801D01*
X159234473Y-80600329D01*
X159297929Y-80557929D01*
X159465904Y-80306537D01*
X159510000Y-80084852D01*
X159510000Y-80084848D01*
X159524888Y-80010001D01*
X159510000Y-79935154D01*
X159510000Y-78740000D01*
X166910000Y-78740000D01*
X167030615Y-79424040D01*
X167377911Y-80025575D01*
X167910000Y-80472051D01*
X168562704Y-80709616D01*
X169257296Y-80709616D01*
X169783756Y-80518000D01*
X175120560Y-80518000D01*
X175120560Y-82042000D01*
X175169843Y-82289765D01*
X175310191Y-82499809D01*
X175520235Y-82640157D01*
X175768000Y-82689440D01*
X177292000Y-82689440D01*
X177539765Y-82640157D01*
X177749809Y-82499809D01*
X177890157Y-82289765D01*
X177896035Y-82260213D01*
X178269392Y-82260213D01*
X178338857Y-82502397D01*
X178862302Y-82689144D01*
X179417368Y-82661362D01*
X179801143Y-82502397D01*
X179870608Y-82260213D01*
X179070000Y-81459605D01*
X178269392Y-82260213D01*
X177896035Y-82260213D01*
X177939440Y-82042000D01*
X177939440Y-82037484D01*
X178089787Y-82080608D01*
X178890395Y-81280000D01*
X179249605Y-81280000D01*
X180050213Y-82080608D01*
X180292397Y-82011143D01*
X180479144Y-81487698D01*
X180451362Y-80932632D01*
X180292397Y-80548857D01*
X180050213Y-80479392D01*
X179249605Y-81280000D01*
X178890395Y-81280000D01*
X178089787Y-80479392D01*
X177939440Y-80522516D01*
X177939440Y-80518000D01*
X177896036Y-80299787D01*
X178269392Y-80299787D01*
X179070000Y-81100395D01*
X179870608Y-80299787D01*
X179801143Y-80057603D01*
X179277698Y-79870856D01*
X178722632Y-79898638D01*
X178338857Y-80057603D01*
X178269392Y-80299787D01*
X177896036Y-80299787D01*
X177890157Y-80270235D01*
X177749809Y-80060191D01*
X177539765Y-79919843D01*
X177292000Y-79870560D01*
X175768000Y-79870560D01*
X175520235Y-79919843D01*
X175310191Y-80060191D01*
X175169843Y-80270235D01*
X175120560Y-80518000D01*
X169783756Y-80518000D01*
X169910000Y-80472051D01*
X170442089Y-80025575D01*
X170789385Y-79424040D01*
X170910000Y-78740000D01*
X170789385Y-78055960D01*
X170442089Y-77454425D01*
X169910000Y-77007949D01*
X169257296Y-76770384D01*
X168562704Y-76770384D01*
X167910000Y-77007949D01*
X167377911Y-77454425D01*
X167030615Y-78055960D01*
X166910000Y-78740000D01*
X159510000Y-78740000D01*
X159510000Y-60960000D01*
X166910000Y-60960000D01*
X167030615Y-61644040D01*
X167377911Y-62245575D01*
X167910000Y-62692051D01*
X168562704Y-62929616D01*
X169257296Y-62929616D01*
X169910000Y-62692051D01*
X170442089Y-62245575D01*
X170789385Y-61644040D01*
X170910000Y-60960000D01*
X170789385Y-60275960D01*
X170442089Y-59674425D01*
X169910000Y-59227949D01*
X169257296Y-58990384D01*
X168562704Y-58990384D01*
X167910000Y-59227949D01*
X167377911Y-59674425D01*
X167030615Y-60275960D01*
X166910000Y-60960000D01*
X159510000Y-60960000D01*
X159510000Y-60004801D01*
X162424793Y-57090009D01*
X178545144Y-57090009D01*
X178619991Y-57104897D01*
X178694838Y-57090009D01*
X178694843Y-57090009D01*
X178916528Y-57045913D01*
X179167920Y-56877938D01*
X179210322Y-56814479D01*
X180030782Y-55994020D01*
X180062119Y-56007000D01*
X180617881Y-56007000D01*
X181131337Y-55794320D01*
X181524320Y-55401337D01*
X181737000Y-54887881D01*
X181737000Y-54332119D01*
X181524320Y-53818663D01*
X181131337Y-53425680D01*
X180617881Y-53213000D01*
X180062119Y-53213000D01*
X179548663Y-53425680D01*
X179155680Y-53818663D01*
X179070000Y-54025513D01*
X178984320Y-53818663D01*
X178591337Y-53425680D01*
X178077881Y-53213000D01*
X177522119Y-53213000D01*
X177008663Y-53425680D01*
X176615680Y-53818663D01*
X176530000Y-54025513D01*
X176444320Y-53818663D01*
X176051337Y-53425680D01*
X175537881Y-53213000D01*
X174982119Y-53213000D01*
X174468663Y-53425680D01*
X174075680Y-53818663D01*
X173990000Y-54025513D01*
X173904320Y-53818663D01*
X173511337Y-53425680D01*
X172997881Y-53213000D01*
X172442119Y-53213000D01*
X171928663Y-53425680D01*
X171535680Y-53818663D01*
X171456572Y-54009647D01*
X171402397Y-53878857D01*
X171160213Y-53809392D01*
X170359605Y-54610000D01*
X170373748Y-54624143D01*
X170194143Y-54803748D01*
X170180000Y-54789605D01*
X170165858Y-54803748D01*
X169986253Y-54624143D01*
X170000395Y-54610000D01*
X169199787Y-53809392D01*
X169049440Y-53852516D01*
X169049440Y-53848000D01*
X169006036Y-53629787D01*
X169379392Y-53629787D01*
X170180000Y-54430395D01*
X170980608Y-53629787D01*
X170911143Y-53387603D01*
X170387698Y-53200856D01*
X169832632Y-53228638D01*
X169448857Y-53387603D01*
X169379392Y-53629787D01*
X169006036Y-53629787D01*
X169000157Y-53600235D01*
X168859809Y-53390191D01*
X168649765Y-53249843D01*
X168402000Y-53200560D01*
X166878000Y-53200560D01*
X166630235Y-53249843D01*
X166420191Y-53390191D01*
X166279843Y-53600235D01*
X166255026Y-53725000D01*
X165696660Y-53725000D01*
X165768805Y-53617028D01*
X165823909Y-53340000D01*
X165810000Y-53270074D01*
X165810000Y-51510000D01*
X184710000Y-51510000D01*
X184710001Y-85020069D01*
X184710001Y-85020069D01*
G37*
X184710001Y-85020069D02*
X184696091Y-85090000D01*
X184751195Y-85367028D01*
X184908119Y-85601881D01*
X185142972Y-85758805D01*
X185350074Y-85800000D01*
X185350075Y-85800000D01*
X185420000Y-85813909D01*
X185489926Y-85800000D01*
X196140000Y-85800000D01*
X196140001Y-110420069D01*
X196126091Y-110490000D01*
X196181195Y-110767028D01*
X196338119Y-111001881D01*
X196572972Y-111158805D01*
X196780074Y-111200000D01*
X196780075Y-111200000D01*
X196850000Y-111213909D01*
X196919926Y-111200000D01*
X198680000Y-111200000D01*
X198680001Y-128830000D01*
X196919925Y-128830000D01*
X196850000Y-128816091D01*
X196780074Y-128830000D01*
X196572972Y-128871195D01*
X196338119Y-129028119D01*
X196181195Y-129262972D01*
X196126091Y-129540000D01*
X196140000Y-129609925D01*
X196140001Y-149150000D01*
X192480000Y-149150000D01*
X192480000Y-137229926D01*
X192493909Y-137160000D01*
X192438805Y-136882972D01*
X192281881Y-136648119D01*
X192047028Y-136491195D01*
X191839926Y-136450000D01*
X191770000Y-136436091D01*
X191700075Y-136450000D01*
X184219925Y-136450000D01*
X184150000Y-136436091D01*
X184080074Y-136450000D01*
X183872972Y-136491195D01*
X183638119Y-136648119D01*
X183481195Y-136882972D01*
X183426091Y-137160000D01*
X183440000Y-137229926D01*
X183440001Y-149150000D01*
X116280000Y-149150000D01*
X116280000Y-137229926D01*
X116293909Y-137160000D01*
X116238805Y-136882972D01*
X116081881Y-136648119D01*
X115847028Y-136491195D01*
X115639926Y-136450000D01*
X115639925Y-136450000D01*
X115570000Y-136436091D01*
X115500074Y-136450000D01*
X108019926Y-136450000D01*
X107950000Y-136436091D01*
X107880075Y-136450000D01*
X107880074Y-136450000D01*
X107672972Y-136491195D01*
X107438119Y-136648119D01*
X107281195Y-136882972D01*
X107226091Y-137160000D01*
X107240001Y-137229931D01*
X107240000Y-149150000D01*
X103580000Y-149150000D01*
X103580000Y-129609925D01*
X103593909Y-129540000D01*
X103538805Y-129262972D01*
X103381881Y-129028119D01*
X103147028Y-128871195D01*
X102939926Y-128830000D01*
X102939925Y-128830000D01*
X102870000Y-128816091D01*
X102800074Y-128830000D01*
X101040000Y-128830000D01*
X101040000Y-111200000D01*
X102800075Y-111200000D01*
X102870000Y-111213909D01*
X103077661Y-111172603D01*
X103147028Y-111158805D01*
X103380001Y-111003138D01*
X103380000Y-120575153D01*
X103365112Y-120650000D01*
X103380000Y-120724847D01*
X103380000Y-120724851D01*
X103424096Y-120946536D01*
X103592071Y-121197929D01*
X103655530Y-121240331D01*
X107835980Y-125420782D01*
X107823000Y-125452119D01*
X107823000Y-126007881D01*
X108035680Y-126521337D01*
X108428663Y-126914320D01*
X108942119Y-127127000D01*
X109497881Y-127127000D01*
X110011337Y-126914320D01*
X110404320Y-126521337D01*
X110490000Y-126314487D01*
X110575680Y-126521337D01*
X110875001Y-126820658D01*
X110875000Y-128182839D01*
X110857663Y-128270000D01*
X110875000Y-128357161D01*
X110875000Y-128357164D01*
X110926348Y-128615309D01*
X111121951Y-128908049D01*
X111195847Y-128957425D01*
X121232577Y-138994156D01*
X121281951Y-139068049D01*
X121355844Y-139117423D01*
X121355845Y-139117424D01*
X121574690Y-139263652D01*
X121832835Y-139315000D01*
X121832839Y-139315000D01*
X121920000Y-139332337D01*
X122007161Y-139315000D01*
X133735001Y-139315000D01*
X133735000Y-139835479D01*
X133585423Y-139935423D01*
X133268260Y-140410091D01*
X133156887Y-140970000D01*
X133268260Y-141529909D01*
X133585423Y-142004577D01*
X134060091Y-142321740D01*
X134478667Y-142405000D01*
X134761333Y-142405000D01*
X135179909Y-142321740D01*
X135654577Y-142004577D01*
X135971740Y-141529909D01*
X136083113Y-140970000D01*
X135971740Y-140410091D01*
X135654577Y-139935423D01*
X135505000Y-139835479D01*
X135505000Y-139315000D01*
X143422836Y-139315000D01*
X143510000Y-139332338D01*
X143597165Y-139315000D01*
X164215001Y-139315000D01*
X164215000Y-139835479D01*
X164065423Y-139935423D01*
X163748260Y-140410091D01*
X163636887Y-140970000D01*
X163748260Y-141529909D01*
X164065423Y-142004577D01*
X164540091Y-142321740D01*
X164958667Y-142405000D01*
X165241333Y-142405000D01*
X165659909Y-142321740D01*
X166134577Y-142004577D01*
X166451740Y-141529909D01*
X166563113Y-140970000D01*
X166451740Y-140410091D01*
X166134577Y-139935423D01*
X165985000Y-139835479D01*
X165985000Y-139315000D01*
X178982839Y-139315000D01*
X179070000Y-139332337D01*
X179157161Y-139315000D01*
X179157165Y-139315000D01*
X179415310Y-139263652D01*
X179708049Y-139068049D01*
X179757425Y-138994153D01*
X188524156Y-130227423D01*
X188598049Y-130178049D01*
X188658267Y-130087928D01*
X188793652Y-129885310D01*
X188845000Y-129627165D01*
X188845000Y-129627161D01*
X188862337Y-129540000D01*
X188845000Y-129452839D01*
X188845000Y-126820657D01*
X189103000Y-126562657D01*
X189103000Y-126618310D01*
X189199673Y-126851699D01*
X189378302Y-127030327D01*
X189611691Y-127127000D01*
X190214250Y-127127000D01*
X190373000Y-126968250D01*
X190373000Y-125857000D01*
X190627000Y-125857000D01*
X190627000Y-126968250D01*
X190785750Y-127127000D01*
X191388309Y-127127000D01*
X191621698Y-127030327D01*
X191800327Y-126851699D01*
X191897000Y-126618310D01*
X191897000Y-126015750D01*
X191738250Y-125857000D01*
X190627000Y-125857000D01*
X190373000Y-125857000D01*
X190353000Y-125857000D01*
X190353000Y-125603000D01*
X190373000Y-125603000D01*
X190373000Y-124491750D01*
X190627000Y-124491750D01*
X190627000Y-125603000D01*
X191738250Y-125603000D01*
X191897000Y-125444250D01*
X191897000Y-124841690D01*
X191800327Y-124608301D01*
X191621698Y-124429673D01*
X191388309Y-124333000D01*
X190785750Y-124333000D01*
X190627000Y-124491750D01*
X190373000Y-124491750D01*
X190214250Y-124333000D01*
X189611691Y-124333000D01*
X189378302Y-124429673D01*
X189199673Y-124608301D01*
X189103000Y-124841690D01*
X189103000Y-124897343D01*
X188751337Y-124545680D01*
X188237881Y-124333000D01*
X187814579Y-124333000D01*
X183841792Y-120360213D01*
X192239392Y-120360213D01*
X192308857Y-120602397D01*
X192832302Y-120789144D01*
X193387368Y-120761362D01*
X193771143Y-120602397D01*
X193840608Y-120360213D01*
X193040000Y-119559605D01*
X192239392Y-120360213D01*
X183841792Y-120360213D01*
X182653881Y-119172302D01*
X191630856Y-119172302D01*
X191658638Y-119727368D01*
X191817603Y-120111143D01*
X192059787Y-120180608D01*
X192860395Y-119380000D01*
X193219605Y-119380000D01*
X194020213Y-120180608D01*
X194262397Y-120111143D01*
X194449144Y-119587698D01*
X194421362Y-119032632D01*
X194262397Y-118648857D01*
X194020213Y-118579392D01*
X193219605Y-119380000D01*
X192860395Y-119380000D01*
X192059787Y-118579392D01*
X191817603Y-118648857D01*
X191630856Y-119172302D01*
X182653881Y-119172302D01*
X182495000Y-119013422D01*
X182495000Y-118399787D01*
X192239392Y-118399787D01*
X193040000Y-119200395D01*
X193840608Y-118399787D01*
X193771143Y-118157603D01*
X193247698Y-117970856D01*
X192692632Y-117998638D01*
X192308857Y-118157603D01*
X192239392Y-118399787D01*
X182495000Y-118399787D01*
X182495000Y-111482119D01*
X191643000Y-111482119D01*
X191643000Y-112037881D01*
X191855680Y-112551337D01*
X192248663Y-112944320D01*
X192762119Y-113157000D01*
X193317881Y-113157000D01*
X193831337Y-112944320D01*
X194224320Y-112551337D01*
X194437000Y-112037881D01*
X194437000Y-111482119D01*
X194224320Y-110968663D01*
X193831337Y-110575680D01*
X193317881Y-110363000D01*
X192762119Y-110363000D01*
X192248663Y-110575680D01*
X191855680Y-110968663D01*
X191643000Y-111482119D01*
X182495000Y-111482119D01*
X182495000Y-87450657D01*
X182794320Y-87151337D01*
X183007000Y-86637881D01*
X183007000Y-86082119D01*
X182794320Y-85568663D01*
X182401337Y-85175680D01*
X181887881Y-84963000D01*
X181332119Y-84963000D01*
X180818663Y-85175680D01*
X180425680Y-85568663D01*
X180346572Y-85759647D01*
X180292397Y-85628857D01*
X180050213Y-85559392D01*
X179249605Y-86360000D01*
X179263748Y-86374143D01*
X179084143Y-86553748D01*
X179070000Y-86539605D01*
X178269392Y-87340213D01*
X178338857Y-87582397D01*
X178862302Y-87769144D01*
X178953860Y-87764561D01*
X178703422Y-88015000D01*
X161656579Y-88015000D01*
X159239579Y-85598000D01*
X162420560Y-85598000D01*
X162420560Y-87122000D01*
X162469843Y-87369765D01*
X162610191Y-87579809D01*
X162820235Y-87720157D01*
X163068000Y-87769440D01*
X164592000Y-87769440D01*
X164839765Y-87720157D01*
X165049809Y-87579809D01*
X165190157Y-87369765D01*
X165196035Y-87340213D01*
X165569392Y-87340213D01*
X165638857Y-87582397D01*
X166162302Y-87769144D01*
X166717368Y-87741362D01*
X167101143Y-87582397D01*
X167170608Y-87340213D01*
X166370000Y-86539605D01*
X165569392Y-87340213D01*
X165196035Y-87340213D01*
X165239440Y-87122000D01*
X165239440Y-87117484D01*
X165389787Y-87160608D01*
X166190395Y-86360000D01*
X166549605Y-86360000D01*
X167350213Y-87160608D01*
X167592397Y-87091143D01*
X167642535Y-86950607D01*
X167725680Y-87151337D01*
X168118663Y-87544320D01*
X168632119Y-87757000D01*
X169187881Y-87757000D01*
X169701337Y-87544320D01*
X170094320Y-87151337D01*
X170180000Y-86944487D01*
X170265680Y-87151337D01*
X170658663Y-87544320D01*
X171172119Y-87757000D01*
X171727881Y-87757000D01*
X172241337Y-87544320D01*
X172445444Y-87340213D01*
X173189392Y-87340213D01*
X173258857Y-87582397D01*
X173782302Y-87769144D01*
X174337368Y-87741362D01*
X174721143Y-87582397D01*
X174790608Y-87340213D01*
X173990000Y-86539605D01*
X173189392Y-87340213D01*
X172445444Y-87340213D01*
X172634320Y-87151337D01*
X172713428Y-86960353D01*
X172767603Y-87091143D01*
X173009787Y-87160608D01*
X173810395Y-86360000D01*
X174169605Y-86360000D01*
X174970213Y-87160608D01*
X175212397Y-87091143D01*
X175262535Y-86950607D01*
X175345680Y-87151337D01*
X175738663Y-87544320D01*
X176252119Y-87757000D01*
X176807881Y-87757000D01*
X177321337Y-87544320D01*
X177714320Y-87151337D01*
X177793428Y-86960353D01*
X177847603Y-87091143D01*
X178089787Y-87160608D01*
X178890395Y-86360000D01*
X178089787Y-85559392D01*
X177847603Y-85628857D01*
X177797465Y-85769393D01*
X177714320Y-85568663D01*
X177525444Y-85379787D01*
X178269392Y-85379787D01*
X179070000Y-86180395D01*
X179870608Y-85379787D01*
X179801143Y-85137603D01*
X179277698Y-84950856D01*
X178722632Y-84978638D01*
X178338857Y-85137603D01*
X178269392Y-85379787D01*
X177525444Y-85379787D01*
X177321337Y-85175680D01*
X176807881Y-84963000D01*
X176252119Y-84963000D01*
X175738663Y-85175680D01*
X175345680Y-85568663D01*
X175266572Y-85759647D01*
X175212397Y-85628857D01*
X174970213Y-85559392D01*
X174169605Y-86360000D01*
X173810395Y-86360000D01*
X173009787Y-85559392D01*
X172767603Y-85628857D01*
X172717465Y-85769393D01*
X172634320Y-85568663D01*
X172445444Y-85379787D01*
X173189392Y-85379787D01*
X173990000Y-86180395D01*
X174790608Y-85379787D01*
X174721143Y-85137603D01*
X174197698Y-84950856D01*
X173642632Y-84978638D01*
X173258857Y-85137603D01*
X173189392Y-85379787D01*
X172445444Y-85379787D01*
X172241337Y-85175680D01*
X171727881Y-84963000D01*
X171172119Y-84963000D01*
X170658663Y-85175680D01*
X170265680Y-85568663D01*
X170180000Y-85775513D01*
X170094320Y-85568663D01*
X169701337Y-85175680D01*
X169187881Y-84963000D01*
X168632119Y-84963000D01*
X168118663Y-85175680D01*
X167725680Y-85568663D01*
X167646572Y-85759647D01*
X167592397Y-85628857D01*
X167350213Y-85559392D01*
X166549605Y-86360000D01*
X166190395Y-86360000D01*
X165389787Y-85559392D01*
X165239440Y-85602516D01*
X165239440Y-85598000D01*
X165196036Y-85379787D01*
X165569392Y-85379787D01*
X166370000Y-86180395D01*
X167170608Y-85379787D01*
X167101143Y-85137603D01*
X166577698Y-84950856D01*
X166022632Y-84978638D01*
X165638857Y-85137603D01*
X165569392Y-85379787D01*
X165196036Y-85379787D01*
X165190157Y-85350235D01*
X165049809Y-85140191D01*
X164839765Y-84999843D01*
X164592000Y-84950560D01*
X163068000Y-84950560D01*
X162820235Y-84999843D01*
X162610191Y-85140191D01*
X162469843Y-85350235D01*
X162420560Y-85598000D01*
X159239579Y-85598000D01*
X157095000Y-83453422D01*
X157095000Y-82240804D01*
X157274126Y-82315000D01*
X157685874Y-82315000D01*
X158066280Y-82157431D01*
X158357431Y-81866280D01*
X158515000Y-81485874D01*
X158515000Y-81319801D01*
X159234473Y-80600329D01*
X159297929Y-80557929D01*
X159465904Y-80306537D01*
X159510000Y-80084852D01*
X159510000Y-80084848D01*
X159524888Y-80010001D01*
X159510000Y-79935154D01*
X159510000Y-78740000D01*
X166910000Y-78740000D01*
X167030615Y-79424040D01*
X167377911Y-80025575D01*
X167910000Y-80472051D01*
X168562704Y-80709616D01*
X169257296Y-80709616D01*
X169783756Y-80518000D01*
X175120560Y-80518000D01*
X175120560Y-82042000D01*
X175169843Y-82289765D01*
X175310191Y-82499809D01*
X175520235Y-82640157D01*
X175768000Y-82689440D01*
X177292000Y-82689440D01*
X177539765Y-82640157D01*
X177749809Y-82499809D01*
X177890157Y-82289765D01*
X177896035Y-82260213D01*
X178269392Y-82260213D01*
X178338857Y-82502397D01*
X178862302Y-82689144D01*
X179417368Y-82661362D01*
X179801143Y-82502397D01*
X179870608Y-82260213D01*
X179070000Y-81459605D01*
X178269392Y-82260213D01*
X177896035Y-82260213D01*
X177939440Y-82042000D01*
X177939440Y-82037484D01*
X178089787Y-82080608D01*
X178890395Y-81280000D01*
X179249605Y-81280000D01*
X180050213Y-82080608D01*
X180292397Y-82011143D01*
X180479144Y-81487698D01*
X180451362Y-80932632D01*
X180292397Y-80548857D01*
X180050213Y-80479392D01*
X179249605Y-81280000D01*
X178890395Y-81280000D01*
X178089787Y-80479392D01*
X177939440Y-80522516D01*
X177939440Y-80518000D01*
X177896036Y-80299787D01*
X178269392Y-80299787D01*
X179070000Y-81100395D01*
X179870608Y-80299787D01*
X179801143Y-80057603D01*
X179277698Y-79870856D01*
X178722632Y-79898638D01*
X178338857Y-80057603D01*
X178269392Y-80299787D01*
X177896036Y-80299787D01*
X177890157Y-80270235D01*
X177749809Y-80060191D01*
X177539765Y-79919843D01*
X177292000Y-79870560D01*
X175768000Y-79870560D01*
X175520235Y-79919843D01*
X175310191Y-80060191D01*
X175169843Y-80270235D01*
X175120560Y-80518000D01*
X169783756Y-80518000D01*
X169910000Y-80472051D01*
X170442089Y-80025575D01*
X170789385Y-79424040D01*
X170910000Y-78740000D01*
X170789385Y-78055960D01*
X170442089Y-77454425D01*
X169910000Y-77007949D01*
X169257296Y-76770384D01*
X168562704Y-76770384D01*
X167910000Y-77007949D01*
X167377911Y-77454425D01*
X167030615Y-78055960D01*
X166910000Y-78740000D01*
X159510000Y-78740000D01*
X159510000Y-60960000D01*
X166910000Y-60960000D01*
X167030615Y-61644040D01*
X167377911Y-62245575D01*
X167910000Y-62692051D01*
X168562704Y-62929616D01*
X169257296Y-62929616D01*
X169910000Y-62692051D01*
X170442089Y-62245575D01*
X170789385Y-61644040D01*
X170910000Y-60960000D01*
X170789385Y-60275960D01*
X170442089Y-59674425D01*
X169910000Y-59227949D01*
X169257296Y-58990384D01*
X168562704Y-58990384D01*
X167910000Y-59227949D01*
X167377911Y-59674425D01*
X167030615Y-60275960D01*
X166910000Y-60960000D01*
X159510000Y-60960000D01*
X159510000Y-60004801D01*
X162424793Y-57090009D01*
X178545144Y-57090009D01*
X178619991Y-57104897D01*
X178694838Y-57090009D01*
X178694843Y-57090009D01*
X178916528Y-57045913D01*
X179167920Y-56877938D01*
X179210322Y-56814479D01*
X180030782Y-55994020D01*
X180062119Y-56007000D01*
X180617881Y-56007000D01*
X181131337Y-55794320D01*
X181524320Y-55401337D01*
X181737000Y-54887881D01*
X181737000Y-54332119D01*
X181524320Y-53818663D01*
X181131337Y-53425680D01*
X180617881Y-53213000D01*
X180062119Y-53213000D01*
X179548663Y-53425680D01*
X179155680Y-53818663D01*
X179070000Y-54025513D01*
X178984320Y-53818663D01*
X178591337Y-53425680D01*
X178077881Y-53213000D01*
X177522119Y-53213000D01*
X177008663Y-53425680D01*
X176615680Y-53818663D01*
X176530000Y-54025513D01*
X176444320Y-53818663D01*
X176051337Y-53425680D01*
X175537881Y-53213000D01*
X174982119Y-53213000D01*
X174468663Y-53425680D01*
X174075680Y-53818663D01*
X173990000Y-54025513D01*
X173904320Y-53818663D01*
X173511337Y-53425680D01*
X172997881Y-53213000D01*
X172442119Y-53213000D01*
X171928663Y-53425680D01*
X171535680Y-53818663D01*
X171456572Y-54009647D01*
X171402397Y-53878857D01*
X171160213Y-53809392D01*
X170359605Y-54610000D01*
X170373748Y-54624143D01*
X170194143Y-54803748D01*
X170180000Y-54789605D01*
X170165858Y-54803748D01*
X169986253Y-54624143D01*
X170000395Y-54610000D01*
X169199787Y-53809392D01*
X169049440Y-53852516D01*
X169049440Y-53848000D01*
X169006036Y-53629787D01*
X169379392Y-53629787D01*
X170180000Y-54430395D01*
X170980608Y-53629787D01*
X170911143Y-53387603D01*
X170387698Y-53200856D01*
X169832632Y-53228638D01*
X169448857Y-53387603D01*
X169379392Y-53629787D01*
X169006036Y-53629787D01*
X169000157Y-53600235D01*
X168859809Y-53390191D01*
X168649765Y-53249843D01*
X168402000Y-53200560D01*
X166878000Y-53200560D01*
X166630235Y-53249843D01*
X166420191Y-53390191D01*
X166279843Y-53600235D01*
X166255026Y-53725000D01*
X165696660Y-53725000D01*
X165768805Y-53617028D01*
X165823909Y-53340000D01*
X165810000Y-53270074D01*
X165810000Y-51510000D01*
X184710000Y-51510000D01*
X184710001Y-85020069D01*
G36*
X186775680Y-126521337D02*
X187075000Y-126820657D01*
X187075001Y-129173420D01*
X178703422Y-137545000D01*
X165187165Y-137545000D01*
X165100000Y-137527662D01*
X165012836Y-137545000D01*
X144395000Y-137545000D01*
X144395000Y-130924974D01*
X144519765Y-130900157D01*
X144729809Y-130759809D01*
X144870157Y-130549765D01*
X144876035Y-130520213D01*
X145249392Y-130520213D01*
X145318857Y-130762397D01*
X145842302Y-130949144D01*
X146397368Y-130921362D01*
X146781143Y-130762397D01*
X146850608Y-130520213D01*
X146050000Y-129719605D01*
X145249392Y-130520213D01*
X144876035Y-130520213D01*
X144919440Y-130302000D01*
X144919440Y-130297484D01*
X145069787Y-130340608D01*
X145870395Y-129540000D01*
X145856253Y-129525858D01*
X146035858Y-129346253D01*
X146050000Y-129360395D01*
X146064143Y-129346253D01*
X146243748Y-129525858D01*
X146229605Y-129540000D01*
X147030213Y-130340608D01*
X147272397Y-130271143D01*
X147322535Y-130130607D01*
X147405680Y-130331337D01*
X147798663Y-130724320D01*
X148312119Y-130937000D01*
X148867881Y-130937000D01*
X149381337Y-130724320D01*
X149774320Y-130331337D01*
X149860000Y-130124487D01*
X149945680Y-130331337D01*
X150338663Y-130724320D01*
X150852119Y-130937000D01*
X151407881Y-130937000D01*
X151439218Y-130924020D01*
X151809671Y-131294473D01*
X151852071Y-131357929D01*
X152103463Y-131525904D01*
X152325148Y-131570000D01*
X152325152Y-131570000D01*
X152399999Y-131584888D01*
X152474846Y-131570000D01*
X163861570Y-131570000D01*
X163883466Y-131622862D01*
X164287138Y-132026534D01*
X164814561Y-132245000D01*
X165385439Y-132245000D01*
X165912862Y-132026534D01*
X166316534Y-131622862D01*
X166535000Y-131095439D01*
X166535000Y-130524561D01*
X166316534Y-129997138D01*
X165912862Y-129593466D01*
X165385439Y-129375000D01*
X164814561Y-129375000D01*
X164287138Y-129593466D01*
X163883466Y-129997138D01*
X163861570Y-130050000D01*
X157510853Y-130050000D01*
X157607000Y-129817881D01*
X157607000Y-129262119D01*
X157510853Y-129030000D01*
X182805153Y-129030000D01*
X182880000Y-129044888D01*
X182954847Y-129030000D01*
X182954852Y-129030000D01*
X183176537Y-128985904D01*
X183427929Y-128817929D01*
X183470331Y-128754470D01*
X185110782Y-127114020D01*
X185142119Y-127127000D01*
X185697881Y-127127000D01*
X186211337Y-126914320D01*
X186604320Y-126521337D01*
X186690000Y-126314487D01*
X186775680Y-126521337D01*
X186775680Y-126521337D01*
G37*
X186775680Y-126521337D02*
X187075000Y-126820657D01*
X187075001Y-129173420D01*
X178703422Y-137545000D01*
X165187165Y-137545000D01*
X165100000Y-137527662D01*
X165012836Y-137545000D01*
X144395000Y-137545000D01*
X144395000Y-130924974D01*
X144519765Y-130900157D01*
X144729809Y-130759809D01*
X144870157Y-130549765D01*
X144876035Y-130520213D01*
X145249392Y-130520213D01*
X145318857Y-130762397D01*
X145842302Y-130949144D01*
X146397368Y-130921362D01*
X146781143Y-130762397D01*
X146850608Y-130520213D01*
X146050000Y-129719605D01*
X145249392Y-130520213D01*
X144876035Y-130520213D01*
X144919440Y-130302000D01*
X144919440Y-130297484D01*
X145069787Y-130340608D01*
X145870395Y-129540000D01*
X145856253Y-129525858D01*
X146035858Y-129346253D01*
X146050000Y-129360395D01*
X146064143Y-129346253D01*
X146243748Y-129525858D01*
X146229605Y-129540000D01*
X147030213Y-130340608D01*
X147272397Y-130271143D01*
X147322535Y-130130607D01*
X147405680Y-130331337D01*
X147798663Y-130724320D01*
X148312119Y-130937000D01*
X148867881Y-130937000D01*
X149381337Y-130724320D01*
X149774320Y-130331337D01*
X149860000Y-130124487D01*
X149945680Y-130331337D01*
X150338663Y-130724320D01*
X150852119Y-130937000D01*
X151407881Y-130937000D01*
X151439218Y-130924020D01*
X151809671Y-131294473D01*
X151852071Y-131357929D01*
X152103463Y-131525904D01*
X152325148Y-131570000D01*
X152325152Y-131570000D01*
X152399999Y-131584888D01*
X152474846Y-131570000D01*
X163861570Y-131570000D01*
X163883466Y-131622862D01*
X164287138Y-132026534D01*
X164814561Y-132245000D01*
X165385439Y-132245000D01*
X165912862Y-132026534D01*
X166316534Y-131622862D01*
X166535000Y-131095439D01*
X166535000Y-130524561D01*
X166316534Y-129997138D01*
X165912862Y-129593466D01*
X165385439Y-129375000D01*
X164814561Y-129375000D01*
X164287138Y-129593466D01*
X163883466Y-129997138D01*
X163861570Y-130050000D01*
X157510853Y-130050000D01*
X157607000Y-129817881D01*
X157607000Y-129262119D01*
X157510853Y-129030000D01*
X182805153Y-129030000D01*
X182880000Y-129044888D01*
X182954847Y-129030000D01*
X182954852Y-129030000D01*
X183176537Y-128985904D01*
X183427929Y-128817929D01*
X183470331Y-128754470D01*
X185110782Y-127114020D01*
X185142119Y-127127000D01*
X185697881Y-127127000D01*
X186211337Y-126914320D01*
X186604320Y-126521337D01*
X186690000Y-126314487D01*
X186775680Y-126521337D01*
G36*
X129570199Y-100165000D02*
X129398667Y-100165000D01*
X128980091Y-100248260D01*
X128505423Y-100565423D01*
X128270000Y-100917758D01*
X128034577Y-100565423D01*
X127559909Y-100248260D01*
X127141333Y-100165000D01*
X126858667Y-100165000D01*
X126440091Y-100248260D01*
X125965423Y-100565423D01*
X125730000Y-100917758D01*
X125494577Y-100565423D01*
X125019909Y-100248260D01*
X124601333Y-100165000D01*
X124318667Y-100165000D01*
X123900091Y-100248260D01*
X123425423Y-100565423D01*
X123190000Y-100917758D01*
X122954577Y-100565423D01*
X122479909Y-100248260D01*
X122061333Y-100165000D01*
X121778667Y-100165000D01*
X121360091Y-100248260D01*
X120885423Y-100565423D01*
X120650000Y-100917758D01*
X120414577Y-100565423D01*
X119939909Y-100248260D01*
X119521333Y-100165000D01*
X119238667Y-100165000D01*
X118820091Y-100248260D01*
X118345423Y-100565423D01*
X118110000Y-100917758D01*
X117874577Y-100565423D01*
X117399909Y-100248260D01*
X116981333Y-100165000D01*
X116698667Y-100165000D01*
X116280091Y-100248260D01*
X115805423Y-100565423D01*
X115570000Y-100917758D01*
X115334577Y-100565423D01*
X114859909Y-100248260D01*
X114441333Y-100165000D01*
X114158667Y-100165000D01*
X113740091Y-100248260D01*
X113265423Y-100565423D01*
X113030000Y-100917758D01*
X112794577Y-100565423D01*
X112319909Y-100248260D01*
X111901333Y-100165000D01*
X111618667Y-100165000D01*
X111200091Y-100248260D01*
X110725423Y-100565423D01*
X110490000Y-100917758D01*
X110254577Y-100565423D01*
X109779909Y-100248260D01*
X109361333Y-100165000D01*
X109078667Y-100165000D01*
X108660091Y-100248260D01*
X108185423Y-100565423D01*
X107868260Y-101040091D01*
X107756887Y-101600000D01*
X107868260Y-102159909D01*
X108185423Y-102634577D01*
X108660091Y-102951740D01*
X109078667Y-103035000D01*
X109361333Y-103035000D01*
X109779909Y-102951740D01*
X110254577Y-102634577D01*
X110490000Y-102282242D01*
X110725423Y-102634577D01*
X111200091Y-102951740D01*
X111618667Y-103035000D01*
X111901333Y-103035000D01*
X112319909Y-102951740D01*
X112794577Y-102634577D01*
X113030000Y-102282242D01*
X113265423Y-102634577D01*
X113740091Y-102951740D01*
X114158667Y-103035000D01*
X114441333Y-103035000D01*
X114859909Y-102951740D01*
X115334577Y-102634577D01*
X115570000Y-102282242D01*
X115805423Y-102634577D01*
X116080000Y-102818044D01*
X116080000Y-102985198D01*
X111561376Y-107503823D01*
X111395222Y-107435000D01*
X110744778Y-107435000D01*
X110143847Y-107683914D01*
X109683914Y-108143847D01*
X109615091Y-108310000D01*
X107606802Y-108310000D01*
X107440000Y-108143199D01*
X107440000Y-107898043D01*
X107714577Y-107714577D01*
X108031740Y-107239909D01*
X108143113Y-106680000D01*
X108031740Y-106120091D01*
X107714577Y-105645423D01*
X107239909Y-105328260D01*
X106821333Y-105245000D01*
X106538667Y-105245000D01*
X106120091Y-105328260D01*
X105645423Y-105645423D01*
X105328260Y-106120091D01*
X105216887Y-106680000D01*
X105328260Y-107239909D01*
X105645423Y-107714577D01*
X105920001Y-107898044D01*
X105920001Y-108383148D01*
X105905112Y-108458000D01*
X105964097Y-108754537D01*
X106070084Y-108913157D01*
X106132072Y-109005929D01*
X106195528Y-109048329D01*
X106701671Y-109554473D01*
X106744071Y-109617929D01*
X106807527Y-109660329D01*
X106995462Y-109785904D01*
X107043605Y-109795480D01*
X107217148Y-109830000D01*
X107217152Y-109830000D01*
X107292000Y-109844888D01*
X107366848Y-109830000D01*
X109615091Y-109830000D01*
X109683914Y-109996153D01*
X110143847Y-110456086D01*
X110310001Y-110524909D01*
X110310000Y-114115091D01*
X110143847Y-114183914D01*
X109683914Y-114643847D01*
X109435000Y-115244778D01*
X109435000Y-115895222D01*
X109683914Y-116496153D01*
X110143847Y-116956086D01*
X110744778Y-117205000D01*
X111395222Y-117205000D01*
X111996153Y-116956086D01*
X112456086Y-116496153D01*
X112705000Y-115895222D01*
X112705000Y-115244778D01*
X112456086Y-114643847D01*
X111996153Y-114183914D01*
X111830000Y-114115091D01*
X111830000Y-110524909D01*
X111996153Y-110456086D01*
X112456086Y-109996153D01*
X112705000Y-109395222D01*
X112705000Y-108744778D01*
X112636177Y-108578624D01*
X117324473Y-103890329D01*
X117387929Y-103847929D01*
X117555904Y-103596537D01*
X117600000Y-103374852D01*
X117600000Y-103374848D01*
X117614888Y-103300001D01*
X117600000Y-103225154D01*
X117600000Y-102818043D01*
X117874577Y-102634577D01*
X118110000Y-102282242D01*
X118345423Y-102634577D01*
X118820091Y-102951740D01*
X119238667Y-103035000D01*
X119521333Y-103035000D01*
X119703886Y-102998688D01*
X119890001Y-103184803D01*
X119890000Y-115601570D01*
X119837138Y-115623466D01*
X119433466Y-116027138D01*
X119215000Y-116554561D01*
X119215000Y-117125439D01*
X119433466Y-117652862D01*
X119837138Y-118056534D01*
X120364561Y-118275000D01*
X120935439Y-118275000D01*
X121462862Y-118056534D01*
X121866534Y-117652862D01*
X122085000Y-117125439D01*
X122085000Y-116809802D01*
X122599671Y-117324473D01*
X122642071Y-117387929D01*
X122893463Y-117555904D01*
X123115148Y-117600000D01*
X123115152Y-117600000D01*
X123189999Y-117614888D01*
X123264846Y-117600000D01*
X124491570Y-117600000D01*
X124513466Y-117652862D01*
X124917138Y-118056534D01*
X125444561Y-118275000D01*
X126015439Y-118275000D01*
X126542862Y-118056534D01*
X126946534Y-117652862D01*
X127165000Y-117125439D01*
X127165000Y-116554561D01*
X127071984Y-116330000D01*
X129225199Y-116330000D01*
X129396897Y-116501698D01*
X129375000Y-116554561D01*
X129375000Y-117125439D01*
X129593466Y-117652862D01*
X129997138Y-118056534D01*
X130524561Y-118275000D01*
X131095439Y-118275000D01*
X131622862Y-118056534D01*
X132026534Y-117652862D01*
X132215309Y-117197119D01*
X138303000Y-117197119D01*
X138303000Y-117752881D01*
X138515680Y-118266337D01*
X138908663Y-118659320D01*
X139115513Y-118745000D01*
X138908663Y-118830680D01*
X138515680Y-119223663D01*
X138303000Y-119737119D01*
X138303000Y-120292881D01*
X138515680Y-120806337D01*
X138908663Y-121199320D01*
X139422119Y-121412000D01*
X139977881Y-121412000D01*
X140491337Y-121199320D01*
X140884320Y-120806337D01*
X141097000Y-120292881D01*
X141097000Y-119737119D01*
X140884320Y-119223663D01*
X140491337Y-118830680D01*
X140284487Y-118745000D01*
X140491337Y-118659320D01*
X140884320Y-118266337D01*
X141097000Y-117752881D01*
X141097000Y-117197119D01*
X140884320Y-116683663D01*
X140491337Y-116290680D01*
X139977881Y-116078000D01*
X139422119Y-116078000D01*
X138908663Y-116290680D01*
X138515680Y-116683663D01*
X138303000Y-117197119D01*
X132215309Y-117197119D01*
X132245000Y-117125439D01*
X132245000Y-116554561D01*
X132026534Y-116027138D01*
X131622862Y-115623466D01*
X131095439Y-115405000D01*
X130524561Y-115405000D01*
X130471698Y-115426897D01*
X130130331Y-115085530D01*
X130087929Y-115022071D01*
X129836537Y-114854096D01*
X129614852Y-114810000D01*
X129614847Y-114810000D01*
X129540000Y-114795112D01*
X129465153Y-114810000D01*
X122871213Y-114810000D01*
X122310020Y-114248809D01*
X122310020Y-113467532D01*
X126027073Y-113467532D01*
X126125736Y-113734387D01*
X126735461Y-113960908D01*
X127385460Y-113936856D01*
X127874264Y-113734387D01*
X127972927Y-113467532D01*
X127880608Y-113375213D01*
X135089392Y-113375213D01*
X135158857Y-113617397D01*
X135682302Y-113804144D01*
X136237368Y-113776362D01*
X136621143Y-113617397D01*
X136690608Y-113375213D01*
X135890000Y-112574605D01*
X135089392Y-113375213D01*
X127880608Y-113375213D01*
X127000000Y-112494605D01*
X126027073Y-113467532D01*
X122310020Y-113467532D01*
X122310020Y-112050461D01*
X125354092Y-112050461D01*
X125378144Y-112700460D01*
X125580613Y-113189264D01*
X125847468Y-113287927D01*
X126820395Y-112315000D01*
X127179605Y-112315000D01*
X128152532Y-113287927D01*
X128419387Y-113189264D01*
X128645908Y-112579539D01*
X128631395Y-112187302D01*
X134480856Y-112187302D01*
X134508638Y-112742368D01*
X134667603Y-113126143D01*
X134909787Y-113195608D01*
X135710395Y-112395000D01*
X136069605Y-112395000D01*
X136870213Y-113195608D01*
X137112397Y-113126143D01*
X137299144Y-112602698D01*
X137271362Y-112047632D01*
X137112397Y-111663857D01*
X136870213Y-111594392D01*
X136069605Y-112395000D01*
X135710395Y-112395000D01*
X134909787Y-111594392D01*
X134667603Y-111663857D01*
X134480856Y-112187302D01*
X128631395Y-112187302D01*
X128621856Y-111929540D01*
X128419387Y-111440736D01*
X128349203Y-111414787D01*
X135089392Y-111414787D01*
X135890000Y-112215395D01*
X136690608Y-111414787D01*
X136621143Y-111172603D01*
X136097698Y-110985856D01*
X135542632Y-111013638D01*
X135158857Y-111172603D01*
X135089392Y-111414787D01*
X128349203Y-111414787D01*
X128152532Y-111342073D01*
X127179605Y-112315000D01*
X126820395Y-112315000D01*
X125847468Y-111342073D01*
X125580613Y-111440736D01*
X125354092Y-112050461D01*
X122310020Y-112050461D01*
X122310020Y-111162468D01*
X126027073Y-111162468D01*
X127000000Y-112135395D01*
X127972927Y-111162468D01*
X127874264Y-110895613D01*
X127264539Y-110669092D01*
X126614540Y-110693144D01*
X126125736Y-110895613D01*
X126027073Y-111162468D01*
X122310020Y-111162468D01*
X122310020Y-106315000D01*
X125352560Y-106315000D01*
X125352560Y-108315000D01*
X125401843Y-108562765D01*
X125542191Y-108772809D01*
X125752235Y-108913157D01*
X126000000Y-108962440D01*
X128000000Y-108962440D01*
X128247765Y-108913157D01*
X128457809Y-108772809D01*
X128598157Y-108562765D01*
X128647440Y-108315000D01*
X128647440Y-106315000D01*
X128598157Y-106067235D01*
X128457809Y-105857191D01*
X128247765Y-105716843D01*
X128000000Y-105667560D01*
X126000000Y-105667560D01*
X125752235Y-105716843D01*
X125542191Y-105857191D01*
X125401843Y-106067235D01*
X125352560Y-106315000D01*
X122310020Y-106315000D01*
X122310020Y-103630000D01*
X123115153Y-103630000D01*
X123190000Y-103644888D01*
X123264847Y-103630000D01*
X123264852Y-103630000D01*
X123486537Y-103585904D01*
X123737929Y-103417929D01*
X123780331Y-103354470D01*
X124136114Y-102998688D01*
X124318667Y-103035000D01*
X124601333Y-103035000D01*
X125019909Y-102951740D01*
X125494577Y-102634577D01*
X125730000Y-102282242D01*
X125965423Y-102634577D01*
X126440091Y-102951740D01*
X126858667Y-103035000D01*
X127141333Y-103035000D01*
X127323887Y-102998688D01*
X129399681Y-105074483D01*
X129442082Y-105137940D01*
X129505538Y-105180340D01*
X129693473Y-105305915D01*
X129741616Y-105315491D01*
X129915159Y-105350011D01*
X129915163Y-105350011D01*
X129990011Y-105364899D01*
X130064859Y-105350011D01*
X133482389Y-105350011D01*
X135942938Y-107810560D01*
X135128000Y-107810560D01*
X134880235Y-107859843D01*
X134670191Y-108000191D01*
X134529843Y-108210235D01*
X134480560Y-108458000D01*
X134480560Y-109982000D01*
X134529843Y-110229765D01*
X134670191Y-110439809D01*
X134880235Y-110580157D01*
X135128000Y-110629440D01*
X136652000Y-110629440D01*
X136899765Y-110580157D01*
X137109809Y-110439809D01*
X137250157Y-110229765D01*
X137299440Y-109982000D01*
X137299440Y-109167062D01*
X147830001Y-119697624D01*
X147830000Y-127696728D01*
X147616537Y-127554096D01*
X147394852Y-127510000D01*
X147394847Y-127510000D01*
X147320000Y-127495112D01*
X147245153Y-127510000D01*
X140530657Y-127510000D01*
X140884320Y-127156337D01*
X141097000Y-126642881D01*
X141097000Y-126087119D01*
X140884320Y-125573663D01*
X140491337Y-125180680D01*
X140284487Y-125095000D01*
X140491337Y-125009320D01*
X140884320Y-124616337D01*
X141097000Y-124102881D01*
X141097000Y-123547119D01*
X140884320Y-123033663D01*
X140491337Y-122640680D01*
X139977881Y-122428000D01*
X139422119Y-122428000D01*
X138908663Y-122640680D01*
X138515680Y-123033663D01*
X138303000Y-123547119D01*
X138303000Y-124102881D01*
X138515680Y-124616337D01*
X138908663Y-125009320D01*
X139115513Y-125095000D01*
X138908663Y-125180680D01*
X138515680Y-125573663D01*
X138303000Y-126087119D01*
X138303000Y-126642881D01*
X138515680Y-127156337D01*
X138869343Y-127510000D01*
X137234846Y-127510000D01*
X137159999Y-127495112D01*
X137085152Y-127510000D01*
X137085148Y-127510000D01*
X136863463Y-127554096D01*
X136820840Y-127582576D01*
X136675526Y-127679671D01*
X136675524Y-127679673D01*
X136612071Y-127722071D01*
X136569673Y-127785524D01*
X134958302Y-129396897D01*
X134905439Y-129375000D01*
X134334561Y-129375000D01*
X133807138Y-129593466D01*
X133403466Y-129997138D01*
X133185000Y-130524561D01*
X133185000Y-131095439D01*
X133403466Y-131622862D01*
X133807138Y-132026534D01*
X134334561Y-132245000D01*
X134905439Y-132245000D01*
X135432862Y-132026534D01*
X135836534Y-131622862D01*
X136055000Y-131095439D01*
X136055000Y-130524561D01*
X136033103Y-130471698D01*
X137474803Y-129030000D01*
X142100560Y-129030000D01*
X142100560Y-130302000D01*
X142149843Y-130549765D01*
X142290191Y-130759809D01*
X142500235Y-130900157D01*
X142625000Y-130924974D01*
X142625001Y-137545000D01*
X134707165Y-137545000D01*
X134620000Y-137527662D01*
X134532836Y-137545000D01*
X122286579Y-137545000D01*
X118377329Y-133635750D01*
X123290000Y-133635750D01*
X123290000Y-134376310D01*
X123386673Y-134609699D01*
X123565302Y-134788327D01*
X123798691Y-134885000D01*
X124174250Y-134885000D01*
X124333000Y-134726250D01*
X124333000Y-133477000D01*
X123448750Y-133477000D01*
X123290000Y-133635750D01*
X118377329Y-133635750D01*
X117065269Y-132323690D01*
X123290000Y-132323690D01*
X123290000Y-133064250D01*
X123448750Y-133223000D01*
X124333000Y-133223000D01*
X124333000Y-131973750D01*
X124174250Y-131815000D01*
X123798691Y-131815000D01*
X123565302Y-131911673D01*
X123386673Y-132090301D01*
X123290000Y-132323690D01*
X117065269Y-132323690D01*
X112645000Y-127903422D01*
X112645000Y-126820657D01*
X112903000Y-126562657D01*
X112903000Y-126618310D01*
X112999673Y-126851699D01*
X113178302Y-127030327D01*
X113411691Y-127127000D01*
X114014250Y-127127000D01*
X114173000Y-126968250D01*
X114173000Y-125857000D01*
X114427000Y-125857000D01*
X114427000Y-126968250D01*
X114585750Y-127127000D01*
X115188309Y-127127000D01*
X115421698Y-127030327D01*
X115452025Y-127000000D01*
X119186887Y-127000000D01*
X119298260Y-127559909D01*
X119615423Y-128034577D01*
X120090091Y-128351740D01*
X120508667Y-128435000D01*
X120791333Y-128435000D01*
X121209909Y-128351740D01*
X121684577Y-128034577D01*
X121868043Y-127760000D01*
X122875199Y-127760000D01*
X124970000Y-129854803D01*
X124970001Y-131815000D01*
X124745750Y-131815000D01*
X124587000Y-131973750D01*
X124587000Y-132734032D01*
X124560000Y-132869770D01*
X124560000Y-133830231D01*
X124587000Y-133965969D01*
X124587000Y-134726250D01*
X124745750Y-134885000D01*
X125121309Y-134885000D01*
X125281399Y-134818688D01*
X125730000Y-134907921D01*
X126186511Y-134817115D01*
X126365001Y-134697853D01*
X126543490Y-134817115D01*
X127000000Y-134907921D01*
X127456511Y-134817115D01*
X127635001Y-134697853D01*
X127813490Y-134817115D01*
X128270000Y-134907921D01*
X128726511Y-134817115D01*
X129113523Y-134558523D01*
X129372115Y-134171511D01*
X129440000Y-133830230D01*
X129440000Y-132869769D01*
X129372115Y-132528489D01*
X129113523Y-132141477D01*
X129030000Y-132085669D01*
X129030000Y-129854801D01*
X130486114Y-128398688D01*
X130668667Y-128435000D01*
X130951333Y-128435000D01*
X131369909Y-128351740D01*
X131844577Y-128034577D01*
X132161740Y-127559909D01*
X132273113Y-127000000D01*
X132161740Y-126440091D01*
X131844577Y-125965423D01*
X131369909Y-125648260D01*
X130951333Y-125565000D01*
X130668667Y-125565000D01*
X130250091Y-125648260D01*
X129775423Y-125965423D01*
X129458260Y-126440091D01*
X129346887Y-127000000D01*
X129411312Y-127323886D01*
X127785528Y-128949671D01*
X127760000Y-128966728D01*
X127760000Y-128344846D01*
X127774888Y-128269999D01*
X127760000Y-128195152D01*
X127760000Y-128195148D01*
X127715904Y-127973463D01*
X127547929Y-127722071D01*
X127484473Y-127679671D01*
X127128688Y-127323886D01*
X127193113Y-127000000D01*
X127081740Y-126440091D01*
X126764577Y-125965423D01*
X126289909Y-125648260D01*
X125871333Y-125565000D01*
X125588667Y-125565000D01*
X125170091Y-125648260D01*
X124695423Y-125965423D01*
X124378260Y-126440091D01*
X124266887Y-127000000D01*
X124267405Y-127002603D01*
X123780331Y-126515530D01*
X123737929Y-126452071D01*
X123486537Y-126284096D01*
X123264852Y-126240000D01*
X123264847Y-126240000D01*
X123190000Y-126225112D01*
X123115153Y-126240000D01*
X121868043Y-126240000D01*
X121684577Y-125965423D01*
X121209909Y-125648260D01*
X120791333Y-125565000D01*
X120508667Y-125565000D01*
X120090091Y-125648260D01*
X119615423Y-125965423D01*
X119298260Y-126440091D01*
X119186887Y-127000000D01*
X115452025Y-127000000D01*
X115600327Y-126851699D01*
X115697000Y-126618310D01*
X115697000Y-126015750D01*
X115538250Y-125857000D01*
X114427000Y-125857000D01*
X114173000Y-125857000D01*
X114153000Y-125857000D01*
X114153000Y-125603000D01*
X114173000Y-125603000D01*
X114173000Y-124491750D01*
X114427000Y-124491750D01*
X114427000Y-125603000D01*
X115538250Y-125603000D01*
X115697000Y-125444250D01*
X115697000Y-124841690D01*
X115600327Y-124608301D01*
X115421698Y-124429673D01*
X115188309Y-124333000D01*
X114585750Y-124333000D01*
X114427000Y-124491750D01*
X114173000Y-124491750D01*
X114014250Y-124333000D01*
X113411691Y-124333000D01*
X113178302Y-124429673D01*
X112999673Y-124608301D01*
X112903000Y-124841690D01*
X112903000Y-124897343D01*
X112645000Y-124639343D01*
X112645000Y-119746578D01*
X115203625Y-117187954D01*
X115244778Y-117205000D01*
X115895222Y-117205000D01*
X116496153Y-116956086D01*
X116956086Y-116496153D01*
X117205000Y-115895222D01*
X117205000Y-115244778D01*
X116956086Y-114643847D01*
X116496153Y-114183914D01*
X116455000Y-114166868D01*
X116455000Y-110473132D01*
X116496153Y-110456086D01*
X116956086Y-109996153D01*
X117205000Y-109395222D01*
X117205000Y-108744778D01*
X116956086Y-108143847D01*
X116496153Y-107683914D01*
X115895222Y-107435000D01*
X115244778Y-107435000D01*
X114643847Y-107683914D01*
X114183914Y-108143847D01*
X113935000Y-108744778D01*
X113935000Y-109395222D01*
X114183914Y-109996153D01*
X114643847Y-110456086D01*
X114685001Y-110473132D01*
X114685000Y-114166868D01*
X114643847Y-114183914D01*
X114183914Y-114643847D01*
X113935000Y-115244778D01*
X113935000Y-115895222D01*
X113952046Y-115936375D01*
X111195845Y-118692577D01*
X111121952Y-118741951D01*
X111072578Y-118815844D01*
X111072576Y-118815846D01*
X110926348Y-119034691D01*
X110857663Y-119380000D01*
X110875001Y-119467165D01*
X110875000Y-124639343D01*
X110575680Y-124938663D01*
X110490000Y-125145513D01*
X110404320Y-124938663D01*
X110011337Y-124545680D01*
X109497881Y-124333000D01*
X108942119Y-124333000D01*
X108910782Y-124345980D01*
X104900000Y-120335199D01*
X104900000Y-117847745D01*
X105851861Y-117847745D01*
X105925995Y-118093864D01*
X106463223Y-118286965D01*
X107033454Y-118259778D01*
X107434005Y-118093864D01*
X107508139Y-117847745D01*
X106680000Y-117019605D01*
X105851861Y-117847745D01*
X104900000Y-117847745D01*
X104900000Y-116623223D01*
X105233035Y-116623223D01*
X105260222Y-117193454D01*
X105426136Y-117594005D01*
X105672255Y-117668139D01*
X106500395Y-116840000D01*
X106859605Y-116840000D01*
X107687745Y-117668139D01*
X107933864Y-117594005D01*
X108126965Y-117056777D01*
X108099778Y-116486546D01*
X107933864Y-116085995D01*
X107687745Y-116011861D01*
X106859605Y-116840000D01*
X106500395Y-116840000D01*
X105672255Y-116011861D01*
X105426136Y-116085995D01*
X105233035Y-116623223D01*
X104900000Y-116623223D01*
X104900000Y-115832255D01*
X105851861Y-115832255D01*
X106680000Y-116660395D01*
X107508139Y-115832255D01*
X107434005Y-115586136D01*
X106896777Y-115393035D01*
X106326546Y-115420222D01*
X105925995Y-115586136D01*
X105851861Y-115832255D01*
X104900000Y-115832255D01*
X104900000Y-101914801D01*
X106994803Y-99820000D01*
X129225199Y-99820000D01*
X129570199Y-100165000D01*
X129570199Y-100165000D01*
G37*
X129570199Y-100165000D02*
X129398667Y-100165000D01*
X128980091Y-100248260D01*
X128505423Y-100565423D01*
X128270000Y-100917758D01*
X128034577Y-100565423D01*
X127559909Y-100248260D01*
X127141333Y-100165000D01*
X126858667Y-100165000D01*
X126440091Y-100248260D01*
X125965423Y-100565423D01*
X125730000Y-100917758D01*
X125494577Y-100565423D01*
X125019909Y-100248260D01*
X124601333Y-100165000D01*
X124318667Y-100165000D01*
X123900091Y-100248260D01*
X123425423Y-100565423D01*
X123190000Y-100917758D01*
X122954577Y-100565423D01*
X122479909Y-100248260D01*
X122061333Y-100165000D01*
X121778667Y-100165000D01*
X121360091Y-100248260D01*
X120885423Y-100565423D01*
X120650000Y-100917758D01*
X120414577Y-100565423D01*
X119939909Y-100248260D01*
X119521333Y-100165000D01*
X119238667Y-100165000D01*
X118820091Y-100248260D01*
X118345423Y-100565423D01*
X118110000Y-100917758D01*
X117874577Y-100565423D01*
X117399909Y-100248260D01*
X116981333Y-100165000D01*
X116698667Y-100165000D01*
X116280091Y-100248260D01*
X115805423Y-100565423D01*
X115570000Y-100917758D01*
X115334577Y-100565423D01*
X114859909Y-100248260D01*
X114441333Y-100165000D01*
X114158667Y-100165000D01*
X113740091Y-100248260D01*
X113265423Y-100565423D01*
X113030000Y-100917758D01*
X112794577Y-100565423D01*
X112319909Y-100248260D01*
X111901333Y-100165000D01*
X111618667Y-100165000D01*
X111200091Y-100248260D01*
X110725423Y-100565423D01*
X110490000Y-100917758D01*
X110254577Y-100565423D01*
X109779909Y-100248260D01*
X109361333Y-100165000D01*
X109078667Y-100165000D01*
X108660091Y-100248260D01*
X108185423Y-100565423D01*
X107868260Y-101040091D01*
X107756887Y-101600000D01*
X107868260Y-102159909D01*
X108185423Y-102634577D01*
X108660091Y-102951740D01*
X109078667Y-103035000D01*
X109361333Y-103035000D01*
X109779909Y-102951740D01*
X110254577Y-102634577D01*
X110490000Y-102282242D01*
X110725423Y-102634577D01*
X111200091Y-102951740D01*
X111618667Y-103035000D01*
X111901333Y-103035000D01*
X112319909Y-102951740D01*
X112794577Y-102634577D01*
X113030000Y-102282242D01*
X113265423Y-102634577D01*
X113740091Y-102951740D01*
X114158667Y-103035000D01*
X114441333Y-103035000D01*
X114859909Y-102951740D01*
X115334577Y-102634577D01*
X115570000Y-102282242D01*
X115805423Y-102634577D01*
X116080000Y-102818044D01*
X116080000Y-102985198D01*
X111561376Y-107503823D01*
X111395222Y-107435000D01*
X110744778Y-107435000D01*
X110143847Y-107683914D01*
X109683914Y-108143847D01*
X109615091Y-108310000D01*
X107606802Y-108310000D01*
X107440000Y-108143199D01*
X107440000Y-107898043D01*
X107714577Y-107714577D01*
X108031740Y-107239909D01*
X108143113Y-106680000D01*
X108031740Y-106120091D01*
X107714577Y-105645423D01*
X107239909Y-105328260D01*
X106821333Y-105245000D01*
X106538667Y-105245000D01*
X106120091Y-105328260D01*
X105645423Y-105645423D01*
X105328260Y-106120091D01*
X105216887Y-106680000D01*
X105328260Y-107239909D01*
X105645423Y-107714577D01*
X105920001Y-107898044D01*
X105920001Y-108383148D01*
X105905112Y-108458000D01*
X105964097Y-108754537D01*
X106070084Y-108913157D01*
X106132072Y-109005929D01*
X106195528Y-109048329D01*
X106701671Y-109554473D01*
X106744071Y-109617929D01*
X106807527Y-109660329D01*
X106995462Y-109785904D01*
X107043605Y-109795480D01*
X107217148Y-109830000D01*
X107217152Y-109830000D01*
X107292000Y-109844888D01*
X107366848Y-109830000D01*
X109615091Y-109830000D01*
X109683914Y-109996153D01*
X110143847Y-110456086D01*
X110310001Y-110524909D01*
X110310000Y-114115091D01*
X110143847Y-114183914D01*
X109683914Y-114643847D01*
X109435000Y-115244778D01*
X109435000Y-115895222D01*
X109683914Y-116496153D01*
X110143847Y-116956086D01*
X110744778Y-117205000D01*
X111395222Y-117205000D01*
X111996153Y-116956086D01*
X112456086Y-116496153D01*
X112705000Y-115895222D01*
X112705000Y-115244778D01*
X112456086Y-114643847D01*
X111996153Y-114183914D01*
X111830000Y-114115091D01*
X111830000Y-110524909D01*
X111996153Y-110456086D01*
X112456086Y-109996153D01*
X112705000Y-109395222D01*
X112705000Y-108744778D01*
X112636177Y-108578624D01*
X117324473Y-103890329D01*
X117387929Y-103847929D01*
X117555904Y-103596537D01*
X117600000Y-103374852D01*
X117600000Y-103374848D01*
X117614888Y-103300001D01*
X117600000Y-103225154D01*
X117600000Y-102818043D01*
X117874577Y-102634577D01*
X118110000Y-102282242D01*
X118345423Y-102634577D01*
X118820091Y-102951740D01*
X119238667Y-103035000D01*
X119521333Y-103035000D01*
X119703886Y-102998688D01*
X119890001Y-103184803D01*
X119890000Y-115601570D01*
X119837138Y-115623466D01*
X119433466Y-116027138D01*
X119215000Y-116554561D01*
X119215000Y-117125439D01*
X119433466Y-117652862D01*
X119837138Y-118056534D01*
X120364561Y-118275000D01*
X120935439Y-118275000D01*
X121462862Y-118056534D01*
X121866534Y-117652862D01*
X122085000Y-117125439D01*
X122085000Y-116809802D01*
X122599671Y-117324473D01*
X122642071Y-117387929D01*
X122893463Y-117555904D01*
X123115148Y-117600000D01*
X123115152Y-117600000D01*
X123189999Y-117614888D01*
X123264846Y-117600000D01*
X124491570Y-117600000D01*
X124513466Y-117652862D01*
X124917138Y-118056534D01*
X125444561Y-118275000D01*
X126015439Y-118275000D01*
X126542862Y-118056534D01*
X126946534Y-117652862D01*
X127165000Y-117125439D01*
X127165000Y-116554561D01*
X127071984Y-116330000D01*
X129225199Y-116330000D01*
X129396897Y-116501698D01*
X129375000Y-116554561D01*
X129375000Y-117125439D01*
X129593466Y-117652862D01*
X129997138Y-118056534D01*
X130524561Y-118275000D01*
X131095439Y-118275000D01*
X131622862Y-118056534D01*
X132026534Y-117652862D01*
X132215309Y-117197119D01*
X138303000Y-117197119D01*
X138303000Y-117752881D01*
X138515680Y-118266337D01*
X138908663Y-118659320D01*
X139115513Y-118745000D01*
X138908663Y-118830680D01*
X138515680Y-119223663D01*
X138303000Y-119737119D01*
X138303000Y-120292881D01*
X138515680Y-120806337D01*
X138908663Y-121199320D01*
X139422119Y-121412000D01*
X139977881Y-121412000D01*
X140491337Y-121199320D01*
X140884320Y-120806337D01*
X141097000Y-120292881D01*
X141097000Y-119737119D01*
X140884320Y-119223663D01*
X140491337Y-118830680D01*
X140284487Y-118745000D01*
X140491337Y-118659320D01*
X140884320Y-118266337D01*
X141097000Y-117752881D01*
X141097000Y-117197119D01*
X140884320Y-116683663D01*
X140491337Y-116290680D01*
X139977881Y-116078000D01*
X139422119Y-116078000D01*
X138908663Y-116290680D01*
X138515680Y-116683663D01*
X138303000Y-117197119D01*
X132215309Y-117197119D01*
X132245000Y-117125439D01*
X132245000Y-116554561D01*
X132026534Y-116027138D01*
X131622862Y-115623466D01*
X131095439Y-115405000D01*
X130524561Y-115405000D01*
X130471698Y-115426897D01*
X130130331Y-115085530D01*
X130087929Y-115022071D01*
X129836537Y-114854096D01*
X129614852Y-114810000D01*
X129614847Y-114810000D01*
X129540000Y-114795112D01*
X129465153Y-114810000D01*
X122871213Y-114810000D01*
X122310020Y-114248809D01*
X122310020Y-113467532D01*
X126027073Y-113467532D01*
X126125736Y-113734387D01*
X126735461Y-113960908D01*
X127385460Y-113936856D01*
X127874264Y-113734387D01*
X127972927Y-113467532D01*
X127880608Y-113375213D01*
X135089392Y-113375213D01*
X135158857Y-113617397D01*
X135682302Y-113804144D01*
X136237368Y-113776362D01*
X136621143Y-113617397D01*
X136690608Y-113375213D01*
X135890000Y-112574605D01*
X135089392Y-113375213D01*
X127880608Y-113375213D01*
X127000000Y-112494605D01*
X126027073Y-113467532D01*
X122310020Y-113467532D01*
X122310020Y-112050461D01*
X125354092Y-112050461D01*
X125378144Y-112700460D01*
X125580613Y-113189264D01*
X125847468Y-113287927D01*
X126820395Y-112315000D01*
X127179605Y-112315000D01*
X128152532Y-113287927D01*
X128419387Y-113189264D01*
X128645908Y-112579539D01*
X128631395Y-112187302D01*
X134480856Y-112187302D01*
X134508638Y-112742368D01*
X134667603Y-113126143D01*
X134909787Y-113195608D01*
X135710395Y-112395000D01*
X136069605Y-112395000D01*
X136870213Y-113195608D01*
X137112397Y-113126143D01*
X137299144Y-112602698D01*
X137271362Y-112047632D01*
X137112397Y-111663857D01*
X136870213Y-111594392D01*
X136069605Y-112395000D01*
X135710395Y-112395000D01*
X134909787Y-111594392D01*
X134667603Y-111663857D01*
X134480856Y-112187302D01*
X128631395Y-112187302D01*
X128621856Y-111929540D01*
X128419387Y-111440736D01*
X128349203Y-111414787D01*
X135089392Y-111414787D01*
X135890000Y-112215395D01*
X136690608Y-111414787D01*
X136621143Y-111172603D01*
X136097698Y-110985856D01*
X135542632Y-111013638D01*
X135158857Y-111172603D01*
X135089392Y-111414787D01*
X128349203Y-111414787D01*
X128152532Y-111342073D01*
X127179605Y-112315000D01*
X126820395Y-112315000D01*
X125847468Y-111342073D01*
X125580613Y-111440736D01*
X125354092Y-112050461D01*
X122310020Y-112050461D01*
X122310020Y-111162468D01*
X126027073Y-111162468D01*
X127000000Y-112135395D01*
X127972927Y-111162468D01*
X127874264Y-110895613D01*
X127264539Y-110669092D01*
X126614540Y-110693144D01*
X126125736Y-110895613D01*
X126027073Y-111162468D01*
X122310020Y-111162468D01*
X122310020Y-106315000D01*
X125352560Y-106315000D01*
X125352560Y-108315000D01*
X125401843Y-108562765D01*
X125542191Y-108772809D01*
X125752235Y-108913157D01*
X126000000Y-108962440D01*
X128000000Y-108962440D01*
X128247765Y-108913157D01*
X128457809Y-108772809D01*
X128598157Y-108562765D01*
X128647440Y-108315000D01*
X128647440Y-106315000D01*
X128598157Y-106067235D01*
X128457809Y-105857191D01*
X128247765Y-105716843D01*
X128000000Y-105667560D01*
X126000000Y-105667560D01*
X125752235Y-105716843D01*
X125542191Y-105857191D01*
X125401843Y-106067235D01*
X125352560Y-106315000D01*
X122310020Y-106315000D01*
X122310020Y-103630000D01*
X123115153Y-103630000D01*
X123190000Y-103644888D01*
X123264847Y-103630000D01*
X123264852Y-103630000D01*
X123486537Y-103585904D01*
X123737929Y-103417929D01*
X123780331Y-103354470D01*
X124136114Y-102998688D01*
X124318667Y-103035000D01*
X124601333Y-103035000D01*
X125019909Y-102951740D01*
X125494577Y-102634577D01*
X125730000Y-102282242D01*
X125965423Y-102634577D01*
X126440091Y-102951740D01*
X126858667Y-103035000D01*
X127141333Y-103035000D01*
X127323887Y-102998688D01*
X129399681Y-105074483D01*
X129442082Y-105137940D01*
X129505538Y-105180340D01*
X129693473Y-105305915D01*
X129741616Y-105315491D01*
X129915159Y-105350011D01*
X129915163Y-105350011D01*
X129990011Y-105364899D01*
X130064859Y-105350011D01*
X133482389Y-105350011D01*
X135942938Y-107810560D01*
X135128000Y-107810560D01*
X134880235Y-107859843D01*
X134670191Y-108000191D01*
X134529843Y-108210235D01*
X134480560Y-108458000D01*
X134480560Y-109982000D01*
X134529843Y-110229765D01*
X134670191Y-110439809D01*
X134880235Y-110580157D01*
X135128000Y-110629440D01*
X136652000Y-110629440D01*
X136899765Y-110580157D01*
X137109809Y-110439809D01*
X137250157Y-110229765D01*
X137299440Y-109982000D01*
X137299440Y-109167062D01*
X147830001Y-119697624D01*
X147830000Y-127696728D01*
X147616537Y-127554096D01*
X147394852Y-127510000D01*
X147394847Y-127510000D01*
X147320000Y-127495112D01*
X147245153Y-127510000D01*
X140530657Y-127510000D01*
X140884320Y-127156337D01*
X141097000Y-126642881D01*
X141097000Y-126087119D01*
X140884320Y-125573663D01*
X140491337Y-125180680D01*
X140284487Y-125095000D01*
X140491337Y-125009320D01*
X140884320Y-124616337D01*
X141097000Y-124102881D01*
X141097000Y-123547119D01*
X140884320Y-123033663D01*
X140491337Y-122640680D01*
X139977881Y-122428000D01*
X139422119Y-122428000D01*
X138908663Y-122640680D01*
X138515680Y-123033663D01*
X138303000Y-123547119D01*
X138303000Y-124102881D01*
X138515680Y-124616337D01*
X138908663Y-125009320D01*
X139115513Y-125095000D01*
X138908663Y-125180680D01*
X138515680Y-125573663D01*
X138303000Y-126087119D01*
X138303000Y-126642881D01*
X138515680Y-127156337D01*
X138869343Y-127510000D01*
X137234846Y-127510000D01*
X137159999Y-127495112D01*
X137085152Y-127510000D01*
X137085148Y-127510000D01*
X136863463Y-127554096D01*
X136820840Y-127582576D01*
X136675526Y-127679671D01*
X136675524Y-127679673D01*
X136612071Y-127722071D01*
X136569673Y-127785524D01*
X134958302Y-129396897D01*
X134905439Y-129375000D01*
X134334561Y-129375000D01*
X133807138Y-129593466D01*
X133403466Y-129997138D01*
X133185000Y-130524561D01*
X133185000Y-131095439D01*
X133403466Y-131622862D01*
X133807138Y-132026534D01*
X134334561Y-132245000D01*
X134905439Y-132245000D01*
X135432862Y-132026534D01*
X135836534Y-131622862D01*
X136055000Y-131095439D01*
X136055000Y-130524561D01*
X136033103Y-130471698D01*
X137474803Y-129030000D01*
X142100560Y-129030000D01*
X142100560Y-130302000D01*
X142149843Y-130549765D01*
X142290191Y-130759809D01*
X142500235Y-130900157D01*
X142625000Y-130924974D01*
X142625001Y-137545000D01*
X134707165Y-137545000D01*
X134620000Y-137527662D01*
X134532836Y-137545000D01*
X122286579Y-137545000D01*
X118377329Y-133635750D01*
X123290000Y-133635750D01*
X123290000Y-134376310D01*
X123386673Y-134609699D01*
X123565302Y-134788327D01*
X123798691Y-134885000D01*
X124174250Y-134885000D01*
X124333000Y-134726250D01*
X124333000Y-133477000D01*
X123448750Y-133477000D01*
X123290000Y-133635750D01*
X118377329Y-133635750D01*
X117065269Y-132323690D01*
X123290000Y-132323690D01*
X123290000Y-133064250D01*
X123448750Y-133223000D01*
X124333000Y-133223000D01*
X124333000Y-131973750D01*
X124174250Y-131815000D01*
X123798691Y-131815000D01*
X123565302Y-131911673D01*
X123386673Y-132090301D01*
X123290000Y-132323690D01*
X117065269Y-132323690D01*
X112645000Y-127903422D01*
X112645000Y-126820657D01*
X112903000Y-126562657D01*
X112903000Y-126618310D01*
X112999673Y-126851699D01*
X113178302Y-127030327D01*
X113411691Y-127127000D01*
X114014250Y-127127000D01*
X114173000Y-126968250D01*
X114173000Y-125857000D01*
X114427000Y-125857000D01*
X114427000Y-126968250D01*
X114585750Y-127127000D01*
X115188309Y-127127000D01*
X115421698Y-127030327D01*
X115452025Y-127000000D01*
X119186887Y-127000000D01*
X119298260Y-127559909D01*
X119615423Y-128034577D01*
X120090091Y-128351740D01*
X120508667Y-128435000D01*
X120791333Y-128435000D01*
X121209909Y-128351740D01*
X121684577Y-128034577D01*
X121868043Y-127760000D01*
X122875199Y-127760000D01*
X124970000Y-129854803D01*
X124970001Y-131815000D01*
X124745750Y-131815000D01*
X124587000Y-131973750D01*
X124587000Y-132734032D01*
X124560000Y-132869770D01*
X124560000Y-133830231D01*
X124587000Y-133965969D01*
X124587000Y-134726250D01*
X124745750Y-134885000D01*
X125121309Y-134885000D01*
X125281399Y-134818688D01*
X125730000Y-134907921D01*
X126186511Y-134817115D01*
X126365001Y-134697853D01*
X126543490Y-134817115D01*
X127000000Y-134907921D01*
X127456511Y-134817115D01*
X127635001Y-134697853D01*
X127813490Y-134817115D01*
X128270000Y-134907921D01*
X128726511Y-134817115D01*
X129113523Y-134558523D01*
X129372115Y-134171511D01*
X129440000Y-133830230D01*
X129440000Y-132869769D01*
X129372115Y-132528489D01*
X129113523Y-132141477D01*
X129030000Y-132085669D01*
X129030000Y-129854801D01*
X130486114Y-128398688D01*
X130668667Y-128435000D01*
X130951333Y-128435000D01*
X131369909Y-128351740D01*
X131844577Y-128034577D01*
X132161740Y-127559909D01*
X132273113Y-127000000D01*
X132161740Y-126440091D01*
X131844577Y-125965423D01*
X131369909Y-125648260D01*
X130951333Y-125565000D01*
X130668667Y-125565000D01*
X130250091Y-125648260D01*
X129775423Y-125965423D01*
X129458260Y-126440091D01*
X129346887Y-127000000D01*
X129411312Y-127323886D01*
X127785528Y-128949671D01*
X127760000Y-128966728D01*
X127760000Y-128344846D01*
X127774888Y-128269999D01*
X127760000Y-128195152D01*
X127760000Y-128195148D01*
X127715904Y-127973463D01*
X127547929Y-127722071D01*
X127484473Y-127679671D01*
X127128688Y-127323886D01*
X127193113Y-127000000D01*
X127081740Y-126440091D01*
X126764577Y-125965423D01*
X126289909Y-125648260D01*
X125871333Y-125565000D01*
X125588667Y-125565000D01*
X125170091Y-125648260D01*
X124695423Y-125965423D01*
X124378260Y-126440091D01*
X124266887Y-127000000D01*
X124267405Y-127002603D01*
X123780331Y-126515530D01*
X123737929Y-126452071D01*
X123486537Y-126284096D01*
X123264852Y-126240000D01*
X123264847Y-126240000D01*
X123190000Y-126225112D01*
X123115153Y-126240000D01*
X121868043Y-126240000D01*
X121684577Y-125965423D01*
X121209909Y-125648260D01*
X120791333Y-125565000D01*
X120508667Y-125565000D01*
X120090091Y-125648260D01*
X119615423Y-125965423D01*
X119298260Y-126440091D01*
X119186887Y-127000000D01*
X115452025Y-127000000D01*
X115600327Y-126851699D01*
X115697000Y-126618310D01*
X115697000Y-126015750D01*
X115538250Y-125857000D01*
X114427000Y-125857000D01*
X114173000Y-125857000D01*
X114153000Y-125857000D01*
X114153000Y-125603000D01*
X114173000Y-125603000D01*
X114173000Y-124491750D01*
X114427000Y-124491750D01*
X114427000Y-125603000D01*
X115538250Y-125603000D01*
X115697000Y-125444250D01*
X115697000Y-124841690D01*
X115600327Y-124608301D01*
X115421698Y-124429673D01*
X115188309Y-124333000D01*
X114585750Y-124333000D01*
X114427000Y-124491750D01*
X114173000Y-124491750D01*
X114014250Y-124333000D01*
X113411691Y-124333000D01*
X113178302Y-124429673D01*
X112999673Y-124608301D01*
X112903000Y-124841690D01*
X112903000Y-124897343D01*
X112645000Y-124639343D01*
X112645000Y-119746578D01*
X115203625Y-117187954D01*
X115244778Y-117205000D01*
X115895222Y-117205000D01*
X116496153Y-116956086D01*
X116956086Y-116496153D01*
X117205000Y-115895222D01*
X117205000Y-115244778D01*
X116956086Y-114643847D01*
X116496153Y-114183914D01*
X116455000Y-114166868D01*
X116455000Y-110473132D01*
X116496153Y-110456086D01*
X116956086Y-109996153D01*
X117205000Y-109395222D01*
X117205000Y-108744778D01*
X116956086Y-108143847D01*
X116496153Y-107683914D01*
X115895222Y-107435000D01*
X115244778Y-107435000D01*
X114643847Y-107683914D01*
X114183914Y-108143847D01*
X113935000Y-108744778D01*
X113935000Y-109395222D01*
X114183914Y-109996153D01*
X114643847Y-110456086D01*
X114685001Y-110473132D01*
X114685000Y-114166868D01*
X114643847Y-114183914D01*
X114183914Y-114643847D01*
X113935000Y-115244778D01*
X113935000Y-115895222D01*
X113952046Y-115936375D01*
X111195845Y-118692577D01*
X111121952Y-118741951D01*
X111072578Y-118815844D01*
X111072576Y-118815846D01*
X110926348Y-119034691D01*
X110857663Y-119380000D01*
X110875001Y-119467165D01*
X110875000Y-124639343D01*
X110575680Y-124938663D01*
X110490000Y-125145513D01*
X110404320Y-124938663D01*
X110011337Y-124545680D01*
X109497881Y-124333000D01*
X108942119Y-124333000D01*
X108910782Y-124345980D01*
X104900000Y-120335199D01*
X104900000Y-117847745D01*
X105851861Y-117847745D01*
X105925995Y-118093864D01*
X106463223Y-118286965D01*
X107033454Y-118259778D01*
X107434005Y-118093864D01*
X107508139Y-117847745D01*
X106680000Y-117019605D01*
X105851861Y-117847745D01*
X104900000Y-117847745D01*
X104900000Y-116623223D01*
X105233035Y-116623223D01*
X105260222Y-117193454D01*
X105426136Y-117594005D01*
X105672255Y-117668139D01*
X106500395Y-116840000D01*
X106859605Y-116840000D01*
X107687745Y-117668139D01*
X107933864Y-117594005D01*
X108126965Y-117056777D01*
X108099778Y-116486546D01*
X107933864Y-116085995D01*
X107687745Y-116011861D01*
X106859605Y-116840000D01*
X106500395Y-116840000D01*
X105672255Y-116011861D01*
X105426136Y-116085995D01*
X105233035Y-116623223D01*
X104900000Y-116623223D01*
X104900000Y-115832255D01*
X105851861Y-115832255D01*
X106680000Y-116660395D01*
X107508139Y-115832255D01*
X107434005Y-115586136D01*
X106896777Y-115393035D01*
X106326546Y-115420222D01*
X105925995Y-115586136D01*
X105851861Y-115832255D01*
X104900000Y-115832255D01*
X104900000Y-101914801D01*
X106994803Y-99820000D01*
X129225199Y-99820000D01*
X129570199Y-100165000D01*
G36*
X160602577Y-89464156D02*
X160651951Y-89538049D01*
X160725844Y-89587423D01*
X160725845Y-89587424D01*
X160856744Y-89674888D01*
X160944690Y-89733652D01*
X161202835Y-89785000D01*
X161202839Y-89785000D01*
X161290000Y-89802337D01*
X161377161Y-89785000D01*
X178982839Y-89785000D01*
X179070000Y-89802337D01*
X179157161Y-89785000D01*
X179157165Y-89785000D01*
X179415310Y-89733652D01*
X179708049Y-89538049D01*
X179757425Y-89464153D01*
X180725000Y-88496578D01*
X180725001Y-119292834D01*
X180707663Y-119380000D01*
X180776348Y-119725309D01*
X180922576Y-119944154D01*
X180922578Y-119944156D01*
X180971952Y-120018049D01*
X181045845Y-120067423D01*
X185311421Y-124333000D01*
X185142119Y-124333000D01*
X184628663Y-124545680D01*
X184235680Y-124938663D01*
X184023000Y-125452119D01*
X184023000Y-126007881D01*
X184035980Y-126039218D01*
X182565199Y-127510000D01*
X153865657Y-127510000D01*
X154219320Y-127156337D01*
X154432000Y-126642881D01*
X154432000Y-126087119D01*
X154219320Y-125573663D01*
X153826337Y-125180680D01*
X153619487Y-125095000D01*
X153826337Y-125009320D01*
X154219320Y-124616337D01*
X154432000Y-124102881D01*
X154432000Y-123547119D01*
X154219320Y-123033663D01*
X153826337Y-122640680D01*
X153312881Y-122428000D01*
X152757119Y-122428000D01*
X152243663Y-122640680D01*
X151850680Y-123033663D01*
X151638000Y-123547119D01*
X151638000Y-124102881D01*
X151850680Y-124616337D01*
X152243663Y-125009320D01*
X152450513Y-125095000D01*
X152243663Y-125180680D01*
X151850680Y-125573663D01*
X151638000Y-126087119D01*
X151638000Y-126642881D01*
X151850680Y-127156337D01*
X152204343Y-127510000D01*
X151444802Y-127510000D01*
X150254002Y-126319201D01*
X150254002Y-119088848D01*
X150268890Y-119014001D01*
X150254002Y-118939154D01*
X150254002Y-118939150D01*
X150209906Y-118717465D01*
X150143446Y-118618000D01*
X150084331Y-118529528D01*
X150084329Y-118529526D01*
X150041931Y-118466073D01*
X149978478Y-118423675D01*
X148751922Y-117197119D01*
X151638000Y-117197119D01*
X151638000Y-117752881D01*
X151850680Y-118266337D01*
X152243663Y-118659320D01*
X152450513Y-118745000D01*
X152243663Y-118830680D01*
X151850680Y-119223663D01*
X151638000Y-119737119D01*
X151638000Y-120292881D01*
X151850680Y-120806337D01*
X152243663Y-121199320D01*
X152757119Y-121412000D01*
X153312881Y-121412000D01*
X153826337Y-121199320D01*
X154219320Y-120806337D01*
X154404110Y-120360213D01*
X161759392Y-120360213D01*
X161828857Y-120602397D01*
X162352302Y-120789144D01*
X162907368Y-120761362D01*
X163291143Y-120602397D01*
X163360608Y-120360213D01*
X162560000Y-119559605D01*
X161759392Y-120360213D01*
X154404110Y-120360213D01*
X154432000Y-120292881D01*
X154432000Y-119737119D01*
X154219320Y-119223663D01*
X154167959Y-119172302D01*
X161150856Y-119172302D01*
X161178638Y-119727368D01*
X161337603Y-120111143D01*
X161579787Y-120180608D01*
X162380395Y-119380000D01*
X162739605Y-119380000D01*
X163540213Y-120180608D01*
X163782397Y-120111143D01*
X163969144Y-119587698D01*
X163941362Y-119032632D01*
X163782397Y-118648857D01*
X163540213Y-118579392D01*
X162739605Y-119380000D01*
X162380395Y-119380000D01*
X161579787Y-118579392D01*
X161337603Y-118648857D01*
X161150856Y-119172302D01*
X154167959Y-119172302D01*
X153826337Y-118830680D01*
X153619487Y-118745000D01*
X153826337Y-118659320D01*
X154085870Y-118399787D01*
X161759392Y-118399787D01*
X162560000Y-119200395D01*
X163360608Y-118399787D01*
X163291143Y-118157603D01*
X162767698Y-117970856D01*
X162212632Y-117998638D01*
X161828857Y-118157603D01*
X161759392Y-118399787D01*
X154085870Y-118399787D01*
X154219320Y-118266337D01*
X154432000Y-117752881D01*
X154432000Y-117197119D01*
X154219320Y-116683663D01*
X153826337Y-116290680D01*
X153312881Y-116078000D01*
X152757119Y-116078000D01*
X152243663Y-116290680D01*
X151850680Y-116683663D01*
X151638000Y-117197119D01*
X148751922Y-117197119D01*
X143036922Y-111482119D01*
X161163000Y-111482119D01*
X161163000Y-112037881D01*
X161375680Y-112551337D01*
X161768663Y-112944320D01*
X162282119Y-113157000D01*
X162837881Y-113157000D01*
X163351337Y-112944320D01*
X163744320Y-112551337D01*
X163957000Y-112037881D01*
X163957000Y-111482119D01*
X163744320Y-110968663D01*
X163351337Y-110575680D01*
X162837881Y-110363000D01*
X162282119Y-110363000D01*
X161768663Y-110575680D01*
X161375680Y-110968663D01*
X161163000Y-111482119D01*
X143036922Y-111482119D01*
X135380000Y-103825199D01*
X135380000Y-102818043D01*
X135654577Y-102634577D01*
X135890000Y-102282242D01*
X136125423Y-102634577D01*
X136600091Y-102951740D01*
X137018667Y-103035000D01*
X137301333Y-103035000D01*
X137719909Y-102951740D01*
X138194577Y-102634577D01*
X138430000Y-102282242D01*
X138665423Y-102634577D01*
X139140091Y-102951740D01*
X139558667Y-103035000D01*
X139841333Y-103035000D01*
X140259909Y-102951740D01*
X140734577Y-102634577D01*
X140990947Y-102250892D01*
X141087611Y-102455134D01*
X141502577Y-102831041D01*
X141890961Y-102991904D01*
X142113000Y-102869915D01*
X142113000Y-101727000D01*
X142093000Y-101727000D01*
X142093000Y-101473000D01*
X142113000Y-101473000D01*
X142113000Y-100330085D01*
X142367000Y-100330085D01*
X142367000Y-101473000D01*
X142387000Y-101473000D01*
X142387000Y-101727000D01*
X142367000Y-101727000D01*
X142367000Y-102869915D01*
X142589039Y-102991904D01*
X142977423Y-102831041D01*
X143392389Y-102455134D01*
X143489053Y-102250892D01*
X143745423Y-102634577D01*
X144220091Y-102951740D01*
X144638667Y-103035000D01*
X144921333Y-103035000D01*
X145339909Y-102951740D01*
X145814577Y-102634577D01*
X146131740Y-102159909D01*
X146243113Y-101600000D01*
X146131740Y-101040091D01*
X145814577Y-100565423D01*
X145339909Y-100248260D01*
X144921333Y-100165000D01*
X144638667Y-100165000D01*
X144220091Y-100248260D01*
X143745423Y-100565423D01*
X143489053Y-100949108D01*
X143392389Y-100744866D01*
X142977423Y-100368959D01*
X142589039Y-100208096D01*
X142367000Y-100330085D01*
X142113000Y-100330085D01*
X141890961Y-100208096D01*
X141502577Y-100368959D01*
X141087611Y-100744866D01*
X140990947Y-100949108D01*
X140734577Y-100565423D01*
X140259909Y-100248260D01*
X139841333Y-100165000D01*
X139558667Y-100165000D01*
X139140091Y-100248260D01*
X138665423Y-100565423D01*
X138430000Y-100917758D01*
X138194577Y-100565423D01*
X138060856Y-100476074D01*
X138062337Y-100468629D01*
X138045000Y-100381469D01*
X138045000Y-95616578D01*
X142606579Y-91055000D01*
X149772839Y-91055000D01*
X149860000Y-91072337D01*
X149947161Y-91055000D01*
X149947165Y-91055000D01*
X150205310Y-91003652D01*
X150498049Y-90808049D01*
X150547425Y-90734153D01*
X156210000Y-85071579D01*
X160602577Y-89464156D01*
X160602577Y-89464156D01*
G37*
X160602577Y-89464156D02*
X160651951Y-89538049D01*
X160725844Y-89587423D01*
X160725845Y-89587424D01*
X160856744Y-89674888D01*
X160944690Y-89733652D01*
X161202835Y-89785000D01*
X161202839Y-89785000D01*
X161290000Y-89802337D01*
X161377161Y-89785000D01*
X178982839Y-89785000D01*
X179070000Y-89802337D01*
X179157161Y-89785000D01*
X179157165Y-89785000D01*
X179415310Y-89733652D01*
X179708049Y-89538049D01*
X179757425Y-89464153D01*
X180725000Y-88496578D01*
X180725001Y-119292834D01*
X180707663Y-119380000D01*
X180776348Y-119725309D01*
X180922576Y-119944154D01*
X180922578Y-119944156D01*
X180971952Y-120018049D01*
X181045845Y-120067423D01*
X185311421Y-124333000D01*
X185142119Y-124333000D01*
X184628663Y-124545680D01*
X184235680Y-124938663D01*
X184023000Y-125452119D01*
X184023000Y-126007881D01*
X184035980Y-126039218D01*
X182565199Y-127510000D01*
X153865657Y-127510000D01*
X154219320Y-127156337D01*
X154432000Y-126642881D01*
X154432000Y-126087119D01*
X154219320Y-125573663D01*
X153826337Y-125180680D01*
X153619487Y-125095000D01*
X153826337Y-125009320D01*
X154219320Y-124616337D01*
X154432000Y-124102881D01*
X154432000Y-123547119D01*
X154219320Y-123033663D01*
X153826337Y-122640680D01*
X153312881Y-122428000D01*
X152757119Y-122428000D01*
X152243663Y-122640680D01*
X151850680Y-123033663D01*
X151638000Y-123547119D01*
X151638000Y-124102881D01*
X151850680Y-124616337D01*
X152243663Y-125009320D01*
X152450513Y-125095000D01*
X152243663Y-125180680D01*
X151850680Y-125573663D01*
X151638000Y-126087119D01*
X151638000Y-126642881D01*
X151850680Y-127156337D01*
X152204343Y-127510000D01*
X151444802Y-127510000D01*
X150254002Y-126319201D01*
X150254002Y-119088848D01*
X150268890Y-119014001D01*
X150254002Y-118939154D01*
X150254002Y-118939150D01*
X150209906Y-118717465D01*
X150143446Y-118618000D01*
X150084331Y-118529528D01*
X150084329Y-118529526D01*
X150041931Y-118466073D01*
X149978478Y-118423675D01*
X148751922Y-117197119D01*
X151638000Y-117197119D01*
X151638000Y-117752881D01*
X151850680Y-118266337D01*
X152243663Y-118659320D01*
X152450513Y-118745000D01*
X152243663Y-118830680D01*
X151850680Y-119223663D01*
X151638000Y-119737119D01*
X151638000Y-120292881D01*
X151850680Y-120806337D01*
X152243663Y-121199320D01*
X152757119Y-121412000D01*
X153312881Y-121412000D01*
X153826337Y-121199320D01*
X154219320Y-120806337D01*
X154404110Y-120360213D01*
X161759392Y-120360213D01*
X161828857Y-120602397D01*
X162352302Y-120789144D01*
X162907368Y-120761362D01*
X163291143Y-120602397D01*
X163360608Y-120360213D01*
X162560000Y-119559605D01*
X161759392Y-120360213D01*
X154404110Y-120360213D01*
X154432000Y-120292881D01*
X154432000Y-119737119D01*
X154219320Y-119223663D01*
X154167959Y-119172302D01*
X161150856Y-119172302D01*
X161178638Y-119727368D01*
X161337603Y-120111143D01*
X161579787Y-120180608D01*
X162380395Y-119380000D01*
X162739605Y-119380000D01*
X163540213Y-120180608D01*
X163782397Y-120111143D01*
X163969144Y-119587698D01*
X163941362Y-119032632D01*
X163782397Y-118648857D01*
X163540213Y-118579392D01*
X162739605Y-119380000D01*
X162380395Y-119380000D01*
X161579787Y-118579392D01*
X161337603Y-118648857D01*
X161150856Y-119172302D01*
X154167959Y-119172302D01*
X153826337Y-118830680D01*
X153619487Y-118745000D01*
X153826337Y-118659320D01*
X154085870Y-118399787D01*
X161759392Y-118399787D01*
X162560000Y-119200395D01*
X163360608Y-118399787D01*
X163291143Y-118157603D01*
X162767698Y-117970856D01*
X162212632Y-117998638D01*
X161828857Y-118157603D01*
X161759392Y-118399787D01*
X154085870Y-118399787D01*
X154219320Y-118266337D01*
X154432000Y-117752881D01*
X154432000Y-117197119D01*
X154219320Y-116683663D01*
X153826337Y-116290680D01*
X153312881Y-116078000D01*
X152757119Y-116078000D01*
X152243663Y-116290680D01*
X151850680Y-116683663D01*
X151638000Y-117197119D01*
X148751922Y-117197119D01*
X143036922Y-111482119D01*
X161163000Y-111482119D01*
X161163000Y-112037881D01*
X161375680Y-112551337D01*
X161768663Y-112944320D01*
X162282119Y-113157000D01*
X162837881Y-113157000D01*
X163351337Y-112944320D01*
X163744320Y-112551337D01*
X163957000Y-112037881D01*
X163957000Y-111482119D01*
X163744320Y-110968663D01*
X163351337Y-110575680D01*
X162837881Y-110363000D01*
X162282119Y-110363000D01*
X161768663Y-110575680D01*
X161375680Y-110968663D01*
X161163000Y-111482119D01*
X143036922Y-111482119D01*
X135380000Y-103825199D01*
X135380000Y-102818043D01*
X135654577Y-102634577D01*
X135890000Y-102282242D01*
X136125423Y-102634577D01*
X136600091Y-102951740D01*
X137018667Y-103035000D01*
X137301333Y-103035000D01*
X137719909Y-102951740D01*
X138194577Y-102634577D01*
X138430000Y-102282242D01*
X138665423Y-102634577D01*
X139140091Y-102951740D01*
X139558667Y-103035000D01*
X139841333Y-103035000D01*
X140259909Y-102951740D01*
X140734577Y-102634577D01*
X140990947Y-102250892D01*
X141087611Y-102455134D01*
X141502577Y-102831041D01*
X141890961Y-102991904D01*
X142113000Y-102869915D01*
X142113000Y-101727000D01*
X142093000Y-101727000D01*
X142093000Y-101473000D01*
X142113000Y-101473000D01*
X142113000Y-100330085D01*
X142367000Y-100330085D01*
X142367000Y-101473000D01*
X142387000Y-101473000D01*
X142387000Y-101727000D01*
X142367000Y-101727000D01*
X142367000Y-102869915D01*
X142589039Y-102991904D01*
X142977423Y-102831041D01*
X143392389Y-102455134D01*
X143489053Y-102250892D01*
X143745423Y-102634577D01*
X144220091Y-102951740D01*
X144638667Y-103035000D01*
X144921333Y-103035000D01*
X145339909Y-102951740D01*
X145814577Y-102634577D01*
X146131740Y-102159909D01*
X146243113Y-101600000D01*
X146131740Y-101040091D01*
X145814577Y-100565423D01*
X145339909Y-100248260D01*
X144921333Y-100165000D01*
X144638667Y-100165000D01*
X144220091Y-100248260D01*
X143745423Y-100565423D01*
X143489053Y-100949108D01*
X143392389Y-100744866D01*
X142977423Y-100368959D01*
X142589039Y-100208096D01*
X142367000Y-100330085D01*
X142113000Y-100330085D01*
X141890961Y-100208096D01*
X141502577Y-100368959D01*
X141087611Y-100744866D01*
X140990947Y-100949108D01*
X140734577Y-100565423D01*
X140259909Y-100248260D01*
X139841333Y-100165000D01*
X139558667Y-100165000D01*
X139140091Y-100248260D01*
X138665423Y-100565423D01*
X138430000Y-100917758D01*
X138194577Y-100565423D01*
X138060856Y-100476074D01*
X138062337Y-100468629D01*
X138045000Y-100381469D01*
X138045000Y-95616578D01*
X142606579Y-91055000D01*
X149772839Y-91055000D01*
X149860000Y-91072337D01*
X149947161Y-91055000D01*
X149947165Y-91055000D01*
X150205310Y-91003652D01*
X150498049Y-90808049D01*
X150547425Y-90734153D01*
X156210000Y-85071579D01*
X160602577Y-89464156D01*
G36*
X107868260Y-85800091D02*
X107756887Y-86360000D01*
X107868260Y-86919909D01*
X108175683Y-87380000D01*
X108037160Y-87380000D01*
X107949999Y-87362663D01*
X107862838Y-87380000D01*
X107862835Y-87380000D01*
X107604690Y-87431348D01*
X107385845Y-87577576D01*
X107385844Y-87577577D01*
X107311951Y-87626951D01*
X107262577Y-87700844D01*
X105645847Y-89317575D01*
X105645844Y-89317577D01*
X105586438Y-89376983D01*
X105551333Y-89370000D01*
X105268667Y-89370000D01*
X104850091Y-89453260D01*
X104375423Y-89770423D01*
X104058260Y-90245091D01*
X103946887Y-90805000D01*
X104058260Y-91364909D01*
X104375423Y-91839577D01*
X104850091Y-92156740D01*
X105268667Y-92240000D01*
X105551333Y-92240000D01*
X105969909Y-92156740D01*
X106444577Y-91839577D01*
X106761740Y-91364909D01*
X106873113Y-90805000D01*
X106838017Y-90628562D01*
X106897423Y-90569156D01*
X106897425Y-90569153D01*
X108316579Y-89150000D01*
X116752839Y-89150000D01*
X116840000Y-89167337D01*
X116927161Y-89150000D01*
X116927165Y-89150000D01*
X117185310Y-89098652D01*
X117478049Y-88903049D01*
X117527425Y-88829153D01*
X118674156Y-87682423D01*
X118725185Y-87648326D01*
X118820091Y-87711740D01*
X119238667Y-87795000D01*
X119521333Y-87795000D01*
X119703886Y-87758688D01*
X120535209Y-88590011D01*
X119004836Y-88590011D01*
X118929989Y-88575123D01*
X118855142Y-88590011D01*
X118855137Y-88590011D01*
X118633452Y-88634107D01*
X118382060Y-88802082D01*
X118339660Y-88865538D01*
X116911461Y-90293737D01*
X116786534Y-89992138D01*
X116382862Y-89588466D01*
X115855439Y-89370000D01*
X115284561Y-89370000D01*
X114757138Y-89588466D01*
X114353466Y-89992138D01*
X114135000Y-90519561D01*
X114135000Y-91090439D01*
X114353466Y-91617862D01*
X114757138Y-92021534D01*
X115058738Y-92146461D01*
X110450199Y-96755000D01*
X110284126Y-96755000D01*
X109903720Y-96912569D01*
X109612569Y-97203720D01*
X109455000Y-97584126D01*
X109455000Y-97995874D01*
X109580973Y-98300000D01*
X106754846Y-98300000D01*
X106679999Y-98285112D01*
X106605152Y-98300000D01*
X106605148Y-98300000D01*
X106383463Y-98344096D01*
X106383461Y-98344097D01*
X106383462Y-98344097D01*
X106195526Y-98469671D01*
X106195524Y-98469673D01*
X106132071Y-98512071D01*
X106089673Y-98575524D01*
X103655528Y-101009671D01*
X103592072Y-101052071D01*
X103580000Y-101070138D01*
X103580000Y-85800000D01*
X107868321Y-85800000D01*
X107868260Y-85800091D01*
X107868260Y-85800091D01*
G37*
X107868260Y-85800091D02*
X107756887Y-86360000D01*
X107868260Y-86919909D01*
X108175683Y-87380000D01*
X108037160Y-87380000D01*
X107949999Y-87362663D01*
X107862838Y-87380000D01*
X107862835Y-87380000D01*
X107604690Y-87431348D01*
X107385845Y-87577576D01*
X107385844Y-87577577D01*
X107311951Y-87626951D01*
X107262577Y-87700844D01*
X105645847Y-89317575D01*
X105645844Y-89317577D01*
X105586438Y-89376983D01*
X105551333Y-89370000D01*
X105268667Y-89370000D01*
X104850091Y-89453260D01*
X104375423Y-89770423D01*
X104058260Y-90245091D01*
X103946887Y-90805000D01*
X104058260Y-91364909D01*
X104375423Y-91839577D01*
X104850091Y-92156740D01*
X105268667Y-92240000D01*
X105551333Y-92240000D01*
X105969909Y-92156740D01*
X106444577Y-91839577D01*
X106761740Y-91364909D01*
X106873113Y-90805000D01*
X106838017Y-90628562D01*
X106897423Y-90569156D01*
X106897425Y-90569153D01*
X108316579Y-89150000D01*
X116752839Y-89150000D01*
X116840000Y-89167337D01*
X116927161Y-89150000D01*
X116927165Y-89150000D01*
X117185310Y-89098652D01*
X117478049Y-88903049D01*
X117527425Y-88829153D01*
X118674156Y-87682423D01*
X118725185Y-87648326D01*
X118820091Y-87711740D01*
X119238667Y-87795000D01*
X119521333Y-87795000D01*
X119703886Y-87758688D01*
X120535209Y-88590011D01*
X119004836Y-88590011D01*
X118929989Y-88575123D01*
X118855142Y-88590011D01*
X118855137Y-88590011D01*
X118633452Y-88634107D01*
X118382060Y-88802082D01*
X118339660Y-88865538D01*
X116911461Y-90293737D01*
X116786534Y-89992138D01*
X116382862Y-89588466D01*
X115855439Y-89370000D01*
X115284561Y-89370000D01*
X114757138Y-89588466D01*
X114353466Y-89992138D01*
X114135000Y-90519561D01*
X114135000Y-91090439D01*
X114353466Y-91617862D01*
X114757138Y-92021534D01*
X115058738Y-92146461D01*
X110450199Y-96755000D01*
X110284126Y-96755000D01*
X109903720Y-96912569D01*
X109612569Y-97203720D01*
X109455000Y-97584126D01*
X109455000Y-97995874D01*
X109580973Y-98300000D01*
X106754846Y-98300000D01*
X106679999Y-98285112D01*
X106605152Y-98300000D01*
X106605148Y-98300000D01*
X106383463Y-98344096D01*
X106383461Y-98344097D01*
X106383462Y-98344097D01*
X106195526Y-98469671D01*
X106195524Y-98469673D01*
X106132071Y-98512071D01*
X106089673Y-98575524D01*
X103655528Y-101009671D01*
X103592072Y-101052071D01*
X103580000Y-101070138D01*
X103580000Y-85800000D01*
X107868321Y-85800000D01*
X107868260Y-85800091D01*
G36*
X136077274Y-100637483D02*
X135890000Y-100917758D01*
X135654577Y-100565423D01*
X135179909Y-100248260D01*
X134761333Y-100165000D01*
X134478667Y-100165000D01*
X134060091Y-100248260D01*
X133585423Y-100565423D01*
X133350000Y-100917758D01*
X133114577Y-100565423D01*
X132639909Y-100248260D01*
X132221333Y-100165000D01*
X131938667Y-100165000D01*
X131756114Y-100201312D01*
X130130331Y-98575530D01*
X130087929Y-98512071D01*
X129836537Y-98344096D01*
X129614852Y-98300000D01*
X129614847Y-98300000D01*
X129540000Y-98285112D01*
X129465153Y-98300000D01*
X129139317Y-98300000D01*
X129304577Y-98189577D01*
X129404521Y-98040000D01*
X133479792Y-98040000D01*
X136077274Y-100637483D01*
X136077274Y-100637483D01*
G37*
X136077274Y-100637483D02*
X135890000Y-100917758D01*
X135654577Y-100565423D01*
X135179909Y-100248260D01*
X134761333Y-100165000D01*
X134478667Y-100165000D01*
X134060091Y-100248260D01*
X133585423Y-100565423D01*
X133350000Y-100917758D01*
X133114577Y-100565423D01*
X132639909Y-100248260D01*
X132221333Y-100165000D01*
X131938667Y-100165000D01*
X131756114Y-100201312D01*
X130130331Y-98575530D01*
X130087929Y-98512071D01*
X129836537Y-98344096D01*
X129614852Y-98300000D01*
X129614847Y-98300000D01*
X129540000Y-98285112D01*
X129465153Y-98300000D01*
X129139317Y-98300000D01*
X129304577Y-98189577D01*
X129404521Y-98040000D01*
X133479792Y-98040000D01*
X136077274Y-100637483D01*
G36*
X136595845Y-94562577D02*
X136521952Y-94611951D01*
X136472578Y-94685844D01*
X136472576Y-94685846D01*
X136326348Y-94904691D01*
X136257663Y-95250000D01*
X136275001Y-95337165D01*
X136275001Y-98332052D01*
X134533795Y-96590847D01*
X134484419Y-96516951D01*
X134191680Y-96321348D01*
X133933535Y-96270000D01*
X133933531Y-96270000D01*
X133846370Y-96252663D01*
X133759209Y-96270000D01*
X129771578Y-96270000D01*
X130633562Y-95408017D01*
X130668667Y-95415000D01*
X130951333Y-95415000D01*
X131369909Y-95331740D01*
X131844577Y-95014577D01*
X132161740Y-94539909D01*
X132273113Y-93980000D01*
X132238017Y-93803561D01*
X132644156Y-93397423D01*
X132718049Y-93348049D01*
X132913652Y-93055310D01*
X132965000Y-92797165D01*
X132965000Y-92797161D01*
X132982337Y-92710001D01*
X132965000Y-92622841D01*
X132965000Y-92191532D01*
X133208667Y-92240000D01*
X133491333Y-92240000D01*
X133909909Y-92156740D01*
X134384577Y-91839577D01*
X134701740Y-91364909D01*
X134813113Y-90805000D01*
X134701740Y-90245091D01*
X134611482Y-90110011D01*
X141048410Y-90110011D01*
X136595845Y-94562577D01*
X136595845Y-94562577D01*
G37*
X136595845Y-94562577D02*
X136521952Y-94611951D01*
X136472578Y-94685844D01*
X136472576Y-94685846D01*
X136326348Y-94904691D01*
X136257663Y-95250000D01*
X136275001Y-95337165D01*
X136275001Y-98332052D01*
X134533795Y-96590847D01*
X134484419Y-96516951D01*
X134191680Y-96321348D01*
X133933535Y-96270000D01*
X133933531Y-96270000D01*
X133846370Y-96252663D01*
X133759209Y-96270000D01*
X129771578Y-96270000D01*
X130633562Y-95408017D01*
X130668667Y-95415000D01*
X130951333Y-95415000D01*
X131369909Y-95331740D01*
X131844577Y-95014577D01*
X132161740Y-94539909D01*
X132273113Y-93980000D01*
X132238017Y-93803561D01*
X132644156Y-93397423D01*
X132718049Y-93348049D01*
X132913652Y-93055310D01*
X132965000Y-92797165D01*
X132965000Y-92797161D01*
X132982337Y-92710001D01*
X132965000Y-92622841D01*
X132965000Y-92191532D01*
X133208667Y-92240000D01*
X133491333Y-92240000D01*
X133909909Y-92156740D01*
X134384577Y-91839577D01*
X134701740Y-91364909D01*
X134813113Y-90805000D01*
X134701740Y-90245091D01*
X134611482Y-90110011D01*
X141048410Y-90110011D01*
X136595845Y-94562577D01*
G36*
X121755000Y-90519561D02*
X121755000Y-91090439D01*
X121973466Y-91617862D01*
X122377138Y-92021534D01*
X122904561Y-92240000D01*
X123475439Y-92240000D01*
X124002862Y-92021534D01*
X124406534Y-91617862D01*
X124625000Y-91090439D01*
X124625000Y-90519561D01*
X124455359Y-90110011D01*
X131527167Y-90110011D01*
X131441951Y-90166951D01*
X131246348Y-90459690D01*
X131177662Y-90805000D01*
X131195000Y-90892165D01*
X131195001Y-92343420D01*
X130986438Y-92551983D01*
X130951333Y-92545000D01*
X130668667Y-92545000D01*
X130250091Y-92628260D01*
X129775423Y-92945423D01*
X129458260Y-93420091D01*
X129346887Y-93980000D01*
X129381983Y-94156438D01*
X127741387Y-95797035D01*
X127710091Y-95803260D01*
X127235423Y-96120423D01*
X126918260Y-96595091D01*
X126806887Y-97155000D01*
X126918260Y-97714909D01*
X127235423Y-98189577D01*
X127400683Y-98300000D01*
X118994396Y-98300000D01*
X119326534Y-97967862D01*
X119545000Y-97440439D01*
X119545000Y-96869561D01*
X119326534Y-96342138D01*
X118922862Y-95938466D01*
X118395439Y-95720000D01*
X117824561Y-95720000D01*
X117297138Y-95938466D01*
X116893466Y-96342138D01*
X116675000Y-96869561D01*
X116675000Y-97440439D01*
X116893466Y-97967862D01*
X117225604Y-98300000D01*
X111399027Y-98300000D01*
X111525000Y-97995874D01*
X111525000Y-97829801D01*
X115660240Y-93694561D01*
X119215000Y-93694561D01*
X119215000Y-94265439D01*
X119433466Y-94792862D01*
X119837138Y-95196534D01*
X120364561Y-95415000D01*
X120935439Y-95415000D01*
X121462862Y-95196534D01*
X121866534Y-94792862D01*
X122085000Y-94265439D01*
X122085000Y-93694561D01*
X121866534Y-93167138D01*
X121462862Y-92763466D01*
X120935439Y-92545000D01*
X120364561Y-92545000D01*
X119837138Y-92763466D01*
X119433466Y-93167138D01*
X119215000Y-93694561D01*
X115660240Y-93694561D01*
X119244791Y-90110011D01*
X121924641Y-90110011D01*
X121755000Y-90519561D01*
X121755000Y-90519561D01*
G37*
X121755000Y-90519561D02*
X121755000Y-91090439D01*
X121973466Y-91617862D01*
X122377138Y-92021534D01*
X122904561Y-92240000D01*
X123475439Y-92240000D01*
X124002862Y-92021534D01*
X124406534Y-91617862D01*
X124625000Y-91090439D01*
X124625000Y-90519561D01*
X124455359Y-90110011D01*
X131527167Y-90110011D01*
X131441951Y-90166951D01*
X131246348Y-90459690D01*
X131177662Y-90805000D01*
X131195000Y-90892165D01*
X131195001Y-92343420D01*
X130986438Y-92551983D01*
X130951333Y-92545000D01*
X130668667Y-92545000D01*
X130250091Y-92628260D01*
X129775423Y-92945423D01*
X129458260Y-93420091D01*
X129346887Y-93980000D01*
X129381983Y-94156438D01*
X127741387Y-95797035D01*
X127710091Y-95803260D01*
X127235423Y-96120423D01*
X126918260Y-96595091D01*
X126806887Y-97155000D01*
X126918260Y-97714909D01*
X127235423Y-98189577D01*
X127400683Y-98300000D01*
X118994396Y-98300000D01*
X119326534Y-97967862D01*
X119545000Y-97440439D01*
X119545000Y-96869561D01*
X119326534Y-96342138D01*
X118922862Y-95938466D01*
X118395439Y-95720000D01*
X117824561Y-95720000D01*
X117297138Y-95938466D01*
X116893466Y-96342138D01*
X116675000Y-96869561D01*
X116675000Y-97440439D01*
X116893466Y-97967862D01*
X117225604Y-98300000D01*
X111399027Y-98300000D01*
X111525000Y-97995874D01*
X111525000Y-97829801D01*
X115660240Y-93694561D01*
X119215000Y-93694561D01*
X119215000Y-94265439D01*
X119433466Y-94792862D01*
X119837138Y-95196534D01*
X120364561Y-95415000D01*
X120935439Y-95415000D01*
X121462862Y-95196534D01*
X121866534Y-94792862D01*
X122085000Y-94265439D01*
X122085000Y-93694561D01*
X121866534Y-93167138D01*
X121462862Y-92763466D01*
X120935439Y-92545000D01*
X120364561Y-92545000D01*
X119837138Y-92763466D01*
X119433466Y-93167138D01*
X119215000Y-93694561D01*
X115660240Y-93694561D01*
X119244791Y-90110011D01*
X121924641Y-90110011D01*
X121755000Y-90519561D01*
G36*
X153863748Y-68565858D02*
X153849605Y-68580000D01*
X153863748Y-68594143D01*
X153684143Y-68773748D01*
X153670000Y-68759605D01*
X152869392Y-69560213D01*
X152938857Y-69802397D01*
X153462302Y-69989144D01*
X154017368Y-69961362D01*
X154180000Y-69893997D01*
X154180001Y-83505197D01*
X153229452Y-84455747D01*
X152986280Y-84212575D01*
X152605874Y-84055006D01*
X152194126Y-84055006D01*
X151813720Y-84212575D01*
X151522569Y-84503726D01*
X151365000Y-84884132D01*
X151365000Y-85050204D01*
X148275205Y-88140000D01*
X133923272Y-88140000D01*
X133940331Y-88114470D01*
X134296114Y-87758688D01*
X134478667Y-87795000D01*
X134761333Y-87795000D01*
X135179909Y-87711740D01*
X135654577Y-87394577D01*
X135910947Y-87010892D01*
X136007611Y-87215134D01*
X136422577Y-87591041D01*
X136810961Y-87751904D01*
X137033000Y-87629915D01*
X137033000Y-86487000D01*
X137013000Y-86487000D01*
X137013000Y-86233000D01*
X137033000Y-86233000D01*
X137033000Y-86213000D01*
X137287000Y-86213000D01*
X137287000Y-86233000D01*
X137307000Y-86233000D01*
X137307000Y-86487000D01*
X137287000Y-86487000D01*
X137287000Y-87629915D01*
X137509039Y-87751904D01*
X137897423Y-87591041D01*
X138312389Y-87215134D01*
X138409053Y-87010892D01*
X138665423Y-87394577D01*
X139140091Y-87711740D01*
X139558667Y-87795000D01*
X139841333Y-87795000D01*
X140259909Y-87711740D01*
X140734577Y-87394577D01*
X140970000Y-87042242D01*
X141205423Y-87394577D01*
X141680091Y-87711740D01*
X142098667Y-87795000D01*
X142381333Y-87795000D01*
X142799909Y-87711740D01*
X143274577Y-87394577D01*
X143355215Y-87273894D01*
X143381843Y-87407765D01*
X143522191Y-87617809D01*
X143732235Y-87758157D01*
X143980000Y-87807440D01*
X145580000Y-87807440D01*
X145827765Y-87758157D01*
X146037809Y-87617809D01*
X146178157Y-87407765D01*
X146227440Y-87160000D01*
X146227440Y-85560000D01*
X146178157Y-85312235D01*
X146037809Y-85102191D01*
X145929785Y-85030011D01*
X148065142Y-85030011D01*
X148139989Y-85044899D01*
X148214836Y-85030011D01*
X148214841Y-85030011D01*
X148436526Y-84985915D01*
X148687918Y-84817940D01*
X148730320Y-84754481D01*
X152439803Y-81045000D01*
X152605874Y-81045000D01*
X152986280Y-80887431D01*
X153277431Y-80596280D01*
X153435000Y-80215874D01*
X153435000Y-79804126D01*
X153277431Y-79423720D01*
X152986280Y-79132569D01*
X152605874Y-78975000D01*
X152194126Y-78975000D01*
X151813720Y-79132569D01*
X151522569Y-79423720D01*
X151365000Y-79804126D01*
X151365000Y-79970197D01*
X147825188Y-83510011D01*
X139814790Y-83510011D01*
X142724473Y-80600329D01*
X142787929Y-80557929D01*
X142849758Y-80465395D01*
X142955904Y-80306538D01*
X142965480Y-80258395D01*
X143000000Y-80084852D01*
X143000000Y-80084848D01*
X143014888Y-80010000D01*
X143000000Y-79935152D01*
X143000000Y-69880853D01*
X143232119Y-69977000D01*
X143787881Y-69977000D01*
X144301337Y-69764320D01*
X144694320Y-69371337D01*
X144780000Y-69164487D01*
X144865680Y-69371337D01*
X145258663Y-69764320D01*
X145772119Y-69977000D01*
X146327881Y-69977000D01*
X146841337Y-69764320D01*
X147234320Y-69371337D01*
X147320000Y-69164487D01*
X147405680Y-69371337D01*
X147798663Y-69764320D01*
X148312119Y-69977000D01*
X148867881Y-69977000D01*
X149381337Y-69764320D01*
X149774320Y-69371337D01*
X149860000Y-69164487D01*
X149945680Y-69371337D01*
X150338663Y-69764320D01*
X150852119Y-69977000D01*
X151407881Y-69977000D01*
X151921337Y-69764320D01*
X152314320Y-69371337D01*
X152393428Y-69180353D01*
X152447603Y-69311143D01*
X152689787Y-69380608D01*
X153490395Y-68580000D01*
X153476253Y-68565858D01*
X153655858Y-68386253D01*
X153670000Y-68400395D01*
X153684143Y-68386253D01*
X153863748Y-68565858D01*
X153863748Y-68565858D01*
G37*
X153863748Y-68565858D02*
X153849605Y-68580000D01*
X153863748Y-68594143D01*
X153684143Y-68773748D01*
X153670000Y-68759605D01*
X152869392Y-69560213D01*
X152938857Y-69802397D01*
X153462302Y-69989144D01*
X154017368Y-69961362D01*
X154180000Y-69893997D01*
X154180001Y-83505197D01*
X153229452Y-84455747D01*
X152986280Y-84212575D01*
X152605874Y-84055006D01*
X152194126Y-84055006D01*
X151813720Y-84212575D01*
X151522569Y-84503726D01*
X151365000Y-84884132D01*
X151365000Y-85050204D01*
X148275205Y-88140000D01*
X133923272Y-88140000D01*
X133940331Y-88114470D01*
X134296114Y-87758688D01*
X134478667Y-87795000D01*
X134761333Y-87795000D01*
X135179909Y-87711740D01*
X135654577Y-87394577D01*
X135910947Y-87010892D01*
X136007611Y-87215134D01*
X136422577Y-87591041D01*
X136810961Y-87751904D01*
X137033000Y-87629915D01*
X137033000Y-86487000D01*
X137013000Y-86487000D01*
X137013000Y-86233000D01*
X137033000Y-86233000D01*
X137033000Y-86213000D01*
X137287000Y-86213000D01*
X137287000Y-86233000D01*
X137307000Y-86233000D01*
X137307000Y-86487000D01*
X137287000Y-86487000D01*
X137287000Y-87629915D01*
X137509039Y-87751904D01*
X137897423Y-87591041D01*
X138312389Y-87215134D01*
X138409053Y-87010892D01*
X138665423Y-87394577D01*
X139140091Y-87711740D01*
X139558667Y-87795000D01*
X139841333Y-87795000D01*
X140259909Y-87711740D01*
X140734577Y-87394577D01*
X140970000Y-87042242D01*
X141205423Y-87394577D01*
X141680091Y-87711740D01*
X142098667Y-87795000D01*
X142381333Y-87795000D01*
X142799909Y-87711740D01*
X143274577Y-87394577D01*
X143355215Y-87273894D01*
X143381843Y-87407765D01*
X143522191Y-87617809D01*
X143732235Y-87758157D01*
X143980000Y-87807440D01*
X145580000Y-87807440D01*
X145827765Y-87758157D01*
X146037809Y-87617809D01*
X146178157Y-87407765D01*
X146227440Y-87160000D01*
X146227440Y-85560000D01*
X146178157Y-85312235D01*
X146037809Y-85102191D01*
X145929785Y-85030011D01*
X148065142Y-85030011D01*
X148139989Y-85044899D01*
X148214836Y-85030011D01*
X148214841Y-85030011D01*
X148436526Y-84985915D01*
X148687918Y-84817940D01*
X148730320Y-84754481D01*
X152439803Y-81045000D01*
X152605874Y-81045000D01*
X152986280Y-80887431D01*
X153277431Y-80596280D01*
X153435000Y-80215874D01*
X153435000Y-79804126D01*
X153277431Y-79423720D01*
X152986280Y-79132569D01*
X152605874Y-78975000D01*
X152194126Y-78975000D01*
X151813720Y-79132569D01*
X151522569Y-79423720D01*
X151365000Y-79804126D01*
X151365000Y-79970197D01*
X147825188Y-83510011D01*
X139814790Y-83510011D01*
X142724473Y-80600329D01*
X142787929Y-80557929D01*
X142849758Y-80465395D01*
X142955904Y-80306538D01*
X142965480Y-80258395D01*
X143000000Y-80084852D01*
X143000000Y-80084848D01*
X143014888Y-80010000D01*
X143000000Y-79935152D01*
X143000000Y-69880853D01*
X143232119Y-69977000D01*
X143787881Y-69977000D01*
X144301337Y-69764320D01*
X144694320Y-69371337D01*
X144780000Y-69164487D01*
X144865680Y-69371337D01*
X145258663Y-69764320D01*
X145772119Y-69977000D01*
X146327881Y-69977000D01*
X146841337Y-69764320D01*
X147234320Y-69371337D01*
X147320000Y-69164487D01*
X147405680Y-69371337D01*
X147798663Y-69764320D01*
X148312119Y-69977000D01*
X148867881Y-69977000D01*
X149381337Y-69764320D01*
X149774320Y-69371337D01*
X149860000Y-69164487D01*
X149945680Y-69371337D01*
X150338663Y-69764320D01*
X150852119Y-69977000D01*
X151407881Y-69977000D01*
X151921337Y-69764320D01*
X152314320Y-69371337D01*
X152393428Y-69180353D01*
X152447603Y-69311143D01*
X152689787Y-69380608D01*
X153490395Y-68580000D01*
X153476253Y-68565858D01*
X153655858Y-68386253D01*
X153670000Y-68400395D01*
X153684143Y-68386253D01*
X153863748Y-68565858D01*
G36*
X133910001Y-53270070D02*
X133896091Y-53340000D01*
X133951195Y-53617028D01*
X134108119Y-53851881D01*
X134342972Y-54008805D01*
X134550074Y-54050000D01*
X134550075Y-54050000D01*
X134620000Y-54063909D01*
X134689926Y-54050000D01*
X160598421Y-54050000D01*
X159653422Y-54995000D01*
X156297165Y-54995000D01*
X156210000Y-54977662D01*
X156122836Y-54995000D01*
X133432630Y-54995000D01*
X133477000Y-54887881D01*
X133477000Y-54332119D01*
X133264320Y-53818663D01*
X132871337Y-53425680D01*
X132357881Y-53213000D01*
X131802119Y-53213000D01*
X131288663Y-53425680D01*
X130895680Y-53818663D01*
X130810000Y-54025513D01*
X130724320Y-53818663D01*
X130331337Y-53425680D01*
X129817881Y-53213000D01*
X129262119Y-53213000D01*
X128748663Y-53425680D01*
X128355680Y-53818663D01*
X128270000Y-54025513D01*
X128184320Y-53818663D01*
X127791337Y-53425680D01*
X127277881Y-53213000D01*
X126722119Y-53213000D01*
X126208663Y-53425680D01*
X125815680Y-53818663D01*
X125730000Y-54025513D01*
X125644320Y-53818663D01*
X125251337Y-53425680D01*
X124737881Y-53213000D01*
X124182119Y-53213000D01*
X123668663Y-53425680D01*
X123275680Y-53818663D01*
X123196572Y-54009647D01*
X123142397Y-53878857D01*
X122900213Y-53809392D01*
X122099605Y-54610000D01*
X122113748Y-54624143D01*
X121934143Y-54803748D01*
X121920000Y-54789605D01*
X121905858Y-54803748D01*
X121726253Y-54624143D01*
X121740395Y-54610000D01*
X120939787Y-53809392D01*
X120789440Y-53852516D01*
X120789440Y-53848000D01*
X120746036Y-53629787D01*
X121119392Y-53629787D01*
X121920000Y-54430395D01*
X122720608Y-53629787D01*
X122651143Y-53387603D01*
X122127698Y-53200856D01*
X121572632Y-53228638D01*
X121188857Y-53387603D01*
X121119392Y-53629787D01*
X120746036Y-53629787D01*
X120740157Y-53600235D01*
X120599809Y-53390191D01*
X120389765Y-53249843D01*
X120142000Y-53200560D01*
X118618000Y-53200560D01*
X118370235Y-53249843D01*
X118160191Y-53390191D01*
X118019843Y-53600235D01*
X117970560Y-53848000D01*
X117970560Y-55372000D01*
X118019843Y-55619765D01*
X118160191Y-55829809D01*
X118370235Y-55970157D01*
X118618000Y-56019440D01*
X119537861Y-56019440D01*
X119962577Y-56444156D01*
X120011951Y-56518049D01*
X120085844Y-56567423D01*
X120085845Y-56567424D01*
X120137698Y-56602071D01*
X120304690Y-56713652D01*
X120562835Y-56765000D01*
X120562839Y-56765000D01*
X120649999Y-56782337D01*
X120737159Y-56765000D01*
X140009196Y-56765000D01*
X139935000Y-56944126D01*
X139935000Y-57355874D01*
X140092569Y-57736280D01*
X140210001Y-57853712D01*
X140210000Y-80328788D01*
X137928799Y-82609990D01*
X122444857Y-82609990D01*
X122370010Y-82595102D01*
X122295163Y-82609990D01*
X122295158Y-82609990D01*
X122073473Y-82654086D01*
X121822081Y-82822061D01*
X121779681Y-82885517D01*
X120310527Y-84354672D01*
X120247071Y-84397072D01*
X120204671Y-84460528D01*
X120204670Y-84460529D01*
X120079096Y-84648464D01*
X120020111Y-84945001D01*
X120035000Y-85019853D01*
X120035000Y-85071798D01*
X119939909Y-85008260D01*
X119521333Y-84925000D01*
X119238667Y-84925000D01*
X118995000Y-84973468D01*
X118995000Y-82029974D01*
X119119765Y-82005157D01*
X119329809Y-81864809D01*
X119470157Y-81654765D01*
X119476035Y-81625213D01*
X119849392Y-81625213D01*
X119918857Y-81867397D01*
X120442302Y-82054144D01*
X120997368Y-82026362D01*
X121381143Y-81867397D01*
X121450608Y-81625213D01*
X120650000Y-80824605D01*
X119849392Y-81625213D01*
X119476035Y-81625213D01*
X119519440Y-81407000D01*
X119519440Y-81402484D01*
X119669787Y-81445608D01*
X120470395Y-80645000D01*
X120829605Y-80645000D01*
X121630213Y-81445608D01*
X121872397Y-81376143D01*
X121922535Y-81235607D01*
X122005680Y-81436337D01*
X122398663Y-81829320D01*
X122912119Y-82042000D01*
X123467881Y-82042000D01*
X123981337Y-81829320D01*
X124374320Y-81436337D01*
X124587000Y-80922881D01*
X124587000Y-80367119D01*
X124374320Y-79853663D01*
X123981337Y-79460680D01*
X123467881Y-79248000D01*
X122912119Y-79248000D01*
X122398663Y-79460680D01*
X122005680Y-79853663D01*
X121926572Y-80044647D01*
X121872397Y-79913857D01*
X121630213Y-79844392D01*
X120829605Y-80645000D01*
X120470395Y-80645000D01*
X119669787Y-79844392D01*
X119519440Y-79887516D01*
X119519440Y-79883000D01*
X119476036Y-79664787D01*
X119849392Y-79664787D01*
X120650000Y-80465395D01*
X121450608Y-79664787D01*
X121381143Y-79422603D01*
X120857698Y-79235856D01*
X120302632Y-79263638D01*
X119918857Y-79422603D01*
X119849392Y-79664787D01*
X119476036Y-79664787D01*
X119470157Y-79635235D01*
X119329809Y-79425191D01*
X119119765Y-79284843D01*
X118872000Y-79235560D01*
X117348000Y-79235560D01*
X117100235Y-79284843D01*
X116890191Y-79425191D01*
X116749843Y-79635235D01*
X116700560Y-79883000D01*
X116700560Y-81407000D01*
X116749843Y-81654765D01*
X116890191Y-81864809D01*
X117100235Y-82005157D01*
X117225000Y-82029974D01*
X117225001Y-84973469D01*
X116981333Y-84925000D01*
X116698667Y-84925000D01*
X116280091Y-85008260D01*
X115805423Y-85325423D01*
X115570000Y-85677758D01*
X115334577Y-85325423D01*
X115019021Y-85114575D01*
X115023909Y-85090000D01*
X115010000Y-85020074D01*
X115010000Y-78740000D01*
X128810000Y-78740000D01*
X128930615Y-79424040D01*
X129277911Y-80025575D01*
X129810000Y-80472051D01*
X130462704Y-80709616D01*
X131157296Y-80709616D01*
X131810000Y-80472051D01*
X132342089Y-80025575D01*
X132689385Y-79424040D01*
X132810000Y-78740000D01*
X132689385Y-78055960D01*
X132342089Y-77454425D01*
X131810000Y-77007949D01*
X131157296Y-76770384D01*
X130462704Y-76770384D01*
X129810000Y-77007949D01*
X129277911Y-77454425D01*
X128930615Y-78055960D01*
X128810000Y-78740000D01*
X115010000Y-78740000D01*
X115010000Y-60960000D01*
X128810000Y-60960000D01*
X128930615Y-61644040D01*
X129277911Y-62245575D01*
X129810000Y-62692051D01*
X130462704Y-62929616D01*
X131157296Y-62929616D01*
X131810000Y-62692051D01*
X132342089Y-62245575D01*
X132689385Y-61644040D01*
X132810000Y-60960000D01*
X132689385Y-60275960D01*
X132342089Y-59674425D01*
X131810000Y-59227949D01*
X131157296Y-58990384D01*
X130462704Y-58990384D01*
X129810000Y-59227949D01*
X129277911Y-59674425D01*
X128930615Y-60275960D01*
X128810000Y-60960000D01*
X115010000Y-60960000D01*
X115010000Y-51510000D01*
X133910000Y-51510000D01*
X133910001Y-53270070D01*
X133910001Y-53270070D01*
G37*
X133910001Y-53270070D02*
X133896091Y-53340000D01*
X133951195Y-53617028D01*
X134108119Y-53851881D01*
X134342972Y-54008805D01*
X134550074Y-54050000D01*
X134550075Y-54050000D01*
X134620000Y-54063909D01*
X134689926Y-54050000D01*
X160598421Y-54050000D01*
X159653422Y-54995000D01*
X156297165Y-54995000D01*
X156210000Y-54977662D01*
X156122836Y-54995000D01*
X133432630Y-54995000D01*
X133477000Y-54887881D01*
X133477000Y-54332119D01*
X133264320Y-53818663D01*
X132871337Y-53425680D01*
X132357881Y-53213000D01*
X131802119Y-53213000D01*
X131288663Y-53425680D01*
X130895680Y-53818663D01*
X130810000Y-54025513D01*
X130724320Y-53818663D01*
X130331337Y-53425680D01*
X129817881Y-53213000D01*
X129262119Y-53213000D01*
X128748663Y-53425680D01*
X128355680Y-53818663D01*
X128270000Y-54025513D01*
X128184320Y-53818663D01*
X127791337Y-53425680D01*
X127277881Y-53213000D01*
X126722119Y-53213000D01*
X126208663Y-53425680D01*
X125815680Y-53818663D01*
X125730000Y-54025513D01*
X125644320Y-53818663D01*
X125251337Y-53425680D01*
X124737881Y-53213000D01*
X124182119Y-53213000D01*
X123668663Y-53425680D01*
X123275680Y-53818663D01*
X123196572Y-54009647D01*
X123142397Y-53878857D01*
X122900213Y-53809392D01*
X122099605Y-54610000D01*
X122113748Y-54624143D01*
X121934143Y-54803748D01*
X121920000Y-54789605D01*
X121905858Y-54803748D01*
X121726253Y-54624143D01*
X121740395Y-54610000D01*
X120939787Y-53809392D01*
X120789440Y-53852516D01*
X120789440Y-53848000D01*
X120746036Y-53629787D01*
X121119392Y-53629787D01*
X121920000Y-54430395D01*
X122720608Y-53629787D01*
X122651143Y-53387603D01*
X122127698Y-53200856D01*
X121572632Y-53228638D01*
X121188857Y-53387603D01*
X121119392Y-53629787D01*
X120746036Y-53629787D01*
X120740157Y-53600235D01*
X120599809Y-53390191D01*
X120389765Y-53249843D01*
X120142000Y-53200560D01*
X118618000Y-53200560D01*
X118370235Y-53249843D01*
X118160191Y-53390191D01*
X118019843Y-53600235D01*
X117970560Y-53848000D01*
X117970560Y-55372000D01*
X118019843Y-55619765D01*
X118160191Y-55829809D01*
X118370235Y-55970157D01*
X118618000Y-56019440D01*
X119537861Y-56019440D01*
X119962577Y-56444156D01*
X120011951Y-56518049D01*
X120085844Y-56567423D01*
X120085845Y-56567424D01*
X120137698Y-56602071D01*
X120304690Y-56713652D01*
X120562835Y-56765000D01*
X120562839Y-56765000D01*
X120649999Y-56782337D01*
X120737159Y-56765000D01*
X140009196Y-56765000D01*
X139935000Y-56944126D01*
X139935000Y-57355874D01*
X140092569Y-57736280D01*
X140210001Y-57853712D01*
X140210000Y-80328788D01*
X137928799Y-82609990D01*
X122444857Y-82609990D01*
X122370010Y-82595102D01*
X122295163Y-82609990D01*
X122295158Y-82609990D01*
X122073473Y-82654086D01*
X121822081Y-82822061D01*
X121779681Y-82885517D01*
X120310527Y-84354672D01*
X120247071Y-84397072D01*
X120204671Y-84460528D01*
X120204670Y-84460529D01*
X120079096Y-84648464D01*
X120020111Y-84945001D01*
X120035000Y-85019853D01*
X120035000Y-85071798D01*
X119939909Y-85008260D01*
X119521333Y-84925000D01*
X119238667Y-84925000D01*
X118995000Y-84973468D01*
X118995000Y-82029974D01*
X119119765Y-82005157D01*
X119329809Y-81864809D01*
X119470157Y-81654765D01*
X119476035Y-81625213D01*
X119849392Y-81625213D01*
X119918857Y-81867397D01*
X120442302Y-82054144D01*
X120997368Y-82026362D01*
X121381143Y-81867397D01*
X121450608Y-81625213D01*
X120650000Y-80824605D01*
X119849392Y-81625213D01*
X119476035Y-81625213D01*
X119519440Y-81407000D01*
X119519440Y-81402484D01*
X119669787Y-81445608D01*
X120470395Y-80645000D01*
X120829605Y-80645000D01*
X121630213Y-81445608D01*
X121872397Y-81376143D01*
X121922535Y-81235607D01*
X122005680Y-81436337D01*
X122398663Y-81829320D01*
X122912119Y-82042000D01*
X123467881Y-82042000D01*
X123981337Y-81829320D01*
X124374320Y-81436337D01*
X124587000Y-80922881D01*
X124587000Y-80367119D01*
X124374320Y-79853663D01*
X123981337Y-79460680D01*
X123467881Y-79248000D01*
X122912119Y-79248000D01*
X122398663Y-79460680D01*
X122005680Y-79853663D01*
X121926572Y-80044647D01*
X121872397Y-79913857D01*
X121630213Y-79844392D01*
X120829605Y-80645000D01*
X120470395Y-80645000D01*
X119669787Y-79844392D01*
X119519440Y-79887516D01*
X119519440Y-79883000D01*
X119476036Y-79664787D01*
X119849392Y-79664787D01*
X120650000Y-80465395D01*
X121450608Y-79664787D01*
X121381143Y-79422603D01*
X120857698Y-79235856D01*
X120302632Y-79263638D01*
X119918857Y-79422603D01*
X119849392Y-79664787D01*
X119476036Y-79664787D01*
X119470157Y-79635235D01*
X119329809Y-79425191D01*
X119119765Y-79284843D01*
X118872000Y-79235560D01*
X117348000Y-79235560D01*
X117100235Y-79284843D01*
X116890191Y-79425191D01*
X116749843Y-79635235D01*
X116700560Y-79883000D01*
X116700560Y-81407000D01*
X116749843Y-81654765D01*
X116890191Y-81864809D01*
X117100235Y-82005157D01*
X117225000Y-82029974D01*
X117225001Y-84973469D01*
X116981333Y-84925000D01*
X116698667Y-84925000D01*
X116280091Y-85008260D01*
X115805423Y-85325423D01*
X115570000Y-85677758D01*
X115334577Y-85325423D01*
X115019021Y-85114575D01*
X115023909Y-85090000D01*
X115010000Y-85020074D01*
X115010000Y-78740000D01*
X128810000Y-78740000D01*
X128930615Y-79424040D01*
X129277911Y-80025575D01*
X129810000Y-80472051D01*
X130462704Y-80709616D01*
X131157296Y-80709616D01*
X131810000Y-80472051D01*
X132342089Y-80025575D01*
X132689385Y-79424040D01*
X132810000Y-78740000D01*
X132689385Y-78055960D01*
X132342089Y-77454425D01*
X131810000Y-77007949D01*
X131157296Y-76770384D01*
X130462704Y-76770384D01*
X129810000Y-77007949D01*
X129277911Y-77454425D01*
X128930615Y-78055960D01*
X128810000Y-78740000D01*
X115010000Y-78740000D01*
X115010000Y-60960000D01*
X128810000Y-60960000D01*
X128930615Y-61644040D01*
X129277911Y-62245575D01*
X129810000Y-62692051D01*
X130462704Y-62929616D01*
X131157296Y-62929616D01*
X131810000Y-62692051D01*
X132342089Y-62245575D01*
X132689385Y-61644040D01*
X132810000Y-60960000D01*
X132689385Y-60275960D01*
X132342089Y-59674425D01*
X131810000Y-59227949D01*
X131157296Y-58990384D01*
X130462704Y-58990384D01*
X129810000Y-59227949D01*
X129277911Y-59674425D01*
X128930615Y-60275960D01*
X128810000Y-60960000D01*
X115010000Y-60960000D01*
X115010000Y-51510000D01*
X133910000Y-51510000D01*
X133910001Y-53270070D01*
G36*
X155325000Y-57237164D02*
X155325001Y-57237169D01*
X155325000Y-67195026D01*
X155200235Y-67219843D01*
X155076251Y-67302687D01*
X154599093Y-66825529D01*
X154556691Y-66762071D01*
X154305299Y-66594096D01*
X154083614Y-66550000D01*
X154083609Y-66550000D01*
X154008762Y-66535112D01*
X153933915Y-66550000D01*
X144854846Y-66550000D01*
X144779999Y-66535112D01*
X144705152Y-66550000D01*
X144705148Y-66550000D01*
X144483463Y-66594096D01*
X144232071Y-66762071D01*
X144189671Y-66825527D01*
X143819218Y-67195980D01*
X143787881Y-67183000D01*
X143232119Y-67183000D01*
X143000000Y-67279147D01*
X143000000Y-57853711D01*
X143117431Y-57736280D01*
X143275000Y-57355874D01*
X143275000Y-56944126D01*
X143200804Y-56765000D01*
X155325000Y-56765000D01*
X155325000Y-57237164D01*
X155325000Y-57237164D01*
G37*
X155325000Y-57237164D02*
X155325001Y-57237169D01*
X155325000Y-67195026D01*
X155200235Y-67219843D01*
X155076251Y-67302687D01*
X154599093Y-66825529D01*
X154556691Y-66762071D01*
X154305299Y-66594096D01*
X154083614Y-66550000D01*
X154083609Y-66550000D01*
X154008762Y-66535112D01*
X153933915Y-66550000D01*
X144854846Y-66550000D01*
X144779999Y-66535112D01*
X144705152Y-66550000D01*
X144705148Y-66550000D01*
X144483463Y-66594096D01*
X144232071Y-66762071D01*
X144189671Y-66825527D01*
X143819218Y-67195980D01*
X143787881Y-67183000D01*
X143232119Y-67183000D01*
X143000000Y-67279147D01*
X143000000Y-57853711D01*
X143117431Y-57736280D01*
X143275000Y-57355874D01*
X143275000Y-56944126D01*
X143200804Y-56765000D01*
X155325000Y-56765000D01*
X155325000Y-57237164D01*
G04 #@! TD*
M02*
