  0
SECTION
  2
HEADER
  9
$EXTMIN
 10
-0.156000
 20
-0.143000
  9
$EXTMAX
 10
0.705000
 20
0.705000
  9
$LIMMIN
 10
-0.156000
 20
-0.143000
  9
$LIMMAX
 10
0.705000
 20
0.705000
  9
$FILLMODE
 70
  1
  0
ENDSEC
  0
SECTION
  2
TABLES
  0
TABLE
  2
LTYPE
 70
  1
  0
LTYPE
  2
CONTINUOUS
 70
 64
  3
Solid line
 72
 65
 73
  0
 40
0.0
  0
ENDTAB
  0
TABLE
  2
LAYER
 70
 1
  0
LAYER
  2
0
 70
  0
 62
7
  6
CONTINUOUS
  0
LAYER
  2
gg1
 70
  0
 62
1
  6
CONTINUOUS
  0
ENDTAB
  0
TABLE
  2
STYLE
 70
  1
  0
STYLE
  2
STANDARD
 70
  0
 40
0.0
 41
1.0
 50
0.0
 71
  0
 42
0.2
  3
txt
  4

  0
ENDTAB
  0
ENDSEC
  0
SECTION
  2
BLOCKS
  0
BLOCK
  8
0
  2
D10
 70
64
 10
0.0
 20
0.0
  3
D10
  0
CIRCLE
  8
0
 10
0.000000
 20
0.000000
 40
0.005000
 0
ENDBLK
  8
0
  0
BLOCK
  8
0
  2
D11
 70
64
 10
0.0
 20
0.0
  3
D11
  0
CIRCLE
  8
0
 10
0.000000
 20
0.000000
 40
0.002500
 0
ENDBLK
  8
0
  0
BLOCK
  8
0
  2
D12
 70
64
 10
0.0
 20
0.0
  3
D12
  0
CIRCLE
  8
0
 10
0.000000
 20
0.000000
 40
0.003000
 0
ENDBLK
  8
0
  0
BLOCK
  8
0
  2
D13
 70
64
 10
0.0
 20
0.0
  3
D13
  0
CIRCLE
  8
0
 10
0.000000
 20
0.000000
 40
0.001000
 0
ENDBLK
  8
0
  0
ENDSEC
  0
SECTION
  2
ENTITIES
  0
POLYLINE
  8
gg1
 62
1
 40
0.000000
 41
0.000000
 66
  1
  0
VERTEX
  8
gg1
 10
0.700000
 20
-0.114000
  0
VERTEX
  8
gg1
 10
0.700000
 20
-0.010000
  0
SEQEND
  8
gg1
  0
POLYLINE
  8
gg1
 62
1
 40
0.000000
 41
0.000000
 66
  1
  0
VERTEX
  8
gg1
 10
0.000000
 20
-0.114000
  0
VERTEX
  8
gg1
 10
0.000000
 20
-0.010000
  0
SEQEND
  8
gg1
  0
POLYLINE
  8
gg1
 62
1
 40
0.000000
 41
0.000000
 66
  1
  0
VERTEX
  8
gg1
 10
0.504900
 20
-0.104000
  0
VERTEX
  8
gg1
 10
0.700000
 20
-0.104000
  0
SEQEND
  8
gg1
  0
POLYLINE
  8
gg1
 62
1
 40
0.000000
 41
0.000000
 66
  1
  0
VERTEX
  8
gg1
 10
0.000000
 20
-0.104000
  0
VERTEX
  8
gg1
 10
0.163000
 20
-0.104000
  0
SEQEND
  8
gg1
  0
POLYLINE
  8
gg1
 62
1
 40
0.000000
 41
0.000000
 66
  1
  0
VERTEX
  8
gg1
 10
0.640000
 20
-0.084000
  0
VERTEX
  8
gg1
 10
0.700000
 20
-0.104000
  0
SEQEND
  8
gg1
  0
POLYLINE
  8
gg1
 62
1
 40
0.000000
 41
0.000000
 66
  1
  0
VERTEX
  8
gg1
 10
0.640000
 20
-0.124000
  0
VERTEX
  8
gg1
 10
0.700000
 20
-0.104000
  0
SEQEND
  8
gg1
  0
POLYLINE
  8
gg1
 62
1
 40
0.000000
 41
0.000000
 66
  1
  0
VERTEX
  8
gg1
 10
0.000000
 20
-0.104000
  0
VERTEX
  8
gg1
 10
0.060000
 20
-0.124000
  0
SEQEND
  8
gg1
  0
POLYLINE
  8
gg1
 62
1
 40
0.000000
 41
0.000000
 66
  1
  0
VERTEX
  8
gg1
 10
0.000000
 20
-0.104000
  0
VERTEX
  8
gg1
 10
0.060000
 20
-0.084000
  0
SEQEND
  8
gg1
  0
POLYLINE
  8
gg1
 62
1
 40
0.000000
 41
0.000000
 66
  1
  0
VERTEX
  8
gg1
 10
-0.139000
 20
0.700000
  0
VERTEX
  8
gg1
 10
-0.010000
 20
0.700000
  0
SEQEND
  8
gg1
  0
POLYLINE
  8
gg1
 62
1
 40
0.000000
 41
0.000000
 66
  1
  0
VERTEX
  8
gg1
 10
-0.139000
 20
0.000000
  0
VERTEX
  8
gg1
 10
-0.010000
 20
0.000000
  0
SEQEND
  8
gg1
  0
POLYLINE
  8
gg1
 62
1
 40
0.000000
 41
0.000000
 66
  1
  0
VERTEX
  8
gg1
 10
-0.129000
 20
0.504900
  0
VERTEX
  8
gg1
 10
-0.129000
 20
0.700000
  0
SEQEND
  8
gg1
  0
POLYLINE
  8
gg1
 62
1
 40
0.000000
 41
0.000000
 66
  1
  0
VERTEX
  8
gg1
 10
-0.129000
 20
0.000000
  0
VERTEX
  8
gg1
 10
-0.129000
 20
0.163000
  0
SEQEND
  8
gg1
  0
POLYLINE
  8
gg1
 62
1
 40
0.000000
 41
0.000000
 66
  1
  0
VERTEX
  8
gg1
 10
-0.149000
 20
0.640000
  0
VERTEX
  8
gg1
 10
-0.129000
 20
0.700000
  0
VERTEX
  8
gg1
 10
-0.109000
 20
0.640000
  0
SEQEND
  8
gg1
  0
POLYLINE
  8
gg1
 62
1
 40
0.000000
 41
0.000000
 66
  1
  0
VERTEX
  8
gg1
 10
-0.129000
 20
0.000000
  0
VERTEX
  8
gg1
 10
-0.109000
 20
0.060000
  0
SEQEND
  8
gg1
  0
POLYLINE
  8
gg1
 62
1
 40
0.000000
 41
0.000000
 66
  1
  0
VERTEX
  8
gg1
 10
-0.149000
 20
0.060000
  0
VERTEX
  8
gg1
 10
-0.129000
 20
0.000000
  0
SEQEND
  8
gg1
  0
POLYLINE
  8
gg1
 62
1
 40
0.000000
 41
0.000000
 66
  1
  0
VERTEX
  8
gg1
 10
0.000000
 20
0.000000
  0
VERTEX
  8
gg1
 10
0.700000
 20
0.000000
  0
VERTEX
  8
gg1
 10
0.700000
 20
0.000000
  0
VERTEX
  8
gg1
 10
0.700000
 20
0.700000
  0
SEQEND
  8
gg1
  0
POLYLINE
  8
gg1
 62
1
 40
0.000000
 41
0.000000
 66
  1
  0
VERTEX
  8
gg1
 10
0.700000
 20
0.700000
  0
VERTEX
  8
gg1
 10
0.700000
 20
0.700000
  0
SEQEND
  8
gg1
  0
POLYLINE
  8
gg1
 62
1
 40
0.000000
 41
0.000000
 66
  1
  0
VERTEX
  8
gg1
 10
0.000000
 20
0.700000
  0
VERTEX
  8
gg1
 10
0.700000
 20
0.700000
  0
SEQEND
  8
gg1
  0
POLYLINE
  8
gg1
 62
1
 40
0.000000
 41
0.000000
 66
  1
  0
VERTEX
  8
gg1
 10
0.000000
 20
0.000000
  0
VERTEX
  8
gg1
 10
0.000000
 20
0.700000
  0
SEQEND
  8
gg1
  0
POLYLINE
  8
gg1
 62
1
 40
0.000000
 41
0.000000
 66
  1
  0
VERTEX
  8
gg1
 10
0.179000
 20
-0.080000
  0
VERTEX
  8
gg1
 10
0.219000
 20
-0.080000
  0
VERTEX
  8
gg1
 10
0.219000
 20
-0.090000
  0
VERTEX
  8
gg1
 10
0.179000
 20
-0.130000
  0
VERTEX
  8
gg1
 10
0.179000
 20
-0.140000
  0
SEQEND
  8
gg1
  0
POLYLINE
  8
gg1
 62
1
 40
0.000000
 41
0.000000
 66
  1
  0
VERTEX
  8
gg1
 10
0.239000
 20
-0.090000
  0
VERTEX
  8
gg1
 10
0.249000
 20
-0.080000
  0
VERTEX
  8
gg1
 10
0.269000
 20
-0.080000
  0
VERTEX
  8
gg1
 10
0.279000
 20
-0.090000
  0
VERTEX
  8
gg1
 10
0.279000
 20
-0.130000
  0
VERTEX
  8
gg1
 10
0.269000
 20
-0.140000
  0
VERTEX
  8
gg1
 10
0.249000
 20
-0.140000
  0
VERTEX
  8
gg1
 10
0.239000
 20
-0.130000
  0
VERTEX
  8
gg1
 10
0.239000
 20
-0.090000
  0
SEQEND
  8
gg1
  0
POLYLINE
  8
gg1
 62
1
 40
0.000000
 41
0.000000
 66
  1
  0
VERTEX
  8
gg1
 10
0.299000
 20
-0.090000
  0
VERTEX
  8
gg1
 10
0.309000
 20
-0.080000
  0
VERTEX
  8
gg1
 10
0.329000
 20
-0.080000
  0
VERTEX
  8
gg1
 10
0.339000
 20
-0.090000
  0
VERTEX
  8
gg1
 10
0.339000
 20
-0.130000
  0
VERTEX
  8
gg1
 10
0.329000
 20
-0.140000
  0
VERTEX
  8
gg1
 10
0.309000
 20
-0.140000
  0
VERTEX
  8
gg1
 10
0.299000
 20
-0.130000
  0
VERTEX
  8
gg1
 10
0.299000
 20
-0.090000
  0
SEQEND
  8
gg1
  0
POLYLINE
  8
gg1
 62
1
 40
0.000000
 41
0.000000
 66
  1
  0
VERTEX
  8
gg1
 10
0.359000
 20
-0.140000
  0
VERTEX
  8
gg1
 10
0.359000
 20
-0.100000
  0
VERTEX
  8
gg1
 10
0.369000
 20
-0.100000
  0
VERTEX
  8
gg1
 10
0.379000
 20
-0.110000
  0
VERTEX
  8
gg1
 10
0.379000
 20
-0.140000
  0
VERTEX
  8
gg1
 10
0.379000
 20
-0.110000
  0
VERTEX
  8
gg1
 10
0.389000
 20
-0.100000
  0
VERTEX
  8
gg1
 10
0.399000
 20
-0.110000
  0
VERTEX
  8
gg1
 10
0.399000
 20
-0.140000
  0
SEQEND
  8
gg1
  0
POLYLINE
  8
gg1
 62
1
 40
0.000000
 41
0.000000
 66
  1
  0
VERTEX
  8
gg1
 10
0.419000
 20
-0.140000
  0
VERTEX
  8
gg1
 10
0.439000
 20
-0.140000
  0
VERTEX
  8
gg1
 10
0.429000
 20
-0.140000
  0
VERTEX
  8
gg1
 10
0.429000
 20
-0.100000
  0
VERTEX
  8
gg1
 10
0.419000
 20
-0.100000
  0
SEQEND
  8
gg1
  0
POLYLINE
  8
gg1
 62
1
 40
0.000000
 41
0.000000
 66
  1
  0
VERTEX
  8
gg1
 10
0.469000
 20
-0.140000
  0
VERTEX
  8
gg1
 10
0.489000
 20
-0.140000
  0
VERTEX
  8
gg1
 10
0.479000
 20
-0.140000
  0
VERTEX
  8
gg1
 10
0.479000
 20
-0.080000
  0
VERTEX
  8
gg1
 10
0.469000
 20
-0.080000
  0
SEQEND
  8
gg1
  0
POLYLINE
  8
gg1
 62
1
 40
0.000000
 41
0.000000
 66
  1
  0
VERTEX
  8
gg1
 10
-0.153000
 20
0.179000
  0
VERTEX
  8
gg1
 10
-0.153000
 20
0.219000
  0
VERTEX
  8
gg1
 10
-0.143000
 20
0.219000
  0
VERTEX
  8
gg1
 10
-0.103000
 20
0.179000
  0
VERTEX
  8
gg1
 10
-0.093000
 20
0.179000
  0
SEQEND
  8
gg1
  0
POLYLINE
  8
gg1
 62
1
 40
0.000000
 41
0.000000
 66
  1
  0
VERTEX
  8
gg1
 10
-0.143000
 20
0.239000
  0
VERTEX
  8
gg1
 10
-0.153000
 20
0.249000
  0
VERTEX
  8
gg1
 10
-0.153000
 20
0.269000
  0
VERTEX
  8
gg1
 10
-0.143000
 20
0.279000
  0
VERTEX
  8
gg1
 10
-0.103000
 20
0.279000
  0
VERTEX
  8
gg1
 10
-0.093000
 20
0.269000
  0
VERTEX
  8
gg1
 10
-0.093000
 20
0.249000
  0
VERTEX
  8
gg1
 10
-0.103000
 20
0.239000
  0
VERTEX
  8
gg1
 10
-0.143000
 20
0.239000
  0
SEQEND
  8
gg1
  0
POLYLINE
  8
gg1
 62
1
 40
0.000000
 41
0.000000
 66
  1
  0
VERTEX
  8
gg1
 10
-0.143000
 20
0.299000
  0
VERTEX
  8
gg1
 10
-0.153000
 20
0.309000
  0
VERTEX
  8
gg1
 10
-0.153000
 20
0.329000
  0
VERTEX
  8
gg1
 10
-0.143000
 20
0.339000
  0
VERTEX
  8
gg1
 10
-0.103000
 20
0.339000
  0
VERTEX
  8
gg1
 10
-0.093000
 20
0.329000
  0
VERTEX
  8
gg1
 10
-0.093000
 20
0.309000
  0
VERTEX
  8
gg1
 10
-0.103000
 20
0.299000
  0
VERTEX
  8
gg1
 10
-0.143000
 20
0.299000
  0
SEQEND
  8
gg1
  0
POLYLINE
  8
gg1
 62
1
 40
0.000000
 41
0.000000
 66
  1
  0
VERTEX
  8
gg1
 10
-0.093000
 20
0.359000
  0
VERTEX
  8
gg1
 10
-0.133000
 20
0.359000
  0
VERTEX
  8
gg1
 10
-0.133000
 20
0.369000
  0
VERTEX
  8
gg1
 10
-0.123000
 20
0.379000
  0
VERTEX
  8
gg1
 10
-0.093000
 20
0.379000
  0
VERTEX
  8
gg1
 10
-0.123000
 20
0.379000
  0
VERTEX
  8
gg1
 10
-0.133000
 20
0.389000
  0
VERTEX
  8
gg1
 10
-0.123000
 20
0.399000
  0
VERTEX
  8
gg1
 10
-0.093000
 20
0.399000
  0
SEQEND
  8
gg1
  0
POLYLINE
  8
gg1
 62
1
 40
0.000000
 41
0.000000
 66
  1
  0
VERTEX
  8
gg1
 10
-0.093000
 20
0.419000
  0
VERTEX
  8
gg1
 10
-0.093000
 20
0.439000
  0
VERTEX
  8
gg1
 10
-0.093000
 20
0.429000
  0
VERTEX
  8
gg1
 10
-0.133000
 20
0.429000
  0
VERTEX
  8
gg1
 10
-0.133000
 20
0.419000
  0
SEQEND
  8
gg1
  0
POLYLINE
  8
gg1
 62
1
 40
0.000000
 41
0.000000
 66
  1
  0
VERTEX
  8
gg1
 10
-0.093000
 20
0.469000
  0
VERTEX
  8
gg1
 10
-0.093000
 20
0.489000
  0
VERTEX
  8
gg1
 10
-0.093000
 20
0.479000
  0
VERTEX
  8
gg1
 10
-0.153000
 20
0.479000
  0
VERTEX
  8
gg1
 10
-0.153000
 20
0.469000
  0
SEQEND
  8
gg1
  0
POLYLINE
  8
gg1
 62
1
 40
0.000000
 41
0.000000
 66
  1
  0
VERTEX
  8
gg1
 10
0.030000
 20
0.470000
  0
VERTEX
  8
gg1
 10
0.070000
 20
0.470000
  0
SEQEND
  8
gg1
  0
POLYLINE
  8
gg1
 62
1
 40
0.000000
 41
0.000000
 66
  1
  0
VERTEX
  8
gg1
 10
0.050000
 20
0.450000
  0
VERTEX
  8
gg1
 10
0.050000
 20
0.490000
  0
SEQEND
  8
gg1
  0
POLYLINE
  8
gg1
 62
1
 40
0.000000
 41
0.000000
 66
  1
  0
VERTEX
  8
gg1
 10
0.047000
 20
0.610000
  0
VERTEX
  8
gg1
 10
0.133000
 20
0.610000
  0
SEQEND
  8
gg1
  0
POLYLINE
  8
gg1
 62
1
 40
0.000000
 41
0.000000
 66
  1
  0
VERTEX
  8
gg1
 10
0.090000
 20
0.567000
  0
VERTEX
  8
gg1
 10
0.090000
 20
0.653000
  0
SEQEND
  8
gg1
  0
POLYLINE
  8
gg1
 62
1
 40
0.000000
 41
0.000000
 66
  1
  0
VERTEX
  8
gg1
 10
0.430000
 20
0.050000
  0
VERTEX
  8
gg1
 10
0.470000
 20
0.050000
  0
SEQEND
  8
gg1
  0
POLYLINE
  8
gg1
 62
1
 40
0.000000
 41
0.000000
 66
  1
  0
VERTEX
  8
gg1
 10
0.450000
 20
0.030000
  0
VERTEX
  8
gg1
 10
0.450000
 20
0.070000
  0
SEQEND
  8
gg1
  0
POLYLINE
  8
gg1
 62
1
 40
0.000000
 41
0.000000
 66
  1
  0
VERTEX
  8
gg1
 10
0.330000
 20
0.050000
  0
VERTEX
  8
gg1
 10
0.370000
 20
0.050000
  0
SEQEND
  8
gg1
  0
POLYLINE
  8
gg1
 62
1
 40
0.000000
 41
0.000000
 66
  1
  0
VERTEX
  8
gg1
 10
0.350000
 20
0.030000
  0
VERTEX
  8
gg1
 10
0.350000
 20
0.070000
  0
SEQEND
  8
gg1
  0
POLYLINE
  8
gg1
 62
1
 40
0.000000
 41
0.000000
 66
  1
  0
VERTEX
  8
gg1
 10
0.230000
 20
0.050000
  0
VERTEX
  8
gg1
 10
0.270000
 20
0.050000
  0
SEQEND
  8
gg1
  0
POLYLINE
  8
gg1
 62
1
 40
0.000000
 41
0.000000
 66
  1
  0
VERTEX
  8
gg1
 10
0.250000
 20
0.030000
  0
VERTEX
  8
gg1
 10
0.250000
 20
0.070000
  0
SEQEND
  8
gg1
  0
POLYLINE
  8
gg1
 62
1
 40
0.000000
 41
0.000000
 66
  1
  0
VERTEX
  8
gg1
 10
0.130000
 20
0.050000
  0
VERTEX
  8
gg1
 10
0.170000
 20
0.050000
  0
SEQEND
  8
gg1
  0
POLYLINE
  8
gg1
 62
1
 40
0.000000
 41
0.000000
 66
  1
  0
VERTEX
  8
gg1
 10
0.150000
 20
0.030000
  0
VERTEX
  8
gg1
 10
0.150000
 20
0.070000
  0
SEQEND
  8
gg1
  0
POLYLINE
  8
gg1
 62
1
 40
0.000000
 41
0.000000
 66
  1
  0
VERTEX
  8
gg1
 10
0.030000
 20
0.050000
  0
VERTEX
  8
gg1
 10
0.070000
 20
0.050000
  0
SEQEND
  8
gg1
  0
POLYLINE
  8
gg1
 62
1
 40
0.000000
 41
0.000000
 66
  1
  0
VERTEX
  8
gg1
 10
0.050000
 20
0.030000
  0
VERTEX
  8
gg1
 10
0.050000
 20
0.070000
  0
SEQEND
  8
gg1
  0
POLYLINE
  8
gg1
 62
1
 40
0.000000
 41
0.000000
 66
  1
  0
VERTEX
  8
gg1
 10
0.232500
 20
0.345000
  0
VERTEX
  8
gg1
 10
0.247500
 20
0.345000
  0
SEQEND
  8
gg1
  0
POLYLINE
  8
gg1
 62
1
 40
0.000000
 41
0.000000
 66
  1
  0
VERTEX
  8
gg1
 10
0.240000
 20
0.337500
  0
VERTEX
  8
gg1
 10
0.240000
 20
0.352500
  0
SEQEND
  8
gg1
  0
POLYLINE
  8
gg1
 62
1
 40
0.000000
 41
0.000000
 66
  1
  0
VERTEX
  8
gg1
 10
0.567000
 20
0.090000
  0
VERTEX
  8
gg1
 10
0.653000
 20
0.090000
  0
SEQEND
  8
gg1
  0
POLYLINE
  8
gg1
 62
1
 40
0.000000
 41
0.000000
 66
  1
  0
VERTEX
  8
gg1
 10
0.610000
 20
0.047000
  0
VERTEX
  8
gg1
 10
0.610000
 20
0.133000
  0
SEQEND
  8
gg1
  0
POLYLINE
  8
gg1
 62
1
 40
0.000000
 41
0.000000
 66
  1
  0
VERTEX
  8
gg1
 10
0.042500
 20
0.185000
  0
VERTEX
  8
gg1
 10
0.057500
 20
0.185000
  0
SEQEND
  8
gg1
  0
POLYLINE
  8
gg1
 62
1
 40
0.000000
 41
0.000000
 66
  1
  0
VERTEX
  8
gg1
 10
0.050000
 20
0.177500
  0
VERTEX
  8
gg1
 10
0.050000
 20
0.192500
  0
SEQEND
  8
gg1
  0
POLYLINE
  8
gg1
 62
1
 40
0.000000
 41
0.000000
 66
  1
  0
VERTEX
  8
gg1
 10
0.374500
 20
0.237000
  0
VERTEX
  8
gg1
 10
0.389500
 20
0.237000
  0
SEQEND
  8
gg1
  0
POLYLINE
  8
gg1
 62
1
 40
0.000000
 41
0.000000
 66
  1
  0
VERTEX
  8
gg1
 10
0.382000
 20
0.229500
  0
VERTEX
  8
gg1
 10
0.382000
 20
0.244500
  0
SEQEND
  8
gg1
  0
POLYLINE
  8
gg1
 62
1
 40
0.000000
 41
0.000000
 66
  1
  0
VERTEX
  8
gg1
 10
0.323500
 20
0.196000
  0
VERTEX
  8
gg1
 10
0.338500
 20
0.196000
  0
SEQEND
  8
gg1
  0
POLYLINE
  8
gg1
 62
1
 40
0.000000
 41
0.000000
 66
  1
  0
VERTEX
  8
gg1
 10
0.331000
 20
0.188500
  0
VERTEX
  8
gg1
 10
0.331000
 20
0.203500
  0
SEQEND
  8
gg1
  0
POLYLINE
  8
gg1
 62
1
 40
0.000000
 41
0.000000
 66
  1
  0
VERTEX
  8
gg1
 10
0.602500
 20
0.210000
  0
VERTEX
  8
gg1
 10
0.617500
 20
0.210000
  0
SEQEND
  8
gg1
  0
POLYLINE
  8
gg1
 62
1
 40
0.000000
 41
0.000000
 66
  1
  0
VERTEX
  8
gg1
 10
0.610000
 20
0.202500
  0
VERTEX
  8
gg1
 10
0.610000
 20
0.217500
  0
SEQEND
  8
gg1
  0
POLYLINE
  8
gg1
 62
1
 40
0.000000
 41
0.000000
 66
  1
  0
VERTEX
  8
gg1
 10
0.647500
 20
0.210000
  0
VERTEX
  8
gg1
 10
0.662500
 20
0.210000
  0
SEQEND
  8
gg1
  0
POLYLINE
  8
gg1
 62
1
 40
0.000000
 41
0.000000
 66
  1
  0
VERTEX
  8
gg1
 10
0.655000
 20
0.202500
  0
VERTEX
  8
gg1
 10
0.655000
 20
0.217500
  0
SEQEND
  8
gg1
  0
POLYLINE
  8
gg1
 62
1
 40
0.000000
 41
0.000000
 66
  1
  0
VERTEX
  8
gg1
 10
0.042500
 20
0.225000
  0
VERTEX
  8
gg1
 10
0.057500
 20
0.225000
  0
SEQEND
  8
gg1
  0
POLYLINE
  8
gg1
 62
1
 40
0.000000
 41
0.000000
 66
  1
  0
VERTEX
  8
gg1
 10
0.050000
 20
0.217500
  0
VERTEX
  8
gg1
 10
0.050000
 20
0.232500
  0
SEQEND
  8
gg1
  0
POLYLINE
  8
gg1
 62
1
 40
0.000000
 41
0.000000
 66
  1
  0
VERTEX
  8
gg1
 10
0.512500
 20
0.230000
  0
VERTEX
  8
gg1
 10
0.527500
 20
0.230000
  0
SEQEND
  8
gg1
  0
POLYLINE
  8
gg1
 62
1
 40
0.000000
 41
0.000000
 66
  1
  0
VERTEX
  8
gg1
 10
0.520000
 20
0.222500
  0
VERTEX
  8
gg1
 10
0.520000
 20
0.237500
  0
SEQEND
  8
gg1
  0
POLYLINE
  8
gg1
 62
1
 40
0.000000
 41
0.000000
 66
  1
  0
VERTEX
  8
gg1
 10
0.512500
 20
0.590000
  0
VERTEX
  8
gg1
 10
0.527500
 20
0.590000
  0
SEQEND
  8
gg1
  0
POLYLINE
  8
gg1
 62
1
 40
0.000000
 41
0.000000
 66
  1
  0
VERTEX
  8
gg1
 10
0.520000
 20
0.582500
  0
VERTEX
  8
gg1
 10
0.520000
 20
0.597500
  0
SEQEND
  8
gg1
  0
POLYLINE
  8
gg1
 62
1
 40
0.000000
 41
0.000000
 66
  1
  0
VERTEX
  8
gg1
 10
0.533500
 20
0.562000
  0
VERTEX
  8
gg1
 10
0.548500
 20
0.562000
  0
SEQEND
  8
gg1
  0
POLYLINE
  8
gg1
 62
1
 40
0.000000
 41
0.000000
 66
  1
  0
VERTEX
  8
gg1
 10
0.541000
 20
0.554500
  0
VERTEX
  8
gg1
 10
0.541000
 20
0.569500
  0
SEQEND
  8
gg1
  0
POLYLINE
  8
gg1
 62
1
 40
0.000000
 41
0.000000
 66
  1
  0
VERTEX
  8
gg1
 10
0.442500
 20
0.185000
  0
VERTEX
  8
gg1
 10
0.457500
 20
0.185000
  0
SEQEND
  8
gg1
  0
POLYLINE
  8
gg1
 62
1
 40
0.000000
 41
0.000000
 66
  1
  0
VERTEX
  8
gg1
 10
0.450000
 20
0.177500
  0
VERTEX
  8
gg1
 10
0.450000
 20
0.192500
  0
SEQEND
  8
gg1
  0
POLYLINE
  8
gg1
 62
1
 40
0.000000
 41
0.000000
 66
  1
  0
VERTEX
  8
gg1
 10
0.202500
 20
0.370000
  0
VERTEX
  8
gg1
 10
0.217500
 20
0.370000
  0
SEQEND
  8
gg1
  0
POLYLINE
  8
gg1
 62
1
 40
0.000000
 41
0.000000
 66
  1
  0
VERTEX
  8
gg1
 10
0.210000
 20
0.362500
  0
VERTEX
  8
gg1
 10
0.210000
 20
0.377500
  0
SEQEND
  8
gg1
  0
POLYLINE
  8
gg1
 62
1
 40
0.000000
 41
0.000000
 66
  1
  0
VERTEX
  8
gg1
 10
0.127500
 20
0.300000
  0
VERTEX
  8
gg1
 10
0.142500
 20
0.300000
  0
SEQEND
  8
gg1
  0
POLYLINE
  8
gg1
 62
1
 40
0.000000
 41
0.000000
 66
  1
  0
VERTEX
  8
gg1
 10
0.135000
 20
0.292500
  0
VERTEX
  8
gg1
 10
0.135000
 20
0.307500
  0
SEQEND
  8
gg1
  0
POLYLINE
  8
gg1
 62
1
 40
0.000000
 41
0.000000
 66
  1
  0
VERTEX
  8
gg1
 10
0.202500
 20
0.400000
  0
VERTEX
  8
gg1
 10
0.217500
 20
0.400000
  0
SEQEND
  8
gg1
  0
POLYLINE
  8
gg1
 62
1
 40
0.000000
 41
0.000000
 66
  1
  0
VERTEX
  8
gg1
 10
0.210000
 20
0.392500
  0
VERTEX
  8
gg1
 10
0.210000
 20
0.407500
  0
SEQEND
  8
gg1
  0
POLYLINE
  8
gg1
 62
1
 40
0.000000
 41
0.000000
 66
  1
  0
VERTEX
  8
gg1
 10
0.162500
 20
0.300000
  0
VERTEX
  8
gg1
 10
0.177500
 20
0.300000
  0
SEQEND
  8
gg1
  0
POLYLINE
  8
gg1
 62
1
 40
0.000000
 41
0.000000
 66
  1
  0
VERTEX
  8
gg1
 10
0.170000
 20
0.292500
  0
VERTEX
  8
gg1
 10
0.170000
 20
0.307500
  0
SEQEND
  8
gg1
  0
POLYLINE
  8
gg1
 62
1
 40
0.000000
 41
0.000000
 66
  1
  0
VERTEX
  8
gg1
 10
0.062500
 20
0.390000
  0
VERTEX
  8
gg1
 10
0.077500
 20
0.390000
  0
SEQEND
  8
gg1
  0
POLYLINE
  8
gg1
 62
1
 40
0.000000
 41
0.000000
 66
  1
  0
VERTEX
  8
gg1
 10
0.070000
 20
0.382500
  0
VERTEX
  8
gg1
 10
0.070000
 20
0.397500
  0
SEQEND
  8
gg1
  0
POLYLINE
  8
gg1
 62
1
 40
0.000000
 41
0.000000
 66
  1
  0
VERTEX
  8
gg1
 10
0.042500
 20
0.305000
  0
VERTEX
  8
gg1
 10
0.057500
 20
0.305000
  0
SEQEND
  8
gg1
  0
POLYLINE
  8
gg1
 62
1
 40
0.000000
 41
0.000000
 66
  1
  0
VERTEX
  8
gg1
 10
0.050000
 20
0.297500
  0
VERTEX
  8
gg1
 10
0.050000
 20
0.312500
  0
SEQEND
  8
gg1
  0
POLYLINE
  8
gg1
 62
1
 40
0.000000
 41
0.000000
 66
  1
  0
VERTEX
  8
gg1
 10
0.347500
 20
0.410000
  0
VERTEX
  8
gg1
 10
0.362500
 20
0.410000
  0
SEQEND
  8
gg1
  0
POLYLINE
  8
gg1
 62
1
 40
0.000000
 41
0.000000
 66
  1
  0
VERTEX
  8
gg1
 10
0.355000
 20
0.402500
  0
VERTEX
  8
gg1
 10
0.355000
 20
0.417500
  0
SEQEND
  8
gg1
  0
POLYLINE
  8
gg1
 62
1
 40
0.000000
 41
0.000000
 66
  1
  0
VERTEX
  8
gg1
 10
0.335500
 20
0.573000
  0
VERTEX
  8
gg1
 10
0.350500
 20
0.573000
  0
SEQEND
  8
gg1
  0
POLYLINE
  8
gg1
 62
1
 40
0.000000
 41
0.000000
 66
  1
  0
VERTEX
  8
gg1
 10
0.343000
 20
0.565500
  0
VERTEX
  8
gg1
 10
0.343000
 20
0.580500
  0
SEQEND
  8
gg1
  0
POLYLINE
  8
gg1
 62
1
 40
0.000000
 41
0.000000
 66
  1
  0
VERTEX
  8
gg1
 10
0.542500
 20
0.590000
  0
VERTEX
  8
gg1
 10
0.557500
 20
0.590000
  0
SEQEND
  8
gg1
  0
POLYLINE
  8
gg1
 62
1
 40
0.000000
 41
0.000000
 66
  1
  0
VERTEX
  8
gg1
 10
0.550000
 20
0.582500
  0
VERTEX
  8
gg1
 10
0.550000
 20
0.597500
  0
SEQEND
  8
gg1
  0
POLYLINE
  8
gg1
 62
1
 40
0.000000
 41
0.000000
 66
  1
  0
VERTEX
  8
gg1
 10
0.262500
 20
0.525000
  0
VERTEX
  8
gg1
 10
0.277500
 20
0.525000
  0
SEQEND
  8
gg1
  0
POLYLINE
  8
gg1
 62
1
 40
0.000000
 41
0.000000
 66
  1
  0
VERTEX
  8
gg1
 10
0.270000
 20
0.517500
  0
VERTEX
  8
gg1
 10
0.270000
 20
0.532500
  0
SEQEND
  8
gg1
  0
POLYLINE
  8
gg1
 62
1
 40
0.000000
 41
0.000000
 66
  1
  0
VERTEX
  8
gg1
 10
0.266500
 20
0.610700
  0
VERTEX
  8
gg1
 10
0.281500
 20
0.610700
  0
SEQEND
  8
gg1
  0
POLYLINE
  8
gg1
 62
1
 40
0.000000
 41
0.000000
 66
  1
  0
VERTEX
  8
gg1
 10
0.274000
 20
0.603200
  0
VERTEX
  8
gg1
 10
0.274000
 20
0.618200
  0
SEQEND
  8
gg1
  0
POLYLINE
  8
gg1
 62
1
 40
0.000000
 41
0.000000
 66
  1
  0
VERTEX
  8
gg1
 10
0.522500
 20
0.175000
  0
VERTEX
  8
gg1
 10
0.537500
 20
0.175000
  0
SEQEND
  8
gg1
  0
POLYLINE
  8
gg1
 62
1
 40
0.000000
 41
0.000000
 66
  1
  0
VERTEX
  8
gg1
 10
0.530000
 20
0.167500
  0
VERTEX
  8
gg1
 10
0.530000
 20
0.182500
  0
SEQEND
  8
gg1
  0
POLYLINE
  8
gg1
 62
1
 40
0.000000
 41
0.000000
 66
  1
  0
VERTEX
  8
gg1
 10
0.472500
 20
0.195000
  0
VERTEX
  8
gg1
 10
0.487500
 20
0.195000
  0
SEQEND
  8
gg1
  0
POLYLINE
  8
gg1
 62
1
 40
0.000000
 41
0.000000
 66
  1
  0
VERTEX
  8
gg1
 10
0.480000
 20
0.187500
  0
VERTEX
  8
gg1
 10
0.480000
 20
0.202500
  0
SEQEND
  8
gg1
  0
POLYLINE
  8
gg1
 62
1
 40
0.000000
 41
0.000000
 66
  1
  0
VERTEX
  8
gg1
 10
0.052500
 20
0.350000
  0
VERTEX
  8
gg1
 10
0.067500
 20
0.350000
  0
SEQEND
  8
gg1
  0
POLYLINE
  8
gg1
 62
1
 40
0.000000
 41
0.000000
 66
  1
  0
VERTEX
  8
gg1
 10
0.060000
 20
0.342500
  0
VERTEX
  8
gg1
 10
0.060000
 20
0.357500
  0
SEQEND
  8
gg1
  0
POLYLINE
  8
gg1
 62
1
 40
0.000000
 41
0.000000
 66
  1
  0
VERTEX
  8
gg1
 10
0.330500
 20
0.167000
  0
VERTEX
  8
gg1
 10
0.345500
 20
0.167000
  0
SEQEND
  8
gg1
  0
POLYLINE
  8
gg1
 62
1
 40
0.000000
 41
0.000000
 66
  1
  0
VERTEX
  8
gg1
 10
0.338000
 20
0.159500
  0
VERTEX
  8
gg1
 10
0.338000
 20
0.174500
  0
SEQEND
  8
gg1
  0
POLYLINE
  8
gg1
 62
1
 40
0.000000
 41
0.000000
 66
  1
  0
VERTEX
  8
gg1
 10
0.282500
 20
0.660000
  0
VERTEX
  8
gg1
 10
0.297500
 20
0.660000
  0
SEQEND
  8
gg1
  0
POLYLINE
  8
gg1
 62
1
 40
0.000000
 41
0.000000
 66
  1
  0
VERTEX
  8
gg1
 10
0.290000
 20
0.652500
  0
VERTEX
  8
gg1
 10
0.290000
 20
0.667500
  0
SEQEND
  8
gg1
  0
POLYLINE
  8
gg1
 62
1
 40
0.000000
 41
0.000000
 66
  1
  0
VERTEX
  8
gg1
 10
0.249100
 20
0.650000
  0
VERTEX
  8
gg1
 10
0.264100
 20
0.650000
  0
SEQEND
  8
gg1
  0
POLYLINE
  8
gg1
 62
1
 40
0.000000
 41
0.000000
 66
  1
  0
VERTEX
  8
gg1
 10
0.256600
 20
0.642500
  0
VERTEX
  8
gg1
 10
0.256600
 20
0.657500
  0
SEQEND
  8
gg1
  0
POLYLINE
  8
gg1
 62
1
 40
0.000000
 41
0.000000
 66
  1
  0
VERTEX
  8
gg1
 10
0.562500
 20
0.200000
  0
VERTEX
  8
gg1
 10
0.577500
 20
0.200000
  0
SEQEND
  8
gg1
  0
POLYLINE
  8
gg1
 62
1
 40
0.000000
 41
0.000000
 66
  1
  0
VERTEX
  8
gg1
 10
0.570000
 20
0.192500
  0
VERTEX
  8
gg1
 10
0.570000
 20
0.207500
  0
SEQEND
  8
gg1
  0
POLYLINE
  8
gg1
 62
1
 40
0.000000
 41
0.000000
 66
  1
  0
VERTEX
  8
gg1
 10
0.212500
 20
0.490000
  0
VERTEX
  8
gg1
 10
0.227500
 20
0.490000
  0
SEQEND
  8
gg1
  0
POLYLINE
  8
gg1
 62
1
 40
0.000000
 41
0.000000
 66
  1
  0
VERTEX
  8
gg1
 10
0.220000
 20
0.482500
  0
VERTEX
  8
gg1
 10
0.220000
 20
0.497500
  0
SEQEND
  8
gg1
  0
POLYLINE
  8
gg1
 62
1
 40
0.000000
 41
0.000000
 66
  1
  0
VERTEX
  8
gg1
 10
0.242500
 20
0.490000
  0
VERTEX
  8
gg1
 10
0.257500
 20
0.490000
  0
SEQEND
  8
gg1
  0
POLYLINE
  8
gg1
 62
1
 40
0.000000
 41
0.000000
 66
  1
  0
VERTEX
  8
gg1
 10
0.250000
 20
0.482500
  0
VERTEX
  8
gg1
 10
0.250000
 20
0.497500
  0
SEQEND
  8
gg1
  0
POLYLINE
  8
gg1
 62
1
 40
0.000000
 41
0.000000
 66
  1
  0
VERTEX
  8
gg1
 10
0.512500
 20
0.541000
  0
VERTEX
  8
gg1
 10
0.527500
 20
0.541000
  0
SEQEND
  8
gg1
  0
POLYLINE
  8
gg1
 62
1
 40
0.000000
 41
0.000000
 66
  1
  0
VERTEX
  8
gg1
 10
0.520000
 20
0.533500
  0
VERTEX
  8
gg1
 10
0.520000
 20
0.548500
  0
SEQEND
  8
gg1
  0
ENDSEC
  0
EOF
