  0
SECTION
  2
HEADER
  9
$EXTMIN
 10
-0.344000
 20
-0.329000
  9
$EXTMAX
 10
0.230000
 20
0.318000
  9
$LIMMIN
 10
-0.344000
 20
-0.329000
  9
$LIMMAX
 10
0.230000
 20
0.318000
  9
$FILLMODE
 70
  1
  0
ENDSEC
  0
SECTION
  2
TABLES
  0
TABLE
  2
LTYPE
 70
  1
  0
LTYPE
  2
CONTINUOUS
 70
 64
  3
Solid line
 72
 65
 73
  0
 40
0.0
  0
ENDTAB
  0
TABLE
  2
LAYER
 70
 1
  0
LAYER
  2
0
 70
  0
 62
7
  6
CONTINUOUS
  0
LAYER
  2
gg1
 70
  0
 62
1
  6
CONTINUOUS
  0
ENDTAB
  0
TABLE
  2
STYLE
 70
  1
  0
STYLE
  2
STANDARD
 70
  0
 40
0.0
 41
1.0
 50
0.0
 71
  0
 42
0.2
  3
txt
  4

  0
ENDTAB
  0
ENDSEC
  0
SECTION
  2
BLOCKS
  0
BLOCK
  8
0
  2
D10
 70
64
 10
0.0
 20
0.0
  3
D10
  0
CIRCLE
  8
0
 10
0.000000
 20
0.000000
 40
0.002500
 0
ENDBLK
  8
0
  0
BLOCK
  8
0
  2
D11
 70
64
 10
0.0
 20
0.0
  3
D11
  0
CIRCLE
  8
0
 10
0.000000
 20
0.000000
 40
0.003000
 0
ENDBLK
  8
0
  0
BLOCK
  8
0
  2
D12
 70
64
 10
0.0
 20
0.0
  3
D12
  0
CIRCLE
  8
0
 10
0.000000
 20
0.000000
 40
0.001000
 0
ENDBLK
  8
0
  0
ENDSEC
  0
SECTION
  2
ENTITIES
  0
POLYLINE
  8
gg1
 62
1
 40
0.000000
 41
0.000000
 66
  1
  0
VERTEX
  8
gg1
 10
-0.128300
 20
0.188900
  0
VERTEX
  8
gg1
 10
-0.128300
 20
0.188900
  0
VERTEX
  8
gg1
 10
-0.128300
 20
0.188900
 42
0.253517
  0
VERTEX
  8
gg1
 10
-0.228300
 20
0.003800
  0
VERTEX
  8
gg1
 10
-0.228300
 20
0.003800
  0
SEQEND
  8
gg1
  0
POLYLINE
  8
gg1
 62
1
 40
0.000000
 41
0.000000
 66
  1
  0
VERTEX
  8
gg1
 10
0.228300
 20
0.003800
  0
VERTEX
  8
gg1
 10
0.228300
 20
0.003800
  0
VERTEX
  8
gg1
 10
0.228300
 20
0.003800
 42
0.252728
  0
VERTEX
  8
gg1
 10
0.128300
 20
0.188900
  0
VERTEX
  8
gg1
 10
0.128300
 20
0.188900
  0
SEQEND
  8
gg1
  0
POLYLINE
  8
gg1
 62
1
 40
0.000000
 41
0.000000
 66
  1
  0
VERTEX
  8
gg1
 10
0.228300
 20
-0.310000
  0
VERTEX
  8
gg1
 10
0.228300
 20
-0.240800
  0
SEQEND
  8
gg1
  0
POLYLINE
  8
gg1
 62
1
 40
0.000000
 41
0.000000
 66
  1
  0
VERTEX
  8
gg1
 10
-0.228300
 20
-0.310000
  0
VERTEX
  8
gg1
 10
-0.228300
 20
-0.240800
  0
SEQEND
  8
gg1
  0
POLYLINE
  8
gg1
 62
1
 40
0.000000
 41
0.000000
 66
  1
  0
VERTEX
  8
gg1
 10
0.123300
 20
-0.300000
  0
VERTEX
  8
gg1
 10
0.228300
 20
-0.300000
  0
SEQEND
  8
gg1
  0
POLYLINE
  8
gg1
 62
1
 40
0.000000
 41
0.000000
 66
  1
  0
VERTEX
  8
gg1
 10
-0.228300
 20
-0.300000
  0
VERTEX
  8
gg1
 10
-0.155300
 20
-0.300000
  0
SEQEND
  8
gg1
  0
POLYLINE
  8
gg1
 62
1
 40
0.000000
 41
0.000000
 66
  1
  0
VERTEX
  8
gg1
 10
0.178300
 20
-0.283300
  0
VERTEX
  8
gg1
 10
0.228300
 20
-0.300000
  0
SEQEND
  8
gg1
  0
POLYLINE
  8
gg1
 62
1
 40
0.000000
 41
0.000000
 66
  1
  0
VERTEX
  8
gg1
 10
0.178300
 20
-0.316700
  0
VERTEX
  8
gg1
 10
0.228300
 20
-0.300000
  0
SEQEND
  8
gg1
  0
POLYLINE
  8
gg1
 62
1
 40
0.000000
 41
0.000000
 66
  1
  0
VERTEX
  8
gg1
 10
-0.228300
 20
-0.300000
  0
VERTEX
  8
gg1
 10
-0.178300
 20
-0.316700
  0
SEQEND
  8
gg1
  0
POLYLINE
  8
gg1
 62
1
 40
0.000000
 41
0.000000
 66
  1
  0
VERTEX
  8
gg1
 10
-0.228300
 20
-0.300000
  0
VERTEX
  8
gg1
 10
-0.178300
 20
-0.283300
  0
SEQEND
  8
gg1
  0
POLYLINE
  8
gg1
 62
1
 40
0.000000
 41
0.000000
 66
  1
  0
VERTEX
  8
gg1
 10
0.128000
 20
0.201500
  0
VERTEX
  8
gg1
 10
0.128000
 20
0.260000
  0
SEQEND
  8
gg1
  0
POLYLINE
  8
gg1
 62
1
 40
0.000000
 41
0.000000
 66
  1
  0
VERTEX
  8
gg1
 10
-0.128000
 20
0.201500
  0
VERTEX
  8
gg1
 10
-0.128000
 20
0.260000
  0
SEQEND
  8
gg1
  0
POLYLINE
  8
gg1
 62
1
 40
0.000000
 41
0.000000
 66
  1
  0
VERTEX
  8
gg1
 10
0.000000
 20
0.250000
  0
VERTEX
  8
gg1
 10
0.128000
 20
0.250000
  0
SEQEND
  8
gg1
  0
POLYLINE
  8
gg1
 62
1
 40
0.000000
 41
0.000000
 66
  1
  0
VERTEX
  8
gg1
 10
-0.128000
 20
0.250000
  0
VERTEX
  8
gg1
 10
0.000000
 20
0.250000
  0
SEQEND
  8
gg1
  0
POLYLINE
  8
gg1
 62
1
 40
0.000000
 41
0.000000
 66
  1
  0
VERTEX
  8
gg1
 10
0.078000
 20
0.266700
  0
VERTEX
  8
gg1
 10
0.128000
 20
0.250000
  0
SEQEND
  8
gg1
  0
POLYLINE
  8
gg1
 62
1
 40
0.000000
 41
0.000000
 66
  1
  0
VERTEX
  8
gg1
 10
0.078000
 20
0.233300
  0
VERTEX
  8
gg1
 10
0.128000
 20
0.250000
  0
SEQEND
  8
gg1
  0
POLYLINE
  8
gg1
 62
1
 40
0.000000
 41
0.000000
 66
  1
  0
VERTEX
  8
gg1
 10
-0.128000
 20
0.250000
  0
VERTEX
  8
gg1
 10
-0.078000
 20
0.233300
  0
SEQEND
  8
gg1
  0
POLYLINE
  8
gg1
 62
1
 40
0.000000
 41
0.000000
 66
  1
  0
VERTEX
  8
gg1
 10
-0.128000
 20
0.250000
  0
VERTEX
  8
gg1
 10
-0.078000
 20
0.266700
  0
SEQEND
  8
gg1
  0
POLYLINE
  8
gg1
 62
1
 40
0.000000
 41
0.000000
 66
  1
  0
VERTEX
  8
gg1
 10
-0.335000
 20
-0.228300
  0
VERTEX
  8
gg1
 10
-0.240800
 20
-0.228300
  0
SEQEND
  8
gg1
  0
POLYLINE
  8
gg1
 62
1
 40
0.000000
 41
0.000000
 66
  1
  0
VERTEX
  8
gg1
 10
-0.335000
 20
0.189000
  0
VERTEX
  8
gg1
 10
-0.140500
 20
0.189000
  0
SEQEND
  8
gg1
  0
POLYLINE
  8
gg1
 62
1
 40
0.000000
 41
0.000000
 66
  1
  0
VERTEX
  8
gg1
 10
-0.325000
 20
-0.228300
  0
VERTEX
  8
gg1
 10
-0.325000
 20
-0.178300
  0
SEQEND
  8
gg1
  0
POLYLINE
  8
gg1
 62
1
 40
0.000000
 41
0.000000
 66
  1
  0
VERTEX
  8
gg1
 10
-0.325000
 20
0.106900
  0
VERTEX
  8
gg1
 10
-0.325000
 20
0.189000
  0
SEQEND
  8
gg1
  0
POLYLINE
  8
gg1
 62
1
 40
0.000000
 41
0.000000
 66
  1
  0
VERTEX
  8
gg1
 10
-0.325000
 20
-0.228300
  0
VERTEX
  8
gg1
 10
-0.308300
 20
-0.178300
  0
SEQEND
  8
gg1
  0
POLYLINE
  8
gg1
 62
1
 40
0.000000
 41
0.000000
 66
  1
  0
VERTEX
  8
gg1
 10
-0.341700
 20
-0.178300
  0
VERTEX
  8
gg1
 10
-0.325000
 20
-0.228300
  0
SEQEND
  8
gg1
  0
POLYLINE
  8
gg1
 62
1
 40
0.000000
 41
0.000000
 66
  1
  0
VERTEX
  8
gg1
 10
-0.341700
 20
0.139000
  0
VERTEX
  8
gg1
 10
-0.325000
 20
0.189000
  0
VERTEX
  8
gg1
 10
-0.308300
 20
0.139000
  0
SEQEND
  8
gg1
  0
POLYLINE
  8
gg1
 62
1
 40
0.000000
 41
0.000000
 66
  1
  0
VERTEX
  8
gg1
 10
-0.128000
 20
0.189000
  0
VERTEX
  8
gg1
 10
0.128000
 20
0.189000
  0
SEQEND
  8
gg1
  0
POLYLINE
  8
gg1
 62
1
 40
0.000000
 41
0.000000
 66
  1
  0
VERTEX
  8
gg1
 10
-0.228300
 20
-0.228300
  0
VERTEX
  8
gg1
 10
-0.228300
 20
0.003800
  0
SEQEND
  8
gg1
  0
POLYLINE
  8
gg1
 62
1
 40
0.000000
 41
0.000000
 66
  1
  0
VERTEX
  8
gg1
 10
-0.228300
 20
-0.228300
  0
VERTEX
  8
gg1
 10
0.228300
 20
-0.228300
  0
VERTEX
  8
gg1
 10
0.228300
 20
0.003800
  0
SEQEND
  8
gg1
  0
POLYLINE
  8
gg1
 62
1
 40
0.000000
 41
0.000000
 66
  1
  0
VERTEX
  8
gg1
 10
-0.139300
 20
-0.326000
  0
VERTEX
  8
gg1
 10
-0.126000
 20
-0.326000
  0
VERTEX
  8
gg1
 10
-0.132600
 20
-0.326000
  0
VERTEX
  8
gg1
 10
-0.132600
 20
-0.286000
  0
VERTEX
  8
gg1
 10
-0.139300
 20
-0.292700
  0
SEQEND
  8
gg1
  0
POLYLINE
  8
gg1
 62
1
 40
0.000000
 41
0.000000
 66
  1
  0
VERTEX
  8
gg1
 10
-0.106000
 20
-0.326000
  0
VERTEX
  8
gg1
 10
-0.092600
 20
-0.326000
  0
VERTEX
  8
gg1
 10
-0.099300
 20
-0.326000
  0
VERTEX
  8
gg1
 10
-0.099300
 20
-0.286000
  0
VERTEX
  8
gg1
 10
-0.106000
 20
-0.292700
  0
SEQEND
  8
gg1
  0
POLYLINE
  8
gg1
 62
1
 40
0.000000
 41
0.000000
 66
  1
  0
VERTEX
  8
gg1
 10
-0.072600
 20
-0.326000
  0
VERTEX
  8
gg1
 10
-0.072600
 20
-0.319300
  0
VERTEX
  8
gg1
 10
-0.066000
 20
-0.319300
  0
VERTEX
  8
gg1
 10
-0.066000
 20
-0.326000
  0
VERTEX
  8
gg1
 10
-0.072600
 20
-0.326000
  0
SEQEND
  8
gg1
  0
POLYLINE
  8
gg1
 62
1
 40
0.000000
 41
0.000000
 66
  1
  0
VERTEX
  8
gg1
 10
-0.012700
 20
-0.286000
  0
VERTEX
  8
gg1
 10
-0.026000
 20
-0.292700
  0
VERTEX
  8
gg1
 10
-0.039300
 20
-0.306000
  0
VERTEX
  8
gg1
 10
-0.039300
 20
-0.319300
  0
VERTEX
  8
gg1
 10
-0.032700
 20
-0.326000
  0
VERTEX
  8
gg1
 10
-0.019300
 20
-0.326000
  0
VERTEX
  8
gg1
 10
-0.012700
 20
-0.319300
  0
VERTEX
  8
gg1
 10
-0.012700
 20
-0.312700
  0
VERTEX
  8
gg1
 10
-0.019300
 20
-0.306000
  0
VERTEX
  8
gg1
 10
-0.039300
 20
-0.306000
  0
SEQEND
  8
gg1
  0
POLYLINE
  8
gg1
 62
1
 40
0.000000
 41
0.000000
 66
  1
  0
VERTEX
  8
gg1
 10
0.000700
 20
-0.292700
  0
VERTEX
  8
gg1
 10
0.007300
 20
-0.286000
  0
VERTEX
  8
gg1
 10
0.020700
 20
-0.286000
  0
VERTEX
  8
gg1
 10
0.027300
 20
-0.292700
  0
VERTEX
  8
gg1
 10
0.027300
 20
-0.319300
  0
VERTEX
  8
gg1
 10
0.020700
 20
-0.326000
  0
VERTEX
  8
gg1
 10
0.007300
 20
-0.326000
  0
VERTEX
  8
gg1
 10
0.000700
 20
-0.319300
  0
VERTEX
  8
gg1
 10
0.000700
 20
-0.292700
  0
SEQEND
  8
gg1
  0
POLYLINE
  8
gg1
 62
1
 40
0.000000
 41
0.000000
 66
  1
  0
VERTEX
  8
gg1
 10
0.040600
 20
-0.326000
  0
VERTEX
  8
gg1
 10
0.040600
 20
-0.299300
  0
VERTEX
  8
gg1
 10
0.047300
 20
-0.299300
  0
VERTEX
  8
gg1
 10
0.054000
 20
-0.306000
  0
VERTEX
  8
gg1
 10
0.054000
 20
-0.326000
  0
VERTEX
  8
gg1
 10
0.054000
 20
-0.306000
  0
VERTEX
  8
gg1
 10
0.060600
 20
-0.299300
  0
VERTEX
  8
gg1
 10
0.067300
 20
-0.306000
  0
VERTEX
  8
gg1
 10
0.067300
 20
-0.326000
  0
SEQEND
  8
gg1
  0
POLYLINE
  8
gg1
 62
1
 40
0.000000
 41
0.000000
 66
  1
  0
VERTEX
  8
gg1
 10
0.080600
 20
-0.326000
  0
VERTEX
  8
gg1
 10
0.080600
 20
-0.299300
  0
VERTEX
  8
gg1
 10
0.087300
 20
-0.299300
  0
VERTEX
  8
gg1
 10
0.094000
 20
-0.306000
  0
VERTEX
  8
gg1
 10
0.094000
 20
-0.326000
  0
VERTEX
  8
gg1
 10
0.094000
 20
-0.306000
  0
VERTEX
  8
gg1
 10
0.100600
 20
-0.299300
  0
VERTEX
  8
gg1
 10
0.107300
 20
-0.306000
  0
VERTEX
  8
gg1
 10
0.107300
 20
-0.326000
  0
SEQEND
  8
gg1
  0
POLYLINE
  8
gg1
 62
1
 40
0.000000
 41
0.000000
 66
  1
  0
VERTEX
  8
gg1
 10
-0.073300
 20
0.315000
  0
VERTEX
  8
gg1
 10
-0.086700
 20
0.308300
  0
VERTEX
  8
gg1
 10
-0.100000
 20
0.295000
  0
VERTEX
  8
gg1
 10
-0.100000
 20
0.281700
  0
VERTEX
  8
gg1
 10
-0.093300
 20
0.275000
  0
VERTEX
  8
gg1
 10
-0.080000
 20
0.275000
  0
VERTEX
  8
gg1
 10
-0.073300
 20
0.281700
  0
VERTEX
  8
gg1
 10
-0.073300
 20
0.288300
  0
VERTEX
  8
gg1
 10
-0.080000
 20
0.295000
  0
VERTEX
  8
gg1
 10
-0.100000
 20
0.295000
  0
SEQEND
  8
gg1
  0
POLYLINE
  8
gg1
 62
1
 40
0.000000
 41
0.000000
 66
  1
  0
VERTEX
  8
gg1
 10
-0.060000
 20
0.275000
  0
VERTEX
  8
gg1
 10
-0.060000
 20
0.281700
  0
VERTEX
  8
gg1
 10
-0.053300
 20
0.281700
  0
VERTEX
  8
gg1
 10
-0.053300
 20
0.275000
  0
VERTEX
  8
gg1
 10
-0.060000
 20
0.275000
  0
SEQEND
  8
gg1
  0
POLYLINE
  8
gg1
 62
1
 40
0.000000
 41
0.000000
 66
  1
  0
VERTEX
  8
gg1
 10
0.000000
 20
0.315000
  0
VERTEX
  8
gg1
 10
-0.026700
 20
0.315000
  0
VERTEX
  8
gg1
 10
-0.026700
 20
0.295000
  0
VERTEX
  8
gg1
 10
-0.013400
 20
0.301700
  0
VERTEX
  8
gg1
 10
-0.006700
 20
0.301700
  0
VERTEX
  8
gg1
 10
0.000000
 20
0.295000
  0
VERTEX
  8
gg1
 10
0.000000
 20
0.281700
  0
VERTEX
  8
gg1
 10
-0.006700
 20
0.275000
  0
VERTEX
  8
gg1
 10
-0.020000
 20
0.275000
  0
VERTEX
  8
gg1
 10
-0.026700
 20
0.281700
  0
SEQEND
  8
gg1
  0
POLYLINE
  8
gg1
 62
1
 40
0.000000
 41
0.000000
 66
  1
  0
VERTEX
  8
gg1
 10
0.013300
 20
0.308300
  0
VERTEX
  8
gg1
 10
0.020000
 20
0.315000
  0
VERTEX
  8
gg1
 10
0.033300
 20
0.315000
  0
VERTEX
  8
gg1
 10
0.040000
 20
0.308300
  0
VERTEX
  8
gg1
 10
0.040000
 20
0.281700
  0
VERTEX
  8
gg1
 10
0.033300
 20
0.275000
  0
VERTEX
  8
gg1
 10
0.020000
 20
0.275000
  0
VERTEX
  8
gg1
 10
0.013300
 20
0.281700
  0
VERTEX
  8
gg1
 10
0.013300
 20
0.308300
  0
SEQEND
  8
gg1
  0
POLYLINE
  8
gg1
 62
1
 40
0.000000
 41
0.000000
 66
  1
  0
VERTEX
  8
gg1
 10
0.053300
 20
0.275000
  0
VERTEX
  8
gg1
 10
0.053300
 20
0.301700
  0
VERTEX
  8
gg1
 10
0.059900
 20
0.301700
  0
VERTEX
  8
gg1
 10
0.066600
 20
0.295000
  0
VERTEX
  8
gg1
 10
0.066600
 20
0.275000
  0
VERTEX
  8
gg1
 10
0.066600
 20
0.295000
  0
VERTEX
  8
gg1
 10
0.073300
 20
0.301700
  0
VERTEX
  8
gg1
 10
0.079900
 20
0.295000
  0
VERTEX
  8
gg1
 10
0.079900
 20
0.275000
  0
SEQEND
  8
gg1
  0
POLYLINE
  8
gg1
 62
1
 40
0.000000
 41
0.000000
 66
  1
  0
VERTEX
  8
gg1
 10
0.093300
 20
0.275000
  0
VERTEX
  8
gg1
 10
0.093300
 20
0.301700
  0
VERTEX
  8
gg1
 10
0.099900
 20
0.301700
  0
VERTEX
  8
gg1
 10
0.106600
 20
0.295000
  0
VERTEX
  8
gg1
 10
0.106600
 20
0.275000
  0
VERTEX
  8
gg1
 10
0.106600
 20
0.295000
  0
VERTEX
  8
gg1
 10
0.113300
 20
0.301700
  0
VERTEX
  8
gg1
 10
0.119900
 20
0.295000
  0
VERTEX
  8
gg1
 10
0.119900
 20
0.275000
  0
SEQEND
  8
gg1
  0
POLYLINE
  8
gg1
 62
1
 40
0.000000
 41
0.000000
 66
  1
  0
VERTEX
  8
gg1
 10
-0.299000
 20
-0.162300
  0
VERTEX
  8
gg1
 10
-0.299000
 20
-0.149000
  0
VERTEX
  8
gg1
 10
-0.299000
 20
-0.155600
  0
VERTEX
  8
gg1
 10
-0.339000
 20
-0.155600
  0
VERTEX
  8
gg1
 10
-0.332300
 20
-0.162300
  0
SEQEND
  8
gg1
  0
POLYLINE
  8
gg1
 62
1
 40
0.000000
 41
0.000000
 66
  1
  0
VERTEX
  8
gg1
 10
-0.332300
 20
-0.129000
  0
VERTEX
  8
gg1
 10
-0.339000
 20
-0.122300
  0
VERTEX
  8
gg1
 10
-0.339000
 20
-0.109000
  0
VERTEX
  8
gg1
 10
-0.332300
 20
-0.102300
  0
VERTEX
  8
gg1
 10
-0.305700
 20
-0.102300
  0
VERTEX
  8
gg1
 10
-0.299000
 20
-0.109000
  0
VERTEX
  8
gg1
 10
-0.299000
 20
-0.122300
  0
VERTEX
  8
gg1
 10
-0.305700
 20
-0.129000
  0
VERTEX
  8
gg1
 10
-0.332300
 20
-0.129000
  0
SEQEND
  8
gg1
  0
POLYLINE
  8
gg1
 62
1
 40
0.000000
 41
0.000000
 66
  1
  0
VERTEX
  8
gg1
 10
-0.299000
 20
-0.089000
  0
VERTEX
  8
gg1
 10
-0.305700
 20
-0.089000
  0
VERTEX
  8
gg1
 10
-0.305700
 20
-0.082300
  0
VERTEX
  8
gg1
 10
-0.299000
 20
-0.082300
  0
VERTEX
  8
gg1
 10
-0.299000
 20
-0.089000
  0
SEQEND
  8
gg1
  0
POLYLINE
  8
gg1
 62
1
 40
0.000000
 41
0.000000
 66
  1
  0
VERTEX
  8
gg1
 10
-0.339000
 20
-0.029000
  0
VERTEX
  8
gg1
 10
-0.332300
 20
-0.042400
  0
VERTEX
  8
gg1
 10
-0.319000
 20
-0.055700
  0
VERTEX
  8
gg1
 10
-0.305700
 20
-0.055700
  0
VERTEX
  8
gg1
 10
-0.299000
 20
-0.049000
  0
VERTEX
  8
gg1
 10
-0.299000
 20
-0.035700
  0
VERTEX
  8
gg1
 10
-0.305700
 20
-0.029000
  0
VERTEX
  8
gg1
 10
-0.312300
 20
-0.029000
  0
VERTEX
  8
gg1
 10
-0.319000
 20
-0.035700
  0
VERTEX
  8
gg1
 10
-0.319000
 20
-0.055700
  0
SEQEND
  8
gg1
  0
POLYLINE
  8
gg1
 62
1
 40
0.000000
 41
0.000000
 66
  1
  0
VERTEX
  8
gg1
 10
-0.332300
 20
-0.015700
  0
VERTEX
  8
gg1
 10
-0.339000
 20
-0.009000
  0
VERTEX
  8
gg1
 10
-0.339000
 20
0.004300
  0
VERTEX
  8
gg1
 10
-0.332300
 20
0.011000
  0
VERTEX
  8
gg1
 10
-0.305700
 20
0.011000
  0
VERTEX
  8
gg1
 10
-0.299000
 20
0.004300
  0
VERTEX
  8
gg1
 10
-0.299000
 20
-0.009000
  0
VERTEX
  8
gg1
 10
-0.305700
 20
-0.015700
  0
VERTEX
  8
gg1
 10
-0.332300
 20
-0.015700
  0
SEQEND
  8
gg1
  0
POLYLINE
  8
gg1
 62
1
 40
0.000000
 41
0.000000
 66
  1
  0
VERTEX
  8
gg1
 10
-0.299000
 20
0.024300
  0
VERTEX
  8
gg1
 10
-0.325700
 20
0.024300
  0
VERTEX
  8
gg1
 10
-0.325700
 20
0.031000
  0
VERTEX
  8
gg1
 10
-0.319000
 20
0.037600
  0
VERTEX
  8
gg1
 10
-0.299000
 20
0.037600
  0
VERTEX
  8
gg1
 10
-0.319000
 20
0.037600
  0
VERTEX
  8
gg1
 10
-0.325700
 20
0.044300
  0
VERTEX
  8
gg1
 10
-0.319000
 20
0.051000
  0
VERTEX
  8
gg1
 10
-0.299000
 20
0.051000
  0
SEQEND
  8
gg1
  0
POLYLINE
  8
gg1
 62
1
 40
0.000000
 41
0.000000
 66
  1
  0
VERTEX
  8
gg1
 10
-0.299000
 20
0.064300
  0
VERTEX
  8
gg1
 10
-0.325700
 20
0.064300
  0
VERTEX
  8
gg1
 10
-0.325700
 20
0.070900
  0
VERTEX
  8
gg1
 10
-0.319000
 20
0.077600
  0
VERTEX
  8
gg1
 10
-0.299000
 20
0.077600
  0
VERTEX
  8
gg1
 10
-0.319000
 20
0.077600
  0
VERTEX
  8
gg1
 10
-0.325700
 20
0.084300
  0
VERTEX
  8
gg1
 10
-0.319000
 20
0.090900
  0
VERTEX
  8
gg1
 10
-0.299000
 20
0.090900
  0
SEQEND
  8
gg1
  0
POLYLINE
  8
gg1
 62
1
 40
0.000000
 41
0.000000
 66
  1
  0
VERTEX
  8
gg1
 10
-0.214400
 20
-0.189000
  0
VERTEX
  8
gg1
 10
-0.179400
 20
-0.189000
  0
SEQEND
  8
gg1
  0
POLYLINE
  8
gg1
 62
1
 40
0.000000
 41
0.000000
 66
  1
  0
VERTEX
  8
gg1
 10
-0.196900
 20
-0.206500
  0
VERTEX
  8
gg1
 10
-0.196900
 20
-0.171500
  0
SEQEND
  8
gg1
  0
POLYLINE
  8
gg1
 62
1
 40
0.000000
 41
0.000000
 66
  1
  0
VERTEX
  8
gg1
 10
-0.135600
 20
-0.189000
  0
VERTEX
  8
gg1
 10
-0.100600
 20
-0.189000
  0
SEQEND
  8
gg1
  0
POLYLINE
  8
gg1
 62
1
 40
0.000000
 41
0.000000
 66
  1
  0
VERTEX
  8
gg1
 10
-0.118100
 20
-0.206500
  0
VERTEX
  8
gg1
 10
-0.118100
 20
-0.171500
  0
SEQEND
  8
gg1
  0
POLYLINE
  8
gg1
 62
1
 40
0.000000
 41
0.000000
 66
  1
  0
VERTEX
  8
gg1
 10
-0.056900
 20
-0.189000
  0
VERTEX
  8
gg1
 10
-0.021900
 20
-0.189000
  0
SEQEND
  8
gg1
  0
POLYLINE
  8
gg1
 62
1
 40
0.000000
 41
0.000000
 66
  1
  0
VERTEX
  8
gg1
 10
-0.039400
 20
-0.206500
  0
VERTEX
  8
gg1
 10
-0.039400
 20
-0.171500
  0
SEQEND
  8
gg1
  0
POLYLINE
  8
gg1
 62
1
 40
0.000000
 41
0.000000
 66
  1
  0
VERTEX
  8
gg1
 10
0.021900
 20
-0.189000
  0
VERTEX
  8
gg1
 10
0.056900
 20
-0.189000
  0
SEQEND
  8
gg1
  0
POLYLINE
  8
gg1
 62
1
 40
0.000000
 41
0.000000
 66
  1
  0
VERTEX
  8
gg1
 10
0.039400
 20
-0.206500
  0
VERTEX
  8
gg1
 10
0.039400
 20
-0.171500
  0
SEQEND
  8
gg1
  0
POLYLINE
  8
gg1
 62
1
 40
0.000000
 41
0.000000
 66
  1
  0
VERTEX
  8
gg1
 10
0.100600
 20
-0.189000
  0
VERTEX
  8
gg1
 10
0.135600
 20
-0.189000
  0
SEQEND
  8
gg1
  0
POLYLINE
  8
gg1
 62
1
 40
0.000000
 41
0.000000
 66
  1
  0
VERTEX
  8
gg1
 10
0.118100
 20
-0.206500
  0
VERTEX
  8
gg1
 10
0.118100
 20
-0.171500
  0
SEQEND
  8
gg1
  0
POLYLINE
  8
gg1
 62
1
 40
0.000000
 41
0.000000
 66
  1
  0
VERTEX
  8
gg1
 10
0.179400
 20
-0.189000
  0
VERTEX
  8
gg1
 10
0.214400
 20
-0.189000
  0
SEQEND
  8
gg1
  0
POLYLINE
  8
gg1
 62
1
 40
0.000000
 41
0.000000
 66
  1
  0
VERTEX
  8
gg1
 10
0.196900
 20
-0.206500
  0
VERTEX
  8
gg1
 10
0.196900
 20
-0.171500
  0
SEQEND
  8
gg1
  0
POLYLINE
  8
gg1
 62
1
 40
0.000000
 41
0.000000
 66
  1
  0
VERTEX
  8
gg1
 10
-0.032000
 20
0.000000
  0
VERTEX
  8
gg1
 10
0.032000
 20
0.000000
  0
SEQEND
  8
gg1
  0
POLYLINE
  8
gg1
 62
1
 40
0.000000
 41
0.000000
 66
  1
  0
VERTEX
  8
gg1
 10
0.000000
 20
-0.032000
  0
VERTEX
  8
gg1
 10
0.000000
 20
0.032000
  0
SEQEND
  8
gg1
  0
POLYLINE
  8
gg1
 62
1
 40
0.000000
 41
0.000000
 66
  1
  0
VERTEX
  8
gg1
 10
-0.153900
 20
0.000000
  0
VERTEX
  8
gg1
 10
-0.113900
 20
0.000000
  0
SEQEND
  8
gg1
  0
POLYLINE
  8
gg1
 62
1
 40
0.000000
 41
0.000000
 66
  1
  0
VERTEX
  8
gg1
 10
-0.133900
 20
-0.020000
  0
VERTEX
  8
gg1
 10
-0.133900
 20
0.020000
  0
SEQEND
  8
gg1
  0
POLYLINE
  8
gg1
 62
1
 40
0.000000
 41
0.000000
 66
  1
  0
VERTEX
  8
gg1
 10
0.113900
 20
0.000000
  0
VERTEX
  8
gg1
 10
0.153900
 20
0.000000
  0
SEQEND
  8
gg1
  0
POLYLINE
  8
gg1
 62
1
 40
0.000000
 41
0.000000
 66
  1
  0
VERTEX
  8
gg1
 10
0.133900
 20
-0.020000
  0
VERTEX
  8
gg1
 10
0.133900
 20
0.020000
  0
SEQEND
  8
gg1
  0
POLYLINE
  8
gg1
 62
1
 40
0.000000
 41
0.000000
 66
  1
  0
VERTEX
  8
gg1
 10
-0.097500
 20
-0.145000
  0
VERTEX
  8
gg1
 10
-0.082500
 20
-0.145000
  0
SEQEND
  8
gg1
  0
POLYLINE
  8
gg1
 62
1
 40
0.000000
 41
0.000000
 66
  1
  0
VERTEX
  8
gg1
 10
-0.090000
 20
-0.152500
  0
VERTEX
  8
gg1
 10
-0.090000
 20
-0.137500
  0
SEQEND
  8
gg1
  0
POLYLINE
  8
gg1
 62
1
 40
0.000000
 41
0.000000
 66
  1
  0
VERTEX
  8
gg1
 10
0.180000
 20
-0.060000
  0
VERTEX
  8
gg1
 10
0.195000
 20
-0.060000
  0
SEQEND
  8
gg1
  0
POLYLINE
  8
gg1
 62
1
 40
0.000000
 41
0.000000
 66
  1
  0
VERTEX
  8
gg1
 10
0.187500
 20
-0.067500
  0
VERTEX
  8
gg1
 10
0.187500
 20
-0.052500
  0
SEQEND
  8
gg1
  0
POLYLINE
  8
gg1
 62
1
 40
0.000000
 41
0.000000
 66
  1
  0
VERTEX
  8
gg1
 10
0.014500
 20
-0.134000
  0
VERTEX
  8
gg1
 10
0.029500
 20
-0.134000
  0
SEQEND
  8
gg1
  0
POLYLINE
  8
gg1
 62
1
 40
0.000000
 41
0.000000
 66
  1
  0
VERTEX
  8
gg1
 10
0.022000
 20
-0.141500
  0
VERTEX
  8
gg1
 10
0.022000
 20
-0.126500
  0
SEQEND
  8
gg1
  0
POLYLINE
  8
gg1
 62
1
 40
0.000000
 41
0.000000
 66
  1
  0
VERTEX
  8
gg1
 10
0.072500
 20
0.150000
  0
VERTEX
  8
gg1
 10
0.087500
 20
0.150000
  0
SEQEND
  8
gg1
  0
POLYLINE
  8
gg1
 62
1
 40
0.000000
 41
0.000000
 66
  1
  0
VERTEX
  8
gg1
 10
0.080000
 20
0.142500
  0
VERTEX
  8
gg1
 10
0.080000
 20
0.157500
  0
SEQEND
  8
gg1
  0
POLYLINE
  8
gg1
 62
1
 40
0.000000
 41
0.000000
 66
  1
  0
VERTEX
  8
gg1
 10
-0.070500
 20
0.030000
  0
VERTEX
  8
gg1
 10
-0.055500
 20
0.030000
  0
SEQEND
  8
gg1
  0
POLYLINE
  8
gg1
 62
1
 40
0.000000
 41
0.000000
 66
  1
  0
VERTEX
  8
gg1
 10
-0.063000
 20
0.022500
  0
VERTEX
  8
gg1
 10
-0.063000
 20
0.037500
  0
SEQEND
  8
gg1
  0
POLYLINE
  8
gg1
 62
1
 40
0.000000
 41
0.000000
 66
  1
  0
VERTEX
  8
gg1
 10
-0.104900
 20
0.115000
  0
VERTEX
  8
gg1
 10
-0.089900
 20
0.115000
  0
SEQEND
  8
gg1
  0
POLYLINE
  8
gg1
 62
1
 40
0.000000
 41
0.000000
 66
  1
  0
VERTEX
  8
gg1
 10
-0.097400
 20
0.107500
  0
VERTEX
  8
gg1
 10
-0.097400
 20
0.122500
  0
SEQEND
  8
gg1
  0
POLYLINE
  8
gg1
 62
1
 40
0.000000
 41
0.000000
 66
  1
  0
VERTEX
  8
gg1
 10
-0.207500
 20
-0.080000
  0
VERTEX
  8
gg1
 10
-0.192500
 20
-0.080000
  0
SEQEND
  8
gg1
  0
POLYLINE
  8
gg1
 62
1
 40
0.000000
 41
0.000000
 66
  1
  0
VERTEX
  8
gg1
 10
-0.200000
 20
-0.087500
  0
VERTEX
  8
gg1
 10
-0.200000
 20
-0.072500
  0
SEQEND
  8
gg1
  0
ENDSEC
  0
EOF
