<svg version="1.1" xmlns:xlink="http://www.w3.org/1999/xlink" xmlns="http://www.w3.org/2000/svg" width="210mm" height="297mm" viewBox="0 0 210 297" preserveAspectRatio="xMinYMin" style="cursor:pointer;"><desc>A laser cuttable robotics platform.</desc><g id="top" label="top" transform="translate(2,4.814657115489913)">

  
  <path fill="none" stroke="#0000FF" stroke-width="0.5" stroke-miterlimit="10" points="     5.875,-2.814657115489913     65.875,-2.814657115489913     65.875, 5     71.75, 5     71.75, 14.875     65.875, 14.875     65.875, 60.125     71.75, 60.125     71.75, 70     65.875, 70     65.875, 75     5.875, 75     5.875, 70     0, 70     0, 60.125     5.875, 60.125     5.875, 14.875     0, 14.875     0, 5     5.875, 5     5.875,-2.814657115489913   " d="M     5.875,-2.814657115489913     65.875,-2.814657115489913     65.875, 5     71.75, 5     71.75, 14.875     65.875, 14.875     65.875, 60.125     71.75, 60.125     71.75, 70     65.875, 70     65.875, 75     5.875, 75     5.875, 70     0, 70     0, 60.125     5.875, 60.125     5.875, 14.875     0, 14.875     0, 5     5.875, 5     5.875,-2.814657115489913    "></path>

  
  <g id="arduino_mounts" transform="translate(11.725000000000001, 10.200000000000003)">
    <circle fill="none" stroke="#0000FF" stroke-width="0.5" stroke-miterlimit="10" cx="15.2" cy="0" r="0.8"></circle>
    <circle fill="none" stroke="#0000FF" stroke-width="0.5" stroke-miterlimit="10" cx="43.1" cy="0" r="0.8"></circle>
    <circle fill="none" stroke="#0000FF" stroke-width="0.5" stroke-miterlimit="10" cx="0" cy="50.8" r="0.8"></circle>
    <circle fill="none" stroke="#0000FF" stroke-width="0.5" stroke-miterlimit="10" cx="48.3" cy="52.1" r="0.8"></circle>
  </g>

  
  <g transform="translate(35.875,37.5)">
    <path d="M-0.675,2.673v2.569c0.003,0.096-0.007,0.192-0.03,0.286c-0.023,0.095-0.062,0.179-0.114,0.251s-0.122,0.132-0.209,0.177       S-1.22,6.023-1.34,6.023h-2.527c-0.146,0-0.264-0.023-0.354-0.069c-0.091-0.047-0.16-0.107-0.21-0.182       c-0.05-0.075-0.084-0.158-0.104-0.251S-4.567,5.335-4.57,5.242V2.673v2.569c0.003,0.093,0.015,0.186,0.035,0.279       s0.055,0.177,0.104,0.251c0.05,0.074,0.119,0.135,0.21,0.182C-4.131,6-4.013,6.023-3.867,6.023h2.527       c0.12,0,0.225-0.022,0.312-0.067s0.156-0.104,0.209-0.177s0.091-0.157,0.114-0.251c0.023-0.094,0.033-0.19,0.03-0.286V2.673z" stroke="#0000FF" stroke-width="0.5"></path>
    <path d="M0.735,2.678h3.229c0.078,0,0.153,0.019,0.227,0.056C4.264,2.771,4.328,2.82,4.384,2.882s0.101,0.136,0.135,0.221       C4.553,3.188,4.57,3.279,4.57,3.375v0.479c0,0.096-0.017,0.186-0.049,0.27C4.488,4.208,4.445,4.282,4.391,4.344       C4.337,4.406,4.273,4.455,4.202,4.49S4.057,4.543,3.979,4.543L1.774,4.584l2.205-0.041c0.077,0,0.151-0.018,0.223-0.053       s0.135-0.084,0.188-0.146c0.055-0.062,0.098-0.135,0.131-0.219C4.554,4.041,4.57,3.951,4.57,3.855V3.375       c0-0.096-0.018-0.187-0.052-0.272C4.484,3.018,4.439,2.944,4.384,2.882s-0.12-0.112-0.192-0.149       C4.118,2.696,4.043,2.678,3.965,2.678H0.735v3.351V2.678z" stroke="#0000FF" stroke-width="0.5"></path>
    <path d="M0,0.229v-6.258L2.831-3.35L0-6.028L-2.831-3.35L0-6.028V0.229z" stroke="#0000FF" stroke-width="0.5"></path>
  </g>
</g><g id="bottom" label="bottom" transform="translate(2,81.81465711548991)">

  

  <path fill="none" stroke="#0000FF" stroke-width="0.5" stroke-miterlimit="10" points="     5.875,0     65.875,0     65.875, 5     71.75, 5     71.75, 14.875     65.875, 14.875     65.875, 72.78440874740743     71.75, 72.78440874740743     71.75, 82.65940874740743     65.875, 82.65940874740743     65.875, 87.65940874740743     5.875, 87.65940874740743     5.875, 82.65940874740743     0, 82.65940874740743     0, 72.78440874740743     5.875, 72.78440874740743     5.875, 14.875     0, 14.875     0, 5     5.875, 5     5.875,0   " d="M     5.875,0     65.875,0     65.875, 5     71.75, 5     71.75, 14.875     65.875, 14.875     65.875, 72.78440874740743     71.75, 72.78440874740743     71.75, 82.65940874740743     65.875, 82.65940874740743     65.875, 87.65940874740743     5.875, 87.65940874740743     5.875, 82.65940874740743     0, 82.65940874740743     0, 72.78440874740743     5.875, 72.78440874740743     5.875, 14.875     0, 14.875     0, 5     5.875, 5     5.875,0    "></path>

  
  <g id="caster_mounts" transform="translate(23.375, 15)">
    <circle fill="none" stroke="#0000FF" stroke-width="0.5" stroke-miterlimit="10" cx="0" cy="0" r="0.8"></circle>
    <circle fill="none" stroke="#0000FF" stroke-width="0.5" stroke-miterlimit="10" cx="25" cy="0" r="0.8"></circle>
  </g>

  
  <rect x="10.875" y="24.23440874740742" fill="none" stroke="#0000FF" stroke-width="0.5" stroke-miterlimit="10" width="5" height="2.5"></rect>

  <rect x="55.875" y="24.23440874740742" fill="none" stroke="#0000FF" stroke-width="0.5" stroke-miterlimit="10" width="5" height="2.5"></rect>

  <rect x="10.875" y="67.78440874740743" fill="none" stroke="#0000FF" stroke-width="0.5" stroke-miterlimit="10" width="5" height="2.5"></rect>

  <rect x="55.875" y="67.78440874740743" fill="none" stroke="#0000FF" stroke-width="0.5" stroke-miterlimit="10" width="5" height="2.5"></rect>

  
  <path d="M0,3.129v-6.258L2.831-0.45L0-3.129L-2.831-0.45L0-3.129V3.129z" stroke="#0000FF" stroke-width="0.5" transform="translate(35.875,43.82970437370371)"></path>
</g><g id="shovel" label="shovel" transform="translate(2,172.28872297838726)">
  
  
  <rect x="0" y="0" fill="none" stroke="#0000FF" stroke-width="0.5" stroke-miterlimit="10" width="105" height="45"></rect>

  
  <rect x="16.625" y="17.5625" fill="none" stroke="#0000FF" stroke-width="0.5" stroke-miterlimit="10" width="5.875" height="9.875"></rect>
  <rect x="82.5" y="17.5625" fill="none" stroke="#0000FF" stroke-width="0.5" stroke-miterlimit="10" width="5.875" height="9.875"></rect>

  
  <g id="grill" transform="translate(30.8, 5)">
    <rect x="0" y="0" fill="none" stroke="#0000FF" stroke-width="0.5" stroke-miterlimit="10" width="1.6" height="35" rx="0.8" ry="0.8"></rect>
    <rect x="5" y="0" fill="none" stroke="#0000FF" stroke-width="0.5" stroke-miterlimit="10" width="1.6" height="35" rx="0.8" ry="0.8"></rect>
    <rect x="10" y="0" fill="none" stroke="#0000FF" stroke-width="0.5" stroke-miterlimit="10" width="1.6" height="35" rx="0.8" ry="0.8"></rect>
    <rect x="15" y="0" fill="none" stroke="#0000FF" stroke-width="0.5" stroke-miterlimit="10" width="1.6" height="35" rx="0.8" ry="0.8"></rect>
    <rect x="20" y="0" fill="none" stroke="#0000FF" stroke-width="0.5" stroke-miterlimit="10" width="1.6" height="35" rx="0.8" ry="0.8"></rect>
    <rect x="25" y="0" fill="none" stroke="#0000FF" stroke-width="0.5" stroke-miterlimit="10" width="1.6" height="35" rx="0.8" ry="0.8"></rect>
    <rect x="30" y="0" fill="none" stroke="#0000FF" stroke-width="0.5" stroke-miterlimit="10" width="1.6" height="35" rx="0.8" ry="0.8"></rect>
    <rect x="35" y="0" fill="none" stroke="#0000FF" stroke-width="0.5" stroke-miterlimit="10" width="1.6" height="35" rx="0.8" ry="0.8"></rect>
    <rect x="40" y="0" fill="none" stroke="#0000FF" stroke-width="0.5" stroke-miterlimit="10" width="1.6" height="35" rx="0.8" ry="0.8"></rect>
  </g>

  <g transform="translate(9.9375, 9.9375)">
    <path fill="none" id="accessory_hole" stroke="#0000FF" stroke-width="0.5" stroke-miterlimit="10" points="       -4.9375, -2.9375       -2.9375, -2.9375       -2.9375, -4.9375       2.9375, -4.9375       2.9375, -2.9375       4.9375, -2.9375       4.9375, 2.9375       2.9375, 2.9375       2.9375, 4.9375       -2.9375, 4.9375       -2.9375, 2.9375       -4.9375, 2.9375       -4.9375, -2.9375     " d="M       -4.9375, -2.9375       -2.9375, -2.9375       -2.9375, -4.9375       2.9375, -4.9375       2.9375, -2.9375       4.9375, -2.9375       4.9375, 2.9375       2.9375, 2.9375       2.9375, 4.9375       -2.9375, 4.9375       -2.9375, 2.9375       -4.9375, 2.9375       -4.9375, -2.9375      "></path>
  </g>

  <use xlink:href="#accessory_hole" transform="translate(95.0625, 9.9375)"></use>

</g><g id="right_wheel" label="wheels" transform="translate(144,129.47406586289733) rotate(45)">
  <g id="wheel_template">
    <circle fill="none" stroke="#0000FF" stroke-width="0.5" stroke-miterlimit="10" cx="0" cy="0" r="35"></circle>
    <circle fill="none" stroke="#0000FF" stroke-width="0.5" stroke-miterlimit="10" cx="0" cy="0" r="0.8"></circle>
    <g>
      <circle fill="none" stroke="#0000FF" stroke-width="0.5" stroke-miterlimit="10" cx="0" cy="10" r="0.8"></circle>
      <circle fill="none" stroke="#0000FF" stroke-width="0.5" stroke-miterlimit="10" cx="0" cy="-10" r="0.8"></circle>
    </g>
    <g>
      <circle fill="none" stroke="#0000FF" stroke-width="0.5" stroke-miterlimit="10" cx="0" cy="15" r="0.8"></circle>
      <circle fill="none" stroke="#0000FF" stroke-width="0.5" stroke-miterlimit="10" cx="0" cy="-15" r="0.8"></circle>
    </g>
    <g>
      <circle fill="none" stroke="#0000FF" stroke-width="0.5" stroke-miterlimit="10" cx="0" cy="5" r="0.8"></circle>
      <circle fill="none" stroke="#0000FF" stroke-width="0.5" stroke-miterlimit="10" cx="0" cy="-5" r="0.8"></circle>
    </g>
    <g>
      <circle fill="none" stroke="#0000FF" stroke-width="0.5" stroke-miterlimit="10" cx="16" cy="0" r="0.8"></circle>
      <circle fill="none" stroke="#0000FF" stroke-width="0.5" stroke-miterlimit="10" cx="-16" cy="0" r="0.8"></circle>
    </g>
    <g>
      <circle fill="none" stroke="#0000FF" stroke-width="0.5" stroke-miterlimit="10" cx="8" cy="0" r="0.8"></circle>
      <circle fill="none" stroke="#0000FF" stroke-width="0.5" stroke-miterlimit="10" cx="-8" cy="0" r="0.8"></circle>
    </g>
  </g>
</g><g id="left_wheel" label="wheels" transform="translate(144, 201.47406586289733) rotate(-45)">
  <use xlink:href="#wheel_template"></use>
</g><g id="right_side" label="side" transform="translate(75.75,2)">
  <g id="side_template">
    
    
    <path fill="none" stroke="#0000FF" stroke-width="0.5" stroke-miterlimit="10" points="    57.75, 90.47406586289733    0,             90.47406586289733     0,             15.474065862897335    30.02676980483088, 7.428417142377683    28.506207914853572, 1.7536029129294066    38.04472544945812, -0.8022351574579858    39.56528733943543, 4.87257907199029    57.75, 0    57.75, 90.47406586289733 " d="M    57.75, 90.47406586289733    0,             90.47406586289733     0,             15.474065862897335    30.02676980483088, 7.428417142377683    28.506207914853572, 1.7536029129294066    38.04472544945812, -0.8022351574579858    39.56528733943543, 4.87257907199029    57.75, 0    57.75, 90.47406586289733  "></path>

    
    <rect x="25.875" y="29.549065862897336" fill="none" stroke="#0000FF" stroke-width="0.5" stroke-miterlimit="10" width="21" height="41.05"></rect>
 
    
    <g transform="translate(31.375, 24.549065862897336)">
      <circle fill="none" stroke="#0000FF" stroke-width="0.5" stroke-miterlimit="10" cx="0" cy="0" r="0.8"></circle>
      <circle fill="none" stroke="#0000FF" stroke-width="0.5" stroke-miterlimit="10" cx="10" cy="0" r="0.8"></circle>
    </g>

    <g transform="translate(31.375, 75.59906586289733)">
      <circle fill="none" stroke="#0000FF" stroke-width="0.5" stroke-miterlimit="10" cx="0" cy="0" r="0.8"></circle>
      <circle fill="none" stroke="#0000FF" stroke-width="0.5" stroke-miterlimit="10" cx="10" cy="0" r="0.8"></circle>
    </g>

    
    <circle fill="none" stroke="#0000FF" stroke-width="0.5" stroke-miterlimit="10" cx="36.375" cy="70.59906586289733" r="3.5"></circle>

    
    <rect x="5" y="20.474065862897334" fill="none" stroke="#0000FF" stroke-width="0.5" stroke-miterlimit="10" width="5.875" height="9.875"></rect>

    <rect x="5" y="75.59906586289733" fill="none" stroke="#0000FF" stroke-width="0.5" stroke-miterlimit="10" width="5.875" height="9.875"></rect>

    <rect x="46.875" y="7.814657115489913" fill="none" stroke="#0000FF" stroke-width="0.5" stroke-miterlimit="10" width="5.875" height="9.875"></rect>

    <rect x="46.875" y="75.59906586289733" fill="none" stroke="#0000FF" stroke-width="0.5" stroke-miterlimit="10" width="5.875" height="9.875"></rect>

    
    <use xlink:href="#accessory_hole" transform="translate(20.8125, 19.834873295424593)"></use>

  </g>
</g><g id="left_side">
  <use x="59.75" y="0" xlink:href="#side_template" transform="scale(-1,1) translate(-253 ,2)"></use>
</g></svg>