<?xml version="1.0" encoding="UTF-8" standalone="no"?>
<!-- Created with Inkscape (http://www.inkscape.org/) -->

<svg
   xmlns:dc="http://purl.org/dc/elements/1.1/"
   xmlns:cc="http://creativecommons.org/ns#"
   xmlns:rdf="http://www.w3.org/1999/02/22-rdf-syntax-ns#"
   xmlns:svg="http://www.w3.org/2000/svg"
   xmlns="http://www.w3.org/2000/svg"
   xmlns:sodipodi="http://sodipodi.sourceforge.net/DTD/sodipodi-0.dtd"
   xmlns:inkscape="http://www.inkscape.org/namespaces/inkscape"
   width="210mm"
   height="297mm"
   viewBox="0 0 210 297"
   version="1.1"
   id="svg8"
   inkscape:version="0.92.3 (2405546, 2018-03-11)"
   sodipodi:docname="bigmax_chassis.svg"
   inkscape:export-filename="C:\Users\MHanicotte\Documents\BigMax\mécanique\pièces2D\bigmax_chassis.png"
   inkscape:export-xdpi="96"
   inkscape:export-ydpi="96">
  <defs
     id="defs2" />
  <sodipodi:namedview
     id="base"
     pagecolor="#ffffff"
     bordercolor="#666666"
     borderopacity="1.0"
     inkscape:pageopacity="0.0"
     inkscape:pageshadow="2"
     inkscape:zoom="0.98994949"
     inkscape:cx="64.27155"
     inkscape:cy="202.31015"
     inkscape:document-units="mm"
     inkscape:current-layer="layer1"
     showgrid="true"
     showguides="true"
     inkscape:window-width="1366"
     inkscape:window-height="745"
     inkscape:window-x="-8"
     inkscape:window-y="-8"
     inkscape:window-maximized="1"
     inkscape:measure-start="408.189,34.0157"
     inkscape:measure-end="302.362,60.4724">
    <inkscape:grid
       type="xygrid"
       id="grid10" />
  </sodipodi:namedview>
  <metadata
     id="metadata5">
    <rdf:RDF>
      <cc:Work
         rdf:about="">
        <dc:format>image/svg+xml</dc:format>
        <dc:type
           rdf:resource="http://purl.org/dc/dcmitype/StillImage" />
        <dc:title />
      </cc:Work>
    </rdf:RDF>
  </metadata>
  <g
     inkscape:label="Calque 1"
     inkscape:groupmode="layer"
     id="layer1">
    <path
       style="fill:none;stroke:#0000ff;stroke-width:0.26458332px;stroke-linecap:butt;stroke-linejoin:miter;stroke-opacity:1"
       d="m 0,267 v 6 h 3 v 6 H 0 v 6 h 3 v 6 H 0 v 6 h 35 v -3 h 15 v 3 h 15 v -3 h 15 v 3 h 16 l -4,-4 2,-2 -4,-4 -2,2 -4,-4 2,-2 -4,-4 -2,2 -4,-4 2,-2 -8,-8 H 46 v 3 H 31 v -3 H 21 v 3 H 6 v -3 z"
       id="path12"
       inkscape:connector-curvature="0"
       sodipodi:nodetypes="ccccccccccccccccccccccccccccccccccccccc" />
    <path
       style="fill:none;stroke:#0000ff;stroke-width:0.26458332px;stroke-linecap:butt;stroke-linejoin:miter;stroke-opacity:1"
       d="M 0,267.00001 V 261 h 3 v -6 H 0 v -6 h 3 v -6 H 0 v -6 h 100 l 0,6 h -3 l 0,6 h 3 v 6 h -3 v 6 h 3 v 6.00001 z"
       id="path14"
       inkscape:connector-curvature="0"
       sodipodi:nodetypes="ccccccccccccccccccccc" />
    <path
       style="fill:none;stroke:#0000ff;stroke-width:0.26458332px;stroke-linecap:butt;stroke-linejoin:miter;stroke-opacity:1"
       d="m 3,237 v -6 H 0 v -6 h 3 v -6 H 0 v -6 h 3 v -6 h 94 v 6 h 3 v 6 h -3 l 0,6 h 3 l 0,6 h -3 v 6 l -17,0 v -3 H 62 v 3 H 39 v -3 H 20 v 3 z"
       id="path16"
       inkscape:connector-curvature="0"
       sodipodi:nodetypes="ccccccccccccccccccccccccccccc" />
    <path
       style="fill:none;stroke:#0000ff;stroke-width:0.26458332px;stroke-linecap:butt;stroke-linejoin:miter;stroke-opacity:1"
       d="m 97,270 0,3 h 3 l 0,6 h -3 l 0,7 H 93 L 81,274 v -4 h 7 l 0,-3 h 6 v 3 z"
       id="path18"
       inkscape:connector-curvature="0"
       sodipodi:nodetypes="cccccccccccccc" />
    <path
       style="fill:none;stroke:#0000ff;stroke-width:0.26458332px;stroke-linecap:butt;stroke-linejoin:miter;stroke-opacity:1"
       d="m 99.999998,177 2e-6,6 h -3 v 6 h 3 v 6 h -3 v 6 h 3 l -2e-6,6 H 65 v -3 H 50 v 3 H 35 v -3 H 20 v 3 H 3.999997 l 4,-4 L 5.999998,201 10,197 l 2,2 4,-4 -2,-2 4,-4 2,2 3.999997,-4 -1.999999,-2 8,-8 H 54 v 3 h 15 v -3 h 10 v 3 h 15 v -3 z"
       id="path12-1"
       inkscape:connector-curvature="0"
       sodipodi:nodetypes="ccccccccccccccccccccccccccccccccccccccc" />
    <path
       style="fill:none;stroke:#0000ff;stroke-width:0.26458332px;stroke-linecap:butt;stroke-linejoin:miter;stroke-opacity:1"
       d="M 2.999997,180 3,183 H 0 v 6 h 3 l 0,7 h 4 l 12,-12 v -4 l -7,0 v -3 H 6 v 3 z"
       id="path18-1"
       inkscape:connector-curvature="0"
       sodipodi:nodetypes="cccccccccccccc" />
    <text
       xml:space="preserve"
       style="font-style:normal;font-weight:normal;font-size:10.58333302px;line-height:1.25;font-family:sans-serif;letter-spacing:0px;word-spacing:0px;fill:none;fill-opacity:1;stroke:#808080;stroke-width:0.26458332;"
       x="7.498981"
       y="276.40726"
       id="text40"><tspan
         sodipodi:role="line"
         id="tspan38"
         x="7.498981"
         y="276.40726"
         style="font-size:4.23333311px;fill:none;stroke-width:0.26458332;stroke:#808080;">coté d</tspan></text>
    <text
       xml:space="preserve"
       style="font-style:normal;font-weight:normal;font-size:4.23333311px;line-height:1.25;font-family:sans-serif;letter-spacing:0px;word-spacing:0px;fill:none;fill-opacity:1;stroke:#808080;stroke-width:0.26458332;"
       x="80.895409"
       y="185.95189"
       id="text48"><tspan
         sodipodi:role="line"
         id="tspan46"
         x="80.895409"
         y="185.95189"
         style="fill:none;stroke-width:0.26458332;stroke:#808080;">coté g</tspan></text>
    <text
       xml:space="preserve"
       style="font-style:normal;font-weight:normal;font-size:4.23333311px;line-height:1.25;font-family:sans-serif;letter-spacing:0px;word-spacing:0px;fill:none;fill-opacity:1;stroke:#808080;stroke-width:0.26458332;"
       x="78.869797"
       y="214.6185"
       id="text52"><tspan
         sodipodi:role="line"
         id="tspan50"
         x="78.869797"
         y="214.6185"
         style="fill:none;stroke-width:0.26458332;stroke:#808080;">arrière</tspan></text>
    <text
       xml:space="preserve"
       style="font-style:normal;font-weight:normal;font-size:4.23333311px;line-height:1.25;font-family:sans-serif;letter-spacing:0px;word-spacing:0px;fill:none;fill-opacity:1;stroke:#808080;stroke-width:0.26458332;"
       x="7.0612736"
       y="246.43269"
       id="text56"><tspan
         sodipodi:role="line"
         x="7.0612736"
         y="246.43269"
         style="fill:none;stroke-width:0.26458332;stroke:#808080;"
         id="tspan58">avant</tspan></text>
    <flowRoot
       xml:space="preserve"
       id="flowRoot62"
       style="fill:black;fill-opacity:1;stroke:#0000ff;font-family:sans-serif;font-style:normal;font-weight:normal;font-size:16px;line-height:1.25;letter-spacing:0px;word-spacing:0px;"><flowRegion
         id="flowRegion64"
         style="stroke:#0000ff;"><rect
           id="rect66"
           width="94.48819"
           height="94.48819"
           x="-151.18111"
           y="744.56696"
           style="stroke:#0000ff;" /></flowRegion><flowPara
         id="flowPara68" /></flowRoot>    <text
       xml:space="preserve"
       style="font-style:normal;font-weight:normal;font-size:4.23333311px;line-height:1.25;font-family:sans-serif;letter-spacing:0px;word-spacing:0px;fill:none;fill-opacity:1;stroke:#808080;stroke-width:0.26458332;"
       x="4.8110118"
       y="184.54315"
       id="text72"><tspan
         sodipodi:role="line"
         id="tspan70"
         x="4.8110118"
         y="184.54315"
         style="stroke-width:0.26458332;stroke:#808080;fill:none;">g</tspan></text>
    <text
       xml:space="preserve"
       style="font-style:normal;font-weight:normal;font-size:4.23333311px;line-height:1.25;font-family:sans-serif;letter-spacing:0px;word-spacing:0px;fill:none;fill-opacity:1;stroke:#808080;stroke-width:0.26458332;"
       x="93.023811"
       y="275.40179"
       id="text76"><tspan
         sodipodi:role="line"
         id="tspan74"
         x="93.023811"
         y="275.40179"
         style="stroke-width:0.26458332;stroke:#808080;fill:none;">d</tspan></text>
    <path
       style="fill:none;stroke:#ff0000;stroke-width:0.26458332px;stroke-linecap:butt;stroke-linejoin:miter;stroke-opacity:1"
       d="m 5.9999998,243 v -3 H 12 v 3 z"
       id="path120"
       inkscape:connector-curvature="0" />
    <path
       style="fill:none;stroke:#ff0000;stroke-width:0.26458332px;stroke-linecap:butt;stroke-linejoin:miter;stroke-opacity:1"
       d="m 87.999996,243 v -3 H 94 v 3 z"
       id="path120-4"
       inkscape:connector-curvature="0" />
    <path
       style="fill:none;stroke:#ff0000;stroke-width:0.26458332px;stroke-linecap:butt;stroke-linejoin:miter;stroke-opacity:1"
       d="m 73.838747,287.3225 -2.161249,-2.08062 4.161253,-4.3225 L 78,283 Z"
       id="path120-4-6"
       inkscape:connector-curvature="0" />
    <path
       style="fill:none;stroke:#ff0000;stroke-width:0.26458332px;stroke-linecap:butt;stroke-linejoin:miter;stroke-opacity:1"
       d="m 22,193 2.126825,-2.11581 4.231605,4.25367 -2.126825,2.11581 z"
       id="path120-8"
       inkscape:connector-curvature="0" />
  </g>
</svg>
