<?xml version="1.0" encoding="UTF-8" standalone="no"?>
<!-- Created with Inkscape (http://www.inkscape.org/) -->

<svg
   xmlns:dc="http://purl.org/dc/elements/1.1/"
   xmlns:cc="http://creativecommons.org/ns#"
   xmlns:rdf="http://www.w3.org/1999/02/22-rdf-syntax-ns#"
   xmlns:svg="http://www.w3.org/2000/svg"
   xmlns="http://www.w3.org/2000/svg"
   xmlns:sodipodi="http://sodipodi.sourceforge.net/DTD/sodipodi-0.dtd"
   xmlns:inkscape="http://www.inkscape.org/namespaces/inkscape"
   width="210mm"
   height="297mm"
   viewBox="0 0 210 297"
   version="1.1"
   id="svg8"
   inkscape:version="0.92.3 (2405546, 2018-03-11)"
   sodipodi:docname="bigmax_chassis.svg"
   inkscape:export-filename="C:\Users\MHanicotte\Documents\BigMax\mécanique\pièces2D\bigmax_chassis.png"
   inkscape:export-xdpi="96"
   inkscape:export-ydpi="96">
  <defs
     id="defs2" />
  <sodipodi:namedview
     id="base"
     pagecolor="#ffffff"
     bordercolor="#666666"
     borderopacity="1.0"
     inkscape:pageopacity="0.0"
     inkscape:pageshadow="2"
     inkscape:zoom="1.4"
     inkscape:cx="225.84978"
     inkscape:cy="186.02777"
     inkscape:document-units="mm"
     inkscape:current-layer="layer1"
     showgrid="true"
     showguides="true"
     inkscape:window-width="1366"
     inkscape:window-height="745"
     inkscape:window-x="-8"
     inkscape:window-y="-8"
     inkscape:window-maximized="1"
     inkscape:measure-start="408.189,34.0157"
     inkscape:measure-end="302.362,60.4724">
    <inkscape:grid
       type="xygrid"
       id="grid10"
       units="mm"
       spacingx="1"
       spacingy="1"
       enabled="true" />
  </sodipodi:namedview>
  <metadata
     id="metadata5">
    <rdf:RDF>
      <cc:Work
         rdf:about="">
        <dc:format>image/svg+xml</dc:format>
        <dc:type
           rdf:resource="http://purl.org/dc/dcmitype/StillImage" />
        <dc:title />
      </cc:Work>
    </rdf:RDF>
  </metadata>
  <g
     inkscape:label="Calque 1"
     inkscape:groupmode="layer"
     id="layer1">
    <path
       style="fill:none;stroke:#0000ff;stroke-width:0.26458332px;stroke-linecap:butt;stroke-linejoin:miter;stroke-opacity:1"
       d="m 3,267 v 5 H 0 v 5 h 3 v 10 H 0 v 5 h 3 v 5 h 61 v -3 h 20 v 3 h 12 l -8,-8 2,-2 -5,-5 -2,2 -5,-5 2,-2 -10,-10 z"
       id="path12"
       inkscape:connector-curvature="0"
       sodipodi:nodetypes="ccccccccccccccccccccccc" />
    <path
       style="fill:none;stroke:#0000ff;stroke-width:0.26458332px;stroke-linecap:butt;stroke-linejoin:miter;stroke-opacity:1"
       d="m 0,267 v -14 l 3,0 0,-7 -3,0 v -7 l 3,0 0,-2 h 94 v 2 l 3,0 v 7 l -3,0 0,7 3,0 v 14.00001 z"
       id="path14"
       inkscape:connector-curvature="0"
       sodipodi:nodetypes="ccccccccccccccccc" />
    <path
       style="fill:none;stroke:#0000ff;stroke-width:0.26458332px;stroke-linecap:butt;stroke-linejoin:miter;stroke-opacity:1"
       d="m 0,237 v -5 h 3 v -5 H 0 v -10 h 3 v -5 H 0 v -5 h 100 v 5 h -3 v 5 h 3 v 10 h -3 v 5 h 3 v 5 l -14,0 v -3 H 65 v 3 H 35 l 0,-3 H 14 v 3 z"
       id="path16"
       inkscape:connector-curvature="0"
       sodipodi:nodetypes="ccccccccccccccccccccccccccccc" />
    <path
       style="fill:none;stroke:#0000ff;stroke-width:0.26458332px;stroke-linecap:butt;stroke-linejoin:miter;stroke-opacity:1"
       d="m 100,277 0,10 h -3 v 7 L 73,270 h 7 v -3 l 10,0 0,3 h 7 l 0,7 z"
       id="path18"
       inkscape:connector-curvature="0"
       sodipodi:nodetypes="cccccccccccc" />
    <path
       style="fill:none;stroke:#0000ff;stroke-width:0.26458332px;stroke-linecap:butt;stroke-linejoin:miter;stroke-opacity:1"
       d="m 97,177 v 5 h 3 v 5 h -3 v 10 h 3 v 5 h -3 v 5 H 41 v -3 H 21 v 3 H 4 l 8,-8 -2,-2 5,-5 2,2 5,-5 -2,-2 c 0,0 10.000002,-10 10,-10 z"
       id="path12-1"
       inkscape:connector-curvature="0"
       sodipodi:nodetypes="ccccccccccccccccccccccc" />
    <path
       style="fill:none;stroke:#0000ff;stroke-width:0.26458332px;stroke-linecap:butt;stroke-linejoin:miter;stroke-opacity:1"
       d="m 3,197 v 7 l 24,-24 h -7 v -3 l -10,0 v 3 l -7,0 0,7 H 0 v 10 z"
       id="path18-1"
       inkscape:connector-curvature="0"
       sodipodi:nodetypes="cccccccccccc" />
    <flowRoot
       xml:space="preserve"
       id="flowRoot62"
       style="fill:black;fill-opacity:1;stroke:#0000ff;font-family:sans-serif;font-style:normal;font-weight:normal;font-size:16px;line-height:1.25;letter-spacing:0px;word-spacing:0px;"><flowRegion
         id="flowRegion64"
         style="stroke:#0000ff;"><rect
           id="rect66"
           width="94.48819"
           height="94.48819"
           x="-151.18111"
           y="744.56696"
           style="stroke:#0000ff;" /></flowRegion><flowPara
         id="flowPara68" /></flowRoot>    <path
       style="fill:none;stroke:#ff0000;stroke-width:0.29705343px;stroke-linecap:butt;stroke-linejoin:miter;stroke-opacity:1"
       d="m 45,259 v -14 h 10 l 0,14 z"
       id="path120-3"
       inkscape:connector-curvature="0"
       sodipodi:nodetypes="ccccc" />
    <path
       style="fill:none;stroke:#ff0000;stroke-width:0.32085437px;stroke-linecap:butt;stroke-linejoin:miter;stroke-opacity:1"
       d="m 45,227 v -10 h 10 l 0,10 z"
       id="path120-3-5"
       inkscape:connector-curvature="0"
       sodipodi:nodetypes="ccccc" />
    <path
       style="fill:none;stroke:#808080;stroke-width:0.26458332px;stroke-linecap:butt;stroke-linejoin:miter;stroke-opacity:1"
       d="m 11,228 1,-1 1,1 1,-1 v 2 l -1,-1 -1,1 h -2 v -2 z"
       id="path167-4"
       inkscape:connector-curvature="0"
       sodipodi:nodetypes="cccccccccc" />
    <path
       style="fill:none;stroke:#ff0000;stroke-width:0.26458332px;stroke-linecap:butt;stroke-linejoin:miter;stroke-opacity:1"
       d="m 79.999999,207 v 3 H 90 v -3 z"
       id="path1001"
       inkscape:connector-curvature="0" />
    <path
       style="fill:none;stroke:#ff0000;stroke-width:0.26458332px;stroke-linecap:butt;stroke-linejoin:miter;stroke-opacity:1"
       d="m 79.999998,177 v 3 H 90 v -3 z"
       id="path1001-1"
       inkscape:connector-curvature="0" />
    <path
       style="fill:none;stroke:#ff0000;stroke-width:0.26458332px;stroke-linecap:butt;stroke-linejoin:miter;stroke-opacity:1"
       d="m 9.9999983,207 v 3 H 20 v -3 z"
       id="path1001-6"
       inkscape:connector-curvature="0" />
    <path
       style="fill:none;stroke:#ff0000;stroke-width:0.26458332px;stroke-linecap:butt;stroke-linejoin:miter;stroke-opacity:1"
       d="m 9.9999983,267 v 3 H 20 v -3 z"
       id="path1001-5"
       inkscape:connector-curvature="0" />
    <path
       style="fill:none;fill-opacity:1;stroke:#ff0000;stroke-width:0.26458332;stroke-opacity:1"
       id="path40"
       sodipodi:type="arc"
       sodipodi:cx="19"
       sodipodi:cy="288"
       sodipodi:rx="15"
       sodipodi:ry="15"
       sodipodi:start="2.4939674"
       sodipodi:end="0.66361326"
       d="m 7.0372192,297.04941 a 15,15 0 0 1 1.9134964,-20.18547 15,15 0 0 1 20.2753204,0.16208 15,15 0 0 1 1.59054,20.21349 L 19,288 Z" />
    <path
       style="fill:none;fill-opacity:1;stroke:#ff0000;stroke-width:0.26458332;stroke-opacity:1"
       id="path40-2"
       sodipodi:type="arc"
       sodipodi:cx="81"
       sodipodi:cy="198"
       sodipodi:rx="15"
       sodipodi:ry="15"
       sodipodi:start="2.5075558"
       sodipodi:end="0.64456519"
       d="m 68.91536,206.88603 a 15,15 0 0 1 2.065566,-20.04928 15,15 0 0 1 20.155121,0.1061 15,15 0 0 1 1.854369,20.06991 L 81,198 Z"
       inkscape:transform-center-x="-0.00043900466"
       inkscape:transform-center-y="0.063687662" />
    <text
       xml:space="preserve"
       style="font-style:normal;font-weight:normal;font-size:10.58333302px;line-height:1.25;font-family:sans-serif;letter-spacing:0px;word-spacing:0px;fill:#808080;fill-opacity:1;stroke:none;stroke-width:0.26458332;"
       x="9.5825891"
       y="225.45685"
       id="text864"><tspan
         sodipodi:role="line"
         id="tspan862"
         x="9.5825891"
         y="225.45685"
         style="font-size:3.52777767px;stroke-width:0.26458332;fill:#808080;fill-opacity:1;">bigmax_v1</tspan></text>
  </g>
</svg>
