<?xml version="1.0" encoding="UTF-8" standalone="no"?>
<svg
   xmlns:dc="http://purl.org/dc/elements/1.1/"
   xmlns:cc="http://creativecommons.org/ns#"
   xmlns:rdf="http://www.w3.org/1999/02/22-rdf-syntax-ns#"
   xmlns:svg="http://www.w3.org/2000/svg"
   xmlns="http://www.w3.org/2000/svg"
   xmlns:sodipodi="http://sodipodi.sourceforge.net/DTD/sodipodi-0.dtd"
   xmlns:inkscape="http://www.inkscape.org/namespaces/inkscape"
   width="940mm"
   height="590mm"
   viewBox="0 0 940 590"
   version="1.1"
   id="svg8"
   inkscape:version="1.0.1 (3bc2e813f5, 2020-09-07)"
   sodipodi:docname="dessin.svg">
  <defs
     id="defs2" />
  <sodipodi:namedview
     id="base"
     pagecolor="#ffffff"
     bordercolor="#666666"
     borderopacity="1.0"
     inkscape:pageopacity="0.0"
     inkscape:pageshadow="2"
     inkscape:zoom="0.8574188"
     inkscape:cx="555.16215"
     inkscape:cy="215.68947"
     inkscape:document-units="mm"
     inkscape:current-layer="layer1"
     inkscape:document-rotation="0"
     showgrid="true"
     inkscape:window-width="1366"
     inkscape:window-height="745"
     inkscape:window-x="-8"
     inkscape:window-y="-8"
     inkscape:window-maximized="1">
    <inkscape:grid
       type="xygrid"
       id="grid10"
       dotted="false"
       units="mm"
       spacingx="1"
       spacingy="1" />
  </sodipodi:namedview>
  <metadata
     id="metadata5">
    <rdf:RDF>
      <cc:Work
         rdf:about="">
        <dc:format>image/svg+xml</dc:format>
        <dc:type
           rdf:resource="http://purl.org/dc/dcmitype/StillImage" />
        <dc:title />
      </cc:Work>
    </rdf:RDF>
  </metadata>
  <g
     inkscape:label="Calque 1"
     inkscape:groupmode="layer"
     id="layer1">
    <path
       id="rect143"
       style="opacity:1;fill:#008000;stroke-width:0.201875"
       d="M 50.000048,-1.647e-4 C 50,-6e-7 0,0 0,0 V 99 L 50.000048,75.999849 50,131 H 150 L 150.00015,75.999849 200,99 V 0 l -49.99985,-1.647e-4 z"
       sodipodi:nodetypes="ccccccccccc" />
    <rect
       style="opacity:1;fill:#ffaaaa;stroke-width:0.264583"
       id="rect1032-9"
       width="1"
       height="5"
       x="50"
       y="16"
       rx="0.5" />
    <rect
       style="opacity:1;fill:#ffaaaa;stroke-width:0.264583"
       id="rect1032-3"
       width="1"
       height="5"
       x="50"
       y="37"
       rx="0.5" />
    <rect
       style="opacity:1;fill:#ffaaaa;stroke-width:0.264583"
       id="rect1032-1"
       width="1"
       height="5"
       x="50"
       y="30"
       rx="0.5" />
    <rect
       style="opacity:1;fill:#ffaaaa;stroke-width:0.264583"
       id="rect1032-18"
       width="1"
       height="5"
       x="50"
       y="23"
       rx="0.5" />
    <rect
       style="opacity:1;fill:#ffaaaa;stroke-width:0.264583"
       id="rect1032-45-0"
       width="1"
       height="5"
       x="50"
       y="58"
       rx="0.5" />
    <rect
       style="opacity:1;fill:#ffaaaa;stroke-width:0.264583"
       id="rect1032-45-0-5"
       width="1"
       height="5"
       x="50"
       y="65"
       rx="0.5" />
    <rect
       style="opacity:1;fill:#ffaaaa;stroke-width:0.264583"
       id="rect1032-9-8"
       width="1"
       height="5"
       x="50"
       y="9"
       rx="0.5" />
    <rect
       style="opacity:1;fill:#ffaaaa;stroke-width:0.264583"
       id="rect1032-9-4"
       width="1"
       height="5"
       x="149"
       y="16"
       rx="0.5" />
    <rect
       style="opacity:1;fill:#ffaaaa;stroke-width:0.264583"
       id="rect1032-1-3"
       width="1"
       height="5"
       x="149"
       y="30"
       rx="0.5" />
    <rect
       style="opacity:1;fill:#ffaaaa;stroke-width:0.264583"
       id="rect1032-18-7"
       width="1"
       height="5"
       x="149"
       y="23"
       rx="0.5" />
    <rect
       style="opacity:1;fill:#ffaaaa;stroke-width:0.264583"
       id="rect1032-45-0-3"
       width="1"
       height="5"
       x="149"
       y="65"
       rx="0.5" />
    <rect
       style="opacity:1;fill:#ffaaaa;stroke-width:0.264583"
       id="rect1032-45-0-5-8"
       width="1"
       height="5"
       x="149"
       y="72"
       rx="0.5" />
    <rect
       style="opacity:1;fill:#ffaaaa;stroke-width:0.264583"
       id="rect1032-9-8-0"
       width="1"
       height="5"
       x="149"
       y="9"
       rx="0.5" />
    <rect
       style="opacity:1;fill:#ffaaaa;stroke-width:0.264583"
       id="rect1345-4"
       width="3"
       height="1"
       x="50"
       y="76"
       rx="0.49999902" />
    <rect
       style="opacity:1;fill:#ffaaaa;stroke-width:0.264583"
       id="rect1345-4-7"
       width="5"
       height="1"
       x="55"
       y="76"
       rx="0.49999905" />
    <rect
       style="opacity:1;fill:#ffaaaa;stroke-width:0.264583"
       id="rect1345-4-1"
       width="5"
       height="1"
       x="62"
       y="76"
       rx="0.49999905" />
    <rect
       style="opacity:1;fill:#ffaaaa;stroke-width:0.264583"
       id="rect1345-4-1-0"
       width="5"
       height="1"
       x="69"
       y="76"
       rx="0.49999905" />
    <rect
       style="opacity:1;fill:#ffaaaa;stroke-width:0.264583"
       id="rect1345-4-1-1"
       width="5"
       height="1"
       x="76"
       y="76"
       rx="0.49999905" />
    <rect
       style="opacity:1;fill:#ffaaaa;stroke-width:0.264583"
       id="rect1345-4-1-2"
       width="5"
       height="1"
       x="83"
       y="76"
       rx="0.49999905" />
    <rect
       style="opacity:1;fill:#ffaaaa;stroke-width:0.264583"
       id="rect1345-4-1-9"
       width="5"
       height="1"
       x="90"
       y="76"
       rx="0.49999905" />
    <rect
       style="opacity:1;fill:#ffaaaa;stroke-width:0.264583"
       id="rect1345-4-1-3"
       width="5"
       height="1"
       x="97"
       y="76"
       rx="0.49999905" />
    <rect
       style="opacity:1;fill:#ffaaaa;stroke-width:0.264583"
       id="rect1345-4-1-21"
       width="5"
       height="1"
       x="104"
       y="76"
       rx="0.49999905" />
    <rect
       style="opacity:1;fill:#ffaaaa;stroke-width:0.264583"
       id="rect1345-4-1-34"
       width="5"
       height="1"
       x="111"
       y="76"
       rx="0.49999905" />
    <rect
       style="opacity:1;fill:#ffaaaa;stroke-width:0.264583"
       id="rect1345-4-1-8"
       width="5"
       height="1"
       x="118"
       y="76"
       rx="0.49999905" />
    <rect
       style="opacity:1;fill:#ffaaaa;stroke-width:0.264583"
       id="rect1345-4-1-36"
       width="5"
       height="1"
       x="125"
       y="76"
       rx="0.49999905" />
    <rect
       style="opacity:1;fill:#ffaaaa;stroke-width:0.264583"
       id="rect1345-4-1-6"
       width="5"
       height="1"
       x="132"
       y="76"
       rx="0.49999905" />
    <rect
       style="opacity:1;fill:#ffaaaa;stroke-width:0.264583"
       id="rect1345-4-1-23"
       width="5"
       height="1"
       x="139"
       y="76"
       rx="0.5" />
    <circle
       style="opacity:1;fill:#ffaaaa;stroke-width:0.29471"
       id="path1544"
       cx="55"
       cy="36"
       r="1" />
    <circle
       style="opacity:1;fill:#ffaaaa;stroke-width:0.264583"
       id="path1544-6"
       cx="145"
       cy="70"
       r="1" />
    <circle
       style="opacity:1;fill:#ffaaaa;stroke-width:0.264583"
       id="path1544-8"
       cx="55"
       cy="70"
       r="1" />
    <circle
       style="opacity:1;fill:#ffaaaa;stroke-width:0.264583"
       id="path1544-67"
       cx="145"
       cy="36"
       r="1" />
    <rect
       style="fill:#ffaaaa;stroke-width:0.266935"
       id="rect118"
       width="1"
       height="131"
       x="199"
       y="-1.7763568e-15" />
    <rect
       style="fill:#ffaaaa;stroke-width:0.266935"
       id="rect118-9"
       width="0.99999988"
       height="131"
       x="1.7097435e-13"
       y="-1.7763568e-15" />
    <rect
       style="opacity:1;fill:#ffaaaa;stroke-width:0.264583"
       id="rect1345-4-6"
       width="4"
       height="1"
       x="146"
       y="76"
       rx="0.49999905" />
    <rect
       style="fill:#ffaaaa;stroke-width:0.264583"
       id="rect216"
       width="1"
       height="1"
       x="50"
       y="76" />
    <rect
       style="fill:#ffaaaa;stroke-width:0.264583"
       id="rect216-2"
       width="1"
       height="1"
       x="149"
       y="76" />
    <rect
       style="opacity:1;fill:#ffaaaa;stroke-width:0.264583"
       id="rect1032-45-0-5-0"
       width="1"
       height="5"
       x="50"
       y="72"
       rx="0.5" />
    <rect
       style="opacity:1;fill:#ffaaaa;stroke-width:0.264583"
       id="rect1032-9-8-2"
       width="1"
       height="5"
       x="50"
       y="2"
       rx="0.5" />
    <rect
       style="opacity:1;fill:#ffaaaa;stroke-width:0.264583"
       id="rect1032-9-8-23"
       width="1"
       height="5"
       x="149"
       y="2"
       rx="0.5" />
    <rect
       style="opacity:1;fill:#ffaaaa;stroke-width:0.264583"
       id="rect1345-4-1-0-2"
       width="17"
       height="1"
       x="69"
       y="109"
       rx="0.49999905" />
    <rect
       style="opacity:1;fill:#ffaaaa;stroke-width:0.264583"
       id="rect1345-4-1-0-2-2"
       width="17"
       height="1"
       x="114"
       y="109"
       rx="0.49999905" />
    <rect
       style="fill:#ffaaaa;stroke-width:0.264583"
       id="rect379"
       width="1"
       height="12"
       x="85"
       y="109"
       rx="0.49999899" />
    <rect
       style="fill:#ffaaaa;stroke-width:0.264583"
       id="rect381"
       width="1"
       height="12"
       x="69"
       y="109"
       rx="0.49999899" />
    <rect
       style="fill:#ffaaaa;stroke-width:0.264583"
       id="rect383"
       width="1"
       height="12"
       x="114"
       y="109"
       rx="0.49999899" />
    <rect
       style="fill:#ffaaaa;stroke-width:0.264583"
       id="rect385"
       width="1"
       height="12"
       x="130"
       y="109"
       rx="0.49999899" />
    <rect
       style="fill:#ffaaaa;stroke-width:0.264583"
       id="rect387"
       width="4"
       height="1"
       x="69"
       y="120"
       rx="0.49999899" />
    <rect
       style="fill:#ffaaaa;stroke-width:0.264583"
       id="rect389"
       width="4"
       height="1"
       x="82"
       y="120"
       rx="0.49999899" />
    <rect
       style="fill:#ffaaaa;stroke-width:0.264583"
       id="rect389-2"
       width="5"
       height="1"
       x="75"
       y="120"
       rx="0.49999902" />
    <rect
       style="fill:#ffaaaa;stroke-width:0.264583"
       id="rect389-2-0"
       width="5"
       height="1"
       x="120"
       y="120"
       rx="0.49999905" />
    <rect
       style="fill:#ffaaaa;stroke-width:0.264583"
       id="rect389-2-02"
       width="4"
       height="1"
       x="114"
       y="120"
       rx="0.49999905" />
    <rect
       style="fill:#ffaaaa;stroke-width:0.264583"
       id="rect389-2-9"
       width="4"
       height="1"
       x="127"
       y="120"
       rx="0.49999905" />
    <rect
       style="fill:#ffaaaa;stroke-width:0.264583"
       id="rect435"
       width="12"
       height="1"
       x="18.999998"
       y="44"
       rx="0.49999899" />
    <rect
       style="fill:#ffaaaa;stroke-width:0.264583"
       id="rect437"
       width="1"
       height="17"
       x="18.999998"
       y="44"
       rx="0.49999899" />
    <rect
       style="fill:#ffaaaa;stroke-width:0.264583"
       id="rect439"
       width="12"
       height="1"
       x="18.999998"
       y="60"
       rx="0.49999899" />
    <rect
       style="fill:#ffaaaa;stroke-width:0.264583"
       id="rect441"
       width="1"
       height="5"
       x="30.000002"
       y="50"
       rx="0.49999899" />
    <rect
       style="fill:#ffaaaa;stroke-width:0.264583"
       id="rect443"
       width="1"
       height="4"
       x="30.000002"
       y="57"
       rx="0.49999899" />
    <rect
       style="fill:#ffaaaa;stroke-width:0.264583"
       id="rect445"
       width="1"
       height="4"
       x="30.000002"
       y="44"
       rx="0.49999899" />
    <rect
       style="fill:#ffaaaa;stroke-width:0.264583"
       id="rect447"
       width="5"
       height="1"
       x="155"
       y="34"
       rx="0.49999899" />
    <rect
       style="fill:#ffaaaa;stroke-width:0.264583"
       id="rect449"
       width="5"
       height="1"
       x="155"
       y="60"
       rx="0.49999899" />
    <rect
       style="fill:#ffaaaa;stroke-width:0.264583"
       id="rect451"
       width="17"
       height="1"
       x="149"
       y="47"
       rx="0.49999899" />
    <rect
       style="fill:#ffaaaa;stroke-width:0.264583"
       id="rect453"
       width="1"
       height="26.999998"
       x="165"
       y="34"
       rx="0.49999899" />
    <rect
       style="fill:#ffaaaa;stroke-width:0.264583"
       id="rect455"
       width="4"
       height="1"
       x="162"
       y="60"
       rx="0.49999899" />
    <rect
       style="fill:#ffaaaa;stroke-width:0.264583"
       id="rect457"
       width="4"
       height="1"
       x="149"
       y="60"
       rx="0.49999899" />
    <rect
       style="fill:#ffaaaa;stroke-width:0.264583"
       id="rect459"
       width="4"
       height="1"
       x="162"
       y="34"
       rx="0.49999899" />
    <rect
       style="fill:#ffaaaa;stroke-width:0.264583"
       id="rect461"
       width="4"
       height="1"
       x="149"
       y="34"
       rx="0.49999899" />
    <rect
       style="fill:#ffaaaa;stroke-width:0.264583"
       id="rect463"
       width="1"
       height="27"
       x="149"
       y="34"
       rx="0.5" />
    <rect
       style="fill:#ffaaaa;stroke-width:0.264583"
       id="rect465"
       width="1"
       height="17"
       x="61.999996"
       y="44"
       rx="0.49999899" />
    <rect
       style="fill:#ffaaaa;stroke-width:0.264583"
       id="rect467"
       width="1"
       height="15"
       x="50"
       y="44"
       rx="0.49999899" />
    <rect
       style="fill:#ffaaaa;stroke-width:0.264583"
       id="rect469"
       width="5"
       height="1"
       x="53.999996"
       y="44"
       rx="0.49999899" />
    <rect
       style="fill:#ffaaaa;stroke-width:0.264583"
       id="rect471"
       width="5"
       height="1"
       x="53.999996"
       y="60"
       rx="0.49999899" />
    <rect
       style="fill:#ffaaaa;stroke-width:0.264583"
       id="rect473"
       width="2"
       height="1"
       x="61"
       y="44"
       rx="0.49999899" />
    <rect
       style="fill:#ffaaaa;stroke-width:0.264583"
       id="rect475"
       width="2"
       height="1"
       x="61"
       y="60"
       rx="0.49999899" />
    <rect
       style="fill:#ffaaaa;stroke-width:0.264583"
       id="rect477"
       width="2"
       height="1"
       x="50"
       y="60"
       rx="0.49999899" />
    <rect
       style="fill:#ffaaaa;stroke-width:0.264583"
       id="rect479"
       width="2"
       height="1"
       x="50"
       y="44"
       rx="0.49999899" />
    <rect
       style="fill:#ffaaaa;stroke-width:0.264583"
       id="rect481"
       width="13"
       height="1"
       x="50"
       y="52"
       rx="0.49999899" />
    <rect
       style="opacity:1;fill:#ffaaaa;stroke-width:0.264583"
       id="rect1032-45-0-3-1"
       width="1"
       height="5"
       x="149"
       y="58"
       rx="0.5" />
  </g>
</svg>
