G04 #@! TF.GenerationSoftware,KiCad,Pcbnew,(5.1.0)-1*
G04 #@! TF.CreationDate,2019-05-07T21:37:48+02:00*
G04 #@! TF.ProjectId,bigmax,6269676d-6178-42e6-9b69-6361645f7063,v2*
G04 #@! TF.SameCoordinates,Original*
G04 #@! TF.FileFunction,Legend,Bot*
G04 #@! TF.FilePolarity,Positive*
%FSLAX46Y46*%
G04 Gerber Fmt 4.6, Leading zero omitted, Abs format (unit mm)*
G04 Created by KiCad (PCBNEW (5.1.0)-1) date 2019-05-07 21:37:48*
%MOMM*%
%LPD*%
G04 APERTURE LIST*
%ADD10C,0.150000*%
%ADD11C,0.300000*%
%ADD12C,0.120000*%
G04 APERTURE END LIST*
D10*
G36*
X107950000Y-64135000D02*
G01*
X105410000Y-64135000D01*
X104140000Y-62865000D01*
X102870000Y-64135000D01*
X102870000Y-61595000D01*
X104140000Y-62865000D01*
X105410000Y-61595000D01*
X106680000Y-62865000D01*
X107950000Y-61595000D01*
X107950000Y-64135000D01*
G37*
X107950000Y-64135000D02*
X105410000Y-64135000D01*
X104140000Y-62865000D01*
X102870000Y-64135000D01*
X102870000Y-61595000D01*
X104140000Y-62865000D01*
X105410000Y-61595000D01*
X106680000Y-62865000D01*
X107950000Y-61595000D01*
X107950000Y-64135000D01*
D11*
X100582857Y-62268571D02*
X100582857Y-60768571D01*
X100582857Y-61340000D02*
X100440000Y-61268571D01*
X100154285Y-61268571D01*
X100011428Y-61340000D01*
X99940000Y-61411428D01*
X99868571Y-61554285D01*
X99868571Y-61982857D01*
X99940000Y-62125714D01*
X100011428Y-62197142D01*
X100154285Y-62268571D01*
X100440000Y-62268571D01*
X100582857Y-62197142D01*
X99225714Y-62268571D02*
X99225714Y-61268571D01*
X99225714Y-60768571D02*
X99297142Y-60840000D01*
X99225714Y-60911428D01*
X99154285Y-60840000D01*
X99225714Y-60768571D01*
X99225714Y-60911428D01*
X97868571Y-61268571D02*
X97868571Y-62482857D01*
X97940000Y-62625714D01*
X98011428Y-62697142D01*
X98154285Y-62768571D01*
X98368571Y-62768571D01*
X98511428Y-62697142D01*
X97868571Y-62197142D02*
X98011428Y-62268571D01*
X98297142Y-62268571D01*
X98440000Y-62197142D01*
X98511428Y-62125714D01*
X98582857Y-61982857D01*
X98582857Y-61554285D01*
X98511428Y-61411428D01*
X98440000Y-61340000D01*
X98297142Y-61268571D01*
X98011428Y-61268571D01*
X97868571Y-61340000D01*
X97154285Y-62268571D02*
X97154285Y-61268571D01*
X97154285Y-61411428D02*
X97082857Y-61340000D01*
X96940000Y-61268571D01*
X96725714Y-61268571D01*
X96582857Y-61340000D01*
X96511428Y-61482857D01*
X96511428Y-62268571D01*
X96511428Y-61482857D02*
X96440000Y-61340000D01*
X96297142Y-61268571D01*
X96082857Y-61268571D01*
X95940000Y-61340000D01*
X95868571Y-61482857D01*
X95868571Y-62268571D01*
X94511428Y-62268571D02*
X94511428Y-61482857D01*
X94582857Y-61340000D01*
X94725714Y-61268571D01*
X95011428Y-61268571D01*
X95154285Y-61340000D01*
X94511428Y-62197142D02*
X94654285Y-62268571D01*
X95011428Y-62268571D01*
X95154285Y-62197142D01*
X95225714Y-62054285D01*
X95225714Y-61911428D01*
X95154285Y-61768571D01*
X95011428Y-61697142D01*
X94654285Y-61697142D01*
X94511428Y-61625714D01*
X93940000Y-62268571D02*
X93154285Y-61268571D01*
X93940000Y-61268571D02*
X93154285Y-62268571D01*
X91440000Y-61697142D02*
X90297142Y-61697142D01*
X88582857Y-61268571D02*
X88225714Y-62268571D01*
X87868571Y-61268571D01*
X87368571Y-60911428D02*
X87297142Y-60840000D01*
X87154285Y-60768571D01*
X86797142Y-60768571D01*
X86654285Y-60840000D01*
X86582857Y-60911428D01*
X86511428Y-61054285D01*
X86511428Y-61197142D01*
X86582857Y-61411428D01*
X87440000Y-62268571D01*
X86511428Y-62268571D01*
X85868571Y-62125714D02*
X85797142Y-62197142D01*
X85868571Y-62268571D01*
X85940000Y-62197142D01*
X85868571Y-62125714D01*
X85868571Y-62268571D01*
X84868571Y-60768571D02*
X84725714Y-60768571D01*
X84582857Y-60840000D01*
X84511428Y-60911428D01*
X84440000Y-61054285D01*
X84368571Y-61340000D01*
X84368571Y-61697142D01*
X84440000Y-61982857D01*
X84511428Y-62125714D01*
X84582857Y-62197142D01*
X84725714Y-62268571D01*
X84868571Y-62268571D01*
X85011428Y-62197142D01*
X85082857Y-62125714D01*
X85154285Y-61982857D01*
X85225714Y-61697142D01*
X85225714Y-61340000D01*
X85154285Y-61054285D01*
X85082857Y-60911428D01*
X85011428Y-60840000D01*
X84868571Y-60768571D01*
X83725714Y-62125714D02*
X83654285Y-62197142D01*
X83725714Y-62268571D01*
X83797142Y-62197142D01*
X83725714Y-62125714D01*
X83725714Y-62268571D01*
X82725714Y-60768571D02*
X82582857Y-60768571D01*
X82440000Y-60840000D01*
X82368571Y-60911428D01*
X82297142Y-61054285D01*
X82225714Y-61340000D01*
X82225714Y-61697142D01*
X82297142Y-61982857D01*
X82368571Y-62125714D01*
X82440000Y-62197142D01*
X82582857Y-62268571D01*
X82725714Y-62268571D01*
X82868571Y-62197142D01*
X82940000Y-62125714D01*
X83011428Y-61982857D01*
X83082857Y-61697142D01*
X83082857Y-61340000D01*
X83011428Y-61054285D01*
X82940000Y-60911428D01*
X82868571Y-60840000D01*
X82725714Y-60768571D01*
X96547142Y-64818571D02*
X96547142Y-63818571D01*
X96547142Y-63961428D02*
X96475714Y-63890000D01*
X96332857Y-63818571D01*
X96118571Y-63818571D01*
X95975714Y-63890000D01*
X95904285Y-64032857D01*
X95904285Y-64818571D01*
X95904285Y-64032857D02*
X95832857Y-63890000D01*
X95690000Y-63818571D01*
X95475714Y-63818571D01*
X95332857Y-63890000D01*
X95261428Y-64032857D01*
X95261428Y-64818571D01*
X93904285Y-64818571D02*
X93904285Y-64032857D01*
X93975714Y-63890000D01*
X94118571Y-63818571D01*
X94404285Y-63818571D01*
X94547142Y-63890000D01*
X93904285Y-64747142D02*
X94047142Y-64818571D01*
X94404285Y-64818571D01*
X94547142Y-64747142D01*
X94618571Y-64604285D01*
X94618571Y-64461428D01*
X94547142Y-64318571D01*
X94404285Y-64247142D01*
X94047142Y-64247142D01*
X93904285Y-64175714D01*
X93190000Y-64818571D02*
X93190000Y-63818571D01*
X93190000Y-63318571D02*
X93261428Y-63390000D01*
X93190000Y-63461428D01*
X93118571Y-63390000D01*
X93190000Y-63318571D01*
X93190000Y-63461428D01*
X91404285Y-63461428D02*
X91332857Y-63390000D01*
X91190000Y-63318571D01*
X90832857Y-63318571D01*
X90690000Y-63390000D01*
X90618571Y-63461428D01*
X90547142Y-63604285D01*
X90547142Y-63747142D01*
X90618571Y-63961428D01*
X91475714Y-64818571D01*
X90547142Y-64818571D01*
X89618571Y-63318571D02*
X89475714Y-63318571D01*
X89332857Y-63390000D01*
X89261428Y-63461428D01*
X89190000Y-63604285D01*
X89118571Y-63890000D01*
X89118571Y-64247142D01*
X89190000Y-64532857D01*
X89261428Y-64675714D01*
X89332857Y-64747142D01*
X89475714Y-64818571D01*
X89618571Y-64818571D01*
X89761428Y-64747142D01*
X89832857Y-64675714D01*
X89904285Y-64532857D01*
X89975714Y-64247142D01*
X89975714Y-63890000D01*
X89904285Y-63604285D01*
X89832857Y-63461428D01*
X89761428Y-63390000D01*
X89618571Y-63318571D01*
X87690000Y-64818571D02*
X88547142Y-64818571D01*
X88118571Y-64818571D02*
X88118571Y-63318571D01*
X88261428Y-63532857D01*
X88404285Y-63675714D01*
X88547142Y-63747142D01*
X86975714Y-64818571D02*
X86690000Y-64818571D01*
X86547142Y-64747142D01*
X86475714Y-64675714D01*
X86332857Y-64461428D01*
X86261428Y-64175714D01*
X86261428Y-63604285D01*
X86332857Y-63461428D01*
X86404285Y-63390000D01*
X86547142Y-63318571D01*
X86832857Y-63318571D01*
X86975714Y-63390000D01*
X87047142Y-63461428D01*
X87118571Y-63604285D01*
X87118571Y-63961428D01*
X87047142Y-64104285D01*
X86975714Y-64175714D01*
X86832857Y-64247142D01*
X86547142Y-64247142D01*
X86404285Y-64175714D01*
X86332857Y-64104285D01*
X86261428Y-63961428D01*
D12*
X161290000Y-114935000D02*
X161290000Y-113665000D01*
X160020000Y-114935000D02*
X161290000Y-114935000D01*
X154560000Y-112622071D02*
X154560000Y-112225000D01*
X155320000Y-112622071D02*
X155320000Y-112225000D01*
X154560000Y-103565000D02*
X154560000Y-109565000D01*
X155320000Y-103565000D02*
X154560000Y-103565000D01*
X155320000Y-109565000D02*
X155320000Y-103565000D01*
X156210000Y-112225000D02*
X156210000Y-109565000D01*
X157100000Y-112622071D02*
X157100000Y-112225000D01*
X157860000Y-112622071D02*
X157860000Y-112225000D01*
X157100000Y-103565000D02*
X157100000Y-109565000D01*
X157860000Y-103565000D02*
X157100000Y-103565000D01*
X157860000Y-109565000D02*
X157860000Y-103565000D01*
X158750000Y-112225000D02*
X158750000Y-109565000D01*
X159640000Y-112555000D02*
X159640000Y-112225000D01*
X160400000Y-112555000D02*
X160400000Y-112225000D01*
X159740000Y-109565000D02*
X159740000Y-103565000D01*
X159860000Y-109565000D02*
X159860000Y-103565000D01*
X159980000Y-109565000D02*
X159980000Y-103565000D01*
X160100000Y-109565000D02*
X160100000Y-103565000D01*
X160220000Y-109565000D02*
X160220000Y-103565000D01*
X160340000Y-109565000D02*
X160340000Y-103565000D01*
X159640000Y-103565000D02*
X159640000Y-109565000D01*
X160400000Y-103565000D02*
X159640000Y-103565000D01*
X160400000Y-109565000D02*
X160400000Y-103565000D01*
X161350000Y-109565000D02*
X161350000Y-112225000D01*
X153610000Y-109565000D02*
X161350000Y-109565000D01*
X153610000Y-112225000D02*
X153610000Y-109565000D01*
X161350000Y-112225000D02*
X153610000Y-112225000D01*
X227330000Y-96520000D02*
X227330000Y-95250000D01*
X226060000Y-96520000D02*
X227330000Y-96520000D01*
X223140000Y-94207071D02*
X223140000Y-93810000D01*
X223900000Y-94207071D02*
X223900000Y-93810000D01*
X223140000Y-85150000D02*
X223140000Y-91150000D01*
X223900000Y-85150000D02*
X223140000Y-85150000D01*
X223900000Y-91150000D02*
X223900000Y-85150000D01*
X224790000Y-93810000D02*
X224790000Y-91150000D01*
X225680000Y-94140000D02*
X225680000Y-93810000D01*
X226440000Y-94140000D02*
X226440000Y-93810000D01*
X225780000Y-91150000D02*
X225780000Y-85150000D01*
X225900000Y-91150000D02*
X225900000Y-85150000D01*
X226020000Y-91150000D02*
X226020000Y-85150000D01*
X226140000Y-91150000D02*
X226140000Y-85150000D01*
X226260000Y-91150000D02*
X226260000Y-85150000D01*
X226380000Y-91150000D02*
X226380000Y-85150000D01*
X225680000Y-85150000D02*
X225680000Y-91150000D01*
X226440000Y-85150000D02*
X225680000Y-85150000D01*
X226440000Y-91150000D02*
X226440000Y-85150000D01*
X227390000Y-91150000D02*
X227390000Y-93810000D01*
X222190000Y-91150000D02*
X227390000Y-91150000D01*
X222190000Y-93810000D02*
X222190000Y-91150000D01*
X227390000Y-93810000D02*
X222190000Y-93810000D01*
D10*
X238760000Y-110490000D02*
X238760000Y-99695000D01*
X236220000Y-113030000D02*
X191770000Y-113030000D01*
X236220000Y-97155000D02*
X191770000Y-97155000D01*
X189230000Y-110490000D02*
X189230000Y-99695000D01*
X236220000Y-113030000D02*
G75*
G03X238760000Y-110490000I0J2540000D01*
G01*
X189230000Y-110490000D02*
G75*
G03X191770000Y-113030000I2540000J0D01*
G01*
X191770000Y-97155000D02*
G75*
G03X189230000Y-99695000I0J-2540000D01*
G01*
X238760000Y-99695000D02*
G75*
G03X236220000Y-97155000I-2540000J0D01*
G01*
X161742380Y-108946666D02*
X162456666Y-108946666D01*
X162599523Y-108899047D01*
X162694761Y-108803809D01*
X162742380Y-108660952D01*
X162742380Y-108565714D01*
X161742380Y-109327619D02*
X161742380Y-109946666D01*
X162123333Y-109613333D01*
X162123333Y-109756190D01*
X162170952Y-109851428D01*
X162218571Y-109899047D01*
X162313809Y-109946666D01*
X162551904Y-109946666D01*
X162647142Y-109899047D01*
X162694761Y-109851428D01*
X162742380Y-109756190D01*
X162742380Y-109470476D01*
X162694761Y-109375238D01*
X162647142Y-109327619D01*
X227782380Y-90531666D02*
X228496666Y-90531666D01*
X228639523Y-90484047D01*
X228734761Y-90388809D01*
X228782380Y-90245952D01*
X228782380Y-90150714D01*
X228115714Y-91436428D02*
X228782380Y-91436428D01*
X227734761Y-91198333D02*
X228449047Y-90960238D01*
X228449047Y-91579285D01*
X215233095Y-102322380D02*
X215233095Y-103131904D01*
X215185476Y-103227142D01*
X215137857Y-103274761D01*
X215042619Y-103322380D01*
X214852142Y-103322380D01*
X214756904Y-103274761D01*
X214709285Y-103227142D01*
X214661666Y-103131904D01*
X214661666Y-102322380D01*
X213661666Y-103322380D02*
X214233095Y-103322380D01*
X213947380Y-103322380D02*
X213947380Y-102322380D01*
X214042619Y-102465238D01*
X214137857Y-102560476D01*
X214233095Y-102608095D01*
X213280714Y-102417619D02*
X213233095Y-102370000D01*
X213137857Y-102322380D01*
X212899761Y-102322380D01*
X212804523Y-102370000D01*
X212756904Y-102417619D01*
X212709285Y-102512857D01*
X212709285Y-102608095D01*
X212756904Y-102750952D01*
X213328333Y-103322380D01*
X212709285Y-103322380D01*
X237100952Y-110307380D02*
X237100952Y-109307380D01*
X236720000Y-109307380D01*
X236624761Y-109355000D01*
X236577142Y-109402619D01*
X236529523Y-109497857D01*
X236529523Y-109640714D01*
X236577142Y-109735952D01*
X236624761Y-109783571D01*
X236720000Y-109831190D01*
X237100952Y-109831190D01*
X236100952Y-109926428D02*
X235339047Y-109926428D01*
X237100952Y-100782380D02*
X237100952Y-99782380D01*
X236720000Y-99782380D01*
X236624761Y-99830000D01*
X236577142Y-99877619D01*
X236529523Y-99972857D01*
X236529523Y-100115714D01*
X236577142Y-100210952D01*
X236624761Y-100258571D01*
X236720000Y-100306190D01*
X237100952Y-100306190D01*
X236100952Y-100401428D02*
X235339047Y-100401428D01*
X235720000Y-100782380D02*
X235720000Y-100020476D01*
X228671428Y-98972619D02*
X228623809Y-98829761D01*
X228576190Y-98782142D01*
X228480952Y-98734523D01*
X228338095Y-98734523D01*
X228242857Y-98782142D01*
X228195238Y-98829761D01*
X228147619Y-98925000D01*
X228147619Y-99305952D01*
X229147619Y-99305952D01*
X229147619Y-98972619D01*
X229100000Y-98877380D01*
X229052380Y-98829761D01*
X228957142Y-98782142D01*
X228861904Y-98782142D01*
X228766666Y-98829761D01*
X228719047Y-98877380D01*
X228671428Y-98972619D01*
X228671428Y-99305952D01*
X228528571Y-98305952D02*
X228528571Y-97544047D01*
X228671428Y-112164761D02*
X228623809Y-112021904D01*
X228576190Y-111974285D01*
X228480952Y-111926666D01*
X228338095Y-111926666D01*
X228242857Y-111974285D01*
X228195238Y-112021904D01*
X228147619Y-112117142D01*
X228147619Y-112498095D01*
X229147619Y-112498095D01*
X229147619Y-112164761D01*
X229100000Y-112069523D01*
X229052380Y-112021904D01*
X228957142Y-111974285D01*
X228861904Y-111974285D01*
X228766666Y-112021904D01*
X228719047Y-112069523D01*
X228671428Y-112164761D01*
X228671428Y-112498095D01*
X228147619Y-110974285D02*
X228147619Y-111545714D01*
X228147619Y-111260000D02*
X229147619Y-111260000D01*
X229004761Y-111355238D01*
X228909523Y-111450476D01*
X228861904Y-111545714D01*
X210891428Y-112164761D02*
X210843809Y-112021904D01*
X210796190Y-111974285D01*
X210700952Y-111926666D01*
X210558095Y-111926666D01*
X210462857Y-111974285D01*
X210415238Y-112021904D01*
X210367619Y-112117142D01*
X210367619Y-112498095D01*
X211367619Y-112498095D01*
X211367619Y-112164761D01*
X211320000Y-112069523D01*
X211272380Y-112021904D01*
X211177142Y-111974285D01*
X211081904Y-111974285D01*
X210986666Y-112021904D01*
X210939047Y-112069523D01*
X210891428Y-112164761D01*
X210891428Y-112498095D01*
X211272380Y-111545714D02*
X211320000Y-111498095D01*
X211367619Y-111402857D01*
X211367619Y-111164761D01*
X211320000Y-111069523D01*
X211272380Y-111021904D01*
X211177142Y-110974285D01*
X211081904Y-110974285D01*
X210939047Y-111021904D01*
X210367619Y-111593333D01*
X210367619Y-110974285D01*
X199937619Y-111688571D02*
X199794761Y-111736190D01*
X199747142Y-111783809D01*
X199699523Y-111879047D01*
X199699523Y-112021904D01*
X199747142Y-112117142D01*
X199794761Y-112164761D01*
X199890000Y-112212380D01*
X200270952Y-112212380D01*
X200270952Y-111212380D01*
X199937619Y-111212380D01*
X199842380Y-111260000D01*
X199794761Y-111307619D01*
X199747142Y-111402857D01*
X199747142Y-111498095D01*
X199794761Y-111593333D01*
X199842380Y-111640952D01*
X199937619Y-111688571D01*
X200270952Y-111688571D01*
X199270952Y-111831428D02*
X198509047Y-111831428D01*
X198890000Y-112212380D02*
X198890000Y-111450476D01*
M02*
