M48
; DRILL file {KiCad (5.1.0)-1} date 07/05/2019 21:37:52
; FORMAT={3:3/ absolute / metric / suppress leading zeros}
; #@! TF.CreationDate,2019-05-07T21:37:52+02:00
; #@! TF.GenerationSoftware,Kicad,Pcbnew,(5.1.0)-1
; #@! TF.FileFunction,Plated,1,2,PTH
FMAT,2
METRIC,TZ
T1C0.400
T2C0.762
T3C0.800
T4C0.900
T5C1.000
T6C1.100
T7C1.270
%
G90
G05
T1
X51435Y-124460
X51435Y-133985
X52070Y-93345
X56515Y-88265
X57785Y-81915
X58420Y-95250
X59690Y-108585
X63955Y-111760
X64680Y-113665
X65405Y-97155
X65405Y-115570
X66040Y-89535
X66040Y-121920
X67945Y-132080
X69850Y-108585
X71120Y-81915
X73660Y-93345
X75565Y-125095
X76200Y-118110
X76835Y-119380
X77470Y-120650
X78105Y-121920
X78105Y-135255
X79375Y-110490
X82550Y-104775
X83820Y-82550
X83820Y-92710
X88265Y-132080
X88900Y-120015
X92075Y-99695
X95250Y-105410
X95885Y-83820
X95885Y-93345
X99060Y-134620
X101600Y-120015
X102870Y-111125
X103505Y-97790
X108585Y-85090
X109855Y-132080
X110490Y-107315
X111125Y-95250
X115570Y-81280
X119380Y-88265
X119380Y-97155
X120650Y-123825
X120650Y-134620
X125095Y-106680
X128270Y-97790
X130810Y-121285
X131445Y-80645
X135255Y-83820
X138430Y-94615
X138430Y-102235
X138430Y-110490
X138430Y-125095
X138430Y-134620
T2
X63500Y-79375
X66040Y-79375
X68580Y-79375
X71120Y-79375
X73660Y-79375
X76200Y-79375
X128270Y-115570
X130810Y-115570
X133350Y-115570
X119380Y-83185
X121920Y-83185
X124460Y-83185
X127000Y-83185
X129540Y-83185
X129540Y-93980
X107950Y-115570
X110490Y-115570
X113030Y-115570
X115570Y-115570
X118110Y-115570
X120650Y-115570
X69850Y-115570
X72390Y-115570
X74930Y-115570
X77470Y-115570
X80010Y-115570
X82550Y-115570
X57150Y-115570
X59690Y-115570
X62230Y-115570
X132715Y-87630
X135255Y-87630
X137795Y-87630
X140335Y-87630
X156210Y-88900
X156210Y-91440
X156210Y-93980
X93345Y-79375
X93345Y-89535
X95885Y-79375
X95885Y-89535
X98425Y-79375
X98425Y-89535
X100965Y-79375
X100965Y-89535
X103505Y-79375
X103505Y-89535
X106045Y-79375
X106045Y-89535
X108585Y-79375
X108585Y-89535
X111125Y-79375
X111125Y-89535
X114300Y-79375
X116840Y-79375
X119380Y-79375
X121920Y-79375
X124460Y-79375
X127000Y-79375
T3
X90170Y-113030
X100330Y-113030
X87630Y-88900
X87630Y-99060
X90170Y-109855
X100330Y-109855
X76200Y-88900
X76200Y-99060
X80010Y-88900
X80010Y-99060
X83820Y-88900
X83820Y-99060
X104775Y-115570
X104775Y-125730
X85725Y-115570
X85725Y-125730
X52070Y-86360
X52070Y-101600
X54610Y-86360
X54610Y-101600
X57150Y-86360
X57150Y-101600
X59690Y-86360
X59690Y-101600
X62230Y-86360
X62230Y-101600
X64770Y-86360
X64770Y-101600
X67310Y-86360
X67310Y-101600
X69850Y-86360
X69850Y-101600
X72390Y-86360
X72390Y-101600
X74930Y-86360
X74930Y-101600
X77470Y-86360
X77470Y-101600
X80010Y-86360
X80010Y-101600
X82550Y-86360
X82550Y-101600
X85090Y-86360
X85090Y-101600
X87630Y-86360
X87630Y-101600
X90170Y-116205
X100330Y-116205
X52070Y-88900
X52070Y-99060
T4
X92710Y-121285
X94615Y-121285
X96520Y-121285
X98425Y-121285
T5
X223520Y-95250
X226060Y-95250
X196215Y-111760
X213995Y-111760
X231775Y-98425
X231775Y-111760
X236220Y-102870
X236220Y-107315
X154940Y-113665
X157480Y-113665
X160020Y-113665
X83900Y-79375
X88900Y-79375
X85725Y-107315
X85725Y-109855
X85725Y-112395
X234950Y-89535
X234950Y-92075
X234950Y-94615
X124460Y-87630
X127000Y-87630
T6
X49475Y-104775
X49475Y-111275
X53975Y-104775
X53975Y-111275
T7
X172085Y-48895
X172085Y-120650
X191770Y-48895
X191770Y-120650
X211455Y-48895
X211455Y-120650
T0
M30
