M48
; DRILL file {KiCad (5.1.0)-1} date 03/05/2019 22:02:29
; FORMAT={3:3/ absolute / metric / suppress leading zeros}
; #@! TF.CreationDate,2019-05-03T22:02:29+02:00
; #@! TF.GenerationSoftware,Kicad,Pcbnew,(5.1.0)-1
; #@! TF.FileFunction,Plated,1,2,PTH
FMAT,2
METRIC,TZ
T1C0.400
T2C0.762
T3C0.800
T4C0.900
T5C1.000
T6C1.100
%
G90
G05
T1
X106045Y-131445
X106045Y-140970
X106680Y-100330
X111125Y-95250
X112395Y-88900
X113030Y-102235
X114300Y-115570
X118565Y-118745
X119290Y-120650
X120015Y-104140
X120015Y-122555
X120650Y-96520
X120650Y-128905
X122555Y-139065
X124460Y-115570
X125730Y-88900
X128270Y-100330
X130175Y-132080
X130810Y-125095
X131445Y-126365
X132080Y-127635
X132715Y-128905
X132715Y-142240
X133985Y-117475
X137160Y-111760
X138430Y-89535
X138430Y-99695
X142875Y-139065
X143510Y-127000
X146685Y-106680
X149860Y-112395
X150495Y-90805
X150495Y-100330
X153670Y-141605
X156210Y-127000
X157480Y-118110
X158115Y-104775
X163195Y-92075
X164465Y-139065
X165100Y-114300
X165735Y-102235
X170180Y-88265
X173990Y-95250
X173990Y-104140
X175260Y-130810
X175260Y-141605
X179705Y-113665
X182880Y-104775
X185420Y-128270
X186055Y-87630
X189865Y-90805
X193040Y-101600
X193040Y-109220
X193040Y-117475
X193040Y-132080
X193040Y-141605
T2
X111760Y-122555
X114300Y-122555
X116840Y-122555
X168910Y-86360
X171450Y-86360
X173990Y-86360
X176530Y-86360
X179070Y-86360
X181610Y-86360
X147955Y-86360
X147955Y-96520
X150495Y-86360
X150495Y-96520
X153035Y-86360
X153035Y-96520
X155575Y-86360
X155575Y-96520
X158115Y-86360
X158115Y-96520
X160655Y-86360
X160655Y-96520
X163195Y-86360
X163195Y-96520
X165735Y-86360
X165735Y-96520
X182880Y-122555
X185420Y-122555
X187960Y-122555
X187325Y-94615
X189865Y-94615
X192405Y-94615
X194945Y-94615
X162560Y-122555
X165100Y-122555
X167640Y-122555
X170180Y-122555
X172720Y-122555
X175260Y-122555
X124460Y-122555
X127000Y-122555
X129540Y-122555
X132080Y-122555
X134620Y-122555
X137160Y-122555
X173990Y-90170
X176530Y-90170
X179070Y-90170
X181610Y-90170
X184150Y-90170
X184150Y-100965
X118110Y-86360
X120650Y-86360
X123190Y-86360
X125730Y-86360
X128270Y-86360
X130810Y-86360
T3
X106680Y-93345
X106680Y-108585
X109220Y-93345
X109220Y-108585
X111760Y-93345
X111760Y-108585
X114300Y-93345
X114300Y-108585
X116840Y-93345
X116840Y-108585
X119380Y-93345
X119380Y-108585
X121920Y-93345
X121920Y-108585
X124460Y-93345
X124460Y-108585
X127000Y-93345
X127000Y-108585
X129540Y-93345
X129540Y-108585
X132080Y-93345
X132080Y-108585
X134620Y-93345
X134620Y-108585
X137160Y-93345
X137160Y-108585
X139700Y-93345
X139700Y-108585
X142240Y-93345
X142240Y-108585
X159385Y-122555
X159385Y-132715
X130810Y-95885
X130810Y-106045
X144780Y-123190
X154940Y-123190
X138430Y-95885
X138430Y-106045
X144780Y-120015
X154940Y-120015
X144780Y-116840
X154940Y-116840
X140335Y-122555
X140335Y-132715
X142240Y-95885
X142240Y-106045
X134620Y-95885
X134620Y-106045
X106680Y-95885
X106680Y-106045
T4
X147955Y-128270
X149225Y-128270
X150495Y-128270
X151765Y-128270
T5
X179070Y-94615
X181610Y-94615
X140335Y-114300
X140335Y-116840
X140335Y-119380
X138510Y-86360
X143510Y-86360
T6
X104085Y-111760
X104085Y-118260
X108585Y-111760
X108585Y-118260
T0
M30
