G04 #@! TF.GenerationSoftware,KiCad,Pcbnew,(5.1.0)-1*
G04 #@! TF.CreationDate,2019-05-06T21:49:04+02:00*
G04 #@! TF.ProjectId,bigmax,6269676d-6178-42e6-9b69-6361645f7063,v2*
G04 #@! TF.SameCoordinates,Original*
G04 #@! TF.FileFunction,Profile,NP*
%FSLAX46Y46*%
G04 Gerber Fmt 4.6, Leading zero omitted, Abs format (unit mm)*
G04 Created by KiCad (PCBNEW (5.1.0)-1) date 2019-05-06 21:49:04*
%MOMM*%
%LPD*%
G04 APERTURE LIST*
%ADD10C,0.150000*%
G04 APERTURE END LIST*
D10*
X144780000Y-87630000D02*
X142240000Y-87630000D01*
X142240000Y-114935000D02*
X142240000Y-118745000D01*
X142240000Y-82550000D02*
X142240000Y-86360000D01*
X144780000Y-86360000D02*
X144780000Y-82550000D01*
X142240000Y-86360000D02*
X144780000Y-86360000D01*
X144780000Y-113665000D02*
X142240000Y-113665000D01*
X144780000Y-114935000D02*
X144780000Y-118745000D01*
X142240000Y-114935000D02*
X144780000Y-114935000D01*
X144780000Y-80010000D02*
X144780000Y-81280000D01*
X142240000Y-80010000D02*
X142240000Y-81280000D01*
X144780000Y-82550000D02*
X142240000Y-82550000D01*
X142240000Y-81280000D02*
X144780000Y-81280000D01*
X144780000Y-120015000D02*
X144780000Y-121285000D01*
X142240000Y-118745000D02*
X144780000Y-118745000D01*
X142240000Y-120015000D02*
X144780000Y-120015000D01*
X142240000Y-138430000D02*
X142240000Y-120015000D01*
X144780000Y-87630000D02*
X144780000Y-113665000D01*
X238760000Y-80010000D02*
X238760000Y-121285000D01*
X158750000Y-78105000D02*
X158750000Y-48260000D01*
X224790000Y-78105000D02*
X236855000Y-78105000D01*
X160655000Y-46355000D02*
X222885000Y-46355000D01*
X150090000Y-119380000D02*
G75*
G03X150090000Y-119380000I-1500000J0D01*
G01*
X146685000Y-78105000D02*
X158750000Y-78105000D01*
X146685000Y-123190000D02*
X236855000Y-123190000D01*
X224790000Y-48260000D02*
X224790000Y-78105000D01*
X236450000Y-119380000D02*
G75*
G03X236450000Y-119380000I-1500000J0D01*
G01*
X222885000Y-46355000D02*
G75*
G02X224790000Y-48260000I0J-1905000D01*
G01*
X150090000Y-81915000D02*
G75*
G03X150090000Y-81915000I-1500000J0D01*
G01*
X146685000Y-123190000D02*
G75*
G02X144780000Y-121285000I0J1905000D01*
G01*
X144780000Y-80010000D02*
G75*
G02X146685000Y-78105000I1905000J0D01*
G01*
X236450000Y-81915000D02*
G75*
G03X236450000Y-81915000I-1500000J0D01*
G01*
X158750000Y-48260000D02*
G75*
G02X160655000Y-46355000I1905000J0D01*
G01*
X238760000Y-121285000D02*
G75*
G02X236855000Y-123190000I-1905000J0D01*
G01*
X236855000Y-78105000D02*
G75*
G02X238760000Y-80010000I0J-1905000D01*
G01*
X139930000Y-119380000D02*
G75*
G03X139930000Y-119380000I-1500000J0D01*
G01*
X139930000Y-81915000D02*
G75*
G03X139930000Y-81915000I-1500000J0D01*
G01*
X53570000Y-81915000D02*
G75*
G03X53570000Y-81915000I-1500000J0D01*
G01*
X53570000Y-119380000D02*
G75*
G03X53570000Y-119380000I-1500000J0D01*
G01*
X142240000Y-138430000D02*
G75*
G02X140335000Y-140335000I-1905000J0D01*
G01*
X50165000Y-140335000D02*
G75*
G02X48260000Y-138430000I0J1905000D01*
G01*
X48260000Y-80010000D02*
G75*
G02X50165000Y-78105000I1905000J0D01*
G01*
X62230000Y-48260000D02*
G75*
G02X64135000Y-46355000I1905000J0D01*
G01*
X126365000Y-46355000D02*
G75*
G02X128270000Y-48260000I0J-1905000D01*
G01*
X140335000Y-78105000D02*
G75*
G02X142240000Y-80010000I0J-1905000D01*
G01*
X115570000Y-53340000D02*
G75*
G03X115570000Y-53340000I-1270000J0D01*
G01*
X115570000Y-71120000D02*
G75*
G03X115570000Y-71120000I-1270000J0D01*
G01*
X77470000Y-71120000D02*
G75*
G03X77470000Y-71120000I-1270000J0D01*
G01*
X77470000Y-53340000D02*
G75*
G03X77470000Y-53340000I-1270000J0D01*
G01*
X55880000Y-140335000D02*
X50165000Y-140335000D01*
X134620000Y-140335000D02*
X140335000Y-140335000D01*
X127000000Y-127000000D02*
X127000000Y-140335000D01*
X134620000Y-127000000D02*
X127000000Y-127000000D01*
X134620000Y-140335000D02*
X134620000Y-127000000D01*
X63500000Y-127000000D02*
X63500000Y-140335000D01*
X55880000Y-127000000D02*
X63500000Y-127000000D01*
X55880000Y-140335000D02*
X55880000Y-127000000D01*
X142240000Y-87630000D02*
X142240000Y-113665000D01*
X48260000Y-80010000D02*
X48260000Y-138430000D01*
X62230000Y-78105000D02*
X62230000Y-48260000D01*
X50165000Y-78105000D02*
X62230000Y-78105000D01*
X127000000Y-140335000D02*
X63500000Y-140335000D01*
X128270000Y-78105000D02*
X140335000Y-78105000D01*
X128270000Y-48260000D02*
X128270000Y-78105000D01*
X64135000Y-46355000D02*
X126365000Y-46355000D01*
M02*
