G04 #@! TF.GenerationSoftware,KiCad,Pcbnew,(5.1.0)-1*
G04 #@! TF.CreationDate,2019-05-06T21:49:04+02:00*
G04 #@! TF.ProjectId,bigmax,6269676d-6178-42e6-9b69-6361645f7063,v2*
G04 #@! TF.SameCoordinates,Original*
G04 #@! TF.FileFunction,Copper,L2,Bot*
G04 #@! TF.FilePolarity,Positive*
%FSLAX46Y46*%
G04 Gerber Fmt 4.6, Leading zero omitted, Abs format (unit mm)*
G04 Created by KiCad (PCBNEW (5.1.0)-1) date 2019-05-06 21:49:04*
%MOMM*%
%LPD*%
G04 APERTURE LIST*
%ADD10O,1.600000X1.600000*%
%ADD11R,1.600000X1.600000*%
%ADD12C,2.000000*%
%ADD13R,2.000000X2.000000*%
%ADD14O,1.070000X1.800000*%
%ADD15R,1.070000X1.800000*%
%ADD16C,1.600000*%
%ADD17R,1.524000X1.524000*%
%ADD18C,1.524000*%
%ADD19O,1.700000X1.700000*%
%ADD20R,1.700000X1.700000*%
%ADD21R,4.000000X2.560000*%
%ADD22C,2.540000*%
%ADD23C,0.800000*%
%ADD24C,2.000000*%
%ADD25C,0.250000*%
%ADD26C,1.000000*%
%ADD27C,0.500000*%
%ADD28C,0.254000*%
G04 APERTURE END LIST*
D10*
X52070000Y-101600000D03*
X52070000Y-86360000D03*
X87630000Y-101600000D03*
X54610000Y-86360000D03*
X85090000Y-101600000D03*
X57150000Y-86360000D03*
X82550000Y-101600000D03*
X59690000Y-86360000D03*
X80010000Y-101600000D03*
X62230000Y-86360000D03*
X77470000Y-101600000D03*
X64770000Y-86360000D03*
X74930000Y-101600000D03*
X67310000Y-86360000D03*
X72390000Y-101600000D03*
X69850000Y-86360000D03*
X69850000Y-101600000D03*
X72390000Y-86360000D03*
X67310000Y-101600000D03*
X74930000Y-86360000D03*
X64770000Y-101600000D03*
X77470000Y-86360000D03*
X62230000Y-101600000D03*
X80010000Y-86360000D03*
X59690000Y-101600000D03*
X82550000Y-86360000D03*
X57150000Y-101600000D03*
X85090000Y-86360000D03*
X54610000Y-101600000D03*
D11*
X87630000Y-86360000D03*
D12*
X83900000Y-79375000D03*
D13*
X88900000Y-79375000D03*
D14*
X97155000Y-121285000D03*
X95885000Y-121285000D03*
X94615000Y-121285000D03*
D15*
X93345000Y-121285000D03*
D10*
X100330000Y-116205000D03*
D16*
X90170000Y-116205000D03*
X90170000Y-113030000D03*
D10*
X100330000Y-113030000D03*
D16*
X90170000Y-109855000D03*
D10*
X100330000Y-109855000D03*
X52070000Y-99060000D03*
D16*
X52070000Y-88900000D03*
X85725000Y-115570000D03*
D10*
X85725000Y-125730000D03*
D16*
X76200000Y-99060000D03*
D10*
X76200000Y-88900000D03*
X80010000Y-88900000D03*
D16*
X80010000Y-99060000D03*
X83820000Y-99060000D03*
D10*
X83820000Y-88900000D03*
X87630000Y-88900000D03*
D16*
X87630000Y-99060000D03*
D10*
X104775000Y-125730000D03*
D16*
X104775000Y-115570000D03*
D12*
X53975000Y-111275000D03*
X49475000Y-111275000D03*
X53975000Y-104775000D03*
X49475000Y-104775000D03*
D17*
X76200000Y-79375000D03*
D18*
X73660000Y-79375000D03*
X71120000Y-79375000D03*
X68580000Y-79375000D03*
X66040000Y-79375000D03*
X63500000Y-79375000D03*
X114300000Y-79375000D03*
X116840000Y-79375000D03*
X119380000Y-79375000D03*
X121920000Y-79375000D03*
X124460000Y-79375000D03*
D17*
X127000000Y-79375000D03*
X62230000Y-115570000D03*
D18*
X57150000Y-115570000D03*
X59690000Y-115570000D03*
X130810000Y-115570000D03*
X128270000Y-115570000D03*
D17*
X133350000Y-115570000D03*
D19*
X85725000Y-107315000D03*
X85725000Y-109855000D03*
D20*
X85725000Y-112395000D03*
D19*
X124460000Y-87630000D03*
D20*
X127000000Y-87630000D03*
D18*
X129540000Y-83185000D03*
X127000000Y-83185000D03*
X124460000Y-83185000D03*
D17*
X121920000Y-83185000D03*
D18*
X119380000Y-83185000D03*
D17*
X129540000Y-93980000D03*
D18*
X132715000Y-87630000D03*
D17*
X135255000Y-87630000D03*
D18*
X137795000Y-87630000D03*
X140335000Y-87630000D03*
D17*
X93345000Y-89535000D03*
D18*
X95885000Y-89535000D03*
X98425000Y-89535000D03*
X100965000Y-89535000D03*
X103505000Y-89535000D03*
X106045000Y-89535000D03*
X108585000Y-89535000D03*
X111125000Y-89535000D03*
D17*
X93345000Y-79375000D03*
D18*
X95885000Y-79375000D03*
X98425000Y-79375000D03*
X100965000Y-79375000D03*
X103505000Y-79375000D03*
X106045000Y-79375000D03*
X108585000Y-79375000D03*
X111125000Y-79375000D03*
X82550000Y-115570000D03*
X80010000Y-115570000D03*
X77470000Y-115570000D03*
X74930000Y-115570000D03*
X72390000Y-115570000D03*
D17*
X69850000Y-115570000D03*
X107950000Y-115570000D03*
D18*
X110490000Y-115570000D03*
X113030000Y-115570000D03*
X115570000Y-115570000D03*
X118110000Y-115570000D03*
X120650000Y-115570000D03*
D19*
X154940000Y-113665000D03*
X157480000Y-113665000D03*
D20*
X160020000Y-113665000D03*
D19*
X223520000Y-95250000D03*
D20*
X226060000Y-95250000D03*
D17*
X156210000Y-88900000D03*
D18*
X156210000Y-91440000D03*
X156210000Y-93980000D03*
D19*
X234950000Y-94615000D03*
X234950000Y-92075000D03*
D20*
X234950000Y-89535000D03*
D21*
X236220000Y-107315000D03*
X236220000Y-102870000D03*
X196215000Y-111760000D03*
X213995000Y-111760000D03*
X231775000Y-111760000D03*
X231775000Y-98425000D03*
D22*
X172085000Y-48895000D03*
X191770000Y-48895000D03*
X211455000Y-48895000D03*
X172085000Y-120650000D03*
X211455000Y-120650000D03*
X191770000Y-120650000D03*
D23*
X66040000Y-89535000D03*
X56514992Y-88265000D03*
X110490000Y-107315000D03*
X95250000Y-105410000D03*
X135255000Y-83820000D03*
X111125000Y-95250000D03*
X95885000Y-93345000D03*
X88900000Y-120015000D03*
X59690000Y-108585000D03*
X83820000Y-82550000D03*
X128270000Y-97790000D03*
X125095000Y-106680000D03*
X138430000Y-94615000D03*
X138430000Y-102235000D03*
X138430000Y-110490000D03*
X138430000Y-134620000D03*
X120650000Y-134620000D03*
X109855000Y-132080000D03*
X99060000Y-134620000D03*
X88265000Y-132080000D03*
X78105000Y-135255000D03*
X67945000Y-132080000D03*
X120650000Y-123825000D03*
X51435000Y-133985000D03*
X51435000Y-124460000D03*
X66040000Y-121920000D03*
X75565000Y-125095000D03*
X69850000Y-108585000D03*
X79375000Y-110490000D03*
X82550000Y-104775000D03*
X65405000Y-97155000D03*
X58420000Y-95250000D03*
X52070000Y-93345000D03*
X57785000Y-81915000D03*
X71120000Y-81915000D03*
X102870000Y-111125000D03*
X101600000Y-120015000D03*
X103505000Y-97790000D03*
X119380000Y-97155000D03*
X95885000Y-83820000D03*
X83820000Y-92710000D03*
X130810000Y-121285000D03*
X108585000Y-85090000D03*
X115570000Y-81280000D03*
X119380000Y-88265000D03*
X92075000Y-99695000D03*
X138430000Y-125095000D03*
X65405000Y-115570000D03*
X78105000Y-121920000D03*
X64679990Y-113665000D03*
X77470000Y-120650000D03*
X63954980Y-111760000D03*
X76835000Y-119380000D03*
X76200000Y-118110000D03*
X131445000Y-80645000D03*
X73660000Y-93345001D03*
D24*
X211455000Y-120650000D02*
X231775000Y-100330000D01*
X231775000Y-100330000D02*
X231775000Y-98425000D01*
X236220000Y-92075000D02*
X237484990Y-93339990D01*
X237484990Y-93339990D02*
X237484990Y-101605010D01*
X237484990Y-101605010D02*
X236220000Y-102870000D01*
X234950000Y-92075000D02*
X236220000Y-92075000D01*
D25*
X120650000Y-116205000D02*
X120650000Y-115570000D01*
X52070000Y-101600000D02*
X52070000Y-113030000D01*
X66675000Y-127635000D02*
X106045000Y-127635000D01*
X106045000Y-127635000D02*
X116840000Y-116840000D01*
X116840000Y-116840000D02*
X120015000Y-116840000D01*
X52070000Y-113030000D02*
X66675000Y-127635000D01*
X120015000Y-116840000D02*
X120650000Y-116205000D01*
X52869999Y-87159999D02*
X52070000Y-86360000D01*
X63500000Y-89535000D02*
X55245000Y-89535000D01*
X73660000Y-99695000D02*
X63500000Y-89535000D01*
X81280000Y-114300000D02*
X77470000Y-114300000D01*
X55245000Y-89535000D02*
X52869999Y-87159999D01*
X82550000Y-115570000D02*
X81280000Y-114300000D01*
X77470000Y-114300000D02*
X76200000Y-113030000D01*
X76200000Y-113030000D02*
X76200000Y-100965000D01*
X76200000Y-100965000D02*
X74930000Y-99695000D01*
X74930000Y-99695000D02*
X73660000Y-99695000D01*
X80010000Y-99060000D02*
X78740000Y-97790000D01*
X78740000Y-97790000D02*
X74295000Y-97790000D01*
X66439999Y-89934999D02*
X66040000Y-89535000D01*
X74295000Y-97790000D02*
X66439999Y-89934999D01*
X54610000Y-86360000D02*
X56514992Y-88264992D01*
X56514992Y-88264992D02*
X56514992Y-88265000D01*
X59690000Y-88900000D02*
X57150000Y-86360000D01*
X64135000Y-88900000D02*
X59690000Y-88900000D01*
X76200000Y-99060000D02*
X74295000Y-99060000D01*
X74295000Y-99060000D02*
X64135000Y-88900000D01*
X60489999Y-87159999D02*
X59690000Y-86360000D01*
X61504999Y-88174999D02*
X60489999Y-87159999D01*
X65949999Y-88174999D02*
X61504999Y-88174999D01*
X74930000Y-97155000D02*
X65949999Y-88174999D01*
X83820000Y-99060000D02*
X81915000Y-97155000D01*
X81915000Y-97155000D02*
X74930000Y-97155000D01*
X125730000Y-115570000D02*
X128270000Y-115570000D01*
X82550000Y-114300000D02*
X124460000Y-114300000D01*
X77470000Y-102731370D02*
X76835000Y-103366370D01*
X77470000Y-101600000D02*
X77470000Y-102731370D01*
X124460000Y-114300000D02*
X125730000Y-115570000D01*
X76835000Y-103366370D02*
X76835000Y-112395000D01*
X76835000Y-112395000D02*
X78105000Y-113665000D01*
X78105000Y-113665000D02*
X81915000Y-113665000D01*
X81915000Y-113665000D02*
X82550000Y-114300000D01*
X60960000Y-100965000D02*
X61595000Y-100330000D01*
X61595000Y-100330000D02*
X73660000Y-100330000D01*
X60960000Y-102235000D02*
X60960000Y-100965000D01*
X59874990Y-103320010D02*
X60960000Y-102235000D01*
X55880000Y-114300000D02*
X55880000Y-111218998D01*
X57150000Y-115570000D02*
X55880000Y-114300000D01*
X74130001Y-100800001D02*
X74930000Y-101600000D01*
X73660000Y-100330000D02*
X74130001Y-100800001D01*
X55880000Y-111218998D02*
X54610000Y-109948998D01*
X54610000Y-109948998D02*
X54610000Y-106101002D01*
X54610000Y-106101002D02*
X57390992Y-103320010D01*
X57390992Y-103320010D02*
X59874990Y-103320010D01*
X67310000Y-88265000D02*
X67310000Y-86360000D01*
X75565000Y-96520000D02*
X67310000Y-88265000D01*
X87630000Y-99060000D02*
X85090000Y-96520000D01*
X85090000Y-96520000D02*
X75565000Y-96520000D01*
X85725000Y-124598630D02*
X85725000Y-125730000D01*
X77470000Y-115570000D02*
X85725000Y-123825000D01*
X85725000Y-123825000D02*
X85725000Y-124598630D01*
X115570000Y-116647630D02*
X115570000Y-115570000D01*
X87179989Y-127184989D02*
X105858601Y-127184989D01*
X85725000Y-125730000D02*
X87179989Y-127184989D01*
X105858601Y-127184989D02*
X115570000Y-117473590D01*
X115570000Y-117473590D02*
X115570000Y-116647630D01*
X71120000Y-102870000D02*
X69850000Y-101600000D01*
X74295000Y-102870000D02*
X71120000Y-102870000D01*
X75565000Y-104140000D02*
X74295000Y-102870000D01*
X77470000Y-115570000D02*
X75565000Y-113665000D01*
X75565000Y-113665000D02*
X75565000Y-104140000D01*
X77470000Y-86360000D02*
X77470000Y-81915000D01*
X77470000Y-81915000D02*
X76200000Y-80645000D01*
X76200000Y-80645000D02*
X72390000Y-80645000D01*
X72390000Y-80645000D02*
X71120000Y-79375000D01*
X53975000Y-104775000D02*
X53975000Y-111125000D01*
X57150000Y-102870000D02*
X58420000Y-102870000D01*
X53975000Y-104775000D02*
X55245000Y-104775000D01*
X55245000Y-104775000D02*
X57150000Y-102870000D01*
X58420000Y-102870000D02*
X59055000Y-102870000D01*
X59055000Y-102870000D02*
X59690000Y-102235000D01*
X59690000Y-102235000D02*
X59690000Y-101600000D01*
D26*
X102235000Y-75565000D02*
X106045000Y-79375000D01*
X63500000Y-79375000D02*
X67310000Y-75565000D01*
X67310000Y-75565000D02*
X102235000Y-75565000D01*
X101600000Y-77470000D02*
X103505000Y-79375000D01*
X66040000Y-79375000D02*
X67945000Y-77470000D01*
X67945000Y-77470000D02*
X101600000Y-77470000D01*
X112395000Y-81280000D02*
X114300000Y-79375000D01*
X98425000Y-79375000D02*
X100330000Y-81280000D01*
X100330000Y-81280000D02*
X112395000Y-81280000D01*
X99695000Y-83185000D02*
X95885000Y-79375000D01*
X119380000Y-83185000D02*
X99695000Y-83185000D01*
X90805000Y-81280000D02*
X93980000Y-81280000D01*
X88900000Y-79375000D02*
X90805000Y-81280000D01*
X93980000Y-81280000D02*
X95885000Y-79375000D01*
D25*
X71755000Y-121920000D02*
X77539315Y-121920000D01*
X77539315Y-121920000D02*
X78105000Y-121920000D01*
X65405000Y-115570000D02*
X71755000Y-121920000D01*
X71664990Y-120650000D02*
X76904315Y-120650000D01*
X76904315Y-120650000D02*
X77470000Y-120650000D01*
X64679990Y-113665000D02*
X71664990Y-120650000D01*
X71550998Y-119380000D02*
X76269315Y-119380000D01*
X63954980Y-111783982D02*
X71550998Y-119380000D01*
X76269315Y-119380000D02*
X76835000Y-119380000D01*
D27*
X71378000Y-118110000D02*
X76200000Y-118110000D01*
X69850000Y-115570000D02*
X69850000Y-116582000D01*
X69850000Y-116582000D02*
X71378000Y-118110000D01*
X131445000Y-80645000D02*
X120650000Y-80645000D01*
X120650000Y-80645000D02*
X119380000Y-79375000D01*
X76200000Y-88900000D02*
X87630000Y-88900000D01*
D25*
X73260001Y-92945002D02*
X73660000Y-93345001D01*
X69850000Y-89535001D02*
X73260001Y-92945002D01*
X69850000Y-88265000D02*
X69850000Y-89535001D01*
X72390000Y-86360000D02*
X71755000Y-86360000D01*
X71755000Y-86360000D02*
X69850000Y-88265000D01*
D26*
X124460000Y-83185000D02*
X124460000Y-85725000D01*
X124460000Y-85725000D02*
X124460000Y-87630000D01*
X136525000Y-85725000D02*
X124460000Y-85725000D01*
X137795000Y-87630000D02*
X137795000Y-86995000D01*
X137795000Y-86995000D02*
X136525000Y-85725000D01*
D28*
G36*
X82359296Y-78804571D02*
G01*
X82277616Y-79116108D01*
X82258282Y-79437595D01*
X82302039Y-79756675D01*
X82407205Y-80061088D01*
X82500186Y-80235044D01*
X82764587Y-80330808D01*
X83720395Y-79375000D01*
X83706253Y-79360858D01*
X83885858Y-79181253D01*
X83900000Y-79195395D01*
X83914143Y-79181253D01*
X84093748Y-79360858D01*
X84079605Y-79375000D01*
X85035413Y-80330808D01*
X85299814Y-80235044D01*
X85440704Y-79945429D01*
X85522384Y-79633892D01*
X85541718Y-79312405D01*
X85497961Y-78993325D01*
X85392795Y-78688912D01*
X85347943Y-78605000D01*
X87261928Y-78605000D01*
X87261928Y-80375000D01*
X87274188Y-80499482D01*
X87310498Y-80619180D01*
X87369463Y-80729494D01*
X87448815Y-80826185D01*
X87545506Y-80905537D01*
X87655820Y-80964502D01*
X87775518Y-81000812D01*
X87900000Y-81013072D01*
X88932941Y-81013072D01*
X89963009Y-82043141D01*
X89998551Y-82086449D01*
X90080420Y-82153637D01*
X90171377Y-82228284D01*
X90368553Y-82333676D01*
X90582501Y-82398577D01*
X90805000Y-82420491D01*
X90860752Y-82415000D01*
X93924249Y-82415000D01*
X93980000Y-82420491D01*
X94035751Y-82415000D01*
X94035752Y-82415000D01*
X94202499Y-82398577D01*
X94416447Y-82333676D01*
X94613623Y-82228284D01*
X94786449Y-82086449D01*
X94821996Y-82043135D01*
X95885000Y-80980132D01*
X98853013Y-83948146D01*
X98888551Y-83991449D01*
X98931854Y-84026987D01*
X98931856Y-84026989D01*
X99061377Y-84133284D01*
X99258553Y-84238676D01*
X99472501Y-84303577D01*
X99695000Y-84325491D01*
X99750752Y-84320000D01*
X118564116Y-84320000D01*
X118718273Y-84423005D01*
X118972510Y-84528314D01*
X119242408Y-84582000D01*
X119517592Y-84582000D01*
X119787490Y-84528314D01*
X120041727Y-84423005D01*
X120270535Y-84270120D01*
X120465120Y-84075535D01*
X120523920Y-83987535D01*
X120532188Y-84071482D01*
X120568498Y-84191180D01*
X120627463Y-84301494D01*
X120706815Y-84398185D01*
X120803506Y-84477537D01*
X120913820Y-84536502D01*
X121033518Y-84572812D01*
X121158000Y-84585072D01*
X121634250Y-84582000D01*
X121793000Y-84423250D01*
X121793000Y-83312000D01*
X121773000Y-83312000D01*
X121773000Y-83058000D01*
X121793000Y-83058000D01*
X121793000Y-81946750D01*
X121634250Y-81788000D01*
X121158000Y-81784928D01*
X121033518Y-81797188D01*
X120913820Y-81833498D01*
X120803506Y-81892463D01*
X120706815Y-81971815D01*
X120627463Y-82068506D01*
X120568498Y-82178820D01*
X120532188Y-82298518D01*
X120523920Y-82382465D01*
X120465120Y-82294465D01*
X120270535Y-82099880D01*
X120041727Y-81946995D01*
X119787490Y-81841686D01*
X119517592Y-81788000D01*
X119242408Y-81788000D01*
X118972510Y-81841686D01*
X118718273Y-81946995D01*
X118564116Y-82050000D01*
X113231362Y-82050000D01*
X113236996Y-82043135D01*
X114525647Y-80754485D01*
X114707490Y-80718314D01*
X114961727Y-80613005D01*
X115190535Y-80460120D01*
X115385120Y-80265535D01*
X115538005Y-80036727D01*
X115570000Y-79959485D01*
X115601995Y-80036727D01*
X115754880Y-80265535D01*
X115949465Y-80460120D01*
X116178273Y-80613005D01*
X116432510Y-80718314D01*
X116702408Y-80772000D01*
X116977592Y-80772000D01*
X117247490Y-80718314D01*
X117501727Y-80613005D01*
X117730535Y-80460120D01*
X117925120Y-80265535D01*
X118078005Y-80036727D01*
X118110000Y-79959485D01*
X118141995Y-80036727D01*
X118294880Y-80265535D01*
X118489465Y-80460120D01*
X118718273Y-80613005D01*
X118972510Y-80718314D01*
X119242408Y-80772000D01*
X119517592Y-80772000D01*
X119524122Y-80770701D01*
X119993470Y-81240049D01*
X120021183Y-81273817D01*
X120054951Y-81301530D01*
X120054953Y-81301532D01*
X120071214Y-81314877D01*
X120155941Y-81384411D01*
X120309687Y-81466589D01*
X120476510Y-81517195D01*
X120606523Y-81530000D01*
X120606533Y-81530000D01*
X120649999Y-81534281D01*
X120693465Y-81530000D01*
X130906546Y-81530000D01*
X130954744Y-81562205D01*
X131143102Y-81640226D01*
X131343061Y-81680000D01*
X131546939Y-81680000D01*
X131746898Y-81640226D01*
X131935256Y-81562205D01*
X132104774Y-81448937D01*
X132248937Y-81304774D01*
X132362205Y-81135256D01*
X132440226Y-80946898D01*
X132480000Y-80746939D01*
X132480000Y-80543061D01*
X132440226Y-80343102D01*
X132362205Y-80154744D01*
X132248937Y-79985226D01*
X132104774Y-79841063D01*
X131935256Y-79727795D01*
X131746898Y-79649774D01*
X131546939Y-79610000D01*
X131343061Y-79610000D01*
X131143102Y-79649774D01*
X130954744Y-79727795D01*
X130906546Y-79760000D01*
X128397640Y-79760000D01*
X128397000Y-79660750D01*
X128238250Y-79502000D01*
X127127000Y-79502000D01*
X127127000Y-79522000D01*
X126873000Y-79522000D01*
X126873000Y-79502000D01*
X126853000Y-79502000D01*
X126853000Y-79248000D01*
X126873000Y-79248000D01*
X126873000Y-79228000D01*
X127127000Y-79228000D01*
X127127000Y-79248000D01*
X128238250Y-79248000D01*
X128397000Y-79089250D01*
X128398769Y-78815000D01*
X140300272Y-78815000D01*
X140566446Y-78841098D01*
X140789081Y-78908315D01*
X140994419Y-79017495D01*
X141174639Y-79164479D01*
X141322877Y-79343668D01*
X141433489Y-79548240D01*
X141502258Y-79770397D01*
X141530000Y-80034344D01*
X141530001Y-81245113D01*
X141526565Y-81280000D01*
X141540273Y-81419184D01*
X141580872Y-81553020D01*
X141646800Y-81676363D01*
X141735525Y-81784475D01*
X141843637Y-81873200D01*
X141921840Y-81915000D01*
X141843637Y-81956800D01*
X141735525Y-82045525D01*
X141646800Y-82153637D01*
X141580872Y-82276980D01*
X141540273Y-82410816D01*
X141526565Y-82550000D01*
X141530000Y-82584877D01*
X141530001Y-86325113D01*
X141526565Y-86360000D01*
X141540273Y-86499184D01*
X141580872Y-86633020D01*
X141646800Y-86756363D01*
X141735525Y-86864475D01*
X141843637Y-86953200D01*
X141921840Y-86995000D01*
X141843637Y-87036800D01*
X141735525Y-87125525D01*
X141670806Y-87204385D01*
X141573005Y-86968273D01*
X141420120Y-86739465D01*
X141225535Y-86544880D01*
X140996727Y-86391995D01*
X140742490Y-86286686D01*
X140472592Y-86233000D01*
X140197408Y-86233000D01*
X139927510Y-86286686D01*
X139673273Y-86391995D01*
X139444465Y-86544880D01*
X139249880Y-86739465D01*
X139096995Y-86968273D01*
X139065000Y-87045515D01*
X139033005Y-86968273D01*
X138915545Y-86792482D01*
X138914737Y-86784275D01*
X138913577Y-86772500D01*
X138877098Y-86652247D01*
X138848676Y-86558553D01*
X138743284Y-86361377D01*
X138601449Y-86188551D01*
X138558140Y-86153008D01*
X137366996Y-84961865D01*
X137331449Y-84918551D01*
X137158623Y-84776716D01*
X136961447Y-84671324D01*
X136747499Y-84606423D01*
X136580752Y-84590000D01*
X136580751Y-84590000D01*
X136525000Y-84584509D01*
X136469249Y-84590000D01*
X125595000Y-84590000D01*
X125595000Y-84000884D01*
X125698005Y-83846727D01*
X125730000Y-83769485D01*
X125761995Y-83846727D01*
X125914880Y-84075535D01*
X126109465Y-84270120D01*
X126338273Y-84423005D01*
X126592510Y-84528314D01*
X126862408Y-84582000D01*
X127137592Y-84582000D01*
X127407490Y-84528314D01*
X127661727Y-84423005D01*
X127890535Y-84270120D01*
X128085120Y-84075535D01*
X128238005Y-83846727D01*
X128270000Y-83769485D01*
X128301995Y-83846727D01*
X128454880Y-84075535D01*
X128649465Y-84270120D01*
X128878273Y-84423005D01*
X129132510Y-84528314D01*
X129402408Y-84582000D01*
X129677592Y-84582000D01*
X129947490Y-84528314D01*
X130201727Y-84423005D01*
X130430535Y-84270120D01*
X130625120Y-84075535D01*
X130778005Y-83846727D01*
X130883314Y-83592490D01*
X130937000Y-83322592D01*
X130937000Y-83047408D01*
X130883314Y-82777510D01*
X130778005Y-82523273D01*
X130625120Y-82294465D01*
X130430535Y-82099880D01*
X130201727Y-81946995D01*
X130199654Y-81946136D01*
X136200217Y-81946136D01*
X136248731Y-82378643D01*
X136380328Y-82793490D01*
X136589997Y-83174876D01*
X136869751Y-83508274D01*
X137208934Y-83780984D01*
X137594627Y-83982620D01*
X138012140Y-84105501D01*
X138445568Y-84144946D01*
X138878404Y-84099453D01*
X139294160Y-83970755D01*
X139677000Y-83763754D01*
X140012343Y-83486334D01*
X140287414Y-83149063D01*
X140491738Y-82764787D01*
X140617530Y-82348143D01*
X140660000Y-81915000D01*
X140659131Y-81852735D01*
X140604583Y-81420947D01*
X140467206Y-81007977D01*
X140252233Y-80629556D01*
X139967852Y-80300097D01*
X139624894Y-80032149D01*
X139236423Y-79835918D01*
X138817235Y-79718879D01*
X138383298Y-79685489D01*
X137951140Y-79737021D01*
X137537222Y-79871511D01*
X137157309Y-80083837D01*
X136825872Y-80365912D01*
X136555536Y-80706991D01*
X136356598Y-81094082D01*
X136236636Y-81512442D01*
X136200217Y-81946136D01*
X130199654Y-81946136D01*
X129947490Y-81841686D01*
X129677592Y-81788000D01*
X129402408Y-81788000D01*
X129132510Y-81841686D01*
X128878273Y-81946995D01*
X128649465Y-82099880D01*
X128454880Y-82294465D01*
X128301995Y-82523273D01*
X128270000Y-82600515D01*
X128238005Y-82523273D01*
X128085120Y-82294465D01*
X127890535Y-82099880D01*
X127661727Y-81946995D01*
X127407490Y-81841686D01*
X127137592Y-81788000D01*
X126862408Y-81788000D01*
X126592510Y-81841686D01*
X126338273Y-81946995D01*
X126109465Y-82099880D01*
X125914880Y-82294465D01*
X125761995Y-82523273D01*
X125730000Y-82600515D01*
X125698005Y-82523273D01*
X125545120Y-82294465D01*
X125350535Y-82099880D01*
X125121727Y-81946995D01*
X124867490Y-81841686D01*
X124597592Y-81788000D01*
X124322408Y-81788000D01*
X124052510Y-81841686D01*
X123798273Y-81946995D01*
X123569465Y-82099880D01*
X123374880Y-82294465D01*
X123316080Y-82382465D01*
X123307812Y-82298518D01*
X123271502Y-82178820D01*
X123212537Y-82068506D01*
X123133185Y-81971815D01*
X123036494Y-81892463D01*
X122926180Y-81833498D01*
X122806482Y-81797188D01*
X122682000Y-81784928D01*
X122205750Y-81788000D01*
X122047000Y-81946750D01*
X122047000Y-83058000D01*
X122067000Y-83058000D01*
X122067000Y-83312000D01*
X122047000Y-83312000D01*
X122047000Y-84423250D01*
X122205750Y-84582000D01*
X122682000Y-84585072D01*
X122806482Y-84572812D01*
X122926180Y-84536502D01*
X123036494Y-84477537D01*
X123133185Y-84398185D01*
X123212537Y-84301494D01*
X123271502Y-84191180D01*
X123307812Y-84071482D01*
X123316080Y-83987535D01*
X123325000Y-84000885D01*
X123325001Y-85669239D01*
X123319509Y-85725000D01*
X123325000Y-85780752D01*
X123325000Y-86672182D01*
X123219294Y-86800986D01*
X123081401Y-87058966D01*
X122996487Y-87338889D01*
X122967815Y-87630000D01*
X122996487Y-87921111D01*
X123081401Y-88201034D01*
X123219294Y-88459014D01*
X123404866Y-88685134D01*
X123630986Y-88870706D01*
X123888966Y-89008599D01*
X124168889Y-89093513D01*
X124387050Y-89115000D01*
X124532950Y-89115000D01*
X124751111Y-89093513D01*
X125031034Y-89008599D01*
X125289014Y-88870706D01*
X125515134Y-88685134D01*
X125539607Y-88655313D01*
X125560498Y-88724180D01*
X125619463Y-88834494D01*
X125698815Y-88931185D01*
X125795506Y-89010537D01*
X125905820Y-89069502D01*
X126025518Y-89105812D01*
X126150000Y-89118072D01*
X126714250Y-89115000D01*
X126873000Y-88956250D01*
X126873000Y-87757000D01*
X127127000Y-87757000D01*
X127127000Y-88956250D01*
X127285750Y-89115000D01*
X127850000Y-89118072D01*
X127974482Y-89105812D01*
X128094180Y-89069502D01*
X128204494Y-89010537D01*
X128301185Y-88931185D01*
X128380537Y-88834494D01*
X128439502Y-88724180D01*
X128475812Y-88604482D01*
X128488072Y-88480000D01*
X128485000Y-87915750D01*
X128326250Y-87757000D01*
X127127000Y-87757000D01*
X126873000Y-87757000D01*
X126853000Y-87757000D01*
X126853000Y-87503000D01*
X126873000Y-87503000D01*
X126873000Y-87483000D01*
X127127000Y-87483000D01*
X127127000Y-87503000D01*
X128326250Y-87503000D01*
X128485000Y-87344250D01*
X128487636Y-86860000D01*
X131549341Y-86860000D01*
X131476995Y-86968273D01*
X131371686Y-87222510D01*
X131318000Y-87492408D01*
X131318000Y-87767592D01*
X131371686Y-88037490D01*
X131476995Y-88291727D01*
X131629880Y-88520535D01*
X131824465Y-88715120D01*
X132053273Y-88868005D01*
X132307510Y-88973314D01*
X132577408Y-89027000D01*
X132852592Y-89027000D01*
X133122490Y-88973314D01*
X133376727Y-88868005D01*
X133605535Y-88715120D01*
X133800120Y-88520535D01*
X133858920Y-88432535D01*
X133867188Y-88516482D01*
X133903498Y-88636180D01*
X133962463Y-88746494D01*
X134041815Y-88843185D01*
X134138506Y-88922537D01*
X134248820Y-88981502D01*
X134368518Y-89017812D01*
X134493000Y-89030072D01*
X134969250Y-89027000D01*
X135128000Y-88868250D01*
X135128000Y-87757000D01*
X135108000Y-87757000D01*
X135108000Y-87503000D01*
X135128000Y-87503000D01*
X135128000Y-87483000D01*
X135382000Y-87483000D01*
X135382000Y-87503000D01*
X135402000Y-87503000D01*
X135402000Y-87757000D01*
X135382000Y-87757000D01*
X135382000Y-88868250D01*
X135540750Y-89027000D01*
X136017000Y-89030072D01*
X136141482Y-89017812D01*
X136261180Y-88981502D01*
X136371494Y-88922537D01*
X136468185Y-88843185D01*
X136547537Y-88746494D01*
X136606502Y-88636180D01*
X136642812Y-88516482D01*
X136651080Y-88432535D01*
X136709880Y-88520535D01*
X136904465Y-88715120D01*
X137133273Y-88868005D01*
X137387510Y-88973314D01*
X137657408Y-89027000D01*
X137932592Y-89027000D01*
X138202490Y-88973314D01*
X138456727Y-88868005D01*
X138685535Y-88715120D01*
X138880120Y-88520535D01*
X139033005Y-88291727D01*
X139065000Y-88214485D01*
X139096995Y-88291727D01*
X139249880Y-88520535D01*
X139444465Y-88715120D01*
X139673273Y-88868005D01*
X139927510Y-88973314D01*
X140197408Y-89027000D01*
X140472592Y-89027000D01*
X140742490Y-88973314D01*
X140996727Y-88868005D01*
X141225535Y-88715120D01*
X141420120Y-88520535D01*
X141530000Y-88356088D01*
X141530001Y-113630113D01*
X141526565Y-113665000D01*
X141540273Y-113804184D01*
X141580872Y-113938020D01*
X141646800Y-114061363D01*
X141735525Y-114169475D01*
X141843637Y-114258200D01*
X141921840Y-114300000D01*
X141843637Y-114341800D01*
X141735525Y-114430525D01*
X141646800Y-114538637D01*
X141580872Y-114661980D01*
X141540273Y-114795816D01*
X141526565Y-114935000D01*
X141530000Y-114969877D01*
X141530001Y-118710113D01*
X141526565Y-118745000D01*
X141540273Y-118884184D01*
X141580872Y-119018020D01*
X141646800Y-119141363D01*
X141735525Y-119249475D01*
X141843637Y-119338200D01*
X141921840Y-119380000D01*
X141843637Y-119421800D01*
X141735525Y-119510525D01*
X141646800Y-119618637D01*
X141580872Y-119741980D01*
X141540273Y-119875816D01*
X141526565Y-120015000D01*
X141530001Y-120049887D01*
X141530000Y-138395271D01*
X141503901Y-138661449D01*
X141436684Y-138884084D01*
X141327506Y-139089417D01*
X141180522Y-139269637D01*
X141001333Y-139417876D01*
X140796761Y-139528488D01*
X140574606Y-139597257D01*
X140310655Y-139625000D01*
X135330000Y-139625000D01*
X135330000Y-127034877D01*
X135333435Y-127000000D01*
X135319727Y-126860816D01*
X135279128Y-126726980D01*
X135213200Y-126603637D01*
X135124475Y-126495525D01*
X135016363Y-126406800D01*
X134893020Y-126340872D01*
X134759184Y-126300273D01*
X134654877Y-126290000D01*
X134620000Y-126286565D01*
X134585123Y-126290000D01*
X127034877Y-126290000D01*
X127000000Y-126286565D01*
X126965123Y-126290000D01*
X126860816Y-126300273D01*
X126726980Y-126340872D01*
X126603637Y-126406800D01*
X126495525Y-126495525D01*
X126406800Y-126603637D01*
X126340872Y-126726980D01*
X126300273Y-126860816D01*
X126286565Y-127000000D01*
X126290000Y-127034877D01*
X126290001Y-139625000D01*
X64210000Y-139625000D01*
X64210000Y-127034877D01*
X64213435Y-127000000D01*
X64199727Y-126860816D01*
X64159128Y-126726980D01*
X64093200Y-126603637D01*
X64004475Y-126495525D01*
X63896363Y-126406800D01*
X63773020Y-126340872D01*
X63639184Y-126300273D01*
X63534877Y-126290000D01*
X63500000Y-126286565D01*
X63465123Y-126290000D01*
X55914877Y-126290000D01*
X55880000Y-126286565D01*
X55845123Y-126290000D01*
X55740816Y-126300273D01*
X55606980Y-126340872D01*
X55483637Y-126406800D01*
X55375525Y-126495525D01*
X55286800Y-126603637D01*
X55220872Y-126726980D01*
X55180273Y-126860816D01*
X55166565Y-127000000D01*
X55170001Y-127034887D01*
X55170000Y-139625000D01*
X50199729Y-139625000D01*
X49933551Y-139598901D01*
X49710916Y-139531684D01*
X49505583Y-139422506D01*
X49325363Y-139275522D01*
X49177124Y-139096333D01*
X49066512Y-138891761D01*
X48997743Y-138669606D01*
X48970000Y-138405655D01*
X48970000Y-119411136D01*
X49840217Y-119411136D01*
X49888731Y-119843643D01*
X50020328Y-120258490D01*
X50229997Y-120639876D01*
X50509751Y-120973274D01*
X50848934Y-121245984D01*
X51234627Y-121447620D01*
X51652140Y-121570501D01*
X52085568Y-121609946D01*
X52518404Y-121564453D01*
X52934160Y-121435755D01*
X53317000Y-121228754D01*
X53652343Y-120951334D01*
X53927414Y-120614063D01*
X54131738Y-120229787D01*
X54257530Y-119813143D01*
X54300000Y-119380000D01*
X54299131Y-119317735D01*
X54244583Y-118885947D01*
X54107206Y-118472977D01*
X53892233Y-118094556D01*
X53607852Y-117765097D01*
X53264894Y-117497149D01*
X52876423Y-117300918D01*
X52457235Y-117183879D01*
X52023298Y-117150489D01*
X51591140Y-117202021D01*
X51177222Y-117336511D01*
X50797309Y-117548837D01*
X50465872Y-117830912D01*
X50195536Y-118171991D01*
X49996598Y-118559082D01*
X49876636Y-118977442D01*
X49840217Y-119411136D01*
X48970000Y-119411136D01*
X48970000Y-112835534D01*
X48998088Y-112847168D01*
X49313967Y-112910000D01*
X49636033Y-112910000D01*
X49951912Y-112847168D01*
X50249463Y-112723918D01*
X50517252Y-112544987D01*
X50744987Y-112317252D01*
X50923918Y-112049463D01*
X51047168Y-111751912D01*
X51110000Y-111436033D01*
X51110000Y-111113967D01*
X51047168Y-110798088D01*
X50923918Y-110500537D01*
X50744987Y-110232748D01*
X50517252Y-110005013D01*
X50249463Y-109826082D01*
X49951912Y-109702832D01*
X49636033Y-109640000D01*
X49313967Y-109640000D01*
X48998088Y-109702832D01*
X48970000Y-109714466D01*
X48970000Y-106335534D01*
X48998088Y-106347168D01*
X49313967Y-106410000D01*
X49636033Y-106410000D01*
X49951912Y-106347168D01*
X50249463Y-106223918D01*
X50517252Y-106044987D01*
X50744987Y-105817252D01*
X50923918Y-105549463D01*
X51047168Y-105251912D01*
X51110000Y-104936033D01*
X51110000Y-104613967D01*
X51047168Y-104298088D01*
X50923918Y-104000537D01*
X50744987Y-103732748D01*
X50517252Y-103505013D01*
X50249463Y-103326082D01*
X49951912Y-103202832D01*
X49636033Y-103140000D01*
X49313967Y-103140000D01*
X48998088Y-103202832D01*
X48970000Y-103214466D01*
X48970000Y-89892702D01*
X51256903Y-89892702D01*
X51328486Y-90136671D01*
X51583996Y-90257571D01*
X51858184Y-90326300D01*
X52140512Y-90340217D01*
X52420130Y-90298787D01*
X52686292Y-90203603D01*
X52811514Y-90136671D01*
X52883097Y-89892702D01*
X52070000Y-89079605D01*
X51256903Y-89892702D01*
X48970000Y-89892702D01*
X48970000Y-88970512D01*
X50629783Y-88970512D01*
X50671213Y-89250130D01*
X50766397Y-89516292D01*
X50833329Y-89641514D01*
X51077298Y-89713097D01*
X51890395Y-88900000D01*
X51077298Y-88086903D01*
X50833329Y-88158486D01*
X50712429Y-88413996D01*
X50643700Y-88688184D01*
X50629783Y-88970512D01*
X48970000Y-88970512D01*
X48970000Y-81946136D01*
X49840217Y-81946136D01*
X49888731Y-82378643D01*
X50020328Y-82793490D01*
X50229997Y-83174876D01*
X50509751Y-83508274D01*
X50848934Y-83780984D01*
X51234627Y-83982620D01*
X51652140Y-84105501D01*
X52085568Y-84144946D01*
X52518404Y-84099453D01*
X52934160Y-83970755D01*
X53317000Y-83763754D01*
X53652343Y-83486334D01*
X53927414Y-83149063D01*
X54131738Y-82764787D01*
X54257530Y-82348143D01*
X54300000Y-81915000D01*
X54299131Y-81852735D01*
X54244583Y-81420947D01*
X54107206Y-81007977D01*
X53892233Y-80629556D01*
X53607852Y-80300097D01*
X53264894Y-80032149D01*
X52876423Y-79835918D01*
X52457235Y-79718879D01*
X52023298Y-79685489D01*
X51591140Y-79737021D01*
X51177222Y-79871511D01*
X50797309Y-80083837D01*
X50465872Y-80365912D01*
X50195536Y-80706991D01*
X49996598Y-81094082D01*
X49876636Y-81512442D01*
X49840217Y-81946136D01*
X48970000Y-81946136D01*
X48970000Y-80044728D01*
X48996098Y-79778554D01*
X49063315Y-79555919D01*
X49172495Y-79350581D01*
X49319479Y-79170361D01*
X49498668Y-79022123D01*
X49703240Y-78911511D01*
X49925397Y-78842742D01*
X50189344Y-78815000D01*
X62195123Y-78815000D01*
X62218889Y-78817341D01*
X62156686Y-78967510D01*
X62103000Y-79237408D01*
X62103000Y-79512592D01*
X62156686Y-79782490D01*
X62261995Y-80036727D01*
X62414880Y-80265535D01*
X62609465Y-80460120D01*
X62838273Y-80613005D01*
X63092510Y-80718314D01*
X63362408Y-80772000D01*
X63637592Y-80772000D01*
X63907490Y-80718314D01*
X64161727Y-80613005D01*
X64390535Y-80460120D01*
X64585120Y-80265535D01*
X64738005Y-80036727D01*
X64770000Y-79959485D01*
X64801995Y-80036727D01*
X64954880Y-80265535D01*
X65149465Y-80460120D01*
X65378273Y-80613005D01*
X65632510Y-80718314D01*
X65902408Y-80772000D01*
X66177592Y-80772000D01*
X66447490Y-80718314D01*
X66701727Y-80613005D01*
X66930535Y-80460120D01*
X67125120Y-80265535D01*
X67278005Y-80036727D01*
X67310000Y-79959485D01*
X67341995Y-80036727D01*
X67494880Y-80265535D01*
X67689465Y-80460120D01*
X67918273Y-80613005D01*
X68172510Y-80718314D01*
X68442408Y-80772000D01*
X68717592Y-80772000D01*
X68987490Y-80718314D01*
X69241727Y-80613005D01*
X69470535Y-80460120D01*
X69665120Y-80265535D01*
X69818005Y-80036727D01*
X69850000Y-79959485D01*
X69881995Y-80036727D01*
X70034880Y-80265535D01*
X70229465Y-80460120D01*
X70458273Y-80613005D01*
X70712510Y-80718314D01*
X70982408Y-80772000D01*
X71257592Y-80772000D01*
X71411570Y-80741372D01*
X71826200Y-81156002D01*
X71849999Y-81185001D01*
X71965724Y-81279974D01*
X72097753Y-81350546D01*
X72241014Y-81394003D01*
X72352667Y-81405000D01*
X72352676Y-81405000D01*
X72389999Y-81408676D01*
X72427322Y-81405000D01*
X75885199Y-81405000D01*
X76710001Y-82229803D01*
X76710000Y-85139099D01*
X76668899Y-85161068D01*
X76450392Y-85340392D01*
X76271068Y-85558899D01*
X76200000Y-85691858D01*
X76128932Y-85558899D01*
X75949608Y-85340392D01*
X75731101Y-85161068D01*
X75481808Y-85027818D01*
X75211309Y-84945764D01*
X75000492Y-84925000D01*
X74859508Y-84925000D01*
X74648691Y-84945764D01*
X74378192Y-85027818D01*
X74128899Y-85161068D01*
X73910392Y-85340392D01*
X73731068Y-85558899D01*
X73660000Y-85691858D01*
X73588932Y-85558899D01*
X73409608Y-85340392D01*
X73191101Y-85161068D01*
X72941808Y-85027818D01*
X72671309Y-84945764D01*
X72460492Y-84925000D01*
X72319508Y-84925000D01*
X72108691Y-84945764D01*
X71838192Y-85027818D01*
X71588899Y-85161068D01*
X71370392Y-85340392D01*
X71191068Y-85558899D01*
X71120000Y-85691858D01*
X71048932Y-85558899D01*
X70869608Y-85340392D01*
X70651101Y-85161068D01*
X70401808Y-85027818D01*
X70131309Y-84945764D01*
X69920492Y-84925000D01*
X69779508Y-84925000D01*
X69568691Y-84945764D01*
X69298192Y-85027818D01*
X69048899Y-85161068D01*
X68830392Y-85340392D01*
X68651068Y-85558899D01*
X68580000Y-85691858D01*
X68508932Y-85558899D01*
X68329608Y-85340392D01*
X68111101Y-85161068D01*
X67861808Y-85027818D01*
X67591309Y-84945764D01*
X67380492Y-84925000D01*
X67239508Y-84925000D01*
X67028691Y-84945764D01*
X66758192Y-85027818D01*
X66508899Y-85161068D01*
X66290392Y-85340392D01*
X66111068Y-85558899D01*
X66040000Y-85691858D01*
X65968932Y-85558899D01*
X65789608Y-85340392D01*
X65571101Y-85161068D01*
X65321808Y-85027818D01*
X65051309Y-84945764D01*
X64840492Y-84925000D01*
X64699508Y-84925000D01*
X64488691Y-84945764D01*
X64218192Y-85027818D01*
X63968899Y-85161068D01*
X63750392Y-85340392D01*
X63571068Y-85558899D01*
X63500000Y-85691858D01*
X63428932Y-85558899D01*
X63249608Y-85340392D01*
X63031101Y-85161068D01*
X62781808Y-85027818D01*
X62511309Y-84945764D01*
X62300492Y-84925000D01*
X62159508Y-84925000D01*
X61948691Y-84945764D01*
X61678192Y-85027818D01*
X61428899Y-85161068D01*
X61210392Y-85340392D01*
X61031068Y-85558899D01*
X60960000Y-85691858D01*
X60888932Y-85558899D01*
X60709608Y-85340392D01*
X60491101Y-85161068D01*
X60241808Y-85027818D01*
X59971309Y-84945764D01*
X59760492Y-84925000D01*
X59619508Y-84925000D01*
X59408691Y-84945764D01*
X59138192Y-85027818D01*
X58888899Y-85161068D01*
X58670392Y-85340392D01*
X58491068Y-85558899D01*
X58420000Y-85691858D01*
X58348932Y-85558899D01*
X58169608Y-85340392D01*
X57951101Y-85161068D01*
X57701808Y-85027818D01*
X57431309Y-84945764D01*
X57220492Y-84925000D01*
X57079508Y-84925000D01*
X56868691Y-84945764D01*
X56598192Y-85027818D01*
X56348899Y-85161068D01*
X56130392Y-85340392D01*
X55951068Y-85558899D01*
X55880000Y-85691858D01*
X55808932Y-85558899D01*
X55629608Y-85340392D01*
X55411101Y-85161068D01*
X55161808Y-85027818D01*
X54891309Y-84945764D01*
X54680492Y-84925000D01*
X54539508Y-84925000D01*
X54328691Y-84945764D01*
X54058192Y-85027818D01*
X53808899Y-85161068D01*
X53590392Y-85340392D01*
X53411068Y-85558899D01*
X53340000Y-85691858D01*
X53268932Y-85558899D01*
X53089608Y-85340392D01*
X52871101Y-85161068D01*
X52621808Y-85027818D01*
X52351309Y-84945764D01*
X52140492Y-84925000D01*
X51999508Y-84925000D01*
X51788691Y-84945764D01*
X51518192Y-85027818D01*
X51268899Y-85161068D01*
X51050392Y-85340392D01*
X50871068Y-85558899D01*
X50737818Y-85808192D01*
X50655764Y-86078691D01*
X50628057Y-86360000D01*
X50655764Y-86641309D01*
X50737818Y-86911808D01*
X50871068Y-87161101D01*
X51050392Y-87379608D01*
X51268899Y-87558932D01*
X51396349Y-87627056D01*
X51328486Y-87663329D01*
X51256903Y-87907298D01*
X52070000Y-88720395D01*
X52084143Y-88706253D01*
X52263748Y-88885858D01*
X52249605Y-88900000D01*
X53062702Y-89713097D01*
X53306671Y-89641514D01*
X53427571Y-89386004D01*
X53496300Y-89111816D01*
X53508078Y-88872880D01*
X54681200Y-90046002D01*
X54704999Y-90075001D01*
X54733997Y-90098799D01*
X54820724Y-90169974D01*
X54952753Y-90240546D01*
X55096014Y-90284003D01*
X55245000Y-90298677D01*
X55282333Y-90295000D01*
X63185199Y-90295000D01*
X72460198Y-99570000D01*
X61632333Y-99570000D01*
X61595000Y-99566323D01*
X61557667Y-99570000D01*
X61446014Y-99580997D01*
X61302753Y-99624454D01*
X61170724Y-99695026D01*
X61054999Y-99789999D01*
X61031200Y-99818998D01*
X60463750Y-100386449D01*
X60241808Y-100267818D01*
X59971309Y-100185764D01*
X59760492Y-100165000D01*
X59619508Y-100165000D01*
X59408691Y-100185764D01*
X59138192Y-100267818D01*
X58888899Y-100401068D01*
X58670392Y-100580392D01*
X58491068Y-100798899D01*
X58420000Y-100931858D01*
X58348932Y-100798899D01*
X58169608Y-100580392D01*
X57951101Y-100401068D01*
X57701808Y-100267818D01*
X57431309Y-100185764D01*
X57220492Y-100165000D01*
X57079508Y-100165000D01*
X56868691Y-100185764D01*
X56598192Y-100267818D01*
X56348899Y-100401068D01*
X56130392Y-100580392D01*
X55951068Y-100798899D01*
X55880000Y-100931858D01*
X55808932Y-100798899D01*
X55629608Y-100580392D01*
X55411101Y-100401068D01*
X55161808Y-100267818D01*
X54891309Y-100185764D01*
X54680492Y-100165000D01*
X54539508Y-100165000D01*
X54328691Y-100185764D01*
X54058192Y-100267818D01*
X53808899Y-100401068D01*
X53590392Y-100580392D01*
X53411068Y-100798899D01*
X53340000Y-100931858D01*
X53268932Y-100798899D01*
X53089608Y-100580392D01*
X52871101Y-100401068D01*
X52738142Y-100330000D01*
X52871101Y-100258932D01*
X53089608Y-100079608D01*
X53268932Y-99861101D01*
X53402182Y-99611808D01*
X53484236Y-99341309D01*
X53511943Y-99060000D01*
X53484236Y-98778691D01*
X53402182Y-98508192D01*
X53268932Y-98258899D01*
X53089608Y-98040392D01*
X52871101Y-97861068D01*
X52621808Y-97727818D01*
X52351309Y-97645764D01*
X52140492Y-97625000D01*
X51999508Y-97625000D01*
X51788691Y-97645764D01*
X51518192Y-97727818D01*
X51268899Y-97861068D01*
X51050392Y-98040392D01*
X50871068Y-98258899D01*
X50737818Y-98508192D01*
X50655764Y-98778691D01*
X50628057Y-99060000D01*
X50655764Y-99341309D01*
X50737818Y-99611808D01*
X50871068Y-99861101D01*
X51050392Y-100079608D01*
X51268899Y-100258932D01*
X51401858Y-100330000D01*
X51268899Y-100401068D01*
X51050392Y-100580392D01*
X50871068Y-100798899D01*
X50737818Y-101048192D01*
X50655764Y-101318691D01*
X50628057Y-101600000D01*
X50655764Y-101881309D01*
X50737818Y-102151808D01*
X50871068Y-102401101D01*
X51050392Y-102619608D01*
X51268899Y-102798932D01*
X51310000Y-102820901D01*
X51310001Y-112992668D01*
X51306324Y-113030000D01*
X51310001Y-113067332D01*
X51310001Y-113067333D01*
X51320245Y-113171335D01*
X51320998Y-113178985D01*
X51364454Y-113322246D01*
X51435026Y-113454276D01*
X51493738Y-113525816D01*
X51530000Y-113570001D01*
X51558998Y-113593799D01*
X66111201Y-128146003D01*
X66134999Y-128175001D01*
X66163997Y-128198799D01*
X66250723Y-128269974D01*
X66382753Y-128340546D01*
X66526014Y-128384003D01*
X66637667Y-128395000D01*
X66637676Y-128395000D01*
X66674999Y-128398676D01*
X66712322Y-128395000D01*
X106007678Y-128395000D01*
X106045000Y-128398676D01*
X106082322Y-128395000D01*
X106082333Y-128395000D01*
X106193986Y-128384003D01*
X106337247Y-128340546D01*
X106469276Y-128269974D01*
X106585001Y-128175001D01*
X106608804Y-128145997D01*
X115343666Y-119411136D01*
X136200217Y-119411136D01*
X136248731Y-119843643D01*
X136380328Y-120258490D01*
X136589997Y-120639876D01*
X136869751Y-120973274D01*
X137208934Y-121245984D01*
X137594627Y-121447620D01*
X138012140Y-121570501D01*
X138445568Y-121609946D01*
X138878404Y-121564453D01*
X139294160Y-121435755D01*
X139677000Y-121228754D01*
X140012343Y-120951334D01*
X140287414Y-120614063D01*
X140491738Y-120229787D01*
X140617530Y-119813143D01*
X140660000Y-119380000D01*
X140659131Y-119317735D01*
X140604583Y-118885947D01*
X140467206Y-118472977D01*
X140252233Y-118094556D01*
X139967852Y-117765097D01*
X139624894Y-117497149D01*
X139236423Y-117300918D01*
X138817235Y-117183879D01*
X138383298Y-117150489D01*
X137951140Y-117202021D01*
X137537222Y-117336511D01*
X137157309Y-117548837D01*
X136825872Y-117830912D01*
X136555536Y-118171991D01*
X136356598Y-118559082D01*
X136236636Y-118977442D01*
X136200217Y-119411136D01*
X115343666Y-119411136D01*
X117154803Y-117600000D01*
X119977678Y-117600000D01*
X120015000Y-117603676D01*
X120052322Y-117600000D01*
X120052333Y-117600000D01*
X120163986Y-117589003D01*
X120307247Y-117545546D01*
X120439276Y-117474974D01*
X120555001Y-117380001D01*
X120578803Y-117350998D01*
X121006307Y-116923495D01*
X121057490Y-116913314D01*
X121311727Y-116808005D01*
X121540535Y-116655120D01*
X121735120Y-116460535D01*
X121888005Y-116231727D01*
X121993314Y-115977490D01*
X122047000Y-115707592D01*
X122047000Y-115432408D01*
X121993314Y-115162510D01*
X121950853Y-115060000D01*
X124145199Y-115060000D01*
X125166200Y-116081002D01*
X125189999Y-116110001D01*
X125305724Y-116204974D01*
X125437753Y-116275546D01*
X125581014Y-116319003D01*
X125692667Y-116330000D01*
X125692676Y-116330000D01*
X125729999Y-116333676D01*
X125767322Y-116330000D01*
X127097659Y-116330000D01*
X127184880Y-116460535D01*
X127379465Y-116655120D01*
X127608273Y-116808005D01*
X127862510Y-116913314D01*
X128132408Y-116967000D01*
X128407592Y-116967000D01*
X128677490Y-116913314D01*
X128931727Y-116808005D01*
X129160535Y-116655120D01*
X129355120Y-116460535D01*
X129508005Y-116231727D01*
X129540000Y-116154485D01*
X129571995Y-116231727D01*
X129724880Y-116460535D01*
X129919465Y-116655120D01*
X130148273Y-116808005D01*
X130402510Y-116913314D01*
X130672408Y-116967000D01*
X130947592Y-116967000D01*
X131217490Y-116913314D01*
X131471727Y-116808005D01*
X131700535Y-116655120D01*
X131895120Y-116460535D01*
X131953920Y-116372535D01*
X131962188Y-116456482D01*
X131998498Y-116576180D01*
X132057463Y-116686494D01*
X132136815Y-116783185D01*
X132233506Y-116862537D01*
X132343820Y-116921502D01*
X132463518Y-116957812D01*
X132588000Y-116970072D01*
X133064250Y-116967000D01*
X133223000Y-116808250D01*
X133223000Y-115697000D01*
X133477000Y-115697000D01*
X133477000Y-116808250D01*
X133635750Y-116967000D01*
X134112000Y-116970072D01*
X134236482Y-116957812D01*
X134356180Y-116921502D01*
X134466494Y-116862537D01*
X134563185Y-116783185D01*
X134642537Y-116686494D01*
X134701502Y-116576180D01*
X134737812Y-116456482D01*
X134750072Y-116332000D01*
X134747000Y-115855750D01*
X134588250Y-115697000D01*
X133477000Y-115697000D01*
X133223000Y-115697000D01*
X133203000Y-115697000D01*
X133203000Y-115443000D01*
X133223000Y-115443000D01*
X133223000Y-114331750D01*
X133477000Y-114331750D01*
X133477000Y-115443000D01*
X134588250Y-115443000D01*
X134747000Y-115284250D01*
X134750072Y-114808000D01*
X134737812Y-114683518D01*
X134701502Y-114563820D01*
X134642537Y-114453506D01*
X134563185Y-114356815D01*
X134466494Y-114277463D01*
X134356180Y-114218498D01*
X134236482Y-114182188D01*
X134112000Y-114169928D01*
X133635750Y-114173000D01*
X133477000Y-114331750D01*
X133223000Y-114331750D01*
X133064250Y-114173000D01*
X132588000Y-114169928D01*
X132463518Y-114182188D01*
X132343820Y-114218498D01*
X132233506Y-114277463D01*
X132136815Y-114356815D01*
X132057463Y-114453506D01*
X131998498Y-114563820D01*
X131962188Y-114683518D01*
X131953920Y-114767465D01*
X131895120Y-114679465D01*
X131700535Y-114484880D01*
X131471727Y-114331995D01*
X131217490Y-114226686D01*
X130947592Y-114173000D01*
X130672408Y-114173000D01*
X130402510Y-114226686D01*
X130148273Y-114331995D01*
X129919465Y-114484880D01*
X129724880Y-114679465D01*
X129571995Y-114908273D01*
X129540000Y-114985515D01*
X129508005Y-114908273D01*
X129355120Y-114679465D01*
X129160535Y-114484880D01*
X128931727Y-114331995D01*
X128677490Y-114226686D01*
X128407592Y-114173000D01*
X128132408Y-114173000D01*
X127862510Y-114226686D01*
X127608273Y-114331995D01*
X127379465Y-114484880D01*
X127184880Y-114679465D01*
X127097659Y-114810000D01*
X126044802Y-114810000D01*
X125023804Y-113789003D01*
X125000001Y-113759999D01*
X124884276Y-113665026D01*
X124752247Y-113594454D01*
X124608986Y-113550997D01*
X124497333Y-113540000D01*
X124497322Y-113540000D01*
X124460000Y-113536324D01*
X124422678Y-113540000D01*
X101674864Y-113540000D01*
X101744236Y-113311309D01*
X101771943Y-113030000D01*
X101744236Y-112748691D01*
X101662182Y-112478192D01*
X101528932Y-112228899D01*
X101349608Y-112010392D01*
X101131101Y-111831068D01*
X100881808Y-111697818D01*
X100611309Y-111615764D01*
X100400492Y-111595000D01*
X100259508Y-111595000D01*
X100048691Y-111615764D01*
X99778192Y-111697818D01*
X99528899Y-111831068D01*
X99310392Y-112010392D01*
X99131068Y-112228899D01*
X98997818Y-112478192D01*
X98915764Y-112748691D01*
X98888057Y-113030000D01*
X98915764Y-113311309D01*
X98985136Y-113540000D01*
X91511983Y-113540000D01*
X91549853Y-113448574D01*
X91605000Y-113171335D01*
X91605000Y-112888665D01*
X91549853Y-112611426D01*
X91441680Y-112350273D01*
X91284637Y-112115241D01*
X91084759Y-111915363D01*
X90849727Y-111758320D01*
X90588574Y-111650147D01*
X90311335Y-111595000D01*
X90028665Y-111595000D01*
X89751426Y-111650147D01*
X89490273Y-111758320D01*
X89255241Y-111915363D01*
X89055363Y-112115241D01*
X88898320Y-112350273D01*
X88790147Y-112611426D01*
X88735000Y-112888665D01*
X88735000Y-113171335D01*
X88790147Y-113448574D01*
X88828017Y-113540000D01*
X87137338Y-113540000D01*
X87164502Y-113489180D01*
X87200812Y-113369482D01*
X87213072Y-113245000D01*
X87210000Y-112680750D01*
X87051250Y-112522000D01*
X85852000Y-112522000D01*
X85852000Y-112542000D01*
X85598000Y-112542000D01*
X85598000Y-112522000D01*
X84398750Y-112522000D01*
X84240000Y-112680750D01*
X84236928Y-113245000D01*
X84249188Y-113369482D01*
X84285498Y-113489180D01*
X84312662Y-113540000D01*
X82864802Y-113540000D01*
X82478803Y-113154002D01*
X82455001Y-113124999D01*
X82339276Y-113030026D01*
X82207247Y-112959454D01*
X82063986Y-112915997D01*
X81952333Y-112905000D01*
X81952322Y-112905000D01*
X81915000Y-112901324D01*
X81877678Y-112905000D01*
X78419802Y-112905000D01*
X77595000Y-112080199D01*
X77595000Y-107315000D01*
X84232815Y-107315000D01*
X84261487Y-107606111D01*
X84346401Y-107886034D01*
X84484294Y-108144014D01*
X84669866Y-108370134D01*
X84895986Y-108555706D01*
X84950791Y-108585000D01*
X84895986Y-108614294D01*
X84669866Y-108799866D01*
X84484294Y-109025986D01*
X84346401Y-109283966D01*
X84261487Y-109563889D01*
X84232815Y-109855000D01*
X84261487Y-110146111D01*
X84346401Y-110426034D01*
X84484294Y-110684014D01*
X84669866Y-110910134D01*
X84699687Y-110934607D01*
X84630820Y-110955498D01*
X84520506Y-111014463D01*
X84423815Y-111093815D01*
X84344463Y-111190506D01*
X84285498Y-111300820D01*
X84249188Y-111420518D01*
X84236928Y-111545000D01*
X84240000Y-112109250D01*
X84398750Y-112268000D01*
X85598000Y-112268000D01*
X85598000Y-112248000D01*
X85852000Y-112248000D01*
X85852000Y-112268000D01*
X87051250Y-112268000D01*
X87210000Y-112109250D01*
X87213072Y-111545000D01*
X87200812Y-111420518D01*
X87164502Y-111300820D01*
X87105537Y-111190506D01*
X87026185Y-111093815D01*
X86929494Y-111014463D01*
X86819180Y-110955498D01*
X86750313Y-110934607D01*
X86780134Y-110910134D01*
X86965706Y-110684014D01*
X87103599Y-110426034D01*
X87188513Y-110146111D01*
X87217185Y-109855000D01*
X87203265Y-109713665D01*
X88735000Y-109713665D01*
X88735000Y-109996335D01*
X88790147Y-110273574D01*
X88898320Y-110534727D01*
X89055363Y-110769759D01*
X89255241Y-110969637D01*
X89490273Y-111126680D01*
X89751426Y-111234853D01*
X90028665Y-111290000D01*
X90311335Y-111290000D01*
X90588574Y-111234853D01*
X90849727Y-111126680D01*
X91084759Y-110969637D01*
X91284637Y-110769759D01*
X91441680Y-110534727D01*
X91549853Y-110273574D01*
X91605000Y-109996335D01*
X91605000Y-109855000D01*
X98888057Y-109855000D01*
X98915764Y-110136309D01*
X98997818Y-110406808D01*
X99131068Y-110656101D01*
X99310392Y-110874608D01*
X99528899Y-111053932D01*
X99778192Y-111187182D01*
X100048691Y-111269236D01*
X100259508Y-111290000D01*
X100400492Y-111290000D01*
X100611309Y-111269236D01*
X100881808Y-111187182D01*
X101131101Y-111053932D01*
X101349608Y-110874608D01*
X101528932Y-110656101D01*
X101662182Y-110406808D01*
X101744236Y-110136309D01*
X101771943Y-109855000D01*
X101744236Y-109573691D01*
X101662182Y-109303192D01*
X101528932Y-109053899D01*
X101349608Y-108835392D01*
X101131101Y-108656068D01*
X100881808Y-108522818D01*
X100611309Y-108440764D01*
X100400492Y-108420000D01*
X100259508Y-108420000D01*
X100048691Y-108440764D01*
X99778192Y-108522818D01*
X99528899Y-108656068D01*
X99310392Y-108835392D01*
X99131068Y-109053899D01*
X98997818Y-109303192D01*
X98915764Y-109573691D01*
X98888057Y-109855000D01*
X91605000Y-109855000D01*
X91605000Y-109713665D01*
X91549853Y-109436426D01*
X91441680Y-109175273D01*
X91284637Y-108940241D01*
X91084759Y-108740363D01*
X90849727Y-108583320D01*
X90588574Y-108475147D01*
X90311335Y-108420000D01*
X90028665Y-108420000D01*
X89751426Y-108475147D01*
X89490273Y-108583320D01*
X89255241Y-108740363D01*
X89055363Y-108940241D01*
X88898320Y-109175273D01*
X88790147Y-109436426D01*
X88735000Y-109713665D01*
X87203265Y-109713665D01*
X87188513Y-109563889D01*
X87103599Y-109283966D01*
X86965706Y-109025986D01*
X86780134Y-108799866D01*
X86554014Y-108614294D01*
X86499209Y-108585000D01*
X86554014Y-108555706D01*
X86780134Y-108370134D01*
X86965706Y-108144014D01*
X87103599Y-107886034D01*
X87188513Y-107606111D01*
X87217185Y-107315000D01*
X87188513Y-107023889D01*
X87103599Y-106743966D01*
X86965706Y-106485986D01*
X86780134Y-106259866D01*
X86554014Y-106074294D01*
X86296034Y-105936401D01*
X86016111Y-105851487D01*
X85797950Y-105830000D01*
X85652050Y-105830000D01*
X85433889Y-105851487D01*
X85153966Y-105936401D01*
X84895986Y-106074294D01*
X84669866Y-106259866D01*
X84484294Y-106485986D01*
X84346401Y-106743966D01*
X84261487Y-107023889D01*
X84232815Y-107315000D01*
X77595000Y-107315000D01*
X77595000Y-103681171D01*
X77981002Y-103295170D01*
X78010001Y-103271371D01*
X78104974Y-103155646D01*
X78175546Y-103023617D01*
X78219003Y-102880356D01*
X78224573Y-102823802D01*
X78271101Y-102798932D01*
X78489608Y-102619608D01*
X78668932Y-102401101D01*
X78740000Y-102268142D01*
X78811068Y-102401101D01*
X78990392Y-102619608D01*
X79208899Y-102798932D01*
X79458192Y-102932182D01*
X79728691Y-103014236D01*
X79939508Y-103035000D01*
X80080492Y-103035000D01*
X80291309Y-103014236D01*
X80561808Y-102932182D01*
X80811101Y-102798932D01*
X81029608Y-102619608D01*
X81208932Y-102401101D01*
X81280000Y-102268142D01*
X81351068Y-102401101D01*
X81530392Y-102619608D01*
X81748899Y-102798932D01*
X81998192Y-102932182D01*
X82268691Y-103014236D01*
X82479508Y-103035000D01*
X82620492Y-103035000D01*
X82831309Y-103014236D01*
X83101808Y-102932182D01*
X83351101Y-102798932D01*
X83569608Y-102619608D01*
X83748932Y-102401101D01*
X83822579Y-102263318D01*
X83937615Y-102455131D01*
X84126586Y-102663519D01*
X84352580Y-102831037D01*
X84606913Y-102951246D01*
X84740961Y-102991904D01*
X84963000Y-102869915D01*
X84963000Y-101727000D01*
X84943000Y-101727000D01*
X84943000Y-101473000D01*
X84963000Y-101473000D01*
X84963000Y-100330085D01*
X84740961Y-100208096D01*
X84637902Y-100239355D01*
X84734759Y-100174637D01*
X84934637Y-99974759D01*
X85091680Y-99739727D01*
X85199853Y-99478574D01*
X85255000Y-99201335D01*
X85255000Y-98918665D01*
X85199853Y-98641426D01*
X85091680Y-98380273D01*
X84934637Y-98145241D01*
X84734759Y-97945363D01*
X84499727Y-97788320D01*
X84238574Y-97680147D01*
X83961335Y-97625000D01*
X83678665Y-97625000D01*
X83496114Y-97661312D01*
X83114801Y-97280000D01*
X84775199Y-97280000D01*
X86231312Y-98736114D01*
X86195000Y-98918665D01*
X86195000Y-99201335D01*
X86250147Y-99478574D01*
X86358320Y-99739727D01*
X86515363Y-99974759D01*
X86715241Y-100174637D01*
X86950273Y-100331680D01*
X86955029Y-100333650D01*
X86828899Y-100401068D01*
X86610392Y-100580392D01*
X86431068Y-100798899D01*
X86357421Y-100936682D01*
X86242385Y-100744869D01*
X86053414Y-100536481D01*
X85827420Y-100368963D01*
X85573087Y-100248754D01*
X85439039Y-100208096D01*
X85217000Y-100330085D01*
X85217000Y-101473000D01*
X85237000Y-101473000D01*
X85237000Y-101727000D01*
X85217000Y-101727000D01*
X85217000Y-102869915D01*
X85439039Y-102991904D01*
X85573087Y-102951246D01*
X85827420Y-102831037D01*
X86053414Y-102663519D01*
X86242385Y-102455131D01*
X86357421Y-102263318D01*
X86431068Y-102401101D01*
X86610392Y-102619608D01*
X86828899Y-102798932D01*
X87078192Y-102932182D01*
X87348691Y-103014236D01*
X87559508Y-103035000D01*
X87700492Y-103035000D01*
X87911309Y-103014236D01*
X88181808Y-102932182D01*
X88431101Y-102798932D01*
X88649608Y-102619608D01*
X88828932Y-102401101D01*
X88962182Y-102151808D01*
X89044236Y-101881309D01*
X89071943Y-101600000D01*
X89044236Y-101318691D01*
X88962182Y-101048192D01*
X88828932Y-100798899D01*
X88649608Y-100580392D01*
X88431101Y-100401068D01*
X88304971Y-100333650D01*
X88309727Y-100331680D01*
X88544759Y-100174637D01*
X88744637Y-99974759D01*
X88901680Y-99739727D01*
X89009853Y-99478574D01*
X89065000Y-99201335D01*
X89065000Y-98918665D01*
X89009853Y-98641426D01*
X88901680Y-98380273D01*
X88744637Y-98145241D01*
X88544759Y-97945363D01*
X88309727Y-97788320D01*
X88048574Y-97680147D01*
X87771335Y-97625000D01*
X87488665Y-97625000D01*
X87306114Y-97661312D01*
X85653804Y-96009003D01*
X85630001Y-95979999D01*
X85514276Y-95885026D01*
X85382247Y-95814454D01*
X85238986Y-95770997D01*
X85127333Y-95760000D01*
X85127322Y-95760000D01*
X85090000Y-95756324D01*
X85052678Y-95760000D01*
X75879802Y-95760000D01*
X74861802Y-94742000D01*
X128139928Y-94742000D01*
X128152188Y-94866482D01*
X128188498Y-94986180D01*
X128247463Y-95096494D01*
X128326815Y-95193185D01*
X128423506Y-95272537D01*
X128533820Y-95331502D01*
X128653518Y-95367812D01*
X128778000Y-95380072D01*
X129254250Y-95377000D01*
X129413000Y-95218250D01*
X129413000Y-94107000D01*
X129667000Y-94107000D01*
X129667000Y-95218250D01*
X129825750Y-95377000D01*
X130302000Y-95380072D01*
X130426482Y-95367812D01*
X130546180Y-95331502D01*
X130656494Y-95272537D01*
X130753185Y-95193185D01*
X130832537Y-95096494D01*
X130891502Y-94986180D01*
X130927812Y-94866482D01*
X130940072Y-94742000D01*
X130937000Y-94265750D01*
X130778250Y-94107000D01*
X129667000Y-94107000D01*
X129413000Y-94107000D01*
X128301750Y-94107000D01*
X128143000Y-94265750D01*
X128139928Y-94742000D01*
X74861802Y-94742000D01*
X74289181Y-94169379D01*
X74319774Y-94148938D01*
X74463937Y-94004775D01*
X74577205Y-93835257D01*
X74655226Y-93646899D01*
X74695000Y-93446940D01*
X74695000Y-93243062D01*
X74690015Y-93218000D01*
X128139928Y-93218000D01*
X128143000Y-93694250D01*
X128301750Y-93853000D01*
X129413000Y-93853000D01*
X129413000Y-92741750D01*
X129667000Y-92741750D01*
X129667000Y-93853000D01*
X130778250Y-93853000D01*
X130937000Y-93694250D01*
X130940072Y-93218000D01*
X130927812Y-93093518D01*
X130891502Y-92973820D01*
X130832537Y-92863506D01*
X130753185Y-92766815D01*
X130656494Y-92687463D01*
X130546180Y-92628498D01*
X130426482Y-92592188D01*
X130302000Y-92579928D01*
X129825750Y-92583000D01*
X129667000Y-92741750D01*
X129413000Y-92741750D01*
X129254250Y-92583000D01*
X128778000Y-92579928D01*
X128653518Y-92592188D01*
X128533820Y-92628498D01*
X128423506Y-92687463D01*
X128326815Y-92766815D01*
X128247463Y-92863506D01*
X128188498Y-92973820D01*
X128152188Y-93093518D01*
X128139928Y-93218000D01*
X74690015Y-93218000D01*
X74655226Y-93043103D01*
X74577205Y-92854745D01*
X74463937Y-92685227D01*
X74319774Y-92541064D01*
X74150256Y-92427796D01*
X73961898Y-92349775D01*
X73761939Y-92310001D01*
X73699802Y-92310001D01*
X70610000Y-89220200D01*
X70610000Y-88579801D01*
X71616250Y-87573552D01*
X71838192Y-87692182D01*
X72108691Y-87774236D01*
X72319508Y-87795000D01*
X72460492Y-87795000D01*
X72671309Y-87774236D01*
X72941808Y-87692182D01*
X73191101Y-87558932D01*
X73409608Y-87379608D01*
X73588932Y-87161101D01*
X73660000Y-87028142D01*
X73731068Y-87161101D01*
X73910392Y-87379608D01*
X74128899Y-87558932D01*
X74378192Y-87692182D01*
X74648691Y-87774236D01*
X74859508Y-87795000D01*
X75000492Y-87795000D01*
X75211309Y-87774236D01*
X75367461Y-87726868D01*
X75180392Y-87880392D01*
X75001068Y-88098899D01*
X74867818Y-88348192D01*
X74785764Y-88618691D01*
X74758057Y-88900000D01*
X74785764Y-89181309D01*
X74867818Y-89451808D01*
X75001068Y-89701101D01*
X75180392Y-89919608D01*
X75398899Y-90098932D01*
X75648192Y-90232182D01*
X75918691Y-90314236D01*
X76129508Y-90335000D01*
X76270492Y-90335000D01*
X76481309Y-90314236D01*
X76751808Y-90232182D01*
X77001101Y-90098932D01*
X77219608Y-89919608D01*
X77330078Y-89785000D01*
X78879922Y-89785000D01*
X78990392Y-89919608D01*
X79208899Y-90098932D01*
X79458192Y-90232182D01*
X79728691Y-90314236D01*
X79939508Y-90335000D01*
X80080492Y-90335000D01*
X80291309Y-90314236D01*
X80561808Y-90232182D01*
X80811101Y-90098932D01*
X81029608Y-89919608D01*
X81140078Y-89785000D01*
X82689922Y-89785000D01*
X82800392Y-89919608D01*
X83018899Y-90098932D01*
X83268192Y-90232182D01*
X83538691Y-90314236D01*
X83749508Y-90335000D01*
X83890492Y-90335000D01*
X84101309Y-90314236D01*
X84371808Y-90232182D01*
X84621101Y-90098932D01*
X84839608Y-89919608D01*
X84950078Y-89785000D01*
X86499922Y-89785000D01*
X86610392Y-89919608D01*
X86828899Y-90098932D01*
X87078192Y-90232182D01*
X87348691Y-90314236D01*
X87559508Y-90335000D01*
X87700492Y-90335000D01*
X87911309Y-90314236D01*
X87968129Y-90297000D01*
X91944928Y-90297000D01*
X91957188Y-90421482D01*
X91993498Y-90541180D01*
X92052463Y-90651494D01*
X92131815Y-90748185D01*
X92228506Y-90827537D01*
X92338820Y-90886502D01*
X92458518Y-90922812D01*
X92583000Y-90935072D01*
X93059250Y-90932000D01*
X93218000Y-90773250D01*
X93218000Y-89662000D01*
X92106750Y-89662000D01*
X91948000Y-89820750D01*
X91944928Y-90297000D01*
X87968129Y-90297000D01*
X88181808Y-90232182D01*
X88431101Y-90098932D01*
X88649608Y-89919608D01*
X88828932Y-89701101D01*
X88962182Y-89451808D01*
X89044236Y-89181309D01*
X89071943Y-88900000D01*
X89059435Y-88773000D01*
X91944928Y-88773000D01*
X91948000Y-89249250D01*
X92106750Y-89408000D01*
X93218000Y-89408000D01*
X93218000Y-88296750D01*
X93472000Y-88296750D01*
X93472000Y-89408000D01*
X93492000Y-89408000D01*
X93492000Y-89662000D01*
X93472000Y-89662000D01*
X93472000Y-90773250D01*
X93630750Y-90932000D01*
X94107000Y-90935072D01*
X94231482Y-90922812D01*
X94351180Y-90886502D01*
X94461494Y-90827537D01*
X94558185Y-90748185D01*
X94637537Y-90651494D01*
X94696502Y-90541180D01*
X94732812Y-90421482D01*
X94741080Y-90337535D01*
X94799880Y-90425535D01*
X94994465Y-90620120D01*
X95223273Y-90773005D01*
X95477510Y-90878314D01*
X95747408Y-90932000D01*
X96022592Y-90932000D01*
X96292490Y-90878314D01*
X96546727Y-90773005D01*
X96775535Y-90620120D01*
X96970120Y-90425535D01*
X97123005Y-90196727D01*
X97155000Y-90119485D01*
X97186995Y-90196727D01*
X97339880Y-90425535D01*
X97534465Y-90620120D01*
X97763273Y-90773005D01*
X98017510Y-90878314D01*
X98287408Y-90932000D01*
X98562592Y-90932000D01*
X98832490Y-90878314D01*
X99086727Y-90773005D01*
X99315535Y-90620120D01*
X99510120Y-90425535D01*
X99663005Y-90196727D01*
X99695000Y-90119485D01*
X99726995Y-90196727D01*
X99879880Y-90425535D01*
X100074465Y-90620120D01*
X100303273Y-90773005D01*
X100557510Y-90878314D01*
X100827408Y-90932000D01*
X101102592Y-90932000D01*
X101372490Y-90878314D01*
X101626727Y-90773005D01*
X101855535Y-90620120D01*
X102050120Y-90425535D01*
X102203005Y-90196727D01*
X102235000Y-90119485D01*
X102266995Y-90196727D01*
X102419880Y-90425535D01*
X102614465Y-90620120D01*
X102843273Y-90773005D01*
X103097510Y-90878314D01*
X103367408Y-90932000D01*
X103642592Y-90932000D01*
X103912490Y-90878314D01*
X104166727Y-90773005D01*
X104395535Y-90620120D01*
X104590120Y-90425535D01*
X104743005Y-90196727D01*
X104775000Y-90119485D01*
X104806995Y-90196727D01*
X104959880Y-90425535D01*
X105154465Y-90620120D01*
X105383273Y-90773005D01*
X105637510Y-90878314D01*
X105907408Y-90932000D01*
X106182592Y-90932000D01*
X106452490Y-90878314D01*
X106706727Y-90773005D01*
X106935535Y-90620120D01*
X107130120Y-90425535D01*
X107283005Y-90196727D01*
X107315000Y-90119485D01*
X107346995Y-90196727D01*
X107499880Y-90425535D01*
X107694465Y-90620120D01*
X107923273Y-90773005D01*
X108177510Y-90878314D01*
X108447408Y-90932000D01*
X108722592Y-90932000D01*
X108992490Y-90878314D01*
X109246727Y-90773005D01*
X109475535Y-90620120D01*
X109670120Y-90425535D01*
X109823005Y-90196727D01*
X109855000Y-90119485D01*
X109886995Y-90196727D01*
X110039880Y-90425535D01*
X110234465Y-90620120D01*
X110463273Y-90773005D01*
X110717510Y-90878314D01*
X110987408Y-90932000D01*
X111262592Y-90932000D01*
X111532490Y-90878314D01*
X111786727Y-90773005D01*
X112015535Y-90620120D01*
X112210120Y-90425535D01*
X112363005Y-90196727D01*
X112468314Y-89942490D01*
X112522000Y-89672592D01*
X112522000Y-89397408D01*
X112468314Y-89127510D01*
X112363005Y-88873273D01*
X112210120Y-88644465D01*
X112015535Y-88449880D01*
X111786727Y-88296995D01*
X111532490Y-88191686D01*
X111262592Y-88138000D01*
X110987408Y-88138000D01*
X110717510Y-88191686D01*
X110463273Y-88296995D01*
X110234465Y-88449880D01*
X110039880Y-88644465D01*
X109886995Y-88873273D01*
X109855000Y-88950515D01*
X109823005Y-88873273D01*
X109670120Y-88644465D01*
X109475535Y-88449880D01*
X109246727Y-88296995D01*
X108992490Y-88191686D01*
X108722592Y-88138000D01*
X108447408Y-88138000D01*
X108177510Y-88191686D01*
X107923273Y-88296995D01*
X107694465Y-88449880D01*
X107499880Y-88644465D01*
X107346995Y-88873273D01*
X107315000Y-88950515D01*
X107283005Y-88873273D01*
X107130120Y-88644465D01*
X106935535Y-88449880D01*
X106706727Y-88296995D01*
X106452490Y-88191686D01*
X106182592Y-88138000D01*
X105907408Y-88138000D01*
X105637510Y-88191686D01*
X105383273Y-88296995D01*
X105154465Y-88449880D01*
X104959880Y-88644465D01*
X104806995Y-88873273D01*
X104775000Y-88950515D01*
X104743005Y-88873273D01*
X104590120Y-88644465D01*
X104395535Y-88449880D01*
X104166727Y-88296995D01*
X103912490Y-88191686D01*
X103642592Y-88138000D01*
X103367408Y-88138000D01*
X103097510Y-88191686D01*
X102843273Y-88296995D01*
X102614465Y-88449880D01*
X102419880Y-88644465D01*
X102266995Y-88873273D01*
X102235000Y-88950515D01*
X102203005Y-88873273D01*
X102050120Y-88644465D01*
X101855535Y-88449880D01*
X101626727Y-88296995D01*
X101372490Y-88191686D01*
X101102592Y-88138000D01*
X100827408Y-88138000D01*
X100557510Y-88191686D01*
X100303273Y-88296995D01*
X100074465Y-88449880D01*
X99879880Y-88644465D01*
X99726995Y-88873273D01*
X99695000Y-88950515D01*
X99663005Y-88873273D01*
X99510120Y-88644465D01*
X99315535Y-88449880D01*
X99086727Y-88296995D01*
X98832490Y-88191686D01*
X98562592Y-88138000D01*
X98287408Y-88138000D01*
X98017510Y-88191686D01*
X97763273Y-88296995D01*
X97534465Y-88449880D01*
X97339880Y-88644465D01*
X97186995Y-88873273D01*
X97155000Y-88950515D01*
X97123005Y-88873273D01*
X96970120Y-88644465D01*
X96775535Y-88449880D01*
X96546727Y-88296995D01*
X96292490Y-88191686D01*
X96022592Y-88138000D01*
X95747408Y-88138000D01*
X95477510Y-88191686D01*
X95223273Y-88296995D01*
X94994465Y-88449880D01*
X94799880Y-88644465D01*
X94741080Y-88732465D01*
X94732812Y-88648518D01*
X94696502Y-88528820D01*
X94637537Y-88418506D01*
X94558185Y-88321815D01*
X94461494Y-88242463D01*
X94351180Y-88183498D01*
X94231482Y-88147188D01*
X94107000Y-88134928D01*
X93630750Y-88138000D01*
X93472000Y-88296750D01*
X93218000Y-88296750D01*
X93059250Y-88138000D01*
X92583000Y-88134928D01*
X92458518Y-88147188D01*
X92338820Y-88183498D01*
X92228506Y-88242463D01*
X92131815Y-88321815D01*
X92052463Y-88418506D01*
X91993498Y-88528820D01*
X91957188Y-88648518D01*
X91944928Y-88773000D01*
X89059435Y-88773000D01*
X89044236Y-88618691D01*
X88962182Y-88348192D01*
X88828932Y-88098899D01*
X88649608Y-87880392D01*
X88536518Y-87787581D01*
X88554482Y-87785812D01*
X88674180Y-87749502D01*
X88784494Y-87690537D01*
X88881185Y-87611185D01*
X88960537Y-87514494D01*
X89019502Y-87404180D01*
X89055812Y-87284482D01*
X89068072Y-87160000D01*
X89068072Y-85560000D01*
X89055812Y-85435518D01*
X89019502Y-85315820D01*
X88960537Y-85205506D01*
X88881185Y-85108815D01*
X88784494Y-85029463D01*
X88674180Y-84970498D01*
X88554482Y-84934188D01*
X88430000Y-84921928D01*
X86830000Y-84921928D01*
X86705518Y-84934188D01*
X86585820Y-84970498D01*
X86475506Y-85029463D01*
X86378815Y-85108815D01*
X86299463Y-85205506D01*
X86240498Y-85315820D01*
X86204188Y-85435518D01*
X86202419Y-85453482D01*
X86109608Y-85340392D01*
X85891101Y-85161068D01*
X85641808Y-85027818D01*
X85371309Y-84945764D01*
X85160492Y-84925000D01*
X85019508Y-84925000D01*
X84808691Y-84945764D01*
X84538192Y-85027818D01*
X84288899Y-85161068D01*
X84070392Y-85340392D01*
X83891068Y-85558899D01*
X83820000Y-85691858D01*
X83748932Y-85558899D01*
X83569608Y-85340392D01*
X83351101Y-85161068D01*
X83101808Y-85027818D01*
X82831309Y-84945764D01*
X82620492Y-84925000D01*
X82479508Y-84925000D01*
X82268691Y-84945764D01*
X81998192Y-85027818D01*
X81748899Y-85161068D01*
X81530392Y-85340392D01*
X81351068Y-85558899D01*
X81277421Y-85696682D01*
X81162385Y-85504869D01*
X80973414Y-85296481D01*
X80747420Y-85128963D01*
X80493087Y-85008754D01*
X80359039Y-84968096D01*
X80137000Y-85090085D01*
X80137000Y-86233000D01*
X80157000Y-86233000D01*
X80157000Y-86487000D01*
X80137000Y-86487000D01*
X80137000Y-86507000D01*
X79883000Y-86507000D01*
X79883000Y-86487000D01*
X79863000Y-86487000D01*
X79863000Y-86233000D01*
X79883000Y-86233000D01*
X79883000Y-85090085D01*
X79660961Y-84968096D01*
X79526913Y-85008754D01*
X79272580Y-85128963D01*
X79046586Y-85296481D01*
X78857615Y-85504869D01*
X78742579Y-85696682D01*
X78668932Y-85558899D01*
X78489608Y-85340392D01*
X78271101Y-85161068D01*
X78230000Y-85139099D01*
X78230000Y-81952322D01*
X78233676Y-81914999D01*
X78230000Y-81877676D01*
X78230000Y-81877667D01*
X78219003Y-81766014D01*
X78175546Y-81622753D01*
X78104974Y-81490724D01*
X78010001Y-81374999D01*
X77981003Y-81351201D01*
X77304011Y-80674209D01*
X77316494Y-80667537D01*
X77413185Y-80588185D01*
X77477010Y-80510413D01*
X82944192Y-80510413D01*
X83039956Y-80774814D01*
X83329571Y-80915704D01*
X83641108Y-80997384D01*
X83962595Y-81016718D01*
X84281675Y-80972961D01*
X84586088Y-80867795D01*
X84760044Y-80774814D01*
X84855808Y-80510413D01*
X83900000Y-79554605D01*
X82944192Y-80510413D01*
X77477010Y-80510413D01*
X77492537Y-80491494D01*
X77551502Y-80381180D01*
X77587812Y-80261482D01*
X77600072Y-80137000D01*
X77597000Y-79660750D01*
X77438250Y-79502000D01*
X76327000Y-79502000D01*
X76327000Y-79522000D01*
X76073000Y-79522000D01*
X76073000Y-79502000D01*
X76053000Y-79502000D01*
X76053000Y-79248000D01*
X76073000Y-79248000D01*
X76073000Y-79228000D01*
X76327000Y-79228000D01*
X76327000Y-79248000D01*
X77438250Y-79248000D01*
X77597000Y-79089250D01*
X77600072Y-78613000D01*
X77599284Y-78605000D01*
X82456382Y-78605000D01*
X82359296Y-78804571D01*
X82359296Y-78804571D01*
G37*
X82359296Y-78804571D02*
X82277616Y-79116108D01*
X82258282Y-79437595D01*
X82302039Y-79756675D01*
X82407205Y-80061088D01*
X82500186Y-80235044D01*
X82764587Y-80330808D01*
X83720395Y-79375000D01*
X83706253Y-79360858D01*
X83885858Y-79181253D01*
X83900000Y-79195395D01*
X83914143Y-79181253D01*
X84093748Y-79360858D01*
X84079605Y-79375000D01*
X85035413Y-80330808D01*
X85299814Y-80235044D01*
X85440704Y-79945429D01*
X85522384Y-79633892D01*
X85541718Y-79312405D01*
X85497961Y-78993325D01*
X85392795Y-78688912D01*
X85347943Y-78605000D01*
X87261928Y-78605000D01*
X87261928Y-80375000D01*
X87274188Y-80499482D01*
X87310498Y-80619180D01*
X87369463Y-80729494D01*
X87448815Y-80826185D01*
X87545506Y-80905537D01*
X87655820Y-80964502D01*
X87775518Y-81000812D01*
X87900000Y-81013072D01*
X88932941Y-81013072D01*
X89963009Y-82043141D01*
X89998551Y-82086449D01*
X90080420Y-82153637D01*
X90171377Y-82228284D01*
X90368553Y-82333676D01*
X90582501Y-82398577D01*
X90805000Y-82420491D01*
X90860752Y-82415000D01*
X93924249Y-82415000D01*
X93980000Y-82420491D01*
X94035751Y-82415000D01*
X94035752Y-82415000D01*
X94202499Y-82398577D01*
X94416447Y-82333676D01*
X94613623Y-82228284D01*
X94786449Y-82086449D01*
X94821996Y-82043135D01*
X95885000Y-80980132D01*
X98853013Y-83948146D01*
X98888551Y-83991449D01*
X98931854Y-84026987D01*
X98931856Y-84026989D01*
X99061377Y-84133284D01*
X99258553Y-84238676D01*
X99472501Y-84303577D01*
X99695000Y-84325491D01*
X99750752Y-84320000D01*
X118564116Y-84320000D01*
X118718273Y-84423005D01*
X118972510Y-84528314D01*
X119242408Y-84582000D01*
X119517592Y-84582000D01*
X119787490Y-84528314D01*
X120041727Y-84423005D01*
X120270535Y-84270120D01*
X120465120Y-84075535D01*
X120523920Y-83987535D01*
X120532188Y-84071482D01*
X120568498Y-84191180D01*
X120627463Y-84301494D01*
X120706815Y-84398185D01*
X120803506Y-84477537D01*
X120913820Y-84536502D01*
X121033518Y-84572812D01*
X121158000Y-84585072D01*
X121634250Y-84582000D01*
X121793000Y-84423250D01*
X121793000Y-83312000D01*
X121773000Y-83312000D01*
X121773000Y-83058000D01*
X121793000Y-83058000D01*
X121793000Y-81946750D01*
X121634250Y-81788000D01*
X121158000Y-81784928D01*
X121033518Y-81797188D01*
X120913820Y-81833498D01*
X120803506Y-81892463D01*
X120706815Y-81971815D01*
X120627463Y-82068506D01*
X120568498Y-82178820D01*
X120532188Y-82298518D01*
X120523920Y-82382465D01*
X120465120Y-82294465D01*
X120270535Y-82099880D01*
X120041727Y-81946995D01*
X119787490Y-81841686D01*
X119517592Y-81788000D01*
X119242408Y-81788000D01*
X118972510Y-81841686D01*
X118718273Y-81946995D01*
X118564116Y-82050000D01*
X113231362Y-82050000D01*
X113236996Y-82043135D01*
X114525647Y-80754485D01*
X114707490Y-80718314D01*
X114961727Y-80613005D01*
X115190535Y-80460120D01*
X115385120Y-80265535D01*
X115538005Y-80036727D01*
X115570000Y-79959485D01*
X115601995Y-80036727D01*
X115754880Y-80265535D01*
X115949465Y-80460120D01*
X116178273Y-80613005D01*
X116432510Y-80718314D01*
X116702408Y-80772000D01*
X116977592Y-80772000D01*
X117247490Y-80718314D01*
X117501727Y-80613005D01*
X117730535Y-80460120D01*
X117925120Y-80265535D01*
X118078005Y-80036727D01*
X118110000Y-79959485D01*
X118141995Y-80036727D01*
X118294880Y-80265535D01*
X118489465Y-80460120D01*
X118718273Y-80613005D01*
X118972510Y-80718314D01*
X119242408Y-80772000D01*
X119517592Y-80772000D01*
X119524122Y-80770701D01*
X119993470Y-81240049D01*
X120021183Y-81273817D01*
X120054951Y-81301530D01*
X120054953Y-81301532D01*
X120071214Y-81314877D01*
X120155941Y-81384411D01*
X120309687Y-81466589D01*
X120476510Y-81517195D01*
X120606523Y-81530000D01*
X120606533Y-81530000D01*
X120649999Y-81534281D01*
X120693465Y-81530000D01*
X130906546Y-81530000D01*
X130954744Y-81562205D01*
X131143102Y-81640226D01*
X131343061Y-81680000D01*
X131546939Y-81680000D01*
X131746898Y-81640226D01*
X131935256Y-81562205D01*
X132104774Y-81448937D01*
X132248937Y-81304774D01*
X132362205Y-81135256D01*
X132440226Y-80946898D01*
X132480000Y-80746939D01*
X132480000Y-80543061D01*
X132440226Y-80343102D01*
X132362205Y-80154744D01*
X132248937Y-79985226D01*
X132104774Y-79841063D01*
X131935256Y-79727795D01*
X131746898Y-79649774D01*
X131546939Y-79610000D01*
X131343061Y-79610000D01*
X131143102Y-79649774D01*
X130954744Y-79727795D01*
X130906546Y-79760000D01*
X128397640Y-79760000D01*
X128397000Y-79660750D01*
X128238250Y-79502000D01*
X127127000Y-79502000D01*
X127127000Y-79522000D01*
X126873000Y-79522000D01*
X126873000Y-79502000D01*
X126853000Y-79502000D01*
X126853000Y-79248000D01*
X126873000Y-79248000D01*
X126873000Y-79228000D01*
X127127000Y-79228000D01*
X127127000Y-79248000D01*
X128238250Y-79248000D01*
X128397000Y-79089250D01*
X128398769Y-78815000D01*
X140300272Y-78815000D01*
X140566446Y-78841098D01*
X140789081Y-78908315D01*
X140994419Y-79017495D01*
X141174639Y-79164479D01*
X141322877Y-79343668D01*
X141433489Y-79548240D01*
X141502258Y-79770397D01*
X141530000Y-80034344D01*
X141530001Y-81245113D01*
X141526565Y-81280000D01*
X141540273Y-81419184D01*
X141580872Y-81553020D01*
X141646800Y-81676363D01*
X141735525Y-81784475D01*
X141843637Y-81873200D01*
X141921840Y-81915000D01*
X141843637Y-81956800D01*
X141735525Y-82045525D01*
X141646800Y-82153637D01*
X141580872Y-82276980D01*
X141540273Y-82410816D01*
X141526565Y-82550000D01*
X141530000Y-82584877D01*
X141530001Y-86325113D01*
X141526565Y-86360000D01*
X141540273Y-86499184D01*
X141580872Y-86633020D01*
X141646800Y-86756363D01*
X141735525Y-86864475D01*
X141843637Y-86953200D01*
X141921840Y-86995000D01*
X141843637Y-87036800D01*
X141735525Y-87125525D01*
X141670806Y-87204385D01*
X141573005Y-86968273D01*
X141420120Y-86739465D01*
X141225535Y-86544880D01*
X140996727Y-86391995D01*
X140742490Y-86286686D01*
X140472592Y-86233000D01*
X140197408Y-86233000D01*
X139927510Y-86286686D01*
X139673273Y-86391995D01*
X139444465Y-86544880D01*
X139249880Y-86739465D01*
X139096995Y-86968273D01*
X139065000Y-87045515D01*
X139033005Y-86968273D01*
X138915545Y-86792482D01*
X138914737Y-86784275D01*
X138913577Y-86772500D01*
X138877098Y-86652247D01*
X138848676Y-86558553D01*
X138743284Y-86361377D01*
X138601449Y-86188551D01*
X138558140Y-86153008D01*
X137366996Y-84961865D01*
X137331449Y-84918551D01*
X137158623Y-84776716D01*
X136961447Y-84671324D01*
X136747499Y-84606423D01*
X136580752Y-84590000D01*
X136580751Y-84590000D01*
X136525000Y-84584509D01*
X136469249Y-84590000D01*
X125595000Y-84590000D01*
X125595000Y-84000884D01*
X125698005Y-83846727D01*
X125730000Y-83769485D01*
X125761995Y-83846727D01*
X125914880Y-84075535D01*
X126109465Y-84270120D01*
X126338273Y-84423005D01*
X126592510Y-84528314D01*
X126862408Y-84582000D01*
X127137592Y-84582000D01*
X127407490Y-84528314D01*
X127661727Y-84423005D01*
X127890535Y-84270120D01*
X128085120Y-84075535D01*
X128238005Y-83846727D01*
X128270000Y-83769485D01*
X128301995Y-83846727D01*
X128454880Y-84075535D01*
X128649465Y-84270120D01*
X128878273Y-84423005D01*
X129132510Y-84528314D01*
X129402408Y-84582000D01*
X129677592Y-84582000D01*
X129947490Y-84528314D01*
X130201727Y-84423005D01*
X130430535Y-84270120D01*
X130625120Y-84075535D01*
X130778005Y-83846727D01*
X130883314Y-83592490D01*
X130937000Y-83322592D01*
X130937000Y-83047408D01*
X130883314Y-82777510D01*
X130778005Y-82523273D01*
X130625120Y-82294465D01*
X130430535Y-82099880D01*
X130201727Y-81946995D01*
X130199654Y-81946136D01*
X136200217Y-81946136D01*
X136248731Y-82378643D01*
X136380328Y-82793490D01*
X136589997Y-83174876D01*
X136869751Y-83508274D01*
X137208934Y-83780984D01*
X137594627Y-83982620D01*
X138012140Y-84105501D01*
X138445568Y-84144946D01*
X138878404Y-84099453D01*
X139294160Y-83970755D01*
X139677000Y-83763754D01*
X140012343Y-83486334D01*
X140287414Y-83149063D01*
X140491738Y-82764787D01*
X140617530Y-82348143D01*
X140660000Y-81915000D01*
X140659131Y-81852735D01*
X140604583Y-81420947D01*
X140467206Y-81007977D01*
X140252233Y-80629556D01*
X139967852Y-80300097D01*
X139624894Y-80032149D01*
X139236423Y-79835918D01*
X138817235Y-79718879D01*
X138383298Y-79685489D01*
X137951140Y-79737021D01*
X137537222Y-79871511D01*
X137157309Y-80083837D01*
X136825872Y-80365912D01*
X136555536Y-80706991D01*
X136356598Y-81094082D01*
X136236636Y-81512442D01*
X136200217Y-81946136D01*
X130199654Y-81946136D01*
X129947490Y-81841686D01*
X129677592Y-81788000D01*
X129402408Y-81788000D01*
X129132510Y-81841686D01*
X128878273Y-81946995D01*
X128649465Y-82099880D01*
X128454880Y-82294465D01*
X128301995Y-82523273D01*
X128270000Y-82600515D01*
X128238005Y-82523273D01*
X128085120Y-82294465D01*
X127890535Y-82099880D01*
X127661727Y-81946995D01*
X127407490Y-81841686D01*
X127137592Y-81788000D01*
X126862408Y-81788000D01*
X126592510Y-81841686D01*
X126338273Y-81946995D01*
X126109465Y-82099880D01*
X125914880Y-82294465D01*
X125761995Y-82523273D01*
X125730000Y-82600515D01*
X125698005Y-82523273D01*
X125545120Y-82294465D01*
X125350535Y-82099880D01*
X125121727Y-81946995D01*
X124867490Y-81841686D01*
X124597592Y-81788000D01*
X124322408Y-81788000D01*
X124052510Y-81841686D01*
X123798273Y-81946995D01*
X123569465Y-82099880D01*
X123374880Y-82294465D01*
X123316080Y-82382465D01*
X123307812Y-82298518D01*
X123271502Y-82178820D01*
X123212537Y-82068506D01*
X123133185Y-81971815D01*
X123036494Y-81892463D01*
X122926180Y-81833498D01*
X122806482Y-81797188D01*
X122682000Y-81784928D01*
X122205750Y-81788000D01*
X122047000Y-81946750D01*
X122047000Y-83058000D01*
X122067000Y-83058000D01*
X122067000Y-83312000D01*
X122047000Y-83312000D01*
X122047000Y-84423250D01*
X122205750Y-84582000D01*
X122682000Y-84585072D01*
X122806482Y-84572812D01*
X122926180Y-84536502D01*
X123036494Y-84477537D01*
X123133185Y-84398185D01*
X123212537Y-84301494D01*
X123271502Y-84191180D01*
X123307812Y-84071482D01*
X123316080Y-83987535D01*
X123325000Y-84000885D01*
X123325001Y-85669239D01*
X123319509Y-85725000D01*
X123325000Y-85780752D01*
X123325000Y-86672182D01*
X123219294Y-86800986D01*
X123081401Y-87058966D01*
X122996487Y-87338889D01*
X122967815Y-87630000D01*
X122996487Y-87921111D01*
X123081401Y-88201034D01*
X123219294Y-88459014D01*
X123404866Y-88685134D01*
X123630986Y-88870706D01*
X123888966Y-89008599D01*
X124168889Y-89093513D01*
X124387050Y-89115000D01*
X124532950Y-89115000D01*
X124751111Y-89093513D01*
X125031034Y-89008599D01*
X125289014Y-88870706D01*
X125515134Y-88685134D01*
X125539607Y-88655313D01*
X125560498Y-88724180D01*
X125619463Y-88834494D01*
X125698815Y-88931185D01*
X125795506Y-89010537D01*
X125905820Y-89069502D01*
X126025518Y-89105812D01*
X126150000Y-89118072D01*
X126714250Y-89115000D01*
X126873000Y-88956250D01*
X126873000Y-87757000D01*
X127127000Y-87757000D01*
X127127000Y-88956250D01*
X127285750Y-89115000D01*
X127850000Y-89118072D01*
X127974482Y-89105812D01*
X128094180Y-89069502D01*
X128204494Y-89010537D01*
X128301185Y-88931185D01*
X128380537Y-88834494D01*
X128439502Y-88724180D01*
X128475812Y-88604482D01*
X128488072Y-88480000D01*
X128485000Y-87915750D01*
X128326250Y-87757000D01*
X127127000Y-87757000D01*
X126873000Y-87757000D01*
X126853000Y-87757000D01*
X126853000Y-87503000D01*
X126873000Y-87503000D01*
X126873000Y-87483000D01*
X127127000Y-87483000D01*
X127127000Y-87503000D01*
X128326250Y-87503000D01*
X128485000Y-87344250D01*
X128487636Y-86860000D01*
X131549341Y-86860000D01*
X131476995Y-86968273D01*
X131371686Y-87222510D01*
X131318000Y-87492408D01*
X131318000Y-87767592D01*
X131371686Y-88037490D01*
X131476995Y-88291727D01*
X131629880Y-88520535D01*
X131824465Y-88715120D01*
X132053273Y-88868005D01*
X132307510Y-88973314D01*
X132577408Y-89027000D01*
X132852592Y-89027000D01*
X133122490Y-88973314D01*
X133376727Y-88868005D01*
X133605535Y-88715120D01*
X133800120Y-88520535D01*
X133858920Y-88432535D01*
X133867188Y-88516482D01*
X133903498Y-88636180D01*
X133962463Y-88746494D01*
X134041815Y-88843185D01*
X134138506Y-88922537D01*
X134248820Y-88981502D01*
X134368518Y-89017812D01*
X134493000Y-89030072D01*
X134969250Y-89027000D01*
X135128000Y-88868250D01*
X135128000Y-87757000D01*
X135108000Y-87757000D01*
X135108000Y-87503000D01*
X135128000Y-87503000D01*
X135128000Y-87483000D01*
X135382000Y-87483000D01*
X135382000Y-87503000D01*
X135402000Y-87503000D01*
X135402000Y-87757000D01*
X135382000Y-87757000D01*
X135382000Y-88868250D01*
X135540750Y-89027000D01*
X136017000Y-89030072D01*
X136141482Y-89017812D01*
X136261180Y-88981502D01*
X136371494Y-88922537D01*
X136468185Y-88843185D01*
X136547537Y-88746494D01*
X136606502Y-88636180D01*
X136642812Y-88516482D01*
X136651080Y-88432535D01*
X136709880Y-88520535D01*
X136904465Y-88715120D01*
X137133273Y-88868005D01*
X137387510Y-88973314D01*
X137657408Y-89027000D01*
X137932592Y-89027000D01*
X138202490Y-88973314D01*
X138456727Y-88868005D01*
X138685535Y-88715120D01*
X138880120Y-88520535D01*
X139033005Y-88291727D01*
X139065000Y-88214485D01*
X139096995Y-88291727D01*
X139249880Y-88520535D01*
X139444465Y-88715120D01*
X139673273Y-88868005D01*
X139927510Y-88973314D01*
X140197408Y-89027000D01*
X140472592Y-89027000D01*
X140742490Y-88973314D01*
X140996727Y-88868005D01*
X141225535Y-88715120D01*
X141420120Y-88520535D01*
X141530000Y-88356088D01*
X141530001Y-113630113D01*
X141526565Y-113665000D01*
X141540273Y-113804184D01*
X141580872Y-113938020D01*
X141646800Y-114061363D01*
X141735525Y-114169475D01*
X141843637Y-114258200D01*
X141921840Y-114300000D01*
X141843637Y-114341800D01*
X141735525Y-114430525D01*
X141646800Y-114538637D01*
X141580872Y-114661980D01*
X141540273Y-114795816D01*
X141526565Y-114935000D01*
X141530000Y-114969877D01*
X141530001Y-118710113D01*
X141526565Y-118745000D01*
X141540273Y-118884184D01*
X141580872Y-119018020D01*
X141646800Y-119141363D01*
X141735525Y-119249475D01*
X141843637Y-119338200D01*
X141921840Y-119380000D01*
X141843637Y-119421800D01*
X141735525Y-119510525D01*
X141646800Y-119618637D01*
X141580872Y-119741980D01*
X141540273Y-119875816D01*
X141526565Y-120015000D01*
X141530001Y-120049887D01*
X141530000Y-138395271D01*
X141503901Y-138661449D01*
X141436684Y-138884084D01*
X141327506Y-139089417D01*
X141180522Y-139269637D01*
X141001333Y-139417876D01*
X140796761Y-139528488D01*
X140574606Y-139597257D01*
X140310655Y-139625000D01*
X135330000Y-139625000D01*
X135330000Y-127034877D01*
X135333435Y-127000000D01*
X135319727Y-126860816D01*
X135279128Y-126726980D01*
X135213200Y-126603637D01*
X135124475Y-126495525D01*
X135016363Y-126406800D01*
X134893020Y-126340872D01*
X134759184Y-126300273D01*
X134654877Y-126290000D01*
X134620000Y-126286565D01*
X134585123Y-126290000D01*
X127034877Y-126290000D01*
X127000000Y-126286565D01*
X126965123Y-126290000D01*
X126860816Y-126300273D01*
X126726980Y-126340872D01*
X126603637Y-126406800D01*
X126495525Y-126495525D01*
X126406800Y-126603637D01*
X126340872Y-126726980D01*
X126300273Y-126860816D01*
X126286565Y-127000000D01*
X126290000Y-127034877D01*
X126290001Y-139625000D01*
X64210000Y-139625000D01*
X64210000Y-127034877D01*
X64213435Y-127000000D01*
X64199727Y-126860816D01*
X64159128Y-126726980D01*
X64093200Y-126603637D01*
X64004475Y-126495525D01*
X63896363Y-126406800D01*
X63773020Y-126340872D01*
X63639184Y-126300273D01*
X63534877Y-126290000D01*
X63500000Y-126286565D01*
X63465123Y-126290000D01*
X55914877Y-126290000D01*
X55880000Y-126286565D01*
X55845123Y-126290000D01*
X55740816Y-126300273D01*
X55606980Y-126340872D01*
X55483637Y-126406800D01*
X55375525Y-126495525D01*
X55286800Y-126603637D01*
X55220872Y-126726980D01*
X55180273Y-126860816D01*
X55166565Y-127000000D01*
X55170001Y-127034887D01*
X55170000Y-139625000D01*
X50199729Y-139625000D01*
X49933551Y-139598901D01*
X49710916Y-139531684D01*
X49505583Y-139422506D01*
X49325363Y-139275522D01*
X49177124Y-139096333D01*
X49066512Y-138891761D01*
X48997743Y-138669606D01*
X48970000Y-138405655D01*
X48970000Y-119411136D01*
X49840217Y-119411136D01*
X49888731Y-119843643D01*
X50020328Y-120258490D01*
X50229997Y-120639876D01*
X50509751Y-120973274D01*
X50848934Y-121245984D01*
X51234627Y-121447620D01*
X51652140Y-121570501D01*
X52085568Y-121609946D01*
X52518404Y-121564453D01*
X52934160Y-121435755D01*
X53317000Y-121228754D01*
X53652343Y-120951334D01*
X53927414Y-120614063D01*
X54131738Y-120229787D01*
X54257530Y-119813143D01*
X54300000Y-119380000D01*
X54299131Y-119317735D01*
X54244583Y-118885947D01*
X54107206Y-118472977D01*
X53892233Y-118094556D01*
X53607852Y-117765097D01*
X53264894Y-117497149D01*
X52876423Y-117300918D01*
X52457235Y-117183879D01*
X52023298Y-117150489D01*
X51591140Y-117202021D01*
X51177222Y-117336511D01*
X50797309Y-117548837D01*
X50465872Y-117830912D01*
X50195536Y-118171991D01*
X49996598Y-118559082D01*
X49876636Y-118977442D01*
X49840217Y-119411136D01*
X48970000Y-119411136D01*
X48970000Y-112835534D01*
X48998088Y-112847168D01*
X49313967Y-112910000D01*
X49636033Y-112910000D01*
X49951912Y-112847168D01*
X50249463Y-112723918D01*
X50517252Y-112544987D01*
X50744987Y-112317252D01*
X50923918Y-112049463D01*
X51047168Y-111751912D01*
X51110000Y-111436033D01*
X51110000Y-111113967D01*
X51047168Y-110798088D01*
X50923918Y-110500537D01*
X50744987Y-110232748D01*
X50517252Y-110005013D01*
X50249463Y-109826082D01*
X49951912Y-109702832D01*
X49636033Y-109640000D01*
X49313967Y-109640000D01*
X48998088Y-109702832D01*
X48970000Y-109714466D01*
X48970000Y-106335534D01*
X48998088Y-106347168D01*
X49313967Y-106410000D01*
X49636033Y-106410000D01*
X49951912Y-106347168D01*
X50249463Y-106223918D01*
X50517252Y-106044987D01*
X50744987Y-105817252D01*
X50923918Y-105549463D01*
X51047168Y-105251912D01*
X51110000Y-104936033D01*
X51110000Y-104613967D01*
X51047168Y-104298088D01*
X50923918Y-104000537D01*
X50744987Y-103732748D01*
X50517252Y-103505013D01*
X50249463Y-103326082D01*
X49951912Y-103202832D01*
X49636033Y-103140000D01*
X49313967Y-103140000D01*
X48998088Y-103202832D01*
X48970000Y-103214466D01*
X48970000Y-89892702D01*
X51256903Y-89892702D01*
X51328486Y-90136671D01*
X51583996Y-90257571D01*
X51858184Y-90326300D01*
X52140512Y-90340217D01*
X52420130Y-90298787D01*
X52686292Y-90203603D01*
X52811514Y-90136671D01*
X52883097Y-89892702D01*
X52070000Y-89079605D01*
X51256903Y-89892702D01*
X48970000Y-89892702D01*
X48970000Y-88970512D01*
X50629783Y-88970512D01*
X50671213Y-89250130D01*
X50766397Y-89516292D01*
X50833329Y-89641514D01*
X51077298Y-89713097D01*
X51890395Y-88900000D01*
X51077298Y-88086903D01*
X50833329Y-88158486D01*
X50712429Y-88413996D01*
X50643700Y-88688184D01*
X50629783Y-88970512D01*
X48970000Y-88970512D01*
X48970000Y-81946136D01*
X49840217Y-81946136D01*
X49888731Y-82378643D01*
X50020328Y-82793490D01*
X50229997Y-83174876D01*
X50509751Y-83508274D01*
X50848934Y-83780984D01*
X51234627Y-83982620D01*
X51652140Y-84105501D01*
X52085568Y-84144946D01*
X52518404Y-84099453D01*
X52934160Y-83970755D01*
X53317000Y-83763754D01*
X53652343Y-83486334D01*
X53927414Y-83149063D01*
X54131738Y-82764787D01*
X54257530Y-82348143D01*
X54300000Y-81915000D01*
X54299131Y-81852735D01*
X54244583Y-81420947D01*
X54107206Y-81007977D01*
X53892233Y-80629556D01*
X53607852Y-80300097D01*
X53264894Y-80032149D01*
X52876423Y-79835918D01*
X52457235Y-79718879D01*
X52023298Y-79685489D01*
X51591140Y-79737021D01*
X51177222Y-79871511D01*
X50797309Y-80083837D01*
X50465872Y-80365912D01*
X50195536Y-80706991D01*
X49996598Y-81094082D01*
X49876636Y-81512442D01*
X49840217Y-81946136D01*
X48970000Y-81946136D01*
X48970000Y-80044728D01*
X48996098Y-79778554D01*
X49063315Y-79555919D01*
X49172495Y-79350581D01*
X49319479Y-79170361D01*
X49498668Y-79022123D01*
X49703240Y-78911511D01*
X49925397Y-78842742D01*
X50189344Y-78815000D01*
X62195123Y-78815000D01*
X62218889Y-78817341D01*
X62156686Y-78967510D01*
X62103000Y-79237408D01*
X62103000Y-79512592D01*
X62156686Y-79782490D01*
X62261995Y-80036727D01*
X62414880Y-80265535D01*
X62609465Y-80460120D01*
X62838273Y-80613005D01*
X63092510Y-80718314D01*
X63362408Y-80772000D01*
X63637592Y-80772000D01*
X63907490Y-80718314D01*
X64161727Y-80613005D01*
X64390535Y-80460120D01*
X64585120Y-80265535D01*
X64738005Y-80036727D01*
X64770000Y-79959485D01*
X64801995Y-80036727D01*
X64954880Y-80265535D01*
X65149465Y-80460120D01*
X65378273Y-80613005D01*
X65632510Y-80718314D01*
X65902408Y-80772000D01*
X66177592Y-80772000D01*
X66447490Y-80718314D01*
X66701727Y-80613005D01*
X66930535Y-80460120D01*
X67125120Y-80265535D01*
X67278005Y-80036727D01*
X67310000Y-79959485D01*
X67341995Y-80036727D01*
X67494880Y-80265535D01*
X67689465Y-80460120D01*
X67918273Y-80613005D01*
X68172510Y-80718314D01*
X68442408Y-80772000D01*
X68717592Y-80772000D01*
X68987490Y-80718314D01*
X69241727Y-80613005D01*
X69470535Y-80460120D01*
X69665120Y-80265535D01*
X69818005Y-80036727D01*
X69850000Y-79959485D01*
X69881995Y-80036727D01*
X70034880Y-80265535D01*
X70229465Y-80460120D01*
X70458273Y-80613005D01*
X70712510Y-80718314D01*
X70982408Y-80772000D01*
X71257592Y-80772000D01*
X71411570Y-80741372D01*
X71826200Y-81156002D01*
X71849999Y-81185001D01*
X71965724Y-81279974D01*
X72097753Y-81350546D01*
X72241014Y-81394003D01*
X72352667Y-81405000D01*
X72352676Y-81405000D01*
X72389999Y-81408676D01*
X72427322Y-81405000D01*
X75885199Y-81405000D01*
X76710001Y-82229803D01*
X76710000Y-85139099D01*
X76668899Y-85161068D01*
X76450392Y-85340392D01*
X76271068Y-85558899D01*
X76200000Y-85691858D01*
X76128932Y-85558899D01*
X75949608Y-85340392D01*
X75731101Y-85161068D01*
X75481808Y-85027818D01*
X75211309Y-84945764D01*
X75000492Y-84925000D01*
X74859508Y-84925000D01*
X74648691Y-84945764D01*
X74378192Y-85027818D01*
X74128899Y-85161068D01*
X73910392Y-85340392D01*
X73731068Y-85558899D01*
X73660000Y-85691858D01*
X73588932Y-85558899D01*
X73409608Y-85340392D01*
X73191101Y-85161068D01*
X72941808Y-85027818D01*
X72671309Y-84945764D01*
X72460492Y-84925000D01*
X72319508Y-84925000D01*
X72108691Y-84945764D01*
X71838192Y-85027818D01*
X71588899Y-85161068D01*
X71370392Y-85340392D01*
X71191068Y-85558899D01*
X71120000Y-85691858D01*
X71048932Y-85558899D01*
X70869608Y-85340392D01*
X70651101Y-85161068D01*
X70401808Y-85027818D01*
X70131309Y-84945764D01*
X69920492Y-84925000D01*
X69779508Y-84925000D01*
X69568691Y-84945764D01*
X69298192Y-85027818D01*
X69048899Y-85161068D01*
X68830392Y-85340392D01*
X68651068Y-85558899D01*
X68580000Y-85691858D01*
X68508932Y-85558899D01*
X68329608Y-85340392D01*
X68111101Y-85161068D01*
X67861808Y-85027818D01*
X67591309Y-84945764D01*
X67380492Y-84925000D01*
X67239508Y-84925000D01*
X67028691Y-84945764D01*
X66758192Y-85027818D01*
X66508899Y-85161068D01*
X66290392Y-85340392D01*
X66111068Y-85558899D01*
X66040000Y-85691858D01*
X65968932Y-85558899D01*
X65789608Y-85340392D01*
X65571101Y-85161068D01*
X65321808Y-85027818D01*
X65051309Y-84945764D01*
X64840492Y-84925000D01*
X64699508Y-84925000D01*
X64488691Y-84945764D01*
X64218192Y-85027818D01*
X63968899Y-85161068D01*
X63750392Y-85340392D01*
X63571068Y-85558899D01*
X63500000Y-85691858D01*
X63428932Y-85558899D01*
X63249608Y-85340392D01*
X63031101Y-85161068D01*
X62781808Y-85027818D01*
X62511309Y-84945764D01*
X62300492Y-84925000D01*
X62159508Y-84925000D01*
X61948691Y-84945764D01*
X61678192Y-85027818D01*
X61428899Y-85161068D01*
X61210392Y-85340392D01*
X61031068Y-85558899D01*
X60960000Y-85691858D01*
X60888932Y-85558899D01*
X60709608Y-85340392D01*
X60491101Y-85161068D01*
X60241808Y-85027818D01*
X59971309Y-84945764D01*
X59760492Y-84925000D01*
X59619508Y-84925000D01*
X59408691Y-84945764D01*
X59138192Y-85027818D01*
X58888899Y-85161068D01*
X58670392Y-85340392D01*
X58491068Y-85558899D01*
X58420000Y-85691858D01*
X58348932Y-85558899D01*
X58169608Y-85340392D01*
X57951101Y-85161068D01*
X57701808Y-85027818D01*
X57431309Y-84945764D01*
X57220492Y-84925000D01*
X57079508Y-84925000D01*
X56868691Y-84945764D01*
X56598192Y-85027818D01*
X56348899Y-85161068D01*
X56130392Y-85340392D01*
X55951068Y-85558899D01*
X55880000Y-85691858D01*
X55808932Y-85558899D01*
X55629608Y-85340392D01*
X55411101Y-85161068D01*
X55161808Y-85027818D01*
X54891309Y-84945764D01*
X54680492Y-84925000D01*
X54539508Y-84925000D01*
X54328691Y-84945764D01*
X54058192Y-85027818D01*
X53808899Y-85161068D01*
X53590392Y-85340392D01*
X53411068Y-85558899D01*
X53340000Y-85691858D01*
X53268932Y-85558899D01*
X53089608Y-85340392D01*
X52871101Y-85161068D01*
X52621808Y-85027818D01*
X52351309Y-84945764D01*
X52140492Y-84925000D01*
X51999508Y-84925000D01*
X51788691Y-84945764D01*
X51518192Y-85027818D01*
X51268899Y-85161068D01*
X51050392Y-85340392D01*
X50871068Y-85558899D01*
X50737818Y-85808192D01*
X50655764Y-86078691D01*
X50628057Y-86360000D01*
X50655764Y-86641309D01*
X50737818Y-86911808D01*
X50871068Y-87161101D01*
X51050392Y-87379608D01*
X51268899Y-87558932D01*
X51396349Y-87627056D01*
X51328486Y-87663329D01*
X51256903Y-87907298D01*
X52070000Y-88720395D01*
X52084143Y-88706253D01*
X52263748Y-88885858D01*
X52249605Y-88900000D01*
X53062702Y-89713097D01*
X53306671Y-89641514D01*
X53427571Y-89386004D01*
X53496300Y-89111816D01*
X53508078Y-88872880D01*
X54681200Y-90046002D01*
X54704999Y-90075001D01*
X54733997Y-90098799D01*
X54820724Y-90169974D01*
X54952753Y-90240546D01*
X55096014Y-90284003D01*
X55245000Y-90298677D01*
X55282333Y-90295000D01*
X63185199Y-90295000D01*
X72460198Y-99570000D01*
X61632333Y-99570000D01*
X61595000Y-99566323D01*
X61557667Y-99570000D01*
X61446014Y-99580997D01*
X61302753Y-99624454D01*
X61170724Y-99695026D01*
X61054999Y-99789999D01*
X61031200Y-99818998D01*
X60463750Y-100386449D01*
X60241808Y-100267818D01*
X59971309Y-100185764D01*
X59760492Y-100165000D01*
X59619508Y-100165000D01*
X59408691Y-100185764D01*
X59138192Y-100267818D01*
X58888899Y-100401068D01*
X58670392Y-100580392D01*
X58491068Y-100798899D01*
X58420000Y-100931858D01*
X58348932Y-100798899D01*
X58169608Y-100580392D01*
X57951101Y-100401068D01*
X57701808Y-100267818D01*
X57431309Y-100185764D01*
X57220492Y-100165000D01*
X57079508Y-100165000D01*
X56868691Y-100185764D01*
X56598192Y-100267818D01*
X56348899Y-100401068D01*
X56130392Y-100580392D01*
X55951068Y-100798899D01*
X55880000Y-100931858D01*
X55808932Y-100798899D01*
X55629608Y-100580392D01*
X55411101Y-100401068D01*
X55161808Y-100267818D01*
X54891309Y-100185764D01*
X54680492Y-100165000D01*
X54539508Y-100165000D01*
X54328691Y-100185764D01*
X54058192Y-100267818D01*
X53808899Y-100401068D01*
X53590392Y-100580392D01*
X53411068Y-100798899D01*
X53340000Y-100931858D01*
X53268932Y-100798899D01*
X53089608Y-100580392D01*
X52871101Y-100401068D01*
X52738142Y-100330000D01*
X52871101Y-100258932D01*
X53089608Y-100079608D01*
X53268932Y-99861101D01*
X53402182Y-99611808D01*
X53484236Y-99341309D01*
X53511943Y-99060000D01*
X53484236Y-98778691D01*
X53402182Y-98508192D01*
X53268932Y-98258899D01*
X53089608Y-98040392D01*
X52871101Y-97861068D01*
X52621808Y-97727818D01*
X52351309Y-97645764D01*
X52140492Y-97625000D01*
X51999508Y-97625000D01*
X51788691Y-97645764D01*
X51518192Y-97727818D01*
X51268899Y-97861068D01*
X51050392Y-98040392D01*
X50871068Y-98258899D01*
X50737818Y-98508192D01*
X50655764Y-98778691D01*
X50628057Y-99060000D01*
X50655764Y-99341309D01*
X50737818Y-99611808D01*
X50871068Y-99861101D01*
X51050392Y-100079608D01*
X51268899Y-100258932D01*
X51401858Y-100330000D01*
X51268899Y-100401068D01*
X51050392Y-100580392D01*
X50871068Y-100798899D01*
X50737818Y-101048192D01*
X50655764Y-101318691D01*
X50628057Y-101600000D01*
X50655764Y-101881309D01*
X50737818Y-102151808D01*
X50871068Y-102401101D01*
X51050392Y-102619608D01*
X51268899Y-102798932D01*
X51310000Y-102820901D01*
X51310001Y-112992668D01*
X51306324Y-113030000D01*
X51310001Y-113067332D01*
X51310001Y-113067333D01*
X51320245Y-113171335D01*
X51320998Y-113178985D01*
X51364454Y-113322246D01*
X51435026Y-113454276D01*
X51493738Y-113525816D01*
X51530000Y-113570001D01*
X51558998Y-113593799D01*
X66111201Y-128146003D01*
X66134999Y-128175001D01*
X66163997Y-128198799D01*
X66250723Y-128269974D01*
X66382753Y-128340546D01*
X66526014Y-128384003D01*
X66637667Y-128395000D01*
X66637676Y-128395000D01*
X66674999Y-128398676D01*
X66712322Y-128395000D01*
X106007678Y-128395000D01*
X106045000Y-128398676D01*
X106082322Y-128395000D01*
X106082333Y-128395000D01*
X106193986Y-128384003D01*
X106337247Y-128340546D01*
X106469276Y-128269974D01*
X106585001Y-128175001D01*
X106608804Y-128145997D01*
X115343666Y-119411136D01*
X136200217Y-119411136D01*
X136248731Y-119843643D01*
X136380328Y-120258490D01*
X136589997Y-120639876D01*
X136869751Y-120973274D01*
X137208934Y-121245984D01*
X137594627Y-121447620D01*
X138012140Y-121570501D01*
X138445568Y-121609946D01*
X138878404Y-121564453D01*
X139294160Y-121435755D01*
X139677000Y-121228754D01*
X140012343Y-120951334D01*
X140287414Y-120614063D01*
X140491738Y-120229787D01*
X140617530Y-119813143D01*
X140660000Y-119380000D01*
X140659131Y-119317735D01*
X140604583Y-118885947D01*
X140467206Y-118472977D01*
X140252233Y-118094556D01*
X139967852Y-117765097D01*
X139624894Y-117497149D01*
X139236423Y-117300918D01*
X138817235Y-117183879D01*
X138383298Y-117150489D01*
X137951140Y-117202021D01*
X137537222Y-117336511D01*
X137157309Y-117548837D01*
X136825872Y-117830912D01*
X136555536Y-118171991D01*
X136356598Y-118559082D01*
X136236636Y-118977442D01*
X136200217Y-119411136D01*
X115343666Y-119411136D01*
X117154803Y-117600000D01*
X119977678Y-117600000D01*
X120015000Y-117603676D01*
X120052322Y-117600000D01*
X120052333Y-117600000D01*
X120163986Y-117589003D01*
X120307247Y-117545546D01*
X120439276Y-117474974D01*
X120555001Y-117380001D01*
X120578803Y-117350998D01*
X121006307Y-116923495D01*
X121057490Y-116913314D01*
X121311727Y-116808005D01*
X121540535Y-116655120D01*
X121735120Y-116460535D01*
X121888005Y-116231727D01*
X121993314Y-115977490D01*
X122047000Y-115707592D01*
X122047000Y-115432408D01*
X121993314Y-115162510D01*
X121950853Y-115060000D01*
X124145199Y-115060000D01*
X125166200Y-116081002D01*
X125189999Y-116110001D01*
X125305724Y-116204974D01*
X125437753Y-116275546D01*
X125581014Y-116319003D01*
X125692667Y-116330000D01*
X125692676Y-116330000D01*
X125729999Y-116333676D01*
X125767322Y-116330000D01*
X127097659Y-116330000D01*
X127184880Y-116460535D01*
X127379465Y-116655120D01*
X127608273Y-116808005D01*
X127862510Y-116913314D01*
X128132408Y-116967000D01*
X128407592Y-116967000D01*
X128677490Y-116913314D01*
X128931727Y-116808005D01*
X129160535Y-116655120D01*
X129355120Y-116460535D01*
X129508005Y-116231727D01*
X129540000Y-116154485D01*
X129571995Y-116231727D01*
X129724880Y-116460535D01*
X129919465Y-116655120D01*
X130148273Y-116808005D01*
X130402510Y-116913314D01*
X130672408Y-116967000D01*
X130947592Y-116967000D01*
X131217490Y-116913314D01*
X131471727Y-116808005D01*
X131700535Y-116655120D01*
X131895120Y-116460535D01*
X131953920Y-116372535D01*
X131962188Y-116456482D01*
X131998498Y-116576180D01*
X132057463Y-116686494D01*
X132136815Y-116783185D01*
X132233506Y-116862537D01*
X132343820Y-116921502D01*
X132463518Y-116957812D01*
X132588000Y-116970072D01*
X133064250Y-116967000D01*
X133223000Y-116808250D01*
X133223000Y-115697000D01*
X133477000Y-115697000D01*
X133477000Y-116808250D01*
X133635750Y-116967000D01*
X134112000Y-116970072D01*
X134236482Y-116957812D01*
X134356180Y-116921502D01*
X134466494Y-116862537D01*
X134563185Y-116783185D01*
X134642537Y-116686494D01*
X134701502Y-116576180D01*
X134737812Y-116456482D01*
X134750072Y-116332000D01*
X134747000Y-115855750D01*
X134588250Y-115697000D01*
X133477000Y-115697000D01*
X133223000Y-115697000D01*
X133203000Y-115697000D01*
X133203000Y-115443000D01*
X133223000Y-115443000D01*
X133223000Y-114331750D01*
X133477000Y-114331750D01*
X133477000Y-115443000D01*
X134588250Y-115443000D01*
X134747000Y-115284250D01*
X134750072Y-114808000D01*
X134737812Y-114683518D01*
X134701502Y-114563820D01*
X134642537Y-114453506D01*
X134563185Y-114356815D01*
X134466494Y-114277463D01*
X134356180Y-114218498D01*
X134236482Y-114182188D01*
X134112000Y-114169928D01*
X133635750Y-114173000D01*
X133477000Y-114331750D01*
X133223000Y-114331750D01*
X133064250Y-114173000D01*
X132588000Y-114169928D01*
X132463518Y-114182188D01*
X132343820Y-114218498D01*
X132233506Y-114277463D01*
X132136815Y-114356815D01*
X132057463Y-114453506D01*
X131998498Y-114563820D01*
X131962188Y-114683518D01*
X131953920Y-114767465D01*
X131895120Y-114679465D01*
X131700535Y-114484880D01*
X131471727Y-114331995D01*
X131217490Y-114226686D01*
X130947592Y-114173000D01*
X130672408Y-114173000D01*
X130402510Y-114226686D01*
X130148273Y-114331995D01*
X129919465Y-114484880D01*
X129724880Y-114679465D01*
X129571995Y-114908273D01*
X129540000Y-114985515D01*
X129508005Y-114908273D01*
X129355120Y-114679465D01*
X129160535Y-114484880D01*
X128931727Y-114331995D01*
X128677490Y-114226686D01*
X128407592Y-114173000D01*
X128132408Y-114173000D01*
X127862510Y-114226686D01*
X127608273Y-114331995D01*
X127379465Y-114484880D01*
X127184880Y-114679465D01*
X127097659Y-114810000D01*
X126044802Y-114810000D01*
X125023804Y-113789003D01*
X125000001Y-113759999D01*
X124884276Y-113665026D01*
X124752247Y-113594454D01*
X124608986Y-113550997D01*
X124497333Y-113540000D01*
X124497322Y-113540000D01*
X124460000Y-113536324D01*
X124422678Y-113540000D01*
X101674864Y-113540000D01*
X101744236Y-113311309D01*
X101771943Y-113030000D01*
X101744236Y-112748691D01*
X101662182Y-112478192D01*
X101528932Y-112228899D01*
X101349608Y-112010392D01*
X101131101Y-111831068D01*
X100881808Y-111697818D01*
X100611309Y-111615764D01*
X100400492Y-111595000D01*
X100259508Y-111595000D01*
X100048691Y-111615764D01*
X99778192Y-111697818D01*
X99528899Y-111831068D01*
X99310392Y-112010392D01*
X99131068Y-112228899D01*
X98997818Y-112478192D01*
X98915764Y-112748691D01*
X98888057Y-113030000D01*
X98915764Y-113311309D01*
X98985136Y-113540000D01*
X91511983Y-113540000D01*
X91549853Y-113448574D01*
X91605000Y-113171335D01*
X91605000Y-112888665D01*
X91549853Y-112611426D01*
X91441680Y-112350273D01*
X91284637Y-112115241D01*
X91084759Y-111915363D01*
X90849727Y-111758320D01*
X90588574Y-111650147D01*
X90311335Y-111595000D01*
X90028665Y-111595000D01*
X89751426Y-111650147D01*
X89490273Y-111758320D01*
X89255241Y-111915363D01*
X89055363Y-112115241D01*
X88898320Y-112350273D01*
X88790147Y-112611426D01*
X88735000Y-112888665D01*
X88735000Y-113171335D01*
X88790147Y-113448574D01*
X88828017Y-113540000D01*
X87137338Y-113540000D01*
X87164502Y-113489180D01*
X87200812Y-113369482D01*
X87213072Y-113245000D01*
X87210000Y-112680750D01*
X87051250Y-112522000D01*
X85852000Y-112522000D01*
X85852000Y-112542000D01*
X85598000Y-112542000D01*
X85598000Y-112522000D01*
X84398750Y-112522000D01*
X84240000Y-112680750D01*
X84236928Y-113245000D01*
X84249188Y-113369482D01*
X84285498Y-113489180D01*
X84312662Y-113540000D01*
X82864802Y-113540000D01*
X82478803Y-113154002D01*
X82455001Y-113124999D01*
X82339276Y-113030026D01*
X82207247Y-112959454D01*
X82063986Y-112915997D01*
X81952333Y-112905000D01*
X81952322Y-112905000D01*
X81915000Y-112901324D01*
X81877678Y-112905000D01*
X78419802Y-112905000D01*
X77595000Y-112080199D01*
X77595000Y-107315000D01*
X84232815Y-107315000D01*
X84261487Y-107606111D01*
X84346401Y-107886034D01*
X84484294Y-108144014D01*
X84669866Y-108370134D01*
X84895986Y-108555706D01*
X84950791Y-108585000D01*
X84895986Y-108614294D01*
X84669866Y-108799866D01*
X84484294Y-109025986D01*
X84346401Y-109283966D01*
X84261487Y-109563889D01*
X84232815Y-109855000D01*
X84261487Y-110146111D01*
X84346401Y-110426034D01*
X84484294Y-110684014D01*
X84669866Y-110910134D01*
X84699687Y-110934607D01*
X84630820Y-110955498D01*
X84520506Y-111014463D01*
X84423815Y-111093815D01*
X84344463Y-111190506D01*
X84285498Y-111300820D01*
X84249188Y-111420518D01*
X84236928Y-111545000D01*
X84240000Y-112109250D01*
X84398750Y-112268000D01*
X85598000Y-112268000D01*
X85598000Y-112248000D01*
X85852000Y-112248000D01*
X85852000Y-112268000D01*
X87051250Y-112268000D01*
X87210000Y-112109250D01*
X87213072Y-111545000D01*
X87200812Y-111420518D01*
X87164502Y-111300820D01*
X87105537Y-111190506D01*
X87026185Y-111093815D01*
X86929494Y-111014463D01*
X86819180Y-110955498D01*
X86750313Y-110934607D01*
X86780134Y-110910134D01*
X86965706Y-110684014D01*
X87103599Y-110426034D01*
X87188513Y-110146111D01*
X87217185Y-109855000D01*
X87203265Y-109713665D01*
X88735000Y-109713665D01*
X88735000Y-109996335D01*
X88790147Y-110273574D01*
X88898320Y-110534727D01*
X89055363Y-110769759D01*
X89255241Y-110969637D01*
X89490273Y-111126680D01*
X89751426Y-111234853D01*
X90028665Y-111290000D01*
X90311335Y-111290000D01*
X90588574Y-111234853D01*
X90849727Y-111126680D01*
X91084759Y-110969637D01*
X91284637Y-110769759D01*
X91441680Y-110534727D01*
X91549853Y-110273574D01*
X91605000Y-109996335D01*
X91605000Y-109855000D01*
X98888057Y-109855000D01*
X98915764Y-110136309D01*
X98997818Y-110406808D01*
X99131068Y-110656101D01*
X99310392Y-110874608D01*
X99528899Y-111053932D01*
X99778192Y-111187182D01*
X100048691Y-111269236D01*
X100259508Y-111290000D01*
X100400492Y-111290000D01*
X100611309Y-111269236D01*
X100881808Y-111187182D01*
X101131101Y-111053932D01*
X101349608Y-110874608D01*
X101528932Y-110656101D01*
X101662182Y-110406808D01*
X101744236Y-110136309D01*
X101771943Y-109855000D01*
X101744236Y-109573691D01*
X101662182Y-109303192D01*
X101528932Y-109053899D01*
X101349608Y-108835392D01*
X101131101Y-108656068D01*
X100881808Y-108522818D01*
X100611309Y-108440764D01*
X100400492Y-108420000D01*
X100259508Y-108420000D01*
X100048691Y-108440764D01*
X99778192Y-108522818D01*
X99528899Y-108656068D01*
X99310392Y-108835392D01*
X99131068Y-109053899D01*
X98997818Y-109303192D01*
X98915764Y-109573691D01*
X98888057Y-109855000D01*
X91605000Y-109855000D01*
X91605000Y-109713665D01*
X91549853Y-109436426D01*
X91441680Y-109175273D01*
X91284637Y-108940241D01*
X91084759Y-108740363D01*
X90849727Y-108583320D01*
X90588574Y-108475147D01*
X90311335Y-108420000D01*
X90028665Y-108420000D01*
X89751426Y-108475147D01*
X89490273Y-108583320D01*
X89255241Y-108740363D01*
X89055363Y-108940241D01*
X88898320Y-109175273D01*
X88790147Y-109436426D01*
X88735000Y-109713665D01*
X87203265Y-109713665D01*
X87188513Y-109563889D01*
X87103599Y-109283966D01*
X86965706Y-109025986D01*
X86780134Y-108799866D01*
X86554014Y-108614294D01*
X86499209Y-108585000D01*
X86554014Y-108555706D01*
X86780134Y-108370134D01*
X86965706Y-108144014D01*
X87103599Y-107886034D01*
X87188513Y-107606111D01*
X87217185Y-107315000D01*
X87188513Y-107023889D01*
X87103599Y-106743966D01*
X86965706Y-106485986D01*
X86780134Y-106259866D01*
X86554014Y-106074294D01*
X86296034Y-105936401D01*
X86016111Y-105851487D01*
X85797950Y-105830000D01*
X85652050Y-105830000D01*
X85433889Y-105851487D01*
X85153966Y-105936401D01*
X84895986Y-106074294D01*
X84669866Y-106259866D01*
X84484294Y-106485986D01*
X84346401Y-106743966D01*
X84261487Y-107023889D01*
X84232815Y-107315000D01*
X77595000Y-107315000D01*
X77595000Y-103681171D01*
X77981002Y-103295170D01*
X78010001Y-103271371D01*
X78104974Y-103155646D01*
X78175546Y-103023617D01*
X78219003Y-102880356D01*
X78224573Y-102823802D01*
X78271101Y-102798932D01*
X78489608Y-102619608D01*
X78668932Y-102401101D01*
X78740000Y-102268142D01*
X78811068Y-102401101D01*
X78990392Y-102619608D01*
X79208899Y-102798932D01*
X79458192Y-102932182D01*
X79728691Y-103014236D01*
X79939508Y-103035000D01*
X80080492Y-103035000D01*
X80291309Y-103014236D01*
X80561808Y-102932182D01*
X80811101Y-102798932D01*
X81029608Y-102619608D01*
X81208932Y-102401101D01*
X81280000Y-102268142D01*
X81351068Y-102401101D01*
X81530392Y-102619608D01*
X81748899Y-102798932D01*
X81998192Y-102932182D01*
X82268691Y-103014236D01*
X82479508Y-103035000D01*
X82620492Y-103035000D01*
X82831309Y-103014236D01*
X83101808Y-102932182D01*
X83351101Y-102798932D01*
X83569608Y-102619608D01*
X83748932Y-102401101D01*
X83822579Y-102263318D01*
X83937615Y-102455131D01*
X84126586Y-102663519D01*
X84352580Y-102831037D01*
X84606913Y-102951246D01*
X84740961Y-102991904D01*
X84963000Y-102869915D01*
X84963000Y-101727000D01*
X84943000Y-101727000D01*
X84943000Y-101473000D01*
X84963000Y-101473000D01*
X84963000Y-100330085D01*
X84740961Y-100208096D01*
X84637902Y-100239355D01*
X84734759Y-100174637D01*
X84934637Y-99974759D01*
X85091680Y-99739727D01*
X85199853Y-99478574D01*
X85255000Y-99201335D01*
X85255000Y-98918665D01*
X85199853Y-98641426D01*
X85091680Y-98380273D01*
X84934637Y-98145241D01*
X84734759Y-97945363D01*
X84499727Y-97788320D01*
X84238574Y-97680147D01*
X83961335Y-97625000D01*
X83678665Y-97625000D01*
X83496114Y-97661312D01*
X83114801Y-97280000D01*
X84775199Y-97280000D01*
X86231312Y-98736114D01*
X86195000Y-98918665D01*
X86195000Y-99201335D01*
X86250147Y-99478574D01*
X86358320Y-99739727D01*
X86515363Y-99974759D01*
X86715241Y-100174637D01*
X86950273Y-100331680D01*
X86955029Y-100333650D01*
X86828899Y-100401068D01*
X86610392Y-100580392D01*
X86431068Y-100798899D01*
X86357421Y-100936682D01*
X86242385Y-100744869D01*
X86053414Y-100536481D01*
X85827420Y-100368963D01*
X85573087Y-100248754D01*
X85439039Y-100208096D01*
X85217000Y-100330085D01*
X85217000Y-101473000D01*
X85237000Y-101473000D01*
X85237000Y-101727000D01*
X85217000Y-101727000D01*
X85217000Y-102869915D01*
X85439039Y-102991904D01*
X85573087Y-102951246D01*
X85827420Y-102831037D01*
X86053414Y-102663519D01*
X86242385Y-102455131D01*
X86357421Y-102263318D01*
X86431068Y-102401101D01*
X86610392Y-102619608D01*
X86828899Y-102798932D01*
X87078192Y-102932182D01*
X87348691Y-103014236D01*
X87559508Y-103035000D01*
X87700492Y-103035000D01*
X87911309Y-103014236D01*
X88181808Y-102932182D01*
X88431101Y-102798932D01*
X88649608Y-102619608D01*
X88828932Y-102401101D01*
X88962182Y-102151808D01*
X89044236Y-101881309D01*
X89071943Y-101600000D01*
X89044236Y-101318691D01*
X88962182Y-101048192D01*
X88828932Y-100798899D01*
X88649608Y-100580392D01*
X88431101Y-100401068D01*
X88304971Y-100333650D01*
X88309727Y-100331680D01*
X88544759Y-100174637D01*
X88744637Y-99974759D01*
X88901680Y-99739727D01*
X89009853Y-99478574D01*
X89065000Y-99201335D01*
X89065000Y-98918665D01*
X89009853Y-98641426D01*
X88901680Y-98380273D01*
X88744637Y-98145241D01*
X88544759Y-97945363D01*
X88309727Y-97788320D01*
X88048574Y-97680147D01*
X87771335Y-97625000D01*
X87488665Y-97625000D01*
X87306114Y-97661312D01*
X85653804Y-96009003D01*
X85630001Y-95979999D01*
X85514276Y-95885026D01*
X85382247Y-95814454D01*
X85238986Y-95770997D01*
X85127333Y-95760000D01*
X85127322Y-95760000D01*
X85090000Y-95756324D01*
X85052678Y-95760000D01*
X75879802Y-95760000D01*
X74861802Y-94742000D01*
X128139928Y-94742000D01*
X128152188Y-94866482D01*
X128188498Y-94986180D01*
X128247463Y-95096494D01*
X128326815Y-95193185D01*
X128423506Y-95272537D01*
X128533820Y-95331502D01*
X128653518Y-95367812D01*
X128778000Y-95380072D01*
X129254250Y-95377000D01*
X129413000Y-95218250D01*
X129413000Y-94107000D01*
X129667000Y-94107000D01*
X129667000Y-95218250D01*
X129825750Y-95377000D01*
X130302000Y-95380072D01*
X130426482Y-95367812D01*
X130546180Y-95331502D01*
X130656494Y-95272537D01*
X130753185Y-95193185D01*
X130832537Y-95096494D01*
X130891502Y-94986180D01*
X130927812Y-94866482D01*
X130940072Y-94742000D01*
X130937000Y-94265750D01*
X130778250Y-94107000D01*
X129667000Y-94107000D01*
X129413000Y-94107000D01*
X128301750Y-94107000D01*
X128143000Y-94265750D01*
X128139928Y-94742000D01*
X74861802Y-94742000D01*
X74289181Y-94169379D01*
X74319774Y-94148938D01*
X74463937Y-94004775D01*
X74577205Y-93835257D01*
X74655226Y-93646899D01*
X74695000Y-93446940D01*
X74695000Y-93243062D01*
X74690015Y-93218000D01*
X128139928Y-93218000D01*
X128143000Y-93694250D01*
X128301750Y-93853000D01*
X129413000Y-93853000D01*
X129413000Y-92741750D01*
X129667000Y-92741750D01*
X129667000Y-93853000D01*
X130778250Y-93853000D01*
X130937000Y-93694250D01*
X130940072Y-93218000D01*
X130927812Y-93093518D01*
X130891502Y-92973820D01*
X130832537Y-92863506D01*
X130753185Y-92766815D01*
X130656494Y-92687463D01*
X130546180Y-92628498D01*
X130426482Y-92592188D01*
X130302000Y-92579928D01*
X129825750Y-92583000D01*
X129667000Y-92741750D01*
X129413000Y-92741750D01*
X129254250Y-92583000D01*
X128778000Y-92579928D01*
X128653518Y-92592188D01*
X128533820Y-92628498D01*
X128423506Y-92687463D01*
X128326815Y-92766815D01*
X128247463Y-92863506D01*
X128188498Y-92973820D01*
X128152188Y-93093518D01*
X128139928Y-93218000D01*
X74690015Y-93218000D01*
X74655226Y-93043103D01*
X74577205Y-92854745D01*
X74463937Y-92685227D01*
X74319774Y-92541064D01*
X74150256Y-92427796D01*
X73961898Y-92349775D01*
X73761939Y-92310001D01*
X73699802Y-92310001D01*
X70610000Y-89220200D01*
X70610000Y-88579801D01*
X71616250Y-87573552D01*
X71838192Y-87692182D01*
X72108691Y-87774236D01*
X72319508Y-87795000D01*
X72460492Y-87795000D01*
X72671309Y-87774236D01*
X72941808Y-87692182D01*
X73191101Y-87558932D01*
X73409608Y-87379608D01*
X73588932Y-87161101D01*
X73660000Y-87028142D01*
X73731068Y-87161101D01*
X73910392Y-87379608D01*
X74128899Y-87558932D01*
X74378192Y-87692182D01*
X74648691Y-87774236D01*
X74859508Y-87795000D01*
X75000492Y-87795000D01*
X75211309Y-87774236D01*
X75367461Y-87726868D01*
X75180392Y-87880392D01*
X75001068Y-88098899D01*
X74867818Y-88348192D01*
X74785764Y-88618691D01*
X74758057Y-88900000D01*
X74785764Y-89181309D01*
X74867818Y-89451808D01*
X75001068Y-89701101D01*
X75180392Y-89919608D01*
X75398899Y-90098932D01*
X75648192Y-90232182D01*
X75918691Y-90314236D01*
X76129508Y-90335000D01*
X76270492Y-90335000D01*
X76481309Y-90314236D01*
X76751808Y-90232182D01*
X77001101Y-90098932D01*
X77219608Y-89919608D01*
X77330078Y-89785000D01*
X78879922Y-89785000D01*
X78990392Y-89919608D01*
X79208899Y-90098932D01*
X79458192Y-90232182D01*
X79728691Y-90314236D01*
X79939508Y-90335000D01*
X80080492Y-90335000D01*
X80291309Y-90314236D01*
X80561808Y-90232182D01*
X80811101Y-90098932D01*
X81029608Y-89919608D01*
X81140078Y-89785000D01*
X82689922Y-89785000D01*
X82800392Y-89919608D01*
X83018899Y-90098932D01*
X83268192Y-90232182D01*
X83538691Y-90314236D01*
X83749508Y-90335000D01*
X83890492Y-90335000D01*
X84101309Y-90314236D01*
X84371808Y-90232182D01*
X84621101Y-90098932D01*
X84839608Y-89919608D01*
X84950078Y-89785000D01*
X86499922Y-89785000D01*
X86610392Y-89919608D01*
X86828899Y-90098932D01*
X87078192Y-90232182D01*
X87348691Y-90314236D01*
X87559508Y-90335000D01*
X87700492Y-90335000D01*
X87911309Y-90314236D01*
X87968129Y-90297000D01*
X91944928Y-90297000D01*
X91957188Y-90421482D01*
X91993498Y-90541180D01*
X92052463Y-90651494D01*
X92131815Y-90748185D01*
X92228506Y-90827537D01*
X92338820Y-90886502D01*
X92458518Y-90922812D01*
X92583000Y-90935072D01*
X93059250Y-90932000D01*
X93218000Y-90773250D01*
X93218000Y-89662000D01*
X92106750Y-89662000D01*
X91948000Y-89820750D01*
X91944928Y-90297000D01*
X87968129Y-90297000D01*
X88181808Y-90232182D01*
X88431101Y-90098932D01*
X88649608Y-89919608D01*
X88828932Y-89701101D01*
X88962182Y-89451808D01*
X89044236Y-89181309D01*
X89071943Y-88900000D01*
X89059435Y-88773000D01*
X91944928Y-88773000D01*
X91948000Y-89249250D01*
X92106750Y-89408000D01*
X93218000Y-89408000D01*
X93218000Y-88296750D01*
X93472000Y-88296750D01*
X93472000Y-89408000D01*
X93492000Y-89408000D01*
X93492000Y-89662000D01*
X93472000Y-89662000D01*
X93472000Y-90773250D01*
X93630750Y-90932000D01*
X94107000Y-90935072D01*
X94231482Y-90922812D01*
X94351180Y-90886502D01*
X94461494Y-90827537D01*
X94558185Y-90748185D01*
X94637537Y-90651494D01*
X94696502Y-90541180D01*
X94732812Y-90421482D01*
X94741080Y-90337535D01*
X94799880Y-90425535D01*
X94994465Y-90620120D01*
X95223273Y-90773005D01*
X95477510Y-90878314D01*
X95747408Y-90932000D01*
X96022592Y-90932000D01*
X96292490Y-90878314D01*
X96546727Y-90773005D01*
X96775535Y-90620120D01*
X96970120Y-90425535D01*
X97123005Y-90196727D01*
X97155000Y-90119485D01*
X97186995Y-90196727D01*
X97339880Y-90425535D01*
X97534465Y-90620120D01*
X97763273Y-90773005D01*
X98017510Y-90878314D01*
X98287408Y-90932000D01*
X98562592Y-90932000D01*
X98832490Y-90878314D01*
X99086727Y-90773005D01*
X99315535Y-90620120D01*
X99510120Y-90425535D01*
X99663005Y-90196727D01*
X99695000Y-90119485D01*
X99726995Y-90196727D01*
X99879880Y-90425535D01*
X100074465Y-90620120D01*
X100303273Y-90773005D01*
X100557510Y-90878314D01*
X100827408Y-90932000D01*
X101102592Y-90932000D01*
X101372490Y-90878314D01*
X101626727Y-90773005D01*
X101855535Y-90620120D01*
X102050120Y-90425535D01*
X102203005Y-90196727D01*
X102235000Y-90119485D01*
X102266995Y-90196727D01*
X102419880Y-90425535D01*
X102614465Y-90620120D01*
X102843273Y-90773005D01*
X103097510Y-90878314D01*
X103367408Y-90932000D01*
X103642592Y-90932000D01*
X103912490Y-90878314D01*
X104166727Y-90773005D01*
X104395535Y-90620120D01*
X104590120Y-90425535D01*
X104743005Y-90196727D01*
X104775000Y-90119485D01*
X104806995Y-90196727D01*
X104959880Y-90425535D01*
X105154465Y-90620120D01*
X105383273Y-90773005D01*
X105637510Y-90878314D01*
X105907408Y-90932000D01*
X106182592Y-90932000D01*
X106452490Y-90878314D01*
X106706727Y-90773005D01*
X106935535Y-90620120D01*
X107130120Y-90425535D01*
X107283005Y-90196727D01*
X107315000Y-90119485D01*
X107346995Y-90196727D01*
X107499880Y-90425535D01*
X107694465Y-90620120D01*
X107923273Y-90773005D01*
X108177510Y-90878314D01*
X108447408Y-90932000D01*
X108722592Y-90932000D01*
X108992490Y-90878314D01*
X109246727Y-90773005D01*
X109475535Y-90620120D01*
X109670120Y-90425535D01*
X109823005Y-90196727D01*
X109855000Y-90119485D01*
X109886995Y-90196727D01*
X110039880Y-90425535D01*
X110234465Y-90620120D01*
X110463273Y-90773005D01*
X110717510Y-90878314D01*
X110987408Y-90932000D01*
X111262592Y-90932000D01*
X111532490Y-90878314D01*
X111786727Y-90773005D01*
X112015535Y-90620120D01*
X112210120Y-90425535D01*
X112363005Y-90196727D01*
X112468314Y-89942490D01*
X112522000Y-89672592D01*
X112522000Y-89397408D01*
X112468314Y-89127510D01*
X112363005Y-88873273D01*
X112210120Y-88644465D01*
X112015535Y-88449880D01*
X111786727Y-88296995D01*
X111532490Y-88191686D01*
X111262592Y-88138000D01*
X110987408Y-88138000D01*
X110717510Y-88191686D01*
X110463273Y-88296995D01*
X110234465Y-88449880D01*
X110039880Y-88644465D01*
X109886995Y-88873273D01*
X109855000Y-88950515D01*
X109823005Y-88873273D01*
X109670120Y-88644465D01*
X109475535Y-88449880D01*
X109246727Y-88296995D01*
X108992490Y-88191686D01*
X108722592Y-88138000D01*
X108447408Y-88138000D01*
X108177510Y-88191686D01*
X107923273Y-88296995D01*
X107694465Y-88449880D01*
X107499880Y-88644465D01*
X107346995Y-88873273D01*
X107315000Y-88950515D01*
X107283005Y-88873273D01*
X107130120Y-88644465D01*
X106935535Y-88449880D01*
X106706727Y-88296995D01*
X106452490Y-88191686D01*
X106182592Y-88138000D01*
X105907408Y-88138000D01*
X105637510Y-88191686D01*
X105383273Y-88296995D01*
X105154465Y-88449880D01*
X104959880Y-88644465D01*
X104806995Y-88873273D01*
X104775000Y-88950515D01*
X104743005Y-88873273D01*
X104590120Y-88644465D01*
X104395535Y-88449880D01*
X104166727Y-88296995D01*
X103912490Y-88191686D01*
X103642592Y-88138000D01*
X103367408Y-88138000D01*
X103097510Y-88191686D01*
X102843273Y-88296995D01*
X102614465Y-88449880D01*
X102419880Y-88644465D01*
X102266995Y-88873273D01*
X102235000Y-88950515D01*
X102203005Y-88873273D01*
X102050120Y-88644465D01*
X101855535Y-88449880D01*
X101626727Y-88296995D01*
X101372490Y-88191686D01*
X101102592Y-88138000D01*
X100827408Y-88138000D01*
X100557510Y-88191686D01*
X100303273Y-88296995D01*
X100074465Y-88449880D01*
X99879880Y-88644465D01*
X99726995Y-88873273D01*
X99695000Y-88950515D01*
X99663005Y-88873273D01*
X99510120Y-88644465D01*
X99315535Y-88449880D01*
X99086727Y-88296995D01*
X98832490Y-88191686D01*
X98562592Y-88138000D01*
X98287408Y-88138000D01*
X98017510Y-88191686D01*
X97763273Y-88296995D01*
X97534465Y-88449880D01*
X97339880Y-88644465D01*
X97186995Y-88873273D01*
X97155000Y-88950515D01*
X97123005Y-88873273D01*
X96970120Y-88644465D01*
X96775535Y-88449880D01*
X96546727Y-88296995D01*
X96292490Y-88191686D01*
X96022592Y-88138000D01*
X95747408Y-88138000D01*
X95477510Y-88191686D01*
X95223273Y-88296995D01*
X94994465Y-88449880D01*
X94799880Y-88644465D01*
X94741080Y-88732465D01*
X94732812Y-88648518D01*
X94696502Y-88528820D01*
X94637537Y-88418506D01*
X94558185Y-88321815D01*
X94461494Y-88242463D01*
X94351180Y-88183498D01*
X94231482Y-88147188D01*
X94107000Y-88134928D01*
X93630750Y-88138000D01*
X93472000Y-88296750D01*
X93218000Y-88296750D01*
X93059250Y-88138000D01*
X92583000Y-88134928D01*
X92458518Y-88147188D01*
X92338820Y-88183498D01*
X92228506Y-88242463D01*
X92131815Y-88321815D01*
X92052463Y-88418506D01*
X91993498Y-88528820D01*
X91957188Y-88648518D01*
X91944928Y-88773000D01*
X89059435Y-88773000D01*
X89044236Y-88618691D01*
X88962182Y-88348192D01*
X88828932Y-88098899D01*
X88649608Y-87880392D01*
X88536518Y-87787581D01*
X88554482Y-87785812D01*
X88674180Y-87749502D01*
X88784494Y-87690537D01*
X88881185Y-87611185D01*
X88960537Y-87514494D01*
X89019502Y-87404180D01*
X89055812Y-87284482D01*
X89068072Y-87160000D01*
X89068072Y-85560000D01*
X89055812Y-85435518D01*
X89019502Y-85315820D01*
X88960537Y-85205506D01*
X88881185Y-85108815D01*
X88784494Y-85029463D01*
X88674180Y-84970498D01*
X88554482Y-84934188D01*
X88430000Y-84921928D01*
X86830000Y-84921928D01*
X86705518Y-84934188D01*
X86585820Y-84970498D01*
X86475506Y-85029463D01*
X86378815Y-85108815D01*
X86299463Y-85205506D01*
X86240498Y-85315820D01*
X86204188Y-85435518D01*
X86202419Y-85453482D01*
X86109608Y-85340392D01*
X85891101Y-85161068D01*
X85641808Y-85027818D01*
X85371309Y-84945764D01*
X85160492Y-84925000D01*
X85019508Y-84925000D01*
X84808691Y-84945764D01*
X84538192Y-85027818D01*
X84288899Y-85161068D01*
X84070392Y-85340392D01*
X83891068Y-85558899D01*
X83820000Y-85691858D01*
X83748932Y-85558899D01*
X83569608Y-85340392D01*
X83351101Y-85161068D01*
X83101808Y-85027818D01*
X82831309Y-84945764D01*
X82620492Y-84925000D01*
X82479508Y-84925000D01*
X82268691Y-84945764D01*
X81998192Y-85027818D01*
X81748899Y-85161068D01*
X81530392Y-85340392D01*
X81351068Y-85558899D01*
X81277421Y-85696682D01*
X81162385Y-85504869D01*
X80973414Y-85296481D01*
X80747420Y-85128963D01*
X80493087Y-85008754D01*
X80359039Y-84968096D01*
X80137000Y-85090085D01*
X80137000Y-86233000D01*
X80157000Y-86233000D01*
X80157000Y-86487000D01*
X80137000Y-86487000D01*
X80137000Y-86507000D01*
X79883000Y-86507000D01*
X79883000Y-86487000D01*
X79863000Y-86487000D01*
X79863000Y-86233000D01*
X79883000Y-86233000D01*
X79883000Y-85090085D01*
X79660961Y-84968096D01*
X79526913Y-85008754D01*
X79272580Y-85128963D01*
X79046586Y-85296481D01*
X78857615Y-85504869D01*
X78742579Y-85696682D01*
X78668932Y-85558899D01*
X78489608Y-85340392D01*
X78271101Y-85161068D01*
X78230000Y-85139099D01*
X78230000Y-81952322D01*
X78233676Y-81914999D01*
X78230000Y-81877676D01*
X78230000Y-81877667D01*
X78219003Y-81766014D01*
X78175546Y-81622753D01*
X78104974Y-81490724D01*
X78010001Y-81374999D01*
X77981003Y-81351201D01*
X77304011Y-80674209D01*
X77316494Y-80667537D01*
X77413185Y-80588185D01*
X77477010Y-80510413D01*
X82944192Y-80510413D01*
X83039956Y-80774814D01*
X83329571Y-80915704D01*
X83641108Y-80997384D01*
X83962595Y-81016718D01*
X84281675Y-80972961D01*
X84586088Y-80867795D01*
X84760044Y-80774814D01*
X84855808Y-80510413D01*
X83900000Y-79554605D01*
X82944192Y-80510413D01*
X77477010Y-80510413D01*
X77492537Y-80491494D01*
X77551502Y-80381180D01*
X77587812Y-80261482D01*
X77600072Y-80137000D01*
X77597000Y-79660750D01*
X77438250Y-79502000D01*
X76327000Y-79502000D01*
X76327000Y-79522000D01*
X76073000Y-79522000D01*
X76073000Y-79502000D01*
X76053000Y-79502000D01*
X76053000Y-79248000D01*
X76073000Y-79248000D01*
X76073000Y-79228000D01*
X76327000Y-79228000D01*
X76327000Y-79248000D01*
X77438250Y-79248000D01*
X77597000Y-79089250D01*
X77600072Y-78613000D01*
X77599284Y-78605000D01*
X82456382Y-78605000D01*
X82359296Y-78804571D01*
G36*
X68651068Y-102401101D02*
G01*
X68830392Y-102619608D01*
X69048899Y-102798932D01*
X69298192Y-102932182D01*
X69568691Y-103014236D01*
X69779508Y-103035000D01*
X69920492Y-103035000D01*
X70131309Y-103014236D01*
X70175906Y-103000708D01*
X70556200Y-103381002D01*
X70579999Y-103410001D01*
X70695724Y-103504974D01*
X70827753Y-103575546D01*
X70971014Y-103619003D01*
X71082667Y-103630000D01*
X71082676Y-103630000D01*
X71119999Y-103633676D01*
X71157322Y-103630000D01*
X73980199Y-103630000D01*
X74805001Y-104454803D01*
X74805000Y-113627678D01*
X74801324Y-113665000D01*
X74805000Y-113702322D01*
X74805000Y-113702332D01*
X74815997Y-113813985D01*
X74836954Y-113883072D01*
X74859454Y-113957246D01*
X74930026Y-114089276D01*
X74967551Y-114135000D01*
X74998737Y-114173000D01*
X74792408Y-114173000D01*
X74522510Y-114226686D01*
X74268273Y-114331995D01*
X74039465Y-114484880D01*
X73844880Y-114679465D01*
X73691995Y-114908273D01*
X73662308Y-114979943D01*
X73657636Y-114966977D01*
X73595656Y-114851020D01*
X73355565Y-114784040D01*
X72569605Y-115570000D01*
X73355565Y-116355960D01*
X73595656Y-116288980D01*
X73659485Y-116153240D01*
X73691995Y-116231727D01*
X73844880Y-116460535D01*
X74039465Y-116655120D01*
X74268273Y-116808005D01*
X74522510Y-116913314D01*
X74792408Y-116967000D01*
X75067592Y-116967000D01*
X75337490Y-116913314D01*
X75591727Y-116808005D01*
X75820535Y-116655120D01*
X76015120Y-116460535D01*
X76168005Y-116231727D01*
X76200000Y-116154485D01*
X76231995Y-116231727D01*
X76384880Y-116460535D01*
X76579465Y-116655120D01*
X76808273Y-116808005D01*
X77062510Y-116913314D01*
X77332408Y-116967000D01*
X77607592Y-116967000D01*
X77761571Y-116936372D01*
X84965000Y-124139802D01*
X84965000Y-124509099D01*
X84923899Y-124531068D01*
X84705392Y-124710392D01*
X84526068Y-124928899D01*
X84392818Y-125178192D01*
X84310764Y-125448691D01*
X84283057Y-125730000D01*
X84310764Y-126011309D01*
X84392818Y-126281808D01*
X84526068Y-126531101D01*
X84705392Y-126749608D01*
X84858183Y-126875000D01*
X66989802Y-126875000D01*
X57081801Y-116967000D01*
X57287592Y-116967000D01*
X57557490Y-116913314D01*
X57811727Y-116808005D01*
X58040535Y-116655120D01*
X58235120Y-116460535D01*
X58388005Y-116231727D01*
X58420000Y-116154485D01*
X58451995Y-116231727D01*
X58604880Y-116460535D01*
X58799465Y-116655120D01*
X59028273Y-116808005D01*
X59282510Y-116913314D01*
X59552408Y-116967000D01*
X59827592Y-116967000D01*
X60097490Y-116913314D01*
X60351727Y-116808005D01*
X60580535Y-116655120D01*
X60775120Y-116460535D01*
X60833920Y-116372535D01*
X60842188Y-116456482D01*
X60878498Y-116576180D01*
X60937463Y-116686494D01*
X61016815Y-116783185D01*
X61113506Y-116862537D01*
X61223820Y-116921502D01*
X61343518Y-116957812D01*
X61468000Y-116970072D01*
X61944250Y-116967000D01*
X62103000Y-116808250D01*
X62103000Y-115697000D01*
X62357000Y-115697000D01*
X62357000Y-116808250D01*
X62515750Y-116967000D01*
X62992000Y-116970072D01*
X63116482Y-116957812D01*
X63236180Y-116921502D01*
X63346494Y-116862537D01*
X63443185Y-116783185D01*
X63522537Y-116686494D01*
X63581502Y-116576180D01*
X63617812Y-116456482D01*
X63630072Y-116332000D01*
X63627000Y-115855750D01*
X63468250Y-115697000D01*
X62357000Y-115697000D01*
X62103000Y-115697000D01*
X62083000Y-115697000D01*
X62083000Y-115443000D01*
X62103000Y-115443000D01*
X62103000Y-114331750D01*
X62357000Y-114331750D01*
X62357000Y-115443000D01*
X63468250Y-115443000D01*
X63627000Y-115284250D01*
X63630072Y-114808000D01*
X63617812Y-114683518D01*
X63581502Y-114563820D01*
X63522537Y-114453506D01*
X63443185Y-114356815D01*
X63346494Y-114277463D01*
X63236180Y-114218498D01*
X63116482Y-114182188D01*
X62992000Y-114169928D01*
X62515750Y-114173000D01*
X62357000Y-114331750D01*
X62103000Y-114331750D01*
X61944250Y-114173000D01*
X61468000Y-114169928D01*
X61343518Y-114182188D01*
X61223820Y-114218498D01*
X61113506Y-114277463D01*
X61016815Y-114356815D01*
X60937463Y-114453506D01*
X60878498Y-114563820D01*
X60842188Y-114683518D01*
X60833920Y-114767465D01*
X60775120Y-114679465D01*
X60580535Y-114484880D01*
X60351727Y-114331995D01*
X60097490Y-114226686D01*
X59827592Y-114173000D01*
X59552408Y-114173000D01*
X59282510Y-114226686D01*
X59028273Y-114331995D01*
X58799465Y-114484880D01*
X58604880Y-114679465D01*
X58451995Y-114908273D01*
X58420000Y-114985515D01*
X58388005Y-114908273D01*
X58235120Y-114679465D01*
X58040535Y-114484880D01*
X57811727Y-114331995D01*
X57557490Y-114226686D01*
X57287592Y-114173000D01*
X57012408Y-114173000D01*
X56858430Y-114203628D01*
X56640000Y-113985199D01*
X56640000Y-111658061D01*
X62919980Y-111658061D01*
X62919980Y-111861939D01*
X62959754Y-112061898D01*
X63037775Y-112250256D01*
X63151043Y-112419774D01*
X63295206Y-112563937D01*
X63464724Y-112677205D01*
X63653082Y-112755226D01*
X63853041Y-112795000D01*
X63891197Y-112795000D01*
X63988738Y-112892541D01*
X63876053Y-113005226D01*
X63762785Y-113174744D01*
X63684764Y-113363102D01*
X63644990Y-113563061D01*
X63644990Y-113766939D01*
X63684764Y-113966898D01*
X63762785Y-114155256D01*
X63876053Y-114324774D01*
X64020216Y-114468937D01*
X64189734Y-114582205D01*
X64378092Y-114660226D01*
X64578051Y-114700000D01*
X64640189Y-114700000D01*
X64725739Y-114785550D01*
X64601063Y-114910226D01*
X64487795Y-115079744D01*
X64409774Y-115268102D01*
X64370000Y-115468061D01*
X64370000Y-115671939D01*
X64409774Y-115871898D01*
X64487795Y-116060256D01*
X64601063Y-116229774D01*
X64745226Y-116373937D01*
X64914744Y-116487205D01*
X65103102Y-116565226D01*
X65303061Y-116605000D01*
X65365199Y-116605000D01*
X71191201Y-122431003D01*
X71214999Y-122460001D01*
X71243997Y-122483799D01*
X71330723Y-122554974D01*
X71417525Y-122601371D01*
X71462753Y-122625546D01*
X71606014Y-122669003D01*
X71717667Y-122680000D01*
X71717676Y-122680000D01*
X71754999Y-122683676D01*
X71792322Y-122680000D01*
X77401289Y-122680000D01*
X77445226Y-122723937D01*
X77614744Y-122837205D01*
X77803102Y-122915226D01*
X78003061Y-122955000D01*
X78206939Y-122955000D01*
X78406898Y-122915226D01*
X78595256Y-122837205D01*
X78764774Y-122723937D01*
X78908937Y-122579774D01*
X79022205Y-122410256D01*
X79100226Y-122221898D01*
X79140000Y-122021939D01*
X79140000Y-121818061D01*
X79100226Y-121618102D01*
X79022205Y-121429744D01*
X78908937Y-121260226D01*
X78764774Y-121116063D01*
X78595256Y-121002795D01*
X78465771Y-120949160D01*
X78505000Y-120751939D01*
X78505000Y-120548061D01*
X78465226Y-120348102D01*
X78387205Y-120159744D01*
X78273937Y-119990226D01*
X78129774Y-119846063D01*
X77960256Y-119732795D01*
X77830771Y-119679160D01*
X77870000Y-119481939D01*
X77870000Y-119278061D01*
X77830226Y-119078102D01*
X77752205Y-118889744D01*
X77638937Y-118720226D01*
X77494774Y-118576063D01*
X77325256Y-118462795D01*
X77195771Y-118409160D01*
X77235000Y-118211939D01*
X77235000Y-118008061D01*
X77195226Y-117808102D01*
X77117205Y-117619744D01*
X77003937Y-117450226D01*
X76859774Y-117306063D01*
X76690256Y-117192795D01*
X76501898Y-117114774D01*
X76301939Y-117075000D01*
X76098061Y-117075000D01*
X75898102Y-117114774D01*
X75709744Y-117192795D01*
X75661546Y-117225000D01*
X71744579Y-117225000D01*
X71164668Y-116645090D01*
X71201502Y-116576180D01*
X71213822Y-116535565D01*
X71604040Y-116535565D01*
X71671020Y-116775656D01*
X71920048Y-116892756D01*
X72187135Y-116959023D01*
X72462017Y-116971910D01*
X72734133Y-116930922D01*
X72993023Y-116837636D01*
X73108980Y-116775656D01*
X73175960Y-116535565D01*
X72390000Y-115749605D01*
X71604040Y-116535565D01*
X71213822Y-116535565D01*
X71237812Y-116456482D01*
X71250072Y-116332000D01*
X71250072Y-116307317D01*
X71424435Y-116355960D01*
X72210395Y-115570000D01*
X71424435Y-114784040D01*
X71250072Y-114832683D01*
X71250072Y-114808000D01*
X71237812Y-114683518D01*
X71213823Y-114604435D01*
X71604040Y-114604435D01*
X72390000Y-115390395D01*
X73175960Y-114604435D01*
X73108980Y-114364344D01*
X72859952Y-114247244D01*
X72592865Y-114180977D01*
X72317983Y-114168090D01*
X72045867Y-114209078D01*
X71786977Y-114302364D01*
X71671020Y-114364344D01*
X71604040Y-114604435D01*
X71213823Y-114604435D01*
X71201502Y-114563820D01*
X71142537Y-114453506D01*
X71063185Y-114356815D01*
X70966494Y-114277463D01*
X70856180Y-114218498D01*
X70736482Y-114182188D01*
X70612000Y-114169928D01*
X69088000Y-114169928D01*
X68963518Y-114182188D01*
X68843820Y-114218498D01*
X68733506Y-114277463D01*
X68636815Y-114356815D01*
X68557463Y-114453506D01*
X68498498Y-114563820D01*
X68462188Y-114683518D01*
X68449928Y-114808000D01*
X68449928Y-115204128D01*
X64989980Y-111744181D01*
X64989980Y-111658061D01*
X64950206Y-111458102D01*
X64872185Y-111269744D01*
X64758917Y-111100226D01*
X64614754Y-110956063D01*
X64445236Y-110842795D01*
X64256878Y-110764774D01*
X64056919Y-110725000D01*
X63853041Y-110725000D01*
X63653082Y-110764774D01*
X63464724Y-110842795D01*
X63295206Y-110956063D01*
X63151043Y-111100226D01*
X63037775Y-111269744D01*
X62959754Y-111458102D01*
X62919980Y-111658061D01*
X56640000Y-111658061D01*
X56640000Y-111256320D01*
X56643676Y-111218997D01*
X56640000Y-111181674D01*
X56640000Y-111181665D01*
X56629003Y-111070012D01*
X56585546Y-110926751D01*
X56514974Y-110794722D01*
X56420001Y-110678997D01*
X56391003Y-110655199D01*
X55370000Y-109634197D01*
X55370000Y-106415803D01*
X57705794Y-104080010D01*
X59837668Y-104080010D01*
X59874990Y-104083686D01*
X59912312Y-104080010D01*
X59912323Y-104080010D01*
X60023976Y-104069013D01*
X60167237Y-104025556D01*
X60299266Y-103954984D01*
X60414991Y-103860011D01*
X60438794Y-103831008D01*
X61456250Y-102813552D01*
X61678192Y-102932182D01*
X61948691Y-103014236D01*
X62159508Y-103035000D01*
X62300492Y-103035000D01*
X62511309Y-103014236D01*
X62781808Y-102932182D01*
X63031101Y-102798932D01*
X63249608Y-102619608D01*
X63428932Y-102401101D01*
X63500000Y-102268142D01*
X63571068Y-102401101D01*
X63750392Y-102619608D01*
X63968899Y-102798932D01*
X64218192Y-102932182D01*
X64488691Y-103014236D01*
X64699508Y-103035000D01*
X64840492Y-103035000D01*
X65051309Y-103014236D01*
X65321808Y-102932182D01*
X65571101Y-102798932D01*
X65789608Y-102619608D01*
X65968932Y-102401101D01*
X66040000Y-102268142D01*
X66111068Y-102401101D01*
X66290392Y-102619608D01*
X66508899Y-102798932D01*
X66758192Y-102932182D01*
X67028691Y-103014236D01*
X67239508Y-103035000D01*
X67380492Y-103035000D01*
X67591309Y-103014236D01*
X67861808Y-102932182D01*
X68111101Y-102798932D01*
X68329608Y-102619608D01*
X68508932Y-102401101D01*
X68580000Y-102268142D01*
X68651068Y-102401101D01*
X68651068Y-102401101D01*
G37*
X68651068Y-102401101D02*
X68830392Y-102619608D01*
X69048899Y-102798932D01*
X69298192Y-102932182D01*
X69568691Y-103014236D01*
X69779508Y-103035000D01*
X69920492Y-103035000D01*
X70131309Y-103014236D01*
X70175906Y-103000708D01*
X70556200Y-103381002D01*
X70579999Y-103410001D01*
X70695724Y-103504974D01*
X70827753Y-103575546D01*
X70971014Y-103619003D01*
X71082667Y-103630000D01*
X71082676Y-103630000D01*
X71119999Y-103633676D01*
X71157322Y-103630000D01*
X73980199Y-103630000D01*
X74805001Y-104454803D01*
X74805000Y-113627678D01*
X74801324Y-113665000D01*
X74805000Y-113702322D01*
X74805000Y-113702332D01*
X74815997Y-113813985D01*
X74836954Y-113883072D01*
X74859454Y-113957246D01*
X74930026Y-114089276D01*
X74967551Y-114135000D01*
X74998737Y-114173000D01*
X74792408Y-114173000D01*
X74522510Y-114226686D01*
X74268273Y-114331995D01*
X74039465Y-114484880D01*
X73844880Y-114679465D01*
X73691995Y-114908273D01*
X73662308Y-114979943D01*
X73657636Y-114966977D01*
X73595656Y-114851020D01*
X73355565Y-114784040D01*
X72569605Y-115570000D01*
X73355565Y-116355960D01*
X73595656Y-116288980D01*
X73659485Y-116153240D01*
X73691995Y-116231727D01*
X73844880Y-116460535D01*
X74039465Y-116655120D01*
X74268273Y-116808005D01*
X74522510Y-116913314D01*
X74792408Y-116967000D01*
X75067592Y-116967000D01*
X75337490Y-116913314D01*
X75591727Y-116808005D01*
X75820535Y-116655120D01*
X76015120Y-116460535D01*
X76168005Y-116231727D01*
X76200000Y-116154485D01*
X76231995Y-116231727D01*
X76384880Y-116460535D01*
X76579465Y-116655120D01*
X76808273Y-116808005D01*
X77062510Y-116913314D01*
X77332408Y-116967000D01*
X77607592Y-116967000D01*
X77761571Y-116936372D01*
X84965000Y-124139802D01*
X84965000Y-124509099D01*
X84923899Y-124531068D01*
X84705392Y-124710392D01*
X84526068Y-124928899D01*
X84392818Y-125178192D01*
X84310764Y-125448691D01*
X84283057Y-125730000D01*
X84310764Y-126011309D01*
X84392818Y-126281808D01*
X84526068Y-126531101D01*
X84705392Y-126749608D01*
X84858183Y-126875000D01*
X66989802Y-126875000D01*
X57081801Y-116967000D01*
X57287592Y-116967000D01*
X57557490Y-116913314D01*
X57811727Y-116808005D01*
X58040535Y-116655120D01*
X58235120Y-116460535D01*
X58388005Y-116231727D01*
X58420000Y-116154485D01*
X58451995Y-116231727D01*
X58604880Y-116460535D01*
X58799465Y-116655120D01*
X59028273Y-116808005D01*
X59282510Y-116913314D01*
X59552408Y-116967000D01*
X59827592Y-116967000D01*
X60097490Y-116913314D01*
X60351727Y-116808005D01*
X60580535Y-116655120D01*
X60775120Y-116460535D01*
X60833920Y-116372535D01*
X60842188Y-116456482D01*
X60878498Y-116576180D01*
X60937463Y-116686494D01*
X61016815Y-116783185D01*
X61113506Y-116862537D01*
X61223820Y-116921502D01*
X61343518Y-116957812D01*
X61468000Y-116970072D01*
X61944250Y-116967000D01*
X62103000Y-116808250D01*
X62103000Y-115697000D01*
X62357000Y-115697000D01*
X62357000Y-116808250D01*
X62515750Y-116967000D01*
X62992000Y-116970072D01*
X63116482Y-116957812D01*
X63236180Y-116921502D01*
X63346494Y-116862537D01*
X63443185Y-116783185D01*
X63522537Y-116686494D01*
X63581502Y-116576180D01*
X63617812Y-116456482D01*
X63630072Y-116332000D01*
X63627000Y-115855750D01*
X63468250Y-115697000D01*
X62357000Y-115697000D01*
X62103000Y-115697000D01*
X62083000Y-115697000D01*
X62083000Y-115443000D01*
X62103000Y-115443000D01*
X62103000Y-114331750D01*
X62357000Y-114331750D01*
X62357000Y-115443000D01*
X63468250Y-115443000D01*
X63627000Y-115284250D01*
X63630072Y-114808000D01*
X63617812Y-114683518D01*
X63581502Y-114563820D01*
X63522537Y-114453506D01*
X63443185Y-114356815D01*
X63346494Y-114277463D01*
X63236180Y-114218498D01*
X63116482Y-114182188D01*
X62992000Y-114169928D01*
X62515750Y-114173000D01*
X62357000Y-114331750D01*
X62103000Y-114331750D01*
X61944250Y-114173000D01*
X61468000Y-114169928D01*
X61343518Y-114182188D01*
X61223820Y-114218498D01*
X61113506Y-114277463D01*
X61016815Y-114356815D01*
X60937463Y-114453506D01*
X60878498Y-114563820D01*
X60842188Y-114683518D01*
X60833920Y-114767465D01*
X60775120Y-114679465D01*
X60580535Y-114484880D01*
X60351727Y-114331995D01*
X60097490Y-114226686D01*
X59827592Y-114173000D01*
X59552408Y-114173000D01*
X59282510Y-114226686D01*
X59028273Y-114331995D01*
X58799465Y-114484880D01*
X58604880Y-114679465D01*
X58451995Y-114908273D01*
X58420000Y-114985515D01*
X58388005Y-114908273D01*
X58235120Y-114679465D01*
X58040535Y-114484880D01*
X57811727Y-114331995D01*
X57557490Y-114226686D01*
X57287592Y-114173000D01*
X57012408Y-114173000D01*
X56858430Y-114203628D01*
X56640000Y-113985199D01*
X56640000Y-111658061D01*
X62919980Y-111658061D01*
X62919980Y-111861939D01*
X62959754Y-112061898D01*
X63037775Y-112250256D01*
X63151043Y-112419774D01*
X63295206Y-112563937D01*
X63464724Y-112677205D01*
X63653082Y-112755226D01*
X63853041Y-112795000D01*
X63891197Y-112795000D01*
X63988738Y-112892541D01*
X63876053Y-113005226D01*
X63762785Y-113174744D01*
X63684764Y-113363102D01*
X63644990Y-113563061D01*
X63644990Y-113766939D01*
X63684764Y-113966898D01*
X63762785Y-114155256D01*
X63876053Y-114324774D01*
X64020216Y-114468937D01*
X64189734Y-114582205D01*
X64378092Y-114660226D01*
X64578051Y-114700000D01*
X64640189Y-114700000D01*
X64725739Y-114785550D01*
X64601063Y-114910226D01*
X64487795Y-115079744D01*
X64409774Y-115268102D01*
X64370000Y-115468061D01*
X64370000Y-115671939D01*
X64409774Y-115871898D01*
X64487795Y-116060256D01*
X64601063Y-116229774D01*
X64745226Y-116373937D01*
X64914744Y-116487205D01*
X65103102Y-116565226D01*
X65303061Y-116605000D01*
X65365199Y-116605000D01*
X71191201Y-122431003D01*
X71214999Y-122460001D01*
X71243997Y-122483799D01*
X71330723Y-122554974D01*
X71417525Y-122601371D01*
X71462753Y-122625546D01*
X71606014Y-122669003D01*
X71717667Y-122680000D01*
X71717676Y-122680000D01*
X71754999Y-122683676D01*
X71792322Y-122680000D01*
X77401289Y-122680000D01*
X77445226Y-122723937D01*
X77614744Y-122837205D01*
X77803102Y-122915226D01*
X78003061Y-122955000D01*
X78206939Y-122955000D01*
X78406898Y-122915226D01*
X78595256Y-122837205D01*
X78764774Y-122723937D01*
X78908937Y-122579774D01*
X79022205Y-122410256D01*
X79100226Y-122221898D01*
X79140000Y-122021939D01*
X79140000Y-121818061D01*
X79100226Y-121618102D01*
X79022205Y-121429744D01*
X78908937Y-121260226D01*
X78764774Y-121116063D01*
X78595256Y-121002795D01*
X78465771Y-120949160D01*
X78505000Y-120751939D01*
X78505000Y-120548061D01*
X78465226Y-120348102D01*
X78387205Y-120159744D01*
X78273937Y-119990226D01*
X78129774Y-119846063D01*
X77960256Y-119732795D01*
X77830771Y-119679160D01*
X77870000Y-119481939D01*
X77870000Y-119278061D01*
X77830226Y-119078102D01*
X77752205Y-118889744D01*
X77638937Y-118720226D01*
X77494774Y-118576063D01*
X77325256Y-118462795D01*
X77195771Y-118409160D01*
X77235000Y-118211939D01*
X77235000Y-118008061D01*
X77195226Y-117808102D01*
X77117205Y-117619744D01*
X77003937Y-117450226D01*
X76859774Y-117306063D01*
X76690256Y-117192795D01*
X76501898Y-117114774D01*
X76301939Y-117075000D01*
X76098061Y-117075000D01*
X75898102Y-117114774D01*
X75709744Y-117192795D01*
X75661546Y-117225000D01*
X71744579Y-117225000D01*
X71164668Y-116645090D01*
X71201502Y-116576180D01*
X71213822Y-116535565D01*
X71604040Y-116535565D01*
X71671020Y-116775656D01*
X71920048Y-116892756D01*
X72187135Y-116959023D01*
X72462017Y-116971910D01*
X72734133Y-116930922D01*
X72993023Y-116837636D01*
X73108980Y-116775656D01*
X73175960Y-116535565D01*
X72390000Y-115749605D01*
X71604040Y-116535565D01*
X71213822Y-116535565D01*
X71237812Y-116456482D01*
X71250072Y-116332000D01*
X71250072Y-116307317D01*
X71424435Y-116355960D01*
X72210395Y-115570000D01*
X71424435Y-114784040D01*
X71250072Y-114832683D01*
X71250072Y-114808000D01*
X71237812Y-114683518D01*
X71213823Y-114604435D01*
X71604040Y-114604435D01*
X72390000Y-115390395D01*
X73175960Y-114604435D01*
X73108980Y-114364344D01*
X72859952Y-114247244D01*
X72592865Y-114180977D01*
X72317983Y-114168090D01*
X72045867Y-114209078D01*
X71786977Y-114302364D01*
X71671020Y-114364344D01*
X71604040Y-114604435D01*
X71213823Y-114604435D01*
X71201502Y-114563820D01*
X71142537Y-114453506D01*
X71063185Y-114356815D01*
X70966494Y-114277463D01*
X70856180Y-114218498D01*
X70736482Y-114182188D01*
X70612000Y-114169928D01*
X69088000Y-114169928D01*
X68963518Y-114182188D01*
X68843820Y-114218498D01*
X68733506Y-114277463D01*
X68636815Y-114356815D01*
X68557463Y-114453506D01*
X68498498Y-114563820D01*
X68462188Y-114683518D01*
X68449928Y-114808000D01*
X68449928Y-115204128D01*
X64989980Y-111744181D01*
X64989980Y-111658061D01*
X64950206Y-111458102D01*
X64872185Y-111269744D01*
X64758917Y-111100226D01*
X64614754Y-110956063D01*
X64445236Y-110842795D01*
X64256878Y-110764774D01*
X64056919Y-110725000D01*
X63853041Y-110725000D01*
X63653082Y-110764774D01*
X63464724Y-110842795D01*
X63295206Y-110956063D01*
X63151043Y-111100226D01*
X63037775Y-111269744D01*
X62959754Y-111458102D01*
X62919980Y-111658061D01*
X56640000Y-111658061D01*
X56640000Y-111256320D01*
X56643676Y-111218997D01*
X56640000Y-111181674D01*
X56640000Y-111181665D01*
X56629003Y-111070012D01*
X56585546Y-110926751D01*
X56514974Y-110794722D01*
X56420001Y-110678997D01*
X56391003Y-110655199D01*
X55370000Y-109634197D01*
X55370000Y-106415803D01*
X57705794Y-104080010D01*
X59837668Y-104080010D01*
X59874990Y-104083686D01*
X59912312Y-104080010D01*
X59912323Y-104080010D01*
X60023976Y-104069013D01*
X60167237Y-104025556D01*
X60299266Y-103954984D01*
X60414991Y-103860011D01*
X60438794Y-103831008D01*
X61456250Y-102813552D01*
X61678192Y-102932182D01*
X61948691Y-103014236D01*
X62159508Y-103035000D01*
X62300492Y-103035000D01*
X62511309Y-103014236D01*
X62781808Y-102932182D01*
X63031101Y-102798932D01*
X63249608Y-102619608D01*
X63428932Y-102401101D01*
X63500000Y-102268142D01*
X63571068Y-102401101D01*
X63750392Y-102619608D01*
X63968899Y-102798932D01*
X64218192Y-102932182D01*
X64488691Y-103014236D01*
X64699508Y-103035000D01*
X64840492Y-103035000D01*
X65051309Y-103014236D01*
X65321808Y-102932182D01*
X65571101Y-102798932D01*
X65789608Y-102619608D01*
X65968932Y-102401101D01*
X66040000Y-102268142D01*
X66111068Y-102401101D01*
X66290392Y-102619608D01*
X66508899Y-102798932D01*
X66758192Y-102932182D01*
X67028691Y-103014236D01*
X67239508Y-103035000D01*
X67380492Y-103035000D01*
X67591309Y-103014236D01*
X67861808Y-102932182D01*
X68111101Y-102798932D01*
X68329608Y-102619608D01*
X68508932Y-102401101D01*
X68580000Y-102268142D01*
X68651068Y-102401101D01*
G36*
X84345147Y-115151426D02*
G01*
X84290000Y-115428665D01*
X84290000Y-115711335D01*
X84345147Y-115988574D01*
X84453320Y-116249727D01*
X84610363Y-116484759D01*
X84810241Y-116684637D01*
X85045273Y-116841680D01*
X85306426Y-116949853D01*
X85583665Y-117005000D01*
X85866335Y-117005000D01*
X86143574Y-116949853D01*
X86404727Y-116841680D01*
X86639759Y-116684637D01*
X86839637Y-116484759D01*
X86996680Y-116249727D01*
X87104853Y-115988574D01*
X87160000Y-115711335D01*
X87160000Y-115428665D01*
X87104853Y-115151426D01*
X87066983Y-115060000D01*
X89300683Y-115060000D01*
X89255241Y-115090363D01*
X89055363Y-115290241D01*
X88898320Y-115525273D01*
X88790147Y-115786426D01*
X88735000Y-116063665D01*
X88735000Y-116346335D01*
X88790147Y-116623574D01*
X88898320Y-116884727D01*
X89055363Y-117119759D01*
X89255241Y-117319637D01*
X89490273Y-117476680D01*
X89751426Y-117584853D01*
X90028665Y-117640000D01*
X90311335Y-117640000D01*
X90588574Y-117584853D01*
X90849727Y-117476680D01*
X91084759Y-117319637D01*
X91284637Y-117119759D01*
X91441680Y-116884727D01*
X91549853Y-116623574D01*
X91605000Y-116346335D01*
X91605000Y-116063665D01*
X91549853Y-115786426D01*
X91441680Y-115525273D01*
X91284637Y-115290241D01*
X91084759Y-115090363D01*
X91039317Y-115060000D01*
X99463183Y-115060000D01*
X99310392Y-115185392D01*
X99131068Y-115403899D01*
X98997818Y-115653192D01*
X98915764Y-115923691D01*
X98888057Y-116205000D01*
X98915764Y-116486309D01*
X98997818Y-116756808D01*
X99131068Y-117006101D01*
X99310392Y-117224608D01*
X99528899Y-117403932D01*
X99778192Y-117537182D01*
X100048691Y-117619236D01*
X100259508Y-117640000D01*
X100400492Y-117640000D01*
X100611309Y-117619236D01*
X100881808Y-117537182D01*
X101131101Y-117403932D01*
X101349608Y-117224608D01*
X101528932Y-117006101D01*
X101662182Y-116756808D01*
X101744236Y-116486309D01*
X101771943Y-116205000D01*
X101744236Y-115923691D01*
X101662182Y-115653192D01*
X101528932Y-115403899D01*
X101349608Y-115185392D01*
X101196817Y-115060000D01*
X103433017Y-115060000D01*
X103395147Y-115151426D01*
X103340000Y-115428665D01*
X103340000Y-115711335D01*
X103395147Y-115988574D01*
X103503320Y-116249727D01*
X103660363Y-116484759D01*
X103860241Y-116684637D01*
X104095273Y-116841680D01*
X104356426Y-116949853D01*
X104633665Y-117005000D01*
X104916335Y-117005000D01*
X105193574Y-116949853D01*
X105454727Y-116841680D01*
X105689759Y-116684637D01*
X105889637Y-116484759D01*
X106046680Y-116249727D01*
X106154853Y-115988574D01*
X106210000Y-115711335D01*
X106210000Y-115428665D01*
X106154853Y-115151426D01*
X106116983Y-115060000D01*
X106549928Y-115060000D01*
X106549928Y-116332000D01*
X106562188Y-116456482D01*
X106598498Y-116576180D01*
X106657463Y-116686494D01*
X106736815Y-116783185D01*
X106833506Y-116862537D01*
X106943820Y-116921502D01*
X107063518Y-116957812D01*
X107188000Y-116970072D01*
X108712000Y-116970072D01*
X108836482Y-116957812D01*
X108956180Y-116921502D01*
X109066494Y-116862537D01*
X109163185Y-116783185D01*
X109242537Y-116686494D01*
X109301502Y-116576180D01*
X109313822Y-116535565D01*
X109704040Y-116535565D01*
X109771020Y-116775656D01*
X110020048Y-116892756D01*
X110287135Y-116959023D01*
X110562017Y-116971910D01*
X110834133Y-116930922D01*
X111093023Y-116837636D01*
X111208980Y-116775656D01*
X111275960Y-116535565D01*
X110490000Y-115749605D01*
X109704040Y-116535565D01*
X109313822Y-116535565D01*
X109337812Y-116456482D01*
X109350072Y-116332000D01*
X109350072Y-116307317D01*
X109524435Y-116355960D01*
X110310395Y-115570000D01*
X110296253Y-115555858D01*
X110475858Y-115376253D01*
X110490000Y-115390395D01*
X110504143Y-115376253D01*
X110683748Y-115555858D01*
X110669605Y-115570000D01*
X111455565Y-116355960D01*
X111695656Y-116288980D01*
X111759485Y-116153240D01*
X111791995Y-116231727D01*
X111944880Y-116460535D01*
X112139465Y-116655120D01*
X112368273Y-116808005D01*
X112622510Y-116913314D01*
X112892408Y-116967000D01*
X113167592Y-116967000D01*
X113437490Y-116913314D01*
X113691727Y-116808005D01*
X113920535Y-116655120D01*
X114115120Y-116460535D01*
X114268005Y-116231727D01*
X114300000Y-116154485D01*
X114331995Y-116231727D01*
X114484880Y-116460535D01*
X114679465Y-116655120D01*
X114810000Y-116742341D01*
X114810000Y-117158788D01*
X106214556Y-125754233D01*
X106216943Y-125730000D01*
X106189236Y-125448691D01*
X106107182Y-125178192D01*
X105973932Y-124928899D01*
X105794608Y-124710392D01*
X105576101Y-124531068D01*
X105326808Y-124397818D01*
X105056309Y-124315764D01*
X104845492Y-124295000D01*
X104704508Y-124295000D01*
X104493691Y-124315764D01*
X104223192Y-124397818D01*
X103973899Y-124531068D01*
X103755392Y-124710392D01*
X103576068Y-124928899D01*
X103442818Y-125178192D01*
X103360764Y-125448691D01*
X103333057Y-125730000D01*
X103360764Y-126011309D01*
X103442818Y-126281808D01*
X103519350Y-126424989D01*
X87494791Y-126424989D01*
X87125708Y-126055906D01*
X87139236Y-126011309D01*
X87166943Y-125730000D01*
X87139236Y-125448691D01*
X87057182Y-125178192D01*
X86923932Y-124928899D01*
X86744608Y-124710392D01*
X86526101Y-124531068D01*
X86485000Y-124509099D01*
X86485000Y-123862323D01*
X86488676Y-123825000D01*
X86485000Y-123787677D01*
X86485000Y-123787667D01*
X86474003Y-123676014D01*
X86430546Y-123532753D01*
X86408449Y-123491413D01*
X86359974Y-123400723D01*
X86288799Y-123313997D01*
X86265001Y-123284999D01*
X86236004Y-123261202D01*
X83359802Y-120385000D01*
X92171928Y-120385000D01*
X92171928Y-122185000D01*
X92184188Y-122309482D01*
X92220498Y-122429180D01*
X92279463Y-122539494D01*
X92358815Y-122636185D01*
X92455506Y-122715537D01*
X92565820Y-122774502D01*
X92685518Y-122810812D01*
X92810000Y-122823072D01*
X93880000Y-122823072D01*
X94004482Y-122810812D01*
X94124180Y-122774502D01*
X94193190Y-122737615D01*
X94307617Y-122778900D01*
X94488000Y-122653244D01*
X94488000Y-122368200D01*
X94505812Y-122309482D01*
X94518072Y-122185000D01*
X94518072Y-120862524D01*
X94715000Y-120862524D01*
X94715000Y-121707477D01*
X94731929Y-121879360D01*
X94742000Y-121912560D01*
X94742000Y-122653244D01*
X94922383Y-122778900D01*
X95159421Y-122693377D01*
X95247404Y-122635846D01*
X95435095Y-122736169D01*
X95655641Y-122803071D01*
X95885000Y-122825661D01*
X96114360Y-122803071D01*
X96334906Y-122736169D01*
X96520000Y-122637234D01*
X96705095Y-122736169D01*
X96925641Y-122803071D01*
X97155000Y-122825661D01*
X97384360Y-122803071D01*
X97604906Y-122736169D01*
X97808162Y-122627526D01*
X97986318Y-122481318D01*
X98132526Y-122303162D01*
X98241169Y-122099906D01*
X98308071Y-121879359D01*
X98325000Y-121707476D01*
X98325000Y-120862523D01*
X98308071Y-120690640D01*
X98241169Y-120470094D01*
X98132526Y-120266838D01*
X97986318Y-120088682D01*
X97808161Y-119942474D01*
X97604905Y-119833831D01*
X97384359Y-119766929D01*
X97155000Y-119744339D01*
X96925640Y-119766929D01*
X96705094Y-119833831D01*
X96520000Y-119932766D01*
X96334905Y-119833831D01*
X96114359Y-119766929D01*
X95885000Y-119744339D01*
X95655640Y-119766929D01*
X95435094Y-119833831D01*
X95247404Y-119934154D01*
X95159421Y-119876623D01*
X94922383Y-119791100D01*
X94742000Y-119916756D01*
X94742000Y-120657441D01*
X94731929Y-120690641D01*
X94715000Y-120862524D01*
X94518072Y-120862524D01*
X94518072Y-120385000D01*
X94505812Y-120260518D01*
X94488000Y-120201800D01*
X94488000Y-119916756D01*
X94307617Y-119791100D01*
X94193190Y-119832385D01*
X94124180Y-119795498D01*
X94004482Y-119759188D01*
X93880000Y-119746928D01*
X92810000Y-119746928D01*
X92685518Y-119759188D01*
X92565820Y-119795498D01*
X92455506Y-119854463D01*
X92358815Y-119933815D01*
X92279463Y-120030506D01*
X92220498Y-120140820D01*
X92184188Y-120260518D01*
X92171928Y-120385000D01*
X83359802Y-120385000D01*
X79941801Y-116967000D01*
X80147592Y-116967000D01*
X80417490Y-116913314D01*
X80671727Y-116808005D01*
X80900535Y-116655120D01*
X81095120Y-116460535D01*
X81248005Y-116231727D01*
X81280000Y-116154485D01*
X81311995Y-116231727D01*
X81464880Y-116460535D01*
X81659465Y-116655120D01*
X81888273Y-116808005D01*
X82142510Y-116913314D01*
X82412408Y-116967000D01*
X82687592Y-116967000D01*
X82957490Y-116913314D01*
X83211727Y-116808005D01*
X83440535Y-116655120D01*
X83635120Y-116460535D01*
X83788005Y-116231727D01*
X83893314Y-115977490D01*
X83947000Y-115707592D01*
X83947000Y-115432408D01*
X83893314Y-115162510D01*
X83850853Y-115060000D01*
X84383017Y-115060000D01*
X84345147Y-115151426D01*
X84345147Y-115151426D01*
G37*
X84345147Y-115151426D02*
X84290000Y-115428665D01*
X84290000Y-115711335D01*
X84345147Y-115988574D01*
X84453320Y-116249727D01*
X84610363Y-116484759D01*
X84810241Y-116684637D01*
X85045273Y-116841680D01*
X85306426Y-116949853D01*
X85583665Y-117005000D01*
X85866335Y-117005000D01*
X86143574Y-116949853D01*
X86404727Y-116841680D01*
X86639759Y-116684637D01*
X86839637Y-116484759D01*
X86996680Y-116249727D01*
X87104853Y-115988574D01*
X87160000Y-115711335D01*
X87160000Y-115428665D01*
X87104853Y-115151426D01*
X87066983Y-115060000D01*
X89300683Y-115060000D01*
X89255241Y-115090363D01*
X89055363Y-115290241D01*
X88898320Y-115525273D01*
X88790147Y-115786426D01*
X88735000Y-116063665D01*
X88735000Y-116346335D01*
X88790147Y-116623574D01*
X88898320Y-116884727D01*
X89055363Y-117119759D01*
X89255241Y-117319637D01*
X89490273Y-117476680D01*
X89751426Y-117584853D01*
X90028665Y-117640000D01*
X90311335Y-117640000D01*
X90588574Y-117584853D01*
X90849727Y-117476680D01*
X91084759Y-117319637D01*
X91284637Y-117119759D01*
X91441680Y-116884727D01*
X91549853Y-116623574D01*
X91605000Y-116346335D01*
X91605000Y-116063665D01*
X91549853Y-115786426D01*
X91441680Y-115525273D01*
X91284637Y-115290241D01*
X91084759Y-115090363D01*
X91039317Y-115060000D01*
X99463183Y-115060000D01*
X99310392Y-115185392D01*
X99131068Y-115403899D01*
X98997818Y-115653192D01*
X98915764Y-115923691D01*
X98888057Y-116205000D01*
X98915764Y-116486309D01*
X98997818Y-116756808D01*
X99131068Y-117006101D01*
X99310392Y-117224608D01*
X99528899Y-117403932D01*
X99778192Y-117537182D01*
X100048691Y-117619236D01*
X100259508Y-117640000D01*
X100400492Y-117640000D01*
X100611309Y-117619236D01*
X100881808Y-117537182D01*
X101131101Y-117403932D01*
X101349608Y-117224608D01*
X101528932Y-117006101D01*
X101662182Y-116756808D01*
X101744236Y-116486309D01*
X101771943Y-116205000D01*
X101744236Y-115923691D01*
X101662182Y-115653192D01*
X101528932Y-115403899D01*
X101349608Y-115185392D01*
X101196817Y-115060000D01*
X103433017Y-115060000D01*
X103395147Y-115151426D01*
X103340000Y-115428665D01*
X103340000Y-115711335D01*
X103395147Y-115988574D01*
X103503320Y-116249727D01*
X103660363Y-116484759D01*
X103860241Y-116684637D01*
X104095273Y-116841680D01*
X104356426Y-116949853D01*
X104633665Y-117005000D01*
X104916335Y-117005000D01*
X105193574Y-116949853D01*
X105454727Y-116841680D01*
X105689759Y-116684637D01*
X105889637Y-116484759D01*
X106046680Y-116249727D01*
X106154853Y-115988574D01*
X106210000Y-115711335D01*
X106210000Y-115428665D01*
X106154853Y-115151426D01*
X106116983Y-115060000D01*
X106549928Y-115060000D01*
X106549928Y-116332000D01*
X106562188Y-116456482D01*
X106598498Y-116576180D01*
X106657463Y-116686494D01*
X106736815Y-116783185D01*
X106833506Y-116862537D01*
X106943820Y-116921502D01*
X107063518Y-116957812D01*
X107188000Y-116970072D01*
X108712000Y-116970072D01*
X108836482Y-116957812D01*
X108956180Y-116921502D01*
X109066494Y-116862537D01*
X109163185Y-116783185D01*
X109242537Y-116686494D01*
X109301502Y-116576180D01*
X109313822Y-116535565D01*
X109704040Y-116535565D01*
X109771020Y-116775656D01*
X110020048Y-116892756D01*
X110287135Y-116959023D01*
X110562017Y-116971910D01*
X110834133Y-116930922D01*
X111093023Y-116837636D01*
X111208980Y-116775656D01*
X111275960Y-116535565D01*
X110490000Y-115749605D01*
X109704040Y-116535565D01*
X109313822Y-116535565D01*
X109337812Y-116456482D01*
X109350072Y-116332000D01*
X109350072Y-116307317D01*
X109524435Y-116355960D01*
X110310395Y-115570000D01*
X110296253Y-115555858D01*
X110475858Y-115376253D01*
X110490000Y-115390395D01*
X110504143Y-115376253D01*
X110683748Y-115555858D01*
X110669605Y-115570000D01*
X111455565Y-116355960D01*
X111695656Y-116288980D01*
X111759485Y-116153240D01*
X111791995Y-116231727D01*
X111944880Y-116460535D01*
X112139465Y-116655120D01*
X112368273Y-116808005D01*
X112622510Y-116913314D01*
X112892408Y-116967000D01*
X113167592Y-116967000D01*
X113437490Y-116913314D01*
X113691727Y-116808005D01*
X113920535Y-116655120D01*
X114115120Y-116460535D01*
X114268005Y-116231727D01*
X114300000Y-116154485D01*
X114331995Y-116231727D01*
X114484880Y-116460535D01*
X114679465Y-116655120D01*
X114810000Y-116742341D01*
X114810000Y-117158788D01*
X106214556Y-125754233D01*
X106216943Y-125730000D01*
X106189236Y-125448691D01*
X106107182Y-125178192D01*
X105973932Y-124928899D01*
X105794608Y-124710392D01*
X105576101Y-124531068D01*
X105326808Y-124397818D01*
X105056309Y-124315764D01*
X104845492Y-124295000D01*
X104704508Y-124295000D01*
X104493691Y-124315764D01*
X104223192Y-124397818D01*
X103973899Y-124531068D01*
X103755392Y-124710392D01*
X103576068Y-124928899D01*
X103442818Y-125178192D01*
X103360764Y-125448691D01*
X103333057Y-125730000D01*
X103360764Y-126011309D01*
X103442818Y-126281808D01*
X103519350Y-126424989D01*
X87494791Y-126424989D01*
X87125708Y-126055906D01*
X87139236Y-126011309D01*
X87166943Y-125730000D01*
X87139236Y-125448691D01*
X87057182Y-125178192D01*
X86923932Y-124928899D01*
X86744608Y-124710392D01*
X86526101Y-124531068D01*
X86485000Y-124509099D01*
X86485000Y-123862323D01*
X86488676Y-123825000D01*
X86485000Y-123787677D01*
X86485000Y-123787667D01*
X86474003Y-123676014D01*
X86430546Y-123532753D01*
X86408449Y-123491413D01*
X86359974Y-123400723D01*
X86288799Y-123313997D01*
X86265001Y-123284999D01*
X86236004Y-123261202D01*
X83359802Y-120385000D01*
X92171928Y-120385000D01*
X92171928Y-122185000D01*
X92184188Y-122309482D01*
X92220498Y-122429180D01*
X92279463Y-122539494D01*
X92358815Y-122636185D01*
X92455506Y-122715537D01*
X92565820Y-122774502D01*
X92685518Y-122810812D01*
X92810000Y-122823072D01*
X93880000Y-122823072D01*
X94004482Y-122810812D01*
X94124180Y-122774502D01*
X94193190Y-122737615D01*
X94307617Y-122778900D01*
X94488000Y-122653244D01*
X94488000Y-122368200D01*
X94505812Y-122309482D01*
X94518072Y-122185000D01*
X94518072Y-120862524D01*
X94715000Y-120862524D01*
X94715000Y-121707477D01*
X94731929Y-121879360D01*
X94742000Y-121912560D01*
X94742000Y-122653244D01*
X94922383Y-122778900D01*
X95159421Y-122693377D01*
X95247404Y-122635846D01*
X95435095Y-122736169D01*
X95655641Y-122803071D01*
X95885000Y-122825661D01*
X96114360Y-122803071D01*
X96334906Y-122736169D01*
X96520000Y-122637234D01*
X96705095Y-122736169D01*
X96925641Y-122803071D01*
X97155000Y-122825661D01*
X97384360Y-122803071D01*
X97604906Y-122736169D01*
X97808162Y-122627526D01*
X97986318Y-122481318D01*
X98132526Y-122303162D01*
X98241169Y-122099906D01*
X98308071Y-121879359D01*
X98325000Y-121707476D01*
X98325000Y-120862523D01*
X98308071Y-120690640D01*
X98241169Y-120470094D01*
X98132526Y-120266838D01*
X97986318Y-120088682D01*
X97808161Y-119942474D01*
X97604905Y-119833831D01*
X97384359Y-119766929D01*
X97155000Y-119744339D01*
X96925640Y-119766929D01*
X96705094Y-119833831D01*
X96520000Y-119932766D01*
X96334905Y-119833831D01*
X96114359Y-119766929D01*
X95885000Y-119744339D01*
X95655640Y-119766929D01*
X95435094Y-119833831D01*
X95247404Y-119934154D01*
X95159421Y-119876623D01*
X94922383Y-119791100D01*
X94742000Y-119916756D01*
X94742000Y-120657441D01*
X94731929Y-120690641D01*
X94715000Y-120862524D01*
X94518072Y-120862524D01*
X94518072Y-120385000D01*
X94505812Y-120260518D01*
X94488000Y-120201800D01*
X94488000Y-119916756D01*
X94307617Y-119791100D01*
X94193190Y-119832385D01*
X94124180Y-119795498D01*
X94004482Y-119759188D01*
X93880000Y-119746928D01*
X92810000Y-119746928D01*
X92685518Y-119759188D01*
X92565820Y-119795498D01*
X92455506Y-119854463D01*
X92358815Y-119933815D01*
X92279463Y-120030506D01*
X92220498Y-120140820D01*
X92184188Y-120260518D01*
X92171928Y-120385000D01*
X83359802Y-120385000D01*
X79941801Y-116967000D01*
X80147592Y-116967000D01*
X80417490Y-116913314D01*
X80671727Y-116808005D01*
X80900535Y-116655120D01*
X81095120Y-116460535D01*
X81248005Y-116231727D01*
X81280000Y-116154485D01*
X81311995Y-116231727D01*
X81464880Y-116460535D01*
X81659465Y-116655120D01*
X81888273Y-116808005D01*
X82142510Y-116913314D01*
X82412408Y-116967000D01*
X82687592Y-116967000D01*
X82957490Y-116913314D01*
X83211727Y-116808005D01*
X83440535Y-116655120D01*
X83635120Y-116460535D01*
X83788005Y-116231727D01*
X83893314Y-115977490D01*
X83947000Y-115707592D01*
X83947000Y-115432408D01*
X83893314Y-115162510D01*
X83850853Y-115060000D01*
X84383017Y-115060000D01*
X84345147Y-115151426D01*
G36*
X91944928Y-78613000D02*
G01*
X91948000Y-79089250D01*
X92106750Y-79248000D01*
X93218000Y-79248000D01*
X93218000Y-79228000D01*
X93472000Y-79228000D01*
X93472000Y-79248000D01*
X93492000Y-79248000D01*
X93492000Y-79502000D01*
X93472000Y-79502000D01*
X93472000Y-79522000D01*
X93218000Y-79522000D01*
X93218000Y-79502000D01*
X92106750Y-79502000D01*
X91948000Y-79660750D01*
X91944928Y-80137000D01*
X91945716Y-80145000D01*
X91275132Y-80145000D01*
X90538072Y-79407941D01*
X90538072Y-78605000D01*
X91945716Y-78605000D01*
X91944928Y-78613000D01*
X91944928Y-78613000D01*
G37*
X91944928Y-78613000D02*
X91948000Y-79089250D01*
X92106750Y-79248000D01*
X93218000Y-79248000D01*
X93218000Y-79228000D01*
X93472000Y-79228000D01*
X93472000Y-79248000D01*
X93492000Y-79248000D01*
X93492000Y-79502000D01*
X93472000Y-79502000D01*
X93472000Y-79522000D01*
X93218000Y-79522000D01*
X93218000Y-79502000D01*
X92106750Y-79502000D01*
X91948000Y-79660750D01*
X91944928Y-80137000D01*
X91945716Y-80145000D01*
X91275132Y-80145000D01*
X90538072Y-79407941D01*
X90538072Y-78605000D01*
X91945716Y-78605000D01*
X91944928Y-78613000D01*
M02*
