G04 #@! TF.GenerationSoftware,KiCad,Pcbnew,(5.1.2)-1*
G04 #@! TF.CreationDate,2019-05-08T10:34:19+02:00*
G04 #@! TF.ProjectId,bigmax,6269676d-6178-42e6-9b69-6361645f7063,v2*
G04 #@! TF.SameCoordinates,Original*
G04 #@! TF.FileFunction,Legend,Top*
G04 #@! TF.FilePolarity,Positive*
%FSLAX46Y46*%
G04 Gerber Fmt 4.6, Leading zero omitted, Abs format (unit mm)*
G04 Created by KiCad (PCBNEW (5.1.2)-1) date 2019-05-08 10:34:19*
%MOMM*%
%LPD*%
G04 APERTURE LIST*
%ADD10C,0.150000*%
%ADD11C,0.120000*%
G04 APERTURE END LIST*
D10*
X72390000Y-71120000D02*
X72390000Y-69850000D01*
X128270000Y-69850000D02*
X110490000Y-69850000D01*
X110490000Y-69850000D02*
X110490000Y-54610000D01*
X118110000Y-53340000D02*
X118110000Y-54610000D01*
X110490000Y-53975000D02*
G75*
G02X118110000Y-53975000I3810000J0D01*
G01*
X128270000Y-54610000D02*
X128270000Y-69850000D01*
X110490000Y-53340000D02*
X110490000Y-54610000D01*
X118110000Y-71120000D02*
G75*
G02X110490000Y-71120000I-3810000J0D01*
G01*
X110490000Y-69850000D02*
X110490000Y-71120000D01*
X118110000Y-69850000D02*
X118110000Y-71120000D01*
X110490000Y-54610000D02*
X128270000Y-54610000D01*
X80010000Y-54610000D02*
X80010000Y-53340000D01*
X72390000Y-54610000D02*
X72390000Y-53340000D01*
X80010000Y-71120000D02*
X80010000Y-69850000D01*
X80010000Y-71120000D02*
G75*
G02X72390000Y-71120000I-3810000J0D01*
G01*
X72390000Y-53340000D02*
G75*
G02X80010000Y-53340000I3810000J0D01*
G01*
X62230000Y-69850000D02*
X62230000Y-54610000D01*
X80010000Y-69850000D02*
X62230000Y-69850000D01*
X80010000Y-54610000D02*
X80010000Y-69850000D01*
X62230000Y-54610000D02*
X80010000Y-54610000D01*
D11*
X91570000Y-103000000D02*
X91570000Y-84960000D01*
X48130000Y-103000000D02*
X91570000Y-103000000D01*
X48130000Y-84960000D02*
X48130000Y-103000000D01*
X50800000Y-87630000D02*
X50800000Y-84960000D01*
X86360000Y-87630000D02*
X50800000Y-87630000D01*
X86360000Y-87630000D02*
X86360000Y-84960000D01*
X50800000Y-100330000D02*
X50800000Y-103000000D01*
X88900000Y-100330000D02*
X50800000Y-100330000D01*
X88900000Y-100330000D02*
X88900000Y-103000000D01*
X91570000Y-84960000D02*
X88900000Y-84960000D01*
X86360000Y-84960000D02*
X48130000Y-84960000D01*
X88900000Y-87630000D02*
X88900000Y-84960000D01*
X86360000Y-87630000D02*
X88900000Y-87630000D01*
X90850000Y-80125000D02*
X90850000Y-78625000D01*
X91600000Y-79375000D02*
X90100000Y-79375000D01*
X81319000Y-79654000D02*
X81319000Y-79096000D01*
X81359000Y-80047000D02*
X81359000Y-78703000D01*
X81399000Y-80288000D02*
X81399000Y-78462000D01*
X81439000Y-80479000D02*
X81439000Y-78271000D01*
X81479000Y-80640000D02*
X81479000Y-78110000D01*
X81519000Y-80782000D02*
X81519000Y-77968000D01*
X81559000Y-80911000D02*
X81559000Y-77839000D01*
X81599000Y-81029000D02*
X81599000Y-77721000D01*
X81639000Y-81138000D02*
X81639000Y-77612000D01*
X81679000Y-81241000D02*
X81679000Y-77509000D01*
X81719000Y-81337000D02*
X81719000Y-77413000D01*
X81759000Y-81428000D02*
X81759000Y-77322000D01*
X81799000Y-81515000D02*
X81799000Y-77235000D01*
X81839000Y-81597000D02*
X81839000Y-77153000D01*
X81879000Y-81676000D02*
X81879000Y-77074000D01*
X81919000Y-81752000D02*
X81919000Y-76998000D01*
X81959000Y-81824000D02*
X81959000Y-76926000D01*
X81999000Y-81894000D02*
X81999000Y-76856000D01*
X82039000Y-81962000D02*
X82039000Y-76788000D01*
X82079000Y-82027000D02*
X82079000Y-76723000D01*
X82119000Y-82090000D02*
X82119000Y-76660000D01*
X82159000Y-82152000D02*
X82159000Y-76598000D01*
X82199000Y-82211000D02*
X82199000Y-76539000D01*
X82239000Y-82269000D02*
X82239000Y-76481000D01*
X82279000Y-82324000D02*
X82279000Y-76426000D01*
X82319000Y-82379000D02*
X82319000Y-76371000D01*
X82359000Y-82432000D02*
X82359000Y-76318000D01*
X82399000Y-82483000D02*
X82399000Y-76267000D01*
X82439000Y-82533000D02*
X82439000Y-76217000D01*
X82479000Y-82582000D02*
X82479000Y-76168000D01*
X82519000Y-82630000D02*
X82519000Y-76120000D01*
X82559000Y-82677000D02*
X82559000Y-76073000D01*
X82599000Y-82722000D02*
X82599000Y-76028000D01*
X82639000Y-82766000D02*
X82639000Y-75984000D01*
X82679000Y-82810000D02*
X82679000Y-75940000D01*
X82719000Y-82852000D02*
X82719000Y-75898000D01*
X82759000Y-78194000D02*
X82759000Y-75857000D01*
X82759000Y-82893000D02*
X82759000Y-80556000D01*
X82799000Y-78194000D02*
X82799000Y-75816000D01*
X82799000Y-82934000D02*
X82799000Y-80556000D01*
X82839000Y-78194000D02*
X82839000Y-75777000D01*
X82839000Y-82973000D02*
X82839000Y-80556000D01*
X82879000Y-78194000D02*
X82879000Y-75738000D01*
X82879000Y-83012000D02*
X82879000Y-80556000D01*
X82919000Y-78194000D02*
X82919000Y-75700000D01*
X82919000Y-83050000D02*
X82919000Y-80556000D01*
X82959000Y-78194000D02*
X82959000Y-75663000D01*
X82959000Y-83087000D02*
X82959000Y-80556000D01*
X82999000Y-78194000D02*
X82999000Y-75627000D01*
X82999000Y-83123000D02*
X82999000Y-80556000D01*
X83039000Y-78194000D02*
X83039000Y-75591000D01*
X83039000Y-83159000D02*
X83039000Y-80556000D01*
X83079000Y-78194000D02*
X83079000Y-75556000D01*
X83079000Y-83194000D02*
X83079000Y-80556000D01*
X83119000Y-78194000D02*
X83119000Y-75522000D01*
X83119000Y-83228000D02*
X83119000Y-80556000D01*
X83159000Y-78194000D02*
X83159000Y-75489000D01*
X83159000Y-83261000D02*
X83159000Y-80556000D01*
X83199000Y-78194000D02*
X83199000Y-75456000D01*
X83199000Y-83294000D02*
X83199000Y-80556000D01*
X83239000Y-78194000D02*
X83239000Y-75424000D01*
X83239000Y-83326000D02*
X83239000Y-80556000D01*
X83279000Y-78194000D02*
X83279000Y-75393000D01*
X83279000Y-83357000D02*
X83279000Y-80556000D01*
X83319000Y-78194000D02*
X83319000Y-75362000D01*
X83319000Y-83388000D02*
X83319000Y-80556000D01*
X83359000Y-78194000D02*
X83359000Y-75332000D01*
X83359000Y-83418000D02*
X83359000Y-80556000D01*
X83399000Y-78194000D02*
X83399000Y-75303000D01*
X83399000Y-83447000D02*
X83399000Y-80556000D01*
X83439000Y-78194000D02*
X83439000Y-75274000D01*
X83439000Y-83476000D02*
X83439000Y-80556000D01*
X83479000Y-78194000D02*
X83479000Y-75245000D01*
X83479000Y-83505000D02*
X83479000Y-80556000D01*
X83519000Y-78194000D02*
X83519000Y-75218000D01*
X83519000Y-83532000D02*
X83519000Y-80556000D01*
X83559000Y-78194000D02*
X83559000Y-75190000D01*
X83559000Y-83560000D02*
X83559000Y-80556000D01*
X83599000Y-78194000D02*
X83599000Y-75164000D01*
X83599000Y-83586000D02*
X83599000Y-80556000D01*
X83639000Y-78194000D02*
X83639000Y-75138000D01*
X83639000Y-83612000D02*
X83639000Y-80556000D01*
X83679000Y-78194000D02*
X83679000Y-75112000D01*
X83679000Y-83638000D02*
X83679000Y-80556000D01*
X83719000Y-78194000D02*
X83719000Y-75087000D01*
X83719000Y-83663000D02*
X83719000Y-80556000D01*
X83759000Y-78194000D02*
X83759000Y-75063000D01*
X83759000Y-83687000D02*
X83759000Y-80556000D01*
X83799000Y-78194000D02*
X83799000Y-75039000D01*
X83799000Y-83711000D02*
X83799000Y-80556000D01*
X83839000Y-78194000D02*
X83839000Y-75015000D01*
X83839000Y-83735000D02*
X83839000Y-80556000D01*
X83879000Y-78194000D02*
X83879000Y-74992000D01*
X83879000Y-83758000D02*
X83879000Y-80556000D01*
X83919000Y-78194000D02*
X83919000Y-74970000D01*
X83919000Y-83780000D02*
X83919000Y-80556000D01*
X83959000Y-78194000D02*
X83959000Y-74947000D01*
X83959000Y-83803000D02*
X83959000Y-80556000D01*
X83999000Y-78194000D02*
X83999000Y-74926000D01*
X83999000Y-83824000D02*
X83999000Y-80556000D01*
X84039000Y-78194000D02*
X84039000Y-74905000D01*
X84039000Y-83845000D02*
X84039000Y-80556000D01*
X84079000Y-78194000D02*
X84079000Y-74884000D01*
X84079000Y-83866000D02*
X84079000Y-80556000D01*
X84119000Y-78194000D02*
X84119000Y-74864000D01*
X84119000Y-83886000D02*
X84119000Y-80556000D01*
X84159000Y-78194000D02*
X84159000Y-74844000D01*
X84159000Y-83906000D02*
X84159000Y-80556000D01*
X84199000Y-78194000D02*
X84199000Y-74825000D01*
X84199000Y-83925000D02*
X84199000Y-80556000D01*
X84239000Y-78194000D02*
X84239000Y-74806000D01*
X84239000Y-83944000D02*
X84239000Y-80556000D01*
X84279000Y-78194000D02*
X84279000Y-74787000D01*
X84279000Y-83963000D02*
X84279000Y-80556000D01*
X84319000Y-78194000D02*
X84319000Y-74769000D01*
X84319000Y-83981000D02*
X84319000Y-80556000D01*
X84359000Y-78194000D02*
X84359000Y-74751000D01*
X84359000Y-83999000D02*
X84359000Y-80556000D01*
X84399000Y-78194000D02*
X84399000Y-74734000D01*
X84399000Y-84016000D02*
X84399000Y-80556000D01*
X84439000Y-78194000D02*
X84439000Y-74717000D01*
X84439000Y-84033000D02*
X84439000Y-80556000D01*
X84479000Y-78194000D02*
X84479000Y-74701000D01*
X84479000Y-84049000D02*
X84479000Y-80556000D01*
X84519000Y-78194000D02*
X84519000Y-74684000D01*
X84519000Y-84066000D02*
X84519000Y-80556000D01*
X84559000Y-78194000D02*
X84559000Y-74669000D01*
X84559000Y-84081000D02*
X84559000Y-80556000D01*
X84599000Y-78194000D02*
X84599000Y-74653000D01*
X84599000Y-84097000D02*
X84599000Y-80556000D01*
X84639000Y-78194000D02*
X84639000Y-74638000D01*
X84639000Y-84112000D02*
X84639000Y-80556000D01*
X84679000Y-78194000D02*
X84679000Y-74624000D01*
X84679000Y-84126000D02*
X84679000Y-80556000D01*
X84719000Y-78194000D02*
X84719000Y-74610000D01*
X84719000Y-84140000D02*
X84719000Y-80556000D01*
X84759000Y-78194000D02*
X84759000Y-74596000D01*
X84759000Y-84154000D02*
X84759000Y-80556000D01*
X84799000Y-78194000D02*
X84799000Y-74583000D01*
X84799000Y-84167000D02*
X84799000Y-80556000D01*
X84839000Y-78194000D02*
X84839000Y-74569000D01*
X84839000Y-84181000D02*
X84839000Y-80556000D01*
X84879000Y-78194000D02*
X84879000Y-74557000D01*
X84879000Y-84193000D02*
X84879000Y-80556000D01*
X84919000Y-78194000D02*
X84919000Y-74544000D01*
X84919000Y-84206000D02*
X84919000Y-80556000D01*
X84959000Y-78194000D02*
X84959000Y-74532000D01*
X84959000Y-84218000D02*
X84959000Y-80556000D01*
X84999000Y-78194000D02*
X84999000Y-74521000D01*
X84999000Y-84229000D02*
X84999000Y-80556000D01*
X85039000Y-78194000D02*
X85039000Y-74510000D01*
X85039000Y-84240000D02*
X85039000Y-80556000D01*
X85079000Y-78194000D02*
X85079000Y-74499000D01*
X85079000Y-84251000D02*
X85079000Y-80556000D01*
X85119000Y-84262000D02*
X85119000Y-74488000D01*
X85159000Y-84272000D02*
X85159000Y-74478000D01*
X85199000Y-84282000D02*
X85199000Y-74468000D01*
X85239000Y-84292000D02*
X85239000Y-74458000D01*
X85279000Y-84301000D02*
X85279000Y-74449000D01*
X85319000Y-84310000D02*
X85319000Y-74440000D01*
X85359000Y-84318000D02*
X85359000Y-74432000D01*
X85399000Y-84326000D02*
X85399000Y-74424000D01*
X85439000Y-84334000D02*
X85439000Y-74416000D01*
X85479000Y-84342000D02*
X85479000Y-74408000D01*
X85519000Y-84349000D02*
X85519000Y-74401000D01*
X85559000Y-84356000D02*
X85559000Y-74394000D01*
X85599000Y-84362000D02*
X85599000Y-74388000D01*
X85639000Y-84368000D02*
X85639000Y-74382000D01*
X85679000Y-84374000D02*
X85679000Y-74376000D01*
X85720000Y-84380000D02*
X85720000Y-74370000D01*
X85760000Y-84385000D02*
X85760000Y-74365000D01*
X85800000Y-84390000D02*
X85800000Y-74360000D01*
X85840000Y-84395000D02*
X85840000Y-74355000D01*
X85880000Y-84399000D02*
X85880000Y-74351000D01*
X85920000Y-84403000D02*
X85920000Y-74347000D01*
X85960000Y-84406000D02*
X85960000Y-74344000D01*
X86000000Y-84410000D02*
X86000000Y-74340000D01*
X86040000Y-84413000D02*
X86040000Y-74337000D01*
X86080000Y-84415000D02*
X86080000Y-74335000D01*
X86120000Y-84418000D02*
X86120000Y-74332000D01*
X86160000Y-84420000D02*
X86160000Y-74330000D01*
X86200000Y-84422000D02*
X86200000Y-74328000D01*
X86240000Y-84423000D02*
X86240000Y-74327000D01*
X86280000Y-84424000D02*
X86280000Y-74326000D01*
X86320000Y-84425000D02*
X86320000Y-74325000D01*
X86360000Y-84425000D02*
X86360000Y-74325000D01*
X86400000Y-84425000D02*
X86400000Y-74325000D01*
X81501563Y-77991736D02*
G75*
G03X81500643Y-80755000I4898437J-1383264D01*
G01*
X81501563Y-77991736D02*
G75*
G02X91299357Y-77995000I4898437J-1383264D01*
G01*
X81501563Y-80758264D02*
G75*
G03X91299357Y-80755000I4898437J1383264D01*
G01*
X99350000Y-116205000D02*
X98460000Y-116205000D01*
X91150000Y-116205000D02*
X92040000Y-116205000D01*
X98460000Y-114895000D02*
X92040000Y-114895000D01*
X98460000Y-117515000D02*
X98460000Y-114895000D01*
X92040000Y-117515000D02*
X98460000Y-117515000D01*
X92040000Y-114895000D02*
X92040000Y-117515000D01*
X92040000Y-111720000D02*
X92040000Y-114340000D01*
X92040000Y-114340000D02*
X98460000Y-114340000D01*
X98460000Y-114340000D02*
X98460000Y-111720000D01*
X98460000Y-111720000D02*
X92040000Y-111720000D01*
X91150000Y-113030000D02*
X92040000Y-113030000D01*
X99350000Y-113030000D02*
X98460000Y-113030000D01*
X92040000Y-108545000D02*
X92040000Y-111165000D01*
X92040000Y-111165000D02*
X98460000Y-111165000D01*
X98460000Y-111165000D02*
X98460000Y-108545000D01*
X98460000Y-108545000D02*
X92040000Y-108545000D01*
X91150000Y-109855000D02*
X92040000Y-109855000D01*
X99350000Y-109855000D02*
X98460000Y-109855000D01*
X52070000Y-98080000D02*
X52070000Y-97190000D01*
X52070000Y-89880000D02*
X52070000Y-90770000D01*
X53380000Y-97190000D02*
X53380000Y-90770000D01*
X50760000Y-97190000D02*
X53380000Y-97190000D01*
X50760000Y-90770000D02*
X50760000Y-97190000D01*
X53380000Y-90770000D02*
X50760000Y-90770000D01*
X87035000Y-117440000D02*
X84415000Y-117440000D01*
X84415000Y-117440000D02*
X84415000Y-123860000D01*
X84415000Y-123860000D02*
X87035000Y-123860000D01*
X87035000Y-123860000D02*
X87035000Y-117440000D01*
X85725000Y-116550000D02*
X85725000Y-117440000D01*
X85725000Y-124750000D02*
X85725000Y-123860000D01*
X74890000Y-97190000D02*
X77510000Y-97190000D01*
X77510000Y-97190000D02*
X77510000Y-90770000D01*
X77510000Y-90770000D02*
X74890000Y-90770000D01*
X74890000Y-90770000D02*
X74890000Y-97190000D01*
X76200000Y-98080000D02*
X76200000Y-97190000D01*
X76200000Y-89880000D02*
X76200000Y-90770000D01*
X80010000Y-89880000D02*
X80010000Y-90770000D01*
X80010000Y-98080000D02*
X80010000Y-97190000D01*
X78700000Y-90770000D02*
X78700000Y-97190000D01*
X81320000Y-90770000D02*
X78700000Y-90770000D01*
X81320000Y-97190000D02*
X81320000Y-90770000D01*
X78700000Y-97190000D02*
X81320000Y-97190000D01*
X82510000Y-97190000D02*
X85130000Y-97190000D01*
X85130000Y-97190000D02*
X85130000Y-90770000D01*
X85130000Y-90770000D02*
X82510000Y-90770000D01*
X82510000Y-90770000D02*
X82510000Y-97190000D01*
X83820000Y-98080000D02*
X83820000Y-97190000D01*
X83820000Y-89880000D02*
X83820000Y-90770000D01*
X87630000Y-89880000D02*
X87630000Y-90770000D01*
X87630000Y-98080000D02*
X87630000Y-97190000D01*
X86320000Y-90770000D02*
X86320000Y-97190000D01*
X88940000Y-90770000D02*
X86320000Y-90770000D01*
X88940000Y-97190000D02*
X88940000Y-90770000D01*
X86320000Y-97190000D02*
X88940000Y-97190000D01*
X104775000Y-124750000D02*
X104775000Y-123860000D01*
X104775000Y-116550000D02*
X104775000Y-117440000D01*
X106085000Y-123860000D02*
X106085000Y-117440000D01*
X103465000Y-123860000D02*
X106085000Y-123860000D01*
X103465000Y-117440000D02*
X103465000Y-123860000D01*
X106085000Y-117440000D02*
X103465000Y-117440000D01*
X50975000Y-111525000D02*
X52475000Y-111525000D01*
X54975000Y-110275000D02*
X54975000Y-105775000D01*
X52475000Y-104525000D02*
X50975000Y-104525000D01*
X48475000Y-105775000D02*
X48475000Y-110275000D01*
D10*
X77470000Y-80645000D02*
X62230000Y-80645000D01*
X62230000Y-80645000D02*
X62230000Y-78105000D01*
X62230000Y-78105000D02*
X77470000Y-78105000D01*
X77470000Y-78105000D02*
X77470000Y-80645000D01*
X128270000Y-78105000D02*
X128270000Y-80645000D01*
X113030000Y-78105000D02*
X128270000Y-78105000D01*
X113030000Y-80645000D02*
X113030000Y-78105000D01*
X128270000Y-80645000D02*
X113030000Y-80645000D01*
X55880000Y-114300000D02*
X55880000Y-116840000D01*
X63500000Y-114300000D02*
X55880000Y-114300000D01*
X63500000Y-116840000D02*
X63500000Y-114300000D01*
X60960000Y-138430000D02*
G75*
G03X60960000Y-138430000I-1270000J0D01*
G01*
X55880000Y-127000000D02*
X63500000Y-127000000D01*
X63500000Y-140335000D02*
X55880000Y-140335000D01*
X55880000Y-127000000D02*
X55880000Y-124460000D01*
X63500000Y-124460000D02*
X63500000Y-127000000D01*
X55880000Y-124460000D02*
X63500000Y-124460000D01*
X58420000Y-124460000D02*
X58420000Y-116840000D01*
X60960000Y-124460000D02*
X60960000Y-116840000D01*
X55880000Y-116840000D02*
X55880000Y-124460000D01*
X63500000Y-116840000D02*
X55880000Y-116840000D01*
X63500000Y-124460000D02*
X63500000Y-116840000D01*
X55880000Y-140335000D02*
X55880000Y-127000000D01*
X63500000Y-127000000D02*
X63500000Y-140335000D01*
X134620000Y-127000000D02*
X134620000Y-140335000D01*
X127000000Y-140335000D02*
X127000000Y-127000000D01*
X134620000Y-124460000D02*
X134620000Y-116840000D01*
X134620000Y-116840000D02*
X127000000Y-116840000D01*
X127000000Y-116840000D02*
X127000000Y-124460000D01*
X132080000Y-124460000D02*
X132080000Y-116840000D01*
X129540000Y-124460000D02*
X129540000Y-116840000D01*
X127000000Y-124460000D02*
X134620000Y-124460000D01*
X134620000Y-124460000D02*
X134620000Y-127000000D01*
X127000000Y-127000000D02*
X127000000Y-124460000D01*
X134620000Y-140335000D02*
X127000000Y-140335000D01*
X127000000Y-127000000D02*
X134620000Y-127000000D01*
X132080000Y-138430000D02*
G75*
G03X132080000Y-138430000I-1270000J0D01*
G01*
X134620000Y-116840000D02*
X134620000Y-114300000D01*
X134620000Y-114300000D02*
X127000000Y-114300000D01*
X127000000Y-114300000D02*
X127000000Y-116840000D01*
D11*
X86995000Y-113665000D02*
X85725000Y-113665000D01*
X86995000Y-112395000D02*
X86995000Y-113665000D01*
X84682071Y-106935000D02*
X84285000Y-106935000D01*
X84682071Y-107695000D02*
X84285000Y-107695000D01*
X75625000Y-106935000D02*
X81625000Y-106935000D01*
X75625000Y-107695000D02*
X75625000Y-106935000D01*
X81625000Y-107695000D02*
X75625000Y-107695000D01*
X84285000Y-108585000D02*
X81625000Y-108585000D01*
X84682071Y-109475000D02*
X84285000Y-109475000D01*
X84682071Y-110235000D02*
X84285000Y-110235000D01*
X75625000Y-109475000D02*
X81625000Y-109475000D01*
X75625000Y-110235000D02*
X75625000Y-109475000D01*
X81625000Y-110235000D02*
X75625000Y-110235000D01*
X84285000Y-111125000D02*
X81625000Y-111125000D01*
X84615000Y-112015000D02*
X84285000Y-112015000D01*
X84615000Y-112775000D02*
X84285000Y-112775000D01*
X81625000Y-112115000D02*
X75625000Y-112115000D01*
X81625000Y-112235000D02*
X75625000Y-112235000D01*
X81625000Y-112355000D02*
X75625000Y-112355000D01*
X81625000Y-112475000D02*
X75625000Y-112475000D01*
X81625000Y-112595000D02*
X75625000Y-112595000D01*
X81625000Y-112715000D02*
X75625000Y-112715000D01*
X75625000Y-112015000D02*
X81625000Y-112015000D01*
X75625000Y-112775000D02*
X75625000Y-112015000D01*
X81625000Y-112775000D02*
X75625000Y-112775000D01*
X81625000Y-113725000D02*
X84285000Y-113725000D01*
X81625000Y-105985000D02*
X81625000Y-113725000D01*
X84285000Y-105985000D02*
X81625000Y-105985000D01*
X84285000Y-113725000D02*
X84285000Y-105985000D01*
X128270000Y-86360000D02*
X128270000Y-87630000D01*
X127000000Y-86360000D02*
X128270000Y-86360000D01*
X124080000Y-88672929D02*
X124080000Y-89070000D01*
X124840000Y-88672929D02*
X124840000Y-89070000D01*
X124080000Y-97730000D02*
X124080000Y-91730000D01*
X124840000Y-97730000D02*
X124080000Y-97730000D01*
X124840000Y-91730000D02*
X124840000Y-97730000D01*
X125730000Y-89070000D02*
X125730000Y-91730000D01*
X126620000Y-88740000D02*
X126620000Y-89070000D01*
X127380000Y-88740000D02*
X127380000Y-89070000D01*
X126720000Y-91730000D02*
X126720000Y-97730000D01*
X126840000Y-91730000D02*
X126840000Y-97730000D01*
X126960000Y-91730000D02*
X126960000Y-97730000D01*
X127080000Y-91730000D02*
X127080000Y-97730000D01*
X127200000Y-91730000D02*
X127200000Y-97730000D01*
X127320000Y-91730000D02*
X127320000Y-97730000D01*
X126620000Y-97730000D02*
X126620000Y-91730000D01*
X127380000Y-97730000D02*
X126620000Y-97730000D01*
X127380000Y-91730000D02*
X127380000Y-97730000D01*
X128330000Y-91730000D02*
X128330000Y-89070000D01*
X123130000Y-91730000D02*
X128330000Y-91730000D01*
X123130000Y-89070000D02*
X123130000Y-91730000D01*
X128330000Y-89070000D02*
X123130000Y-89070000D01*
D10*
X130810000Y-81915000D02*
X130810000Y-99695000D01*
X130810000Y-81915000D02*
X113030000Y-81915000D01*
X130810000Y-99695000D02*
X113030000Y-99695000D01*
X113030000Y-99695000D02*
X113030000Y-81915000D01*
X129540000Y-97155000D02*
G75*
G03X129540000Y-97155000I-1270000J0D01*
G01*
X116840000Y-84455000D02*
G75*
G03X116840000Y-84455000I-1270000J0D01*
G01*
X131445000Y-86360000D02*
X141605000Y-86360000D01*
X141605000Y-86360000D02*
X141605000Y-99060000D01*
X141605000Y-99060000D02*
X131445000Y-99060000D01*
X131445000Y-99060000D02*
X131445000Y-86360000D01*
X92075000Y-90805000D02*
X92075000Y-78105000D01*
X92075000Y-90805000D02*
X112395000Y-90805000D01*
X112395000Y-90805000D02*
X112395000Y-78105000D01*
X112395000Y-78105000D02*
X92075000Y-78105000D01*
X84455000Y-127000000D02*
X84455000Y-128270000D01*
X67945000Y-127000000D02*
X67945000Y-128270000D01*
X83820000Y-114300000D02*
X83820000Y-116840000D01*
X68580000Y-114300000D02*
X83820000Y-114300000D01*
X68580000Y-116840000D02*
X68580000Y-114300000D01*
X78105000Y-129540000D02*
X78105000Y-128270000D01*
X74295000Y-129540000D02*
X78105000Y-129540000D01*
X74295000Y-128270000D02*
X74295000Y-129540000D01*
X88900000Y-127000000D02*
X83820000Y-127000000D01*
X88900000Y-128270000D02*
X88900000Y-127000000D01*
X63500000Y-128270000D02*
X88900000Y-128270000D01*
X63500000Y-127000000D02*
X63500000Y-128270000D01*
X68580000Y-127000000D02*
X63500000Y-127000000D01*
X83820000Y-127000000D02*
X83820000Y-124460000D01*
X68580000Y-127000000D02*
X83820000Y-127000000D01*
X68580000Y-124460000D02*
X68580000Y-127000000D01*
X73660000Y-116840000D02*
X73660000Y-124460000D01*
X76200000Y-116840000D02*
X76200000Y-124460000D01*
X78740000Y-116840000D02*
X78740000Y-124460000D01*
X81280000Y-116840000D02*
X81280000Y-124460000D01*
X83820000Y-124460000D02*
X83820000Y-116840000D01*
X68580000Y-124460000D02*
X83820000Y-124460000D01*
X68580000Y-116840000D02*
X68580000Y-124460000D01*
X71120000Y-116840000D02*
X71120000Y-124460000D01*
X68580000Y-116840000D02*
X83820000Y-116840000D01*
X106680000Y-116840000D02*
X121920000Y-116840000D01*
X109220000Y-116840000D02*
X109220000Y-124460000D01*
X106680000Y-116840000D02*
X106680000Y-124460000D01*
X106680000Y-124460000D02*
X121920000Y-124460000D01*
X121920000Y-124460000D02*
X121920000Y-116840000D01*
X119380000Y-116840000D02*
X119380000Y-124460000D01*
X116840000Y-116840000D02*
X116840000Y-124460000D01*
X114300000Y-116840000D02*
X114300000Y-124460000D01*
X111760000Y-116840000D02*
X111760000Y-124460000D01*
X106680000Y-124460000D02*
X106680000Y-127000000D01*
X106680000Y-127000000D02*
X121920000Y-127000000D01*
X121920000Y-127000000D02*
X121920000Y-124460000D01*
X106680000Y-127000000D02*
X101600000Y-127000000D01*
X101600000Y-127000000D02*
X101600000Y-128270000D01*
X101600000Y-128270000D02*
X127000000Y-128270000D01*
X127000000Y-128270000D02*
X127000000Y-127000000D01*
X127000000Y-127000000D02*
X121920000Y-127000000D01*
X112395000Y-128270000D02*
X112395000Y-129540000D01*
X112395000Y-129540000D02*
X116205000Y-129540000D01*
X116205000Y-129540000D02*
X116205000Y-128270000D01*
X106680000Y-116840000D02*
X106680000Y-114300000D01*
X106680000Y-114300000D02*
X121920000Y-114300000D01*
X121920000Y-114300000D02*
X121920000Y-116840000D01*
X106045000Y-127000000D02*
X106045000Y-128270000D01*
X122555000Y-127000000D02*
X122555000Y-128270000D01*
X157480000Y-87630000D02*
X154940000Y-87630000D01*
X154940000Y-87630000D02*
X154940000Y-95250000D01*
X154940000Y-95250000D02*
X157480000Y-95250000D01*
X157480000Y-95250000D02*
X157480000Y-87630000D01*
X157480000Y-100965000D02*
X157480000Y-85090000D01*
X157480000Y-85090000D02*
X144780000Y-85090000D01*
X157480000Y-100965000D02*
X144780000Y-100965000D01*
X144780000Y-100965000D02*
X144780000Y-85090000D01*
D11*
X233620000Y-88205000D02*
X234950000Y-88205000D01*
X233620000Y-89535000D02*
X233620000Y-88205000D01*
X233620000Y-90805000D02*
X236280000Y-90805000D01*
X236280000Y-90805000D02*
X236280000Y-95945000D01*
X233620000Y-90805000D02*
X233620000Y-95945000D01*
X233620000Y-95945000D02*
X236280000Y-95945000D01*
D10*
X161925000Y-46355000D02*
X221615000Y-46355000D01*
X221615000Y-46355000D02*
X221615000Y-123190000D01*
X221615000Y-123190000D02*
X161925000Y-123190000D01*
X161925000Y-123190000D02*
X161925000Y-46355000D01*
D11*
X92690000Y-122365000D02*
X92690000Y-122830000D01*
X92690000Y-119740000D02*
X92690000Y-120205000D01*
X97504479Y-122365429D02*
G75*
G02X92995316Y-122365000I-2254479J1080429D01*
G01*
X97504479Y-120204571D02*
G75*
G03X92995316Y-120205000I-2254479J-1080429D01*
G01*
X98037815Y-122365827D02*
G75*
G02X92690000Y-122829830I-2787815J1080827D01*
G01*
X98037815Y-120204173D02*
G75*
G03X92690000Y-119740170I-2787815J-1080827D01*
G01*
D10*
X92876666Y-94694285D02*
X92876666Y-94218095D01*
X93162380Y-94789523D02*
X92162380Y-94456190D01*
X93162380Y-94122857D01*
X93162380Y-93265714D02*
X93162380Y-93837142D01*
X93162380Y-93551428D02*
X92162380Y-93551428D01*
X92305238Y-93646666D01*
X92400476Y-93741904D01*
X92448095Y-93837142D01*
X86233333Y-86042142D02*
X86185714Y-86089761D01*
X86042857Y-86137380D01*
X85947619Y-86137380D01*
X85804761Y-86089761D01*
X85709523Y-85994523D01*
X85661904Y-85899285D01*
X85614285Y-85708809D01*
X85614285Y-85565952D01*
X85661904Y-85375476D01*
X85709523Y-85280238D01*
X85804761Y-85185000D01*
X85947619Y-85137380D01*
X86042857Y-85137380D01*
X86185714Y-85185000D01*
X86233333Y-85232619D01*
X87185714Y-86137380D02*
X86614285Y-86137380D01*
X86900000Y-86137380D02*
X86900000Y-85137380D01*
X86804761Y-85280238D01*
X86709523Y-85375476D01*
X86614285Y-85423095D01*
X95083333Y-114347380D02*
X94750000Y-113871190D01*
X94511904Y-114347380D02*
X94511904Y-113347380D01*
X94892857Y-113347380D01*
X94988095Y-113395000D01*
X95035714Y-113442619D01*
X95083333Y-113537857D01*
X95083333Y-113680714D01*
X95035714Y-113775952D01*
X94988095Y-113823571D01*
X94892857Y-113871190D01*
X94511904Y-113871190D01*
X96035714Y-114347380D02*
X95464285Y-114347380D01*
X95750000Y-114347380D02*
X95750000Y-113347380D01*
X95654761Y-113490238D01*
X95559523Y-113585476D01*
X95464285Y-113633095D01*
X95083333Y-111172380D02*
X94750000Y-110696190D01*
X94511904Y-111172380D02*
X94511904Y-110172380D01*
X94892857Y-110172380D01*
X94988095Y-110220000D01*
X95035714Y-110267619D01*
X95083333Y-110362857D01*
X95083333Y-110505714D01*
X95035714Y-110600952D01*
X94988095Y-110648571D01*
X94892857Y-110696190D01*
X94511904Y-110696190D01*
X95464285Y-110267619D02*
X95511904Y-110220000D01*
X95607142Y-110172380D01*
X95845238Y-110172380D01*
X95940476Y-110220000D01*
X95988095Y-110267619D01*
X96035714Y-110362857D01*
X96035714Y-110458095D01*
X95988095Y-110600952D01*
X95416666Y-111172380D01*
X96035714Y-111172380D01*
X95083333Y-107997380D02*
X94750000Y-107521190D01*
X94511904Y-107997380D02*
X94511904Y-106997380D01*
X94892857Y-106997380D01*
X94988095Y-107045000D01*
X95035714Y-107092619D01*
X95083333Y-107187857D01*
X95083333Y-107330714D01*
X95035714Y-107425952D01*
X94988095Y-107473571D01*
X94892857Y-107521190D01*
X94511904Y-107521190D01*
X95416666Y-106997380D02*
X96035714Y-106997380D01*
X95702380Y-107378333D01*
X95845238Y-107378333D01*
X95940476Y-107425952D01*
X95988095Y-107473571D01*
X96035714Y-107568809D01*
X96035714Y-107806904D01*
X95988095Y-107902142D01*
X95940476Y-107949761D01*
X95845238Y-107997380D01*
X95559523Y-107997380D01*
X95464285Y-107949761D01*
X95416666Y-107902142D01*
X54832380Y-94146666D02*
X54356190Y-94480000D01*
X54832380Y-94718095D02*
X53832380Y-94718095D01*
X53832380Y-94337142D01*
X53880000Y-94241904D01*
X53927619Y-94194285D01*
X54022857Y-94146666D01*
X54165714Y-94146666D01*
X54260952Y-94194285D01*
X54308571Y-94241904D01*
X54356190Y-94337142D01*
X54356190Y-94718095D01*
X54165714Y-93289523D02*
X54832380Y-93289523D01*
X53784761Y-93527619D02*
X54499047Y-93765714D01*
X54499047Y-93146666D01*
X88487380Y-120816666D02*
X88011190Y-121150000D01*
X88487380Y-121388095D02*
X87487380Y-121388095D01*
X87487380Y-121007142D01*
X87535000Y-120911904D01*
X87582619Y-120864285D01*
X87677857Y-120816666D01*
X87820714Y-120816666D01*
X87915952Y-120864285D01*
X87963571Y-120911904D01*
X88011190Y-121007142D01*
X88011190Y-121388095D01*
X87487380Y-119911904D02*
X87487380Y-120388095D01*
X87963571Y-120435714D01*
X87915952Y-120388095D01*
X87868333Y-120292857D01*
X87868333Y-120054761D01*
X87915952Y-119959523D01*
X87963571Y-119911904D01*
X88058809Y-119864285D01*
X88296904Y-119864285D01*
X88392142Y-119911904D01*
X88439761Y-119959523D01*
X88487380Y-120054761D01*
X88487380Y-120292857D01*
X88439761Y-120388095D01*
X88392142Y-120435714D01*
X74342380Y-94146666D02*
X73866190Y-94480000D01*
X74342380Y-94718095D02*
X73342380Y-94718095D01*
X73342380Y-94337142D01*
X73390000Y-94241904D01*
X73437619Y-94194285D01*
X73532857Y-94146666D01*
X73675714Y-94146666D01*
X73770952Y-94194285D01*
X73818571Y-94241904D01*
X73866190Y-94337142D01*
X73866190Y-94718095D01*
X73342380Y-93289523D02*
X73342380Y-93480000D01*
X73390000Y-93575238D01*
X73437619Y-93622857D01*
X73580476Y-93718095D01*
X73770952Y-93765714D01*
X74151904Y-93765714D01*
X74247142Y-93718095D01*
X74294761Y-93670476D01*
X74342380Y-93575238D01*
X74342380Y-93384761D01*
X74294761Y-93289523D01*
X74247142Y-93241904D01*
X74151904Y-93194285D01*
X73913809Y-93194285D01*
X73818571Y-93241904D01*
X73770952Y-93289523D01*
X73723333Y-93384761D01*
X73723333Y-93575238D01*
X73770952Y-93670476D01*
X73818571Y-93718095D01*
X73913809Y-93765714D01*
X78152380Y-94146666D02*
X77676190Y-94480000D01*
X78152380Y-94718095D02*
X77152380Y-94718095D01*
X77152380Y-94337142D01*
X77200000Y-94241904D01*
X77247619Y-94194285D01*
X77342857Y-94146666D01*
X77485714Y-94146666D01*
X77580952Y-94194285D01*
X77628571Y-94241904D01*
X77676190Y-94337142D01*
X77676190Y-94718095D01*
X77152380Y-93813333D02*
X77152380Y-93146666D01*
X78152380Y-93575238D01*
X81962380Y-94146666D02*
X81486190Y-94480000D01*
X81962380Y-94718095D02*
X80962380Y-94718095D01*
X80962380Y-94337142D01*
X81010000Y-94241904D01*
X81057619Y-94194285D01*
X81152857Y-94146666D01*
X81295714Y-94146666D01*
X81390952Y-94194285D01*
X81438571Y-94241904D01*
X81486190Y-94337142D01*
X81486190Y-94718095D01*
X81390952Y-93575238D02*
X81343333Y-93670476D01*
X81295714Y-93718095D01*
X81200476Y-93765714D01*
X81152857Y-93765714D01*
X81057619Y-93718095D01*
X81010000Y-93670476D01*
X80962380Y-93575238D01*
X80962380Y-93384761D01*
X81010000Y-93289523D01*
X81057619Y-93241904D01*
X81152857Y-93194285D01*
X81200476Y-93194285D01*
X81295714Y-93241904D01*
X81343333Y-93289523D01*
X81390952Y-93384761D01*
X81390952Y-93575238D01*
X81438571Y-93670476D01*
X81486190Y-93718095D01*
X81581428Y-93765714D01*
X81771904Y-93765714D01*
X81867142Y-93718095D01*
X81914761Y-93670476D01*
X81962380Y-93575238D01*
X81962380Y-93384761D01*
X81914761Y-93289523D01*
X81867142Y-93241904D01*
X81771904Y-93194285D01*
X81581428Y-93194285D01*
X81486190Y-93241904D01*
X81438571Y-93289523D01*
X81390952Y-93384761D01*
X85772380Y-94146666D02*
X85296190Y-94480000D01*
X85772380Y-94718095D02*
X84772380Y-94718095D01*
X84772380Y-94337142D01*
X84820000Y-94241904D01*
X84867619Y-94194285D01*
X84962857Y-94146666D01*
X85105714Y-94146666D01*
X85200952Y-94194285D01*
X85248571Y-94241904D01*
X85296190Y-94337142D01*
X85296190Y-94718095D01*
X85772380Y-93670476D02*
X85772380Y-93480000D01*
X85724761Y-93384761D01*
X85677142Y-93337142D01*
X85534285Y-93241904D01*
X85343809Y-93194285D01*
X84962857Y-93194285D01*
X84867619Y-93241904D01*
X84820000Y-93289523D01*
X84772380Y-93384761D01*
X84772380Y-93575238D01*
X84820000Y-93670476D01*
X84867619Y-93718095D01*
X84962857Y-93765714D01*
X85200952Y-93765714D01*
X85296190Y-93718095D01*
X85343809Y-93670476D01*
X85391428Y-93575238D01*
X85391428Y-93384761D01*
X85343809Y-93289523D01*
X85296190Y-93241904D01*
X85200952Y-93194285D01*
X107537380Y-121292857D02*
X107061190Y-121626190D01*
X107537380Y-121864285D02*
X106537380Y-121864285D01*
X106537380Y-121483333D01*
X106585000Y-121388095D01*
X106632619Y-121340476D01*
X106727857Y-121292857D01*
X106870714Y-121292857D01*
X106965952Y-121340476D01*
X107013571Y-121388095D01*
X107061190Y-121483333D01*
X107061190Y-121864285D01*
X107537380Y-120340476D02*
X107537380Y-120911904D01*
X107537380Y-120626190D02*
X106537380Y-120626190D01*
X106680238Y-120721428D01*
X106775476Y-120816666D01*
X106823095Y-120911904D01*
X106537380Y-119721428D02*
X106537380Y-119626190D01*
X106585000Y-119530952D01*
X106632619Y-119483333D01*
X106727857Y-119435714D01*
X106918333Y-119388095D01*
X107156428Y-119388095D01*
X107346904Y-119435714D01*
X107442142Y-119483333D01*
X107489761Y-119530952D01*
X107537380Y-119626190D01*
X107537380Y-119721428D01*
X107489761Y-119816666D01*
X107442142Y-119864285D01*
X107346904Y-119911904D01*
X107156428Y-119959523D01*
X106918333Y-119959523D01*
X106727857Y-119911904D01*
X106632619Y-119864285D01*
X106585000Y-119816666D01*
X106537380Y-119721428D01*
X56379761Y-109358333D02*
X56427380Y-109215476D01*
X56427380Y-108977380D01*
X56379761Y-108882142D01*
X56332142Y-108834523D01*
X56236904Y-108786904D01*
X56141666Y-108786904D01*
X56046428Y-108834523D01*
X55998809Y-108882142D01*
X55951190Y-108977380D01*
X55903571Y-109167857D01*
X55855952Y-109263095D01*
X55808333Y-109310714D01*
X55713095Y-109358333D01*
X55617857Y-109358333D01*
X55522619Y-109310714D01*
X55475000Y-109263095D01*
X55427380Y-109167857D01*
X55427380Y-108929761D01*
X55475000Y-108786904D01*
X55427380Y-108453571D02*
X56427380Y-108215476D01*
X55713095Y-108025000D01*
X56427380Y-107834523D01*
X55427380Y-107596428D01*
X56427380Y-106691666D02*
X56427380Y-107263095D01*
X56427380Y-106977380D02*
X55427380Y-106977380D01*
X55570238Y-107072619D01*
X55665476Y-107167857D01*
X55713095Y-107263095D01*
X59563095Y-78827380D02*
X59563095Y-79636904D01*
X59610714Y-79732142D01*
X59658333Y-79779761D01*
X59753571Y-79827380D01*
X59944047Y-79827380D01*
X60039285Y-79779761D01*
X60086904Y-79732142D01*
X60134523Y-79636904D01*
X60134523Y-78827380D01*
X61134523Y-79827380D02*
X60563095Y-79827380D01*
X60848809Y-79827380D02*
X60848809Y-78827380D01*
X60753571Y-78970238D01*
X60658333Y-79065476D01*
X60563095Y-79113095D01*
X129413095Y-78827380D02*
X129413095Y-79636904D01*
X129460714Y-79732142D01*
X129508333Y-79779761D01*
X129603571Y-79827380D01*
X129794047Y-79827380D01*
X129889285Y-79779761D01*
X129936904Y-79732142D01*
X129984523Y-79636904D01*
X129984523Y-78827380D01*
X130413095Y-78922619D02*
X130460714Y-78875000D01*
X130555952Y-78827380D01*
X130794047Y-78827380D01*
X130889285Y-78875000D01*
X130936904Y-78922619D01*
X130984523Y-79017857D01*
X130984523Y-79113095D01*
X130936904Y-79255952D01*
X130365476Y-79827380D01*
X130984523Y-79827380D01*
X58928095Y-125182380D02*
X58928095Y-125991904D01*
X58975714Y-126087142D01*
X59023333Y-126134761D01*
X59118571Y-126182380D01*
X59309047Y-126182380D01*
X59404285Y-126134761D01*
X59451904Y-126087142D01*
X59499523Y-125991904D01*
X59499523Y-125182380D01*
X59880476Y-125182380D02*
X60499523Y-125182380D01*
X60166190Y-125563333D01*
X60309047Y-125563333D01*
X60404285Y-125610952D01*
X60451904Y-125658571D01*
X60499523Y-125753809D01*
X60499523Y-125991904D01*
X60451904Y-126087142D01*
X60404285Y-126134761D01*
X60309047Y-126182380D01*
X60023333Y-126182380D01*
X59928095Y-126134761D01*
X59880476Y-126087142D01*
X56602380Y-119745000D02*
X56602380Y-119554523D01*
X56650000Y-119459285D01*
X56745238Y-119364047D01*
X56935714Y-119316428D01*
X57269047Y-119316428D01*
X57459523Y-119364047D01*
X57554761Y-119459285D01*
X57602380Y-119554523D01*
X57602380Y-119745000D01*
X57554761Y-119840238D01*
X57459523Y-119935476D01*
X57269047Y-119983095D01*
X56935714Y-119983095D01*
X56745238Y-119935476D01*
X56650000Y-119840238D01*
X56602380Y-119745000D01*
X56602380Y-118887857D02*
X57411904Y-118887857D01*
X57507142Y-118840238D01*
X57554761Y-118792619D01*
X57602380Y-118697380D01*
X57602380Y-118506904D01*
X57554761Y-118411666D01*
X57507142Y-118364047D01*
X57411904Y-118316428D01*
X56602380Y-118316428D01*
X56602380Y-117983095D02*
X56602380Y-117411666D01*
X57602380Y-117697380D02*
X56602380Y-117697380D01*
X59142380Y-119840238D02*
X60142380Y-119506904D01*
X59142380Y-119173571D01*
X60142380Y-118840238D02*
X59142380Y-118840238D01*
X60142380Y-118364047D02*
X59142380Y-118364047D01*
X60142380Y-117792619D01*
X59142380Y-117792619D01*
X61730000Y-119506904D02*
X61682380Y-119602142D01*
X61682380Y-119745000D01*
X61730000Y-119887857D01*
X61825238Y-119983095D01*
X61920476Y-120030714D01*
X62110952Y-120078333D01*
X62253809Y-120078333D01*
X62444285Y-120030714D01*
X62539523Y-119983095D01*
X62634761Y-119887857D01*
X62682380Y-119745000D01*
X62682380Y-119649761D01*
X62634761Y-119506904D01*
X62587142Y-119459285D01*
X62253809Y-119459285D01*
X62253809Y-119649761D01*
X62682380Y-119030714D02*
X61682380Y-119030714D01*
X62682380Y-118459285D01*
X61682380Y-118459285D01*
X62682380Y-117983095D02*
X61682380Y-117983095D01*
X61682380Y-117745000D01*
X61730000Y-117602142D01*
X61825238Y-117506904D01*
X61920476Y-117459285D01*
X62110952Y-117411666D01*
X62253809Y-117411666D01*
X62444285Y-117459285D01*
X62539523Y-117506904D01*
X62634761Y-117602142D01*
X62682380Y-117745000D01*
X62682380Y-117983095D01*
X130048095Y-125182380D02*
X130048095Y-125991904D01*
X130095714Y-126087142D01*
X130143333Y-126134761D01*
X130238571Y-126182380D01*
X130429047Y-126182380D01*
X130524285Y-126134761D01*
X130571904Y-126087142D01*
X130619523Y-125991904D01*
X130619523Y-125182380D01*
X131524285Y-125515714D02*
X131524285Y-126182380D01*
X131286190Y-125134761D02*
X131048095Y-125849047D01*
X131667142Y-125849047D01*
X132850000Y-119506904D02*
X132802380Y-119602142D01*
X132802380Y-119745000D01*
X132850000Y-119887857D01*
X132945238Y-119983095D01*
X133040476Y-120030714D01*
X133230952Y-120078333D01*
X133373809Y-120078333D01*
X133564285Y-120030714D01*
X133659523Y-119983095D01*
X133754761Y-119887857D01*
X133802380Y-119745000D01*
X133802380Y-119649761D01*
X133754761Y-119506904D01*
X133707142Y-119459285D01*
X133373809Y-119459285D01*
X133373809Y-119649761D01*
X133802380Y-119030714D02*
X132802380Y-119030714D01*
X133802380Y-118459285D01*
X132802380Y-118459285D01*
X133802380Y-117983095D02*
X132802380Y-117983095D01*
X132802380Y-117745000D01*
X132850000Y-117602142D01*
X132945238Y-117506904D01*
X133040476Y-117459285D01*
X133230952Y-117411666D01*
X133373809Y-117411666D01*
X133564285Y-117459285D01*
X133659523Y-117506904D01*
X133754761Y-117602142D01*
X133802380Y-117745000D01*
X133802380Y-117983095D01*
X130262380Y-119840238D02*
X131262380Y-119506904D01*
X130262380Y-119173571D01*
X131262380Y-118840238D02*
X130262380Y-118840238D01*
X131262380Y-118364047D02*
X130262380Y-118364047D01*
X131262380Y-117792619D01*
X130262380Y-117792619D01*
X127722380Y-119745000D02*
X127722380Y-119554523D01*
X127770000Y-119459285D01*
X127865238Y-119364047D01*
X128055714Y-119316428D01*
X128389047Y-119316428D01*
X128579523Y-119364047D01*
X128674761Y-119459285D01*
X128722380Y-119554523D01*
X128722380Y-119745000D01*
X128674761Y-119840238D01*
X128579523Y-119935476D01*
X128389047Y-119983095D01*
X128055714Y-119983095D01*
X127865238Y-119935476D01*
X127770000Y-119840238D01*
X127722380Y-119745000D01*
X127722380Y-118887857D02*
X128531904Y-118887857D01*
X128627142Y-118840238D01*
X128674761Y-118792619D01*
X128722380Y-118697380D01*
X128722380Y-118506904D01*
X128674761Y-118411666D01*
X128627142Y-118364047D01*
X128531904Y-118316428D01*
X127722380Y-118316428D01*
X127722380Y-117983095D02*
X127722380Y-117411666D01*
X128722380Y-117697380D02*
X127722380Y-117697380D01*
X81006666Y-114117380D02*
X81006666Y-114831666D01*
X80959047Y-114974523D01*
X80863809Y-115069761D01*
X80720952Y-115117380D01*
X80625714Y-115117380D01*
X82006666Y-115117380D02*
X81435238Y-115117380D01*
X81720952Y-115117380D02*
X81720952Y-114117380D01*
X81625714Y-114260238D01*
X81530476Y-114355476D01*
X81435238Y-114403095D01*
X128722380Y-92348333D02*
X129436666Y-92348333D01*
X129579523Y-92395952D01*
X129674761Y-92491190D01*
X129722380Y-92634047D01*
X129722380Y-92729285D01*
X128817619Y-91919761D02*
X128770000Y-91872142D01*
X128722380Y-91776904D01*
X128722380Y-91538809D01*
X128770000Y-91443571D01*
X128817619Y-91395952D01*
X128912857Y-91348333D01*
X129008095Y-91348333D01*
X129150952Y-91395952D01*
X129722380Y-91967380D01*
X129722380Y-91348333D01*
X114387380Y-94106904D02*
X115196904Y-94106904D01*
X115292142Y-94059285D01*
X115339761Y-94011666D01*
X115387380Y-93916428D01*
X115387380Y-93725952D01*
X115339761Y-93630714D01*
X115292142Y-93583095D01*
X115196904Y-93535476D01*
X114387380Y-93535476D01*
X114387380Y-92583095D02*
X114387380Y-93059285D01*
X114863571Y-93106904D01*
X114815952Y-93059285D01*
X114768333Y-92964047D01*
X114768333Y-92725952D01*
X114815952Y-92630714D01*
X114863571Y-92583095D01*
X114958809Y-92535476D01*
X115196904Y-92535476D01*
X115292142Y-92583095D01*
X115339761Y-92630714D01*
X115387380Y-92725952D01*
X115387380Y-92964047D01*
X115339761Y-93059285D01*
X115292142Y-93106904D01*
X129992380Y-85851904D02*
X128992380Y-85851904D01*
X128992380Y-85470952D01*
X129040000Y-85375714D01*
X129087619Y-85328095D01*
X129182857Y-85280476D01*
X129325714Y-85280476D01*
X129420952Y-85328095D01*
X129468571Y-85375714D01*
X129516190Y-85470952D01*
X129516190Y-85851904D01*
X129040000Y-84328095D02*
X128992380Y-84423333D01*
X128992380Y-84566190D01*
X129040000Y-84709047D01*
X129135238Y-84804285D01*
X129230476Y-84851904D01*
X129420952Y-84899523D01*
X129563809Y-84899523D01*
X129754285Y-84851904D01*
X129849523Y-84804285D01*
X129944761Y-84709047D01*
X129992380Y-84566190D01*
X129992380Y-84470952D01*
X129944761Y-84328095D01*
X129897142Y-84280476D01*
X129563809Y-84280476D01*
X129563809Y-84470952D01*
X126928571Y-85828095D02*
X126928571Y-85494761D01*
X127452380Y-85351904D02*
X127452380Y-85828095D01*
X126452380Y-85828095D01*
X126452380Y-85351904D01*
X127452380Y-84923333D02*
X126452380Y-84923333D01*
X127452380Y-84351904D01*
X126452380Y-84351904D01*
X124912380Y-85613809D02*
X123912380Y-85613809D01*
X124912380Y-85137619D02*
X123912380Y-85137619D01*
X124912380Y-84566190D01*
X123912380Y-84566190D01*
X121420000Y-86486904D02*
X121372380Y-86582142D01*
X121372380Y-86725000D01*
X121420000Y-86867857D01*
X121515238Y-86963095D01*
X121610476Y-87010714D01*
X121800952Y-87058333D01*
X121943809Y-87058333D01*
X122134285Y-87010714D01*
X122229523Y-86963095D01*
X122324761Y-86867857D01*
X122372380Y-86725000D01*
X122372380Y-86629761D01*
X122324761Y-86486904D01*
X122277142Y-86439285D01*
X121943809Y-86439285D01*
X121943809Y-86629761D01*
X122372380Y-86010714D02*
X121372380Y-86010714D01*
X122372380Y-85439285D01*
X121372380Y-85439285D01*
X122372380Y-84963095D02*
X121372380Y-84963095D01*
X121372380Y-84725000D01*
X121420000Y-84582142D01*
X121515238Y-84486904D01*
X121610476Y-84439285D01*
X121800952Y-84391666D01*
X121943809Y-84391666D01*
X122134285Y-84439285D01*
X122229523Y-84486904D01*
X122324761Y-84582142D01*
X122372380Y-84725000D01*
X122372380Y-84963095D01*
X118832380Y-86725000D02*
X118832380Y-86534523D01*
X118880000Y-86439285D01*
X118975238Y-86344047D01*
X119165714Y-86296428D01*
X119499047Y-86296428D01*
X119689523Y-86344047D01*
X119784761Y-86439285D01*
X119832380Y-86534523D01*
X119832380Y-86725000D01*
X119784761Y-86820238D01*
X119689523Y-86915476D01*
X119499047Y-86963095D01*
X119165714Y-86963095D01*
X118975238Y-86915476D01*
X118880000Y-86820238D01*
X118832380Y-86725000D01*
X118832380Y-85867857D02*
X119641904Y-85867857D01*
X119737142Y-85820238D01*
X119784761Y-85772619D01*
X119832380Y-85677380D01*
X119832380Y-85486904D01*
X119784761Y-85391666D01*
X119737142Y-85344047D01*
X119641904Y-85296428D01*
X118832380Y-85296428D01*
X118832380Y-84963095D02*
X118832380Y-84391666D01*
X119832380Y-84677380D02*
X118832380Y-84677380D01*
X129675000Y-97281904D02*
X129627380Y-97377142D01*
X129627380Y-97520000D01*
X129675000Y-97662857D01*
X129770238Y-97758095D01*
X129865476Y-97805714D01*
X130055952Y-97853333D01*
X130198809Y-97853333D01*
X130389285Y-97805714D01*
X130484523Y-97758095D01*
X130579761Y-97662857D01*
X130627380Y-97520000D01*
X130627380Y-97424761D01*
X130579761Y-97281904D01*
X130532142Y-97234285D01*
X130198809Y-97234285D01*
X130198809Y-97424761D01*
X130627380Y-96805714D02*
X129627380Y-96805714D01*
X130627380Y-96234285D01*
X129627380Y-96234285D01*
X130627380Y-95758095D02*
X129627380Y-95758095D01*
X129627380Y-95520000D01*
X129675000Y-95377142D01*
X129770238Y-95281904D01*
X129865476Y-95234285D01*
X130055952Y-95186666D01*
X130198809Y-95186666D01*
X130389285Y-95234285D01*
X130484523Y-95281904D01*
X130579761Y-95377142D01*
X130627380Y-95520000D01*
X130627380Y-95758095D01*
X135763095Y-97242380D02*
X135763095Y-98051904D01*
X135810714Y-98147142D01*
X135858333Y-98194761D01*
X135953571Y-98242380D01*
X136144047Y-98242380D01*
X136239285Y-98194761D01*
X136286904Y-98147142D01*
X136334523Y-98051904D01*
X136334523Y-97242380D01*
X137239285Y-97242380D02*
X137048809Y-97242380D01*
X136953571Y-97290000D01*
X136905952Y-97337619D01*
X136810714Y-97480476D01*
X136763095Y-97670952D01*
X136763095Y-98051904D01*
X136810714Y-98147142D01*
X136858333Y-98194761D01*
X136953571Y-98242380D01*
X137144047Y-98242380D01*
X137239285Y-98194761D01*
X137286904Y-98147142D01*
X137334523Y-98051904D01*
X137334523Y-97813809D01*
X137286904Y-97718571D01*
X137239285Y-97670952D01*
X137144047Y-97623333D01*
X136953571Y-97623333D01*
X136858333Y-97670952D01*
X136810714Y-97718571D01*
X136763095Y-97813809D01*
X132167380Y-92566904D02*
X133167380Y-92233571D01*
X132167380Y-91900238D01*
X132167380Y-91376428D02*
X132167380Y-91185952D01*
X132215000Y-91090714D01*
X132310238Y-90995476D01*
X132500714Y-90947857D01*
X132834047Y-90947857D01*
X133024523Y-90995476D01*
X133119761Y-91090714D01*
X133167380Y-91185952D01*
X133167380Y-91376428D01*
X133119761Y-91471666D01*
X133024523Y-91566904D01*
X132834047Y-91614523D01*
X132500714Y-91614523D01*
X132310238Y-91566904D01*
X132215000Y-91471666D01*
X132167380Y-91376428D01*
X132167380Y-90519285D02*
X132976904Y-90519285D01*
X133072142Y-90471666D01*
X133119761Y-90424047D01*
X133167380Y-90328809D01*
X133167380Y-90138333D01*
X133119761Y-90043095D01*
X133072142Y-89995476D01*
X132976904Y-89947857D01*
X132167380Y-89947857D01*
X132167380Y-89614523D02*
X132167380Y-89043095D01*
X133167380Y-89328809D02*
X132167380Y-89328809D01*
X134755000Y-91566904D02*
X134707380Y-91662142D01*
X134707380Y-91805000D01*
X134755000Y-91947857D01*
X134850238Y-92043095D01*
X134945476Y-92090714D01*
X135135952Y-92138333D01*
X135278809Y-92138333D01*
X135469285Y-92090714D01*
X135564523Y-92043095D01*
X135659761Y-91947857D01*
X135707380Y-91805000D01*
X135707380Y-91709761D01*
X135659761Y-91566904D01*
X135612142Y-91519285D01*
X135278809Y-91519285D01*
X135278809Y-91709761D01*
X135707380Y-91090714D02*
X134707380Y-91090714D01*
X135707380Y-90519285D01*
X134707380Y-90519285D01*
X135707380Y-90043095D02*
X134707380Y-90043095D01*
X134707380Y-89805000D01*
X134755000Y-89662142D01*
X134850238Y-89566904D01*
X134945476Y-89519285D01*
X135135952Y-89471666D01*
X135278809Y-89471666D01*
X135469285Y-89519285D01*
X135564523Y-89566904D01*
X135659761Y-89662142D01*
X135707380Y-89805000D01*
X135707380Y-90043095D01*
X137247380Y-91900238D02*
X138247380Y-91566904D01*
X137247380Y-91233571D01*
X138247380Y-90900238D02*
X137247380Y-90900238D01*
X138247380Y-90424047D02*
X137247380Y-90424047D01*
X138247380Y-89852619D01*
X137247380Y-89852619D01*
X140739761Y-92638333D02*
X140787380Y-92495476D01*
X140787380Y-92257380D01*
X140739761Y-92162142D01*
X140692142Y-92114523D01*
X140596904Y-92066904D01*
X140501666Y-92066904D01*
X140406428Y-92114523D01*
X140358809Y-92162142D01*
X140311190Y-92257380D01*
X140263571Y-92447857D01*
X140215952Y-92543095D01*
X140168333Y-92590714D01*
X140073095Y-92638333D01*
X139977857Y-92638333D01*
X139882619Y-92590714D01*
X139835000Y-92543095D01*
X139787380Y-92447857D01*
X139787380Y-92209761D01*
X139835000Y-92066904D01*
X140787380Y-91638333D02*
X139787380Y-91638333D01*
X140263571Y-91638333D02*
X140263571Y-91066904D01*
X140787380Y-91066904D02*
X139787380Y-91066904D01*
X140787380Y-90590714D02*
X139787380Y-90590714D01*
X139787380Y-90352619D01*
X139835000Y-90209761D01*
X139930238Y-90114523D01*
X140025476Y-90066904D01*
X140215952Y-90019285D01*
X140358809Y-90019285D01*
X140549285Y-90066904D01*
X140644523Y-90114523D01*
X140739761Y-90209761D01*
X140787380Y-90352619D01*
X140787380Y-90590714D01*
X140787380Y-89590714D02*
X139787380Y-89590714D01*
X140787380Y-89019285D01*
X139787380Y-89019285D01*
X113752380Y-84581904D02*
X114561904Y-84581904D01*
X114657142Y-84534285D01*
X114704761Y-84486666D01*
X114752380Y-84391428D01*
X114752380Y-84200952D01*
X114704761Y-84105714D01*
X114657142Y-84058095D01*
X114561904Y-84010476D01*
X113752380Y-84010476D01*
X113752380Y-83629523D02*
X113752380Y-82962857D01*
X114752380Y-83391428D01*
X92845000Y-82676904D02*
X92797380Y-82772142D01*
X92797380Y-82915000D01*
X92845000Y-83057857D01*
X92940238Y-83153095D01*
X93035476Y-83200714D01*
X93225952Y-83248333D01*
X93368809Y-83248333D01*
X93559285Y-83200714D01*
X93654523Y-83153095D01*
X93749761Y-83057857D01*
X93797380Y-82915000D01*
X93797380Y-82819761D01*
X93749761Y-82676904D01*
X93702142Y-82629285D01*
X93368809Y-82629285D01*
X93368809Y-82819761D01*
X93797380Y-82200714D02*
X92797380Y-82200714D01*
X93797380Y-81629285D01*
X92797380Y-81629285D01*
X93797380Y-81153095D02*
X92797380Y-81153095D01*
X92797380Y-80915000D01*
X92845000Y-80772142D01*
X92940238Y-80676904D01*
X93035476Y-80629285D01*
X93225952Y-80581666D01*
X93368809Y-80581666D01*
X93559285Y-80629285D01*
X93654523Y-80676904D01*
X93749761Y-80772142D01*
X93797380Y-80915000D01*
X93797380Y-81153095D01*
X95337380Y-83010238D02*
X96337380Y-82676904D01*
X95337380Y-82343571D01*
X96337380Y-82010238D02*
X95337380Y-82010238D01*
X96337380Y-81534047D02*
X95337380Y-81534047D01*
X96337380Y-80962619D01*
X95337380Y-80962619D01*
X97877380Y-82915000D02*
X97877380Y-82724523D01*
X97925000Y-82629285D01*
X98020238Y-82534047D01*
X98210714Y-82486428D01*
X98544047Y-82486428D01*
X98734523Y-82534047D01*
X98829761Y-82629285D01*
X98877380Y-82724523D01*
X98877380Y-82915000D01*
X98829761Y-83010238D01*
X98734523Y-83105476D01*
X98544047Y-83153095D01*
X98210714Y-83153095D01*
X98020238Y-83105476D01*
X97925000Y-83010238D01*
X97877380Y-82915000D01*
X97877380Y-82057857D02*
X98686904Y-82057857D01*
X98782142Y-82010238D01*
X98829761Y-81962619D01*
X98877380Y-81867380D01*
X98877380Y-81676904D01*
X98829761Y-81581666D01*
X98782142Y-81534047D01*
X98686904Y-81486428D01*
X97877380Y-81486428D01*
X97877380Y-81153095D02*
X97877380Y-80581666D01*
X98877380Y-80867380D02*
X97877380Y-80867380D01*
X100417380Y-82915000D02*
X100417380Y-82724523D01*
X100465000Y-82629285D01*
X100560238Y-82534047D01*
X100750714Y-82486428D01*
X101084047Y-82486428D01*
X101274523Y-82534047D01*
X101369761Y-82629285D01*
X101417380Y-82724523D01*
X101417380Y-82915000D01*
X101369761Y-83010238D01*
X101274523Y-83105476D01*
X101084047Y-83153095D01*
X100750714Y-83153095D01*
X100560238Y-83105476D01*
X100465000Y-83010238D01*
X100417380Y-82915000D01*
X100417380Y-82057857D02*
X101226904Y-82057857D01*
X101322142Y-82010238D01*
X101369761Y-81962619D01*
X101417380Y-81867380D01*
X101417380Y-81676904D01*
X101369761Y-81581666D01*
X101322142Y-81534047D01*
X101226904Y-81486428D01*
X100417380Y-81486428D01*
X100417380Y-81153095D02*
X100417380Y-80581666D01*
X101417380Y-80867380D02*
X100417380Y-80867380D01*
X102957380Y-82915000D02*
X102957380Y-82724523D01*
X103005000Y-82629285D01*
X103100238Y-82534047D01*
X103290714Y-82486428D01*
X103624047Y-82486428D01*
X103814523Y-82534047D01*
X103909761Y-82629285D01*
X103957380Y-82724523D01*
X103957380Y-82915000D01*
X103909761Y-83010238D01*
X103814523Y-83105476D01*
X103624047Y-83153095D01*
X103290714Y-83153095D01*
X103100238Y-83105476D01*
X103005000Y-83010238D01*
X102957380Y-82915000D01*
X102957380Y-82057857D02*
X103766904Y-82057857D01*
X103862142Y-82010238D01*
X103909761Y-81962619D01*
X103957380Y-81867380D01*
X103957380Y-81676904D01*
X103909761Y-81581666D01*
X103862142Y-81534047D01*
X103766904Y-81486428D01*
X102957380Y-81486428D01*
X102957380Y-81153095D02*
X102957380Y-80581666D01*
X103957380Y-80867380D02*
X102957380Y-80867380D01*
X105497380Y-82915000D02*
X105497380Y-82724523D01*
X105545000Y-82629285D01*
X105640238Y-82534047D01*
X105830714Y-82486428D01*
X106164047Y-82486428D01*
X106354523Y-82534047D01*
X106449761Y-82629285D01*
X106497380Y-82724523D01*
X106497380Y-82915000D01*
X106449761Y-83010238D01*
X106354523Y-83105476D01*
X106164047Y-83153095D01*
X105830714Y-83153095D01*
X105640238Y-83105476D01*
X105545000Y-83010238D01*
X105497380Y-82915000D01*
X105497380Y-82057857D02*
X106306904Y-82057857D01*
X106402142Y-82010238D01*
X106449761Y-81962619D01*
X106497380Y-81867380D01*
X106497380Y-81676904D01*
X106449761Y-81581666D01*
X106402142Y-81534047D01*
X106306904Y-81486428D01*
X105497380Y-81486428D01*
X105497380Y-81153095D02*
X105497380Y-80581666D01*
X106497380Y-80867380D02*
X105497380Y-80867380D01*
X108751666Y-84478571D02*
X108751666Y-84002380D01*
X109037380Y-84573809D02*
X108037380Y-84240476D01*
X109037380Y-83907142D01*
X109037380Y-83573809D02*
X108037380Y-83573809D01*
X108989761Y-83145238D02*
X109037380Y-83002380D01*
X109037380Y-82764285D01*
X108989761Y-82669047D01*
X108942142Y-82621428D01*
X108846904Y-82573809D01*
X108751666Y-82573809D01*
X108656428Y-82621428D01*
X108608809Y-82669047D01*
X108561190Y-82764285D01*
X108513571Y-82954761D01*
X108465952Y-83050000D01*
X108418333Y-83097619D01*
X108323095Y-83145238D01*
X108227857Y-83145238D01*
X108132619Y-83097619D01*
X108085000Y-83050000D01*
X108037380Y-82954761D01*
X108037380Y-82716666D01*
X108085000Y-82573809D01*
X108513571Y-82145238D02*
X108513571Y-81811904D01*
X109037380Y-81669047D02*
X109037380Y-82145238D01*
X108037380Y-82145238D01*
X108037380Y-81669047D01*
X109037380Y-81240476D02*
X108037380Y-81240476D01*
X109037380Y-80669047D01*
X108037380Y-80669047D01*
X111053571Y-84169047D02*
X111101190Y-84026190D01*
X111148809Y-83978571D01*
X111244047Y-83930952D01*
X111386904Y-83930952D01*
X111482142Y-83978571D01*
X111529761Y-84026190D01*
X111577380Y-84121428D01*
X111577380Y-84502380D01*
X110577380Y-84502380D01*
X110577380Y-84169047D01*
X110625000Y-84073809D01*
X110672619Y-84026190D01*
X110767857Y-83978571D01*
X110863095Y-83978571D01*
X110958333Y-84026190D01*
X111005952Y-84073809D01*
X111053571Y-84169047D01*
X111053571Y-84502380D01*
X111577380Y-83502380D02*
X110577380Y-83502380D01*
X111529761Y-83073809D02*
X111577380Y-82930952D01*
X111577380Y-82692857D01*
X111529761Y-82597619D01*
X111482142Y-82550000D01*
X111386904Y-82502380D01*
X111291666Y-82502380D01*
X111196428Y-82550000D01*
X111148809Y-82597619D01*
X111101190Y-82692857D01*
X111053571Y-82883333D01*
X111005952Y-82978571D01*
X110958333Y-83026190D01*
X110863095Y-83073809D01*
X110767857Y-83073809D01*
X110672619Y-83026190D01*
X110625000Y-82978571D01*
X110577380Y-82883333D01*
X110577380Y-82645238D01*
X110625000Y-82502380D01*
X111053571Y-82073809D02*
X111053571Y-81740476D01*
X111577380Y-81597619D02*
X111577380Y-82073809D01*
X110577380Y-82073809D01*
X110577380Y-81597619D01*
X111577380Y-81169047D02*
X110577380Y-81169047D01*
X111577380Y-80597619D01*
X110577380Y-80597619D01*
X92845000Y-87756904D02*
X92797380Y-87852142D01*
X92797380Y-87995000D01*
X92845000Y-88137857D01*
X92940238Y-88233095D01*
X93035476Y-88280714D01*
X93225952Y-88328333D01*
X93368809Y-88328333D01*
X93559285Y-88280714D01*
X93654523Y-88233095D01*
X93749761Y-88137857D01*
X93797380Y-87995000D01*
X93797380Y-87899761D01*
X93749761Y-87756904D01*
X93702142Y-87709285D01*
X93368809Y-87709285D01*
X93368809Y-87899761D01*
X93797380Y-87280714D02*
X92797380Y-87280714D01*
X93797380Y-86709285D01*
X92797380Y-86709285D01*
X93797380Y-86233095D02*
X92797380Y-86233095D01*
X92797380Y-85995000D01*
X92845000Y-85852142D01*
X92940238Y-85756904D01*
X93035476Y-85709285D01*
X93225952Y-85661666D01*
X93368809Y-85661666D01*
X93559285Y-85709285D01*
X93654523Y-85756904D01*
X93749761Y-85852142D01*
X93797380Y-85995000D01*
X93797380Y-86233095D01*
X95337380Y-88471190D02*
X96337380Y-88137857D01*
X95337380Y-87804523D01*
X96337380Y-87471190D02*
X95337380Y-87471190D01*
X96051666Y-87137857D01*
X95337380Y-86804523D01*
X96337380Y-86804523D01*
X96337380Y-86328333D02*
X95337380Y-86328333D01*
X96051666Y-85995000D01*
X95337380Y-85661666D01*
X96337380Y-85661666D01*
X98877380Y-88240952D02*
X97877380Y-88240952D01*
X98877380Y-87764761D02*
X97877380Y-87764761D01*
X98877380Y-87193333D01*
X97877380Y-87193333D01*
X98353571Y-85621904D02*
X98401190Y-85479047D01*
X98448809Y-85431428D01*
X98544047Y-85383809D01*
X98686904Y-85383809D01*
X98782142Y-85431428D01*
X98829761Y-85479047D01*
X98877380Y-85574285D01*
X98877380Y-85955238D01*
X97877380Y-85955238D01*
X97877380Y-85621904D01*
X97925000Y-85526666D01*
X97972619Y-85479047D01*
X98067857Y-85431428D01*
X98163095Y-85431428D01*
X98258333Y-85479047D01*
X98305952Y-85526666D01*
X98353571Y-85621904D01*
X98353571Y-85955238D01*
X98877380Y-84431428D02*
X98877380Y-85002857D01*
X98877380Y-84717142D02*
X97877380Y-84717142D01*
X98020238Y-84812380D01*
X98115476Y-84907619D01*
X98163095Y-85002857D01*
X101417380Y-88240952D02*
X100417380Y-88240952D01*
X101417380Y-87764761D02*
X100417380Y-87764761D01*
X101417380Y-87193333D01*
X100417380Y-87193333D01*
X100893571Y-85621904D02*
X100941190Y-85479047D01*
X100988809Y-85431428D01*
X101084047Y-85383809D01*
X101226904Y-85383809D01*
X101322142Y-85431428D01*
X101369761Y-85479047D01*
X101417380Y-85574285D01*
X101417380Y-85955238D01*
X100417380Y-85955238D01*
X100417380Y-85621904D01*
X100465000Y-85526666D01*
X100512619Y-85479047D01*
X100607857Y-85431428D01*
X100703095Y-85431428D01*
X100798333Y-85479047D01*
X100845952Y-85526666D01*
X100893571Y-85621904D01*
X100893571Y-85955238D01*
X100512619Y-85002857D02*
X100465000Y-84955238D01*
X100417380Y-84860000D01*
X100417380Y-84621904D01*
X100465000Y-84526666D01*
X100512619Y-84479047D01*
X100607857Y-84431428D01*
X100703095Y-84431428D01*
X100845952Y-84479047D01*
X101417380Y-85050476D01*
X101417380Y-84431428D01*
X103957380Y-88169523D02*
X102957380Y-88169523D01*
X103957380Y-87693333D02*
X102957380Y-87693333D01*
X103957380Y-87121904D01*
X102957380Y-87121904D01*
X103671666Y-85931428D02*
X103671666Y-85455238D01*
X103957380Y-86026666D02*
X102957380Y-85693333D01*
X103957380Y-85360000D01*
X103052619Y-85074285D02*
X103005000Y-85026666D01*
X102957380Y-84931428D01*
X102957380Y-84693333D01*
X103005000Y-84598095D01*
X103052619Y-84550476D01*
X103147857Y-84502857D01*
X103243095Y-84502857D01*
X103385952Y-84550476D01*
X103957380Y-85121904D01*
X103957380Y-84502857D01*
X106497380Y-88169523D02*
X105497380Y-88169523D01*
X106497380Y-87693333D02*
X105497380Y-87693333D01*
X106497380Y-87121904D01*
X105497380Y-87121904D01*
X106211666Y-85931428D02*
X106211666Y-85455238D01*
X106497380Y-86026666D02*
X105497380Y-85693333D01*
X106497380Y-85360000D01*
X106497380Y-84502857D02*
X106497380Y-85074285D01*
X106497380Y-84788571D02*
X105497380Y-84788571D01*
X105640238Y-84883809D01*
X105735476Y-84979047D01*
X105783095Y-85074285D01*
X108989761Y-88185476D02*
X109037380Y-88042619D01*
X109037380Y-87804523D01*
X108989761Y-87709285D01*
X108942142Y-87661666D01*
X108846904Y-87614047D01*
X108751666Y-87614047D01*
X108656428Y-87661666D01*
X108608809Y-87709285D01*
X108561190Y-87804523D01*
X108513571Y-87995000D01*
X108465952Y-88090238D01*
X108418333Y-88137857D01*
X108323095Y-88185476D01*
X108227857Y-88185476D01*
X108132619Y-88137857D01*
X108085000Y-88090238D01*
X108037380Y-87995000D01*
X108037380Y-87756904D01*
X108085000Y-87614047D01*
X109037380Y-86709285D02*
X109037380Y-87185476D01*
X108037380Y-87185476D01*
X109037380Y-86375952D02*
X108037380Y-86375952D01*
X108037380Y-85995000D01*
X108085000Y-85899761D01*
X108132619Y-85852142D01*
X108227857Y-85804523D01*
X108370714Y-85804523D01*
X108465952Y-85852142D01*
X108513571Y-85899761D01*
X108561190Y-85995000D01*
X108561190Y-86375952D01*
X111053571Y-87637857D02*
X111053571Y-87971190D01*
X111577380Y-87971190D02*
X110577380Y-87971190D01*
X110577380Y-87495000D01*
X111577380Y-86637857D02*
X111577380Y-87114047D01*
X110577380Y-87114047D01*
X110577380Y-86447380D02*
X110577380Y-85875952D01*
X111577380Y-86161666D02*
X110577380Y-86161666D01*
X75438095Y-125182380D02*
X75438095Y-125991904D01*
X75485714Y-126087142D01*
X75533333Y-126134761D01*
X75628571Y-126182380D01*
X75819047Y-126182380D01*
X75914285Y-126134761D01*
X75961904Y-126087142D01*
X76009523Y-125991904D01*
X76009523Y-125182380D01*
X76628571Y-125610952D02*
X76533333Y-125563333D01*
X76485714Y-125515714D01*
X76438095Y-125420476D01*
X76438095Y-125372857D01*
X76485714Y-125277619D01*
X76533333Y-125230000D01*
X76628571Y-125182380D01*
X76819047Y-125182380D01*
X76914285Y-125230000D01*
X76961904Y-125277619D01*
X77009523Y-125372857D01*
X77009523Y-125420476D01*
X76961904Y-125515714D01*
X76914285Y-125563333D01*
X76819047Y-125610952D01*
X76628571Y-125610952D01*
X76533333Y-125658571D01*
X76485714Y-125706190D01*
X76438095Y-125801428D01*
X76438095Y-125991904D01*
X76485714Y-126087142D01*
X76533333Y-126134761D01*
X76628571Y-126182380D01*
X76819047Y-126182380D01*
X76914285Y-126134761D01*
X76961904Y-126087142D01*
X77009523Y-125991904D01*
X77009523Y-125801428D01*
X76961904Y-125706190D01*
X76914285Y-125658571D01*
X76819047Y-125610952D01*
X82002380Y-113998095D02*
X83002380Y-113331428D01*
X82002380Y-113331428D02*
X83002380Y-113998095D01*
X82954761Y-112998095D02*
X83002380Y-112855238D01*
X83002380Y-112617142D01*
X82954761Y-112521904D01*
X82907142Y-112474285D01*
X82811904Y-112426666D01*
X82716666Y-112426666D01*
X82621428Y-112474285D01*
X82573809Y-112521904D01*
X82526190Y-112617142D01*
X82478571Y-112807619D01*
X82430952Y-112902857D01*
X82383333Y-112950476D01*
X82288095Y-112998095D01*
X82192857Y-112998095D01*
X82097619Y-112950476D01*
X82050000Y-112902857D01*
X82002380Y-112807619D01*
X82002380Y-112569523D01*
X82050000Y-112426666D01*
X83002380Y-111998095D02*
X82002380Y-111998095D01*
X82478571Y-111998095D02*
X82478571Y-111426666D01*
X83002380Y-111426666D02*
X82002380Y-111426666D01*
X82002380Y-110950476D02*
X82811904Y-110950476D01*
X82907142Y-110902857D01*
X82954761Y-110855238D01*
X83002380Y-110760000D01*
X83002380Y-110569523D01*
X82954761Y-110474285D01*
X82907142Y-110426666D01*
X82811904Y-110379047D01*
X82002380Y-110379047D01*
X82002380Y-110045714D02*
X82002380Y-109474285D01*
X83002380Y-109760000D02*
X82002380Y-109760000D01*
X79510000Y-113236190D02*
X79462380Y-113331428D01*
X79462380Y-113474285D01*
X79510000Y-113617142D01*
X79605238Y-113712380D01*
X79700476Y-113760000D01*
X79890952Y-113807619D01*
X80033809Y-113807619D01*
X80224285Y-113760000D01*
X80319523Y-113712380D01*
X80414761Y-113617142D01*
X80462380Y-113474285D01*
X80462380Y-113379047D01*
X80414761Y-113236190D01*
X80367142Y-113188571D01*
X80033809Y-113188571D01*
X80033809Y-113379047D01*
X80462380Y-112760000D02*
X79462380Y-112760000D01*
X79462380Y-112379047D01*
X79510000Y-112283809D01*
X79557619Y-112236190D01*
X79652857Y-112188571D01*
X79795714Y-112188571D01*
X79890952Y-112236190D01*
X79938571Y-112283809D01*
X79986190Y-112379047D01*
X79986190Y-112760000D01*
X80462380Y-111760000D02*
X79462380Y-111760000D01*
X79462380Y-111093333D02*
X79462380Y-110902857D01*
X79510000Y-110807619D01*
X79605238Y-110712380D01*
X79795714Y-110664761D01*
X80129047Y-110664761D01*
X80319523Y-110712380D01*
X80414761Y-110807619D01*
X80462380Y-110902857D01*
X80462380Y-111093333D01*
X80414761Y-111188571D01*
X80319523Y-111283809D01*
X80129047Y-111331428D01*
X79795714Y-111331428D01*
X79605238Y-111283809D01*
X79510000Y-111188571D01*
X79462380Y-111093333D01*
X80462380Y-109712380D02*
X80462380Y-110283809D01*
X80462380Y-109998095D02*
X79462380Y-109998095D01*
X79605238Y-110093333D01*
X79700476Y-110188571D01*
X79748095Y-110283809D01*
X77874761Y-113609285D02*
X77922380Y-113466428D01*
X77922380Y-113228333D01*
X77874761Y-113133095D01*
X77827142Y-113085476D01*
X77731904Y-113037857D01*
X77636666Y-113037857D01*
X77541428Y-113085476D01*
X77493809Y-113133095D01*
X77446190Y-113228333D01*
X77398571Y-113418809D01*
X77350952Y-113514047D01*
X77303333Y-113561666D01*
X77208095Y-113609285D01*
X77112857Y-113609285D01*
X77017619Y-113561666D01*
X76970000Y-113514047D01*
X76922380Y-113418809D01*
X76922380Y-113180714D01*
X76970000Y-113037857D01*
X77922380Y-112609285D02*
X76922380Y-112609285D01*
X76922380Y-112371190D01*
X76970000Y-112228333D01*
X77065238Y-112133095D01*
X77160476Y-112085476D01*
X77350952Y-112037857D01*
X77493809Y-112037857D01*
X77684285Y-112085476D01*
X77779523Y-112133095D01*
X77874761Y-112228333D01*
X77922380Y-112371190D01*
X77922380Y-112609285D01*
X77636666Y-111656904D02*
X77636666Y-111180714D01*
X77922380Y-111752142D02*
X76922380Y-111418809D01*
X77922380Y-111085476D01*
X75334761Y-113585476D02*
X75382380Y-113442619D01*
X75382380Y-113204523D01*
X75334761Y-113109285D01*
X75287142Y-113061666D01*
X75191904Y-113014047D01*
X75096666Y-113014047D01*
X75001428Y-113061666D01*
X74953809Y-113109285D01*
X74906190Y-113204523D01*
X74858571Y-113395000D01*
X74810952Y-113490238D01*
X74763333Y-113537857D01*
X74668095Y-113585476D01*
X74572857Y-113585476D01*
X74477619Y-113537857D01*
X74430000Y-113490238D01*
X74382380Y-113395000D01*
X74382380Y-113156904D01*
X74430000Y-113014047D01*
X75287142Y-112014047D02*
X75334761Y-112061666D01*
X75382380Y-112204523D01*
X75382380Y-112299761D01*
X75334761Y-112442619D01*
X75239523Y-112537857D01*
X75144285Y-112585476D01*
X74953809Y-112633095D01*
X74810952Y-112633095D01*
X74620476Y-112585476D01*
X74525238Y-112537857D01*
X74430000Y-112442619D01*
X74382380Y-112299761D01*
X74382380Y-112204523D01*
X74430000Y-112061666D01*
X74477619Y-112014047D01*
X75382380Y-111109285D02*
X75382380Y-111585476D01*
X74382380Y-111585476D01*
X71890000Y-113156904D02*
X71842380Y-113252142D01*
X71842380Y-113395000D01*
X71890000Y-113537857D01*
X71985238Y-113633095D01*
X72080476Y-113680714D01*
X72270952Y-113728333D01*
X72413809Y-113728333D01*
X72604285Y-113680714D01*
X72699523Y-113633095D01*
X72794761Y-113537857D01*
X72842380Y-113395000D01*
X72842380Y-113299761D01*
X72794761Y-113156904D01*
X72747142Y-113109285D01*
X72413809Y-113109285D01*
X72413809Y-113299761D01*
X72842380Y-112680714D02*
X71842380Y-112680714D01*
X72842380Y-112109285D01*
X71842380Y-112109285D01*
X72842380Y-111633095D02*
X71842380Y-111633095D01*
X71842380Y-111395000D01*
X71890000Y-111252142D01*
X71985238Y-111156904D01*
X72080476Y-111109285D01*
X72270952Y-111061666D01*
X72413809Y-111061666D01*
X72604285Y-111109285D01*
X72699523Y-111156904D01*
X72794761Y-111252142D01*
X72842380Y-111395000D01*
X72842380Y-111633095D01*
X69302380Y-113490238D02*
X70302380Y-113156904D01*
X69302380Y-112823571D01*
X70302380Y-112490238D02*
X69302380Y-112490238D01*
X70302380Y-112014047D02*
X69302380Y-112014047D01*
X70302380Y-111442619D01*
X69302380Y-111442619D01*
X113538095Y-125182380D02*
X113538095Y-125991904D01*
X113585714Y-126087142D01*
X113633333Y-126134761D01*
X113728571Y-126182380D01*
X113919047Y-126182380D01*
X114014285Y-126134761D01*
X114061904Y-126087142D01*
X114109523Y-125991904D01*
X114109523Y-125182380D01*
X114633333Y-126182380D02*
X114823809Y-126182380D01*
X114919047Y-126134761D01*
X114966666Y-126087142D01*
X115061904Y-125944285D01*
X115109523Y-125753809D01*
X115109523Y-125372857D01*
X115061904Y-125277619D01*
X115014285Y-125230000D01*
X114919047Y-125182380D01*
X114728571Y-125182380D01*
X114633333Y-125230000D01*
X114585714Y-125277619D01*
X114538095Y-125372857D01*
X114538095Y-125610952D01*
X114585714Y-125706190D01*
X114633333Y-125753809D01*
X114728571Y-125801428D01*
X114919047Y-125801428D01*
X115014285Y-125753809D01*
X115061904Y-125706190D01*
X115109523Y-125610952D01*
X107402380Y-113490238D02*
X108402380Y-113156904D01*
X107402380Y-112823571D01*
X108402380Y-112490238D02*
X107402380Y-112490238D01*
X108402380Y-112014047D02*
X107402380Y-112014047D01*
X108402380Y-111442619D01*
X107402380Y-111442619D01*
X109990000Y-113156904D02*
X109942380Y-113252142D01*
X109942380Y-113395000D01*
X109990000Y-113537857D01*
X110085238Y-113633095D01*
X110180476Y-113680714D01*
X110370952Y-113728333D01*
X110513809Y-113728333D01*
X110704285Y-113680714D01*
X110799523Y-113633095D01*
X110894761Y-113537857D01*
X110942380Y-113395000D01*
X110942380Y-113299761D01*
X110894761Y-113156904D01*
X110847142Y-113109285D01*
X110513809Y-113109285D01*
X110513809Y-113299761D01*
X110942380Y-112680714D02*
X109942380Y-112680714D01*
X110942380Y-112109285D01*
X109942380Y-112109285D01*
X110942380Y-111633095D02*
X109942380Y-111633095D01*
X109942380Y-111395000D01*
X109990000Y-111252142D01*
X110085238Y-111156904D01*
X110180476Y-111109285D01*
X110370952Y-111061666D01*
X110513809Y-111061666D01*
X110704285Y-111109285D01*
X110799523Y-111156904D01*
X110894761Y-111252142D01*
X110942380Y-111395000D01*
X110942380Y-111633095D01*
X113434761Y-113585476D02*
X113482380Y-113442619D01*
X113482380Y-113204523D01*
X113434761Y-113109285D01*
X113387142Y-113061666D01*
X113291904Y-113014047D01*
X113196666Y-113014047D01*
X113101428Y-113061666D01*
X113053809Y-113109285D01*
X113006190Y-113204523D01*
X112958571Y-113395000D01*
X112910952Y-113490238D01*
X112863333Y-113537857D01*
X112768095Y-113585476D01*
X112672857Y-113585476D01*
X112577619Y-113537857D01*
X112530000Y-113490238D01*
X112482380Y-113395000D01*
X112482380Y-113156904D01*
X112530000Y-113014047D01*
X113387142Y-112014047D02*
X113434761Y-112061666D01*
X113482380Y-112204523D01*
X113482380Y-112299761D01*
X113434761Y-112442619D01*
X113339523Y-112537857D01*
X113244285Y-112585476D01*
X113053809Y-112633095D01*
X112910952Y-112633095D01*
X112720476Y-112585476D01*
X112625238Y-112537857D01*
X112530000Y-112442619D01*
X112482380Y-112299761D01*
X112482380Y-112204523D01*
X112530000Y-112061666D01*
X112577619Y-112014047D01*
X113482380Y-111109285D02*
X113482380Y-111585476D01*
X112482380Y-111585476D01*
X115974761Y-113609285D02*
X116022380Y-113466428D01*
X116022380Y-113228333D01*
X115974761Y-113133095D01*
X115927142Y-113085476D01*
X115831904Y-113037857D01*
X115736666Y-113037857D01*
X115641428Y-113085476D01*
X115593809Y-113133095D01*
X115546190Y-113228333D01*
X115498571Y-113418809D01*
X115450952Y-113514047D01*
X115403333Y-113561666D01*
X115308095Y-113609285D01*
X115212857Y-113609285D01*
X115117619Y-113561666D01*
X115070000Y-113514047D01*
X115022380Y-113418809D01*
X115022380Y-113180714D01*
X115070000Y-113037857D01*
X116022380Y-112609285D02*
X115022380Y-112609285D01*
X115022380Y-112371190D01*
X115070000Y-112228333D01*
X115165238Y-112133095D01*
X115260476Y-112085476D01*
X115450952Y-112037857D01*
X115593809Y-112037857D01*
X115784285Y-112085476D01*
X115879523Y-112133095D01*
X115974761Y-112228333D01*
X116022380Y-112371190D01*
X116022380Y-112609285D01*
X115736666Y-111656904D02*
X115736666Y-111180714D01*
X116022380Y-111752142D02*
X115022380Y-111418809D01*
X116022380Y-111085476D01*
X117610000Y-113236190D02*
X117562380Y-113331428D01*
X117562380Y-113474285D01*
X117610000Y-113617142D01*
X117705238Y-113712380D01*
X117800476Y-113760000D01*
X117990952Y-113807619D01*
X118133809Y-113807619D01*
X118324285Y-113760000D01*
X118419523Y-113712380D01*
X118514761Y-113617142D01*
X118562380Y-113474285D01*
X118562380Y-113379047D01*
X118514761Y-113236190D01*
X118467142Y-113188571D01*
X118133809Y-113188571D01*
X118133809Y-113379047D01*
X118562380Y-112760000D02*
X117562380Y-112760000D01*
X117562380Y-112379047D01*
X117610000Y-112283809D01*
X117657619Y-112236190D01*
X117752857Y-112188571D01*
X117895714Y-112188571D01*
X117990952Y-112236190D01*
X118038571Y-112283809D01*
X118086190Y-112379047D01*
X118086190Y-112760000D01*
X118562380Y-111760000D02*
X117562380Y-111760000D01*
X117562380Y-111093333D02*
X117562380Y-110902857D01*
X117610000Y-110807619D01*
X117705238Y-110712380D01*
X117895714Y-110664761D01*
X118229047Y-110664761D01*
X118419523Y-110712380D01*
X118514761Y-110807619D01*
X118562380Y-110902857D01*
X118562380Y-111093333D01*
X118514761Y-111188571D01*
X118419523Y-111283809D01*
X118229047Y-111331428D01*
X117895714Y-111331428D01*
X117705238Y-111283809D01*
X117610000Y-111188571D01*
X117562380Y-111093333D01*
X118562380Y-109712380D02*
X118562380Y-110283809D01*
X118562380Y-109998095D02*
X117562380Y-109998095D01*
X117705238Y-110093333D01*
X117800476Y-110188571D01*
X117848095Y-110283809D01*
X120102380Y-113998095D02*
X121102380Y-113331428D01*
X120102380Y-113331428D02*
X121102380Y-113998095D01*
X121054761Y-112998095D02*
X121102380Y-112855238D01*
X121102380Y-112617142D01*
X121054761Y-112521904D01*
X121007142Y-112474285D01*
X120911904Y-112426666D01*
X120816666Y-112426666D01*
X120721428Y-112474285D01*
X120673809Y-112521904D01*
X120626190Y-112617142D01*
X120578571Y-112807619D01*
X120530952Y-112902857D01*
X120483333Y-112950476D01*
X120388095Y-112998095D01*
X120292857Y-112998095D01*
X120197619Y-112950476D01*
X120150000Y-112902857D01*
X120102380Y-112807619D01*
X120102380Y-112569523D01*
X120150000Y-112426666D01*
X121102380Y-111998095D02*
X120102380Y-111998095D01*
X120578571Y-111998095D02*
X120578571Y-111426666D01*
X121102380Y-111426666D02*
X120102380Y-111426666D01*
X120102380Y-110950476D02*
X120911904Y-110950476D01*
X121007142Y-110902857D01*
X121054761Y-110855238D01*
X121102380Y-110760000D01*
X121102380Y-110569523D01*
X121054761Y-110474285D01*
X121007142Y-110426666D01*
X120911904Y-110379047D01*
X120102380Y-110379047D01*
X120102380Y-110045714D02*
X120102380Y-109474285D01*
X121102380Y-109760000D02*
X120102380Y-109760000D01*
X145502380Y-94583095D02*
X146311904Y-94583095D01*
X146407142Y-94535476D01*
X146454761Y-94487857D01*
X146502380Y-94392619D01*
X146502380Y-94202142D01*
X146454761Y-94106904D01*
X146407142Y-94059285D01*
X146311904Y-94011666D01*
X145502380Y-94011666D01*
X146502380Y-93011666D02*
X146502380Y-93583095D01*
X146502380Y-93297380D02*
X145502380Y-93297380D01*
X145645238Y-93392619D01*
X145740476Y-93487857D01*
X145788095Y-93583095D01*
X145502380Y-92392619D02*
X145502380Y-92297380D01*
X145550000Y-92202142D01*
X145597619Y-92154523D01*
X145692857Y-92106904D01*
X145883333Y-92059285D01*
X146121428Y-92059285D01*
X146311904Y-92106904D01*
X146407142Y-92154523D01*
X146454761Y-92202142D01*
X146502380Y-92297380D01*
X146502380Y-92392619D01*
X146454761Y-92487857D01*
X146407142Y-92535476D01*
X146311904Y-92583095D01*
X146121428Y-92630714D01*
X145883333Y-92630714D01*
X145692857Y-92583095D01*
X145597619Y-92535476D01*
X145550000Y-92487857D01*
X145502380Y-92392619D01*
X153122380Y-89090476D02*
X153122380Y-89566666D01*
X153598571Y-89614285D01*
X153550952Y-89566666D01*
X153503333Y-89471428D01*
X153503333Y-89233333D01*
X153550952Y-89138095D01*
X153598571Y-89090476D01*
X153693809Y-89042857D01*
X153931904Y-89042857D01*
X154027142Y-89090476D01*
X154074761Y-89138095D01*
X154122380Y-89233333D01*
X154122380Y-89471428D01*
X154074761Y-89566666D01*
X154027142Y-89614285D01*
X153122380Y-88757142D02*
X154122380Y-88423809D01*
X153122380Y-88090476D01*
X153122380Y-91916190D02*
X153122380Y-91820952D01*
X153170000Y-91725714D01*
X153217619Y-91678095D01*
X153312857Y-91630476D01*
X153503333Y-91582857D01*
X153741428Y-91582857D01*
X153931904Y-91630476D01*
X154027142Y-91678095D01*
X154074761Y-91725714D01*
X154122380Y-91820952D01*
X154122380Y-91916190D01*
X154074761Y-92011428D01*
X154027142Y-92059047D01*
X153931904Y-92106666D01*
X153741428Y-92154285D01*
X153503333Y-92154285D01*
X153312857Y-92106666D01*
X153217619Y-92059047D01*
X153170000Y-92011428D01*
X153122380Y-91916190D01*
X153122380Y-91297142D02*
X154122380Y-90963809D01*
X153122380Y-90630476D01*
X154074761Y-94265714D02*
X154122380Y-94122857D01*
X154122380Y-93884761D01*
X154074761Y-93789523D01*
X154027142Y-93741904D01*
X153931904Y-93694285D01*
X153836666Y-93694285D01*
X153741428Y-93741904D01*
X153693809Y-93789523D01*
X153646190Y-93884761D01*
X153598571Y-94075238D01*
X153550952Y-94170476D01*
X153503333Y-94218095D01*
X153408095Y-94265714D01*
X153312857Y-94265714D01*
X153217619Y-94218095D01*
X153170000Y-94170476D01*
X153122380Y-94075238D01*
X153122380Y-93837142D01*
X153170000Y-93694285D01*
X233711904Y-86657380D02*
X233711904Y-87466904D01*
X233759523Y-87562142D01*
X233807142Y-87609761D01*
X233902380Y-87657380D01*
X234092857Y-87657380D01*
X234188095Y-87609761D01*
X234235714Y-87562142D01*
X234283333Y-87466904D01*
X234283333Y-86657380D01*
X235283333Y-87657380D02*
X234711904Y-87657380D01*
X234997619Y-87657380D02*
X234997619Y-86657380D01*
X234902380Y-86800238D01*
X234807142Y-86895476D01*
X234711904Y-86943095D01*
X236235714Y-87657380D02*
X235664285Y-87657380D01*
X235950000Y-87657380D02*
X235950000Y-86657380D01*
X235854761Y-86800238D01*
X235759523Y-86895476D01*
X235664285Y-86943095D01*
X191166904Y-101687380D02*
X191166904Y-102496904D01*
X191214523Y-102592142D01*
X191262142Y-102639761D01*
X191357380Y-102687380D01*
X191547857Y-102687380D01*
X191643095Y-102639761D01*
X191690714Y-102592142D01*
X191738333Y-102496904D01*
X191738333Y-101687380D01*
X192738333Y-102687380D02*
X192166904Y-102687380D01*
X192452619Y-102687380D02*
X192452619Y-101687380D01*
X192357380Y-101830238D01*
X192262142Y-101925476D01*
X192166904Y-101973095D01*
X193071666Y-101687380D02*
X193690714Y-101687380D01*
X193357380Y-102068333D01*
X193500238Y-102068333D01*
X193595476Y-102115952D01*
X193643095Y-102163571D01*
X193690714Y-102258809D01*
X193690714Y-102496904D01*
X193643095Y-102592142D01*
X193595476Y-102639761D01*
X193500238Y-102687380D01*
X193214523Y-102687380D01*
X193119285Y-102639761D01*
X193071666Y-102592142D01*
X171704047Y-51506428D02*
X172465952Y-51506428D01*
X172085000Y-51887380D02*
X172085000Y-51125476D01*
X191389047Y-51506428D02*
X192150952Y-51506428D01*
X191770000Y-51887380D02*
X191770000Y-51125476D01*
X211074047Y-51506428D02*
X211835952Y-51506428D01*
X211455000Y-51887380D02*
X211455000Y-51125476D01*
X171704047Y-118181428D02*
X172465952Y-118181428D01*
X191389047Y-118181428D02*
X192150952Y-118181428D01*
X211074047Y-118181428D02*
X211835952Y-118181428D01*
X94511904Y-117777380D02*
X94511904Y-116777380D01*
X94750000Y-116777380D01*
X94892857Y-116825000D01*
X94988095Y-116920238D01*
X95035714Y-117015476D01*
X95083333Y-117205952D01*
X95083333Y-117348809D01*
X95035714Y-117539285D01*
X94988095Y-117634523D01*
X94892857Y-117729761D01*
X94750000Y-117777380D01*
X94511904Y-117777380D01*
X96035714Y-117777380D02*
X95464285Y-117777380D01*
X95750000Y-117777380D02*
X95750000Y-116777380D01*
X95654761Y-116920238D01*
X95559523Y-117015476D01*
X95464285Y-117063095D01*
M02*
