G04 #@! TF.GenerationSoftware,KiCad,Pcbnew,(5.1.2)-1*
G04 #@! TF.CreationDate,2019-05-08T10:34:19+02:00*
G04 #@! TF.ProjectId,bigmax,6269676d-6178-42e6-9b69-6361645f7063,v2*
G04 #@! TF.SameCoordinates,Original*
G04 #@! TF.FileFunction,Soldermask,Bot*
G04 #@! TF.FilePolarity,Negative*
%FSLAX46Y46*%
G04 Gerber Fmt 4.6, Leading zero omitted, Abs format (unit mm)*
G04 Created by KiCad (PCBNEW (5.1.2)-1) date 2019-05-08 10:34:19*
%MOMM*%
%LPD*%
G04 APERTURE LIST*
%ADD10C,0.100000*%
G04 APERTURE END LIST*
D10*
G36*
X104941823Y-124891313D02*
G01*
X105102242Y-124939976D01*
X105234906Y-125010886D01*
X105250078Y-125018996D01*
X105379659Y-125125341D01*
X105486004Y-125254922D01*
X105486005Y-125254924D01*
X105565024Y-125402758D01*
X105613687Y-125563177D01*
X105630117Y-125730000D01*
X105613687Y-125896823D01*
X105565024Y-126057242D01*
X105494114Y-126189906D01*
X105486004Y-126205078D01*
X105379659Y-126334659D01*
X105250078Y-126441004D01*
X105250076Y-126441005D01*
X105102242Y-126520024D01*
X104941823Y-126568687D01*
X104816804Y-126581000D01*
X104733196Y-126581000D01*
X104608177Y-126568687D01*
X104447758Y-126520024D01*
X104299924Y-126441005D01*
X104299922Y-126441004D01*
X104170341Y-126334659D01*
X104063996Y-126205078D01*
X104055886Y-126189906D01*
X103984976Y-126057242D01*
X103936313Y-125896823D01*
X103919883Y-125730000D01*
X103936313Y-125563177D01*
X103984976Y-125402758D01*
X104063995Y-125254924D01*
X104063996Y-125254922D01*
X104170341Y-125125341D01*
X104299922Y-125018996D01*
X104315094Y-125010886D01*
X104447758Y-124939976D01*
X104608177Y-124891313D01*
X104733196Y-124879000D01*
X104816804Y-124879000D01*
X104941823Y-124891313D01*
X104941823Y-124891313D01*
G37*
G36*
X85891823Y-124891313D02*
G01*
X86052242Y-124939976D01*
X86184906Y-125010886D01*
X86200078Y-125018996D01*
X86329659Y-125125341D01*
X86436004Y-125254922D01*
X86436005Y-125254924D01*
X86515024Y-125402758D01*
X86563687Y-125563177D01*
X86580117Y-125730000D01*
X86563687Y-125896823D01*
X86515024Y-126057242D01*
X86444114Y-126189906D01*
X86436004Y-126205078D01*
X86329659Y-126334659D01*
X86200078Y-126441004D01*
X86200076Y-126441005D01*
X86052242Y-126520024D01*
X85891823Y-126568687D01*
X85766804Y-126581000D01*
X85683196Y-126581000D01*
X85558177Y-126568687D01*
X85397758Y-126520024D01*
X85249924Y-126441005D01*
X85249922Y-126441004D01*
X85120341Y-126334659D01*
X85013996Y-126205078D01*
X85005886Y-126189906D01*
X84934976Y-126057242D01*
X84886313Y-125896823D01*
X84869883Y-125730000D01*
X84886313Y-125563177D01*
X84934976Y-125402758D01*
X85013995Y-125254924D01*
X85013996Y-125254922D01*
X85120341Y-125125341D01*
X85249922Y-125018996D01*
X85265094Y-125010886D01*
X85397758Y-124939976D01*
X85558177Y-124891313D01*
X85683196Y-124879000D01*
X85766804Y-124879000D01*
X85891823Y-124891313D01*
X85891823Y-124891313D01*
G37*
G36*
X96654478Y-120243926D02*
G01*
X96722889Y-120264678D01*
X96783794Y-120283153D01*
X96902963Y-120346851D01*
X97007423Y-120432578D01*
X97093149Y-120537036D01*
X97156847Y-120656205D01*
X97173046Y-120709606D01*
X97194432Y-120780107D01*
X97196074Y-120785522D01*
X97206000Y-120886300D01*
X97206000Y-121683700D01*
X97196074Y-121784478D01*
X97156847Y-121913795D01*
X97093149Y-122032964D01*
X97007423Y-122137423D01*
X96902964Y-122223149D01*
X96783795Y-122286847D01*
X96730395Y-122303045D01*
X96654479Y-122326074D01*
X96520000Y-122339319D01*
X96385522Y-122326074D01*
X96309606Y-122303045D01*
X96256206Y-122286847D01*
X96137037Y-122223149D01*
X96032578Y-122137423D01*
X95946852Y-122032964D01*
X95883154Y-121913794D01*
X95883153Y-121913791D01*
X95843926Y-121784479D01*
X95834000Y-121683698D01*
X95834000Y-120886303D01*
X95843926Y-120785522D01*
X95883152Y-120656210D01*
X95883153Y-120656206D01*
X95946851Y-120537037D01*
X96032578Y-120432577D01*
X96137036Y-120346851D01*
X96256205Y-120283153D01*
X96317110Y-120264678D01*
X96385521Y-120243926D01*
X96520000Y-120230681D01*
X96654478Y-120243926D01*
X96654478Y-120243926D01*
G37*
G36*
X98559478Y-120243926D02*
G01*
X98627889Y-120264678D01*
X98688794Y-120283153D01*
X98807963Y-120346851D01*
X98912423Y-120432578D01*
X98998149Y-120537036D01*
X99061847Y-120656205D01*
X99078046Y-120709606D01*
X99099432Y-120780107D01*
X99101074Y-120785522D01*
X99111000Y-120886300D01*
X99111000Y-121683700D01*
X99101074Y-121784478D01*
X99061847Y-121913795D01*
X98998149Y-122032964D01*
X98912423Y-122137423D01*
X98807964Y-122223149D01*
X98688795Y-122286847D01*
X98635395Y-122303045D01*
X98559479Y-122326074D01*
X98425000Y-122339319D01*
X98290522Y-122326074D01*
X98214606Y-122303045D01*
X98161206Y-122286847D01*
X98042037Y-122223149D01*
X97937578Y-122137423D01*
X97851852Y-122032964D01*
X97788154Y-121913794D01*
X97788153Y-121913791D01*
X97748926Y-121784479D01*
X97739000Y-121683698D01*
X97739000Y-120886303D01*
X97748926Y-120785522D01*
X97788152Y-120656210D01*
X97788153Y-120656206D01*
X97851851Y-120537037D01*
X97937578Y-120432577D01*
X98042036Y-120346851D01*
X98161205Y-120283153D01*
X98222110Y-120264678D01*
X98290521Y-120243926D01*
X98425000Y-120230681D01*
X98559478Y-120243926D01*
X98559478Y-120243926D01*
G37*
G36*
X94749478Y-120243926D02*
G01*
X94817889Y-120264678D01*
X94878794Y-120283153D01*
X94997963Y-120346851D01*
X95102423Y-120432578D01*
X95188149Y-120537036D01*
X95251847Y-120656205D01*
X95268046Y-120709606D01*
X95289432Y-120780107D01*
X95291074Y-120785522D01*
X95301000Y-120886300D01*
X95301000Y-121683700D01*
X95291074Y-121784478D01*
X95251847Y-121913795D01*
X95188149Y-122032964D01*
X95102423Y-122137423D01*
X94997964Y-122223149D01*
X94878795Y-122286847D01*
X94825395Y-122303045D01*
X94749479Y-122326074D01*
X94615000Y-122339319D01*
X94480522Y-122326074D01*
X94404606Y-122303045D01*
X94351206Y-122286847D01*
X94232037Y-122223149D01*
X94127578Y-122137423D01*
X94041852Y-122032964D01*
X93978154Y-121913794D01*
X93978153Y-121913791D01*
X93938926Y-121784479D01*
X93929000Y-121683698D01*
X93929000Y-120886303D01*
X93938926Y-120785522D01*
X93978152Y-120656210D01*
X93978153Y-120656206D01*
X94041851Y-120537037D01*
X94127578Y-120432577D01*
X94232036Y-120346851D01*
X94351205Y-120283153D01*
X94412110Y-120264678D01*
X94480521Y-120243926D01*
X94615000Y-120230681D01*
X94749478Y-120243926D01*
X94749478Y-120243926D01*
G37*
G36*
X93396000Y-122336000D02*
G01*
X92024000Y-122336000D01*
X92024000Y-120234000D01*
X93396000Y-120234000D01*
X93396000Y-122336000D01*
X93396000Y-122336000D01*
G37*
G36*
X211712714Y-119354382D02*
G01*
X211840322Y-119379765D01*
X211981148Y-119438097D01*
X212080727Y-119479344D01*
X212080728Y-119479345D01*
X212297089Y-119623912D01*
X212481088Y-119807911D01*
X212577685Y-119952479D01*
X212625656Y-120024273D01*
X212666903Y-120123852D01*
X212725235Y-120264678D01*
X212728910Y-120283153D01*
X212776000Y-120519891D01*
X212776000Y-120780109D01*
X212750618Y-120907714D01*
X212725235Y-121035322D01*
X212666903Y-121176148D01*
X212625656Y-121275727D01*
X212625655Y-121275728D01*
X212481088Y-121492089D01*
X212297089Y-121676088D01*
X212152521Y-121772685D01*
X212080727Y-121820656D01*
X211981148Y-121861903D01*
X211840322Y-121920235D01*
X211712715Y-121945617D01*
X211585109Y-121971000D01*
X211324891Y-121971000D01*
X211197285Y-121945617D01*
X211069678Y-121920235D01*
X210928852Y-121861903D01*
X210829273Y-121820656D01*
X210757479Y-121772685D01*
X210612911Y-121676088D01*
X210428912Y-121492089D01*
X210284345Y-121275728D01*
X210284344Y-121275727D01*
X210243097Y-121176148D01*
X210184765Y-121035322D01*
X210159382Y-120907714D01*
X210134000Y-120780109D01*
X210134000Y-120519891D01*
X210181090Y-120283153D01*
X210184765Y-120264678D01*
X210243097Y-120123852D01*
X210284344Y-120024273D01*
X210332315Y-119952479D01*
X210428912Y-119807911D01*
X210612911Y-119623912D01*
X210829272Y-119479345D01*
X210829273Y-119479344D01*
X210928852Y-119438097D01*
X211069678Y-119379765D01*
X211197286Y-119354382D01*
X211324891Y-119329000D01*
X211585109Y-119329000D01*
X211712714Y-119354382D01*
X211712714Y-119354382D01*
G37*
G36*
X192027714Y-119354382D02*
G01*
X192155322Y-119379765D01*
X192296148Y-119438097D01*
X192395727Y-119479344D01*
X192395728Y-119479345D01*
X192612089Y-119623912D01*
X192796088Y-119807911D01*
X192892685Y-119952479D01*
X192940656Y-120024273D01*
X192981903Y-120123852D01*
X193040235Y-120264678D01*
X193043910Y-120283153D01*
X193091000Y-120519891D01*
X193091000Y-120780109D01*
X193065618Y-120907714D01*
X193040235Y-121035322D01*
X192981903Y-121176148D01*
X192940656Y-121275727D01*
X192940655Y-121275728D01*
X192796088Y-121492089D01*
X192612089Y-121676088D01*
X192467521Y-121772685D01*
X192395727Y-121820656D01*
X192296148Y-121861903D01*
X192155322Y-121920235D01*
X192027715Y-121945617D01*
X191900109Y-121971000D01*
X191639891Y-121971000D01*
X191512285Y-121945617D01*
X191384678Y-121920235D01*
X191243852Y-121861903D01*
X191144273Y-121820656D01*
X191072479Y-121772685D01*
X190927911Y-121676088D01*
X190743912Y-121492089D01*
X190599345Y-121275728D01*
X190599344Y-121275727D01*
X190558097Y-121176148D01*
X190499765Y-121035322D01*
X190474382Y-120907714D01*
X190449000Y-120780109D01*
X190449000Y-120519891D01*
X190496090Y-120283153D01*
X190499765Y-120264678D01*
X190558097Y-120123852D01*
X190599344Y-120024273D01*
X190647315Y-119952479D01*
X190743912Y-119807911D01*
X190927911Y-119623912D01*
X191144272Y-119479345D01*
X191144273Y-119479344D01*
X191243852Y-119438097D01*
X191384678Y-119379765D01*
X191512286Y-119354382D01*
X191639891Y-119329000D01*
X191900109Y-119329000D01*
X192027714Y-119354382D01*
X192027714Y-119354382D01*
G37*
G36*
X172342714Y-119354382D02*
G01*
X172470322Y-119379765D01*
X172611148Y-119438097D01*
X172710727Y-119479344D01*
X172710728Y-119479345D01*
X172927089Y-119623912D01*
X173111088Y-119807911D01*
X173207685Y-119952479D01*
X173255656Y-120024273D01*
X173296903Y-120123852D01*
X173355235Y-120264678D01*
X173358910Y-120283153D01*
X173406000Y-120519891D01*
X173406000Y-120780109D01*
X173380618Y-120907714D01*
X173355235Y-121035322D01*
X173296903Y-121176148D01*
X173255656Y-121275727D01*
X173255655Y-121275728D01*
X173111088Y-121492089D01*
X172927089Y-121676088D01*
X172782521Y-121772685D01*
X172710727Y-121820656D01*
X172611148Y-121861903D01*
X172470322Y-121920235D01*
X172342715Y-121945617D01*
X172215109Y-121971000D01*
X171954891Y-121971000D01*
X171827285Y-121945617D01*
X171699678Y-121920235D01*
X171558852Y-121861903D01*
X171459273Y-121820656D01*
X171387479Y-121772685D01*
X171242911Y-121676088D01*
X171058912Y-121492089D01*
X170914345Y-121275728D01*
X170914344Y-121275727D01*
X170873097Y-121176148D01*
X170814765Y-121035322D01*
X170789382Y-120907714D01*
X170764000Y-120780109D01*
X170764000Y-120519891D01*
X170811090Y-120283153D01*
X170814765Y-120264678D01*
X170873097Y-120123852D01*
X170914344Y-120024273D01*
X170962315Y-119952479D01*
X171058912Y-119807911D01*
X171242911Y-119623912D01*
X171459272Y-119479345D01*
X171459273Y-119479344D01*
X171558852Y-119438097D01*
X171699678Y-119379765D01*
X171827286Y-119354382D01*
X171954891Y-119329000D01*
X172215109Y-119329000D01*
X172342714Y-119354382D01*
X172342714Y-119354382D01*
G37*
G36*
X100496823Y-115366313D02*
G01*
X100657242Y-115414976D01*
X100724361Y-115450852D01*
X100805078Y-115493996D01*
X100934659Y-115600341D01*
X101041004Y-115729922D01*
X101041005Y-115729924D01*
X101120024Y-115877758D01*
X101168687Y-116038177D01*
X101185117Y-116205000D01*
X101168687Y-116371823D01*
X101120024Y-116532242D01*
X101079477Y-116608100D01*
X101041004Y-116680078D01*
X100934659Y-116809659D01*
X100805078Y-116916004D01*
X100805076Y-116916005D01*
X100657242Y-116995024D01*
X100496823Y-117043687D01*
X100371804Y-117056000D01*
X100288196Y-117056000D01*
X100163177Y-117043687D01*
X100002758Y-116995024D01*
X99854924Y-116916005D01*
X99854922Y-116916004D01*
X99725341Y-116809659D01*
X99618996Y-116680078D01*
X99580523Y-116608100D01*
X99539976Y-116532242D01*
X99491313Y-116371823D01*
X99474883Y-116205000D01*
X99491313Y-116038177D01*
X99539976Y-115877758D01*
X99618995Y-115729924D01*
X99618996Y-115729922D01*
X99725341Y-115600341D01*
X99854922Y-115493996D01*
X99935639Y-115450852D01*
X100002758Y-115414976D01*
X100163177Y-115366313D01*
X100288196Y-115354000D01*
X100371804Y-115354000D01*
X100496823Y-115366313D01*
X100496823Y-115366313D01*
G37*
G36*
X90418228Y-115386703D02*
G01*
X90573100Y-115450853D01*
X90712481Y-115543985D01*
X90831015Y-115662519D01*
X90924147Y-115801900D01*
X90988297Y-115956772D01*
X91021000Y-116121184D01*
X91021000Y-116288816D01*
X90988297Y-116453228D01*
X90924147Y-116608100D01*
X90831015Y-116747481D01*
X90712481Y-116866015D01*
X90573100Y-116959147D01*
X90418228Y-117023297D01*
X90253816Y-117056000D01*
X90086184Y-117056000D01*
X89921772Y-117023297D01*
X89766900Y-116959147D01*
X89627519Y-116866015D01*
X89508985Y-116747481D01*
X89415853Y-116608100D01*
X89351703Y-116453228D01*
X89319000Y-116288816D01*
X89319000Y-116121184D01*
X89351703Y-115956772D01*
X89415853Y-115801900D01*
X89508985Y-115662519D01*
X89627519Y-115543985D01*
X89766900Y-115450853D01*
X89921772Y-115386703D01*
X90086184Y-115354000D01*
X90253816Y-115354000D01*
X90418228Y-115386703D01*
X90418228Y-115386703D01*
G37*
G36*
X105023228Y-114751703D02*
G01*
X105178100Y-114815853D01*
X105317481Y-114908985D01*
X105436015Y-115027519D01*
X105529147Y-115166900D01*
X105593297Y-115321772D01*
X105626000Y-115486184D01*
X105626000Y-115653816D01*
X105593297Y-115818228D01*
X105529147Y-115973100D01*
X105436015Y-116112481D01*
X105317481Y-116231015D01*
X105178100Y-116324147D01*
X105023228Y-116388297D01*
X104858816Y-116421000D01*
X104691184Y-116421000D01*
X104526772Y-116388297D01*
X104371900Y-116324147D01*
X104232519Y-116231015D01*
X104113985Y-116112481D01*
X104020853Y-115973100D01*
X103956703Y-115818228D01*
X103924000Y-115653816D01*
X103924000Y-115486184D01*
X103956703Y-115321772D01*
X104020853Y-115166900D01*
X104113985Y-115027519D01*
X104232519Y-114908985D01*
X104371900Y-114815853D01*
X104526772Y-114751703D01*
X104691184Y-114719000D01*
X104858816Y-114719000D01*
X105023228Y-114751703D01*
X105023228Y-114751703D01*
G37*
G36*
X85973228Y-114751703D02*
G01*
X86128100Y-114815853D01*
X86267481Y-114908985D01*
X86386015Y-115027519D01*
X86479147Y-115166900D01*
X86543297Y-115321772D01*
X86576000Y-115486184D01*
X86576000Y-115653816D01*
X86543297Y-115818228D01*
X86479147Y-115973100D01*
X86386015Y-116112481D01*
X86267481Y-116231015D01*
X86128100Y-116324147D01*
X85973228Y-116388297D01*
X85808816Y-116421000D01*
X85641184Y-116421000D01*
X85476772Y-116388297D01*
X85321900Y-116324147D01*
X85182519Y-116231015D01*
X85063985Y-116112481D01*
X84970853Y-115973100D01*
X84906703Y-115818228D01*
X84874000Y-115653816D01*
X84874000Y-115486184D01*
X84906703Y-115321772D01*
X84970853Y-115166900D01*
X85063985Y-115027519D01*
X85182519Y-114908985D01*
X85321900Y-114815853D01*
X85476772Y-114751703D01*
X85641184Y-114719000D01*
X85808816Y-114719000D01*
X85973228Y-114751703D01*
X85973228Y-114751703D01*
G37*
G36*
X57387142Y-114788242D02*
G01*
X57535101Y-114849529D01*
X57668255Y-114938499D01*
X57781501Y-115051745D01*
X57870471Y-115184899D01*
X57931758Y-115332858D01*
X57963000Y-115489925D01*
X57963000Y-115650075D01*
X57931758Y-115807142D01*
X57870471Y-115955101D01*
X57781501Y-116088255D01*
X57668255Y-116201501D01*
X57535101Y-116290471D01*
X57387142Y-116351758D01*
X57230075Y-116383000D01*
X57069925Y-116383000D01*
X56912858Y-116351758D01*
X56764899Y-116290471D01*
X56631745Y-116201501D01*
X56518499Y-116088255D01*
X56429529Y-115955101D01*
X56368242Y-115807142D01*
X56337000Y-115650075D01*
X56337000Y-115489925D01*
X56368242Y-115332858D01*
X56429529Y-115184899D01*
X56518499Y-115051745D01*
X56631745Y-114938499D01*
X56764899Y-114849529D01*
X56912858Y-114788242D01*
X57069925Y-114757000D01*
X57230075Y-114757000D01*
X57387142Y-114788242D01*
X57387142Y-114788242D01*
G37*
G36*
X120887142Y-114788242D02*
G01*
X121035101Y-114849529D01*
X121168255Y-114938499D01*
X121281501Y-115051745D01*
X121370471Y-115184899D01*
X121431758Y-115332858D01*
X121463000Y-115489925D01*
X121463000Y-115650075D01*
X121431758Y-115807142D01*
X121370471Y-115955101D01*
X121281501Y-116088255D01*
X121168255Y-116201501D01*
X121035101Y-116290471D01*
X120887142Y-116351758D01*
X120730075Y-116383000D01*
X120569925Y-116383000D01*
X120412858Y-116351758D01*
X120264899Y-116290471D01*
X120131745Y-116201501D01*
X120018499Y-116088255D01*
X119929529Y-115955101D01*
X119868242Y-115807142D01*
X119837000Y-115650075D01*
X119837000Y-115489925D01*
X119868242Y-115332858D01*
X119929529Y-115184899D01*
X120018499Y-115051745D01*
X120131745Y-114938499D01*
X120264899Y-114849529D01*
X120412858Y-114788242D01*
X120569925Y-114757000D01*
X120730075Y-114757000D01*
X120887142Y-114788242D01*
X120887142Y-114788242D01*
G37*
G36*
X118347142Y-114788242D02*
G01*
X118495101Y-114849529D01*
X118628255Y-114938499D01*
X118741501Y-115051745D01*
X118830471Y-115184899D01*
X118891758Y-115332858D01*
X118923000Y-115489925D01*
X118923000Y-115650075D01*
X118891758Y-115807142D01*
X118830471Y-115955101D01*
X118741501Y-116088255D01*
X118628255Y-116201501D01*
X118495101Y-116290471D01*
X118347142Y-116351758D01*
X118190075Y-116383000D01*
X118029925Y-116383000D01*
X117872858Y-116351758D01*
X117724899Y-116290471D01*
X117591745Y-116201501D01*
X117478499Y-116088255D01*
X117389529Y-115955101D01*
X117328242Y-115807142D01*
X117297000Y-115650075D01*
X117297000Y-115489925D01*
X117328242Y-115332858D01*
X117389529Y-115184899D01*
X117478499Y-115051745D01*
X117591745Y-114938499D01*
X117724899Y-114849529D01*
X117872858Y-114788242D01*
X118029925Y-114757000D01*
X118190075Y-114757000D01*
X118347142Y-114788242D01*
X118347142Y-114788242D01*
G37*
G36*
X115807142Y-114788242D02*
G01*
X115955101Y-114849529D01*
X116088255Y-114938499D01*
X116201501Y-115051745D01*
X116290471Y-115184899D01*
X116351758Y-115332858D01*
X116383000Y-115489925D01*
X116383000Y-115650075D01*
X116351758Y-115807142D01*
X116290471Y-115955101D01*
X116201501Y-116088255D01*
X116088255Y-116201501D01*
X115955101Y-116290471D01*
X115807142Y-116351758D01*
X115650075Y-116383000D01*
X115489925Y-116383000D01*
X115332858Y-116351758D01*
X115184899Y-116290471D01*
X115051745Y-116201501D01*
X114938499Y-116088255D01*
X114849529Y-115955101D01*
X114788242Y-115807142D01*
X114757000Y-115650075D01*
X114757000Y-115489925D01*
X114788242Y-115332858D01*
X114849529Y-115184899D01*
X114938499Y-115051745D01*
X115051745Y-114938499D01*
X115184899Y-114849529D01*
X115332858Y-114788242D01*
X115489925Y-114757000D01*
X115650075Y-114757000D01*
X115807142Y-114788242D01*
X115807142Y-114788242D01*
G37*
G36*
X70663000Y-116383000D02*
G01*
X69037000Y-116383000D01*
X69037000Y-114757000D01*
X70663000Y-114757000D01*
X70663000Y-116383000D01*
X70663000Y-116383000D01*
G37*
G36*
X75167142Y-114788242D02*
G01*
X75315101Y-114849529D01*
X75448255Y-114938499D01*
X75561501Y-115051745D01*
X75650471Y-115184899D01*
X75711758Y-115332858D01*
X75743000Y-115489925D01*
X75743000Y-115650075D01*
X75711758Y-115807142D01*
X75650471Y-115955101D01*
X75561501Y-116088255D01*
X75448255Y-116201501D01*
X75315101Y-116290471D01*
X75167142Y-116351758D01*
X75010075Y-116383000D01*
X74849925Y-116383000D01*
X74692858Y-116351758D01*
X74544899Y-116290471D01*
X74411745Y-116201501D01*
X74298499Y-116088255D01*
X74209529Y-115955101D01*
X74148242Y-115807142D01*
X74117000Y-115650075D01*
X74117000Y-115489925D01*
X74148242Y-115332858D01*
X74209529Y-115184899D01*
X74298499Y-115051745D01*
X74411745Y-114938499D01*
X74544899Y-114849529D01*
X74692858Y-114788242D01*
X74849925Y-114757000D01*
X75010075Y-114757000D01*
X75167142Y-114788242D01*
X75167142Y-114788242D01*
G37*
G36*
X72627142Y-114788242D02*
G01*
X72775101Y-114849529D01*
X72908255Y-114938499D01*
X73021501Y-115051745D01*
X73110471Y-115184899D01*
X73171758Y-115332858D01*
X73203000Y-115489925D01*
X73203000Y-115650075D01*
X73171758Y-115807142D01*
X73110471Y-115955101D01*
X73021501Y-116088255D01*
X72908255Y-116201501D01*
X72775101Y-116290471D01*
X72627142Y-116351758D01*
X72470075Y-116383000D01*
X72309925Y-116383000D01*
X72152858Y-116351758D01*
X72004899Y-116290471D01*
X71871745Y-116201501D01*
X71758499Y-116088255D01*
X71669529Y-115955101D01*
X71608242Y-115807142D01*
X71577000Y-115650075D01*
X71577000Y-115489925D01*
X71608242Y-115332858D01*
X71669529Y-115184899D01*
X71758499Y-115051745D01*
X71871745Y-114938499D01*
X72004899Y-114849529D01*
X72152858Y-114788242D01*
X72309925Y-114757000D01*
X72470075Y-114757000D01*
X72627142Y-114788242D01*
X72627142Y-114788242D01*
G37*
G36*
X108763000Y-116383000D02*
G01*
X107137000Y-116383000D01*
X107137000Y-114757000D01*
X108763000Y-114757000D01*
X108763000Y-116383000D01*
X108763000Y-116383000D01*
G37*
G36*
X110727142Y-114788242D02*
G01*
X110875101Y-114849529D01*
X111008255Y-114938499D01*
X111121501Y-115051745D01*
X111210471Y-115184899D01*
X111271758Y-115332858D01*
X111303000Y-115489925D01*
X111303000Y-115650075D01*
X111271758Y-115807142D01*
X111210471Y-115955101D01*
X111121501Y-116088255D01*
X111008255Y-116201501D01*
X110875101Y-116290471D01*
X110727142Y-116351758D01*
X110570075Y-116383000D01*
X110409925Y-116383000D01*
X110252858Y-116351758D01*
X110104899Y-116290471D01*
X109971745Y-116201501D01*
X109858499Y-116088255D01*
X109769529Y-115955101D01*
X109708242Y-115807142D01*
X109677000Y-115650075D01*
X109677000Y-115489925D01*
X109708242Y-115332858D01*
X109769529Y-115184899D01*
X109858499Y-115051745D01*
X109971745Y-114938499D01*
X110104899Y-114849529D01*
X110252858Y-114788242D01*
X110409925Y-114757000D01*
X110570075Y-114757000D01*
X110727142Y-114788242D01*
X110727142Y-114788242D01*
G37*
G36*
X63043000Y-116383000D02*
G01*
X61417000Y-116383000D01*
X61417000Y-114757000D01*
X63043000Y-114757000D01*
X63043000Y-116383000D01*
X63043000Y-116383000D01*
G37*
G36*
X77707142Y-114788242D02*
G01*
X77855101Y-114849529D01*
X77988255Y-114938499D01*
X78101501Y-115051745D01*
X78190471Y-115184899D01*
X78251758Y-115332858D01*
X78283000Y-115489925D01*
X78283000Y-115650075D01*
X78251758Y-115807142D01*
X78190471Y-115955101D01*
X78101501Y-116088255D01*
X77988255Y-116201501D01*
X77855101Y-116290471D01*
X77707142Y-116351758D01*
X77550075Y-116383000D01*
X77389925Y-116383000D01*
X77232858Y-116351758D01*
X77084899Y-116290471D01*
X76951745Y-116201501D01*
X76838499Y-116088255D01*
X76749529Y-115955101D01*
X76688242Y-115807142D01*
X76657000Y-115650075D01*
X76657000Y-115489925D01*
X76688242Y-115332858D01*
X76749529Y-115184899D01*
X76838499Y-115051745D01*
X76951745Y-114938499D01*
X77084899Y-114849529D01*
X77232858Y-114788242D01*
X77389925Y-114757000D01*
X77550075Y-114757000D01*
X77707142Y-114788242D01*
X77707142Y-114788242D01*
G37*
G36*
X80247142Y-114788242D02*
G01*
X80395101Y-114849529D01*
X80528255Y-114938499D01*
X80641501Y-115051745D01*
X80730471Y-115184899D01*
X80791758Y-115332858D01*
X80823000Y-115489925D01*
X80823000Y-115650075D01*
X80791758Y-115807142D01*
X80730471Y-115955101D01*
X80641501Y-116088255D01*
X80528255Y-116201501D01*
X80395101Y-116290471D01*
X80247142Y-116351758D01*
X80090075Y-116383000D01*
X79929925Y-116383000D01*
X79772858Y-116351758D01*
X79624899Y-116290471D01*
X79491745Y-116201501D01*
X79378499Y-116088255D01*
X79289529Y-115955101D01*
X79228242Y-115807142D01*
X79197000Y-115650075D01*
X79197000Y-115489925D01*
X79228242Y-115332858D01*
X79289529Y-115184899D01*
X79378499Y-115051745D01*
X79491745Y-114938499D01*
X79624899Y-114849529D01*
X79772858Y-114788242D01*
X79929925Y-114757000D01*
X80090075Y-114757000D01*
X80247142Y-114788242D01*
X80247142Y-114788242D01*
G37*
G36*
X82787142Y-114788242D02*
G01*
X82935101Y-114849529D01*
X83068255Y-114938499D01*
X83181501Y-115051745D01*
X83270471Y-115184899D01*
X83331758Y-115332858D01*
X83363000Y-115489925D01*
X83363000Y-115650075D01*
X83331758Y-115807142D01*
X83270471Y-115955101D01*
X83181501Y-116088255D01*
X83068255Y-116201501D01*
X82935101Y-116290471D01*
X82787142Y-116351758D01*
X82630075Y-116383000D01*
X82469925Y-116383000D01*
X82312858Y-116351758D01*
X82164899Y-116290471D01*
X82031745Y-116201501D01*
X81918499Y-116088255D01*
X81829529Y-115955101D01*
X81768242Y-115807142D01*
X81737000Y-115650075D01*
X81737000Y-115489925D01*
X81768242Y-115332858D01*
X81829529Y-115184899D01*
X81918499Y-115051745D01*
X82031745Y-114938499D01*
X82164899Y-114849529D01*
X82312858Y-114788242D01*
X82469925Y-114757000D01*
X82630075Y-114757000D01*
X82787142Y-114788242D01*
X82787142Y-114788242D01*
G37*
G36*
X134163000Y-116383000D02*
G01*
X132537000Y-116383000D01*
X132537000Y-114757000D01*
X134163000Y-114757000D01*
X134163000Y-116383000D01*
X134163000Y-116383000D01*
G37*
G36*
X128507142Y-114788242D02*
G01*
X128655101Y-114849529D01*
X128788255Y-114938499D01*
X128901501Y-115051745D01*
X128990471Y-115184899D01*
X129051758Y-115332858D01*
X129083000Y-115489925D01*
X129083000Y-115650075D01*
X129051758Y-115807142D01*
X128990471Y-115955101D01*
X128901501Y-116088255D01*
X128788255Y-116201501D01*
X128655101Y-116290471D01*
X128507142Y-116351758D01*
X128350075Y-116383000D01*
X128189925Y-116383000D01*
X128032858Y-116351758D01*
X127884899Y-116290471D01*
X127751745Y-116201501D01*
X127638499Y-116088255D01*
X127549529Y-115955101D01*
X127488242Y-115807142D01*
X127457000Y-115650075D01*
X127457000Y-115489925D01*
X127488242Y-115332858D01*
X127549529Y-115184899D01*
X127638499Y-115051745D01*
X127751745Y-114938499D01*
X127884899Y-114849529D01*
X128032858Y-114788242D01*
X128189925Y-114757000D01*
X128350075Y-114757000D01*
X128507142Y-114788242D01*
X128507142Y-114788242D01*
G37*
G36*
X131047142Y-114788242D02*
G01*
X131195101Y-114849529D01*
X131328255Y-114938499D01*
X131441501Y-115051745D01*
X131530471Y-115184899D01*
X131591758Y-115332858D01*
X131623000Y-115489925D01*
X131623000Y-115650075D01*
X131591758Y-115807142D01*
X131530471Y-115955101D01*
X131441501Y-116088255D01*
X131328255Y-116201501D01*
X131195101Y-116290471D01*
X131047142Y-116351758D01*
X130890075Y-116383000D01*
X130729925Y-116383000D01*
X130572858Y-116351758D01*
X130424899Y-116290471D01*
X130291745Y-116201501D01*
X130178499Y-116088255D01*
X130089529Y-115955101D01*
X130028242Y-115807142D01*
X129997000Y-115650075D01*
X129997000Y-115489925D01*
X130028242Y-115332858D01*
X130089529Y-115184899D01*
X130178499Y-115051745D01*
X130291745Y-114938499D01*
X130424899Y-114849529D01*
X130572858Y-114788242D01*
X130729925Y-114757000D01*
X130890075Y-114757000D01*
X131047142Y-114788242D01*
X131047142Y-114788242D01*
G37*
G36*
X59927142Y-114788242D02*
G01*
X60075101Y-114849529D01*
X60208255Y-114938499D01*
X60321501Y-115051745D01*
X60410471Y-115184899D01*
X60471758Y-115332858D01*
X60503000Y-115489925D01*
X60503000Y-115650075D01*
X60471758Y-115807142D01*
X60410471Y-115955101D01*
X60321501Y-116088255D01*
X60208255Y-116201501D01*
X60075101Y-116290471D01*
X59927142Y-116351758D01*
X59770075Y-116383000D01*
X59609925Y-116383000D01*
X59452858Y-116351758D01*
X59304899Y-116290471D01*
X59171745Y-116201501D01*
X59058499Y-116088255D01*
X58969529Y-115955101D01*
X58908242Y-115807142D01*
X58877000Y-115650075D01*
X58877000Y-115489925D01*
X58908242Y-115332858D01*
X58969529Y-115184899D01*
X59058499Y-115051745D01*
X59171745Y-114938499D01*
X59304899Y-114849529D01*
X59452858Y-114788242D01*
X59609925Y-114757000D01*
X59770075Y-114757000D01*
X59927142Y-114788242D01*
X59927142Y-114788242D01*
G37*
G36*
X113267142Y-114788242D02*
G01*
X113415101Y-114849529D01*
X113548255Y-114938499D01*
X113661501Y-115051745D01*
X113750471Y-115184899D01*
X113811758Y-115332858D01*
X113843000Y-115489925D01*
X113843000Y-115650075D01*
X113811758Y-115807142D01*
X113750471Y-115955101D01*
X113661501Y-116088255D01*
X113548255Y-116201501D01*
X113415101Y-116290471D01*
X113267142Y-116351758D01*
X113110075Y-116383000D01*
X112949925Y-116383000D01*
X112792858Y-116351758D01*
X112644899Y-116290471D01*
X112511745Y-116201501D01*
X112398499Y-116088255D01*
X112309529Y-115955101D01*
X112248242Y-115807142D01*
X112217000Y-115650075D01*
X112217000Y-115489925D01*
X112248242Y-115332858D01*
X112309529Y-115184899D01*
X112398499Y-115051745D01*
X112511745Y-114938499D01*
X112644899Y-114849529D01*
X112792858Y-114788242D01*
X112949925Y-114757000D01*
X113110075Y-114757000D01*
X113267142Y-114788242D01*
X113267142Y-114788242D01*
G37*
G36*
X155050442Y-112770518D02*
G01*
X155116627Y-112777037D01*
X155286466Y-112828557D01*
X155442991Y-112912222D01*
X155478729Y-112941552D01*
X155580186Y-113024814D01*
X155653226Y-113113815D01*
X155692778Y-113162009D01*
X155776443Y-113318534D01*
X155827963Y-113488373D01*
X155845359Y-113665000D01*
X155827963Y-113841627D01*
X155776443Y-114011466D01*
X155692778Y-114167991D01*
X155663448Y-114203729D01*
X155580186Y-114305186D01*
X155478729Y-114388448D01*
X155442991Y-114417778D01*
X155286466Y-114501443D01*
X155116627Y-114552963D01*
X155050442Y-114559482D01*
X154984260Y-114566000D01*
X154895740Y-114566000D01*
X154829558Y-114559482D01*
X154763373Y-114552963D01*
X154593534Y-114501443D01*
X154437009Y-114417778D01*
X154401271Y-114388448D01*
X154299814Y-114305186D01*
X154216552Y-114203729D01*
X154187222Y-114167991D01*
X154103557Y-114011466D01*
X154052037Y-113841627D01*
X154034641Y-113665000D01*
X154052037Y-113488373D01*
X154103557Y-113318534D01*
X154187222Y-113162009D01*
X154226774Y-113113815D01*
X154299814Y-113024814D01*
X154401271Y-112941552D01*
X154437009Y-112912222D01*
X154593534Y-112828557D01*
X154763373Y-112777037D01*
X154829558Y-112770518D01*
X154895740Y-112764000D01*
X154984260Y-112764000D01*
X155050442Y-112770518D01*
X155050442Y-112770518D01*
G37*
G36*
X157590442Y-112770518D02*
G01*
X157656627Y-112777037D01*
X157826466Y-112828557D01*
X157982991Y-112912222D01*
X158018729Y-112941552D01*
X158120186Y-113024814D01*
X158193226Y-113113815D01*
X158232778Y-113162009D01*
X158316443Y-113318534D01*
X158367963Y-113488373D01*
X158385359Y-113665000D01*
X158367963Y-113841627D01*
X158316443Y-114011466D01*
X158232778Y-114167991D01*
X158203448Y-114203729D01*
X158120186Y-114305186D01*
X158018729Y-114388448D01*
X157982991Y-114417778D01*
X157826466Y-114501443D01*
X157656627Y-114552963D01*
X157590442Y-114559482D01*
X157524260Y-114566000D01*
X157435740Y-114566000D01*
X157369558Y-114559482D01*
X157303373Y-114552963D01*
X157133534Y-114501443D01*
X156977009Y-114417778D01*
X156941271Y-114388448D01*
X156839814Y-114305186D01*
X156756552Y-114203729D01*
X156727222Y-114167991D01*
X156643557Y-114011466D01*
X156592037Y-113841627D01*
X156574641Y-113665000D01*
X156592037Y-113488373D01*
X156643557Y-113318534D01*
X156727222Y-113162009D01*
X156766774Y-113113815D01*
X156839814Y-113024814D01*
X156941271Y-112941552D01*
X156977009Y-112912222D01*
X157133534Y-112828557D01*
X157303373Y-112777037D01*
X157369558Y-112770518D01*
X157435740Y-112764000D01*
X157524260Y-112764000D01*
X157590442Y-112770518D01*
X157590442Y-112770518D01*
G37*
G36*
X160921000Y-114566000D02*
G01*
X159119000Y-114566000D01*
X159119000Y-112764000D01*
X160921000Y-112764000D01*
X160921000Y-114566000D01*
X160921000Y-114566000D01*
G37*
G36*
X90418228Y-112211703D02*
G01*
X90573100Y-112275853D01*
X90712481Y-112368985D01*
X90831015Y-112487519D01*
X90924147Y-112626900D01*
X90988297Y-112781772D01*
X91021000Y-112946184D01*
X91021000Y-113113816D01*
X90988297Y-113278228D01*
X90924147Y-113433100D01*
X90831015Y-113572481D01*
X90712481Y-113691015D01*
X90573100Y-113784147D01*
X90418228Y-113848297D01*
X90253816Y-113881000D01*
X90086184Y-113881000D01*
X89921772Y-113848297D01*
X89766900Y-113784147D01*
X89627519Y-113691015D01*
X89508985Y-113572481D01*
X89415853Y-113433100D01*
X89351703Y-113278228D01*
X89319000Y-113113816D01*
X89319000Y-112946184D01*
X89351703Y-112781772D01*
X89415853Y-112626900D01*
X89508985Y-112487519D01*
X89627519Y-112368985D01*
X89766900Y-112275853D01*
X89921772Y-112211703D01*
X90086184Y-112179000D01*
X90253816Y-112179000D01*
X90418228Y-112211703D01*
X90418228Y-112211703D01*
G37*
G36*
X100496823Y-112191313D02*
G01*
X100657242Y-112239976D01*
X100724361Y-112275852D01*
X100805078Y-112318996D01*
X100934659Y-112425341D01*
X101041004Y-112554922D01*
X101041005Y-112554924D01*
X101120024Y-112702758D01*
X101168687Y-112863177D01*
X101185117Y-113030000D01*
X101168687Y-113196823D01*
X101120024Y-113357242D01*
X101079477Y-113433100D01*
X101041004Y-113505078D01*
X100934659Y-113634659D01*
X100805078Y-113741004D01*
X100805076Y-113741005D01*
X100657242Y-113820024D01*
X100496823Y-113868687D01*
X100371804Y-113881000D01*
X100288196Y-113881000D01*
X100163177Y-113868687D01*
X100002758Y-113820024D01*
X99854924Y-113741005D01*
X99854922Y-113741004D01*
X99725341Y-113634659D01*
X99618996Y-113505078D01*
X99580523Y-113433100D01*
X99539976Y-113357242D01*
X99491313Y-113196823D01*
X99474883Y-113030000D01*
X99491313Y-112863177D01*
X99539976Y-112702758D01*
X99618995Y-112554924D01*
X99618996Y-112554922D01*
X99725341Y-112425341D01*
X99854922Y-112318996D01*
X99935639Y-112275852D01*
X100002758Y-112239976D01*
X100163177Y-112191313D01*
X100288196Y-112179000D01*
X100371804Y-112179000D01*
X100496823Y-112191313D01*
X100496823Y-112191313D01*
G37*
G36*
X86626000Y-113296000D02*
G01*
X84824000Y-113296000D01*
X84824000Y-111494000D01*
X86626000Y-111494000D01*
X86626000Y-113296000D01*
X86626000Y-113296000D01*
G37*
G36*
X198266000Y-113091000D02*
G01*
X194164000Y-113091000D01*
X194164000Y-110429000D01*
X198266000Y-110429000D01*
X198266000Y-113091000D01*
X198266000Y-113091000D01*
G37*
G36*
X216046000Y-113091000D02*
G01*
X211944000Y-113091000D01*
X211944000Y-110429000D01*
X216046000Y-110429000D01*
X216046000Y-113091000D01*
X216046000Y-113091000D01*
G37*
G36*
X233826000Y-113091000D02*
G01*
X229724000Y-113091000D01*
X229724000Y-110429000D01*
X233826000Y-110429000D01*
X233826000Y-113091000D01*
X233826000Y-113091000D01*
G37*
G36*
X49781564Y-110264389D02*
G01*
X49972833Y-110343615D01*
X49972835Y-110343616D01*
X50144973Y-110458635D01*
X50291365Y-110605027D01*
X50336982Y-110673297D01*
X50406385Y-110777167D01*
X50485611Y-110968436D01*
X50526000Y-111171484D01*
X50526000Y-111378516D01*
X50485611Y-111581564D01*
X50406385Y-111772833D01*
X50406384Y-111772835D01*
X50291365Y-111944973D01*
X50144973Y-112091365D01*
X49972835Y-112206384D01*
X49972834Y-112206385D01*
X49972833Y-112206385D01*
X49781564Y-112285611D01*
X49578516Y-112326000D01*
X49371484Y-112326000D01*
X49168436Y-112285611D01*
X48977167Y-112206385D01*
X48977166Y-112206385D01*
X48977165Y-112206384D01*
X48805027Y-112091365D01*
X48658635Y-111944973D01*
X48543616Y-111772835D01*
X48543615Y-111772833D01*
X48464389Y-111581564D01*
X48424000Y-111378516D01*
X48424000Y-111171484D01*
X48464389Y-110968436D01*
X48543615Y-110777167D01*
X48613019Y-110673297D01*
X48658635Y-110605027D01*
X48805027Y-110458635D01*
X48977165Y-110343616D01*
X48977167Y-110343615D01*
X49168436Y-110264389D01*
X49371484Y-110224000D01*
X49578516Y-110224000D01*
X49781564Y-110264389D01*
X49781564Y-110264389D01*
G37*
G36*
X54281564Y-110264389D02*
G01*
X54472833Y-110343615D01*
X54472835Y-110343616D01*
X54644973Y-110458635D01*
X54791365Y-110605027D01*
X54836982Y-110673297D01*
X54906385Y-110777167D01*
X54985611Y-110968436D01*
X55026000Y-111171484D01*
X55026000Y-111378516D01*
X54985611Y-111581564D01*
X54906385Y-111772833D01*
X54906384Y-111772835D01*
X54791365Y-111944973D01*
X54644973Y-112091365D01*
X54472835Y-112206384D01*
X54472834Y-112206385D01*
X54472833Y-112206385D01*
X54281564Y-112285611D01*
X54078516Y-112326000D01*
X53871484Y-112326000D01*
X53668436Y-112285611D01*
X53477167Y-112206385D01*
X53477166Y-112206385D01*
X53477165Y-112206384D01*
X53305027Y-112091365D01*
X53158635Y-111944973D01*
X53043616Y-111772835D01*
X53043615Y-111772833D01*
X52964389Y-111581564D01*
X52924000Y-111378516D01*
X52924000Y-111171484D01*
X52964389Y-110968436D01*
X53043615Y-110777167D01*
X53113019Y-110673297D01*
X53158635Y-110605027D01*
X53305027Y-110458635D01*
X53477165Y-110343616D01*
X53477167Y-110343615D01*
X53668436Y-110264389D01*
X53871484Y-110224000D01*
X54078516Y-110224000D01*
X54281564Y-110264389D01*
X54281564Y-110264389D01*
G37*
G36*
X85835443Y-108960519D02*
G01*
X85901627Y-108967037D01*
X86071466Y-109018557D01*
X86227991Y-109102222D01*
X86263729Y-109131552D01*
X86365186Y-109214814D01*
X86445369Y-109312519D01*
X86477778Y-109352009D01*
X86561443Y-109508534D01*
X86612963Y-109678373D01*
X86630359Y-109855000D01*
X86612963Y-110031627D01*
X86561443Y-110201466D01*
X86477778Y-110357991D01*
X86448448Y-110393729D01*
X86365186Y-110495186D01*
X86263729Y-110578448D01*
X86227991Y-110607778D01*
X86071466Y-110691443D01*
X85901627Y-110742963D01*
X85835442Y-110749482D01*
X85769260Y-110756000D01*
X85680740Y-110756000D01*
X85614558Y-110749482D01*
X85548373Y-110742963D01*
X85378534Y-110691443D01*
X85222009Y-110607778D01*
X85186271Y-110578448D01*
X85084814Y-110495186D01*
X85001552Y-110393729D01*
X84972222Y-110357991D01*
X84888557Y-110201466D01*
X84837037Y-110031627D01*
X84819641Y-109855000D01*
X84837037Y-109678373D01*
X84888557Y-109508534D01*
X84972222Y-109352009D01*
X85004631Y-109312519D01*
X85084814Y-109214814D01*
X85186271Y-109131552D01*
X85222009Y-109102222D01*
X85378534Y-109018557D01*
X85548373Y-108967037D01*
X85614557Y-108960519D01*
X85680740Y-108954000D01*
X85769260Y-108954000D01*
X85835443Y-108960519D01*
X85835443Y-108960519D01*
G37*
G36*
X100496823Y-109016313D02*
G01*
X100657242Y-109064976D01*
X100724361Y-109100852D01*
X100805078Y-109143996D01*
X100934659Y-109250341D01*
X101041004Y-109379922D01*
X101041005Y-109379924D01*
X101120024Y-109527758D01*
X101168687Y-109688177D01*
X101185117Y-109855000D01*
X101168687Y-110021823D01*
X101120024Y-110182242D01*
X101079477Y-110258100D01*
X101041004Y-110330078D01*
X100934659Y-110459659D01*
X100805078Y-110566004D01*
X100805076Y-110566005D01*
X100657242Y-110645024D01*
X100496823Y-110693687D01*
X100371804Y-110706000D01*
X100288196Y-110706000D01*
X100163177Y-110693687D01*
X100002758Y-110645024D01*
X99854924Y-110566005D01*
X99854922Y-110566004D01*
X99725341Y-110459659D01*
X99618996Y-110330078D01*
X99580523Y-110258100D01*
X99539976Y-110182242D01*
X99491313Y-110021823D01*
X99474883Y-109855000D01*
X99491313Y-109688177D01*
X99539976Y-109527758D01*
X99618995Y-109379924D01*
X99618996Y-109379922D01*
X99725341Y-109250341D01*
X99854922Y-109143996D01*
X99935639Y-109100852D01*
X100002758Y-109064976D01*
X100163177Y-109016313D01*
X100288196Y-109004000D01*
X100371804Y-109004000D01*
X100496823Y-109016313D01*
X100496823Y-109016313D01*
G37*
G36*
X90418228Y-109036703D02*
G01*
X90573100Y-109100853D01*
X90712481Y-109193985D01*
X90831015Y-109312519D01*
X90924147Y-109451900D01*
X90988297Y-109606772D01*
X91021000Y-109771184D01*
X91021000Y-109938816D01*
X90988297Y-110103228D01*
X90924147Y-110258100D01*
X90831015Y-110397481D01*
X90712481Y-110516015D01*
X90573100Y-110609147D01*
X90418228Y-110673297D01*
X90253816Y-110706000D01*
X90086184Y-110706000D01*
X89921772Y-110673297D01*
X89766900Y-110609147D01*
X89627519Y-110516015D01*
X89508985Y-110397481D01*
X89415853Y-110258100D01*
X89351703Y-110103228D01*
X89319000Y-109938816D01*
X89319000Y-109771184D01*
X89351703Y-109606772D01*
X89415853Y-109451900D01*
X89508985Y-109312519D01*
X89627519Y-109193985D01*
X89766900Y-109100853D01*
X89921772Y-109036703D01*
X90086184Y-109004000D01*
X90253816Y-109004000D01*
X90418228Y-109036703D01*
X90418228Y-109036703D01*
G37*
G36*
X238271000Y-108646000D02*
G01*
X234169000Y-108646000D01*
X234169000Y-105984000D01*
X238271000Y-105984000D01*
X238271000Y-108646000D01*
X238271000Y-108646000D01*
G37*
G36*
X85835443Y-106420519D02*
G01*
X85901627Y-106427037D01*
X86071466Y-106478557D01*
X86227991Y-106562222D01*
X86263729Y-106591552D01*
X86365186Y-106674814D01*
X86448448Y-106776271D01*
X86477778Y-106812009D01*
X86561443Y-106968534D01*
X86612963Y-107138373D01*
X86630359Y-107315000D01*
X86612963Y-107491627D01*
X86561443Y-107661466D01*
X86477778Y-107817991D01*
X86448448Y-107853729D01*
X86365186Y-107955186D01*
X86263729Y-108038448D01*
X86227991Y-108067778D01*
X86071466Y-108151443D01*
X85901627Y-108202963D01*
X85835443Y-108209481D01*
X85769260Y-108216000D01*
X85680740Y-108216000D01*
X85614557Y-108209481D01*
X85548373Y-108202963D01*
X85378534Y-108151443D01*
X85222009Y-108067778D01*
X85186271Y-108038448D01*
X85084814Y-107955186D01*
X85001552Y-107853729D01*
X84972222Y-107817991D01*
X84888557Y-107661466D01*
X84837037Y-107491627D01*
X84819641Y-107315000D01*
X84837037Y-107138373D01*
X84888557Y-106968534D01*
X84972222Y-106812009D01*
X85001552Y-106776271D01*
X85084814Y-106674814D01*
X85186271Y-106591552D01*
X85222009Y-106562222D01*
X85378534Y-106478557D01*
X85548373Y-106427037D01*
X85614557Y-106420519D01*
X85680740Y-106414000D01*
X85769260Y-106414000D01*
X85835443Y-106420519D01*
X85835443Y-106420519D01*
G37*
G36*
X49781564Y-103764389D02*
G01*
X49972833Y-103843615D01*
X49972835Y-103843616D01*
X50144973Y-103958635D01*
X50291365Y-104105027D01*
X50406385Y-104277167D01*
X50485611Y-104468436D01*
X50526000Y-104671484D01*
X50526000Y-104878516D01*
X50485611Y-105081564D01*
X50406385Y-105272833D01*
X50406384Y-105272835D01*
X50291365Y-105444973D01*
X50144973Y-105591365D01*
X49972835Y-105706384D01*
X49972834Y-105706385D01*
X49972833Y-105706385D01*
X49781564Y-105785611D01*
X49578516Y-105826000D01*
X49371484Y-105826000D01*
X49168436Y-105785611D01*
X48977167Y-105706385D01*
X48977166Y-105706385D01*
X48977165Y-105706384D01*
X48805027Y-105591365D01*
X48658635Y-105444973D01*
X48543616Y-105272835D01*
X48543615Y-105272833D01*
X48464389Y-105081564D01*
X48424000Y-104878516D01*
X48424000Y-104671484D01*
X48464389Y-104468436D01*
X48543615Y-104277167D01*
X48658635Y-104105027D01*
X48805027Y-103958635D01*
X48977165Y-103843616D01*
X48977167Y-103843615D01*
X49168436Y-103764389D01*
X49371484Y-103724000D01*
X49578516Y-103724000D01*
X49781564Y-103764389D01*
X49781564Y-103764389D01*
G37*
G36*
X54281564Y-103764389D02*
G01*
X54472833Y-103843615D01*
X54472835Y-103843616D01*
X54644973Y-103958635D01*
X54791365Y-104105027D01*
X54906385Y-104277167D01*
X54985611Y-104468436D01*
X55026000Y-104671484D01*
X55026000Y-104878516D01*
X54985611Y-105081564D01*
X54906385Y-105272833D01*
X54906384Y-105272835D01*
X54791365Y-105444973D01*
X54644973Y-105591365D01*
X54472835Y-105706384D01*
X54472834Y-105706385D01*
X54472833Y-105706385D01*
X54281564Y-105785611D01*
X54078516Y-105826000D01*
X53871484Y-105826000D01*
X53668436Y-105785611D01*
X53477167Y-105706385D01*
X53477166Y-105706385D01*
X53477165Y-105706384D01*
X53305027Y-105591365D01*
X53158635Y-105444973D01*
X53043616Y-105272835D01*
X53043615Y-105272833D01*
X52964389Y-105081564D01*
X52924000Y-104878516D01*
X52924000Y-104671484D01*
X52964389Y-104468436D01*
X53043615Y-104277167D01*
X53158635Y-104105027D01*
X53305027Y-103958635D01*
X53477165Y-103843616D01*
X53477167Y-103843615D01*
X53668436Y-103764389D01*
X53871484Y-103724000D01*
X54078516Y-103724000D01*
X54281564Y-103764389D01*
X54281564Y-103764389D01*
G37*
G36*
X238271000Y-104201000D02*
G01*
X234169000Y-104201000D01*
X234169000Y-101539000D01*
X238271000Y-101539000D01*
X238271000Y-104201000D01*
X238271000Y-104201000D01*
G37*
G36*
X77636823Y-100761313D02*
G01*
X77797242Y-100809976D01*
X77929906Y-100880886D01*
X77945078Y-100888996D01*
X78074659Y-100995341D01*
X78181004Y-101124922D01*
X78181005Y-101124924D01*
X78260024Y-101272758D01*
X78308687Y-101433177D01*
X78325117Y-101600000D01*
X78308687Y-101766823D01*
X78260024Y-101927242D01*
X78189114Y-102059906D01*
X78181004Y-102075078D01*
X78074659Y-102204659D01*
X77945078Y-102311004D01*
X77945076Y-102311005D01*
X77797242Y-102390024D01*
X77636823Y-102438687D01*
X77511804Y-102451000D01*
X77428196Y-102451000D01*
X77303177Y-102438687D01*
X77142758Y-102390024D01*
X76994924Y-102311005D01*
X76994922Y-102311004D01*
X76865341Y-102204659D01*
X76758996Y-102075078D01*
X76750886Y-102059906D01*
X76679976Y-101927242D01*
X76631313Y-101766823D01*
X76614883Y-101600000D01*
X76631313Y-101433177D01*
X76679976Y-101272758D01*
X76758995Y-101124924D01*
X76758996Y-101124922D01*
X76865341Y-100995341D01*
X76994922Y-100888996D01*
X77010094Y-100880886D01*
X77142758Y-100809976D01*
X77303177Y-100761313D01*
X77428196Y-100749000D01*
X77511804Y-100749000D01*
X77636823Y-100761313D01*
X77636823Y-100761313D01*
G37*
G36*
X54776823Y-100761313D02*
G01*
X54937242Y-100809976D01*
X55069906Y-100880886D01*
X55085078Y-100888996D01*
X55214659Y-100995341D01*
X55321004Y-101124922D01*
X55321005Y-101124924D01*
X55400024Y-101272758D01*
X55448687Y-101433177D01*
X55465117Y-101600000D01*
X55448687Y-101766823D01*
X55400024Y-101927242D01*
X55329114Y-102059906D01*
X55321004Y-102075078D01*
X55214659Y-102204659D01*
X55085078Y-102311004D01*
X55085076Y-102311005D01*
X54937242Y-102390024D01*
X54776823Y-102438687D01*
X54651804Y-102451000D01*
X54568196Y-102451000D01*
X54443177Y-102438687D01*
X54282758Y-102390024D01*
X54134924Y-102311005D01*
X54134922Y-102311004D01*
X54005341Y-102204659D01*
X53898996Y-102075078D01*
X53890886Y-102059906D01*
X53819976Y-101927242D01*
X53771313Y-101766823D01*
X53754883Y-101600000D01*
X53771313Y-101433177D01*
X53819976Y-101272758D01*
X53898995Y-101124924D01*
X53898996Y-101124922D01*
X54005341Y-100995341D01*
X54134922Y-100888996D01*
X54150094Y-100880886D01*
X54282758Y-100809976D01*
X54443177Y-100761313D01*
X54568196Y-100749000D01*
X54651804Y-100749000D01*
X54776823Y-100761313D01*
X54776823Y-100761313D01*
G37*
G36*
X57316823Y-100761313D02*
G01*
X57477242Y-100809976D01*
X57609906Y-100880886D01*
X57625078Y-100888996D01*
X57754659Y-100995341D01*
X57861004Y-101124922D01*
X57861005Y-101124924D01*
X57940024Y-101272758D01*
X57988687Y-101433177D01*
X58005117Y-101600000D01*
X57988687Y-101766823D01*
X57940024Y-101927242D01*
X57869114Y-102059906D01*
X57861004Y-102075078D01*
X57754659Y-102204659D01*
X57625078Y-102311004D01*
X57625076Y-102311005D01*
X57477242Y-102390024D01*
X57316823Y-102438687D01*
X57191804Y-102451000D01*
X57108196Y-102451000D01*
X56983177Y-102438687D01*
X56822758Y-102390024D01*
X56674924Y-102311005D01*
X56674922Y-102311004D01*
X56545341Y-102204659D01*
X56438996Y-102075078D01*
X56430886Y-102059906D01*
X56359976Y-101927242D01*
X56311313Y-101766823D01*
X56294883Y-101600000D01*
X56311313Y-101433177D01*
X56359976Y-101272758D01*
X56438995Y-101124924D01*
X56438996Y-101124922D01*
X56545341Y-100995341D01*
X56674922Y-100888996D01*
X56690094Y-100880886D01*
X56822758Y-100809976D01*
X56983177Y-100761313D01*
X57108196Y-100749000D01*
X57191804Y-100749000D01*
X57316823Y-100761313D01*
X57316823Y-100761313D01*
G37*
G36*
X59856823Y-100761313D02*
G01*
X60017242Y-100809976D01*
X60149906Y-100880886D01*
X60165078Y-100888996D01*
X60294659Y-100995341D01*
X60401004Y-101124922D01*
X60401005Y-101124924D01*
X60480024Y-101272758D01*
X60528687Y-101433177D01*
X60545117Y-101600000D01*
X60528687Y-101766823D01*
X60480024Y-101927242D01*
X60409114Y-102059906D01*
X60401004Y-102075078D01*
X60294659Y-102204659D01*
X60165078Y-102311004D01*
X60165076Y-102311005D01*
X60017242Y-102390024D01*
X59856823Y-102438687D01*
X59731804Y-102451000D01*
X59648196Y-102451000D01*
X59523177Y-102438687D01*
X59362758Y-102390024D01*
X59214924Y-102311005D01*
X59214922Y-102311004D01*
X59085341Y-102204659D01*
X58978996Y-102075078D01*
X58970886Y-102059906D01*
X58899976Y-101927242D01*
X58851313Y-101766823D01*
X58834883Y-101600000D01*
X58851313Y-101433177D01*
X58899976Y-101272758D01*
X58978995Y-101124924D01*
X58978996Y-101124922D01*
X59085341Y-100995341D01*
X59214922Y-100888996D01*
X59230094Y-100880886D01*
X59362758Y-100809976D01*
X59523177Y-100761313D01*
X59648196Y-100749000D01*
X59731804Y-100749000D01*
X59856823Y-100761313D01*
X59856823Y-100761313D01*
G37*
G36*
X62396823Y-100761313D02*
G01*
X62557242Y-100809976D01*
X62689906Y-100880886D01*
X62705078Y-100888996D01*
X62834659Y-100995341D01*
X62941004Y-101124922D01*
X62941005Y-101124924D01*
X63020024Y-101272758D01*
X63068687Y-101433177D01*
X63085117Y-101600000D01*
X63068687Y-101766823D01*
X63020024Y-101927242D01*
X62949114Y-102059906D01*
X62941004Y-102075078D01*
X62834659Y-102204659D01*
X62705078Y-102311004D01*
X62705076Y-102311005D01*
X62557242Y-102390024D01*
X62396823Y-102438687D01*
X62271804Y-102451000D01*
X62188196Y-102451000D01*
X62063177Y-102438687D01*
X61902758Y-102390024D01*
X61754924Y-102311005D01*
X61754922Y-102311004D01*
X61625341Y-102204659D01*
X61518996Y-102075078D01*
X61510886Y-102059906D01*
X61439976Y-101927242D01*
X61391313Y-101766823D01*
X61374883Y-101600000D01*
X61391313Y-101433177D01*
X61439976Y-101272758D01*
X61518995Y-101124924D01*
X61518996Y-101124922D01*
X61625341Y-100995341D01*
X61754922Y-100888996D01*
X61770094Y-100880886D01*
X61902758Y-100809976D01*
X62063177Y-100761313D01*
X62188196Y-100749000D01*
X62271804Y-100749000D01*
X62396823Y-100761313D01*
X62396823Y-100761313D01*
G37*
G36*
X64936823Y-100761313D02*
G01*
X65097242Y-100809976D01*
X65229906Y-100880886D01*
X65245078Y-100888996D01*
X65374659Y-100995341D01*
X65481004Y-101124922D01*
X65481005Y-101124924D01*
X65560024Y-101272758D01*
X65608687Y-101433177D01*
X65625117Y-101600000D01*
X65608687Y-101766823D01*
X65560024Y-101927242D01*
X65489114Y-102059906D01*
X65481004Y-102075078D01*
X65374659Y-102204659D01*
X65245078Y-102311004D01*
X65245076Y-102311005D01*
X65097242Y-102390024D01*
X64936823Y-102438687D01*
X64811804Y-102451000D01*
X64728196Y-102451000D01*
X64603177Y-102438687D01*
X64442758Y-102390024D01*
X64294924Y-102311005D01*
X64294922Y-102311004D01*
X64165341Y-102204659D01*
X64058996Y-102075078D01*
X64050886Y-102059906D01*
X63979976Y-101927242D01*
X63931313Y-101766823D01*
X63914883Y-101600000D01*
X63931313Y-101433177D01*
X63979976Y-101272758D01*
X64058995Y-101124924D01*
X64058996Y-101124922D01*
X64165341Y-100995341D01*
X64294922Y-100888996D01*
X64310094Y-100880886D01*
X64442758Y-100809976D01*
X64603177Y-100761313D01*
X64728196Y-100749000D01*
X64811804Y-100749000D01*
X64936823Y-100761313D01*
X64936823Y-100761313D01*
G37*
G36*
X67476823Y-100761313D02*
G01*
X67637242Y-100809976D01*
X67769906Y-100880886D01*
X67785078Y-100888996D01*
X67914659Y-100995341D01*
X68021004Y-101124922D01*
X68021005Y-101124924D01*
X68100024Y-101272758D01*
X68148687Y-101433177D01*
X68165117Y-101600000D01*
X68148687Y-101766823D01*
X68100024Y-101927242D01*
X68029114Y-102059906D01*
X68021004Y-102075078D01*
X67914659Y-102204659D01*
X67785078Y-102311004D01*
X67785076Y-102311005D01*
X67637242Y-102390024D01*
X67476823Y-102438687D01*
X67351804Y-102451000D01*
X67268196Y-102451000D01*
X67143177Y-102438687D01*
X66982758Y-102390024D01*
X66834924Y-102311005D01*
X66834922Y-102311004D01*
X66705341Y-102204659D01*
X66598996Y-102075078D01*
X66590886Y-102059906D01*
X66519976Y-101927242D01*
X66471313Y-101766823D01*
X66454883Y-101600000D01*
X66471313Y-101433177D01*
X66519976Y-101272758D01*
X66598995Y-101124924D01*
X66598996Y-101124922D01*
X66705341Y-100995341D01*
X66834922Y-100888996D01*
X66850094Y-100880886D01*
X66982758Y-100809976D01*
X67143177Y-100761313D01*
X67268196Y-100749000D01*
X67351804Y-100749000D01*
X67476823Y-100761313D01*
X67476823Y-100761313D01*
G37*
G36*
X70016823Y-100761313D02*
G01*
X70177242Y-100809976D01*
X70309906Y-100880886D01*
X70325078Y-100888996D01*
X70454659Y-100995341D01*
X70561004Y-101124922D01*
X70561005Y-101124924D01*
X70640024Y-101272758D01*
X70688687Y-101433177D01*
X70705117Y-101600000D01*
X70688687Y-101766823D01*
X70640024Y-101927242D01*
X70569114Y-102059906D01*
X70561004Y-102075078D01*
X70454659Y-102204659D01*
X70325078Y-102311004D01*
X70325076Y-102311005D01*
X70177242Y-102390024D01*
X70016823Y-102438687D01*
X69891804Y-102451000D01*
X69808196Y-102451000D01*
X69683177Y-102438687D01*
X69522758Y-102390024D01*
X69374924Y-102311005D01*
X69374922Y-102311004D01*
X69245341Y-102204659D01*
X69138996Y-102075078D01*
X69130886Y-102059906D01*
X69059976Y-101927242D01*
X69011313Y-101766823D01*
X68994883Y-101600000D01*
X69011313Y-101433177D01*
X69059976Y-101272758D01*
X69138995Y-101124924D01*
X69138996Y-101124922D01*
X69245341Y-100995341D01*
X69374922Y-100888996D01*
X69390094Y-100880886D01*
X69522758Y-100809976D01*
X69683177Y-100761313D01*
X69808196Y-100749000D01*
X69891804Y-100749000D01*
X70016823Y-100761313D01*
X70016823Y-100761313D01*
G37*
G36*
X72556823Y-100761313D02*
G01*
X72717242Y-100809976D01*
X72849906Y-100880886D01*
X72865078Y-100888996D01*
X72994659Y-100995341D01*
X73101004Y-101124922D01*
X73101005Y-101124924D01*
X73180024Y-101272758D01*
X73228687Y-101433177D01*
X73245117Y-101600000D01*
X73228687Y-101766823D01*
X73180024Y-101927242D01*
X73109114Y-102059906D01*
X73101004Y-102075078D01*
X72994659Y-102204659D01*
X72865078Y-102311004D01*
X72865076Y-102311005D01*
X72717242Y-102390024D01*
X72556823Y-102438687D01*
X72431804Y-102451000D01*
X72348196Y-102451000D01*
X72223177Y-102438687D01*
X72062758Y-102390024D01*
X71914924Y-102311005D01*
X71914922Y-102311004D01*
X71785341Y-102204659D01*
X71678996Y-102075078D01*
X71670886Y-102059906D01*
X71599976Y-101927242D01*
X71551313Y-101766823D01*
X71534883Y-101600000D01*
X71551313Y-101433177D01*
X71599976Y-101272758D01*
X71678995Y-101124924D01*
X71678996Y-101124922D01*
X71785341Y-100995341D01*
X71914922Y-100888996D01*
X71930094Y-100880886D01*
X72062758Y-100809976D01*
X72223177Y-100761313D01*
X72348196Y-100749000D01*
X72431804Y-100749000D01*
X72556823Y-100761313D01*
X72556823Y-100761313D01*
G37*
G36*
X75096823Y-100761313D02*
G01*
X75257242Y-100809976D01*
X75389906Y-100880886D01*
X75405078Y-100888996D01*
X75534659Y-100995341D01*
X75641004Y-101124922D01*
X75641005Y-101124924D01*
X75720024Y-101272758D01*
X75768687Y-101433177D01*
X75785117Y-101600000D01*
X75768687Y-101766823D01*
X75720024Y-101927242D01*
X75649114Y-102059906D01*
X75641004Y-102075078D01*
X75534659Y-102204659D01*
X75405078Y-102311004D01*
X75405076Y-102311005D01*
X75257242Y-102390024D01*
X75096823Y-102438687D01*
X74971804Y-102451000D01*
X74888196Y-102451000D01*
X74763177Y-102438687D01*
X74602758Y-102390024D01*
X74454924Y-102311005D01*
X74454922Y-102311004D01*
X74325341Y-102204659D01*
X74218996Y-102075078D01*
X74210886Y-102059906D01*
X74139976Y-101927242D01*
X74091313Y-101766823D01*
X74074883Y-101600000D01*
X74091313Y-101433177D01*
X74139976Y-101272758D01*
X74218995Y-101124924D01*
X74218996Y-101124922D01*
X74325341Y-100995341D01*
X74454922Y-100888996D01*
X74470094Y-100880886D01*
X74602758Y-100809976D01*
X74763177Y-100761313D01*
X74888196Y-100749000D01*
X74971804Y-100749000D01*
X75096823Y-100761313D01*
X75096823Y-100761313D01*
G37*
G36*
X80176823Y-100761313D02*
G01*
X80337242Y-100809976D01*
X80469906Y-100880886D01*
X80485078Y-100888996D01*
X80614659Y-100995341D01*
X80721004Y-101124922D01*
X80721005Y-101124924D01*
X80800024Y-101272758D01*
X80848687Y-101433177D01*
X80865117Y-101600000D01*
X80848687Y-101766823D01*
X80800024Y-101927242D01*
X80729114Y-102059906D01*
X80721004Y-102075078D01*
X80614659Y-102204659D01*
X80485078Y-102311004D01*
X80485076Y-102311005D01*
X80337242Y-102390024D01*
X80176823Y-102438687D01*
X80051804Y-102451000D01*
X79968196Y-102451000D01*
X79843177Y-102438687D01*
X79682758Y-102390024D01*
X79534924Y-102311005D01*
X79534922Y-102311004D01*
X79405341Y-102204659D01*
X79298996Y-102075078D01*
X79290886Y-102059906D01*
X79219976Y-101927242D01*
X79171313Y-101766823D01*
X79154883Y-101600000D01*
X79171313Y-101433177D01*
X79219976Y-101272758D01*
X79298995Y-101124924D01*
X79298996Y-101124922D01*
X79405341Y-100995341D01*
X79534922Y-100888996D01*
X79550094Y-100880886D01*
X79682758Y-100809976D01*
X79843177Y-100761313D01*
X79968196Y-100749000D01*
X80051804Y-100749000D01*
X80176823Y-100761313D01*
X80176823Y-100761313D01*
G37*
G36*
X82716823Y-100761313D02*
G01*
X82877242Y-100809976D01*
X83009906Y-100880886D01*
X83025078Y-100888996D01*
X83154659Y-100995341D01*
X83261004Y-101124922D01*
X83261005Y-101124924D01*
X83340024Y-101272758D01*
X83388687Y-101433177D01*
X83405117Y-101600000D01*
X83388687Y-101766823D01*
X83340024Y-101927242D01*
X83269114Y-102059906D01*
X83261004Y-102075078D01*
X83154659Y-102204659D01*
X83025078Y-102311004D01*
X83025076Y-102311005D01*
X82877242Y-102390024D01*
X82716823Y-102438687D01*
X82591804Y-102451000D01*
X82508196Y-102451000D01*
X82383177Y-102438687D01*
X82222758Y-102390024D01*
X82074924Y-102311005D01*
X82074922Y-102311004D01*
X81945341Y-102204659D01*
X81838996Y-102075078D01*
X81830886Y-102059906D01*
X81759976Y-101927242D01*
X81711313Y-101766823D01*
X81694883Y-101600000D01*
X81711313Y-101433177D01*
X81759976Y-101272758D01*
X81838995Y-101124924D01*
X81838996Y-101124922D01*
X81945341Y-100995341D01*
X82074922Y-100888996D01*
X82090094Y-100880886D01*
X82222758Y-100809976D01*
X82383177Y-100761313D01*
X82508196Y-100749000D01*
X82591804Y-100749000D01*
X82716823Y-100761313D01*
X82716823Y-100761313D01*
G37*
G36*
X85256823Y-100761313D02*
G01*
X85417242Y-100809976D01*
X85549906Y-100880886D01*
X85565078Y-100888996D01*
X85694659Y-100995341D01*
X85801004Y-101124922D01*
X85801005Y-101124924D01*
X85880024Y-101272758D01*
X85928687Y-101433177D01*
X85945117Y-101600000D01*
X85928687Y-101766823D01*
X85880024Y-101927242D01*
X85809114Y-102059906D01*
X85801004Y-102075078D01*
X85694659Y-102204659D01*
X85565078Y-102311004D01*
X85565076Y-102311005D01*
X85417242Y-102390024D01*
X85256823Y-102438687D01*
X85131804Y-102451000D01*
X85048196Y-102451000D01*
X84923177Y-102438687D01*
X84762758Y-102390024D01*
X84614924Y-102311005D01*
X84614922Y-102311004D01*
X84485341Y-102204659D01*
X84378996Y-102075078D01*
X84370886Y-102059906D01*
X84299976Y-101927242D01*
X84251313Y-101766823D01*
X84234883Y-101600000D01*
X84251313Y-101433177D01*
X84299976Y-101272758D01*
X84378995Y-101124924D01*
X84378996Y-101124922D01*
X84485341Y-100995341D01*
X84614922Y-100888996D01*
X84630094Y-100880886D01*
X84762758Y-100809976D01*
X84923177Y-100761313D01*
X85048196Y-100749000D01*
X85131804Y-100749000D01*
X85256823Y-100761313D01*
X85256823Y-100761313D01*
G37*
G36*
X87796823Y-100761313D02*
G01*
X87957242Y-100809976D01*
X88089906Y-100880886D01*
X88105078Y-100888996D01*
X88234659Y-100995341D01*
X88341004Y-101124922D01*
X88341005Y-101124924D01*
X88420024Y-101272758D01*
X88468687Y-101433177D01*
X88485117Y-101600000D01*
X88468687Y-101766823D01*
X88420024Y-101927242D01*
X88349114Y-102059906D01*
X88341004Y-102075078D01*
X88234659Y-102204659D01*
X88105078Y-102311004D01*
X88105076Y-102311005D01*
X87957242Y-102390024D01*
X87796823Y-102438687D01*
X87671804Y-102451000D01*
X87588196Y-102451000D01*
X87463177Y-102438687D01*
X87302758Y-102390024D01*
X87154924Y-102311005D01*
X87154922Y-102311004D01*
X87025341Y-102204659D01*
X86918996Y-102075078D01*
X86910886Y-102059906D01*
X86839976Y-101927242D01*
X86791313Y-101766823D01*
X86774883Y-101600000D01*
X86791313Y-101433177D01*
X86839976Y-101272758D01*
X86918995Y-101124924D01*
X86918996Y-101124922D01*
X87025341Y-100995341D01*
X87154922Y-100888996D01*
X87170094Y-100880886D01*
X87302758Y-100809976D01*
X87463177Y-100761313D01*
X87588196Y-100749000D01*
X87671804Y-100749000D01*
X87796823Y-100761313D01*
X87796823Y-100761313D01*
G37*
G36*
X52236823Y-100761313D02*
G01*
X52397242Y-100809976D01*
X52529906Y-100880886D01*
X52545078Y-100888996D01*
X52674659Y-100995341D01*
X52781004Y-101124922D01*
X52781005Y-101124924D01*
X52860024Y-101272758D01*
X52908687Y-101433177D01*
X52925117Y-101600000D01*
X52908687Y-101766823D01*
X52860024Y-101927242D01*
X52789114Y-102059906D01*
X52781004Y-102075078D01*
X52674659Y-102204659D01*
X52545078Y-102311004D01*
X52545076Y-102311005D01*
X52397242Y-102390024D01*
X52236823Y-102438687D01*
X52111804Y-102451000D01*
X52028196Y-102451000D01*
X51903177Y-102438687D01*
X51742758Y-102390024D01*
X51594924Y-102311005D01*
X51594922Y-102311004D01*
X51465341Y-102204659D01*
X51358996Y-102075078D01*
X51350886Y-102059906D01*
X51279976Y-101927242D01*
X51231313Y-101766823D01*
X51214883Y-101600000D01*
X51231313Y-101433177D01*
X51279976Y-101272758D01*
X51358995Y-101124924D01*
X51358996Y-101124922D01*
X51465341Y-100995341D01*
X51594922Y-100888996D01*
X51610094Y-100880886D01*
X51742758Y-100809976D01*
X51903177Y-100761313D01*
X52028196Y-100749000D01*
X52111804Y-100749000D01*
X52236823Y-100761313D01*
X52236823Y-100761313D01*
G37*
G36*
X80258228Y-98241703D02*
G01*
X80413100Y-98305853D01*
X80552481Y-98398985D01*
X80671015Y-98517519D01*
X80764147Y-98656900D01*
X80828297Y-98811772D01*
X80861000Y-98976184D01*
X80861000Y-99143816D01*
X80828297Y-99308228D01*
X80764147Y-99463100D01*
X80671015Y-99602481D01*
X80552481Y-99721015D01*
X80413100Y-99814147D01*
X80258228Y-99878297D01*
X80093816Y-99911000D01*
X79926184Y-99911000D01*
X79761772Y-99878297D01*
X79606900Y-99814147D01*
X79467519Y-99721015D01*
X79348985Y-99602481D01*
X79255853Y-99463100D01*
X79191703Y-99308228D01*
X79159000Y-99143816D01*
X79159000Y-98976184D01*
X79191703Y-98811772D01*
X79255853Y-98656900D01*
X79348985Y-98517519D01*
X79467519Y-98398985D01*
X79606900Y-98305853D01*
X79761772Y-98241703D01*
X79926184Y-98209000D01*
X80093816Y-98209000D01*
X80258228Y-98241703D01*
X80258228Y-98241703D01*
G37*
G36*
X76448228Y-98241703D02*
G01*
X76603100Y-98305853D01*
X76742481Y-98398985D01*
X76861015Y-98517519D01*
X76954147Y-98656900D01*
X77018297Y-98811772D01*
X77051000Y-98976184D01*
X77051000Y-99143816D01*
X77018297Y-99308228D01*
X76954147Y-99463100D01*
X76861015Y-99602481D01*
X76742481Y-99721015D01*
X76603100Y-99814147D01*
X76448228Y-99878297D01*
X76283816Y-99911000D01*
X76116184Y-99911000D01*
X75951772Y-99878297D01*
X75796900Y-99814147D01*
X75657519Y-99721015D01*
X75538985Y-99602481D01*
X75445853Y-99463100D01*
X75381703Y-99308228D01*
X75349000Y-99143816D01*
X75349000Y-98976184D01*
X75381703Y-98811772D01*
X75445853Y-98656900D01*
X75538985Y-98517519D01*
X75657519Y-98398985D01*
X75796900Y-98305853D01*
X75951772Y-98241703D01*
X76116184Y-98209000D01*
X76283816Y-98209000D01*
X76448228Y-98241703D01*
X76448228Y-98241703D01*
G37*
G36*
X52236823Y-98221313D02*
G01*
X52397242Y-98269976D01*
X52464361Y-98305852D01*
X52545078Y-98348996D01*
X52674659Y-98455341D01*
X52781004Y-98584922D01*
X52781005Y-98584924D01*
X52860024Y-98732758D01*
X52908687Y-98893177D01*
X52925117Y-99060000D01*
X52908687Y-99226823D01*
X52860024Y-99387242D01*
X52819477Y-99463100D01*
X52781004Y-99535078D01*
X52674659Y-99664659D01*
X52545078Y-99771004D01*
X52545076Y-99771005D01*
X52397242Y-99850024D01*
X52236823Y-99898687D01*
X52111804Y-99911000D01*
X52028196Y-99911000D01*
X51903177Y-99898687D01*
X51742758Y-99850024D01*
X51594924Y-99771005D01*
X51594922Y-99771004D01*
X51465341Y-99664659D01*
X51358996Y-99535078D01*
X51320523Y-99463100D01*
X51279976Y-99387242D01*
X51231313Y-99226823D01*
X51214883Y-99060000D01*
X51231313Y-98893177D01*
X51279976Y-98732758D01*
X51358995Y-98584924D01*
X51358996Y-98584922D01*
X51465341Y-98455341D01*
X51594922Y-98348996D01*
X51675639Y-98305852D01*
X51742758Y-98269976D01*
X51903177Y-98221313D01*
X52028196Y-98209000D01*
X52111804Y-98209000D01*
X52236823Y-98221313D01*
X52236823Y-98221313D01*
G37*
G36*
X87878228Y-98241703D02*
G01*
X88033100Y-98305853D01*
X88172481Y-98398985D01*
X88291015Y-98517519D01*
X88384147Y-98656900D01*
X88448297Y-98811772D01*
X88481000Y-98976184D01*
X88481000Y-99143816D01*
X88448297Y-99308228D01*
X88384147Y-99463100D01*
X88291015Y-99602481D01*
X88172481Y-99721015D01*
X88033100Y-99814147D01*
X87878228Y-99878297D01*
X87713816Y-99911000D01*
X87546184Y-99911000D01*
X87381772Y-99878297D01*
X87226900Y-99814147D01*
X87087519Y-99721015D01*
X86968985Y-99602481D01*
X86875853Y-99463100D01*
X86811703Y-99308228D01*
X86779000Y-99143816D01*
X86779000Y-98976184D01*
X86811703Y-98811772D01*
X86875853Y-98656900D01*
X86968985Y-98517519D01*
X87087519Y-98398985D01*
X87226900Y-98305853D01*
X87381772Y-98241703D01*
X87546184Y-98209000D01*
X87713816Y-98209000D01*
X87878228Y-98241703D01*
X87878228Y-98241703D01*
G37*
G36*
X84068228Y-98241703D02*
G01*
X84223100Y-98305853D01*
X84362481Y-98398985D01*
X84481015Y-98517519D01*
X84574147Y-98656900D01*
X84638297Y-98811772D01*
X84671000Y-98976184D01*
X84671000Y-99143816D01*
X84638297Y-99308228D01*
X84574147Y-99463100D01*
X84481015Y-99602481D01*
X84362481Y-99721015D01*
X84223100Y-99814147D01*
X84068228Y-99878297D01*
X83903816Y-99911000D01*
X83736184Y-99911000D01*
X83571772Y-99878297D01*
X83416900Y-99814147D01*
X83277519Y-99721015D01*
X83158985Y-99602481D01*
X83065853Y-99463100D01*
X83001703Y-99308228D01*
X82969000Y-99143816D01*
X82969000Y-98976184D01*
X83001703Y-98811772D01*
X83065853Y-98656900D01*
X83158985Y-98517519D01*
X83277519Y-98398985D01*
X83416900Y-98305853D01*
X83571772Y-98241703D01*
X83736184Y-98209000D01*
X83903816Y-98209000D01*
X84068228Y-98241703D01*
X84068228Y-98241703D01*
G37*
G36*
X233826000Y-99756000D02*
G01*
X229724000Y-99756000D01*
X229724000Y-97094000D01*
X233826000Y-97094000D01*
X233826000Y-99756000D01*
X233826000Y-99756000D01*
G37*
G36*
X223630442Y-94355518D02*
G01*
X223696627Y-94362037D01*
X223866466Y-94413557D01*
X224022991Y-94497222D01*
X224058729Y-94526552D01*
X224160186Y-94609814D01*
X224234585Y-94700471D01*
X224272778Y-94747009D01*
X224356443Y-94903534D01*
X224407963Y-95073373D01*
X224425359Y-95250000D01*
X224407963Y-95426627D01*
X224356443Y-95596466D01*
X224272778Y-95752991D01*
X224243448Y-95788729D01*
X224160186Y-95890186D01*
X224058729Y-95973448D01*
X224022991Y-96002778D01*
X223866466Y-96086443D01*
X223696627Y-96137963D01*
X223630443Y-96144481D01*
X223564260Y-96151000D01*
X223475740Y-96151000D01*
X223409558Y-96144482D01*
X223343373Y-96137963D01*
X223173534Y-96086443D01*
X223017009Y-96002778D01*
X222981271Y-95973448D01*
X222879814Y-95890186D01*
X222796552Y-95788729D01*
X222767222Y-95752991D01*
X222683557Y-95596466D01*
X222632037Y-95426627D01*
X222614641Y-95250000D01*
X222632037Y-95073373D01*
X222683557Y-94903534D01*
X222767222Y-94747009D01*
X222805415Y-94700471D01*
X222879814Y-94609814D01*
X222981271Y-94526552D01*
X223017009Y-94497222D01*
X223173534Y-94413557D01*
X223343373Y-94362037D01*
X223409557Y-94355519D01*
X223475740Y-94349000D01*
X223564260Y-94349000D01*
X223630442Y-94355518D01*
X223630442Y-94355518D01*
G37*
G36*
X226961000Y-96151000D02*
G01*
X225159000Y-96151000D01*
X225159000Y-94349000D01*
X226961000Y-94349000D01*
X226961000Y-96151000D01*
X226961000Y-96151000D01*
G37*
G36*
X235060443Y-93720519D02*
G01*
X235126627Y-93727037D01*
X235296466Y-93778557D01*
X235452991Y-93862222D01*
X235488729Y-93891552D01*
X235590186Y-93974814D01*
X235660156Y-94060074D01*
X235702778Y-94112009D01*
X235786443Y-94268534D01*
X235837963Y-94438373D01*
X235855359Y-94615000D01*
X235837963Y-94791627D01*
X235786443Y-94961466D01*
X235702778Y-95117991D01*
X235673448Y-95153729D01*
X235590186Y-95255186D01*
X235488729Y-95338448D01*
X235452991Y-95367778D01*
X235296466Y-95451443D01*
X235126627Y-95502963D01*
X235060443Y-95509481D01*
X234994260Y-95516000D01*
X234905740Y-95516000D01*
X234839557Y-95509481D01*
X234773373Y-95502963D01*
X234603534Y-95451443D01*
X234447009Y-95367778D01*
X234411271Y-95338448D01*
X234309814Y-95255186D01*
X234226552Y-95153729D01*
X234197222Y-95117991D01*
X234113557Y-94961466D01*
X234062037Y-94791627D01*
X234044641Y-94615000D01*
X234062037Y-94438373D01*
X234113557Y-94268534D01*
X234197222Y-94112009D01*
X234239844Y-94060074D01*
X234309814Y-93974814D01*
X234411271Y-93891552D01*
X234447009Y-93862222D01*
X234603534Y-93778557D01*
X234773373Y-93727037D01*
X234839558Y-93720518D01*
X234905740Y-93714000D01*
X234994260Y-93714000D01*
X235060443Y-93720519D01*
X235060443Y-93720519D01*
G37*
G36*
X156447142Y-93198242D02*
G01*
X156595101Y-93259529D01*
X156728255Y-93348499D01*
X156841501Y-93461745D01*
X156930471Y-93594899D01*
X156991758Y-93742858D01*
X157023000Y-93899925D01*
X157023000Y-94060075D01*
X156991758Y-94217142D01*
X156930471Y-94365101D01*
X156841501Y-94498255D01*
X156728255Y-94611501D01*
X156595101Y-94700471D01*
X156447142Y-94761758D01*
X156290075Y-94793000D01*
X156129925Y-94793000D01*
X155972858Y-94761758D01*
X155824899Y-94700471D01*
X155691745Y-94611501D01*
X155578499Y-94498255D01*
X155489529Y-94365101D01*
X155428242Y-94217142D01*
X155397000Y-94060075D01*
X155397000Y-93899925D01*
X155428242Y-93742858D01*
X155489529Y-93594899D01*
X155578499Y-93461745D01*
X155691745Y-93348499D01*
X155824899Y-93259529D01*
X155972858Y-93198242D01*
X156129925Y-93167000D01*
X156290075Y-93167000D01*
X156447142Y-93198242D01*
X156447142Y-93198242D01*
G37*
G36*
X130353000Y-94793000D02*
G01*
X128727000Y-94793000D01*
X128727000Y-93167000D01*
X130353000Y-93167000D01*
X130353000Y-94793000D01*
X130353000Y-94793000D01*
G37*
G36*
X235060442Y-91180518D02*
G01*
X235126627Y-91187037D01*
X235296466Y-91238557D01*
X235452991Y-91322222D01*
X235488729Y-91351552D01*
X235590186Y-91434814D01*
X235660156Y-91520074D01*
X235702778Y-91572009D01*
X235786443Y-91728534D01*
X235837963Y-91898373D01*
X235855359Y-92075000D01*
X235837963Y-92251627D01*
X235786443Y-92421466D01*
X235702778Y-92577991D01*
X235673448Y-92613729D01*
X235590186Y-92715186D01*
X235488729Y-92798448D01*
X235452991Y-92827778D01*
X235296466Y-92911443D01*
X235126627Y-92962963D01*
X235060442Y-92969482D01*
X234994260Y-92976000D01*
X234905740Y-92976000D01*
X234839558Y-92969482D01*
X234773373Y-92962963D01*
X234603534Y-92911443D01*
X234447009Y-92827778D01*
X234411271Y-92798448D01*
X234309814Y-92715186D01*
X234226552Y-92613729D01*
X234197222Y-92577991D01*
X234113557Y-92421466D01*
X234062037Y-92251627D01*
X234044641Y-92075000D01*
X234062037Y-91898373D01*
X234113557Y-91728534D01*
X234197222Y-91572009D01*
X234239844Y-91520074D01*
X234309814Y-91434814D01*
X234411271Y-91351552D01*
X234447009Y-91322222D01*
X234603534Y-91238557D01*
X234773373Y-91187037D01*
X234839558Y-91180518D01*
X234905740Y-91174000D01*
X234994260Y-91174000D01*
X235060442Y-91180518D01*
X235060442Y-91180518D01*
G37*
G36*
X156447142Y-90658242D02*
G01*
X156595101Y-90719529D01*
X156728255Y-90808499D01*
X156841501Y-90921745D01*
X156930471Y-91054899D01*
X156991758Y-91202858D01*
X157023000Y-91359925D01*
X157023000Y-91520075D01*
X156991758Y-91677142D01*
X156930471Y-91825101D01*
X156841501Y-91958255D01*
X156728255Y-92071501D01*
X156595101Y-92160471D01*
X156447142Y-92221758D01*
X156290075Y-92253000D01*
X156129925Y-92253000D01*
X155972858Y-92221758D01*
X155824899Y-92160471D01*
X155691745Y-92071501D01*
X155578499Y-91958255D01*
X155489529Y-91825101D01*
X155428242Y-91677142D01*
X155397000Y-91520075D01*
X155397000Y-91359925D01*
X155428242Y-91202858D01*
X155489529Y-91054899D01*
X155578499Y-90921745D01*
X155691745Y-90808499D01*
X155824899Y-90719529D01*
X155972858Y-90658242D01*
X156129925Y-90627000D01*
X156290075Y-90627000D01*
X156447142Y-90658242D01*
X156447142Y-90658242D01*
G37*
G36*
X235851000Y-90436000D02*
G01*
X234049000Y-90436000D01*
X234049000Y-88634000D01*
X235851000Y-88634000D01*
X235851000Y-90436000D01*
X235851000Y-90436000D01*
G37*
G36*
X106282142Y-88753242D02*
G01*
X106430101Y-88814529D01*
X106563255Y-88903499D01*
X106676501Y-89016745D01*
X106765471Y-89149899D01*
X106826758Y-89297858D01*
X106858000Y-89454925D01*
X106858000Y-89615075D01*
X106826758Y-89772142D01*
X106765471Y-89920101D01*
X106676501Y-90053255D01*
X106563255Y-90166501D01*
X106430101Y-90255471D01*
X106282142Y-90316758D01*
X106125075Y-90348000D01*
X105964925Y-90348000D01*
X105807858Y-90316758D01*
X105659899Y-90255471D01*
X105526745Y-90166501D01*
X105413499Y-90053255D01*
X105324529Y-89920101D01*
X105263242Y-89772142D01*
X105232000Y-89615075D01*
X105232000Y-89454925D01*
X105263242Y-89297858D01*
X105324529Y-89149899D01*
X105413499Y-89016745D01*
X105526745Y-88903499D01*
X105659899Y-88814529D01*
X105807858Y-88753242D01*
X105964925Y-88722000D01*
X106125075Y-88722000D01*
X106282142Y-88753242D01*
X106282142Y-88753242D01*
G37*
G36*
X101202142Y-88753242D02*
G01*
X101350101Y-88814529D01*
X101483255Y-88903499D01*
X101596501Y-89016745D01*
X101685471Y-89149899D01*
X101746758Y-89297858D01*
X101778000Y-89454925D01*
X101778000Y-89615075D01*
X101746758Y-89772142D01*
X101685471Y-89920101D01*
X101596501Y-90053255D01*
X101483255Y-90166501D01*
X101350101Y-90255471D01*
X101202142Y-90316758D01*
X101045075Y-90348000D01*
X100884925Y-90348000D01*
X100727858Y-90316758D01*
X100579899Y-90255471D01*
X100446745Y-90166501D01*
X100333499Y-90053255D01*
X100244529Y-89920101D01*
X100183242Y-89772142D01*
X100152000Y-89615075D01*
X100152000Y-89454925D01*
X100183242Y-89297858D01*
X100244529Y-89149899D01*
X100333499Y-89016745D01*
X100446745Y-88903499D01*
X100579899Y-88814529D01*
X100727858Y-88753242D01*
X100884925Y-88722000D01*
X101045075Y-88722000D01*
X101202142Y-88753242D01*
X101202142Y-88753242D01*
G37*
G36*
X98662142Y-88753242D02*
G01*
X98810101Y-88814529D01*
X98943255Y-88903499D01*
X99056501Y-89016745D01*
X99145471Y-89149899D01*
X99206758Y-89297858D01*
X99238000Y-89454925D01*
X99238000Y-89615075D01*
X99206758Y-89772142D01*
X99145471Y-89920101D01*
X99056501Y-90053255D01*
X98943255Y-90166501D01*
X98810101Y-90255471D01*
X98662142Y-90316758D01*
X98505075Y-90348000D01*
X98344925Y-90348000D01*
X98187858Y-90316758D01*
X98039899Y-90255471D01*
X97906745Y-90166501D01*
X97793499Y-90053255D01*
X97704529Y-89920101D01*
X97643242Y-89772142D01*
X97612000Y-89615075D01*
X97612000Y-89454925D01*
X97643242Y-89297858D01*
X97704529Y-89149899D01*
X97793499Y-89016745D01*
X97906745Y-88903499D01*
X98039899Y-88814529D01*
X98187858Y-88753242D01*
X98344925Y-88722000D01*
X98505075Y-88722000D01*
X98662142Y-88753242D01*
X98662142Y-88753242D01*
G37*
G36*
X96122142Y-88753242D02*
G01*
X96270101Y-88814529D01*
X96403255Y-88903499D01*
X96516501Y-89016745D01*
X96605471Y-89149899D01*
X96666758Y-89297858D01*
X96698000Y-89454925D01*
X96698000Y-89615075D01*
X96666758Y-89772142D01*
X96605471Y-89920101D01*
X96516501Y-90053255D01*
X96403255Y-90166501D01*
X96270101Y-90255471D01*
X96122142Y-90316758D01*
X95965075Y-90348000D01*
X95804925Y-90348000D01*
X95647858Y-90316758D01*
X95499899Y-90255471D01*
X95366745Y-90166501D01*
X95253499Y-90053255D01*
X95164529Y-89920101D01*
X95103242Y-89772142D01*
X95072000Y-89615075D01*
X95072000Y-89454925D01*
X95103242Y-89297858D01*
X95164529Y-89149899D01*
X95253499Y-89016745D01*
X95366745Y-88903499D01*
X95499899Y-88814529D01*
X95647858Y-88753242D01*
X95804925Y-88722000D01*
X95965075Y-88722000D01*
X96122142Y-88753242D01*
X96122142Y-88753242D01*
G37*
G36*
X111362142Y-88753242D02*
G01*
X111510101Y-88814529D01*
X111643255Y-88903499D01*
X111756501Y-89016745D01*
X111845471Y-89149899D01*
X111906758Y-89297858D01*
X111938000Y-89454925D01*
X111938000Y-89615075D01*
X111906758Y-89772142D01*
X111845471Y-89920101D01*
X111756501Y-90053255D01*
X111643255Y-90166501D01*
X111510101Y-90255471D01*
X111362142Y-90316758D01*
X111205075Y-90348000D01*
X111044925Y-90348000D01*
X110887858Y-90316758D01*
X110739899Y-90255471D01*
X110606745Y-90166501D01*
X110493499Y-90053255D01*
X110404529Y-89920101D01*
X110343242Y-89772142D01*
X110312000Y-89615075D01*
X110312000Y-89454925D01*
X110343242Y-89297858D01*
X110404529Y-89149899D01*
X110493499Y-89016745D01*
X110606745Y-88903499D01*
X110739899Y-88814529D01*
X110887858Y-88753242D01*
X111044925Y-88722000D01*
X111205075Y-88722000D01*
X111362142Y-88753242D01*
X111362142Y-88753242D01*
G37*
G36*
X108822142Y-88753242D02*
G01*
X108970101Y-88814529D01*
X109103255Y-88903499D01*
X109216501Y-89016745D01*
X109305471Y-89149899D01*
X109366758Y-89297858D01*
X109398000Y-89454925D01*
X109398000Y-89615075D01*
X109366758Y-89772142D01*
X109305471Y-89920101D01*
X109216501Y-90053255D01*
X109103255Y-90166501D01*
X108970101Y-90255471D01*
X108822142Y-90316758D01*
X108665075Y-90348000D01*
X108504925Y-90348000D01*
X108347858Y-90316758D01*
X108199899Y-90255471D01*
X108066745Y-90166501D01*
X107953499Y-90053255D01*
X107864529Y-89920101D01*
X107803242Y-89772142D01*
X107772000Y-89615075D01*
X107772000Y-89454925D01*
X107803242Y-89297858D01*
X107864529Y-89149899D01*
X107953499Y-89016745D01*
X108066745Y-88903499D01*
X108199899Y-88814529D01*
X108347858Y-88753242D01*
X108504925Y-88722000D01*
X108665075Y-88722000D01*
X108822142Y-88753242D01*
X108822142Y-88753242D01*
G37*
G36*
X103742142Y-88753242D02*
G01*
X103890101Y-88814529D01*
X104023255Y-88903499D01*
X104136501Y-89016745D01*
X104225471Y-89149899D01*
X104286758Y-89297858D01*
X104318000Y-89454925D01*
X104318000Y-89615075D01*
X104286758Y-89772142D01*
X104225471Y-89920101D01*
X104136501Y-90053255D01*
X104023255Y-90166501D01*
X103890101Y-90255471D01*
X103742142Y-90316758D01*
X103585075Y-90348000D01*
X103424925Y-90348000D01*
X103267858Y-90316758D01*
X103119899Y-90255471D01*
X102986745Y-90166501D01*
X102873499Y-90053255D01*
X102784529Y-89920101D01*
X102723242Y-89772142D01*
X102692000Y-89615075D01*
X102692000Y-89454925D01*
X102723242Y-89297858D01*
X102784529Y-89149899D01*
X102873499Y-89016745D01*
X102986745Y-88903499D01*
X103119899Y-88814529D01*
X103267858Y-88753242D01*
X103424925Y-88722000D01*
X103585075Y-88722000D01*
X103742142Y-88753242D01*
X103742142Y-88753242D01*
G37*
G36*
X94158000Y-90348000D02*
G01*
X92532000Y-90348000D01*
X92532000Y-88722000D01*
X94158000Y-88722000D01*
X94158000Y-90348000D01*
X94158000Y-90348000D01*
G37*
G36*
X87796823Y-88061313D02*
G01*
X87957242Y-88109976D01*
X88089906Y-88180886D01*
X88105078Y-88188996D01*
X88234659Y-88295341D01*
X88341004Y-88424922D01*
X88341005Y-88424924D01*
X88420024Y-88572758D01*
X88468687Y-88733177D01*
X88485117Y-88900000D01*
X88468687Y-89066823D01*
X88420024Y-89227242D01*
X88379477Y-89303100D01*
X88341004Y-89375078D01*
X88234659Y-89504659D01*
X88105078Y-89611004D01*
X88097462Y-89615075D01*
X87957242Y-89690024D01*
X87796823Y-89738687D01*
X87671804Y-89751000D01*
X87588196Y-89751000D01*
X87463177Y-89738687D01*
X87302758Y-89690024D01*
X87162538Y-89615075D01*
X87154922Y-89611004D01*
X87025341Y-89504659D01*
X86918996Y-89375078D01*
X86880523Y-89303100D01*
X86839976Y-89227242D01*
X86791313Y-89066823D01*
X86774883Y-88900000D01*
X86791313Y-88733177D01*
X86839976Y-88572758D01*
X86918995Y-88424924D01*
X86918996Y-88424922D01*
X87025341Y-88295341D01*
X87154922Y-88188996D01*
X87170094Y-88180886D01*
X87302758Y-88109976D01*
X87463177Y-88061313D01*
X87588196Y-88049000D01*
X87671804Y-88049000D01*
X87796823Y-88061313D01*
X87796823Y-88061313D01*
G37*
G36*
X80176823Y-88061313D02*
G01*
X80337242Y-88109976D01*
X80469906Y-88180886D01*
X80485078Y-88188996D01*
X80614659Y-88295341D01*
X80721004Y-88424922D01*
X80721005Y-88424924D01*
X80800024Y-88572758D01*
X80848687Y-88733177D01*
X80865117Y-88900000D01*
X80848687Y-89066823D01*
X80800024Y-89227242D01*
X80759477Y-89303100D01*
X80721004Y-89375078D01*
X80614659Y-89504659D01*
X80485078Y-89611004D01*
X80477462Y-89615075D01*
X80337242Y-89690024D01*
X80176823Y-89738687D01*
X80051804Y-89751000D01*
X79968196Y-89751000D01*
X79843177Y-89738687D01*
X79682758Y-89690024D01*
X79542538Y-89615075D01*
X79534922Y-89611004D01*
X79405341Y-89504659D01*
X79298996Y-89375078D01*
X79260523Y-89303100D01*
X79219976Y-89227242D01*
X79171313Y-89066823D01*
X79154883Y-88900000D01*
X79171313Y-88733177D01*
X79219976Y-88572758D01*
X79298995Y-88424924D01*
X79298996Y-88424922D01*
X79405341Y-88295341D01*
X79534922Y-88188996D01*
X79550094Y-88180886D01*
X79682758Y-88109976D01*
X79843177Y-88061313D01*
X79968196Y-88049000D01*
X80051804Y-88049000D01*
X80176823Y-88061313D01*
X80176823Y-88061313D01*
G37*
G36*
X83986823Y-88061313D02*
G01*
X84147242Y-88109976D01*
X84279906Y-88180886D01*
X84295078Y-88188996D01*
X84424659Y-88295341D01*
X84531004Y-88424922D01*
X84531005Y-88424924D01*
X84610024Y-88572758D01*
X84658687Y-88733177D01*
X84675117Y-88900000D01*
X84658687Y-89066823D01*
X84610024Y-89227242D01*
X84569477Y-89303100D01*
X84531004Y-89375078D01*
X84424659Y-89504659D01*
X84295078Y-89611004D01*
X84287462Y-89615075D01*
X84147242Y-89690024D01*
X83986823Y-89738687D01*
X83861804Y-89751000D01*
X83778196Y-89751000D01*
X83653177Y-89738687D01*
X83492758Y-89690024D01*
X83352538Y-89615075D01*
X83344922Y-89611004D01*
X83215341Y-89504659D01*
X83108996Y-89375078D01*
X83070523Y-89303100D01*
X83029976Y-89227242D01*
X82981313Y-89066823D01*
X82964883Y-88900000D01*
X82981313Y-88733177D01*
X83029976Y-88572758D01*
X83108995Y-88424924D01*
X83108996Y-88424922D01*
X83215341Y-88295341D01*
X83344922Y-88188996D01*
X83360094Y-88180886D01*
X83492758Y-88109976D01*
X83653177Y-88061313D01*
X83778196Y-88049000D01*
X83861804Y-88049000D01*
X83986823Y-88061313D01*
X83986823Y-88061313D01*
G37*
G36*
X52318228Y-88081703D02*
G01*
X52473100Y-88145853D01*
X52612481Y-88238985D01*
X52731015Y-88357519D01*
X52824147Y-88496900D01*
X52888297Y-88651772D01*
X52921000Y-88816184D01*
X52921000Y-88983816D01*
X52888297Y-89148228D01*
X52824147Y-89303100D01*
X52731015Y-89442481D01*
X52612481Y-89561015D01*
X52473100Y-89654147D01*
X52318228Y-89718297D01*
X52153816Y-89751000D01*
X51986184Y-89751000D01*
X51821772Y-89718297D01*
X51666900Y-89654147D01*
X51527519Y-89561015D01*
X51408985Y-89442481D01*
X51315853Y-89303100D01*
X51251703Y-89148228D01*
X51219000Y-88983816D01*
X51219000Y-88816184D01*
X51251703Y-88651772D01*
X51315853Y-88496900D01*
X51408985Y-88357519D01*
X51527519Y-88238985D01*
X51666900Y-88145853D01*
X51821772Y-88081703D01*
X51986184Y-88049000D01*
X52153816Y-88049000D01*
X52318228Y-88081703D01*
X52318228Y-88081703D01*
G37*
G36*
X76366823Y-88061313D02*
G01*
X76527242Y-88109976D01*
X76659906Y-88180886D01*
X76675078Y-88188996D01*
X76804659Y-88295341D01*
X76911004Y-88424922D01*
X76911005Y-88424924D01*
X76990024Y-88572758D01*
X77038687Y-88733177D01*
X77055117Y-88900000D01*
X77038687Y-89066823D01*
X76990024Y-89227242D01*
X76949477Y-89303100D01*
X76911004Y-89375078D01*
X76804659Y-89504659D01*
X76675078Y-89611004D01*
X76667462Y-89615075D01*
X76527242Y-89690024D01*
X76366823Y-89738687D01*
X76241804Y-89751000D01*
X76158196Y-89751000D01*
X76033177Y-89738687D01*
X75872758Y-89690024D01*
X75732538Y-89615075D01*
X75724922Y-89611004D01*
X75595341Y-89504659D01*
X75488996Y-89375078D01*
X75450523Y-89303100D01*
X75409976Y-89227242D01*
X75361313Y-89066823D01*
X75344883Y-88900000D01*
X75361313Y-88733177D01*
X75409976Y-88572758D01*
X75488995Y-88424924D01*
X75488996Y-88424922D01*
X75595341Y-88295341D01*
X75724922Y-88188996D01*
X75740094Y-88180886D01*
X75872758Y-88109976D01*
X76033177Y-88061313D01*
X76158196Y-88049000D01*
X76241804Y-88049000D01*
X76366823Y-88061313D01*
X76366823Y-88061313D01*
G37*
G36*
X157023000Y-89713000D02*
G01*
X155397000Y-89713000D01*
X155397000Y-88087000D01*
X157023000Y-88087000D01*
X157023000Y-89713000D01*
X157023000Y-89713000D01*
G37*
G36*
X127901000Y-88531000D02*
G01*
X126099000Y-88531000D01*
X126099000Y-86729000D01*
X127901000Y-86729000D01*
X127901000Y-88531000D01*
X127901000Y-88531000D01*
G37*
G36*
X124570442Y-86735518D02*
G01*
X124636627Y-86742037D01*
X124806466Y-86793557D01*
X124962991Y-86877222D01*
X124998729Y-86906552D01*
X125100186Y-86989814D01*
X125183448Y-87091271D01*
X125212778Y-87127009D01*
X125296443Y-87283534D01*
X125347963Y-87453373D01*
X125365359Y-87630000D01*
X125347963Y-87806627D01*
X125296443Y-87976466D01*
X125212778Y-88132991D01*
X125202223Y-88145852D01*
X125100186Y-88270186D01*
X125002357Y-88350471D01*
X124962991Y-88382778D01*
X124806466Y-88466443D01*
X124636627Y-88517963D01*
X124570442Y-88524482D01*
X124504260Y-88531000D01*
X124415740Y-88531000D01*
X124349558Y-88524482D01*
X124283373Y-88517963D01*
X124113534Y-88466443D01*
X123957009Y-88382778D01*
X123917643Y-88350471D01*
X123819814Y-88270186D01*
X123717777Y-88145852D01*
X123707222Y-88132991D01*
X123623557Y-87976466D01*
X123572037Y-87806627D01*
X123554641Y-87630000D01*
X123572037Y-87453373D01*
X123623557Y-87283534D01*
X123707222Y-87127009D01*
X123736552Y-87091271D01*
X123819814Y-86989814D01*
X123921271Y-86906552D01*
X123957009Y-86877222D01*
X124113534Y-86793557D01*
X124283373Y-86742037D01*
X124349558Y-86735518D01*
X124415740Y-86729000D01*
X124504260Y-86729000D01*
X124570442Y-86735518D01*
X124570442Y-86735518D01*
G37*
G36*
X132952142Y-86848242D02*
G01*
X133100101Y-86909529D01*
X133233255Y-86998499D01*
X133346501Y-87111745D01*
X133435471Y-87244899D01*
X133496758Y-87392858D01*
X133528000Y-87549925D01*
X133528000Y-87710075D01*
X133496758Y-87867142D01*
X133435471Y-88015101D01*
X133346501Y-88148255D01*
X133233255Y-88261501D01*
X133100101Y-88350471D01*
X132952142Y-88411758D01*
X132795075Y-88443000D01*
X132634925Y-88443000D01*
X132477858Y-88411758D01*
X132329899Y-88350471D01*
X132196745Y-88261501D01*
X132083499Y-88148255D01*
X131994529Y-88015101D01*
X131933242Y-87867142D01*
X131902000Y-87710075D01*
X131902000Y-87549925D01*
X131933242Y-87392858D01*
X131994529Y-87244899D01*
X132083499Y-87111745D01*
X132196745Y-86998499D01*
X132329899Y-86909529D01*
X132477858Y-86848242D01*
X132634925Y-86817000D01*
X132795075Y-86817000D01*
X132952142Y-86848242D01*
X132952142Y-86848242D01*
G37*
G36*
X136068000Y-88443000D02*
G01*
X134442000Y-88443000D01*
X134442000Y-86817000D01*
X136068000Y-86817000D01*
X136068000Y-88443000D01*
X136068000Y-88443000D01*
G37*
G36*
X138032142Y-86848242D02*
G01*
X138180101Y-86909529D01*
X138313255Y-86998499D01*
X138426501Y-87111745D01*
X138515471Y-87244899D01*
X138576758Y-87392858D01*
X138608000Y-87549925D01*
X138608000Y-87710075D01*
X138576758Y-87867142D01*
X138515471Y-88015101D01*
X138426501Y-88148255D01*
X138313255Y-88261501D01*
X138180101Y-88350471D01*
X138032142Y-88411758D01*
X137875075Y-88443000D01*
X137714925Y-88443000D01*
X137557858Y-88411758D01*
X137409899Y-88350471D01*
X137276745Y-88261501D01*
X137163499Y-88148255D01*
X137074529Y-88015101D01*
X137013242Y-87867142D01*
X136982000Y-87710075D01*
X136982000Y-87549925D01*
X137013242Y-87392858D01*
X137074529Y-87244899D01*
X137163499Y-87111745D01*
X137276745Y-86998499D01*
X137409899Y-86909529D01*
X137557858Y-86848242D01*
X137714925Y-86817000D01*
X137875075Y-86817000D01*
X138032142Y-86848242D01*
X138032142Y-86848242D01*
G37*
G36*
X140572142Y-86848242D02*
G01*
X140720101Y-86909529D01*
X140853255Y-86998499D01*
X140966501Y-87111745D01*
X141055471Y-87244899D01*
X141116758Y-87392858D01*
X141148000Y-87549925D01*
X141148000Y-87710075D01*
X141116758Y-87867142D01*
X141055471Y-88015101D01*
X140966501Y-88148255D01*
X140853255Y-88261501D01*
X140720101Y-88350471D01*
X140572142Y-88411758D01*
X140415075Y-88443000D01*
X140254925Y-88443000D01*
X140097858Y-88411758D01*
X139949899Y-88350471D01*
X139816745Y-88261501D01*
X139703499Y-88148255D01*
X139614529Y-88015101D01*
X139553242Y-87867142D01*
X139522000Y-87710075D01*
X139522000Y-87549925D01*
X139553242Y-87392858D01*
X139614529Y-87244899D01*
X139703499Y-87111745D01*
X139816745Y-86998499D01*
X139949899Y-86909529D01*
X140097858Y-86848242D01*
X140254925Y-86817000D01*
X140415075Y-86817000D01*
X140572142Y-86848242D01*
X140572142Y-86848242D01*
G37*
G36*
X70016823Y-85521313D02*
G01*
X70177242Y-85569976D01*
X70309906Y-85640886D01*
X70325078Y-85648996D01*
X70454659Y-85755341D01*
X70561004Y-85884922D01*
X70561005Y-85884924D01*
X70640024Y-86032758D01*
X70688687Y-86193177D01*
X70705117Y-86360000D01*
X70688687Y-86526823D01*
X70640024Y-86687242D01*
X70610735Y-86742037D01*
X70561004Y-86835078D01*
X70454659Y-86964659D01*
X70325078Y-87071004D01*
X70325076Y-87071005D01*
X70177242Y-87150024D01*
X70016823Y-87198687D01*
X69891804Y-87211000D01*
X69808196Y-87211000D01*
X69683177Y-87198687D01*
X69522758Y-87150024D01*
X69374924Y-87071005D01*
X69374922Y-87071004D01*
X69245341Y-86964659D01*
X69138996Y-86835078D01*
X69089265Y-86742037D01*
X69059976Y-86687242D01*
X69011313Y-86526823D01*
X68994883Y-86360000D01*
X69011313Y-86193177D01*
X69059976Y-86032758D01*
X69138995Y-85884924D01*
X69138996Y-85884922D01*
X69245341Y-85755341D01*
X69374922Y-85648996D01*
X69390094Y-85640886D01*
X69522758Y-85569976D01*
X69683177Y-85521313D01*
X69808196Y-85509000D01*
X69891804Y-85509000D01*
X70016823Y-85521313D01*
X70016823Y-85521313D01*
G37*
G36*
X88481000Y-87211000D02*
G01*
X86779000Y-87211000D01*
X86779000Y-85509000D01*
X88481000Y-85509000D01*
X88481000Y-87211000D01*
X88481000Y-87211000D01*
G37*
G36*
X80176823Y-85521313D02*
G01*
X80337242Y-85569976D01*
X80469906Y-85640886D01*
X80485078Y-85648996D01*
X80614659Y-85755341D01*
X80721004Y-85884922D01*
X80721005Y-85884924D01*
X80800024Y-86032758D01*
X80848687Y-86193177D01*
X80865117Y-86360000D01*
X80848687Y-86526823D01*
X80800024Y-86687242D01*
X80770735Y-86742037D01*
X80721004Y-86835078D01*
X80614659Y-86964659D01*
X80485078Y-87071004D01*
X80485076Y-87071005D01*
X80337242Y-87150024D01*
X80176823Y-87198687D01*
X80051804Y-87211000D01*
X79968196Y-87211000D01*
X79843177Y-87198687D01*
X79682758Y-87150024D01*
X79534924Y-87071005D01*
X79534922Y-87071004D01*
X79405341Y-86964659D01*
X79298996Y-86835078D01*
X79249265Y-86742037D01*
X79219976Y-86687242D01*
X79171313Y-86526823D01*
X79154883Y-86360000D01*
X79171313Y-86193177D01*
X79219976Y-86032758D01*
X79298995Y-85884924D01*
X79298996Y-85884922D01*
X79405341Y-85755341D01*
X79534922Y-85648996D01*
X79550094Y-85640886D01*
X79682758Y-85569976D01*
X79843177Y-85521313D01*
X79968196Y-85509000D01*
X80051804Y-85509000D01*
X80176823Y-85521313D01*
X80176823Y-85521313D01*
G37*
G36*
X77636823Y-85521313D02*
G01*
X77797242Y-85569976D01*
X77929906Y-85640886D01*
X77945078Y-85648996D01*
X78074659Y-85755341D01*
X78181004Y-85884922D01*
X78181005Y-85884924D01*
X78260024Y-86032758D01*
X78308687Y-86193177D01*
X78325117Y-86360000D01*
X78308687Y-86526823D01*
X78260024Y-86687242D01*
X78230735Y-86742037D01*
X78181004Y-86835078D01*
X78074659Y-86964659D01*
X77945078Y-87071004D01*
X77945076Y-87071005D01*
X77797242Y-87150024D01*
X77636823Y-87198687D01*
X77511804Y-87211000D01*
X77428196Y-87211000D01*
X77303177Y-87198687D01*
X77142758Y-87150024D01*
X76994924Y-87071005D01*
X76994922Y-87071004D01*
X76865341Y-86964659D01*
X76758996Y-86835078D01*
X76709265Y-86742037D01*
X76679976Y-86687242D01*
X76631313Y-86526823D01*
X76614883Y-86360000D01*
X76631313Y-86193177D01*
X76679976Y-86032758D01*
X76758995Y-85884924D01*
X76758996Y-85884922D01*
X76865341Y-85755341D01*
X76994922Y-85648996D01*
X77010094Y-85640886D01*
X77142758Y-85569976D01*
X77303177Y-85521313D01*
X77428196Y-85509000D01*
X77511804Y-85509000D01*
X77636823Y-85521313D01*
X77636823Y-85521313D01*
G37*
G36*
X75096823Y-85521313D02*
G01*
X75257242Y-85569976D01*
X75389906Y-85640886D01*
X75405078Y-85648996D01*
X75534659Y-85755341D01*
X75641004Y-85884922D01*
X75641005Y-85884924D01*
X75720024Y-86032758D01*
X75768687Y-86193177D01*
X75785117Y-86360000D01*
X75768687Y-86526823D01*
X75720024Y-86687242D01*
X75690735Y-86742037D01*
X75641004Y-86835078D01*
X75534659Y-86964659D01*
X75405078Y-87071004D01*
X75405076Y-87071005D01*
X75257242Y-87150024D01*
X75096823Y-87198687D01*
X74971804Y-87211000D01*
X74888196Y-87211000D01*
X74763177Y-87198687D01*
X74602758Y-87150024D01*
X74454924Y-87071005D01*
X74454922Y-87071004D01*
X74325341Y-86964659D01*
X74218996Y-86835078D01*
X74169265Y-86742037D01*
X74139976Y-86687242D01*
X74091313Y-86526823D01*
X74074883Y-86360000D01*
X74091313Y-86193177D01*
X74139976Y-86032758D01*
X74218995Y-85884924D01*
X74218996Y-85884922D01*
X74325341Y-85755341D01*
X74454922Y-85648996D01*
X74470094Y-85640886D01*
X74602758Y-85569976D01*
X74763177Y-85521313D01*
X74888196Y-85509000D01*
X74971804Y-85509000D01*
X75096823Y-85521313D01*
X75096823Y-85521313D01*
G37*
G36*
X72556823Y-85521313D02*
G01*
X72717242Y-85569976D01*
X72849906Y-85640886D01*
X72865078Y-85648996D01*
X72994659Y-85755341D01*
X73101004Y-85884922D01*
X73101005Y-85884924D01*
X73180024Y-86032758D01*
X73228687Y-86193177D01*
X73245117Y-86360000D01*
X73228687Y-86526823D01*
X73180024Y-86687242D01*
X73150735Y-86742037D01*
X73101004Y-86835078D01*
X72994659Y-86964659D01*
X72865078Y-87071004D01*
X72865076Y-87071005D01*
X72717242Y-87150024D01*
X72556823Y-87198687D01*
X72431804Y-87211000D01*
X72348196Y-87211000D01*
X72223177Y-87198687D01*
X72062758Y-87150024D01*
X71914924Y-87071005D01*
X71914922Y-87071004D01*
X71785341Y-86964659D01*
X71678996Y-86835078D01*
X71629265Y-86742037D01*
X71599976Y-86687242D01*
X71551313Y-86526823D01*
X71534883Y-86360000D01*
X71551313Y-86193177D01*
X71599976Y-86032758D01*
X71678995Y-85884924D01*
X71678996Y-85884922D01*
X71785341Y-85755341D01*
X71914922Y-85648996D01*
X71930094Y-85640886D01*
X72062758Y-85569976D01*
X72223177Y-85521313D01*
X72348196Y-85509000D01*
X72431804Y-85509000D01*
X72556823Y-85521313D01*
X72556823Y-85521313D01*
G37*
G36*
X67476823Y-85521313D02*
G01*
X67637242Y-85569976D01*
X67769906Y-85640886D01*
X67785078Y-85648996D01*
X67914659Y-85755341D01*
X68021004Y-85884922D01*
X68021005Y-85884924D01*
X68100024Y-86032758D01*
X68148687Y-86193177D01*
X68165117Y-86360000D01*
X68148687Y-86526823D01*
X68100024Y-86687242D01*
X68070735Y-86742037D01*
X68021004Y-86835078D01*
X67914659Y-86964659D01*
X67785078Y-87071004D01*
X67785076Y-87071005D01*
X67637242Y-87150024D01*
X67476823Y-87198687D01*
X67351804Y-87211000D01*
X67268196Y-87211000D01*
X67143177Y-87198687D01*
X66982758Y-87150024D01*
X66834924Y-87071005D01*
X66834922Y-87071004D01*
X66705341Y-86964659D01*
X66598996Y-86835078D01*
X66549265Y-86742037D01*
X66519976Y-86687242D01*
X66471313Y-86526823D01*
X66454883Y-86360000D01*
X66471313Y-86193177D01*
X66519976Y-86032758D01*
X66598995Y-85884924D01*
X66598996Y-85884922D01*
X66705341Y-85755341D01*
X66834922Y-85648996D01*
X66850094Y-85640886D01*
X66982758Y-85569976D01*
X67143177Y-85521313D01*
X67268196Y-85509000D01*
X67351804Y-85509000D01*
X67476823Y-85521313D01*
X67476823Y-85521313D01*
G37*
G36*
X62396823Y-85521313D02*
G01*
X62557242Y-85569976D01*
X62689906Y-85640886D01*
X62705078Y-85648996D01*
X62834659Y-85755341D01*
X62941004Y-85884922D01*
X62941005Y-85884924D01*
X63020024Y-86032758D01*
X63068687Y-86193177D01*
X63085117Y-86360000D01*
X63068687Y-86526823D01*
X63020024Y-86687242D01*
X62990735Y-86742037D01*
X62941004Y-86835078D01*
X62834659Y-86964659D01*
X62705078Y-87071004D01*
X62705076Y-87071005D01*
X62557242Y-87150024D01*
X62396823Y-87198687D01*
X62271804Y-87211000D01*
X62188196Y-87211000D01*
X62063177Y-87198687D01*
X61902758Y-87150024D01*
X61754924Y-87071005D01*
X61754922Y-87071004D01*
X61625341Y-86964659D01*
X61518996Y-86835078D01*
X61469265Y-86742037D01*
X61439976Y-86687242D01*
X61391313Y-86526823D01*
X61374883Y-86360000D01*
X61391313Y-86193177D01*
X61439976Y-86032758D01*
X61518995Y-85884924D01*
X61518996Y-85884922D01*
X61625341Y-85755341D01*
X61754922Y-85648996D01*
X61770094Y-85640886D01*
X61902758Y-85569976D01*
X62063177Y-85521313D01*
X62188196Y-85509000D01*
X62271804Y-85509000D01*
X62396823Y-85521313D01*
X62396823Y-85521313D01*
G37*
G36*
X59856823Y-85521313D02*
G01*
X60017242Y-85569976D01*
X60149906Y-85640886D01*
X60165078Y-85648996D01*
X60294659Y-85755341D01*
X60401004Y-85884922D01*
X60401005Y-85884924D01*
X60480024Y-86032758D01*
X60528687Y-86193177D01*
X60545117Y-86360000D01*
X60528687Y-86526823D01*
X60480024Y-86687242D01*
X60450735Y-86742037D01*
X60401004Y-86835078D01*
X60294659Y-86964659D01*
X60165078Y-87071004D01*
X60165076Y-87071005D01*
X60017242Y-87150024D01*
X59856823Y-87198687D01*
X59731804Y-87211000D01*
X59648196Y-87211000D01*
X59523177Y-87198687D01*
X59362758Y-87150024D01*
X59214924Y-87071005D01*
X59214922Y-87071004D01*
X59085341Y-86964659D01*
X58978996Y-86835078D01*
X58929265Y-86742037D01*
X58899976Y-86687242D01*
X58851313Y-86526823D01*
X58834883Y-86360000D01*
X58851313Y-86193177D01*
X58899976Y-86032758D01*
X58978995Y-85884924D01*
X58978996Y-85884922D01*
X59085341Y-85755341D01*
X59214922Y-85648996D01*
X59230094Y-85640886D01*
X59362758Y-85569976D01*
X59523177Y-85521313D01*
X59648196Y-85509000D01*
X59731804Y-85509000D01*
X59856823Y-85521313D01*
X59856823Y-85521313D01*
G37*
G36*
X57316823Y-85521313D02*
G01*
X57477242Y-85569976D01*
X57609906Y-85640886D01*
X57625078Y-85648996D01*
X57754659Y-85755341D01*
X57861004Y-85884922D01*
X57861005Y-85884924D01*
X57940024Y-86032758D01*
X57988687Y-86193177D01*
X58005117Y-86360000D01*
X57988687Y-86526823D01*
X57940024Y-86687242D01*
X57910735Y-86742037D01*
X57861004Y-86835078D01*
X57754659Y-86964659D01*
X57625078Y-87071004D01*
X57625076Y-87071005D01*
X57477242Y-87150024D01*
X57316823Y-87198687D01*
X57191804Y-87211000D01*
X57108196Y-87211000D01*
X56983177Y-87198687D01*
X56822758Y-87150024D01*
X56674924Y-87071005D01*
X56674922Y-87071004D01*
X56545341Y-86964659D01*
X56438996Y-86835078D01*
X56389265Y-86742037D01*
X56359976Y-86687242D01*
X56311313Y-86526823D01*
X56294883Y-86360000D01*
X56311313Y-86193177D01*
X56359976Y-86032758D01*
X56438995Y-85884924D01*
X56438996Y-85884922D01*
X56545341Y-85755341D01*
X56674922Y-85648996D01*
X56690094Y-85640886D01*
X56822758Y-85569976D01*
X56983177Y-85521313D01*
X57108196Y-85509000D01*
X57191804Y-85509000D01*
X57316823Y-85521313D01*
X57316823Y-85521313D01*
G37*
G36*
X54776823Y-85521313D02*
G01*
X54937242Y-85569976D01*
X55069906Y-85640886D01*
X55085078Y-85648996D01*
X55214659Y-85755341D01*
X55321004Y-85884922D01*
X55321005Y-85884924D01*
X55400024Y-86032758D01*
X55448687Y-86193177D01*
X55465117Y-86360000D01*
X55448687Y-86526823D01*
X55400024Y-86687242D01*
X55370735Y-86742037D01*
X55321004Y-86835078D01*
X55214659Y-86964659D01*
X55085078Y-87071004D01*
X55085076Y-87071005D01*
X54937242Y-87150024D01*
X54776823Y-87198687D01*
X54651804Y-87211000D01*
X54568196Y-87211000D01*
X54443177Y-87198687D01*
X54282758Y-87150024D01*
X54134924Y-87071005D01*
X54134922Y-87071004D01*
X54005341Y-86964659D01*
X53898996Y-86835078D01*
X53849265Y-86742037D01*
X53819976Y-86687242D01*
X53771313Y-86526823D01*
X53754883Y-86360000D01*
X53771313Y-86193177D01*
X53819976Y-86032758D01*
X53898995Y-85884924D01*
X53898996Y-85884922D01*
X54005341Y-85755341D01*
X54134922Y-85648996D01*
X54150094Y-85640886D01*
X54282758Y-85569976D01*
X54443177Y-85521313D01*
X54568196Y-85509000D01*
X54651804Y-85509000D01*
X54776823Y-85521313D01*
X54776823Y-85521313D01*
G37*
G36*
X52236823Y-85521313D02*
G01*
X52397242Y-85569976D01*
X52529906Y-85640886D01*
X52545078Y-85648996D01*
X52674659Y-85755341D01*
X52781004Y-85884922D01*
X52781005Y-85884924D01*
X52860024Y-86032758D01*
X52908687Y-86193177D01*
X52925117Y-86360000D01*
X52908687Y-86526823D01*
X52860024Y-86687242D01*
X52830735Y-86742037D01*
X52781004Y-86835078D01*
X52674659Y-86964659D01*
X52545078Y-87071004D01*
X52545076Y-87071005D01*
X52397242Y-87150024D01*
X52236823Y-87198687D01*
X52111804Y-87211000D01*
X52028196Y-87211000D01*
X51903177Y-87198687D01*
X51742758Y-87150024D01*
X51594924Y-87071005D01*
X51594922Y-87071004D01*
X51465341Y-86964659D01*
X51358996Y-86835078D01*
X51309265Y-86742037D01*
X51279976Y-86687242D01*
X51231313Y-86526823D01*
X51214883Y-86360000D01*
X51231313Y-86193177D01*
X51279976Y-86032758D01*
X51358995Y-85884924D01*
X51358996Y-85884922D01*
X51465341Y-85755341D01*
X51594922Y-85648996D01*
X51610094Y-85640886D01*
X51742758Y-85569976D01*
X51903177Y-85521313D01*
X52028196Y-85509000D01*
X52111804Y-85509000D01*
X52236823Y-85521313D01*
X52236823Y-85521313D01*
G37*
G36*
X85256823Y-85521313D02*
G01*
X85417242Y-85569976D01*
X85549906Y-85640886D01*
X85565078Y-85648996D01*
X85694659Y-85755341D01*
X85801004Y-85884922D01*
X85801005Y-85884924D01*
X85880024Y-86032758D01*
X85928687Y-86193177D01*
X85945117Y-86360000D01*
X85928687Y-86526823D01*
X85880024Y-86687242D01*
X85850735Y-86742037D01*
X85801004Y-86835078D01*
X85694659Y-86964659D01*
X85565078Y-87071004D01*
X85565076Y-87071005D01*
X85417242Y-87150024D01*
X85256823Y-87198687D01*
X85131804Y-87211000D01*
X85048196Y-87211000D01*
X84923177Y-87198687D01*
X84762758Y-87150024D01*
X84614924Y-87071005D01*
X84614922Y-87071004D01*
X84485341Y-86964659D01*
X84378996Y-86835078D01*
X84329265Y-86742037D01*
X84299976Y-86687242D01*
X84251313Y-86526823D01*
X84234883Y-86360000D01*
X84251313Y-86193177D01*
X84299976Y-86032758D01*
X84378995Y-85884924D01*
X84378996Y-85884922D01*
X84485341Y-85755341D01*
X84614922Y-85648996D01*
X84630094Y-85640886D01*
X84762758Y-85569976D01*
X84923177Y-85521313D01*
X85048196Y-85509000D01*
X85131804Y-85509000D01*
X85256823Y-85521313D01*
X85256823Y-85521313D01*
G37*
G36*
X82716823Y-85521313D02*
G01*
X82877242Y-85569976D01*
X83009906Y-85640886D01*
X83025078Y-85648996D01*
X83154659Y-85755341D01*
X83261004Y-85884922D01*
X83261005Y-85884924D01*
X83340024Y-86032758D01*
X83388687Y-86193177D01*
X83405117Y-86360000D01*
X83388687Y-86526823D01*
X83340024Y-86687242D01*
X83310735Y-86742037D01*
X83261004Y-86835078D01*
X83154659Y-86964659D01*
X83025078Y-87071004D01*
X83025076Y-87071005D01*
X82877242Y-87150024D01*
X82716823Y-87198687D01*
X82591804Y-87211000D01*
X82508196Y-87211000D01*
X82383177Y-87198687D01*
X82222758Y-87150024D01*
X82074924Y-87071005D01*
X82074922Y-87071004D01*
X81945341Y-86964659D01*
X81838996Y-86835078D01*
X81789265Y-86742037D01*
X81759976Y-86687242D01*
X81711313Y-86526823D01*
X81694883Y-86360000D01*
X81711313Y-86193177D01*
X81759976Y-86032758D01*
X81838995Y-85884924D01*
X81838996Y-85884922D01*
X81945341Y-85755341D01*
X82074922Y-85648996D01*
X82090094Y-85640886D01*
X82222758Y-85569976D01*
X82383177Y-85521313D01*
X82508196Y-85509000D01*
X82591804Y-85509000D01*
X82716823Y-85521313D01*
X82716823Y-85521313D01*
G37*
G36*
X64936823Y-85521313D02*
G01*
X65097242Y-85569976D01*
X65229906Y-85640886D01*
X65245078Y-85648996D01*
X65374659Y-85755341D01*
X65481004Y-85884922D01*
X65481005Y-85884924D01*
X65560024Y-86032758D01*
X65608687Y-86193177D01*
X65625117Y-86360000D01*
X65608687Y-86526823D01*
X65560024Y-86687242D01*
X65530735Y-86742037D01*
X65481004Y-86835078D01*
X65374659Y-86964659D01*
X65245078Y-87071004D01*
X65245076Y-87071005D01*
X65097242Y-87150024D01*
X64936823Y-87198687D01*
X64811804Y-87211000D01*
X64728196Y-87211000D01*
X64603177Y-87198687D01*
X64442758Y-87150024D01*
X64294924Y-87071005D01*
X64294922Y-87071004D01*
X64165341Y-86964659D01*
X64058996Y-86835078D01*
X64009265Y-86742037D01*
X63979976Y-86687242D01*
X63931313Y-86526823D01*
X63914883Y-86360000D01*
X63931313Y-86193177D01*
X63979976Y-86032758D01*
X64058995Y-85884924D01*
X64058996Y-85884922D01*
X64165341Y-85755341D01*
X64294922Y-85648996D01*
X64310094Y-85640886D01*
X64442758Y-85569976D01*
X64603177Y-85521313D01*
X64728196Y-85509000D01*
X64811804Y-85509000D01*
X64936823Y-85521313D01*
X64936823Y-85521313D01*
G37*
G36*
X129777142Y-82403242D02*
G01*
X129925101Y-82464529D01*
X130058255Y-82553499D01*
X130171501Y-82666745D01*
X130260471Y-82799899D01*
X130321758Y-82947858D01*
X130353000Y-83104925D01*
X130353000Y-83265075D01*
X130321758Y-83422142D01*
X130260471Y-83570101D01*
X130171501Y-83703255D01*
X130058255Y-83816501D01*
X129925101Y-83905471D01*
X129777142Y-83966758D01*
X129620075Y-83998000D01*
X129459925Y-83998000D01*
X129302858Y-83966758D01*
X129154899Y-83905471D01*
X129021745Y-83816501D01*
X128908499Y-83703255D01*
X128819529Y-83570101D01*
X128758242Y-83422142D01*
X128727000Y-83265075D01*
X128727000Y-83104925D01*
X128758242Y-82947858D01*
X128819529Y-82799899D01*
X128908499Y-82666745D01*
X129021745Y-82553499D01*
X129154899Y-82464529D01*
X129302858Y-82403242D01*
X129459925Y-82372000D01*
X129620075Y-82372000D01*
X129777142Y-82403242D01*
X129777142Y-82403242D01*
G37*
G36*
X124697142Y-82403242D02*
G01*
X124845101Y-82464529D01*
X124978255Y-82553499D01*
X125091501Y-82666745D01*
X125180471Y-82799899D01*
X125241758Y-82947858D01*
X125273000Y-83104925D01*
X125273000Y-83265075D01*
X125241758Y-83422142D01*
X125180471Y-83570101D01*
X125091501Y-83703255D01*
X124978255Y-83816501D01*
X124845101Y-83905471D01*
X124697142Y-83966758D01*
X124540075Y-83998000D01*
X124379925Y-83998000D01*
X124222858Y-83966758D01*
X124074899Y-83905471D01*
X123941745Y-83816501D01*
X123828499Y-83703255D01*
X123739529Y-83570101D01*
X123678242Y-83422142D01*
X123647000Y-83265075D01*
X123647000Y-83104925D01*
X123678242Y-82947858D01*
X123739529Y-82799899D01*
X123828499Y-82666745D01*
X123941745Y-82553499D01*
X124074899Y-82464529D01*
X124222858Y-82403242D01*
X124379925Y-82372000D01*
X124540075Y-82372000D01*
X124697142Y-82403242D01*
X124697142Y-82403242D01*
G37*
G36*
X122733000Y-83998000D02*
G01*
X121107000Y-83998000D01*
X121107000Y-82372000D01*
X122733000Y-82372000D01*
X122733000Y-83998000D01*
X122733000Y-83998000D01*
G37*
G36*
X119617142Y-82403242D02*
G01*
X119765101Y-82464529D01*
X119898255Y-82553499D01*
X120011501Y-82666745D01*
X120100471Y-82799899D01*
X120161758Y-82947858D01*
X120193000Y-83104925D01*
X120193000Y-83265075D01*
X120161758Y-83422142D01*
X120100471Y-83570101D01*
X120011501Y-83703255D01*
X119898255Y-83816501D01*
X119765101Y-83905471D01*
X119617142Y-83966758D01*
X119460075Y-83998000D01*
X119299925Y-83998000D01*
X119142858Y-83966758D01*
X118994899Y-83905471D01*
X118861745Y-83816501D01*
X118748499Y-83703255D01*
X118659529Y-83570101D01*
X118598242Y-83422142D01*
X118567000Y-83265075D01*
X118567000Y-83104925D01*
X118598242Y-82947858D01*
X118659529Y-82799899D01*
X118748499Y-82666745D01*
X118861745Y-82553499D01*
X118994899Y-82464529D01*
X119142858Y-82403242D01*
X119299925Y-82372000D01*
X119460075Y-82372000D01*
X119617142Y-82403242D01*
X119617142Y-82403242D01*
G37*
G36*
X127237142Y-82403242D02*
G01*
X127385101Y-82464529D01*
X127518255Y-82553499D01*
X127631501Y-82666745D01*
X127720471Y-82799899D01*
X127781758Y-82947858D01*
X127813000Y-83104925D01*
X127813000Y-83265075D01*
X127781758Y-83422142D01*
X127720471Y-83570101D01*
X127631501Y-83703255D01*
X127518255Y-83816501D01*
X127385101Y-83905471D01*
X127237142Y-83966758D01*
X127080075Y-83998000D01*
X126919925Y-83998000D01*
X126762858Y-83966758D01*
X126614899Y-83905471D01*
X126481745Y-83816501D01*
X126368499Y-83703255D01*
X126279529Y-83570101D01*
X126218242Y-83422142D01*
X126187000Y-83265075D01*
X126187000Y-83104925D01*
X126218242Y-82947858D01*
X126279529Y-82799899D01*
X126368499Y-82666745D01*
X126481745Y-82553499D01*
X126614899Y-82464529D01*
X126762858Y-82403242D01*
X126919925Y-82372000D01*
X127080075Y-82372000D01*
X127237142Y-82403242D01*
X127237142Y-82403242D01*
G37*
G36*
X89951000Y-80426000D02*
G01*
X87849000Y-80426000D01*
X87849000Y-78324000D01*
X89951000Y-78324000D01*
X89951000Y-80426000D01*
X89951000Y-80426000D01*
G37*
G36*
X84206564Y-78364389D02*
G01*
X84397833Y-78443615D01*
X84397835Y-78443616D01*
X84569973Y-78558635D01*
X84716365Y-78705027D01*
X84817740Y-78856745D01*
X84831385Y-78877167D01*
X84910611Y-79068436D01*
X84951000Y-79271484D01*
X84951000Y-79478516D01*
X84910611Y-79681564D01*
X84878080Y-79760100D01*
X84831384Y-79872835D01*
X84716365Y-80044973D01*
X84569973Y-80191365D01*
X84397835Y-80306384D01*
X84397834Y-80306385D01*
X84397833Y-80306385D01*
X84206564Y-80385611D01*
X84003516Y-80426000D01*
X83796484Y-80426000D01*
X83593436Y-80385611D01*
X83402167Y-80306385D01*
X83402166Y-80306385D01*
X83402165Y-80306384D01*
X83230027Y-80191365D01*
X83083635Y-80044973D01*
X82968616Y-79872835D01*
X82921920Y-79760100D01*
X82889389Y-79681564D01*
X82849000Y-79478516D01*
X82849000Y-79271484D01*
X82889389Y-79068436D01*
X82968615Y-78877167D01*
X82982261Y-78856745D01*
X83083635Y-78705027D01*
X83230027Y-78558635D01*
X83402165Y-78443616D01*
X83402167Y-78443615D01*
X83593436Y-78364389D01*
X83796484Y-78324000D01*
X84003516Y-78324000D01*
X84206564Y-78364389D01*
X84206564Y-78364389D01*
G37*
G36*
X98662142Y-78593242D02*
G01*
X98810101Y-78654529D01*
X98943255Y-78743499D01*
X99056501Y-78856745D01*
X99145471Y-78989899D01*
X99206758Y-79137858D01*
X99238000Y-79294925D01*
X99238000Y-79455075D01*
X99206758Y-79612142D01*
X99145471Y-79760101D01*
X99056501Y-79893255D01*
X98943255Y-80006501D01*
X98810101Y-80095471D01*
X98662142Y-80156758D01*
X98505075Y-80188000D01*
X98344925Y-80188000D01*
X98187858Y-80156758D01*
X98039899Y-80095471D01*
X97906745Y-80006501D01*
X97793499Y-79893255D01*
X97704529Y-79760101D01*
X97643242Y-79612142D01*
X97612000Y-79455075D01*
X97612000Y-79294925D01*
X97643242Y-79137858D01*
X97704529Y-78989899D01*
X97793499Y-78856745D01*
X97906745Y-78743499D01*
X98039899Y-78654529D01*
X98187858Y-78593242D01*
X98344925Y-78562000D01*
X98505075Y-78562000D01*
X98662142Y-78593242D01*
X98662142Y-78593242D01*
G37*
G36*
X122157142Y-78593242D02*
G01*
X122305101Y-78654529D01*
X122438255Y-78743499D01*
X122551501Y-78856745D01*
X122640471Y-78989899D01*
X122701758Y-79137858D01*
X122733000Y-79294925D01*
X122733000Y-79455075D01*
X122701758Y-79612142D01*
X122640471Y-79760101D01*
X122551501Y-79893255D01*
X122438255Y-80006501D01*
X122305101Y-80095471D01*
X122157142Y-80156758D01*
X122000075Y-80188000D01*
X121839925Y-80188000D01*
X121682858Y-80156758D01*
X121534899Y-80095471D01*
X121401745Y-80006501D01*
X121288499Y-79893255D01*
X121199529Y-79760101D01*
X121138242Y-79612142D01*
X121107000Y-79455075D01*
X121107000Y-79294925D01*
X121138242Y-79137858D01*
X121199529Y-78989899D01*
X121288499Y-78856745D01*
X121401745Y-78743499D01*
X121534899Y-78654529D01*
X121682858Y-78593242D01*
X121839925Y-78562000D01*
X122000075Y-78562000D01*
X122157142Y-78593242D01*
X122157142Y-78593242D01*
G37*
G36*
X124697142Y-78593242D02*
G01*
X124845101Y-78654529D01*
X124978255Y-78743499D01*
X125091501Y-78856745D01*
X125180471Y-78989899D01*
X125241758Y-79137858D01*
X125273000Y-79294925D01*
X125273000Y-79455075D01*
X125241758Y-79612142D01*
X125180471Y-79760101D01*
X125091501Y-79893255D01*
X124978255Y-80006501D01*
X124845101Y-80095471D01*
X124697142Y-80156758D01*
X124540075Y-80188000D01*
X124379925Y-80188000D01*
X124222858Y-80156758D01*
X124074899Y-80095471D01*
X123941745Y-80006501D01*
X123828499Y-79893255D01*
X123739529Y-79760101D01*
X123678242Y-79612142D01*
X123647000Y-79455075D01*
X123647000Y-79294925D01*
X123678242Y-79137858D01*
X123739529Y-78989899D01*
X123828499Y-78856745D01*
X123941745Y-78743499D01*
X124074899Y-78654529D01*
X124222858Y-78593242D01*
X124379925Y-78562000D01*
X124540075Y-78562000D01*
X124697142Y-78593242D01*
X124697142Y-78593242D01*
G37*
G36*
X127813000Y-80188000D02*
G01*
X126187000Y-80188000D01*
X126187000Y-78562000D01*
X127813000Y-78562000D01*
X127813000Y-80188000D01*
X127813000Y-80188000D01*
G37*
G36*
X119617142Y-78593242D02*
G01*
X119765101Y-78654529D01*
X119898255Y-78743499D01*
X120011501Y-78856745D01*
X120100471Y-78989899D01*
X120161758Y-79137858D01*
X120193000Y-79294925D01*
X120193000Y-79455075D01*
X120161758Y-79612142D01*
X120100471Y-79760101D01*
X120011501Y-79893255D01*
X119898255Y-80006501D01*
X119765101Y-80095471D01*
X119617142Y-80156758D01*
X119460075Y-80188000D01*
X119299925Y-80188000D01*
X119142858Y-80156758D01*
X118994899Y-80095471D01*
X118861745Y-80006501D01*
X118748499Y-79893255D01*
X118659529Y-79760101D01*
X118598242Y-79612142D01*
X118567000Y-79455075D01*
X118567000Y-79294925D01*
X118598242Y-79137858D01*
X118659529Y-78989899D01*
X118748499Y-78856745D01*
X118861745Y-78743499D01*
X118994899Y-78654529D01*
X119142858Y-78593242D01*
X119299925Y-78562000D01*
X119460075Y-78562000D01*
X119617142Y-78593242D01*
X119617142Y-78593242D01*
G37*
G36*
X117077142Y-78593242D02*
G01*
X117225101Y-78654529D01*
X117358255Y-78743499D01*
X117471501Y-78856745D01*
X117560471Y-78989899D01*
X117621758Y-79137858D01*
X117653000Y-79294925D01*
X117653000Y-79455075D01*
X117621758Y-79612142D01*
X117560471Y-79760101D01*
X117471501Y-79893255D01*
X117358255Y-80006501D01*
X117225101Y-80095471D01*
X117077142Y-80156758D01*
X116920075Y-80188000D01*
X116759925Y-80188000D01*
X116602858Y-80156758D01*
X116454899Y-80095471D01*
X116321745Y-80006501D01*
X116208499Y-79893255D01*
X116119529Y-79760101D01*
X116058242Y-79612142D01*
X116027000Y-79455075D01*
X116027000Y-79294925D01*
X116058242Y-79137858D01*
X116119529Y-78989899D01*
X116208499Y-78856745D01*
X116321745Y-78743499D01*
X116454899Y-78654529D01*
X116602858Y-78593242D01*
X116759925Y-78562000D01*
X116920075Y-78562000D01*
X117077142Y-78593242D01*
X117077142Y-78593242D01*
G37*
G36*
X114537142Y-78593242D02*
G01*
X114685101Y-78654529D01*
X114818255Y-78743499D01*
X114931501Y-78856745D01*
X115020471Y-78989899D01*
X115081758Y-79137858D01*
X115113000Y-79294925D01*
X115113000Y-79455075D01*
X115081758Y-79612142D01*
X115020471Y-79760101D01*
X114931501Y-79893255D01*
X114818255Y-80006501D01*
X114685101Y-80095471D01*
X114537142Y-80156758D01*
X114380075Y-80188000D01*
X114219925Y-80188000D01*
X114062858Y-80156758D01*
X113914899Y-80095471D01*
X113781745Y-80006501D01*
X113668499Y-79893255D01*
X113579529Y-79760101D01*
X113518242Y-79612142D01*
X113487000Y-79455075D01*
X113487000Y-79294925D01*
X113518242Y-79137858D01*
X113579529Y-78989899D01*
X113668499Y-78856745D01*
X113781745Y-78743499D01*
X113914899Y-78654529D01*
X114062858Y-78593242D01*
X114219925Y-78562000D01*
X114380075Y-78562000D01*
X114537142Y-78593242D01*
X114537142Y-78593242D01*
G37*
G36*
X103742142Y-78593242D02*
G01*
X103890101Y-78654529D01*
X104023255Y-78743499D01*
X104136501Y-78856745D01*
X104225471Y-78989899D01*
X104286758Y-79137858D01*
X104318000Y-79294925D01*
X104318000Y-79455075D01*
X104286758Y-79612142D01*
X104225471Y-79760101D01*
X104136501Y-79893255D01*
X104023255Y-80006501D01*
X103890101Y-80095471D01*
X103742142Y-80156758D01*
X103585075Y-80188000D01*
X103424925Y-80188000D01*
X103267858Y-80156758D01*
X103119899Y-80095471D01*
X102986745Y-80006501D01*
X102873499Y-79893255D01*
X102784529Y-79760101D01*
X102723242Y-79612142D01*
X102692000Y-79455075D01*
X102692000Y-79294925D01*
X102723242Y-79137858D01*
X102784529Y-78989899D01*
X102873499Y-78856745D01*
X102986745Y-78743499D01*
X103119899Y-78654529D01*
X103267858Y-78593242D01*
X103424925Y-78562000D01*
X103585075Y-78562000D01*
X103742142Y-78593242D01*
X103742142Y-78593242D01*
G37*
G36*
X101202142Y-78593242D02*
G01*
X101350101Y-78654529D01*
X101483255Y-78743499D01*
X101596501Y-78856745D01*
X101685471Y-78989899D01*
X101746758Y-79137858D01*
X101778000Y-79294925D01*
X101778000Y-79455075D01*
X101746758Y-79612142D01*
X101685471Y-79760101D01*
X101596501Y-79893255D01*
X101483255Y-80006501D01*
X101350101Y-80095471D01*
X101202142Y-80156758D01*
X101045075Y-80188000D01*
X100884925Y-80188000D01*
X100727858Y-80156758D01*
X100579899Y-80095471D01*
X100446745Y-80006501D01*
X100333499Y-79893255D01*
X100244529Y-79760101D01*
X100183242Y-79612142D01*
X100152000Y-79455075D01*
X100152000Y-79294925D01*
X100183242Y-79137858D01*
X100244529Y-78989899D01*
X100333499Y-78856745D01*
X100446745Y-78743499D01*
X100579899Y-78654529D01*
X100727858Y-78593242D01*
X100884925Y-78562000D01*
X101045075Y-78562000D01*
X101202142Y-78593242D01*
X101202142Y-78593242D01*
G37*
G36*
X96122142Y-78593242D02*
G01*
X96270101Y-78654529D01*
X96403255Y-78743499D01*
X96516501Y-78856745D01*
X96605471Y-78989899D01*
X96666758Y-79137858D01*
X96698000Y-79294925D01*
X96698000Y-79455075D01*
X96666758Y-79612142D01*
X96605471Y-79760101D01*
X96516501Y-79893255D01*
X96403255Y-80006501D01*
X96270101Y-80095471D01*
X96122142Y-80156758D01*
X95965075Y-80188000D01*
X95804925Y-80188000D01*
X95647858Y-80156758D01*
X95499899Y-80095471D01*
X95366745Y-80006501D01*
X95253499Y-79893255D01*
X95164529Y-79760101D01*
X95103242Y-79612142D01*
X95072000Y-79455075D01*
X95072000Y-79294925D01*
X95103242Y-79137858D01*
X95164529Y-78989899D01*
X95253499Y-78856745D01*
X95366745Y-78743499D01*
X95499899Y-78654529D01*
X95647858Y-78593242D01*
X95804925Y-78562000D01*
X95965075Y-78562000D01*
X96122142Y-78593242D01*
X96122142Y-78593242D01*
G37*
G36*
X94158000Y-80188000D02*
G01*
X92532000Y-80188000D01*
X92532000Y-78562000D01*
X94158000Y-78562000D01*
X94158000Y-80188000D01*
X94158000Y-80188000D01*
G37*
G36*
X77013000Y-80188000D02*
G01*
X75387000Y-80188000D01*
X75387000Y-78562000D01*
X77013000Y-78562000D01*
X77013000Y-80188000D01*
X77013000Y-80188000D01*
G37*
G36*
X73897142Y-78593242D02*
G01*
X74045101Y-78654529D01*
X74178255Y-78743499D01*
X74291501Y-78856745D01*
X74380471Y-78989899D01*
X74441758Y-79137858D01*
X74473000Y-79294925D01*
X74473000Y-79455075D01*
X74441758Y-79612142D01*
X74380471Y-79760101D01*
X74291501Y-79893255D01*
X74178255Y-80006501D01*
X74045101Y-80095471D01*
X73897142Y-80156758D01*
X73740075Y-80188000D01*
X73579925Y-80188000D01*
X73422858Y-80156758D01*
X73274899Y-80095471D01*
X73141745Y-80006501D01*
X73028499Y-79893255D01*
X72939529Y-79760101D01*
X72878242Y-79612142D01*
X72847000Y-79455075D01*
X72847000Y-79294925D01*
X72878242Y-79137858D01*
X72939529Y-78989899D01*
X73028499Y-78856745D01*
X73141745Y-78743499D01*
X73274899Y-78654529D01*
X73422858Y-78593242D01*
X73579925Y-78562000D01*
X73740075Y-78562000D01*
X73897142Y-78593242D01*
X73897142Y-78593242D01*
G37*
G36*
X71357142Y-78593242D02*
G01*
X71505101Y-78654529D01*
X71638255Y-78743499D01*
X71751501Y-78856745D01*
X71840471Y-78989899D01*
X71901758Y-79137858D01*
X71933000Y-79294925D01*
X71933000Y-79455075D01*
X71901758Y-79612142D01*
X71840471Y-79760101D01*
X71751501Y-79893255D01*
X71638255Y-80006501D01*
X71505101Y-80095471D01*
X71357142Y-80156758D01*
X71200075Y-80188000D01*
X71039925Y-80188000D01*
X70882858Y-80156758D01*
X70734899Y-80095471D01*
X70601745Y-80006501D01*
X70488499Y-79893255D01*
X70399529Y-79760101D01*
X70338242Y-79612142D01*
X70307000Y-79455075D01*
X70307000Y-79294925D01*
X70338242Y-79137858D01*
X70399529Y-78989899D01*
X70488499Y-78856745D01*
X70601745Y-78743499D01*
X70734899Y-78654529D01*
X70882858Y-78593242D01*
X71039925Y-78562000D01*
X71200075Y-78562000D01*
X71357142Y-78593242D01*
X71357142Y-78593242D01*
G37*
G36*
X68817142Y-78593242D02*
G01*
X68965101Y-78654529D01*
X69098255Y-78743499D01*
X69211501Y-78856745D01*
X69300471Y-78989899D01*
X69361758Y-79137858D01*
X69393000Y-79294925D01*
X69393000Y-79455075D01*
X69361758Y-79612142D01*
X69300471Y-79760101D01*
X69211501Y-79893255D01*
X69098255Y-80006501D01*
X68965101Y-80095471D01*
X68817142Y-80156758D01*
X68660075Y-80188000D01*
X68499925Y-80188000D01*
X68342858Y-80156758D01*
X68194899Y-80095471D01*
X68061745Y-80006501D01*
X67948499Y-79893255D01*
X67859529Y-79760101D01*
X67798242Y-79612142D01*
X67767000Y-79455075D01*
X67767000Y-79294925D01*
X67798242Y-79137858D01*
X67859529Y-78989899D01*
X67948499Y-78856745D01*
X68061745Y-78743499D01*
X68194899Y-78654529D01*
X68342858Y-78593242D01*
X68499925Y-78562000D01*
X68660075Y-78562000D01*
X68817142Y-78593242D01*
X68817142Y-78593242D01*
G37*
G36*
X66277142Y-78593242D02*
G01*
X66425101Y-78654529D01*
X66558255Y-78743499D01*
X66671501Y-78856745D01*
X66760471Y-78989899D01*
X66821758Y-79137858D01*
X66853000Y-79294925D01*
X66853000Y-79455075D01*
X66821758Y-79612142D01*
X66760471Y-79760101D01*
X66671501Y-79893255D01*
X66558255Y-80006501D01*
X66425101Y-80095471D01*
X66277142Y-80156758D01*
X66120075Y-80188000D01*
X65959925Y-80188000D01*
X65802858Y-80156758D01*
X65654899Y-80095471D01*
X65521745Y-80006501D01*
X65408499Y-79893255D01*
X65319529Y-79760101D01*
X65258242Y-79612142D01*
X65227000Y-79455075D01*
X65227000Y-79294925D01*
X65258242Y-79137858D01*
X65319529Y-78989899D01*
X65408499Y-78856745D01*
X65521745Y-78743499D01*
X65654899Y-78654529D01*
X65802858Y-78593242D01*
X65959925Y-78562000D01*
X66120075Y-78562000D01*
X66277142Y-78593242D01*
X66277142Y-78593242D01*
G37*
G36*
X106282142Y-78593242D02*
G01*
X106430101Y-78654529D01*
X106563255Y-78743499D01*
X106676501Y-78856745D01*
X106765471Y-78989899D01*
X106826758Y-79137858D01*
X106858000Y-79294925D01*
X106858000Y-79455075D01*
X106826758Y-79612142D01*
X106765471Y-79760101D01*
X106676501Y-79893255D01*
X106563255Y-80006501D01*
X106430101Y-80095471D01*
X106282142Y-80156758D01*
X106125075Y-80188000D01*
X105964925Y-80188000D01*
X105807858Y-80156758D01*
X105659899Y-80095471D01*
X105526745Y-80006501D01*
X105413499Y-79893255D01*
X105324529Y-79760101D01*
X105263242Y-79612142D01*
X105232000Y-79455075D01*
X105232000Y-79294925D01*
X105263242Y-79137858D01*
X105324529Y-78989899D01*
X105413499Y-78856745D01*
X105526745Y-78743499D01*
X105659899Y-78654529D01*
X105807858Y-78593242D01*
X105964925Y-78562000D01*
X106125075Y-78562000D01*
X106282142Y-78593242D01*
X106282142Y-78593242D01*
G37*
G36*
X108822142Y-78593242D02*
G01*
X108970101Y-78654529D01*
X109103255Y-78743499D01*
X109216501Y-78856745D01*
X109305471Y-78989899D01*
X109366758Y-79137858D01*
X109398000Y-79294925D01*
X109398000Y-79455075D01*
X109366758Y-79612142D01*
X109305471Y-79760101D01*
X109216501Y-79893255D01*
X109103255Y-80006501D01*
X108970101Y-80095471D01*
X108822142Y-80156758D01*
X108665075Y-80188000D01*
X108504925Y-80188000D01*
X108347858Y-80156758D01*
X108199899Y-80095471D01*
X108066745Y-80006501D01*
X107953499Y-79893255D01*
X107864529Y-79760101D01*
X107803242Y-79612142D01*
X107772000Y-79455075D01*
X107772000Y-79294925D01*
X107803242Y-79137858D01*
X107864529Y-78989899D01*
X107953499Y-78856745D01*
X108066745Y-78743499D01*
X108199899Y-78654529D01*
X108347858Y-78593242D01*
X108504925Y-78562000D01*
X108665075Y-78562000D01*
X108822142Y-78593242D01*
X108822142Y-78593242D01*
G37*
G36*
X111362142Y-78593242D02*
G01*
X111510101Y-78654529D01*
X111643255Y-78743499D01*
X111756501Y-78856745D01*
X111845471Y-78989899D01*
X111906758Y-79137858D01*
X111938000Y-79294925D01*
X111938000Y-79455075D01*
X111906758Y-79612142D01*
X111845471Y-79760101D01*
X111756501Y-79893255D01*
X111643255Y-80006501D01*
X111510101Y-80095471D01*
X111362142Y-80156758D01*
X111205075Y-80188000D01*
X111044925Y-80188000D01*
X110887858Y-80156758D01*
X110739899Y-80095471D01*
X110606745Y-80006501D01*
X110493499Y-79893255D01*
X110404529Y-79760101D01*
X110343242Y-79612142D01*
X110312000Y-79455075D01*
X110312000Y-79294925D01*
X110343242Y-79137858D01*
X110404529Y-78989899D01*
X110493499Y-78856745D01*
X110606745Y-78743499D01*
X110739899Y-78654529D01*
X110887858Y-78593242D01*
X111044925Y-78562000D01*
X111205075Y-78562000D01*
X111362142Y-78593242D01*
X111362142Y-78593242D01*
G37*
G36*
X63737142Y-78593242D02*
G01*
X63885101Y-78654529D01*
X64018255Y-78743499D01*
X64131501Y-78856745D01*
X64220471Y-78989899D01*
X64281758Y-79137858D01*
X64313000Y-79294925D01*
X64313000Y-79455075D01*
X64281758Y-79612142D01*
X64220471Y-79760101D01*
X64131501Y-79893255D01*
X64018255Y-80006501D01*
X63885101Y-80095471D01*
X63737142Y-80156758D01*
X63580075Y-80188000D01*
X63419925Y-80188000D01*
X63262858Y-80156758D01*
X63114899Y-80095471D01*
X62981745Y-80006501D01*
X62868499Y-79893255D01*
X62779529Y-79760101D01*
X62718242Y-79612142D01*
X62687000Y-79455075D01*
X62687000Y-79294925D01*
X62718242Y-79137858D01*
X62779529Y-78989899D01*
X62868499Y-78856745D01*
X62981745Y-78743499D01*
X63114899Y-78654529D01*
X63262858Y-78593242D01*
X63419925Y-78562000D01*
X63580075Y-78562000D01*
X63737142Y-78593242D01*
X63737142Y-78593242D01*
G37*
G36*
X172342714Y-47599382D02*
G01*
X172470322Y-47624765D01*
X172611148Y-47683097D01*
X172710727Y-47724344D01*
X172710728Y-47724345D01*
X172927089Y-47868912D01*
X173111088Y-48052911D01*
X173207685Y-48197479D01*
X173255656Y-48269273D01*
X173296903Y-48368852D01*
X173355235Y-48509678D01*
X173406000Y-48764893D01*
X173406000Y-49025107D01*
X173355235Y-49280322D01*
X173296903Y-49421148D01*
X173255656Y-49520727D01*
X173255655Y-49520728D01*
X173111088Y-49737089D01*
X172927089Y-49921088D01*
X172782521Y-50017685D01*
X172710727Y-50065656D01*
X172611148Y-50106903D01*
X172470322Y-50165235D01*
X172342714Y-50190618D01*
X172215109Y-50216000D01*
X171954891Y-50216000D01*
X171827285Y-50190617D01*
X171699678Y-50165235D01*
X171558852Y-50106903D01*
X171459273Y-50065656D01*
X171387479Y-50017685D01*
X171242911Y-49921088D01*
X171058912Y-49737089D01*
X170914345Y-49520728D01*
X170914344Y-49520727D01*
X170873097Y-49421148D01*
X170814765Y-49280322D01*
X170764000Y-49025107D01*
X170764000Y-48764893D01*
X170814765Y-48509678D01*
X170873097Y-48368852D01*
X170914344Y-48269273D01*
X170962315Y-48197479D01*
X171058912Y-48052911D01*
X171242911Y-47868912D01*
X171459272Y-47724345D01*
X171459273Y-47724344D01*
X171558852Y-47683097D01*
X171699678Y-47624765D01*
X171827286Y-47599382D01*
X171954891Y-47574000D01*
X172215109Y-47574000D01*
X172342714Y-47599382D01*
X172342714Y-47599382D01*
G37*
G36*
X192027714Y-47599382D02*
G01*
X192155322Y-47624765D01*
X192296148Y-47683097D01*
X192395727Y-47724344D01*
X192395728Y-47724345D01*
X192612089Y-47868912D01*
X192796088Y-48052911D01*
X192892685Y-48197479D01*
X192940656Y-48269273D01*
X192981903Y-48368852D01*
X193040235Y-48509678D01*
X193091000Y-48764893D01*
X193091000Y-49025107D01*
X193040235Y-49280322D01*
X192981903Y-49421148D01*
X192940656Y-49520727D01*
X192940655Y-49520728D01*
X192796088Y-49737089D01*
X192612089Y-49921088D01*
X192467521Y-50017685D01*
X192395727Y-50065656D01*
X192296148Y-50106903D01*
X192155322Y-50165235D01*
X192027714Y-50190618D01*
X191900109Y-50216000D01*
X191639891Y-50216000D01*
X191512285Y-50190617D01*
X191384678Y-50165235D01*
X191243852Y-50106903D01*
X191144273Y-50065656D01*
X191072479Y-50017685D01*
X190927911Y-49921088D01*
X190743912Y-49737089D01*
X190599345Y-49520728D01*
X190599344Y-49520727D01*
X190558097Y-49421148D01*
X190499765Y-49280322D01*
X190449000Y-49025107D01*
X190449000Y-48764893D01*
X190499765Y-48509678D01*
X190558097Y-48368852D01*
X190599344Y-48269273D01*
X190647315Y-48197479D01*
X190743912Y-48052911D01*
X190927911Y-47868912D01*
X191144272Y-47724345D01*
X191144273Y-47724344D01*
X191243852Y-47683097D01*
X191384678Y-47624765D01*
X191512286Y-47599382D01*
X191639891Y-47574000D01*
X191900109Y-47574000D01*
X192027714Y-47599382D01*
X192027714Y-47599382D01*
G37*
G36*
X211712714Y-47599382D02*
G01*
X211840322Y-47624765D01*
X211981148Y-47683097D01*
X212080727Y-47724344D01*
X212080728Y-47724345D01*
X212297089Y-47868912D01*
X212481088Y-48052911D01*
X212577685Y-48197479D01*
X212625656Y-48269273D01*
X212666903Y-48368852D01*
X212725235Y-48509678D01*
X212776000Y-48764893D01*
X212776000Y-49025107D01*
X212725235Y-49280322D01*
X212666903Y-49421148D01*
X212625656Y-49520727D01*
X212625655Y-49520728D01*
X212481088Y-49737089D01*
X212297089Y-49921088D01*
X212152521Y-50017685D01*
X212080727Y-50065656D01*
X211981148Y-50106903D01*
X211840322Y-50165235D01*
X211712714Y-50190618D01*
X211585109Y-50216000D01*
X211324891Y-50216000D01*
X211197285Y-50190617D01*
X211069678Y-50165235D01*
X210928852Y-50106903D01*
X210829273Y-50065656D01*
X210757479Y-50017685D01*
X210612911Y-49921088D01*
X210428912Y-49737089D01*
X210284345Y-49520728D01*
X210284344Y-49520727D01*
X210243097Y-49421148D01*
X210184765Y-49280322D01*
X210134000Y-49025107D01*
X210134000Y-48764893D01*
X210184765Y-48509678D01*
X210243097Y-48368852D01*
X210284344Y-48269273D01*
X210332315Y-48197479D01*
X210428912Y-48052911D01*
X210612911Y-47868912D01*
X210829272Y-47724345D01*
X210829273Y-47724344D01*
X210928852Y-47683097D01*
X211069678Y-47624765D01*
X211197286Y-47599382D01*
X211324891Y-47574000D01*
X211585109Y-47574000D01*
X211712714Y-47599382D01*
X211712714Y-47599382D01*
G37*
M02*
