  0
SECTION
  2
HEADER
  9
$EXTMIN
 10
-0.127000
 20
-0.139000
  9
$EXTMAX
 10
0.505000
 20
0.805000
  9
$LIMMIN
 10
-0.127000
 20
-0.139000
  9
$LIMMAX
 10
0.505000
 20
0.805000
  9
$FILLMODE
 70
  1
  0
ENDSEC
  0
SECTION
  2
TABLES
  0
TABLE
  2
LTYPE
 70
  1
  0
LTYPE
  2
CONTINUOUS
 70
 64
  3
Solid line
 72
 65
 73
  0
 40
0.0
  0
ENDTAB
  0
TABLE
  2
LAYER
 70
 1
  0
LAYER
  2
0
 70
  0
 62
7
  6
CONTINUOUS
  0
LAYER
  2
gg1
 70
  0
 62
1
  6
CONTINUOUS
  0
ENDTAB
  0
TABLE
  2
STYLE
 70
  1
  0
STYLE
  2
STANDARD
 70
  0
 40
0.0
 41
1.0
 50
0.0
 71
  0
 42
0.2
  3
txt
  4

  0
ENDTAB
  0
ENDSEC
  0
SECTION
  2
BLOCKS
  0
BLOCK
  8
0
  2
D10
 70
64
 10
0.0
 20
0.0
  3
D10
  0
CIRCLE
  8
0
 10
0.000000
 20
0.000000
 40
0.005000
 0
ENDBLK
  8
0
  0
BLOCK
  8
0
  2
D11
 70
64
 10
0.0
 20
0.0
  3
D11
  0
CIRCLE
  8
0
 10
0.000000
 20
0.000000
 40
0.003000
 0
ENDBLK
  8
0
  0
BLOCK
  8
0
  2
D12
 70
64
 10
0.0
 20
0.0
  3
D12
  0
CIRCLE
  8
0
 10
0.000000
 20
0.000000
 40
0.001000
 0
ENDBLK
  8
0
  0
ENDSEC
  0
SECTION
  2
ENTITIES
  0
POLYLINE
  8
gg1
 62
1
 40
0.000000
 41
0.000000
 66
  1
  0
VERTEX
  8
gg1
 10
0.500000
 20
-0.110000
  0
VERTEX
  8
gg1
 10
0.500000
 20
-0.010000
  0
SEQEND
  8
gg1
  0
POLYLINE
  8
gg1
 62
1
 40
0.000000
 41
0.000000
 66
  1
  0
VERTEX
  8
gg1
 10
0.000000
 20
-0.110000
  0
VERTEX
  8
gg1
 10
0.000000
 20
-0.010000
  0
SEQEND
  8
gg1
  0
POLYLINE
  8
gg1
 62
1
 40
0.000000
 41
0.000000
 66
  1
  0
VERTEX
  8
gg1
 10
0.404900
 20
-0.100000
  0
VERTEX
  8
gg1
 10
0.500000
 20
-0.100000
  0
SEQEND
  8
gg1
  0
POLYLINE
  8
gg1
 62
1
 40
0.000000
 41
0.000000
 66
  1
  0
VERTEX
  8
gg1
 10
0.000000
 20
-0.100000
  0
VERTEX
  8
gg1
 10
0.063100
 20
-0.100000
  0
SEQEND
  8
gg1
  0
POLYLINE
  8
gg1
 62
1
 40
0.000000
 41
0.000000
 66
  1
  0
VERTEX
  8
gg1
 10
0.440000
 20
-0.080000
  0
VERTEX
  8
gg1
 10
0.500000
 20
-0.100000
  0
SEQEND
  8
gg1
  0
POLYLINE
  8
gg1
 62
1
 40
0.000000
 41
0.000000
 66
  1
  0
VERTEX
  8
gg1
 10
0.440000
 20
-0.120000
  0
VERTEX
  8
gg1
 10
0.500000
 20
-0.100000
  0
SEQEND
  8
gg1
  0
POLYLINE
  8
gg1
 62
1
 40
0.000000
 41
0.000000
 66
  1
  0
VERTEX
  8
gg1
 10
0.000000
 20
-0.100000
  0
VERTEX
  8
gg1
 10
0.060000
 20
-0.120000
  0
SEQEND
  8
gg1
  0
POLYLINE
  8
gg1
 62
1
 40
0.000000
 41
0.000000
 66
  1
  0
VERTEX
  8
gg1
 10
0.000000
 20
-0.100000
  0
VERTEX
  8
gg1
 10
0.060000
 20
-0.080000
  0
SEQEND
  8
gg1
  0
POLYLINE
  8
gg1
 62
1
 40
0.000000
 41
0.000000
 66
  1
  0
VERTEX
  8
gg1
 10
-0.110000
 20
0.800000
  0
VERTEX
  8
gg1
 10
-0.010000
 20
0.800000
  0
SEQEND
  8
gg1
  0
POLYLINE
  8
gg1
 62
1
 40
0.000000
 41
0.000000
 66
  1
  0
VERTEX
  8
gg1
 10
-0.110000
 20
0.000000
  0
VERTEX
  8
gg1
 10
-0.010000
 20
0.000000
  0
SEQEND
  8
gg1
  0
POLYLINE
  8
gg1
 62
1
 40
0.000000
 41
0.000000
 66
  1
  0
VERTEX
  8
gg1
 10
-0.100000
 20
0.554900
  0
VERTEX
  8
gg1
 10
-0.100000
 20
0.800000
  0
SEQEND
  8
gg1
  0
POLYLINE
  8
gg1
 62
1
 40
0.000000
 41
0.000000
 66
  1
  0
VERTEX
  8
gg1
 10
-0.100000
 20
0.000000
  0
VERTEX
  8
gg1
 10
-0.100000
 20
0.213000
  0
SEQEND
  8
gg1
  0
POLYLINE
  8
gg1
 62
1
 40
0.000000
 41
0.000000
 66
  1
  0
VERTEX
  8
gg1
 10
-0.120000
 20
0.740000
  0
VERTEX
  8
gg1
 10
-0.100000
 20
0.800000
  0
VERTEX
  8
gg1
 10
-0.080000
 20
0.740000
  0
SEQEND
  8
gg1
  0
POLYLINE
  8
gg1
 62
1
 40
0.000000
 41
0.000000
 66
  1
  0
VERTEX
  8
gg1
 10
-0.100000
 20
0.000000
  0
VERTEX
  8
gg1
 10
-0.080000
 20
0.060000
  0
SEQEND
  8
gg1
  0
POLYLINE
  8
gg1
 62
1
 40
0.000000
 41
0.000000
 66
  1
  0
VERTEX
  8
gg1
 10
-0.120000
 20
0.060000
  0
VERTEX
  8
gg1
 10
-0.100000
 20
0.000000
  0
SEQEND
  8
gg1
  0
POLYLINE
  8
gg1
 62
1
 40
0.000000
 41
0.000000
 66
  1
  0
VERTEX
  8
gg1
 10
0.000000
 20
0.000000
  0
VERTEX
  8
gg1
 10
0.500000
 20
0.000000
  0
VERTEX
  8
gg1
 10
0.500000
 20
0.800000
  0
SEQEND
  8
gg1
  0
POLYLINE
  8
gg1
 62
1
 40
0.000000
 41
0.000000
 66
  1
  0
VERTEX
  8
gg1
 10
0.000000
 20
0.800000
  0
VERTEX
  8
gg1
 10
0.500000
 20
0.800000
  0
SEQEND
  8
gg1
  0
POLYLINE
  8
gg1
 62
1
 40
0.000000
 41
0.000000
 66
  1
  0
VERTEX
  8
gg1
 10
0.000000
 20
0.000000
  0
VERTEX
  8
gg1
 10
0.000000
 20
0.800000
  0
SEQEND
  8
gg1
  0
POLYLINE
  8
gg1
 62
1
 40
0.000000
 41
0.000000
 66
  1
  0
VERTEX
  8
gg1
 10
0.119000
 20
-0.076000
  0
VERTEX
  8
gg1
 10
0.079000
 20
-0.076000
  0
VERTEX
  8
gg1
 10
0.079000
 20
-0.106000
  0
VERTEX
  8
gg1
 10
0.099000
 20
-0.096000
  0
VERTEX
  8
gg1
 10
0.109000
 20
-0.096000
  0
VERTEX
  8
gg1
 10
0.119000
 20
-0.106000
  0
VERTEX
  8
gg1
 10
0.119000
 20
-0.126000
  0
VERTEX
  8
gg1
 10
0.109000
 20
-0.136000
  0
VERTEX
  8
gg1
 10
0.089000
 20
-0.136000
  0
VERTEX
  8
gg1
 10
0.079000
 20
-0.126000
  0
SEQEND
  8
gg1
  0
POLYLINE
  8
gg1
 62
1
 40
0.000000
 41
0.000000
 66
  1
  0
VERTEX
  8
gg1
 10
0.139000
 20
-0.086000
  0
VERTEX
  8
gg1
 10
0.149000
 20
-0.076000
  0
VERTEX
  8
gg1
 10
0.169000
 20
-0.076000
  0
VERTEX
  8
gg1
 10
0.179000
 20
-0.086000
  0
VERTEX
  8
gg1
 10
0.179000
 20
-0.126000
  0
VERTEX
  8
gg1
 10
0.169000
 20
-0.136000
  0
VERTEX
  8
gg1
 10
0.149000
 20
-0.136000
  0
VERTEX
  8
gg1
 10
0.139000
 20
-0.126000
  0
VERTEX
  8
gg1
 10
0.139000
 20
-0.086000
  0
SEQEND
  8
gg1
  0
POLYLINE
  8
gg1
 62
1
 40
0.000000
 41
0.000000
 66
  1
  0
VERTEX
  8
gg1
 10
0.199000
 20
-0.086000
  0
VERTEX
  8
gg1
 10
0.209000
 20
-0.076000
  0
VERTEX
  8
gg1
 10
0.229000
 20
-0.076000
  0
VERTEX
  8
gg1
 10
0.239000
 20
-0.086000
  0
VERTEX
  8
gg1
 10
0.239000
 20
-0.126000
  0
VERTEX
  8
gg1
 10
0.229000
 20
-0.136000
  0
VERTEX
  8
gg1
 10
0.209000
 20
-0.136000
  0
VERTEX
  8
gg1
 10
0.199000
 20
-0.126000
  0
VERTEX
  8
gg1
 10
0.199000
 20
-0.086000
  0
SEQEND
  8
gg1
  0
POLYLINE
  8
gg1
 62
1
 40
0.000000
 41
0.000000
 66
  1
  0
VERTEX
  8
gg1
 10
0.259000
 20
-0.136000
  0
VERTEX
  8
gg1
 10
0.259000
 20
-0.096000
  0
VERTEX
  8
gg1
 10
0.269000
 20
-0.096000
  0
VERTEX
  8
gg1
 10
0.279000
 20
-0.106000
  0
VERTEX
  8
gg1
 10
0.279000
 20
-0.136000
  0
VERTEX
  8
gg1
 10
0.279000
 20
-0.106000
  0
VERTEX
  8
gg1
 10
0.289000
 20
-0.096000
  0
VERTEX
  8
gg1
 10
0.299000
 20
-0.106000
  0
VERTEX
  8
gg1
 10
0.299000
 20
-0.136000
  0
SEQEND
  8
gg1
  0
POLYLINE
  8
gg1
 62
1
 40
0.000000
 41
0.000000
 66
  1
  0
VERTEX
  8
gg1
 10
0.319000
 20
-0.136000
  0
VERTEX
  8
gg1
 10
0.339000
 20
-0.136000
  0
VERTEX
  8
gg1
 10
0.329000
 20
-0.136000
  0
VERTEX
  8
gg1
 10
0.329000
 20
-0.096000
  0
VERTEX
  8
gg1
 10
0.319000
 20
-0.096000
  0
SEQEND
  8
gg1
  0
POLYLINE
  8
gg1
 62
1
 40
0.000000
 41
0.000000
 66
  1
  0
VERTEX
  8
gg1
 10
0.369000
 20
-0.136000
  0
VERTEX
  8
gg1
 10
0.388900
 20
-0.136000
  0
VERTEX
  8
gg1
 10
0.379000
 20
-0.136000
  0
VERTEX
  8
gg1
 10
0.379000
 20
-0.076000
  0
VERTEX
  8
gg1
 10
0.369000
 20
-0.076000
  0
SEQEND
  8
gg1
  0
POLYLINE
  8
gg1
 62
1
 40
0.000000
 41
0.000000
 66
  1
  0
VERTEX
  8
gg1
 10
-0.114000
 20
0.229000
  0
VERTEX
  8
gg1
 10
-0.124000
 20
0.239000
  0
VERTEX
  8
gg1
 10
-0.124000
 20
0.259000
  0
VERTEX
  8
gg1
 10
-0.114000
 20
0.269000
  0
VERTEX
  8
gg1
 10
-0.104000
 20
0.269000
  0
VERTEX
  8
gg1
 10
-0.094000
 20
0.259000
  0
VERTEX
  8
gg1
 10
-0.084000
 20
0.269000
  0
VERTEX
  8
gg1
 10
-0.074000
 20
0.269000
  0
VERTEX
  8
gg1
 10
-0.064000
 20
0.259000
  0
VERTEX
  8
gg1
 10
-0.064000
 20
0.239000
  0
VERTEX
  8
gg1
 10
-0.074000
 20
0.229000
  0
VERTEX
  8
gg1
 10
-0.084000
 20
0.229000
  0
VERTEX
  8
gg1
 10
-0.094000
 20
0.239000
  0
VERTEX
  8
gg1
 10
-0.104000
 20
0.229000
  0
VERTEX
  8
gg1
 10
-0.114000
 20
0.229000
  0
SEQEND
  8
gg1
  0
POLYLINE
  8
gg1
 62
1
 40
0.000000
 41
0.000000
 66
  1
  0
VERTEX
  8
gg1
 10
-0.094000
 20
0.239000
  0
VERTEX
  8
gg1
 10
-0.094000
 20
0.259000
  0
SEQEND
  8
gg1
  0
POLYLINE
  8
gg1
 62
1
 40
0.000000
 41
0.000000
 66
  1
  0
VERTEX
  8
gg1
 10
-0.114000
 20
0.289000
  0
VERTEX
  8
gg1
 10
-0.124000
 20
0.299000
  0
VERTEX
  8
gg1
 10
-0.124000
 20
0.319000
  0
VERTEX
  8
gg1
 10
-0.114000
 20
0.329000
  0
VERTEX
  8
gg1
 10
-0.074000
 20
0.329000
  0
VERTEX
  8
gg1
 10
-0.064000
 20
0.319000
  0
VERTEX
  8
gg1
 10
-0.064000
 20
0.299000
  0
VERTEX
  8
gg1
 10
-0.074000
 20
0.289000
  0
VERTEX
  8
gg1
 10
-0.114000
 20
0.289000
  0
SEQEND
  8
gg1
  0
POLYLINE
  8
gg1
 62
1
 40
0.000000
 41
0.000000
 66
  1
  0
VERTEX
  8
gg1
 10
-0.114000
 20
0.349000
  0
VERTEX
  8
gg1
 10
-0.124000
 20
0.359000
  0
VERTEX
  8
gg1
 10
-0.124000
 20
0.379000
  0
VERTEX
  8
gg1
 10
-0.114000
 20
0.389000
  0
VERTEX
  8
gg1
 10
-0.074000
 20
0.389000
  0
VERTEX
  8
gg1
 10
-0.064000
 20
0.379000
  0
VERTEX
  8
gg1
 10
-0.064000
 20
0.359000
  0
VERTEX
  8
gg1
 10
-0.074000
 20
0.349000
  0
VERTEX
  8
gg1
 10
-0.114000
 20
0.349000
  0
SEQEND
  8
gg1
  0
POLYLINE
  8
gg1
 62
1
 40
0.000000
 41
0.000000
 66
  1
  0
VERTEX
  8
gg1
 10
-0.064000
 20
0.409000
  0
VERTEX
  8
gg1
 10
-0.104000
 20
0.409000
  0
VERTEX
  8
gg1
 10
-0.104000
 20
0.419000
  0
VERTEX
  8
gg1
 10
-0.094000
 20
0.429000
  0
VERTEX
  8
gg1
 10
-0.064000
 20
0.429000
  0
VERTEX
  8
gg1
 10
-0.094000
 20
0.429000
  0
VERTEX
  8
gg1
 10
-0.104000
 20
0.439000
  0
VERTEX
  8
gg1
 10
-0.094000
 20
0.449000
  0
VERTEX
  8
gg1
 10
-0.064000
 20
0.449000
  0
SEQEND
  8
gg1
  0
POLYLINE
  8
gg1
 62
1
 40
0.000000
 41
0.000000
 66
  1
  0
VERTEX
  8
gg1
 10
-0.064000
 20
0.469000
  0
VERTEX
  8
gg1
 10
-0.064000
 20
0.489000
  0
VERTEX
  8
gg1
 10
-0.064000
 20
0.479000
  0
VERTEX
  8
gg1
 10
-0.104000
 20
0.479000
  0
VERTEX
  8
gg1
 10
-0.104000
 20
0.469000
  0
SEQEND
  8
gg1
  0
POLYLINE
  8
gg1
 62
1
 40
0.000000
 41
0.000000
 66
  1
  0
VERTEX
  8
gg1
 10
-0.064000
 20
0.519000
  0
VERTEX
  8
gg1
 10
-0.064000
 20
0.539000
  0
VERTEX
  8
gg1
 10
-0.064000
 20
0.529000
  0
VERTEX
  8
gg1
 10
-0.124000
 20
0.529000
  0
VERTEX
  8
gg1
 10
-0.124000
 20
0.519000
  0
SEQEND
  8
gg1
  0
POLYLINE
  8
gg1
 62
1
 40
0.000000
 41
0.000000
 66
  1
  0
VERTEX
  8
gg1
 10
0.430000
 20
0.050000
  0
VERTEX
  8
gg1
 10
0.470000
 20
0.050000
  0
SEQEND
  8
gg1
  0
POLYLINE
  8
gg1
 62
1
 40
0.000000
 41
0.000000
 66
  1
  0
VERTEX
  8
gg1
 10
0.450000
 20
0.030000
  0
VERTEX
  8
gg1
 10
0.450000
 20
0.070000
  0
SEQEND
  8
gg1
  0
POLYLINE
  8
gg1
 62
1
 40
0.000000
 41
0.000000
 66
  1
  0
VERTEX
  8
gg1
 10
0.430000
 20
0.150000
  0
VERTEX
  8
gg1
 10
0.470000
 20
0.150000
  0
SEQEND
  8
gg1
  0
POLYLINE
  8
gg1
 62
1
 40
0.000000
 41
0.000000
 66
  1
  0
VERTEX
  8
gg1
 10
0.450000
 20
0.130000
  0
VERTEX
  8
gg1
 10
0.450000
 20
0.170000
  0
SEQEND
  8
gg1
  0
POLYLINE
  8
gg1
 62
1
 40
0.000000
 41
0.000000
 66
  1
  0
VERTEX
  8
gg1
 10
0.430000
 20
0.250000
  0
VERTEX
  8
gg1
 10
0.470000
 20
0.250000
  0
SEQEND
  8
gg1
  0
POLYLINE
  8
gg1
 62
1
 40
0.000000
 41
0.000000
 66
  1
  0
VERTEX
  8
gg1
 10
0.450000
 20
0.230000
  0
VERTEX
  8
gg1
 10
0.450000
 20
0.270000
  0
SEQEND
  8
gg1
  0
POLYLINE
  8
gg1
 62
1
 40
0.000000
 41
0.000000
 66
  1
  0
VERTEX
  8
gg1
 10
0.430000
 20
0.750000
  0
VERTEX
  8
gg1
 10
0.470000
 20
0.750000
  0
SEQEND
  8
gg1
  0
POLYLINE
  8
gg1
 62
1
 40
0.000000
 41
0.000000
 66
  1
  0
VERTEX
  8
gg1
 10
0.450000
 20
0.730000
  0
VERTEX
  8
gg1
 10
0.450000
 20
0.770000
  0
SEQEND
  8
gg1
  0
POLYLINE
  8
gg1
 62
1
 40
0.000000
 41
0.000000
 66
  1
  0
VERTEX
  8
gg1
 10
0.430000
 20
0.650000
  0
VERTEX
  8
gg1
 10
0.470000
 20
0.650000
  0
SEQEND
  8
gg1
  0
POLYLINE
  8
gg1
 62
1
 40
0.000000
 41
0.000000
 66
  1
  0
VERTEX
  8
gg1
 10
0.450000
 20
0.630000
  0
VERTEX
  8
gg1
 10
0.450000
 20
0.670000
  0
SEQEND
  8
gg1
  0
POLYLINE
  8
gg1
 62
1
 40
0.000000
 41
0.000000
 66
  1
  0
VERTEX
  8
gg1
 10
0.430000
 20
0.550000
  0
VERTEX
  8
gg1
 10
0.470000
 20
0.550000
  0
SEQEND
  8
gg1
  0
POLYLINE
  8
gg1
 62
1
 40
0.000000
 41
0.000000
 66
  1
  0
VERTEX
  8
gg1
 10
0.450000
 20
0.530000
  0
VERTEX
  8
gg1
 10
0.450000
 20
0.570000
  0
SEQEND
  8
gg1
  0
POLYLINE
  8
gg1
 62
1
 40
0.000000
 41
0.000000
 66
  1
  0
VERTEX
  8
gg1
 10
0.430000
 20
0.450000
  0
VERTEX
  8
gg1
 10
0.470000
 20
0.450000
  0
SEQEND
  8
gg1
  0
POLYLINE
  8
gg1
 62
1
 40
0.000000
 41
0.000000
 66
  1
  0
VERTEX
  8
gg1
 10
0.450000
 20
0.430000
  0
VERTEX
  8
gg1
 10
0.450000
 20
0.470000
  0
SEQEND
  8
gg1
  0
POLYLINE
  8
gg1
 62
1
 40
0.000000
 41
0.000000
 66
  1
  0
VERTEX
  8
gg1
 10
0.430000
 20
0.350000
  0
VERTEX
  8
gg1
 10
0.470000
 20
0.350000
  0
SEQEND
  8
gg1
  0
POLYLINE
  8
gg1
 62
1
 40
0.000000
 41
0.000000
 66
  1
  0
VERTEX
  8
gg1
 10
0.450000
 20
0.330000
  0
VERTEX
  8
gg1
 10
0.450000
 20
0.370000
  0
SEQEND
  8
gg1
  0
POLYLINE
  8
gg1
 62
1
 40
0.000000
 41
0.000000
 66
  1
  0
VERTEX
  8
gg1
 10
0.030000
 20
0.750000
  0
VERTEX
  8
gg1
 10
0.070000
 20
0.750000
  0
SEQEND
  8
gg1
  0
POLYLINE
  8
gg1
 62
1
 40
0.000000
 41
0.000000
 66
  1
  0
VERTEX
  8
gg1
 10
0.050000
 20
0.730000
  0
VERTEX
  8
gg1
 10
0.050000
 20
0.770000
  0
SEQEND
  8
gg1
  0
POLYLINE
  8
gg1
 62
1
 40
0.000000
 41
0.000000
 66
  1
  0
VERTEX
  8
gg1
 10
0.030000
 20
0.650000
  0
VERTEX
  8
gg1
 10
0.070000
 20
0.650000
  0
SEQEND
  8
gg1
  0
POLYLINE
  8
gg1
 62
1
 40
0.000000
 41
0.000000
 66
  1
  0
VERTEX
  8
gg1
 10
0.050000
 20
0.630000
  0
VERTEX
  8
gg1
 10
0.050000
 20
0.670000
  0
SEQEND
  8
gg1
  0
POLYLINE
  8
gg1
 62
1
 40
0.000000
 41
0.000000
 66
  1
  0
VERTEX
  8
gg1
 10
0.030000
 20
0.550000
  0
VERTEX
  8
gg1
 10
0.070000
 20
0.550000
  0
SEQEND
  8
gg1
  0
POLYLINE
  8
gg1
 62
1
 40
0.000000
 41
0.000000
 66
  1
  0
VERTEX
  8
gg1
 10
0.050000
 20
0.530000
  0
VERTEX
  8
gg1
 10
0.050000
 20
0.570000
  0
SEQEND
  8
gg1
  0
POLYLINE
  8
gg1
 62
1
 40
0.000000
 41
0.000000
 66
  1
  0
VERTEX
  8
gg1
 10
0.030000
 20
0.450000
  0
VERTEX
  8
gg1
 10
0.070000
 20
0.450000
  0
SEQEND
  8
gg1
  0
POLYLINE
  8
gg1
 62
1
 40
0.000000
 41
0.000000
 66
  1
  0
VERTEX
  8
gg1
 10
0.050000
 20
0.430000
  0
VERTEX
  8
gg1
 10
0.050000
 20
0.470000
  0
SEQEND
  8
gg1
  0
POLYLINE
  8
gg1
 62
1
 40
0.000000
 41
0.000000
 66
  1
  0
VERTEX
  8
gg1
 10
0.030000
 20
0.350000
  0
VERTEX
  8
gg1
 10
0.070000
 20
0.350000
  0
SEQEND
  8
gg1
  0
POLYLINE
  8
gg1
 62
1
 40
0.000000
 41
0.000000
 66
  1
  0
VERTEX
  8
gg1
 10
0.050000
 20
0.330000
  0
VERTEX
  8
gg1
 10
0.050000
 20
0.370000
  0
SEQEND
  8
gg1
  0
POLYLINE
  8
gg1
 62
1
 40
0.000000
 41
0.000000
 66
  1
  0
VERTEX
  8
gg1
 10
0.030000
 20
0.250000
  0
VERTEX
  8
gg1
 10
0.070000
 20
0.250000
  0
SEQEND
  8
gg1
  0
POLYLINE
  8
gg1
 62
1
 40
0.000000
 41
0.000000
 66
  1
  0
VERTEX
  8
gg1
 10
0.050000
 20
0.230000
  0
VERTEX
  8
gg1
 10
0.050000
 20
0.270000
  0
SEQEND
  8
gg1
  0
POLYLINE
  8
gg1
 62
1
 40
0.000000
 41
0.000000
 66
  1
  0
VERTEX
  8
gg1
 10
0.030000
 20
0.150000
  0
VERTEX
  8
gg1
 10
0.070000
 20
0.150000
  0
SEQEND
  8
gg1
  0
POLYLINE
  8
gg1
 62
1
 40
0.000000
 41
0.000000
 66
  1
  0
VERTEX
  8
gg1
 10
0.050000
 20
0.130000
  0
VERTEX
  8
gg1
 10
0.050000
 20
0.170000
  0
SEQEND
  8
gg1
  0
POLYLINE
  8
gg1
 62
1
 40
0.000000
 41
0.000000
 66
  1
  0
VERTEX
  8
gg1
 10
0.030000
 20
0.050000
  0
VERTEX
  8
gg1
 10
0.070000
 20
0.050000
  0
SEQEND
  8
gg1
  0
POLYLINE
  8
gg1
 62
1
 40
0.000000
 41
0.000000
 66
  1
  0
VERTEX
  8
gg1
 10
0.050000
 20
0.030000
  0
VERTEX
  8
gg1
 10
0.050000
 20
0.070000
  0
SEQEND
  8
gg1
  0
POLYLINE
  8
gg1
 62
1
 40
0.000000
 41
0.000000
 66
  1
  0
VERTEX
  8
gg1
 10
0.107500
 20
0.110000
  0
VERTEX
  8
gg1
 10
0.122500
 20
0.110000
  0
SEQEND
  8
gg1
  0
POLYLINE
  8
gg1
 62
1
 40
0.000000
 41
0.000000
 66
  1
  0
VERTEX
  8
gg1
 10
0.115000
 20
0.102500
  0
VERTEX
  8
gg1
 10
0.115000
 20
0.117500
  0
SEQEND
  8
gg1
  0
POLYLINE
  8
gg1
 62
1
 40
0.000000
 41
0.000000
 66
  1
  0
VERTEX
  8
gg1
 10
0.107500
 20
0.335000
  0
VERTEX
  8
gg1
 10
0.122500
 20
0.335000
  0
SEQEND
  8
gg1
  0
POLYLINE
  8
gg1
 62
1
 40
0.000000
 41
0.000000
 66
  1
  0
VERTEX
  8
gg1
 10
0.115000
 20
0.327500
  0
VERTEX
  8
gg1
 10
0.115000
 20
0.342500
  0
SEQEND
  8
gg1
  0
POLYLINE
  8
gg1
 62
1
 40
0.000000
 41
0.000000
 66
  1
  0
VERTEX
  8
gg1
 10
0.102500
 20
0.640000
  0
VERTEX
  8
gg1
 10
0.117500
 20
0.640000
  0
SEQEND
  8
gg1
  0
POLYLINE
  8
gg1
 62
1
 40
0.000000
 41
0.000000
 66
  1
  0
VERTEX
  8
gg1
 10
0.110000
 20
0.632500
  0
VERTEX
  8
gg1
 10
0.110000
 20
0.647500
  0
SEQEND
  8
gg1
  0
POLYLINE
  8
gg1
 62
1
 40
0.000000
 41
0.000000
 66
  1
  0
VERTEX
  8
gg1
 10
0.102500
 20
0.670000
  0
VERTEX
  8
gg1
 10
0.117500
 20
0.670000
  0
SEQEND
  8
gg1
  0
POLYLINE
  8
gg1
 62
1
 40
0.000000
 41
0.000000
 66
  1
  0
VERTEX
  8
gg1
 10
0.110000
 20
0.662500
  0
VERTEX
  8
gg1
 10
0.110000
 20
0.677500
  0
SEQEND
  8
gg1
  0
POLYLINE
  8
gg1
 62
1
 40
0.000000
 41
0.000000
 66
  1
  0
VERTEX
  8
gg1
 10
0.137500
 20
0.355000
  0
VERTEX
  8
gg1
 10
0.152500
 20
0.355000
  0
SEQEND
  8
gg1
  0
POLYLINE
  8
gg1
 62
1
 40
0.000000
 41
0.000000
 66
  1
  0
VERTEX
  8
gg1
 10
0.145000
 20
0.347500
  0
VERTEX
  8
gg1
 10
0.145000
 20
0.362500
  0
SEQEND
  8
gg1
  0
POLYLINE
  8
gg1
 62
1
 40
0.000000
 41
0.000000
 66
  1
  0
VERTEX
  8
gg1
 10
0.172500
 20
0.640000
  0
VERTEX
  8
gg1
 10
0.187500
 20
0.640000
  0
SEQEND
  8
gg1
  0
POLYLINE
  8
gg1
 62
1
 40
0.000000
 41
0.000000
 66
  1
  0
VERTEX
  8
gg1
 10
0.180000
 20
0.632500
  0
VERTEX
  8
gg1
 10
0.180000
 20
0.647500
  0
SEQEND
  8
gg1
  0
POLYLINE
  8
gg1
 62
1
 40
0.000000
 41
0.000000
 66
  1
  0
VERTEX
  8
gg1
 10
0.172500
 20
0.670000
  0
VERTEX
  8
gg1
 10
0.187500
 20
0.670000
  0
SEQEND
  8
gg1
  0
POLYLINE
  8
gg1
 62
1
 40
0.000000
 41
0.000000
 66
  1
  0
VERTEX
  8
gg1
 10
0.180000
 20
0.662500
  0
VERTEX
  8
gg1
 10
0.180000
 20
0.677500
  0
SEQEND
  8
gg1
  0
POLYLINE
  8
gg1
 62
1
 40
0.000000
 41
0.000000
 66
  1
  0
VERTEX
  8
gg1
 10
0.197500
 20
0.545000
  0
VERTEX
  8
gg1
 10
0.212500
 20
0.545000
  0
SEQEND
  8
gg1
  0
POLYLINE
  8
gg1
 62
1
 40
0.000000
 41
0.000000
 66
  1
  0
VERTEX
  8
gg1
 10
0.205000
 20
0.537500
  0
VERTEX
  8
gg1
 10
0.205000
 20
0.552500
  0
SEQEND
  8
gg1
  0
POLYLINE
  8
gg1
 62
1
 40
0.000000
 41
0.000000
 66
  1
  0
VERTEX
  8
gg1
 10
0.290100
 20
0.402600
  0
VERTEX
  8
gg1
 10
0.305100
 20
0.402600
  0
SEQEND
  8
gg1
  0
POLYLINE
  8
gg1
 62
1
 40
0.000000
 41
0.000000
 66
  1
  0
VERTEX
  8
gg1
 10
0.297600
 20
0.395100
  0
VERTEX
  8
gg1
 10
0.297600
 20
0.410100
  0
SEQEND
  8
gg1
  0
POLYLINE
  8
gg1
 62
1
 40
0.000000
 41
0.000000
 66
  1
  0
VERTEX
  8
gg1
 10
0.234900
 20
0.402600
  0
VERTEX
  8
gg1
 10
0.249900
 20
0.402600
  0
SEQEND
  8
gg1
  0
POLYLINE
  8
gg1
 62
1
 40
0.000000
 41
0.000000
 66
  1
  0
VERTEX
  8
gg1
 10
0.242400
 20
0.395100
  0
VERTEX
  8
gg1
 10
0.242400
 20
0.410100
  0
SEQEND
  8
gg1
  0
POLYLINE
  8
gg1
 62
1
 40
0.000000
 41
0.000000
 66
  1
  0
VERTEX
  8
gg1
 10
0.234900
 20
0.347400
  0
VERTEX
  8
gg1
 10
0.249900
 20
0.347400
  0
SEQEND
  8
gg1
  0
POLYLINE
  8
gg1
 62
1
 40
0.000000
 41
0.000000
 66
  1
  0
VERTEX
  8
gg1
 10
0.242400
 20
0.339900
  0
VERTEX
  8
gg1
 10
0.242400
 20
0.354900
  0
SEQEND
  8
gg1
  0
POLYLINE
  8
gg1
 62
1
 40
0.000000
 41
0.000000
 66
  1
  0
VERTEX
  8
gg1
 10
0.290100
 20
0.347400
  0
VERTEX
  8
gg1
 10
0.305100
 20
0.347400
  0
SEQEND
  8
gg1
  0
POLYLINE
  8
gg1
 62
1
 40
0.000000
 41
0.000000
 66
  1
  0
VERTEX
  8
gg1
 10
0.297600
 20
0.339900
  0
VERTEX
  8
gg1
 10
0.297600
 20
0.354900
  0
SEQEND
  8
gg1
  0
POLYLINE
  8
gg1
 62
1
 40
0.000000
 41
0.000000
 66
  1
  0
VERTEX
  8
gg1
 10
0.262500
 20
0.375000
  0
VERTEX
  8
gg1
 10
0.277500
 20
0.375000
  0
SEQEND
  8
gg1
  0
POLYLINE
  8
gg1
 62
1
 40
0.000000
 41
0.000000
 66
  1
  0
VERTEX
  8
gg1
 10
0.270000
 20
0.367500
  0
VERTEX
  8
gg1
 10
0.270000
 20
0.382500
  0
SEQEND
  8
gg1
  0
POLYLINE
  8
gg1
 62
1
 40
0.000000
 41
0.000000
 66
  1
  0
VERTEX
  8
gg1
 10
0.237500
 20
0.540000
  0
VERTEX
  8
gg1
 10
0.252500
 20
0.540000
  0
SEQEND
  8
gg1
  0
POLYLINE
  8
gg1
 62
1
 40
0.000000
 41
0.000000
 66
  1
  0
VERTEX
  8
gg1
 10
0.245000
 20
0.532500
  0
VERTEX
  8
gg1
 10
0.245000
 20
0.547500
  0
SEQEND
  8
gg1
  0
POLYLINE
  8
gg1
 62
1
 40
0.000000
 41
0.000000
 66
  1
  0
VERTEX
  8
gg1
 10
0.217500
 20
0.255000
  0
VERTEX
  8
gg1
 10
0.232500
 20
0.255000
  0
SEQEND
  8
gg1
  0
POLYLINE
  8
gg1
 62
1
 40
0.000000
 41
0.000000
 66
  1
  0
VERTEX
  8
gg1
 10
0.225000
 20
0.247500
  0
VERTEX
  8
gg1
 10
0.225000
 20
0.262500
  0
SEQEND
  8
gg1
  0
POLYLINE
  8
gg1
 62
1
 40
0.000000
 41
0.000000
 66
  1
  0
VERTEX
  8
gg1
 10
0.380000
 20
0.300000
  0
VERTEX
  8
gg1
 10
0.400000
 20
0.300000
  0
SEQEND
  8
gg1
  0
POLYLINE
  8
gg1
 62
1
 40
0.000000
 41
0.000000
 66
  1
  0
VERTEX
  8
gg1
 10
0.390000
 20
0.290000
  0
VERTEX
  8
gg1
 10
0.390000
 20
0.310000
  0
SEQEND
  8
gg1
  0
POLYLINE
  8
gg1
 62
1
 40
0.000000
 41
0.000000
 66
  1
  0
VERTEX
  8
gg1
 10
0.370000
 20
0.450000
  0
VERTEX
  8
gg1
 10
0.390000
 20
0.450000
  0
SEQEND
  8
gg1
  0
POLYLINE
  8
gg1
 62
1
 40
0.000000
 41
0.000000
 66
  1
  0
VERTEX
  8
gg1
 10
0.380000
 20
0.440000
  0
VERTEX
  8
gg1
 10
0.380000
 20
0.460000
  0
SEQEND
  8
gg1
  0
POLYLINE
  8
gg1
 62
1
 40
0.000000
 41
0.000000
 66
  1
  0
VERTEX
  8
gg1
 10
0.385000
 20
0.050000
  0
VERTEX
  8
gg1
 10
0.405000
 20
0.050000
  0
SEQEND
  8
gg1
  0
POLYLINE
  8
gg1
 62
1
 40
0.000000
 41
0.000000
 66
  1
  0
VERTEX
  8
gg1
 10
0.395000
 20
0.040000
  0
VERTEX
  8
gg1
 10
0.395000
 20
0.060000
  0
SEQEND
  8
gg1
  0
POLYLINE
  8
gg1
 62
1
 40
0.000000
 41
0.000000
 66
  1
  0
VERTEX
  8
gg1
 10
0.385000
 20
0.150000
  0
VERTEX
  8
gg1
 10
0.405000
 20
0.150000
  0
SEQEND
  8
gg1
  0
POLYLINE
  8
gg1
 62
1
 40
0.000000
 41
0.000000
 66
  1
  0
VERTEX
  8
gg1
 10
0.395000
 20
0.140000
  0
VERTEX
  8
gg1
 10
0.395000
 20
0.160000
  0
SEQEND
  8
gg1
  0
POLYLINE
  8
gg1
 62
1
 40
0.000000
 41
0.000000
 66
  1
  0
VERTEX
  8
gg1
 10
0.277500
 20
0.040000
  0
VERTEX
  8
gg1
 10
0.292500
 20
0.040000
  0
SEQEND
  8
gg1
  0
POLYLINE
  8
gg1
 62
1
 40
0.000000
 41
0.000000
 66
  1
  0
VERTEX
  8
gg1
 10
0.285000
 20
0.032500
  0
VERTEX
  8
gg1
 10
0.285000
 20
0.047500
  0
SEQEND
  8
gg1
  0
POLYLINE
  8
gg1
 62
1
 40
0.000000
 41
0.000000
 66
  1
  0
VERTEX
  8
gg1
 10
0.277500
 20
0.075000
  0
VERTEX
  8
gg1
 10
0.292500
 20
0.075000
  0
SEQEND
  8
gg1
  0
POLYLINE
  8
gg1
 62
1
 40
0.000000
 41
0.000000
 66
  1
  0
VERTEX
  8
gg1
 10
0.285000
 20
0.067500
  0
VERTEX
  8
gg1
 10
0.285000
 20
0.082500
  0
SEQEND
  8
gg1
  0
POLYLINE
  8
gg1
 62
1
 40
0.000000
 41
0.000000
 66
  1
  0
VERTEX
  8
gg1
 10
0.277500
 20
0.110000
  0
VERTEX
  8
gg1
 10
0.292500
 20
0.110000
  0
SEQEND
  8
gg1
  0
POLYLINE
  8
gg1
 62
1
 40
0.000000
 41
0.000000
 66
  1
  0
VERTEX
  8
gg1
 10
0.285000
 20
0.102500
  0
VERTEX
  8
gg1
 10
0.285000
 20
0.117500
  0
SEQEND
  8
gg1
  0
POLYLINE
  8
gg1
 62
1
 40
0.000000
 41
0.000000
 66
  1
  0
VERTEX
  8
gg1
 10
0.352500
 20
0.575000
  0
VERTEX
  8
gg1
 10
0.367500
 20
0.575000
  0
SEQEND
  8
gg1
  0
POLYLINE
  8
gg1
 62
1
 40
0.000000
 41
0.000000
 66
  1
  0
VERTEX
  8
gg1
 10
0.360000
 20
0.567500
  0
VERTEX
  8
gg1
 10
0.360000
 20
0.582500
  0
SEQEND
  8
gg1
  0
POLYLINE
  8
gg1
 62
1
 40
0.000000
 41
0.000000
 66
  1
  0
VERTEX
  8
gg1
 10
0.327500
 20
0.720000
  0
VERTEX
  8
gg1
 10
0.342500
 20
0.720000
  0
SEQEND
  8
gg1
  0
POLYLINE
  8
gg1
 62
1
 40
0.000000
 41
0.000000
 66
  1
  0
VERTEX
  8
gg1
 10
0.335000
 20
0.712500
  0
VERTEX
  8
gg1
 10
0.335000
 20
0.727500
  0
SEQEND
  8
gg1
  0
POLYLINE
  8
gg1
 62
1
 40
0.000000
 41
0.000000
 66
  1
  0
VERTEX
  8
gg1
 10
0.327500
 20
0.765000
  0
VERTEX
  8
gg1
 10
0.342500
 20
0.765000
  0
SEQEND
  8
gg1
  0
POLYLINE
  8
gg1
 62
1
 40
0.000000
 41
0.000000
 66
  1
  0
VERTEX
  8
gg1
 10
0.335000
 20
0.757500
  0
VERTEX
  8
gg1
 10
0.335000
 20
0.772500
  0
SEQEND
  8
gg1
  0
POLYLINE
  8
gg1
 62
1
 40
0.000000
 41
0.000000
 66
  1
  0
VERTEX
  8
gg1
 10
0.297500
 20
0.720000
  0
VERTEX
  8
gg1
 10
0.312500
 20
0.720000
  0
SEQEND
  8
gg1
  0
POLYLINE
  8
gg1
 62
1
 40
0.000000
 41
0.000000
 66
  1
  0
VERTEX
  8
gg1
 10
0.305000
 20
0.712500
  0
VERTEX
  8
gg1
 10
0.305000
 20
0.727500
  0
SEQEND
  8
gg1
  0
POLYLINE
  8
gg1
 62
1
 40
0.000000
 41
0.000000
 66
  1
  0
VERTEX
  8
gg1
 10
0.297500
 20
0.765000
  0
VERTEX
  8
gg1
 10
0.312500
 20
0.765000
  0
SEQEND
  8
gg1
  0
POLYLINE
  8
gg1
 62
1
 40
0.000000
 41
0.000000
 66
  1
  0
VERTEX
  8
gg1
 10
0.305000
 20
0.757500
  0
VERTEX
  8
gg1
 10
0.305000
 20
0.772500
  0
SEQEND
  8
gg1
  0
POLYLINE
  8
gg1
 62
1
 40
0.000000
 41
0.000000
 66
  1
  0
VERTEX
  8
gg1
 10
0.102500
 20
0.765000
  0
VERTEX
  8
gg1
 10
0.117500
 20
0.765000
  0
SEQEND
  8
gg1
  0
POLYLINE
  8
gg1
 62
1
 40
0.000000
 41
0.000000
 66
  1
  0
VERTEX
  8
gg1
 10
0.110000
 20
0.757500
  0
VERTEX
  8
gg1
 10
0.110000
 20
0.772500
  0
SEQEND
  8
gg1
  0
POLYLINE
  8
gg1
 62
1
 40
0.000000
 41
0.000000
 66
  1
  0
VERTEX
  8
gg1
 10
0.132500
 20
0.765000
  0
VERTEX
  8
gg1
 10
0.147500
 20
0.765000
  0
SEQEND
  8
gg1
  0
POLYLINE
  8
gg1
 62
1
 40
0.000000
 41
0.000000
 66
  1
  0
VERTEX
  8
gg1
 10
0.140000
 20
0.757500
  0
VERTEX
  8
gg1
 10
0.140000
 20
0.772500
  0
SEQEND
  8
gg1
  0
POLYLINE
  8
gg1
 62
1
 40
0.000000
 41
0.000000
 66
  1
  0
VERTEX
  8
gg1
 10
0.180500
 20
0.062000
  0
VERTEX
  8
gg1
 10
0.195500
 20
0.062000
  0
SEQEND
  8
gg1
  0
POLYLINE
  8
gg1
 62
1
 40
0.000000
 41
0.000000
 66
  1
  0
VERTEX
  8
gg1
 10
0.188000
 20
0.054500
  0
VERTEX
  8
gg1
 10
0.188000
 20
0.069500
  0
SEQEND
  8
gg1
  0
POLYLINE
  8
gg1
 62
1
 40
0.000000
 41
0.000000
 66
  1
  0
VERTEX
  8
gg1
 10
0.180500
 20
0.104000
  0
VERTEX
  8
gg1
 10
0.195500
 20
0.104000
  0
SEQEND
  8
gg1
  0
POLYLINE
  8
gg1
 62
1
 40
0.000000
 41
0.000000
 66
  1
  0
VERTEX
  8
gg1
 10
0.188000
 20
0.096500
  0
VERTEX
  8
gg1
 10
0.188000
 20
0.111500
  0
SEQEND
  8
gg1
  0
POLYLINE
  8
gg1
 62
1
 40
0.000000
 41
0.000000
 66
  1
  0
VERTEX
  8
gg1
 10
0.180500
 20
0.143000
  0
VERTEX
  8
gg1
 10
0.195500
 20
0.143000
  0
SEQEND
  8
gg1
  0
POLYLINE
  8
gg1
 62
1
 40
0.000000
 41
0.000000
 66
  1
  0
VERTEX
  8
gg1
 10
0.188000
 20
0.135500
  0
VERTEX
  8
gg1
 10
0.188000
 20
0.150500
  0
SEQEND
  8
gg1
  0
ENDSEC
  0
EOF
