G04 #@! TF.GenerationSoftware,KiCad,Pcbnew,(5.1.0)-1*
G04 #@! TF.CreationDate,2019-05-03T22:00:51+02:00*
G04 #@! TF.ProjectId,bigmax_hat,6269676d-6178-45f6-9861-742e6b696361,v1*
G04 #@! TF.SameCoordinates,Original*
G04 #@! TF.FileFunction,Legend,Bot*
G04 #@! TF.FilePolarity,Positive*
%FSLAX46Y46*%
G04 Gerber Fmt 4.6, Leading zero omitted, Abs format (unit mm)*
G04 Created by KiCad (PCBNEW (5.1.0)-1) date 2019-05-03 22:00:51*
%MOMM*%
%LPD*%
G04 APERTURE LIST*
%ADD10C,0.120000*%
%ADD11C,0.150000*%
G04 APERTURE END LIST*
D10*
X187960000Y-94615000D02*
X187960000Y-93345000D01*
X186690000Y-94615000D02*
X187960000Y-94615000D01*
X183770000Y-92302071D02*
X183770000Y-91905000D01*
X184530000Y-92302071D02*
X184530000Y-91905000D01*
X183770000Y-83245000D02*
X183770000Y-89245000D01*
X184530000Y-83245000D02*
X183770000Y-83245000D01*
X184530000Y-89245000D02*
X184530000Y-83245000D01*
X185420000Y-91905000D02*
X185420000Y-89245000D01*
X186310000Y-92235000D02*
X186310000Y-91905000D01*
X187070000Y-92235000D02*
X187070000Y-91905000D01*
X186410000Y-89245000D02*
X186410000Y-83245000D01*
X186530000Y-89245000D02*
X186530000Y-83245000D01*
X186650000Y-89245000D02*
X186650000Y-83245000D01*
X186770000Y-89245000D02*
X186770000Y-83245000D01*
X186890000Y-89245000D02*
X186890000Y-83245000D01*
X187010000Y-89245000D02*
X187010000Y-83245000D01*
X186310000Y-83245000D02*
X186310000Y-89245000D01*
X187070000Y-83245000D02*
X186310000Y-83245000D01*
X187070000Y-89245000D02*
X187070000Y-83245000D01*
X188020000Y-89245000D02*
X188020000Y-91905000D01*
X182820000Y-89245000D02*
X188020000Y-89245000D01*
X182820000Y-91905000D02*
X182820000Y-89245000D01*
X188020000Y-91905000D02*
X182820000Y-91905000D01*
X121920000Y-113030000D02*
X121920000Y-111760000D01*
X120650000Y-113030000D02*
X121920000Y-113030000D01*
X115190000Y-110717071D02*
X115190000Y-110320000D01*
X115950000Y-110717071D02*
X115950000Y-110320000D01*
X115190000Y-101660000D02*
X115190000Y-107660000D01*
X115950000Y-101660000D02*
X115190000Y-101660000D01*
X115950000Y-107660000D02*
X115950000Y-101660000D01*
X116840000Y-110320000D02*
X116840000Y-107660000D01*
X117730000Y-110717071D02*
X117730000Y-110320000D01*
X118490000Y-110717071D02*
X118490000Y-110320000D01*
X117730000Y-101660000D02*
X117730000Y-107660000D01*
X118490000Y-101660000D02*
X117730000Y-101660000D01*
X118490000Y-107660000D02*
X118490000Y-101660000D01*
X119380000Y-110320000D02*
X119380000Y-107660000D01*
X120270000Y-110650000D02*
X120270000Y-110320000D01*
X121030000Y-110650000D02*
X121030000Y-110320000D01*
X120370000Y-107660000D02*
X120370000Y-101660000D01*
X120490000Y-107660000D02*
X120490000Y-101660000D01*
X120610000Y-107660000D02*
X120610000Y-101660000D01*
X120730000Y-107660000D02*
X120730000Y-101660000D01*
X120850000Y-107660000D02*
X120850000Y-101660000D01*
X120970000Y-107660000D02*
X120970000Y-101660000D01*
X120270000Y-101660000D02*
X120270000Y-107660000D01*
X121030000Y-101660000D02*
X120270000Y-101660000D01*
X121030000Y-107660000D02*
X121030000Y-101660000D01*
X121980000Y-107660000D02*
X121980000Y-110320000D01*
X114240000Y-107660000D02*
X121980000Y-107660000D01*
X114240000Y-110320000D02*
X114240000Y-107660000D01*
X121980000Y-110320000D02*
X114240000Y-110320000D01*
D11*
X199390000Y-108585000D02*
X199390000Y-97790000D01*
X196850000Y-111125000D02*
X152400000Y-111125000D01*
X196850000Y-95250000D02*
X152400000Y-95250000D01*
X149860000Y-108585000D02*
X149860000Y-97790000D01*
X196850000Y-111125000D02*
G75*
G03X199390000Y-108585000I0J2540000D01*
G01*
X149860000Y-108585000D02*
G75*
G03X152400000Y-111125000I2540000J0D01*
G01*
X152400000Y-95250000D02*
G75*
G03X149860000Y-97790000I0J-2540000D01*
G01*
X199390000Y-97790000D02*
G75*
G03X196850000Y-95250000I-2540000J0D01*
G01*
X188412380Y-88626666D02*
X189126666Y-88626666D01*
X189269523Y-88579047D01*
X189364761Y-88483809D01*
X189412380Y-88340952D01*
X189412380Y-88245714D01*
X189412380Y-89626666D02*
X189412380Y-89055238D01*
X189412380Y-89340952D02*
X188412380Y-89340952D01*
X188555238Y-89245714D01*
X188650476Y-89150476D01*
X188698095Y-89055238D01*
X122372380Y-107041666D02*
X123086666Y-107041666D01*
X123229523Y-106994047D01*
X123324761Y-106898809D01*
X123372380Y-106755952D01*
X123372380Y-106660714D01*
X122467619Y-107470238D02*
X122420000Y-107517857D01*
X122372380Y-107613095D01*
X122372380Y-107851190D01*
X122420000Y-107946428D01*
X122467619Y-107994047D01*
X122562857Y-108041666D01*
X122658095Y-108041666D01*
X122800952Y-107994047D01*
X123372380Y-107422619D01*
X123372380Y-108041666D01*
X175386904Y-100417380D02*
X175386904Y-101226904D01*
X175339285Y-101322142D01*
X175291666Y-101369761D01*
X175196428Y-101417380D01*
X175005952Y-101417380D01*
X174910714Y-101369761D01*
X174863095Y-101322142D01*
X174815476Y-101226904D01*
X174815476Y-100417380D01*
X174434523Y-100417380D02*
X173815476Y-100417380D01*
X174148809Y-100798333D01*
X174005952Y-100798333D01*
X173910714Y-100845952D01*
X173863095Y-100893571D01*
X173815476Y-100988809D01*
X173815476Y-101226904D01*
X173863095Y-101322142D01*
X173910714Y-101369761D01*
X174005952Y-101417380D01*
X174291666Y-101417380D01*
X174386904Y-101369761D01*
X174434523Y-101322142D01*
X197730952Y-108402380D02*
X197730952Y-107402380D01*
X197350000Y-107402380D01*
X197254761Y-107450000D01*
X197207142Y-107497619D01*
X197159523Y-107592857D01*
X197159523Y-107735714D01*
X197207142Y-107830952D01*
X197254761Y-107878571D01*
X197350000Y-107926190D01*
X197730952Y-107926190D01*
X196730952Y-108021428D02*
X195969047Y-108021428D01*
X197730952Y-98877380D02*
X197730952Y-97877380D01*
X197350000Y-97877380D01*
X197254761Y-97925000D01*
X197207142Y-97972619D01*
X197159523Y-98067857D01*
X197159523Y-98210714D01*
X197207142Y-98305952D01*
X197254761Y-98353571D01*
X197350000Y-98401190D01*
X197730952Y-98401190D01*
X196730952Y-98496428D02*
X195969047Y-98496428D01*
X196350000Y-98877380D02*
X196350000Y-98115476D01*
X189301428Y-97067619D02*
X189253809Y-96924761D01*
X189206190Y-96877142D01*
X189110952Y-96829523D01*
X188968095Y-96829523D01*
X188872857Y-96877142D01*
X188825238Y-96924761D01*
X188777619Y-97020000D01*
X188777619Y-97400952D01*
X189777619Y-97400952D01*
X189777619Y-97067619D01*
X189730000Y-96972380D01*
X189682380Y-96924761D01*
X189587142Y-96877142D01*
X189491904Y-96877142D01*
X189396666Y-96924761D01*
X189349047Y-96972380D01*
X189301428Y-97067619D01*
X189301428Y-97400952D01*
X189158571Y-96400952D02*
X189158571Y-95639047D01*
X189301428Y-110259761D02*
X189253809Y-110116904D01*
X189206190Y-110069285D01*
X189110952Y-110021666D01*
X188968095Y-110021666D01*
X188872857Y-110069285D01*
X188825238Y-110116904D01*
X188777619Y-110212142D01*
X188777619Y-110593095D01*
X189777619Y-110593095D01*
X189777619Y-110259761D01*
X189730000Y-110164523D01*
X189682380Y-110116904D01*
X189587142Y-110069285D01*
X189491904Y-110069285D01*
X189396666Y-110116904D01*
X189349047Y-110164523D01*
X189301428Y-110259761D01*
X189301428Y-110593095D01*
X188777619Y-109069285D02*
X188777619Y-109640714D01*
X188777619Y-109355000D02*
X189777619Y-109355000D01*
X189634761Y-109450238D01*
X189539523Y-109545476D01*
X189491904Y-109640714D01*
X171521428Y-110259761D02*
X171473809Y-110116904D01*
X171426190Y-110069285D01*
X171330952Y-110021666D01*
X171188095Y-110021666D01*
X171092857Y-110069285D01*
X171045238Y-110116904D01*
X170997619Y-110212142D01*
X170997619Y-110593095D01*
X171997619Y-110593095D01*
X171997619Y-110259761D01*
X171950000Y-110164523D01*
X171902380Y-110116904D01*
X171807142Y-110069285D01*
X171711904Y-110069285D01*
X171616666Y-110116904D01*
X171569047Y-110164523D01*
X171521428Y-110259761D01*
X171521428Y-110593095D01*
X171902380Y-109640714D02*
X171950000Y-109593095D01*
X171997619Y-109497857D01*
X171997619Y-109259761D01*
X171950000Y-109164523D01*
X171902380Y-109116904D01*
X171807142Y-109069285D01*
X171711904Y-109069285D01*
X171569047Y-109116904D01*
X170997619Y-109688333D01*
X170997619Y-109069285D01*
X160567619Y-109783571D02*
X160424761Y-109831190D01*
X160377142Y-109878809D01*
X160329523Y-109974047D01*
X160329523Y-110116904D01*
X160377142Y-110212142D01*
X160424761Y-110259761D01*
X160520000Y-110307380D01*
X160900952Y-110307380D01*
X160900952Y-109307380D01*
X160567619Y-109307380D01*
X160472380Y-109355000D01*
X160424761Y-109402619D01*
X160377142Y-109497857D01*
X160377142Y-109593095D01*
X160424761Y-109688333D01*
X160472380Y-109735952D01*
X160567619Y-109783571D01*
X160900952Y-109783571D01*
X159900952Y-109926428D02*
X159139047Y-109926428D01*
X159520000Y-110307380D02*
X159520000Y-109545476D01*
M02*
