G04 #@! TF.GenerationSoftware,KiCad,Pcbnew,(5.1.0)-1*
G04 #@! TF.CreationDate,2019-05-03T22:00:51+02:00*
G04 #@! TF.ProjectId,bigmax_hat,6269676d-6178-45f6-9861-742e6b696361,v1*
G04 #@! TF.SameCoordinates,Original*
G04 #@! TF.FileFunction,Legend,Top*
G04 #@! TF.FilePolarity,Positive*
%FSLAX46Y46*%
G04 Gerber Fmt 4.6, Leading zero omitted, Abs format (unit mm)*
G04 Created by KiCad (PCBNEW (5.1.0)-1) date 2019-05-03 22:00:51*
%MOMM*%
%LPD*%
G04 APERTURE LIST*
%ADD10C,0.150000*%
%ADD11C,0.120000*%
G04 APERTURE END LIST*
D10*
X118110000Y-85725000D02*
X115570000Y-85725000D01*
X115570000Y-85725000D02*
X115570000Y-93345000D01*
X115570000Y-93345000D02*
X118110000Y-93345000D01*
X118110000Y-93345000D02*
X118110000Y-85725000D01*
X118110000Y-99060000D02*
X118110000Y-83185000D01*
X118110000Y-83185000D02*
X105410000Y-83185000D01*
X118110000Y-99060000D02*
X105410000Y-99060000D01*
X105410000Y-99060000D02*
X105410000Y-83185000D01*
X122555000Y-44450000D02*
X182245000Y-44450000D01*
X182245000Y-44450000D02*
X182245000Y-121285000D01*
X182245000Y-121285000D02*
X122555000Y-121285000D01*
X122555000Y-121285000D02*
X122555000Y-44450000D01*
D11*
X194250000Y-86300000D02*
X195580000Y-86300000D01*
X194250000Y-87630000D02*
X194250000Y-86300000D01*
X194250000Y-88900000D02*
X196910000Y-88900000D01*
X196910000Y-88900000D02*
X196910000Y-94040000D01*
X194250000Y-88900000D02*
X194250000Y-94040000D01*
X194250000Y-94040000D02*
X196910000Y-94040000D01*
D10*
X106132380Y-92201904D02*
X106941904Y-92201904D01*
X107037142Y-92154285D01*
X107084761Y-92106666D01*
X107132380Y-92011428D01*
X107132380Y-91820952D01*
X107084761Y-91725714D01*
X107037142Y-91678095D01*
X106941904Y-91630476D01*
X106132380Y-91630476D01*
X107132380Y-90630476D02*
X107132380Y-91201904D01*
X107132380Y-90916190D02*
X106132380Y-90916190D01*
X106275238Y-91011428D01*
X106370476Y-91106666D01*
X106418095Y-91201904D01*
X113752380Y-87185476D02*
X113752380Y-87661666D01*
X114228571Y-87709285D01*
X114180952Y-87661666D01*
X114133333Y-87566428D01*
X114133333Y-87328333D01*
X114180952Y-87233095D01*
X114228571Y-87185476D01*
X114323809Y-87137857D01*
X114561904Y-87137857D01*
X114657142Y-87185476D01*
X114704761Y-87233095D01*
X114752380Y-87328333D01*
X114752380Y-87566428D01*
X114704761Y-87661666D01*
X114657142Y-87709285D01*
X113752380Y-86852142D02*
X114752380Y-86518809D01*
X113752380Y-86185476D01*
X113752380Y-90011190D02*
X113752380Y-89915952D01*
X113800000Y-89820714D01*
X113847619Y-89773095D01*
X113942857Y-89725476D01*
X114133333Y-89677857D01*
X114371428Y-89677857D01*
X114561904Y-89725476D01*
X114657142Y-89773095D01*
X114704761Y-89820714D01*
X114752380Y-89915952D01*
X114752380Y-90011190D01*
X114704761Y-90106428D01*
X114657142Y-90154047D01*
X114561904Y-90201666D01*
X114371428Y-90249285D01*
X114133333Y-90249285D01*
X113942857Y-90201666D01*
X113847619Y-90154047D01*
X113800000Y-90106428D01*
X113752380Y-90011190D01*
X113752380Y-89392142D02*
X114752380Y-89058809D01*
X113752380Y-88725476D01*
X114704761Y-92360714D02*
X114752380Y-92217857D01*
X114752380Y-91979761D01*
X114704761Y-91884523D01*
X114657142Y-91836904D01*
X114561904Y-91789285D01*
X114466666Y-91789285D01*
X114371428Y-91836904D01*
X114323809Y-91884523D01*
X114276190Y-91979761D01*
X114228571Y-92170238D01*
X114180952Y-92265476D01*
X114133333Y-92313095D01*
X114038095Y-92360714D01*
X113942857Y-92360714D01*
X113847619Y-92313095D01*
X113800000Y-92265476D01*
X113752380Y-92170238D01*
X113752380Y-91932142D01*
X113800000Y-91789285D01*
X152273095Y-99782380D02*
X152273095Y-100591904D01*
X152320714Y-100687142D01*
X152368333Y-100734761D01*
X152463571Y-100782380D01*
X152654047Y-100782380D01*
X152749285Y-100734761D01*
X152796904Y-100687142D01*
X152844523Y-100591904D01*
X152844523Y-99782380D01*
X153273095Y-99877619D02*
X153320714Y-99830000D01*
X153415952Y-99782380D01*
X153654047Y-99782380D01*
X153749285Y-99830000D01*
X153796904Y-99877619D01*
X153844523Y-99972857D01*
X153844523Y-100068095D01*
X153796904Y-100210952D01*
X153225476Y-100782380D01*
X153844523Y-100782380D01*
X132334047Y-49601428D02*
X133095952Y-49601428D01*
X132715000Y-49982380D02*
X132715000Y-49220476D01*
X152019047Y-49601428D02*
X152780952Y-49601428D01*
X152400000Y-49982380D02*
X152400000Y-49220476D01*
X171704047Y-49601428D02*
X172465952Y-49601428D01*
X172085000Y-49982380D02*
X172085000Y-49220476D01*
X132334047Y-116276428D02*
X133095952Y-116276428D01*
X152019047Y-116276428D02*
X152780952Y-116276428D01*
X171704047Y-116276428D02*
X172465952Y-116276428D01*
X194818095Y-84752380D02*
X194818095Y-85561904D01*
X194865714Y-85657142D01*
X194913333Y-85704761D01*
X195008571Y-85752380D01*
X195199047Y-85752380D01*
X195294285Y-85704761D01*
X195341904Y-85657142D01*
X195389523Y-85561904D01*
X195389523Y-84752380D01*
X196294285Y-85085714D02*
X196294285Y-85752380D01*
X196056190Y-84704761D02*
X195818095Y-85419047D01*
X196437142Y-85419047D01*
M02*
