M48
; DRILL file {KiCad (5.1.0)-1} date 03/05/2019 22:01:47
; FORMAT={3:3/ absolute / metric / suppress leading zeros}
; #@! TF.CreationDate,2019-05-03T22:01:47+02:00
; #@! TF.GenerationSoftware,Kicad,Pcbnew,(5.1.0)-1
; #@! TF.FileFunction,Plated,1,2,PTH
FMAT,2
METRIC,TZ
T1C0.762
T2C1.000
T3C1.270
%
G90
G05
T1
X116840Y-86995
X116840Y-89535
X116840Y-92075
T2
X184150Y-93345
X186690Y-93345
X115570Y-111760
X118110Y-111760
X120650Y-111760
X156845Y-109855
X174625Y-109855
X192405Y-96520
X192405Y-109855
X196850Y-100965
X196850Y-105410
X195580Y-87630
X195580Y-90170
X195580Y-92710
T3
X132715Y-46990
X132715Y-118745
X152400Y-46990
X152400Y-118745
X172085Y-46990
X172085Y-118745
T0
M30
